<svg width="25" height="24" viewBox="0 0 25 24" fill="none" xmlns="http://www.w3.org/2000/svg">
<g clip-path="url(#clip0_1_187)">
<path d="M24.381 4.20096C24.104 3.12878 23.5164 2.16234 22.692 1.42296C21.7257 0.515344 20.4517 0.00727882 19.126 0.000964649H5.9C5.67383 -0.00330577 5.4477 0.0114125 5.224 0.0449646C3.91118 0.236014 2.71377 0.901236 1.858 1.91496C0.970176 2.90913 0.485841 4.19915 0.499997 5.53196C0.512997 9.89296 0.505997 14.254 0.505997 18.614C0.501721 18.8401 0.51644 19.0663 0.549997 19.29C0.681586 20.1461 1.0107 20.9599 1.51127 21.6669C2.01184 22.3738 2.67013 22.9545 3.434 23.363C4.06359 23.7251 4.76738 23.9392 5.492 23.989H19.445C19.708 23.939 19.983 23.958 20.245 23.883C21.0141 23.6917 21.7345 23.3412 22.3596 22.854C22.9847 22.3669 23.5006 21.754 23.874 21.055C24.2341 20.4181 24.4457 19.7081 24.493 18.978V5.08096C24.4716 4.78582 24.4342 4.49205 24.381 4.20096ZM18.819 22.118H6.206C5.70818 22.1226 5.21438 22.0286 4.75307 21.8414C4.29177 21.6542 3.87209 21.3775 3.51826 21.0273C3.16443 20.6771 2.88344 20.2603 2.69151 19.801C2.49958 19.3416 2.4005 18.8488 2.4 18.351V5.66296C2.39452 5.16639 2.4882 4.67371 2.67556 4.2138C2.86291 3.75389 3.14018 3.336 3.4911 2.98462C3.84202 2.63323 4.25954 2.35541 4.7192 2.16745C5.17886 1.97948 5.67141 1.88514 6.168 1.88996C10.3973 1.88396 14.6267 1.88396 18.856 1.88996C19.3524 1.88541 19.8447 1.97995 20.3042 2.16803C20.7636 2.35612 21.1809 2.63398 21.5316 2.98534C21.8823 3.3367 22.1594 3.7545 22.3466 4.21427C22.5339 4.67405 22.6275 5.16656 22.622 5.66296C22.628 9.8863 22.628 14.1073 22.622 18.326C22.6294 18.8267 22.5362 19.3238 22.3477 19.7877C22.1593 20.2517 21.8795 20.673 21.5251 21.0267C21.1706 21.3805 20.7487 21.6593 20.2843 21.8468C19.82 22.0342 19.3227 22.1265 18.822 22.118H18.819Z" fill="#FF5A00"/>
<path d="M13.451 10.301V17.415C13.4555 17.5404 13.4347 17.6654 13.3899 17.7826C13.3451 17.8998 13.2772 18.0068 13.1902 18.0973C13.1032 18.1877 12.9989 18.2597 12.8836 18.3091C12.7682 18.3584 12.6441 18.384 12.5186 18.3844C12.3931 18.3848 12.2688 18.36 12.1531 18.3114C12.0375 18.2628 11.9327 18.1915 11.8452 18.1016C11.7576 18.0117 11.689 17.9052 11.6434 17.7882C11.5979 17.6713 11.5763 17.5464 11.58 17.421C11.574 16.239 11.58 15.05 11.58 13.867V10.287C11.5766 10.0743 11.6472 9.86705 11.7796 9.70055C11.912 9.53406 12.098 9.41865 12.306 9.374C12.505 9.32803 12.7135 9.34839 12.8998 9.43198C13.0862 9.51558 13.24 9.65781 13.338 9.837C13.4143 9.97962 13.4532 10.1393 13.451 10.301Z" fill="#FF5A00"/>
<path d="M13.682 6.80096C13.682 7.07002 13.5889 7.33078 13.4183 7.53888C13.2478 7.74699 13.0104 7.88958 12.7466 7.94242C12.4828 7.99526 12.2088 7.95507 11.9713 7.82869C11.7337 7.70232 11.5473 7.49756 11.4437 7.24924C11.3401 7.00092 11.3258 6.72439 11.4031 6.46668C11.4804 6.20896 11.6446 5.98599 11.8677 5.83567C12.0909 5.68536 12.3592 5.617 12.6271 5.64221C12.8949 5.66742 13.1458 5.78465 13.337 5.97396C13.4462 6.08228 13.5328 6.2111 13.592 6.35303C13.6513 6.49495 13.6818 6.64718 13.682 6.80096Z" fill="#FF5A00"/>
</g>
<defs>
<clipPath id="clip0_1_187">
<rect width="23.993" height="23.989" fill="white" transform="translate(0.5)"/>
</clipPath>
</defs>
</svg>
