<svg xmlns="http://www.w3.org/2000/svg" width="23.993" height="23.989" viewBox="0 0 23.993 23.989">
  <g id="about_us_icon" transform="translate(0 0.001)">
    <path id="Path_2390" data-name="Path 2390" d="M23.881,4.2a5.62,5.62,0,0,0-1.689-2.778A5.245,5.245,0,0,0,18.626,0H5.4a4.043,4.043,0,0,0-.676.044,5.428,5.428,0,0,0-3.366,1.87A5.345,5.345,0,0,0,0,5.531c.013,4.361.006,8.722.006,13.082a4.042,4.042,0,0,0,.044.676,5.58,5.58,0,0,0,2.884,4.073,4.785,4.785,0,0,0,2.058.626H18.945c.263-.05.538-.031.8-.106a5.664,5.664,0,0,0,3.629-2.828,4.857,4.857,0,0,0,.619-2.077V5.08a8.17,8.17,0,0,0-.112-.88ZM18.319,22.117H5.706A3.771,3.771,0,0,1,1.9,18.35V5.662A3.732,3.732,0,0,1,5.668,1.889q6.344-.009,12.688,0a3.732,3.732,0,0,1,3.766,3.773q.009,6.335,0,12.663a3.737,3.737,0,0,1-3.8,3.792Z" fill="#3a8bc3"/>
    <path id="Path_2391" data-name="Path 2391" d="M12.951,10.3v7.114a.936.936,0,1,1-1.871.006c-.006-1.182,0-2.371,0-3.554v-3.58a.919.919,0,0,1,.726-.913.936.936,0,0,1,1.032.463.956.956,0,0,1,.113.464Z" fill="#3a8bc3"/>
    <path id="Path_2392" data-name="Path 2392" d="M13.182,6.8a1.164,1.164,0,1,1-.345-.827,1.167,1.167,0,0,1,.345.827Z" fill="#3a8bc3"/>
  </g>
</svg>
