<svg id="aboutus_icon" xmlns="http://www.w3.org/2000/svg" width="71" height="71" viewBox="0 0 71 71">
  <path id="Union_1" data-name="Union 1" d="M-2740.2-262q-18.059-2.04-27.46-16.84a36.161,36.161,0,0,1-5.34-16.07v-2.2a3.76,3.76,0,0,1,1.32.56l.058.037-.058-.037a3.76,3.76,0,0,0-1.32-.56v-3.11a37.354,37.354,0,0,1,3.44-12.53q8.93-17.85,29.45-20.25h5.331q21.719,2.73,30.29,22.5a29.844,29.844,0,0,1,1.73,5.8l-.46-.4-.012-.011.012.011.46.4.76,4.59v5.321a36.356,36.356,0,0,1-3.831,13.219q-9.069,17.28-29.09,19.57Zm-8.31-13.44a24.5,24.5,0,0,0,9.57,2.56,22.226,22.226,0,0,0,9.62-1.4,24.744,24.744,0,0,0,15.58-29.91l10-1.08-10,1.08q-4.029-12.33-15.639-16.5a24.248,24.248,0,0,0-9.42-1.48,22.8,22.8,0,0,0-9.46,2.48q-13.141,6.759-14.01,22.15l-.168.041.168-.041Q-2761.449-282.259-2748.51-275.44Zm-22.723-20.96h0Zm.024,0a.717.717,0,0,0,.146-.021A.717.717,0,0,1-2771.209-296.4Zm.208-.039a.9.9,0,0,0,.1-.04A.9.9,0,0,1-2771-296.439Zm.161-.072.031-.016Zm.064-.034.113-.058Zm.116-.06a4.989,4.989,0,0,1,.838-.348A4.989,4.989,0,0,0-2770.66-296.6Zm3.429-.328h0Zm.078,0a20.5,20.5,0,0,0,3.939-.4A20.5,20.5,0,0,1-2767.153-296.933Zm-2.616-.035q.078-.021.151-.036Q-2769.691-296.989-2769.769-296.968Zm.273-.056.089-.008Zm.246-.006-.024,0Zm-.082,0h0Zm6.563-.389.131-.03Zm59.136-7.85h0Zm-.05,0Z" transform="translate(2773 333)" fill="#3a8bc3"/>
  <circle id="Ellipse_9" data-name="Ellipse 9" cx="5.2" cy="5.2" r="5.2" transform="translate(30.3 15.71)" fill="#3a8bc3"/>
  <rect id="Rectangle_1" data-name="Rectangle 1" width="7.5" height="24.96" rx="3.63" transform="translate(31.75 30.13)" fill="#3a8bc3"/>
</svg>
