<svg width="72" height="71" viewBox="0 0 72 71" fill="none" xmlns="http://www.w3.org/2000/svg">
<g clip-path="url(#clip0_1_183)">
<path d="M33.3 71C21.2607 69.64 12.1074 64.0267 5.84009 54.16C2.81325 49.3015 0.982982 43.7938 0.5 38.09V35.89V32.78C0.905854 28.4344 2.07007 24.1936 3.93994 20.25C9.89327 8.35 19.7099 1.6 33.3899 0H38.7209C53.2003 1.82 63.297 9.32 69.011 22.5C69.7827 24.3697 70.3623 26.313 70.741 28.3L71.501 32.89V38.211C71.0773 42.8211 69.7769 47.3078 67.6699 51.43C61.6239 62.95 51.9274 69.4733 38.5801 71H33.3ZM24.99 57.56C27.9724 59.0561 31.229 59.9272 34.5601 60.12C37.8307 60.3689 41.1159 59.8908 44.1799 58.72C50.0776 56.6284 54.9639 52.3801 57.8547 46.8303C60.7456 41.2806 61.4263 34.8416 59.76 28.81C57.074 20.59 51.8611 15.09 44.1211 12.31C41.11 11.198 37.9079 10.695 34.7009 10.83C31.4053 10.9627 28.1778 11.8088 25.241 13.31C16.4803 17.816 11.8103 25.1993 11.231 35.46C11.7776 45.6473 16.364 53.014 24.99 57.56ZM2.84009 36.395C3.10827 36.2538 3.38865 36.1373 3.67798 36.047C3.38848 36.1389 3.10809 36.2571 2.84009 36.4V36.395Z" fill="#FF5A00"/>
<path d="M36 26.11C38.8719 26.11 41.2 23.7818 41.2 20.91C41.2 18.0381 38.8719 15.71 36 15.71C33.1281 15.71 30.8 18.0381 30.8 20.91C30.8 23.7818 33.1281 26.11 36 26.11Z" fill="#FF5A00"/>
<path d="M36.12 30.13H35.88C33.8752 30.13 32.25 31.7552 32.25 33.76V51.46C32.25 53.4648 33.8752 55.09 35.88 55.09H36.12C38.1248 55.09 39.75 53.4648 39.75 51.46V33.76C39.75 31.7552 38.1248 30.13 36.12 30.13Z" fill="#FF5A00"/>
</g>
<defs>
<clipPath id="clip0_1_183">
<rect width="71" height="71" fill="white" transform="translate(0.5)"/>
</clipPath>
</defs>
</svg>
