<svg width="195" height="151" viewBox="0 0 195 151" fill="none" xmlns="http://www.w3.org/2000/svg">
<g clip-path="url(#clip0_1_2)">
<path d="M18.559 22.249C18.559 22.249 21.094 16.29 25.448 18.569C28.962 20.409 28.957 14.792 31.293 15.707C34.593 17.002 35.62 11.912 36.982 12.845C38.773 14.072 39.152 18.086 41.522 17.34C43.679 16.661 43.882 11.314 45.697 14.276C48.62 19.046 50.464 12.436 52.586 17.34C54.178 21.018 59.266 19.387 60.519 22.249H18.559Z" fill="#FF5A00"/>
<path d="M132.47 47.347C132.47 47.347 135.005 41.388 139.359 43.667C142.873 45.507 142.868 39.89 145.204 40.805C148.504 42.105 149.531 37.005 150.893 37.943C152.684 39.17 153.063 43.184 155.433 42.438C157.59 41.759 157.793 36.412 159.608 39.374C162.531 44.144 164.374 37.534 166.497 42.438C168.089 46.116 173.177 44.485 174.43 47.347H132.47Z" fill="#FF5A00"/>
<path d="M190.649 141.044C190.206 141.706 189.613 142.254 188.919 142.644H166.358C165.44 142.305 164.584 141.819 163.823 141.204C163.405 140.988 163.049 140.668 162.788 140.276C162.527 139.884 162.37 139.432 162.332 138.963C162.344 138.669 162.416 138.38 162.545 138.115C162.674 137.85 162.856 137.615 163.08 137.424C163.304 137.233 163.565 137.09 163.847 137.005C164.129 136.92 164.426 136.894 164.718 136.929C165.121 137.072 165.549 137.131 165.976 137.103C166.667 136.929 166.885 136.023 166.709 135.331C166.441 134.675 166.207 134.006 166.009 133.325C165.98 132.991 166.023 132.654 166.135 132.337C166.247 132.021 166.425 131.732 166.658 131.49C166.891 131.249 167.173 131.06 167.486 130.937C167.798 130.813 168.133 130.758 168.468 130.775C169.051 130.917 169.596 131.182 170.069 131.551C170.541 131.921 170.928 132.387 171.206 132.919C171.565 133.453 172.026 134.067 172.666 134.035C172.916 133.997 173.149 133.887 173.337 133.717C173.524 133.547 173.658 133.326 173.72 133.081C173.837 132.59 173.879 132.084 173.845 131.581C173.866 130.143 174.216 128.728 174.869 127.446C175.08 126.927 175.407 126.463 175.825 126.089C176.243 125.716 176.741 125.443 177.281 125.291C177.89 125.237 178.5 125.38 179.022 125.698C179.544 126.016 179.95 126.494 180.181 127.06C180.619 128.207 180.661 129.467 180.302 130.641C180.083 131.511 179.786 132.527 180.35 133.221C180.48 133.379 180.64 133.51 180.822 133.604C181.177 133.787 181.578 133.861 181.974 133.817C182.371 133.772 182.746 133.611 183.051 133.354C183.329 133.112 183.535 132.797 183.815 132.562C184.181 132.286 184.629 132.141 185.087 132.15C185.546 132.159 185.987 132.322 186.342 132.613C186.684 132.917 186.935 133.31 187.068 133.749C187.2 134.187 187.209 134.653 187.092 135.096C186.964 135.596 186.692 136.058 186.53 136.553C186.43 136.794 186.387 137.055 186.406 137.316C186.425 137.576 186.505 137.829 186.639 138.053C187.428 139.123 189.339 138.073 190.396 138.885C190.678 139.162 190.857 139.527 190.903 139.92C190.949 140.313 190.859 140.709 190.649 141.044Z" fill="#FF5A00"/>
<path d="M177.857 127.054C178.295 128.201 178.338 129.461 177.979 130.635C177.76 131.505 177.463 132.521 178.027 133.214C178.157 133.372 178.317 133.503 178.499 133.597C178.827 133.766 179.196 133.841 179.564 133.816C179.932 133.79 180.286 133.664 180.588 133.451C180.496 133.383 180.414 133.303 180.342 133.214C179.778 132.52 180.076 131.504 180.294 130.635C180.653 129.461 180.61 128.201 180.172 127.054C179.942 126.488 179.536 126.01 179.014 125.692C178.492 125.373 177.881 125.231 177.272 125.285C176.996 125.333 176.73 125.429 176.487 125.569C177.092 125.903 177.573 126.424 177.857 127.054Z" fill="black"/>
<path d="M163.659 137.099C163.764 137.072 163.862 137.027 163.95 136.964C163.808 137.001 163.669 137.053 163.538 137.119C163.579 137.115 163.619 137.108 163.659 137.099Z" fill="#F0863C"/>
<path d="M168.89 132.915C169.248 133.449 169.71 134.063 170.35 134.032C170.586 133.998 170.807 133.898 170.988 133.743C171.169 133.589 171.303 133.386 171.373 133.158C171.315 133.077 171.258 132.995 171.205 132.915C170.927 132.383 170.54 131.917 170.067 131.547C169.595 131.178 169.05 130.913 168.467 130.771C167.999 130.729 167.53 130.845 167.136 131.101C167.848 131.569 168.447 132.188 168.89 132.915Z" fill="black"/>
<path d="M190.387 138.877C189.333 138.065 187.419 139.116 186.63 138.045C186.496 137.821 186.416 137.568 186.397 137.308C186.378 137.047 186.421 136.786 186.521 136.545C186.68 136.045 186.955 135.593 187.083 135.088C187.2 134.645 187.191 134.179 187.059 133.74C186.927 133.302 186.675 132.909 186.333 132.605C185.989 132.326 185.565 132.165 185.122 132.147C184.68 132.129 184.243 132.255 183.878 132.505C183.926 132.538 183.973 132.573 184.018 132.605C184.36 132.909 184.612 133.302 184.744 133.74C184.876 134.179 184.885 134.645 184.768 135.088C184.64 135.588 184.368 136.05 184.206 136.545C184.106 136.786 184.063 137.047 184.082 137.308C184.101 137.568 184.181 137.821 184.315 138.045C185.104 139.115 187.015 138.065 188.072 138.877C188.356 139.154 188.537 139.52 188.584 139.915C188.631 140.309 188.541 140.708 188.33 141.044C187.887 141.706 187.294 142.254 186.6 142.644H188.915C189.609 142.254 190.202 141.706 190.645 141.044C190.856 140.708 190.946 140.309 190.899 139.915C190.852 139.52 190.671 139.154 190.387 138.877Z" fill="black"/>
<path d="M179.726 133.802C179.684 134.096 179.58 134.378 179.423 134.629C179.265 134.88 179.056 135.096 178.81 135.262C178.281 135.617 177.541 135.75 177.21 136.347C177.202 136.362 177.189 136.373 177.174 136.38C177.018 137.018 176.862 137.656 176.727 138.295C176.388 139.718 176.277 141.187 176.398 142.645H176.237C176.192 142.239 176.172 141.831 176.176 141.423C176.188 140.735 176.25 140.05 176.362 139.371C176.345 139.372 176.329 139.366 176.316 139.355C176.303 139.344 176.295 139.329 176.293 139.312C176.2 138.967 176.005 138.658 175.734 138.426C175.446 138.126 175.157 137.834 174.868 137.538C174.289 137.059 173.919 136.373 173.837 135.626C173.839 135.606 173.849 135.587 173.864 135.574C173.879 135.56 173.898 135.553 173.919 135.553C173.939 135.553 173.958 135.56 173.973 135.574C173.988 135.587 173.998 135.606 174 135.626C174.107 136.391 174.508 137.085 175.118 137.559C175.396 137.845 175.682 138.126 175.955 138.419C176.152 138.614 176.306 138.847 176.407 139.105C176.673 137.571 177.115 136.062 177.438 134.539C177.658 133.558 177.787 132.558 177.826 131.553L177.806 131.541C177.536 131.345 177.312 131.092 177.151 130.8C176.99 130.508 176.895 130.184 176.874 129.851C176.882 129.751 177.045 129.751 177.037 129.851C177.052 130.141 177.13 130.425 177.267 130.681C177.404 130.937 177.595 131.16 177.828 131.334C177.86 130.167 177.637 129.007 177.175 127.934C177.132 127.84 177.275 127.756 177.317 127.852C177.55 128.375 177.721 128.923 177.827 129.486C178.116 129.138 178.307 128.719 178.381 128.273C178.399 128.173 178.555 128.214 178.539 128.316C178.452 128.83 178.218 129.308 177.865 129.692C177.959 130.26 178.001 130.836 177.993 131.412C177.926 132.965 177.683 134.504 177.268 136.002C177.662 135.677 178.102 135.412 178.574 135.216C178.842 135.066 179.071 134.857 179.245 134.604C179.418 134.351 179.531 134.062 179.574 133.758C179.586 133.65 179.746 133.695 179.726 133.802Z" fill="#FFCEAB"/>
<path d="M172.668 142.641H172.504C172.519 142.279 172.516 141.916 172.493 141.554C172.493 141.464 172.48 141.373 172.472 141.283C172.466 141.295 172.456 141.304 172.444 141.31C172.433 141.316 172.419 141.318 172.406 141.316C171.289 141.199 170.26 140.655 169.535 139.797C169.468 139.718 169.583 139.597 169.65 139.682C170.345 140.509 171.332 141.036 172.406 141.152C172.417 141.153 172.428 141.156 172.437 141.162C172.447 141.167 172.455 141.174 172.462 141.183C172.392 140.419 172.205 139.671 171.908 138.964C171.627 138.333 171.275 137.736 170.861 137.183C170.847 137.187 170.832 137.187 170.818 137.183C169.928 136.925 168.768 137.313 168.067 136.537C167.998 136.458 168.113 136.343 168.182 136.422C168.495 136.721 168.91 136.889 169.343 136.892C169.803 136.893 170.263 136.926 170.719 136.992C170.694 136.961 170.671 136.928 170.647 136.892C170.147 136.238 169.605 135.618 169.088 134.977C168.835 134.66 168.588 134.337 168.355 134.004C168.102 133.659 167.904 133.278 167.766 132.874C167.735 132.774 167.893 132.731 167.924 132.831C168.091 133.296 168.332 133.732 168.638 134.12C168.824 134.378 169.019 134.626 169.216 134.873C169.386 134.608 169.49 134.306 169.517 133.993C169.545 133.679 169.497 133.364 169.376 133.073C169.335 132.973 169.476 132.894 169.517 132.991C169.657 133.317 169.713 133.674 169.679 134.027C169.646 134.381 169.524 134.72 169.326 135.015C169.385 135.089 169.444 135.163 169.505 135.237C170.387 136.213 171.164 137.278 171.825 138.415C171.955 138.067 172.225 137.787 172.381 137.447C172.542 136.906 172.492 136.324 172.24 135.819C172.206 135.719 172.363 135.676 172.398 135.775C172.643 136.289 172.702 136.871 172.565 137.424C172.406 137.853 172.024 138.177 171.932 138.632C172.038 138.85 172.133 139.073 172.215 139.301C172.578 140.377 172.732 141.512 172.668 142.646V142.641Z" fill="#FFCEAB"/>
<path d="M168.77 142.64H168.602C168.512 142.181 168.324 141.746 168.051 141.366C167.997 141.292 167.936 141.225 167.875 141.156C167.861 141.16 167.845 141.16 167.831 141.156C167.531 141.085 167.26 141.322 166.991 141.417C166.719 141.509 166.422 141.49 166.164 141.363C166.064 141.319 166.153 141.177 166.246 141.223C166.378 141.284 166.523 141.313 166.668 141.309C166.814 141.305 166.956 141.268 167.085 141.2C167.278 141.083 167.494 141.009 167.718 140.983C167.484 140.749 167.227 140.54 166.95 140.358C166.498 140.058 166.011 139.804 165.536 139.539C165.296 139.41 165.062 139.268 164.836 139.115C164.653 139.008 164.519 138.834 164.463 138.63C164.441 138.53 164.599 138.484 164.619 138.587C164.676 138.863 164.964 139.011 165.185 139.144C165.463 139.312 165.749 139.466 166.033 139.622C166.054 139.635 166.076 139.647 166.099 139.658C166.148 139.324 166.112 138.983 165.992 138.668C165.956 138.568 166.114 138.527 166.15 138.624C166.277 138.972 166.311 139.347 166.25 139.712C166.248 139.722 166.244 139.731 166.237 139.739C167.099 140.141 167.837 140.767 168.373 141.552C168.567 141.89 168.702 142.257 168.773 142.64H168.77Z" fill="#FFCEAB"/>
<path d="M186.016 135.334C185.955 135.563 185.716 135.668 185.516 135.747C185.271 135.84 185.013 135.891 184.751 135.898H184.741C184.654 136.008 184.563 136.113 184.471 136.219C183.972 136.746 183.51 137.307 183.086 137.896C182.42 138.884 181.918 139.974 181.6 141.123C182.134 140.85 182.728 140.717 183.27 140.457C183.553 140.353 183.804 140.177 183.999 139.946C184.195 139.716 184.327 139.439 184.383 139.143C184.393 139.043 184.556 139.043 184.547 139.143C184.499 139.445 184.376 139.731 184.19 139.974C184.004 140.217 183.76 140.409 183.48 140.534C182.859 140.863 182.152 140.988 181.542 141.334C181.432 141.762 181.348 142.196 181.291 142.634H181.125C181.275 141.465 181.611 140.327 182.12 139.264C182.12 139.259 182.115 139.256 182.113 139.251C181.896 138.47 181.322 137.651 181.727 136.826C181.773 136.732 181.914 136.815 181.868 136.908C181.519 137.613 181.991 138.37 182.222 139.05C182.456 138.58 182.724 138.127 183.022 137.695C183.206 137.43 183.403 137.172 183.611 136.924C183.343 136.313 183.26 135.637 183.374 134.979C183.392 134.879 183.55 134.92 183.532 135.022C183.43 135.617 183.499 136.229 183.732 136.786C183.949 136.533 184.177 136.286 184.398 136.038C184.929 135.52 185.268 134.837 185.358 134.101C185.358 134.001 185.526 134.001 185.521 134.101C185.472 134.695 185.243 135.26 184.865 135.72C185.049 135.704 185.23 135.665 185.404 135.605C185.562 135.547 185.804 135.467 185.854 135.284C185.857 135.273 185.862 135.262 185.868 135.252C185.875 135.243 185.884 135.235 185.894 135.229C185.905 135.224 185.916 135.22 185.927 135.219C185.939 135.217 185.951 135.218 185.962 135.222C185.973 135.225 185.983 135.231 185.992 135.239C186.001 135.246 186.008 135.256 186.013 135.266C186.018 135.277 186.021 135.288 186.022 135.3C186.022 135.311 186.02 135.323 186.016 135.334Z" fill="#FFCEAB"/>
<path d="M189.266 140.462C188.873 140.498 188.487 140.589 188.12 140.733C188.112 140.743 188.101 140.751 188.089 140.757C188.077 140.762 188.064 140.764 188.051 140.763C187.98 140.793 187.906 140.821 187.835 140.854C187.518 141.006 187.22 141.195 186.947 141.418C187.451 141.459 187.942 141.594 188.395 141.818C188.489 141.866 188.406 142.006 188.313 141.959C187.847 141.728 187.338 141.596 186.818 141.571C186.805 141.571 186.791 141.567 186.78 141.56C186.437 141.867 186.147 142.228 185.922 142.629C185.922 142.631 185.921 142.634 185.92 142.636C185.919 142.638 185.918 142.64 185.916 142.642H185.733C185.808 142.496 185.891 142.355 185.983 142.219C186.233 141.855 186.537 141.531 186.883 141.257C187.218 140.993 187.588 140.777 187.983 140.616C187.993 140.258 188.06 139.905 188.183 139.569C188.219 139.469 188.377 139.515 188.341 139.613C188.23 139.915 188.166 140.232 188.15 140.553C188.511 140.42 188.888 140.335 189.271 140.3C189.366 140.296 189.366 140.453 189.266 140.462Z" fill="#FFCEAB"/>
<path d="M37.174 139.001C36.106 139.546 34.896 139.777 33.848 140.354C32.8 140.931 31.848 141.681 32.076 142.859H26.097L23.627 142.866H21.174C21.187 140.705 19.36 138.978 17.474 137.924C16.8399 137.67 16.3081 137.213 15.962 136.624C15.8644 136.205 15.8686 135.768 15.9742 135.35C16.0798 134.933 16.2837 134.547 16.569 134.224C17.131 133.379 17.7466 132.572 18.412 131.806C18.5926 131.531 18.8348 131.303 19.1194 131.138C19.4039 130.974 19.7229 130.878 20.051 130.858C20.3221 130.919 20.5773 131.037 20.7998 131.204C21.0224 131.371 21.2075 131.582 21.343 131.825C22.2484 133.094 22.8682 134.544 23.16 136.076C23.254 136.566 23.452 137.192 23.948 137.199C24.354 137.206 24.613 136.764 24.698 136.368C25.019 134.859 24.156 133.392 23.64 131.938C23.3003 130.912 23.0527 129.857 22.9 128.787C22.7587 128.189 22.74 127.568 22.845 126.963C23.215 125.425 24.961 124.682 26.518 124.409C27.9429 124.084 29.4312 124.176 30.805 124.675C31.4839 124.938 32.0721 125.392 32.4981 125.982C32.9241 126.573 33.1696 127.274 33.205 128.001C33.182 129.325 32.287 130.441 31.618 131.587C30.6537 133.234 30.1046 135.091 30.018 136.997C29.9903 137.218 30.025 137.443 30.118 137.646C30.418 138.195 31.286 137.993 31.734 137.555C32.304 136.906 32.6945 136.12 32.867 135.274C33.0406 134.43 33.371 133.627 33.841 132.905C34.0838 132.55 34.4308 132.279 34.8342 132.129C35.2376 131.98 35.6774 131.96 36.093 132.071C36.4228 132.215 36.719 132.426 36.963 132.691C37.6296 133.352 38.1978 134.105 38.65 134.927C38.8896 135.321 39.0455 135.761 39.108 136.218C39.0884 136.819 38.8954 137.402 38.5522 137.895C38.2091 138.389 37.7304 138.773 37.174 139.001Z" fill="#FF5A00"/>
<path d="M19.291 131.836C20.1964 133.105 20.8163 134.556 21.108 136.087C21.202 136.577 21.4 137.203 21.896 137.21C22.302 137.217 22.561 136.775 22.646 136.379C22.7556 135.066 22.4737 133.75 21.836 132.597C21.682 132.337 21.52 132.082 21.344 131.836C21.2085 131.593 21.0235 131.382 20.8009 131.215C20.5783 131.048 20.3231 130.931 20.052 130.869C19.8347 130.862 19.6184 130.9 19.4168 130.982C19.2152 131.063 19.0327 131.185 18.881 131.341C19.0317 131.496 19.1689 131.663 19.291 131.841V131.836Z" fill="black"/>
<path d="M28.754 124.688C29.4329 124.951 30.0211 125.405 30.4471 125.995C30.8731 126.586 31.1186 127.287 31.154 128.014C31.131 129.338 30.236 130.454 29.567 131.6C28.6027 133.247 28.0536 135.104 27.9669 137.01C27.9393 137.231 27.9739 137.456 28.067 137.659C28.367 138.208 29.235 138.006 29.683 137.568C29.8058 137.445 29.9172 137.311 30.016 137.168C30.016 137.114 30.016 137.06 30.016 137.006C30.1026 135.1 30.6517 133.243 31.616 131.596C32.284 130.45 33.1799 129.334 33.2029 128.01C33.1676 127.283 32.9221 126.582 32.4961 125.991C32.0701 125.401 31.4819 124.947 30.8029 124.684C29.6926 124.259 28.4912 124.127 27.3149 124.301C27.8098 124.365 28.2939 124.495 28.754 124.688Z" fill="black"/>
<path d="M39.118 136.231C39.0557 135.774 38.9002 135.335 38.661 134.94C38.2095 134.118 37.642 133.364 36.976 132.703C36.732 132.438 36.4358 132.227 36.106 132.083C35.8368 131.996 35.5509 131.973 35.2712 132.016C34.9915 132.059 34.7257 132.166 34.495 132.33C34.6457 132.444 34.7884 132.568 34.922 132.702C35.5886 133.363 36.1568 134.116 36.609 134.938C36.8482 135.333 37.0038 135.772 37.066 136.229C37.0433 136.829 36.8478 137.41 36.5029 137.901C36.158 138.393 35.6785 138.775 35.122 139C34.054 139.545 32.844 139.776 31.796 140.353C30.748 140.93 29.796 141.68 30.024 142.858H24.045L21.576 142.865H23.629L26.098 142.858H32.076C31.852 141.68 32.796 140.934 33.848 140.353C34.9 139.772 36.106 139.545 37.174 139C37.73 138.775 38.2091 138.393 38.5538 137.902C38.8984 137.411 39.094 136.831 39.117 136.231H39.118Z" fill="black"/>
<path d="M22.716 142.877H22.395C22.3671 142.384 22.3033 141.894 22.204 141.41C22.0863 140.843 21.9235 140.286 21.717 139.745C21.6895 139.752 21.6611 139.754 21.633 139.751C21.0972 139.657 20.597 139.419 20.186 139.063C20.159 139.032 20.1447 138.992 20.1459 138.951C20.1471 138.91 20.1637 138.872 20.1925 138.842C20.2213 138.813 20.26 138.796 20.3009 138.794C20.3418 138.793 20.3818 138.806 20.413 138.833C20.7496 139.116 21.1507 139.312 21.581 139.404C20.8759 137.716 19.751 136.235 18.313 135.104C18.147 134.977 18.381 134.747 18.543 134.873C18.9461 135.191 19.3267 135.537 19.682 135.908C19.7933 135.368 19.8206 134.814 19.763 134.266C19.7632 134.223 19.7804 134.182 19.8107 134.152C19.841 134.121 19.8821 134.104 19.925 134.104C19.9673 134.106 20.0074 134.124 20.0374 134.154C20.0673 134.184 20.085 134.224 20.087 134.266C20.1539 134.915 20.1079 135.57 19.951 136.203C20.009 136.271 20.071 136.336 20.13 136.403C21.6649 138.227 22.5716 140.497 22.716 142.877Z" fill="#FFCEAB"/>
<path d="M28.877 135.708C28.2064 136.886 27.3124 137.922 26.245 138.758C26.186 140.186 26.2458 141.617 26.424 143.035H26.0989C26.0323 142.529 25.9826 142.023 25.95 141.516C25.8933 140.613 25.8836 139.707 25.921 138.803C25.9051 138.773 25.8976 138.74 25.8994 138.706C25.9011 138.672 25.912 138.64 25.931 138.612C26.0188 136.684 26.3207 134.773 26.831 132.912C26.8017 132.899 26.7777 132.876 26.763 132.847C26.0466 131.49 25.5981 130.008 25.442 128.482C25.419 128.274 25.7419 128.274 25.7669 128.482C25.9105 129.88 26.3091 131.24 26.943 132.494C27.3169 131.207 27.79 129.95 28.358 128.736C28.449 128.545 28.728 128.71 28.64 128.898C28.1179 130.012 27.6784 131.162 27.325 132.34C26.7378 134.288 26.3837 136.299 26.27 138.33C27.208 137.551 27.9965 136.607 28.597 135.546C28.621 135.514 28.6557 135.493 28.6947 135.485C28.7336 135.477 28.7741 135.483 28.8085 135.503C28.8429 135.523 28.8688 135.555 28.8814 135.593C28.894 135.63 28.8924 135.671 28.877 135.708Z" fill="#FFCEAB"/>
<path d="M36.658 137.129C35.9533 137.529 35.1411 137.7 34.335 137.616C33.1174 138.418 31.963 139.312 30.882 140.29C30.2329 141.03 29.764 141.911 29.512 142.863H29.171C29.246 142.594 29.333 142.327 29.434 142.063C29.5699 141.71 29.7348 141.37 29.9269 141.044C29.901 141.017 29.8861 140.981 29.8849 140.944C29.867 140.824 29.8226 140.71 29.7549 140.61C29.6929 140.488 29.644 140.359 29.6089 140.227C29.5419 139.954 29.5399 139.67 29.603 139.396C29.648 139.196 29.9629 139.279 29.9179 139.48C29.8631 139.724 29.872 139.978 29.9439 140.217C29.9959 140.386 30.0899 140.535 30.1519 140.697C30.3169 140.453 30.4991 140.221 30.697 140.003C31.2875 139.413 31.9392 138.888 32.641 138.436C33.121 138.105 33.628 137.764 34.098 137.388C34.1073 137.361 34.1241 137.337 34.1464 137.32C34.1687 137.302 34.1956 137.291 34.2239 137.288C35.0049 136.701 35.5981 135.9 35.9309 134.981C35.9929 134.781 36.307 134.867 36.243 135.069C35.9545 135.902 35.4529 136.645 34.788 137.223C34.756 137.255 34.72 137.285 34.688 137.314C35.321 137.322 35.9449 137.162 36.4959 136.85C36.5323 136.835 36.5727 136.834 36.6097 136.847C36.6468 136.86 36.678 136.886 36.6977 136.919C36.7173 136.953 36.7242 136.993 36.7169 137.032C36.7096 137.07 36.6887 137.105 36.658 137.129Z" fill="#FFCEAB"/>
<path d="M128.078 13.561H62.597C59.2833 13.561 56.597 16.2473 56.597 19.561V136.623C56.597 139.937 59.2833 142.623 62.597 142.623H128.078C131.392 142.623 134.078 139.937 134.078 136.623V19.561C134.078 16.2473 131.392 13.561 128.078 13.561Z" fill="white"/>
<path d="M127.858 5.39404H62.89C61.8413 5.39378 60.8028 5.60013 59.8339 6.00131C58.8649 6.40248 57.9845 6.99063 57.2429 7.73215C56.5013 8.47366 55.913 9.35402 55.5117 10.3229C55.1104 11.2918 54.9039 12.3303 54.9041 13.379V135.229C54.9033 136.373 55.149 137.505 55.6244 138.546C56.0997 139.587 56.7937 140.513 57.659 141.262L57.829 141.406C59.2546 142.579 61.0442 143.218 62.89 143.214H127.858C129.976 143.213 132.007 142.372 133.505 140.875C135.003 139.378 135.846 137.347 135.848 135.229V13.383C135.848 12.3336 135.642 11.2945 135.24 10.3249C134.838 9.35541 134.25 8.47453 133.507 7.73261C132.765 6.9907 131.884 6.4023 130.914 6.00104C129.945 5.59978 128.905 5.39352 127.856 5.39404H127.858ZM134.158 132.117C134.092 134.404 133.122 136.572 131.459 138.144C129.796 139.716 127.578 140.564 125.29 140.502H65.4641C63.1767 140.564 60.9581 139.716 59.2955 138.144C57.6328 136.572 56.662 134.404 56.596 132.117V21.288C56.6371 19.8655 57.2411 18.5174 58.2753 17.5398C59.3095 16.5622 60.6894 16.035 62.112 16.074H128.64C130.062 16.0353 131.442 16.5626 132.476 17.5402C133.51 18.5177 134.114 19.8657 134.155 21.288L134.158 132.117Z" fill="#FF5A00"/>
<path d="M67.78 10.992C67.78 11.5003 67.6293 11.9972 67.3469 12.4198C67.0645 12.8424 66.6631 13.1719 66.1935 13.3664C65.7239 13.5609 65.2072 13.6118 64.7087 13.5126C64.2101 13.4135 63.7522 13.1687 63.3928 12.8093C63.0333 12.4498 62.7886 11.9919 62.6894 11.4934C62.5902 10.9948 62.6411 10.4781 62.8356 10.0085C63.0302 9.53889 63.3596 9.13751 63.7822 8.85512C64.2048 8.57272 64.7017 8.422 65.21 8.422C65.8916 8.422 66.5453 8.69277 67.0273 9.17474C67.5093 9.6567 67.78 10.3104 67.78 10.992Z" fill="white"/>
<path d="M66.949 10.9921C66.949 11.336 66.847 11.6723 66.6559 11.9583C66.4647 12.2443 66.1931 12.4672 65.8753 12.5988C65.5575 12.7304 65.2078 12.7647 64.8704 12.6976C64.533 12.6304 64.2232 12.4647 63.98 12.2214C63.7368 11.9781 63.5713 11.6681 63.5043 11.3307C63.4373 10.9933 63.4719 10.6436 63.6037 10.3259C63.7354 10.0081 63.9585 9.7366 64.2446 9.54564C64.5307 9.35468 64.867 9.25285 65.211 9.25305C65.672 9.25332 66.1141 9.43665 66.44 9.76275C66.7659 10.0888 66.949 10.531 66.949 10.9921Z" fill="#FF5A00"/>
<path d="M73.04 10.9921C73.04 11.336 72.938 11.6722 72.7469 11.9582C72.5558 12.2442 72.2842 12.4671 71.9665 12.5987C71.6487 12.7303 71.299 12.7647 70.9617 12.6976C70.6244 12.6305 70.3145 12.4649 70.0713 12.2217C69.8281 11.9785 69.6625 11.6686 69.5954 11.3313C69.5283 10.994 69.5627 10.6443 69.6944 10.3266C69.826 10.0088 70.0489 9.73721 70.3349 9.54613C70.6209 9.35504 70.9571 9.25305 71.301 9.25305C71.7622 9.25305 72.2045 9.43626 72.5307 9.76239C72.8568 10.0885 73.04 10.5308 73.04 10.9921Z" fill="white"/>
<path d="M95.538 33.844C90.7929 33.844 86.1542 35.2511 82.2088 37.8874C78.2633 40.5236 75.1882 44.2707 73.3723 48.6546C71.5564 53.0386 71.0813 57.8626 72.007 62.5166C72.9328 67.1706 75.2178 71.4456 78.5731 74.8009C81.9285 78.1563 86.2035 80.4413 90.8574 81.367C95.5114 82.2927 100.335 81.8176 104.719 80.0017C109.103 78.1858 112.85 75.1107 115.487 71.1652C118.123 67.2198 119.53 62.5812 119.53 57.836C119.53 51.4729 117.002 45.3705 112.503 40.8711C108.004 36.3717 101.901 33.844 95.538 33.844ZM73.197 57.836C73.1953 53.74 74.32 49.7224 76.4483 46.2228C78.5766 42.7232 81.6265 39.8764 85.2642 37.9938C88.9019 36.1112 92.9874 35.2653 97.0735 35.5488C101.16 35.8323 105.089 37.2341 108.432 39.601L81.323 75.064C78.7807 72.9704 76.7336 70.3397 75.3286 67.361C73.9236 64.3823 73.1957 61.1294 73.197 57.836ZM95.538 80.177C90.9148 80.1812 86.4053 78.743 82.638 76.063L109.748 40.603C113.3 43.5278 115.862 47.4783 117.083 51.9142C118.304 56.3502 118.126 61.0552 116.572 65.3858C115.018 69.7165 112.164 73.4616 108.401 76.1089C104.638 78.7563 100.149 80.1767 95.548 80.176L95.538 80.177Z" fill="#FF5A00"/>
<path d="M111.697 101.911H78.133C77.9617 101.911 77.7974 101.843 77.6762 101.722C77.5551 101.601 77.487 101.436 77.487 101.265C77.487 101.094 77.5551 100.929 77.6762 100.808C77.7974 100.687 77.9617 100.619 78.133 100.619H111.697C111.868 100.619 112.033 100.687 112.154 100.808C112.275 100.929 112.343 101.094 112.343 101.265C112.343 101.436 112.275 101.601 112.154 101.722C112.033 101.843 111.868 101.911 111.697 101.911Z" fill="#FF5A00"/>
<path d="M118.459 108.154H71.371C71.1996 108.154 71.0353 108.086 70.9142 107.965C70.793 107.844 70.725 107.679 70.725 107.508C70.725 107.337 70.793 107.172 70.9142 107.051C71.0353 106.93 71.1996 106.862 71.371 106.862H118.459C118.63 106.862 118.795 106.93 118.916 107.051C119.037 107.172 119.105 107.337 119.105 107.508C119.105 107.679 119.037 107.844 118.916 107.965C118.795 108.086 118.63 108.154 118.459 108.154Z" fill="#FF5A00"/>
<path d="M54.117 91.801C53.157 105.523 51.755 118.156 51.871 129.822C51.894 132.112 51.485 134.403 51.422 136.55C51.422 136.55 48.899 136.377 48.622 136.402C48.338 134.228 47.922 131.95 47.675 129.731C46.553 119.353 45.928 108.462 45.681 97.196L54.117 91.801Z" fill="#FFCEAB"/>
<path d="M54.095 89.472C59.021 96.072 50.743 110.872 52.336 129.991L47.278 129.911C46.156 119.532 45.923 108.463 45.678 97.196L54.095 89.472Z" fill="#23263D"/>
<path d="M51.481 136.086L52.338 138.444L52.073 142.192L51.338 142.266L50.496 139.041L49.418 141.268C49.2987 141.568 49.1094 141.836 48.8659 142.048C48.6224 142.26 48.3317 142.412 48.018 142.489C46.29 142.805 42.893 143.041 42.693 141.906C42.487 140.74 45.78 140.518 46.675 139.179C47.542 137.879 48.575 136.189 48.575 136.189L51.481 136.086Z" fill="#23263D"/>
<path d="M46.977 83.0192C65.256 97.2852 40.921 105.752 41.84 110.098C42.759 114.444 48.58 120.382 49.189 121.355C49.533 122.498 49.977 124.755 48.619 124.438C47.8385 123.703 46.8732 123.194 45.826 122.964C45.826 122.964 47.026 123.136 45.426 122.873C43.826 122.61 36.147 115.421 35.763 112.831C34.7 105.665 41.392 100.088 43.617 94.8752C45.842 89.6622 45.169 87.3112 46.977 83.0192Z" fill="#FFCEAB"/>
<path d="M46.913 83.0051C49.1531 83.9094 51.0476 85.5028 52.3223 87.5549C53.5971 89.6069 54.186 92.0112 54.004 94.4201C53.566 102.28 42.252 107.635 42.979 110.998C43.134 111.713 46.614 117.817 48.303 119.408C47.5585 120.781 46.6913 122.083 45.712 123.299C43.035 121.765 35.545 116.147 34.983 113.199C33.601 105.919 44.528 90.0471 46.913 83.0051Z" fill="#393D5C"/>
<path d="M49.169 121.259C49.8094 121.177 50.4536 121.129 51.0991 121.114C52.0161 121.154 53.6181 121.422 54.6641 121.514C54.7021 121.768 54.693 122.008 54.713 122.256C53.63 122.484 52.539 122.701 51.463 122.937C52.127 123.269 52.9771 123.81 53.6031 124.105C53.8875 124.249 54.1375 124.453 54.336 124.703C54.5344 124.953 54.6767 125.242 54.7531 125.552C54.9941 126.818 55.3871 130.443 53.9431 130.709C52.4991 130.975 52.3851 127.494 51.4101 126.771C50.4351 126.048 49.483 125.28 48.54 124.534C48.744 123.439 48.96 122.354 49.169 121.259Z" fill="#393D5C"/>
<path d="M47.2 64.4631L47 65.6831C47.185 65.2461 51.2 63.6411 47.012 73.7831C46.23 75.6831 43.644 79.9981 42.162 79.9321C38.547 79.7711 32.093 71.7941 32.093 71.7941C31.3039 71.2272 30.6698 70.471 30.249 69.5951C29.8283 68.7191 29.6343 67.7515 29.685 66.7811C30.385 63.0371 31.285 68.1261 33.057 68.4301C33.449 68.5011 33.724 66.8011 34.312 67.4301C34.754 67.9051 34.196 70.1301 34.196 70.1301C34.196 70.1301 41.111 75.0761 41.265 75.0581C41.528 74.8101 44.365 66.1711 46.348 64.8581C46.607 64.6781 46.8953 64.5445 47.2 64.4631Z" fill="#FFCEAB"/>
<path d="M47.004 65.6831L48.471 73.2651C48.471 73.2651 46.381 77.5521 46.114 78.4151C44.1837 77.3633 42.5249 75.8764 41.269 74.0721C42.563 71.7851 45.351 64.5251 47.338 63.2081L47.004 65.6831Z" fill="#FF5A00"/>
<path d="M43.31 58.8082C42.7149 58.2694 42.2937 57.5658 42.0999 56.7868C41.9061 56.0079 41.9486 55.1889 42.222 54.4342C43.065 52.0282 47.055 51.1442 48.593 52.0942C49.2447 52.5105 49.7856 53.0789 50.1691 53.7506C50.5526 54.4222 50.7672 55.177 50.7944 55.9499C50.8217 56.7229 50.6607 57.4908 50.3255 58.1878C49.9903 58.8848 49.4908 59.4899 48.87 59.9512L43.31 58.8082Z" fill="#393D5C"/>
<path d="M55.3 66.583C56.539 70.95 56.171 73.544 56.22 77.359C56.372 80.304 54.293 85.005 52.853 88.482C50.211 87.996 46.765 87.882 44.121 87.395C44.121 87.395 50.852 79.649 49.179 75.872C46.121 68.735 47.338 63.208 47.338 63.208C47.119 62.783 46.32 61.218 46.088 60.765L48.404 59.4C48.949 60.047 50.151 61.465 50.704 62.122C52.1229 63.7227 53.6606 65.2139 55.304 66.583H55.3Z" fill="#FFCEAB"/>
<path d="M54.976 86.2251C54.303 88.7771 55.322 89.7721 54.776 89.9641C51.569 91.0981 46.197 89.6411 43.908 88.8721C41.956 88.2161 46.545 82.3641 45.428 76.1211C43.677 66.3291 47.334 63.2071 47.334 63.2071C47.576 65.6491 48.865 64.7601 50.702 62.1221C58.427 64.0111 58.669 74.7201 54.976 86.2251Z" fill="black"/>
<path opacity="0.8" d="M54.976 86.2251C54.303 88.7771 55.322 89.7721 54.776 89.9641C51.569 91.0981 46.197 89.6411 43.908 88.8721C41.956 88.2161 46.545 82.3641 45.428 76.1211C43.677 66.3291 47.334 63.2071 47.334 63.2071C47.576 65.6491 48.865 64.7601 50.702 62.1221C58.427 64.0111 58.669 74.7201 54.976 86.2251Z" fill="#FF5A00"/>
<path d="M49.355 60.5311C48.7331 61.377 47.9298 62.073 47.004 62.5681L46.083 60.7681L48.4 59.4031L49.355 60.5311Z" fill="#E6E6E6"/>
<path d="M49.045 57.1061C49.045 57.1061 49.958 55.9121 49.289 55.2431C48.527 54.4811 47.509 56.3511 47.509 56.3511C46.093 56.8201 44.942 56.4981 43.365 55.6211C43.283 55.5755 43.1898 55.5543 43.0962 55.5598C43.0026 55.5653 42.9126 55.5974 42.8366 55.6523C42.7606 55.7072 42.7018 55.7826 42.6672 55.8697C42.6325 55.9568 42.6234 56.052 42.641 56.1441C42.968 57.8441 43.754 61.0801 45.091 61.6941C45.4388 61.8404 45.8157 61.9043 46.1923 61.8809C46.5688 61.8575 46.9349 61.7473 47.262 61.5591C48.74 60.8221 49.052 57.2611 49.045 57.1061Z" fill="#FFCEAB"/>
<path d="M47.847 51.8111C47.847 51.8111 48.423 49.2271 50.48 50.2531C50.8528 50.3954 51.1673 50.6582 51.3736 50.9998C51.58 51.3413 51.6663 51.742 51.6188 52.1382C51.5713 52.5344 51.3929 52.9034 51.1117 53.1866C50.8305 53.4697 50.4628 53.6508 50.067 53.7011C48.65 53.8531 47.847 51.8111 47.847 51.8111Z" fill="#393D5C"/>
<path d="M43.31 58.8071C43.31 58.8071 43.246 56.5071 43.087 55.5141C43.087 55.5141 43.533 57.1251 45.987 57.5141C46.5179 57.6085 47.0024 57.8766 47.3644 58.2762C47.7265 58.6759 47.9455 59.1845 47.987 59.7221C48.2317 58.5762 48.062 57.3806 47.508 56.3481L46.652 54.9361C46.2016 54.8332 45.7599 54.6951 45.331 54.5231C45.317 54.4421 42.802 54.4231 42.802 54.4231L42.242 55.7961L43.31 58.8071Z" fill="#393D5C"/>
<path d="M52.006 85.3151C50.779 86.9891 44.889 92.4151 43.336 94.0451C43.2527 94.1305 43.1905 94.2342 43.1544 94.3479C43.1183 94.4616 43.1092 94.5822 43.128 94.7001C43.208 95.2051 42.982 95.5311 41.908 96.8121C40.775 98.1501 42.27 101.796 40.022 99.637C38.338 98.019 39.322 95.6061 40.589 93.2631L47.789 81.9071C48.3163 78.7483 48.6171 75.5558 48.689 72.3541C48.726 71.1651 51.907 67.431 54.563 71.534C55.972 73.704 53.091 83.8361 52.006 85.3151Z" fill="#FFCEAB"/>
<path d="M54.905 78.2201C52.5266 78.4046 50.1356 78.1007 47.879 77.3271C47.879 77.3271 46.801 63.5051 52.299 65.0771C56.094 66.1631 56.007 73.4581 54.905 78.2201Z" fill="#FF5A00"/>
<path d="M29.841 62.1278L28.838 62.738L33.0929 69.7314L34.0958 69.1212L29.841 62.1278Z" fill="#393D5C"/>
<path d="M31.648 29.427C33.4664 29.4271 35.2518 29.9121 36.8203 30.832C38.3888 31.7519 39.6835 33.0736 40.571 34.6606C41.4586 36.2476 41.9068 38.0426 41.8696 39.8606C41.8323 41.6786 41.3109 43.4537 40.359 45.003L42.633 50.403L36.181 48.814C34.8001 49.4971 33.2828 49.8593 31.7422 49.8736C30.2017 49.8878 28.6779 49.5538 27.2846 48.8963C25.8914 48.2389 24.6647 47.2751 23.6963 46.077C22.7278 44.8788 22.0427 43.4773 21.692 41.9772C21.3413 40.477 21.3342 38.917 21.6712 37.4138C22.0082 35.9105 22.6805 34.5028 23.638 33.2959C24.5954 32.0889 25.8133 31.114 27.2005 30.4439C28.5877 29.7738 30.1084 29.4258 31.649 29.426L31.648 29.427Z" fill="#FF5A00"/>
<path d="M32.027 42.6471L28.965 41.8031L29.049 41.4971C29.154 41.0634 29.3323 40.6508 29.576 40.2771C29.7854 39.9831 30.0475 39.7305 30.349 39.5321C30.9823 39.1617 31.639 38.833 32.315 38.5481C32.8484 38.3134 33.1557 38.0468 33.237 37.7481C33.2795 37.6234 33.2951 37.491 33.2827 37.3599C33.2702 37.2287 33.2302 37.1016 33.165 36.9871C32.9914 36.745 32.7316 36.5785 32.439 36.5221C32.2651 36.4685 32.0821 36.4513 31.9012 36.4716C31.7204 36.4919 31.5457 36.5493 31.388 36.6401C30.985 36.9347 30.6888 37.3524 30.544 37.8301L27.524 36.5811C27.8739 35.5496 28.5926 34.6838 29.542 34.1501C30.6919 33.636 31.9969 33.59 33.18 34.0221C34.1905 34.2503 35.1086 34.7784 35.814 35.5371C36.1913 35.937 36.4578 36.4283 36.5872 36.9627C36.7167 37.497 36.7045 38.0559 36.552 38.5841C36.4205 39.0502 36.1635 39.4711 35.809 39.8011C35.219 40.2865 34.5508 40.6683 33.833 40.9301C33.3544 41.1013 32.9099 41.3559 32.5201 41.6821C32.2778 41.9576 32.1083 42.2893 32.027 42.6471ZM28.636 42.5881L31.916 43.4881L31.116 46.3811L27.836 45.4811L28.636 42.5881Z" fill="white"/>
<path d="M171.546 8.96099C169.701 8.15409 167.66 7.90954 165.677 8.25798C163.693 8.60641 161.857 9.53234 160.398 10.9197C158.939 12.3071 157.922 14.0943 157.474 16.0573C157.026 18.0203 157.167 20.0718 157.88 21.9548C158.593 23.8377 159.846 25.4684 161.482 26.6425C163.118 27.8166 165.063 28.4818 167.075 28.5549C169.088 28.628 171.077 28.1056 172.793 27.0532C174.51 26.0009 175.877 24.4653 176.725 22.639C177.852 20.1384 177.939 17.2926 176.968 14.7276C175.997 12.1625 174.046 10.0883 171.546 8.96099ZM163.598 26.083C162.087 25.3405 160.83 24.1687 159.982 22.7145C159.135 21.2603 158.735 19.5883 158.834 17.908C158.933 16.2278 159.525 14.614 160.537 13.2689C161.548 11.9237 162.935 10.9072 164.522 10.3464C166.109 9.78573 167.826 9.70584 169.458 10.1168C171.09 10.5277 172.565 11.4113 173.697 12.6566C174.829 13.902 175.569 15.4538 175.823 17.1177C176.077 18.7815 175.835 20.4834 175.126 22.01C174.137 24.0788 172.367 25.6701 170.204 26.4337C168.042 27.1974 165.665 27.0708 163.596 26.082L163.598 26.083Z" fill="#FF5A00"/>
<path d="M169.647 16.6261L163.488 12.8831L164.839 19.9441L171.087 23.6901L169.649 16.6281L169.647 16.6261Z" fill="#FF5A00"/>
<path d="M168.248 17.4681C168.387 17.6662 168.465 17.9011 168.47 18.1431C168.476 18.3851 168.409 18.6234 168.28 18.8276C168.15 19.0319 167.962 19.193 167.74 19.2906C167.519 19.3882 167.273 19.4178 167.035 19.3757C166.796 19.3337 166.576 19.2218 166.401 19.0543C166.226 18.8868 166.105 18.6712 166.053 18.4348C166.001 18.1983 166.02 17.9518 166.108 17.7263C166.196 17.5008 166.349 17.3066 166.548 17.1681C166.813 16.9831 167.141 16.9108 167.46 16.967C167.779 17.0232 168.062 17.2034 168.248 17.4681Z" fill="white"/>
<path d="M169.045 89.6871C167.793 86.9421 166.006 84.4551 164.885 81.6541C162.812 76.4741 163.172 70.679 162.211 65.183C161.25 59.687 158.18 53.783 152.73 52.593C148.691 51.708 144.445 53.7931 141.723 56.9021C139.001 60.0111 137.538 64.013 136.33 67.968C135.473 70.775 134.63 73.7621 132.485 75.7681C131.048 77.1151 129.154 77.8881 127.685 79.2001C126.567 80.2911 125.702 81.6143 125.151 83.0764C124.601 84.5384 124.378 86.1035 124.499 87.6611C124.766 90.778 125.743 93.7924 127.356 96.4731C128.367 98.0427 129.178 99.732 129.772 101.502C130.415 103.943 129.972 106.529 130.195 109.044C130.378 111.106 131.01 113.102 132.045 114.895C133.08 116.687 134.495 118.231 136.189 119.42C137.884 120.608 139.817 121.412 141.855 121.776C143.893 122.139 145.985 122.053 147.986 121.523C155.004 125.54 167.153 119.851 167.633 111.423C168.063 103.87 172.183 96.5671 169.045 89.6871Z" fill="#FF5A00"/>
<path d="M169.045 89.6871C167.793 86.9421 166.006 84.455 164.885 81.653C162.812 76.473 163.172 70.6781 162.211 65.1821C161.25 59.6861 158.18 53.7821 152.73 52.5921C148.691 51.7071 144.445 53.7921 141.722 56.9011C141.406 57.2621 141.108 57.6371 140.822 58.0211C141.089 59.5117 141.501 60.9726 142.052 62.3831C143.173 65.1831 144.959 67.6711 146.212 70.4171C149.35 77.2971 145.23 84.6 144.801 92.149C144.422 98.813 136.754 103.762 130.09 103.562C130.217 105.373 130.032 107.227 130.19 109.045C130.373 111.108 131.005 113.105 132.041 114.898C133.077 116.691 134.492 118.235 136.188 119.424C137.883 120.613 139.818 121.416 141.857 121.779C143.895 122.141 145.989 122.054 147.99 121.523C155.008 125.54 167.157 119.851 167.637 111.423C168.062 103.87 172.183 96.5671 169.045 89.6871Z" fill="#FF5A00"/>
<path d="M169.045 89.6871C167.793 86.9421 166.006 84.4551 164.885 81.6531C162.812 76.4731 163.172 70.6781 162.211 65.1821C161.25 59.6861 158.18 53.7821 152.73 52.5921C152.262 52.4904 151.787 52.4269 151.309 52.4021C151.574 53.2837 151.786 54.1803 151.945 55.0871C152.906 60.5871 152.545 66.3781 154.619 71.5581C155.74 74.3581 157.526 76.8461 158.778 79.5921C161.917 86.4721 157.796 93.7751 157.367 101.325C156.888 109.757 144.739 115.445 137.72 111.425C135.396 112.027 132.959 112.034 130.631 111.448C131.597 115.085 133.967 118.19 137.222 120.079C140.476 121.968 144.348 122.486 147.985 121.521C155.003 125.538 167.152 119.849 167.632 111.421C168.063 103.87 172.183 96.5671 169.045 89.6871Z" fill="#FF5A00"/>
<path d="M155.253 80.935C152.963 83.135 150.782 85.4511 148.68 87.8351V74.649C148.68 74.5164 148.627 74.3892 148.534 74.2955C148.44 74.2017 148.313 74.149 148.18 74.149C148.047 74.149 147.92 74.2017 147.826 74.2955C147.733 74.3892 147.68 74.5164 147.68 74.649V89.0121C147.65 89.1071 147.65 89.209 147.68 89.304V104.68L139.962 94.121C139.585 93.605 138.714 94.1051 139.096 94.6281L147.447 106.059C147.505 106.137 147.585 106.197 147.677 106.23V142.4C147.677 142.533 147.73 142.66 147.823 142.754C147.917 142.847 148.044 142.9 148.177 142.9C148.31 142.9 148.437 142.847 148.531 142.754C148.624 142.66 148.677 142.533 148.677 142.4V89.329C150.988 86.6624 153.416 84.1011 155.96 81.6451C156.428 81.1961 155.718 80.487 155.253 80.935Z" fill="#004057"/>
<path d="M194.376 142.624H12.799C12.6559 142.624 12.54 142.74 12.54 142.883C12.54 143.026 12.6559 143.142 12.799 143.142H194.376C194.519 143.142 194.635 143.026 194.635 142.883C194.635 142.74 194.519 142.624 194.376 142.624Z" fill="#282D47"/>
<path d="M9.133 142.624H0.759C0.615958 142.624 0.5 142.74 0.5 142.883C0.5 143.026 0.615958 143.142 0.759 143.142H9.133C9.27604 143.142 9.392 143.026 9.392 142.883C9.392 142.74 9.27604 142.624 9.133 142.624Z" fill="#30334D"/>
<path d="M166.174 150.019H157.8C157.657 150.019 157.541 150.135 157.541 150.278C157.541 150.421 157.657 150.537 157.8 150.537H166.174C166.317 150.537 166.433 150.421 166.433 150.278C166.433 150.135 166.317 150.019 166.174 150.019Z" fill="#30334D"/>
<path d="M151.344 150.019H116.57C116.427 150.019 116.311 150.135 116.311 150.278C116.311 150.421 116.427 150.537 116.57 150.537H151.344C151.487 150.537 151.603 150.421 151.603 150.278C151.603 150.135 151.487 150.019 151.344 150.019Z" fill="#30334D"/>
<path d="M175.025 68.625C175.063 68.6863 175.086 68.7555 175.092 68.8272C175.099 68.8989 175.089 68.9711 175.063 69.0383C175.037 69.1054 174.996 69.1657 174.943 69.2144C174.89 69.263 174.826 69.2988 174.757 69.319L173.189 69.776C173.11 69.7991 173.026 69.801 172.947 69.7815C172.867 69.762 172.793 69.7218 172.734 69.6649C172.674 69.608 172.631 69.5365 172.608 69.4575C172.585 69.3785 172.583 69.2948 172.603 69.215L172.991 67.628C173.011 67.5482 173.051 67.475 173.107 67.4156C173.164 67.3563 173.236 67.313 173.314 67.29C173.393 67.267 173.477 67.2651 173.557 67.2846C173.636 67.3041 173.71 67.3442 173.769 67.401L174.949 68.531C174.978 68.5589 175.004 68.5905 175.025 68.625ZM172.973 69.378C172.978 69.3853 172.983 69.392 172.989 69.398C173.002 69.4107 173.018 69.4196 173.036 69.4238C173.053 69.4281 173.072 69.4274 173.089 69.422L174.657 68.965C174.674 68.9599 174.689 68.9506 174.701 68.938C174.713 68.9255 174.721 68.91 174.725 68.8932C174.729 68.8763 174.729 68.8587 174.724 68.842C174.719 68.8253 174.71 68.8101 174.698 68.798L173.518 67.669C173.505 67.6572 173.49 67.6488 173.473 67.6448C173.456 67.6408 173.439 67.6412 173.422 67.6461C173.405 67.6509 173.39 67.66 173.378 67.6724C173.366 67.6848 173.357 67.7002 173.353 67.717L172.965 69.304C172.96 69.3158 172.957 69.3286 172.957 69.3415C172.957 69.3544 172.96 69.3671 172.965 69.379L172.973 69.378Z" fill="#FF5A00"/>
<path d="M11.828 46.476C11.8654 46.5374 11.8882 46.6066 11.8947 46.6782C11.9011 46.7499 11.891 46.822 11.8651 46.8891C11.8391 46.9562 11.7982 47.0164 11.7453 47.0651C11.6924 47.1138 11.629 47.1497 11.56 47.17L9.992 47.627C9.91316 47.6501 9.82964 47.652 9.74983 47.6325C9.67003 47.613 9.59676 47.5729 9.53737 47.5162C9.47798 47.4594 9.43457 47.388 9.41151 47.3092C9.38846 47.2304 9.38656 47.1469 9.40601 47.067L9.79401 45.48C9.81353 45.4003 9.85371 45.327 9.91049 45.2677C9.96728 45.2084 10.0387 45.165 10.1175 45.142C10.1963 45.119 10.2798 45.1172 10.3596 45.1367C10.4394 45.1561 10.5126 45.1963 10.572 45.253L11.752 46.382C11.7812 46.4101 11.8067 46.4416 11.828 46.476ZM9.776 47.23C9.78756 47.2494 9.8053 47.2642 9.82636 47.2722C9.84741 47.2802 9.87053 47.2808 9.892 47.274L11.46 46.817C11.4766 46.812 11.4916 46.8027 11.5035 46.7901C11.5155 46.7775 11.5239 46.762 11.528 46.7452C11.5322 46.7284 11.5319 46.7107 11.5271 46.6941C11.5224 46.6774 11.5134 46.6622 11.501 46.65L10.321 45.521C10.3083 45.5092 10.2928 45.5009 10.276 45.4969C10.2591 45.4929 10.2415 45.4933 10.2249 45.4981C10.2082 45.503 10.1931 45.5121 10.1811 45.5245C10.169 45.5369 10.1604 45.5523 10.156 45.569L9.76801 47.156C9.76365 47.1686 9.76201 47.182 9.76321 47.1953C9.76442 47.2086 9.76845 47.2214 9.77501 47.233L9.776 47.23Z" fill="#FF5A00"/>
<path d="M150.627 23.931L151.204 23.354C151.267 23.2912 151.302 23.2059 151.302 23.117C151.302 23.0281 151.267 22.9429 151.204 22.88C151.141 22.8172 151.056 22.7819 150.967 22.7819C150.878 22.7819 150.793 22.8172 150.73 22.88L150.153 23.457L149.576 22.88C149.513 22.8172 149.428 22.7819 149.339 22.7819C149.25 22.7819 149.165 22.8172 149.102 22.88C149.039 22.9429 149.004 23.0281 149.004 23.117C149.004 23.2059 149.039 23.2912 149.102 23.354L149.679 23.931L149.103 24.507C149.072 24.5381 149.047 24.5751 149.03 24.6158C149.014 24.6564 149.005 24.7 149.005 24.744C149.005 24.788 149.014 24.8316 149.03 24.8723C149.047 24.9129 149.072 24.9499 149.103 24.981C149.134 25.0121 149.171 25.0368 149.212 25.0537C149.252 25.0705 149.296 25.0792 149.34 25.0792C149.384 25.0792 149.428 25.0705 149.468 25.0537C149.509 25.0368 149.546 25.0121 149.577 24.981L150.153 24.405L150.729 24.981C150.76 25.0121 150.797 25.0368 150.838 25.0537C150.878 25.0705 150.922 25.0792 150.966 25.0792C151.01 25.0792 151.054 25.0705 151.094 25.0537C151.135 25.0368 151.172 25.0121 151.203 24.981C151.234 24.9499 151.259 24.9129 151.276 24.8723C151.293 24.8316 151.301 24.788 151.301 24.744C151.301 24.7 151.293 24.6564 151.276 24.6158C151.259 24.5751 151.234 24.5381 151.203 24.507L150.627 23.931Z" fill="#FF5A00"/>
<path d="M50.371 5.39307L50.948 4.81606C50.9791 4.78494 51.0038 4.74799 51.0206 4.70733C51.0375 4.66666 51.0461 4.62308 51.0461 4.57906C51.0461 4.53505 51.0375 4.49147 51.0206 4.45081C51.0038 4.41014 50.9791 4.37319 50.948 4.34206C50.9168 4.31094 50.8799 4.28625 50.8392 4.26941C50.7986 4.25257 50.755 4.2439 50.711 4.2439C50.667 4.2439 50.6234 4.25257 50.5827 4.26941C50.542 4.28625 50.5051 4.31094 50.474 4.34206L49.897 4.91907L49.32 4.34206C49.2889 4.31094 49.2519 4.28625 49.2112 4.26941C49.1706 4.25257 49.127 4.2439 49.083 4.2439C49.039 4.2439 48.9954 4.25257 48.9547 4.26941C48.914 4.28625 48.8771 4.31094 48.846 4.34206C48.8149 4.37319 48.7902 4.41014 48.7733 4.45081C48.7565 4.49147 48.7478 4.53505 48.7478 4.57906C48.7478 4.62308 48.7565 4.66666 48.7733 4.70733C48.7902 4.74799 48.8149 4.78494 48.846 4.81606L49.423 5.39307L48.847 5.96906C48.7841 6.03192 48.7488 6.11718 48.7488 6.20607C48.7488 6.29496 48.7841 6.38021 48.847 6.44307C48.9098 6.50593 48.9951 6.54124 49.084 6.54124C49.1728 6.54124 49.2581 6.50593 49.321 6.44307L49.897 5.86707L50.473 6.44307C50.5358 6.50593 50.6211 6.54124 50.71 6.54124C50.7989 6.54124 50.8841 6.50593 50.947 6.44307C51.0098 6.38021 51.0451 6.29496 51.0451 6.20607C51.0451 6.11718 51.0098 6.03192 50.947 5.96906L50.371 5.39307Z" fill="#FF5A00"/>
<path d="M186.012 41.2371C185.751 41.2371 185.497 41.1598 185.28 41.0149C185.063 40.8701 184.894 40.6643 184.794 40.4235C184.695 40.1826 184.668 39.9176 184.719 39.662C184.77 39.4063 184.896 39.1714 185.08 38.9871C185.264 38.8028 185.499 38.6773 185.755 38.6264C186.011 38.5755 186.276 38.6017 186.516 38.7014C186.757 38.8012 186.963 38.9701 187.108 39.1868C187.253 39.4036 187.33 39.6584 187.33 39.9191C187.33 40.2686 187.191 40.6039 186.944 40.851C186.697 41.0982 186.362 41.2371 186.012 41.2371ZM186.012 39.0141C185.804 39.0153 185.603 39.0886 185.443 39.2214C185.282 39.3543 185.173 39.5386 185.134 39.7429C185.094 39.9471 185.127 40.1588 185.225 40.3419C185.324 40.525 185.484 40.6681 185.676 40.747C185.869 40.8258 186.083 40.8355 186.282 40.7743C186.481 40.7132 186.652 40.585 186.767 40.4116C186.882 40.2382 186.934 40.0303 186.913 39.8232C186.892 39.6162 186.8 39.4228 186.652 39.2761C186.568 39.1923 186.468 39.1261 186.358 39.0811C186.248 39.0362 186.131 39.0134 186.012 39.0141Z" fill="#FF5A00"/>
<path d="M22.717 98.949C22.4563 98.9492 22.2013 98.872 21.9844 98.7273C21.7675 98.5826 21.5984 98.3767 21.4985 98.1359C21.3986 97.895 21.3725 97.6299 21.4233 97.3742C21.4741 97.1184 21.5997 96.8834 21.7841 96.699C21.9684 96.5147 22.2034 96.3891 22.4591 96.3383C22.7149 96.2874 22.98 96.3136 23.2208 96.4135C23.4617 96.5134 23.6676 96.6825 23.8123 96.8994C23.9571 97.1163 24.0342 97.3713 24.034 97.632C24.0338 97.9812 23.8949 98.3161 23.648 98.563C23.401 98.8099 23.0662 98.9488 22.717 98.949ZM22.717 96.726C22.5392 96.726 22.3654 96.7786 22.2175 96.8773C22.0696 96.976 21.9543 97.1163 21.886 97.2805C21.8177 97.4446 21.7996 97.6253 21.834 97.7997C21.8683 97.9742 21.9535 98.1346 22.0789 98.2606C22.2042 98.3867 22.3641 98.4728 22.5384 98.5081C22.7126 98.5434 22.8934 98.5263 23.058 98.4589C23.2225 98.3916 23.3634 98.277 23.4629 98.1296C23.5624 97.9823 23.616 97.8088 23.617 97.631C23.6177 97.5124 23.5949 97.3948 23.55 97.285C23.505 97.1753 23.4388 97.0755 23.3552 96.9914C23.2715 96.9073 23.1721 96.8405 23.0626 96.795C22.9531 96.7494 22.8356 96.726 22.717 96.726Z" fill="#FF5A00"/>
<path d="M142.509 20.563L130.909 0.473026C130.826 0.329143 130.706 0.209687 130.562 0.12664C130.418 0.043594 130.255 -0.00012207 130.089 -0.00012207C129.922 -0.00012207 129.759 0.043594 129.615 0.12664C129.471 0.209687 129.351 0.329143 129.268 0.473026L117.668 20.562C117.585 20.7061 117.541 20.8695 117.542 21.0358C117.542 21.202 117.586 21.3653 117.669 21.5093C117.752 21.6532 117.871 21.7728 118.015 21.856C118.159 21.9391 118.323 21.9829 118.489 21.983H141.689C141.855 21.9827 142.018 21.9387 142.162 21.8555C142.305 21.7723 142.425 21.6529 142.508 21.5091C142.591 21.3653 142.635 21.2023 142.635 21.0362C142.635 20.8702 142.592 20.707 142.509 20.563Z" fill="#FF5A00"/>
<path d="M140.692 19.8981L130.579 2.38307C130.53 2.2975 130.459 2.22642 130.373 2.177C130.288 2.12758 130.191 2.10156 130.092 2.10156C129.993 2.10156 129.896 2.12758 129.811 2.177C129.725 2.22642 129.654 2.2975 129.605 2.38307L119.493 19.8981C119.444 19.9835 119.418 20.0805 119.418 20.1791C119.418 20.2778 119.444 20.3748 119.493 20.4602C119.542 20.5456 119.613 20.6166 119.699 20.6659C119.784 20.7152 119.881 20.7411 119.98 20.7411H140.205C140.304 20.7411 140.401 20.7152 140.486 20.6659C140.572 20.6166 140.643 20.5456 140.692 20.4602C140.741 20.3748 140.767 20.2778 140.767 20.1791C140.767 20.0805 140.741 19.9835 140.692 19.8981Z" fill="white"/>
<path d="M140.692 19.8981L130.58 2.38307C130.531 2.2975 130.46 2.22642 130.374 2.177C130.289 2.12758 130.192 2.10156 130.093 2.10156C129.994 2.10156 129.897 2.12758 129.812 2.177C129.726 2.22642 129.655 2.2975 129.606 2.38307L129.552 2.47707L139.275 19.3181C139.324 19.4035 139.35 19.5005 139.35 19.5991C139.35 19.6978 139.324 19.7948 139.275 19.8802C139.226 19.9656 139.155 20.0366 139.069 20.0859C138.984 20.1352 138.887 20.1611 138.788 20.1611H119.419C119.417 20.2364 119.429 20.3114 119.456 20.3817C119.484 20.4519 119.525 20.516 119.577 20.5702C119.629 20.6243 119.692 20.6673 119.762 20.6966C119.831 20.726 119.906 20.7411 119.981 20.7411H140.206C140.305 20.7409 140.401 20.7149 140.487 20.6655C140.572 20.6161 140.643 20.5452 140.692 20.4598C140.741 20.3743 140.767 20.2775 140.767 20.1789C140.767 20.0803 140.741 19.9835 140.692 19.8981Z" fill="#DDE4F0"/>
<path d="M130.093 16.261C129.84 16.2598 129.597 16.1643 129.411 15.9933C129.224 15.8222 129.109 15.5879 129.086 15.336L128.448 7.78604C128.436 7.64632 128.453 7.50556 128.498 7.37271C128.543 7.23986 128.615 7.11783 128.709 7.01437C128.804 6.91092 128.919 6.82829 129.048 6.77177C129.176 6.71524 129.315 6.68605 129.455 6.68604H130.73C130.87 6.68589 131.009 6.71499 131.138 6.77146C131.266 6.82794 131.381 6.91056 131.476 7.01405C131.571 7.11754 131.643 7.23963 131.688 7.37255C131.733 7.50547 131.75 7.64629 131.737 7.78604L131.099 15.336C131.076 15.5876 130.961 15.8217 130.775 15.9927C130.589 16.1637 130.346 16.2593 130.093 16.261Z" fill="#DDE4F0"/>
<path d="M130.73 7.01709H129.454C129.359 7.01703 129.266 7.03662 129.179 7.07464C129.093 7.11265 129.015 7.16825 128.951 7.23792C128.887 7.30759 128.838 7.3898 128.807 7.47935C128.777 7.56889 128.765 7.66381 128.773 7.75809L129.411 15.3081C129.424 15.4797 129.502 15.64 129.628 15.7569C129.754 15.8739 129.92 15.9389 130.092 15.9389C130.264 15.9389 130.43 15.8739 130.556 15.7569C130.682 15.64 130.76 15.4797 130.773 15.3081L131.411 7.75809C131.419 7.66381 131.407 7.56889 131.377 7.47935C131.346 7.3898 131.297 7.30759 131.233 7.23792C131.169 7.16825 131.092 7.11265 131.005 7.07464C130.918 7.03662 130.825 7.01703 130.73 7.01709Z" fill="#FF5A00"/>
<path d="M130.092 18.9191C129.828 18.9187 129.572 18.8267 129.367 18.6588C129.163 18.4908 129.024 18.2573 128.972 17.998C128.921 17.7387 128.961 17.4696 129.086 17.2365C129.211 17.0035 129.412 16.8209 129.657 16.7198C129.901 16.6188 130.173 16.6056 130.426 16.6824C130.679 16.7592 130.897 16.9213 131.044 17.1412C131.191 17.361 131.257 17.6249 131.231 17.888C131.205 18.1511 131.089 18.3971 130.902 18.5841C130.796 18.6904 130.669 18.7748 130.53 18.8323C130.391 18.8898 130.242 18.9193 130.092 18.9191Z" fill="#DDE4F0"/>
<path d="M129.276 17.775C129.276 17.6136 129.324 17.4558 129.414 17.3216C129.503 17.1874 129.631 17.0829 129.78 17.0211C129.929 16.9593 130.093 16.9432 130.251 16.9747C130.41 17.0062 130.555 17.0839 130.669 17.198C130.783 17.3121 130.861 17.4575 130.892 17.6158C130.924 17.7741 130.908 17.9381 130.846 18.0872C130.784 18.2363 130.68 18.3638 130.545 18.4535C130.411 18.5431 130.253 18.591 130.092 18.591C129.876 18.591 129.668 18.505 129.515 18.352C129.362 18.199 129.276 17.9914 129.276 17.775Z" fill="#FF5A00"/>
</g>
<defs>
<clipPath id="clip0_1_2">
<rect width="194.135" height="150.537" fill="white" transform="translate(0.5)"/>
</clipPath>
</defs>
</svg>
