<svg xmlns="http://www.w3.org/2000/svg" width="632.953" height="288.406" viewBox="0 0 632.953 288.406">
  <g id="app_logo" transform="translate(178.125 -291.062)">
    <g id="LeaWIN" transform="translate(-178.125 291.062)">
      <g id="Group_107" data-name="Group 107" transform="translate(0 0)">
        <path id="Path_5592" data-name="Path 5592" d="M193.737,85.256V168.21c0,.519.011,1.044-.033,1.563a2.57,2.57,0,0,1-.972,1.85c-4.4,3.678-8.8,7.357-13.233,10.991-4.065,3.33-8.063,6.744-12.09,10.113-5.556,4.65-11.073,9.345-16.679,13.929s-11.134,9.251-16.712,13.868c-5.33,4.413-10.709,8.765-15.967,13.261-3.778,3.231-7.76,6.23-11.322,9.709a15.166,15.166,0,0,0-4.258,7.45,12.76,12.76,0,0,0,1.889,10.284,10.239,10.239,0,0,0,6.164,4.225c4.258,1.16,8.566.784,12.868.525,3.143-.188,6.291-.514,9.395-.911a76.221,76.221,0,0,1,12.084-.26,51.625,51.625,0,0,1,7,.718c2.182.37,4.374.806,6.517,1.381a56.439,56.439,0,0,1,10.83,3.921c1.988.994,3.988,1.961,5.91,3.076a56.512,56.512,0,0,1,7.478,5.33A13.926,13.926,0,0,1,184.541,281c1.8,2.154,1.679,4.192-.271,6.258a3.283,3.283,0,0,1-3.468,1.005,5.314,5.314,0,0,1-1.927-1.16,64.376,64.376,0,0,0-8.461-6.191c-1.635-.967-3.325-1.845-5.048-2.673-2.082-1-4.269-1.712-6.407-2.546a15.665,15.665,0,0,0-2.855-.817c-2.071-.37-4.148-.773-6.224-1.11-5.738-.933-11.493-.541-17.237-.591a26.858,26.858,0,0,0-4.672.276c-2.69.453-5.44.293-8.086.773a29.223,29.223,0,0,1-7.031.3,22.658,22.658,0,0,1-5.12-.983,23.048,23.048,0,0,1-4.313-1.7,17.585,17.585,0,0,1-5.849-5.158,25.421,25.421,0,0,1-4.037-9.892,28.58,28.58,0,0,1-.806-6.175v-42.8q0-61.073-.028-122.151a3.74,3.74,0,0,1,1.464-3.286c3.7-2.96,7.323-6.014,10.963-9.052,3.849-3.214,7.677-6.462,11.526-9.676,3.612-3.01,7.252-5.981,10.869-8.98q7.5-6.205,14.978-12.432c3.789-3.159,7.555-6.351,11.35-9.5,3.728-3.1,7.489-6.164,11.217-9.267,3.457-2.872,6.882-5.783,10.333-8.66,3.756-3.132,7.544-6.224,11.294-9.361,1.983-1.657,3.927-3.358,5.876-5.048.249-.215.48-.492.823-.37.37.133.315.519.326.828.017.4.006.8.006,1.2v83.2Z" transform="translate(-92.7 0.004)" fill="#3a8bc3"/>
        <path id="Path_5593" data-name="Path 5593" d="M133.01,280.87a14.255,14.255,0,0,1,2.27-2.077c3.259-2.734,6.55-5.429,9.82-8.146q5.542-4.606,11.073-9.234,5.31-4.424,10.626-8.842l11.085-9.229q2.974-2.477,5.948-4.954,3.894-3.231,7.793-6.456,7.149-5.94,14.293-11.885,6.462-5.377,12.929-10.748a3.368,3.368,0,0,0,1.326-2.574c.022-.6.028-1.2.028-1.8q0-60.476-.011-120.947c0-.4-.006-.8,0-1.2.028-1.082.26-1.342,1.348-1.646,2.1-.591,4.142-1.348,6.219-1.994,1.778-.558,3.562-1.1,5.341-1.673,1.961-.63,3.971-1.132,5.871-1.933a1.581,1.581,0,0,1,.226-.083c1.861-.646,2.171-.431,2.171,1.513V244.071c0,2.226.188,2.032-2.325,2.9-2.021.7-4.054,1.364-6.092,1.988-1.823.558-3.612,1.2-5.446,1.734-1.861.541-3.689,1.21-5.528,1.839-.862.3-1.756.475-2.618.8-1.856.7-3.816,1.1-5.678,1.778-1.745.641-3.535,1.16-5.291,1.767-1.718.591-3.474,1.11-5.219,1.651-2,.624-3.988,1.337-5.987,1.972-.906.287-1.817.569-2.728.856-2.833.889-5.65,1.834-8.472,2.756-1.806.591-3.629,1.154-5.457,1.707-1.933.585-3.827,1.3-5.755,1.911-.867.276-1.745.541-2.618.812-2.872.895-5.722,1.861-8.583,2.795-1.845.6-3.722,1.138-5.567,1.751-1.878.619-3.783,1.176-5.65,1.839-1.077.381-2.182.735-3.292,1.049-1.823.525-3.612,1.165-5.407,1.784-.823.282-1.668.541-2.491.79-1.861.563-3.684,1.27-5.573,1.729-.8.193-1.469.834-2.574.585Z" transform="translate(-110.747 -33.628)" fill="#ff5a00"/>
        <path id="Path_5594" data-name="Path 5594" d="M145.21,321.752c.641-.63,1.464-.613,2.121-.884,1.646-.674,3.408-1.072,5.1-1.657,1.95-.674,3.96-1.171,5.887-1.916.845-.326,1.734-.591,2.607-.845,2.248-.663,4.468-1.414,6.688-2.148,1.773-.585,3.59-1.049,5.346-1.679,2.579-.922,5.225-1.629,7.8-2.568,1.712-.624,3.49-1.088,5.225-1.662,2.032-.668,4.081-1.292,6.114-1.972,1.729-.58,3.485-1.1,5.219-1.679,1.922-.635,3.888-1.132,5.771-1.889.878-.353,1.828-.525,2.734-.84,2.888-1,5.832-1.834,8.721-2.839,2.59-.9,5.263-1.552,7.843-2.469s5.214-1.69,7.809-2.557c1.839-.613,3.711-1.176,5.562-1.773,1.773-.574,3.573-1.06,5.3-1.773.839-.348,1.751-.5,2.623-.8,2.629-.906,5.319-1.629,7.959-2.518.757-.254,1.524-.458,2.27-.723a1.742,1.742,0,0,0,1.342-1.767c-.011-.519.006-1.044.006-1.563V153.021c0-2.253-.16-2.093,2.071-2.093h16.469a1.714,1.714,0,0,1,1.911,1.961v167.24c-.011,1.767-.072,1.834-1.823,1.834h-127.2a2.688,2.688,0,0,1-1.475-.2Z" transform="translate(-116.209 -67.568)" fill="#ffcd21"/>
      </g>
      <path id="Path_5595" data-name="Path 5595" d="M129.722,647.037a50.267,50.267,0,0,1,6.167-3.454,17.853,17.853,0,0,1,3.813-1.3c2.411-.5,4.815-1.1,7.21-1.638,2.737-.611,5.507-1.124,8.236-1.752q4.8-1.1,9.523-2.46c.888-.261,1.711-.749,2.6-1.075a1.965,1.965,0,0,0,1.116-2.224c-.391-2.436-2.305-5.124-4.994-5.149a3.869,3.869,0,0,1-2.061-.415,2.008,2.008,0,0,0-1.385-.212c-4.057.676-8.2,1.124-10.46,5.4-.9,1.711-2.7,2.1-4.823,1.344a5.857,5.857,0,0,0-1.7-.416c-2.534-.122-5.1-.081-7.6-.448-2.029-.293-4.057-.562-6.077-.9-1.589-.269-2.02-1.051-1.825-2.68a9.517,9.517,0,0,1,1.149-3.153,18.9,18.9,0,0,1,10.411-9.523c3.446-1.3,7.047-1.629,10.631-2.208a72.924,72.924,0,0,1,14.094-.546,63.5,63.5,0,0,1,10.322,1.116,20.731,20.731,0,0,1,11.128,5.654,17.38,17.38,0,0,1,3.894,7.047c1.369,4.35,1.369,8.831,1.426,13.32.016,1.6.057,3.193.016,4.79-.155,5.906.391,11.8.375,17.711a26.461,26.461,0,0,0,1.776,9.344c.489,1.3.318,1.58-1.092,1.589q-9.128.037-18.265,0c-1.646,0-2.118-.432-2.305-2.053a31.234,31.234,0,0,0-.855-3.25c-.187-.807-.546-1.279-1.491-.627-.725.5-1.475.961-2.216,1.442a33.965,33.965,0,0,1-10.037,4.53,37.824,37.824,0,0,1-15.951.562c-6.012-1.026-10.957-4.073-13.866-9.751-.106-.212-.212-.424-.334-.627-.815-1.328-1.271-1.393-2.2-.2a29.455,29.455,0,0,1-10.778,8.326,19.429,19.429,0,0,1-3.658,1.206,43.819,43.819,0,0,1-10.444,1.515,93.761,93.761,0,0,1-12.749-.391c-7.365-1.018-13.9-3.78-18.721-9.76-.587-.733-1.246-1.4-1.866-2.11-.228-.261-.4-.66-.823-.505-.391.147-.4.562-.407.912-.016,2.012-.024,4.016-.024,6.029,0,1,.024,2.012-.008,3.014-.049,1.491-.269,1.686-1.8,1.752-.35.016-.709,0-1.067,0H2.66a2.363,2.363,0,0,1-2.68-2.656v-76.8c0-.415.024-.831,0-1.238a1.254,1.254,0,0,1,1.246-1.418,8.96,8.96,0,0,1,1.238-.1h20.22a8.1,8.1,0,0,1,.888.033c1.336.163,1.564.424,1.629,1.825.024.53,0,1.067,0,1.6v54.981q0,2.925,2.957,2.933h30.68c.473,0,.945-.016,1.418-.016.823,0,1.173-.448,1.132-1.238a17.382,17.382,0,0,0-.212-3,26.821,26.821,0,0,1-.065-9.841,29.766,29.766,0,0,1,2.436-8.831A24.716,24.716,0,0,1,72.191,620.6a39.656,39.656,0,0,1,9.6-4.668c1.988-.644,4.065-.652,6.02-1.165a32.728,32.728,0,0,1,10.892-.5c6.7.5,13.312,1.792,18.982,5.7a25.287,25.287,0,0,1,6.77,7.373,32.739,32.739,0,0,1,3.625,8.782,42.465,42.465,0,0,1,1.051,6.982,28.6,28.6,0,0,0,.562,3.927Zm-24.407,3.34q-9.751,0-19.495,0c-1.98,0-2.322.44-1.784,2.346a14.853,14.853,0,0,0,2.794,5.67,11.57,11.57,0,0,0,14.925,2c2.5-1.776,4.986-3.34,8.212-2.843a46.933,46.933,0,0,0,5.654.293,4.171,4.171,0,0,1,1.4.138c2.281.945,4.66.448,7,.57.562.033,1.165-.138,1.173-.807.024-1.923,1.059-3.617,1.189-5.515.122-1.833.171-1.849-1.752-1.857q-9.666-.012-19.324,0Zm63.226-.521c.065-2.7-.277-3.006-2.639-2.623a4.876,4.876,0,0,0-1.711.4,18.339,18.339,0,0,1-4.839,1.483,60,60,0,0,0-7.267,2.566,6.3,6.3,0,0,0-2.851,2.281c-2.363,3.365-.709,8.326,3.079,9.067a10.776,10.776,0,0,0,4.587.277,20.277,20.277,0,0,0,5.026-1.434,11.493,11.493,0,0,0,4.741-4.334c1.483-2.444,1.58-5.246,1.874-7.674ZM94.953,639v-.016c3.128,0,6.265.016,9.393,0,1.67-.008,1.988-.375,1.654-2.029a10.7,10.7,0,0,0-.872-2.688,11.709,11.709,0,0,0-4.733-5.238c-2.3-1.32-4.668-.978-7.055-1.043a5.9,5.9,0,0,0-2.77.521,11.714,11.714,0,0,0-6.444,8.562c-.31,1.5.041,1.931,1.6,1.939,3.071.024,6.143,0,9.222,0Z" transform="translate(224.63 -476.899)" fill="#ffcd21"/>
      <path id="Path_5596" data-name="Path 5596" d="M339.371,606.916a29.9,29.9,0,0,0-1.075,4.407c-.66,2.444-.921,5-1.637,7.422-.668,2.265-1.018,4.595-1.54,6.884a67.2,67.2,0,0,0-1.6,7.422,37.068,37.068,0,0,1-1.157,4.977c-.627,2.46-.888,4.986-1.6,7.422a49.321,49.321,0,0,0-1.352,6.036c-.383,2.4-.978,4.741-1.475,7.1-.978,4.611-2.061,9.206-3.022,13.833-.432,2.086-.831,2.42-2.965,2.42h-20.57c-1.914,0-2.2-.033-2.607-1.914-.692-3.177-1.751-6.248-2.574-9.385-.546-2.094-1.2-4.187-1.727-6.273-.75-2.974-1.654-5.906-2.428-8.872-.88-3.413-1.923-6.786-2.819-10.191-.823-3.136-1.857-6.216-2.574-9.385a17.922,17.922,0,0,0-1.7-4.489,31.041,31.041,0,0,0-1.116,3.422c-.7,3.291-1.735,6.493-2.591,9.727-.766,2.892-1.5,5.809-2.452,8.66-.627,1.9-1.067,3.862-1.589,5.8-.88,3.226-1.768,6.46-2.639,9.686-.57,2.1-1.1,4.22-1.678,6.322-.513,1.866-1.075,3.723-1.613,5.581a1.621,1.621,0,0,1-1.792,1.32c-7.275-.033-14.542-.008-21.817-.024-1.426,0-1.809-.334-2.2-2.012-.375-1.6-.7-3.226-1.067-4.831-.415-1.833-.807-3.674-1.222-5.515-.66-2.925-1.32-5.857-1.906-8.8-.44-2.191-1.018-4.358-1.426-6.558-.464-2.485-1.116-4.937-1.662-7.405-.521-2.354-1.108-4.7-1.475-7.088-.261-1.7-.839-3.316-1.206-4.978a66.694,66.694,0,0,0-1.613-7.234,40.494,40.494,0,0,1-1.108-4.994,56.949,56.949,0,0,1-1.483-6.908,30.751,30.751,0,0,0-1.141-4.807c-.578-2.346-.766-4.782-1.6-7.055-.041-.114-.065-.228-.1-.342-.872-3.234-.5-3.723,2.819-3.723h18.265c2.3,0,2.534.187,2.933,2.379.847,4.7,1.654,9.409,2.542,14.1s1.98,9.336,2.737,14.045c.432,2.68,1.083,5.312,1.393,8.024.228,2.02.847,3.992,1.369,6.371a19.707,19.707,0,0,0,1.434-4.684c.774-3.2,1.9-6.305,2.582-9.548.6-2.868,1.711-5.629,2.436-8.472.521-2.053,1.246-4.049,1.694-6.134.415-1.947,1.075-3.845,1.621-5.768.448-1.589.986-3.153,1.287-4.766.269-1.466.969-2.786,1.206-4.252a1.383,1.383,0,0,1,1.352-1.189,14.2,14.2,0,0,1,1.768-.106h18.8c2.028,0,2.42.122,2.933,2.134,1.442,5.637,3.259,11.185,4.709,16.823,1.083,4.212,2.4,8.358,3.5,12.57,1.092,4.147,2.3,8.277,3.462,12.407.024.081.171.138.269.2a.458.458,0,0,0,.464-.432c.619-4.31,1.572-8.562,2.387-12.839.839-4.4,1.654-8.806,2.542-13.189.578-2.876,1.263-5.743,1.613-8.676.269-2.281.855-4.513,1.246-6.786.358-2.1.668-2.2,2.9-2.208h41.5c.53,0,1.067,0,1.6.041a1.29,1.29,0,0,1,1.369,1.483c-.016.472,0,.945,0,1.417v76.44q0,2.876-2.8,2.884h-20.22c-2.338,0-2.509-.147-2.517-2.525-.016-7.682,0-15.373-.008-23.055v-39.9a5.828,5.828,0,0,0-.253-2.428Z" transform="translate(182.362 -476.892)" fill="#3a8bc3"/>
      <path id="Path_5597" data-name="Path 5597" d="M458.886,636.382a4.546,4.546,0,0,0,.293-2.33q.012-18.978,0-37.947v-1.418c.033-1.8.244-2.053,2.061-2.061,5.678-.024,11.348-.008,17.026-.008,1.124,0,2.248-.032,3.365.041,1.4.09,1.613.35,1.678,1.727.024.415,0,.831,0,1.238v76.6a2.33,2.33,0,0,1-2.615,2.648c-6.444,0-12.888-.049-19.332.033a3.8,3.8,0,0,1-3.487-1.939c-1.841-2.778-3.658-5.58-5.491-8.367-2.477-3.756-4.9-7.552-7.454-11.259-3.438-4.978-6.81-10-10.3-14.949-1.483-2.11-2.908-4.261-4.448-6.33-.212-.285-.334-.635-.864-.652-.6.578-.342,1.393-.342,2.11q-.024,19.149-.008,38.305c0,3.373.016,3.047-3.128,3.055q-9.4.012-18.794,0c-2.322,0-2.42-.1-2.42-2.379v-77.49c0-2.183.139-2.371,2.289-2.379,6.5-.024,13,0,19.5-.016a3.957,3.957,0,0,1,3.617,2.012c3.625,5.507,7.422,10.9,11.055,16.407,4.4,6.672,9.067,13.149,13.58,19.739a34.462,34.462,0,0,0,4.179,5.613Z" transform="translate(149.632 -476.899)" fill="#3a8bc3"/>
    </g>
  </g>
</svg>
