<svg width="634" height="289" viewBox="0 0 634 289" fill="none" xmlns="http://www.w3.org/2000/svg">
<g clip-path="url(#clip0_1_173)">
<path d="M101.537 85.26V168.214C101.537 168.733 101.548 169.258 101.504 169.777C101.481 170.136 101.382 170.487 101.215 170.805C101.047 171.124 100.815 171.404 100.532 171.627C96.132 175.305 91.732 178.984 87.299 182.618C83.234 185.948 79.236 189.362 75.209 192.731C69.653 197.381 64.136 202.076 58.53 206.66C52.924 211.244 47.396 215.911 41.818 220.528C36.488 224.941 31.109 229.293 25.851 233.789C22.073 237.02 18.091 240.019 14.529 243.498C12.4221 245.52 10.9436 248.107 10.271 250.948C9.84175 252.698 9.78816 254.52 10.1138 256.292C10.4393 258.065 11.1367 259.748 12.16 261.232C13.609 263.367 15.8104 264.876 18.324 265.457C22.582 266.617 26.89 266.241 31.192 265.982C34.335 265.794 37.483 265.468 40.587 265.071C44.6018 264.665 48.6425 264.578 52.671 264.811C55.018 264.891 57.3567 265.131 59.671 265.529C61.853 265.899 64.045 266.335 66.188 266.91C69.9223 267.844 73.5512 269.158 77.018 270.831C79.006 271.825 81.006 272.792 82.928 273.907C85.5611 275.478 88.0621 277.26 90.406 279.237C91.1051 279.764 91.753 280.355 92.341 281.004C94.141 283.158 94.02 285.196 92.07 287.262C91.6534 287.75 91.1029 288.105 90.4866 288.284C89.8702 288.463 89.215 288.457 88.602 288.267C87.8843 288.022 87.2272 287.627 86.675 287.107C84.0277 284.817 81.198 282.746 78.214 280.916C76.579 279.949 74.889 279.071 73.166 278.243C71.084 277.243 68.897 276.531 66.759 275.697C65.8354 275.335 64.8794 275.061 63.904 274.88C61.833 274.51 59.756 274.107 57.68 273.77C51.942 272.837 46.187 273.229 40.443 273.179C38.8806 273.135 37.3173 273.227 35.771 273.455C33.081 273.908 30.331 273.748 27.685 274.228C25.362 274.611 23.0012 274.712 20.654 274.528C18.9152 274.398 17.1972 274.069 15.534 273.545C14.0429 273.125 12.5979 272.555 11.221 271.845C8.90986 270.585 6.91105 268.822 5.372 266.687C3.3408 263.713 1.96475 260.341 1.33501 256.795C0.842225 254.772 0.571947 252.702 0.529 250.62V207.82C0.529 167.105 0.519666 126.388 0.501 85.669C0.449128 85.0423 0.556085 84.4127 0.811974 83.8384C1.06786 83.264 1.46443 82.7635 1.965 82.383C5.665 79.423 9.288 76.369 12.928 73.331C16.777 70.117 20.605 66.869 24.454 63.655C28.066 60.645 31.706 57.674 35.323 54.675C40.323 50.5383 45.3157 46.3943 50.301 42.243C54.09 39.084 57.856 35.892 61.651 32.743C65.379 29.643 69.14 26.579 72.868 23.476C76.325 20.604 79.75 17.693 83.201 14.816C86.957 11.684 90.745 8.59197 94.495 5.45497C96.478 3.79797 98.422 2.09697 100.371 0.406972C100.62 0.191972 100.851 -0.0850281 101.194 0.0369719C101.564 0.169972 101.509 0.555972 101.52 0.864972C101.537 1.26497 101.526 1.66497 101.526 2.06497V85.265L101.537 85.26Z" fill="#FF5A00"/>
<path d="M22.763 247.242C23.4425 246.47 24.2036 245.773 25.033 245.165C28.292 242.431 31.583 239.736 34.853 237.019C38.5477 233.948 42.2387 230.87 45.926 227.785C49.466 224.836 53.008 221.888 56.552 218.943L67.637 209.714C69.6197 208.063 71.6023 206.411 73.585 204.76C76.181 202.606 78.7787 200.454 81.378 198.304C86.144 194.344 90.9083 190.382 95.671 186.419C99.979 182.834 104.289 179.252 108.6 175.671C108.999 175.368 109.324 174.979 109.554 174.534C109.783 174.089 109.91 173.598 109.926 173.097C109.948 172.497 109.954 171.897 109.954 171.297C109.954 130.98 109.95 90.664 109.943 50.35C109.943 49.95 109.937 49.55 109.943 49.15C109.971 48.068 110.203 47.808 111.291 47.504C113.391 46.913 115.433 46.156 117.51 45.51C119.288 44.952 121.072 44.41 122.851 43.837C124.812 43.207 126.822 42.705 128.722 41.904C128.795 41.8706 128.871 41.8429 128.948 41.821C130.809 41.175 131.119 41.39 131.119 43.334V210.443C131.119 212.669 131.307 212.475 128.794 213.343C126.773 214.043 124.74 214.707 122.702 215.331C120.879 215.889 119.09 216.531 117.256 217.065C115.395 217.606 113.567 218.275 111.728 218.904C110.866 219.204 109.972 219.379 109.11 219.704C107.254 220.404 105.294 220.804 103.432 221.482C101.687 222.123 99.897 222.642 98.141 223.249C96.423 223.84 94.667 224.359 92.922 224.9C90.922 225.524 88.934 226.237 86.935 226.872C86.029 227.159 85.118 227.441 84.207 227.728C81.374 228.617 78.557 229.562 75.735 230.484C73.929 231.075 72.106 231.638 70.278 232.191C68.345 232.776 66.451 233.491 64.523 234.102C63.656 234.378 62.778 234.643 61.905 234.914C59.033 235.809 56.183 236.775 53.322 237.709C51.477 238.309 49.6 238.847 47.755 239.46C45.877 240.079 43.972 240.636 42.105 241.299C41.028 241.68 39.923 242.034 38.813 242.348C36.99 242.873 35.201 243.513 33.406 244.132C32.583 244.414 31.738 244.673 30.915 244.922C29.054 245.485 27.231 246.192 25.342 246.651C24.542 246.844 23.873 247.485 22.768 247.236L22.763 247.242Z" fill="#FF5A00"/>
<path d="M29.501 254.184C30.142 253.554 30.965 253.571 31.622 253.3C33.268 252.626 35.03 252.228 36.722 251.643C38.672 250.969 40.682 250.472 42.609 249.727C43.454 249.401 44.343 249.136 45.216 248.882C47.464 248.219 49.684 247.468 51.904 246.734C53.677 246.149 55.494 245.685 57.25 245.055C59.829 244.133 62.475 243.426 65.05 242.487C66.762 241.863 68.54 241.399 70.275 240.825C72.307 240.157 74.356 239.533 76.389 238.853C78.118 238.273 79.874 237.753 81.608 237.174C83.53 236.539 85.496 236.042 87.379 235.285C88.257 234.932 89.207 234.76 90.113 234.445C93.001 233.445 95.945 232.611 98.834 231.606C101.424 230.706 104.097 230.054 106.677 229.137C109.257 228.22 111.891 227.447 114.486 226.58C116.325 225.967 118.197 225.404 120.048 224.807C121.821 224.233 123.621 223.747 125.348 223.034C126.187 222.686 127.099 222.534 127.971 222.234C130.6 221.328 133.29 220.605 135.93 219.716C136.687 219.462 137.454 219.258 138.2 218.993C138.594 218.9 138.944 218.673 139.189 218.351C139.434 218.028 139.559 217.631 139.542 217.226C139.531 216.707 139.548 216.182 139.548 215.663V85.453C139.548 83.2 139.388 83.36 141.619 83.36H158.088C158.351 83.3264 158.619 83.3544 158.87 83.4419C159.12 83.5293 159.347 83.6738 159.532 83.864C159.718 84.0541 159.856 84.2847 159.937 84.5375C160.018 84.7904 160.039 85.0586 159.999 85.321V252.561C159.988 254.328 159.927 254.395 158.176 254.395H30.976C30.4753 254.468 29.964 254.399 29.501 254.195V254.184Z" fill="#FFCD21"/>
<path d="M354.852 170.138C356.824 168.843 358.885 167.689 361.019 166.684C362.237 166.108 363.516 165.672 364.832 165.384C367.243 164.884 369.647 164.284 372.042 163.746C374.779 163.135 377.549 162.622 380.278 161.994C383.478 161.261 386.652 160.441 389.801 159.534C390.689 159.273 391.512 158.785 392.401 158.459C392.815 158.274 393.152 157.951 393.356 157.546C393.559 157.141 393.616 156.677 393.517 156.235C393.126 153.799 391.212 151.111 388.523 151.086C387.811 151.14 387.098 150.997 386.462 150.671C386.041 150.436 385.549 150.361 385.077 150.459C381.02 151.135 376.877 151.583 374.617 155.859C373.717 157.57 371.917 157.959 369.794 157.203C369.251 156.98 368.678 156.84 368.094 156.787C365.56 156.665 362.994 156.706 360.494 156.339C358.465 156.046 356.437 155.777 354.417 155.439C352.828 155.17 352.397 154.388 352.592 152.759C352.785 151.648 353.174 150.581 353.741 149.606C355.852 145.207 359.582 141.794 364.152 140.083C367.598 138.783 371.199 138.454 374.783 137.875C379.452 137.238 384.172 137.055 388.877 137.329C392.342 137.419 395.795 137.792 399.199 138.445C403.401 139.142 407.287 141.116 410.327 144.099C412.159 146.111 413.492 148.525 414.221 151.146C415.59 155.496 415.59 159.977 415.647 164.466C415.663 166.066 415.704 167.659 415.663 169.256C415.508 175.162 416.054 181.056 416.038 186.967C416.061 190.163 416.662 193.329 417.814 196.311C418.303 197.611 418.132 197.891 416.722 197.9C410.637 197.925 404.548 197.925 398.457 197.9C396.811 197.9 396.339 197.468 396.152 195.847C395.926 194.749 395.64 193.664 395.297 192.597C395.11 191.79 394.751 191.318 393.806 191.97C393.081 192.47 392.331 192.931 391.59 193.412C388.513 195.458 385.123 196.988 381.553 197.942C376.337 199.262 370.898 199.453 365.602 198.504C359.59 197.478 354.645 194.431 351.736 188.753C351.63 188.541 351.524 188.329 351.402 188.126C350.587 186.798 350.131 186.733 349.202 187.926C346.309 191.505 342.618 194.357 338.424 196.252C337.248 196.774 336.022 197.178 334.766 197.458C331.358 198.382 327.852 198.891 324.322 198.973C320.068 199.132 315.809 199.002 311.573 198.582C304.208 197.564 297.673 194.802 292.852 188.822C292.265 188.089 291.606 187.422 290.986 186.712C290.758 186.451 290.586 186.052 290.163 186.207C289.772 186.354 289.763 186.769 289.756 187.119C289.74 189.131 289.732 191.135 289.732 193.148C289.732 194.148 289.756 195.16 289.724 196.162C289.675 197.653 289.455 197.848 287.924 197.914C287.574 197.93 287.215 197.914 286.857 197.914H227.79C227.428 197.966 227.059 197.934 226.711 197.819C226.364 197.705 226.048 197.511 225.788 197.254C225.528 196.996 225.332 196.682 225.214 196.336C225.097 195.989 225.061 195.62 225.11 195.258V118.458C225.11 118.043 225.134 117.627 225.11 117.22C225.087 117.043 225.101 116.863 225.153 116.692C225.205 116.52 225.293 116.362 225.411 116.228C225.529 116.094 225.675 115.986 225.838 115.913C226 115.839 226.177 115.802 226.356 115.802C226.766 115.74 227.18 115.707 227.594 115.702H247.814C248.11 115.697 248.407 115.708 248.702 115.735C250.038 115.898 250.266 116.159 250.331 117.56C250.355 118.09 250.331 118.627 250.331 119.16V174.141C250.331 176.091 251.317 177.069 253.288 177.074H283.968C284.441 177.074 284.913 177.058 285.386 177.058C286.209 177.058 286.559 176.61 286.518 175.82C286.534 174.816 286.463 173.812 286.306 172.82C285.678 169.572 285.656 166.235 286.241 162.979C286.592 159.927 287.414 156.948 288.677 154.148C290.528 149.928 293.522 146.309 297.321 143.701C300.296 141.719 303.525 140.149 306.921 139.033C308.909 138.389 310.986 138.381 312.941 137.868C316.518 137.093 320.2 136.924 323.833 137.368C330.533 137.868 337.145 139.16 342.815 143.068C345.54 145.05 347.842 147.557 349.585 150.441C351.214 153.176 352.435 156.135 353.21 159.223C353.754 161.517 354.105 163.852 354.261 166.205C354.357 167.525 354.545 168.838 354.823 170.132L354.852 170.138ZM330.445 173.478C323.944 173.478 317.446 173.478 310.95 173.478C308.97 173.478 308.628 173.918 309.166 175.824C309.68 177.893 310.633 179.826 311.96 181.494C313.8 183.554 316.315 184.887 319.053 185.254C321.79 185.621 324.568 184.997 326.885 183.494C329.385 181.718 331.871 180.154 335.097 180.651C336.974 180.862 338.862 180.96 340.751 180.944C341.222 180.91 341.696 180.957 342.151 181.082C344.432 182.027 346.811 181.53 349.151 181.652C349.713 181.685 350.316 181.514 350.324 180.845C350.348 178.922 351.383 177.228 351.513 175.33C351.635 173.497 351.684 173.481 349.761 173.473C343.317 173.465 336.876 173.465 330.437 173.473L330.445 173.478ZM393.671 172.957C393.736 170.257 393.394 169.951 391.032 170.334C390.442 170.363 389.862 170.498 389.321 170.734C387.784 171.45 386.156 171.949 384.482 172.217C382.007 172.916 379.58 173.773 377.215 174.783C376.06 175.245 375.068 176.039 374.364 177.064C372.001 180.429 373.655 185.39 377.443 186.131C378.934 186.552 380.499 186.647 382.03 186.408C383.76 186.149 385.45 185.667 387.056 184.974C389.016 184.009 390.661 182.506 391.797 180.64C393.28 178.196 393.377 175.394 393.671 172.966V172.957ZM320.083 162.101V162.085C323.211 162.085 326.348 162.101 329.476 162.085C331.146 162.077 331.464 161.71 331.13 160.056C330.959 159.125 330.666 158.221 330.258 157.368C329.257 155.177 327.604 153.347 325.525 152.13C323.225 150.81 320.857 151.152 318.47 151.087C317.518 151.034 316.568 151.213 315.7 151.608C314.022 152.42 312.562 153.62 311.442 155.109C310.321 156.598 309.572 158.333 309.256 160.17C308.946 161.67 309.297 162.101 310.856 162.109C313.927 162.133 316.999 162.109 320.078 162.109L320.083 162.101Z" fill="#FFCD21"/>
<path d="M522.233 130.024C521.764 131.464 521.404 132.937 521.158 134.431C520.498 136.875 520.237 139.431 519.521 141.853C518.853 144.118 518.503 146.448 517.981 148.737C517.308 151.179 516.774 153.657 516.381 156.159C516.11 157.843 515.724 159.506 515.224 161.136C514.597 163.596 514.336 166.122 513.624 168.558C513.047 170.54 512.596 172.556 512.272 174.594C511.889 176.994 511.294 179.335 510.797 181.694C509.819 186.305 508.736 190.9 507.775 195.527C507.343 197.613 506.944 197.947 504.81 197.947H484.24C482.326 197.947 482.04 197.914 481.633 196.033C480.941 192.856 479.882 189.785 479.059 186.648C478.513 184.554 477.859 182.461 477.332 180.375C476.582 177.401 475.678 174.469 474.904 171.503C474.024 168.09 472.981 164.717 472.085 161.312C471.262 158.176 470.228 155.096 469.511 151.927C469.148 150.361 468.576 148.851 467.811 147.438C467.373 148.556 467.001 149.699 466.695 150.86C465.995 154.151 464.96 157.353 464.104 160.587C463.338 163.479 462.604 166.396 461.652 169.247C461.025 171.147 460.585 173.109 460.063 175.047C459.183 178.273 458.295 181.507 457.424 184.733C456.854 186.833 456.324 188.953 455.746 191.055C455.233 192.921 454.671 194.778 454.133 196.636C454.059 197.043 453.833 197.407 453.499 197.652C453.166 197.898 452.752 198.006 452.341 197.956C445.066 197.923 437.799 197.948 430.524 197.932C429.098 197.932 428.715 197.598 428.324 195.92C427.949 194.32 427.624 192.694 427.257 191.089C426.842 189.256 426.45 187.415 426.035 185.574C425.375 182.649 424.715 179.717 424.129 176.774C423.689 174.583 423.111 172.416 422.703 170.216C422.239 167.731 421.587 165.279 421.041 162.811C420.52 160.457 419.933 158.111 419.566 155.723C419.305 154.023 418.727 152.407 418.36 150.745C417.957 148.306 417.418 145.891 416.747 143.511C416.273 141.871 415.903 140.203 415.639 138.517C415.002 136.247 414.507 133.94 414.156 131.609C413.905 129.979 413.524 128.371 413.015 126.802C412.437 124.456 412.249 122.02 411.415 119.747C411.374 119.633 411.35 119.519 411.315 119.405C410.443 116.171 410.815 115.682 414.134 115.682H432.399C434.699 115.682 434.933 115.869 435.332 118.061C436.179 122.761 436.986 127.47 437.874 132.161C438.762 136.852 439.854 141.497 440.611 146.206C441.043 148.886 441.694 151.518 442.004 154.23C442.232 156.25 442.851 158.222 443.373 160.601C444.044 159.105 444.526 157.532 444.807 155.917C445.581 152.717 446.707 149.612 447.389 146.369C447.989 143.501 449.1 140.74 449.825 137.897C450.346 135.844 451.071 133.848 451.519 131.763C451.934 129.816 452.594 127.918 453.14 125.995C453.588 124.406 454.126 122.842 454.427 121.229C454.696 119.763 455.396 118.443 455.633 116.977C455.679 116.65 455.841 116.35 456.089 116.132C456.337 115.914 456.655 115.792 456.985 115.788C457.572 115.716 458.162 115.68 458.753 115.682H477.553C479.581 115.682 479.973 115.804 480.486 117.816C481.928 123.453 483.745 129.001 485.195 134.639C486.278 138.851 487.595 142.997 488.695 147.209C489.787 151.356 490.995 155.486 492.157 159.616C492.181 159.697 492.328 159.754 492.426 159.816C492.544 159.818 492.658 159.774 492.745 159.693C492.831 159.613 492.883 159.502 492.89 159.384C493.509 155.074 494.462 150.822 495.277 146.545C496.116 142.145 496.931 137.739 497.819 133.356C498.397 130.48 499.082 127.613 499.432 124.68C499.701 122.399 500.287 120.167 500.678 117.894C501.036 115.794 501.346 115.694 503.578 115.686H545.078C545.608 115.686 546.145 115.686 546.678 115.727C546.871 115.713 547.066 115.742 547.246 115.814C547.426 115.885 547.588 115.996 547.72 116.139C547.851 116.281 547.949 116.451 548.006 116.637C548.062 116.822 548.077 117.018 548.047 117.21C548.031 117.682 548.047 118.155 548.047 118.627V195.067C548.047 196.984 547.114 197.946 545.247 197.951H525.027C522.689 197.951 522.518 197.804 522.51 195.426C522.494 187.744 522.51 180.053 522.502 172.371V132.471C522.59 131.653 522.504 130.825 522.249 130.043L522.233 130.024Z" fill="#FF5A00"/>
<path d="M609.018 159.483C609.318 158.745 609.419 157.942 609.311 157.153C609.319 144.501 609.319 131.852 609.311 119.206V117.788C609.344 115.988 609.555 115.735 611.372 115.727C617.05 115.703 622.72 115.719 628.398 115.719C629.522 115.719 630.646 115.687 631.763 115.76C633.163 115.85 633.376 116.11 633.441 117.487C633.465 117.902 633.441 118.318 633.441 118.725V195.325C633.493 195.682 633.462 196.046 633.35 196.389C633.238 196.732 633.047 197.044 632.794 197.301C632.54 197.558 632.23 197.752 631.889 197.869C631.548 197.985 631.184 198.021 630.826 197.973C624.382 197.973 617.938 197.924 611.494 198.006C610.79 198.038 610.091 197.873 609.476 197.531C608.86 197.189 608.351 196.682 608.007 196.067C606.166 193.289 604.349 190.487 602.516 187.7C600.039 183.944 597.616 180.148 595.062 176.441C591.624 171.463 588.252 166.441 584.762 161.492C583.279 159.382 581.854 157.231 580.314 155.162C580.102 154.877 579.98 154.527 579.45 154.51C578.85 155.088 579.108 155.903 579.108 156.62C579.092 169.386 579.089 182.154 579.1 194.925C579.1 198.298 579.116 197.972 575.972 197.98C569.705 197.988 563.441 197.988 557.178 197.98C554.856 197.98 554.758 197.88 554.758 195.601V118.111C554.758 115.928 554.897 115.74 557.047 115.732C563.547 115.708 570.047 115.732 576.547 115.716C577.277 115.685 578.001 115.856 578.64 116.211C579.278 116.567 579.806 117.091 580.164 117.728C583.789 123.235 587.586 128.628 591.219 134.135C595.619 140.807 600.286 147.284 604.799 153.874C605.998 155.882 607.398 157.763 608.978 159.487L609.018 159.483Z" fill="#FF5A00"/>
</g>
<defs>
<clipPath id="clip0_1_173">
<rect width="632.953" height="288.406" fill="white" transform="translate(0.5)"/>
</clipPath>
</defs>
</svg>
