<svg xmlns="http://www.w3.org/2000/svg" width="14.634" height="17.996" viewBox="0 0 14.634 17.996">
  <g id="appleicon" transform="translate(-2062.001 -1957.004)">
    <path id="appleicon-2" data-name="appleicon" d="M10.619,4.338a4.068,4.068,0,0,1,3.559,1.8l-.092.058a2.355,2.355,0,0,0-.2.138l-.259.213a3.627,3.627,0,0,0-.3.294q-.15.161-.311.363a2.808,2.808,0,0,0-.294.455,5.006,5.006,0,0,0-.242.541,3.6,3.6,0,0,0-.173.639,4.048,4.048,0,0,0-.063.72,3.9,3.9,0,0,0,.248,1.4,3.53,3.53,0,0,0,.566,1.022,4.734,4.734,0,0,0,.708.679,4.3,4.3,0,0,0,.587.4,1.888,1.888,0,0,0,.282.127,2.643,2.643,0,0,1-.121.4q-.109.311-.415.95a8.627,8.627,0,0,1-.7,1.2q-.357.518-.6.829a7.451,7.451,0,0,1-.61.679,2.562,2.562,0,0,1-.754.541,1.992,1.992,0,0,1-.823.173A3.6,3.6,0,0,1,9.2,17.61a3.793,3.793,0,0,0-1.532-.362,4.071,4.071,0,0,0-1.6.374,3.785,3.785,0,0,1-1.4.374,1.865,1.865,0,0,1-.76-.161,2.487,2.487,0,0,1-.731-.53,8.078,8.078,0,0,1-.628-.7q-.259-.328-.674-.9A10.71,10.71,0,0,1,.531,12.923,10.123,10.123,0,0,1,0,9.739a6.473,6.473,0,0,1,.392-2.3A4.841,4.841,0,0,1,1.424,5.746,4.55,4.55,0,0,1,2.858,4.735a4.072,4.072,0,0,1,1.657-.354,4.581,4.581,0,0,1,1.624.392,4.627,4.627,0,0,0,1.3.392,2.316,2.316,0,0,0,.789-.207q.512-.207,1.157-.415a4.025,4.025,0,0,1,1.234-.2ZM9.974,2.864a3.6,3.6,0,0,1-1.14.916,2.814,2.814,0,0,1-1.3.363,1.231,1.231,0,0,1-.242-.023A1.339,1.339,0,0,1,7.258,3.8a3.261,3.261,0,0,1,.28-1.307,4.271,4.271,0,0,1,.708-1.134A3.89,3.89,0,0,1,9.472.4,3.381,3.381,0,0,1,10.894,0a1.707,1.707,0,0,1,.035.357,3.849,3.849,0,0,1-.955,2.507Z" transform="translate(2062 1957.004)"/>
  </g>
</svg>
