<svg width="16" height="18" viewBox="0 0 16 18" fill="none" xmlns="http://www.w3.org/2000/svg">
<g clip-path="url(#clip0_1_139)">
<path d="M11.118 4.338C11.8159 4.30722 12.5099 4.45666 13.1333 4.77192C13.7566 5.08718 14.2883 5.55765 14.677 6.138L14.585 6.196C14.516 6.23853 14.4493 6.28459 14.385 6.334L14.126 6.547C14.0204 6.63912 13.9203 6.73729 13.826 6.841C13.726 6.94833 13.6224 7.06933 13.515 7.204C13.4026 7.34584 13.3041 7.49821 13.221 7.659C13.1298 7.8344 13.0489 8.01505 12.979 8.2C12.9019 8.40723 12.844 8.62114 12.806 8.839C12.7636 9.07664 12.7425 9.3176 12.743 9.559C12.7392 10.0369 12.8233 10.5115 12.991 10.959C13.1216 11.3287 13.3129 11.6741 13.557 11.981C13.7689 12.2312 14.0062 12.4588 14.265 12.66C14.4493 12.8093 14.6457 12.9431 14.852 13.06C14.9424 13.11 15.0367 13.1525 15.134 13.187C15.1043 13.3233 15.0639 13.4571 15.013 13.587C14.9404 13.7943 14.802 14.111 14.598 14.537C14.3973 14.9552 14.1632 15.3565 13.898 15.737C13.66 16.0823 13.46 16.3587 13.298 16.566C13.1088 16.8046 12.9051 17.0313 12.688 17.245C12.4717 17.4697 12.2162 17.6531 11.934 17.786C11.6751 17.9016 11.3946 17.9606 11.111 17.959C10.6215 17.9399 10.1411 17.8212 9.69903 17.61C9.2193 17.3835 8.6974 17.2602 8.16703 17.248C7.61382 17.2626 7.0694 17.3899 6.56703 17.622C6.12881 17.8357 5.65343 17.9627 5.16703 17.996C4.90521 17.9963 4.64626 17.9414 4.40703 17.835C4.13307 17.7044 3.88532 17.5248 3.67603 17.305C3.45328 17.0841 3.24359 16.8503 3.04803 16.605C2.87537 16.3863 2.6507 16.0863 2.37403 15.705C1.79393 14.8475 1.34122 13.9104 1.03003 12.923C0.683867 11.8969 0.504588 10.8219 0.499033 9.739C0.489309 8.95492 0.622133 8.17559 0.891033 7.439C1.11454 6.80951 1.46591 6.23309 1.92303 5.746C2.33091 5.31916 2.81797 4.97577 3.35703 4.735C3.87843 4.50212 4.44299 4.38151 5.01403 4.381C5.57482 4.41102 6.1253 4.54389 6.63803 4.773C7.04973 4.96688 7.48778 5.09897 7.93803 5.165C8.21121 5.14322 8.47835 5.07314 8.72703 4.958C9.06837 4.82 9.45403 4.68167 9.88403 4.543C10.2824 4.41247 10.6988 4.34499 11.118 4.343V4.338ZM10.473 2.864C10.1597 3.24411 9.7717 3.55588 9.33303 3.78C8.93556 4.00467 8.4894 4.12925 8.03303 4.143C7.9518 4.14334 7.87074 4.13563 7.79103 4.12C7.76688 4.01509 7.75546 3.90765 7.75703 3.8C7.75912 3.34967 7.85446 2.90466 8.03703 2.493C8.21204 2.08018 8.45097 1.69749 8.74503 1.359C9.08492 0.960002 9.50193 0.633807 9.97103 0.4C10.4098 0.163483 10.8953 0.0268904 11.393 0C11.4172 0.117441 11.4289 0.237101 11.428 0.357C11.4207 1.28015 11.0817 2.1699 10.473 2.864Z" fill="black"/>
</g>
<defs>
<clipPath id="clip0_1_139">
<rect width="14.634" height="17.996" fill="white" transform="translate(0.5)"/>
</clipPath>
</defs>
</svg>
