<svg width="45" height="48" viewBox="0 0 45 48" fill="none" xmlns="http://www.w3.org/2000/svg">
<g clip-path="url(#clip0_1_192)">
<path d="M21.407 43.0441H18.944C18.5174 43.0449 18.0983 43.1559 17.7271 43.3661C17.3559 43.5763 17.0452 43.8787 16.825 44.2441H6.629C6.14717 44.2455 5.6698 44.1517 5.22437 43.968C4.77893 43.7842 4.37422 43.5143 4.03351 43.1735C3.6928 42.8328 3.42282 42.4281 3.2391 41.9827C3.05538 41.5373 2.96155 41.0599 2.963 40.5781C2.96039 40.2606 2.83312 39.9569 2.60864 39.7324C2.38416 39.5079 2.08045 39.3807 1.763 39.3781C1.43795 39.377 1.12506 39.5015 0.889691 39.7257C0.654325 39.9499 0.514703 40.2563 0.5 40.5811C0.501853 42.206 1.14818 43.7639 2.29719 44.9129C3.4462 46.0619 5.00406 46.7082 6.629 46.7101H16.829C17.0399 47.0837 17.3486 47.3928 17.7219 47.6042C18.0953 47.8156 18.5191 47.9213 18.948 47.9101H21.411C22.0568 47.9101 22.6762 47.6535 23.1328 47.1969C23.5895 46.7402 23.846 46.1209 23.846 45.4751C23.846 44.8293 23.5895 44.2099 23.1328 43.7533C22.6762 43.2966 22.0568 43.0401 21.411 43.0401L21.407 43.0441Z" fill="#FF5A00"/>
<path d="M42.314 28.953H41.97V18.7C41.97 13.7405 39.9998 8.98403 36.4929 5.4771C32.986 1.97017 28.2295 0 23.27 0C18.3104 0 13.554 1.97017 10.0471 5.4771C6.54016 8.98403 4.56999 13.7405 4.56999 18.7V28.953H4.16999C3.84529 28.9497 3.52318 29.0111 3.22246 29.1336C2.92174 29.2561 2.64844 29.4373 2.4185 29.6665C2.18856 29.8958 2.0066 30.1686 1.88324 30.469C1.75988 30.7694 1.69758 31.0913 1.69999 31.416V35.082C1.69759 35.4061 1.75966 35.7275 1.88259 36.0274C2.00552 36.3273 2.18686 36.5998 2.41605 36.8289C2.64523 37.0581 2.91771 37.2395 3.21761 37.3624C3.51752 37.4853 3.83887 37.5474 4.16299 37.545H5.36299V38.745C5.36059 39.0691 5.42267 39.3905 5.54559 39.6904C5.66852 39.9903 5.84986 40.2628 6.07904 40.4919C6.30823 40.7211 6.58071 40.9025 6.88061 41.0254C7.18052 41.1483 7.50187 41.2104 7.82599 41.208H12.752C13.0761 41.2104 13.3975 41.1483 13.6974 41.0254C13.9973 40.9025 14.2697 40.7211 14.4989 40.4919C14.7281 40.2628 14.9095 39.9903 15.0324 39.6904C15.1553 39.3905 15.2174 39.0691 15.215 38.745V27.745C15.2174 27.4209 15.1553 27.0995 15.0324 26.7996C14.9095 26.4997 14.7281 26.2272 14.4989 25.9981C14.2697 25.7689 13.9973 25.5875 13.6974 25.4646C13.3975 25.3417 13.0761 25.2796 12.752 25.282H9.43599V18.7C9.43599 15.0388 10.8904 11.5276 13.4792 8.93874C16.0681 6.3499 19.5793 4.8955 23.2405 4.8955C26.9017 4.8955 30.4129 6.3499 33.0017 8.93874C35.5906 11.5276 37.045 15.0388 37.045 18.7V25.287H33.722C33.3979 25.2846 33.0765 25.3467 32.7766 25.4696C32.4767 25.5925 32.2042 25.7739 31.975 26.0031C31.7459 26.2322 31.5645 26.5047 31.4416 26.8046C31.3187 27.1045 31.2566 27.4259 31.259 27.75V38.805C31.2563 39.1293 31.3182 39.4509 31.441 39.751C31.5638 40.0511 31.7451 40.3238 31.9743 40.5532C32.2035 40.7826 32.4761 40.9642 32.7761 41.0872C33.0762 41.2103 33.3977 41.2724 33.722 41.27H38.648C38.9721 41.2724 39.2935 41.2103 39.5934 41.0874C39.8933 40.9645 40.1657 40.7831 40.3949 40.5539C40.6241 40.3248 40.8055 40.0523 40.9284 39.7524C41.0513 39.4525 41.1134 39.1311 41.111 38.807V37.607H42.311C42.6351 37.6094 42.9565 37.5473 43.2564 37.4244C43.5563 37.3015 43.8287 37.1201 44.0579 36.8909C44.2871 36.6618 44.4685 36.3893 44.5914 36.0894C44.7143 35.7895 44.7764 35.4681 44.774 35.144V31.47C44.7819 31.1421 44.724 30.816 44.6039 30.5108C44.4838 30.2056 44.3038 29.9275 44.0746 29.6929C43.8453 29.4584 43.5714 29.2721 43.2691 29.145C42.9667 29.0179 42.642 28.9526 42.314 28.953Z" fill="#FF5A00"/>
</g>
<defs>
<clipPath id="clip0_1_192">
<rect width="44.275" height="47.911" fill="white" transform="translate(0.5)"/>
</clipPath>
</defs>
</svg>
