<svg width="376" height="519" viewBox="0 0 376 519" fill="none" xmlns="http://www.w3.org/2000/svg">
<g clip-path="url(#clip0_1_147)">
<g opacity="0.1">
<path d="M278.41 0L192.35 267.23L192.34 267.26L192.35 267.18L243.58 0H278.41Z" fill="white"/>
<path d="M358.42 0L347.19 18.09L192.46 267.22L192.41 267.29L316.13 0.12L316.19 0H358.42Z" fill="white"/>
<path d="M375.5 128.63V161.01L192.43 267.35L375.5 128.63Z" fill="white"/>
<path d="M204.15 482.3C198.64 481.96 193.117 481.79 187.58 481.79C184.35 481.79 181.123 481.85 177.9 481.97L179.26 461.8L192.3 267.94L192.31 267.76V267.61L192.32 267.82L204.15 482.3Z" fill="white"/>
<path d="M192.24 267.43L191.98 267.54L0.5 349.44V322.96L192.1 267.47L192.24 267.43Z" fill="white"/>
<path d="M192.28 267.37L0.5 201.93V174.48L173.64 258.37L192.28 267.37Z" fill="white"/>
<path d="M192.26 267.32L0.5 143.53V107.27L192.26 267.32Z" fill="white"/>
<path d="M192.25 267.29L0.5 62.78V4.91003L18.26 29.21L192.25 267.29Z" fill="white"/>
<path d="M192.31 267.33L131.27 157.92L49.41 11.2L43.17 0H83.46L192.31 267.33Z" fill="white"/>
<path d="M192.31 267.29L119.94 0H154.05L192.31 267.29Z" fill="white"/>
<path d="M192.24 267.5L192.11 267.66L6.13 498.62L0.5 505.61V453.65L192.16 267.57L192.24 267.5Z" fill="white"/>
<path d="M192.28 267.37L0.5 251.11V227.16L120.73 252.38L192.28 267.37Z" fill="white"/>
<path d="M252.38 488.75C242.92 486.83 233.22 485.22 223.38 484.04L192.34 267.57V267.72L192.32 267.82L192.3 267.94L150.8 484.17C140.65 485.42 130.66 487.12 120.95 489.15L192.33 267.47L192.28 267.52L85.51 498.09C67.91 503.28 52.05 509.05 38.93 514.33L192.11 267.66L192.16 267.57L192.21 267.5L0.5 412.74V378.8L191.98 267.54L192.1 267.47L192.24 267.39L0.5 298.27V274.57L70.35 271.95L192.28 267.37H192.42L192.43 267.39V267.4L192.44 267.46L192.45 267.47L192.5 267.65L192.51 267.69L192.58 267.98L192.68 268.33L252.38 488.75Z" fill="white"/>
<path d="M328.11 510.96C315.68 506.24 301.35 501.31 285.76 496.89L192.68 268.33L192.41 267.66L192.58 267.98L328.11 510.96Z" fill="white"/>
<path d="M210.33 0L192.35 267.18V267.23L192.34 267.35V267.26L177.6 0H210.33Z" fill="white"/>
<path d="M375.5 462.81V518.1L366.41 505.65L192.51 267.69L192.41 267.56L192.5 267.65L375.5 462.81Z" fill="white"/>
<path d="M375.5 385.67V420.25L192.45 267.47L375.5 385.67Z" fill="white"/>
<path d="M375.5 329.94V356.14L289.87 314.66L192.45 267.47L333.79 315.7L375.5 329.94Z" fill="white"/>
<path d="M375.5 282.92V305.83L256.56 280.86L192.43 267.4L375.5 282.92Z" fill="white"/>
<path d="M375.5 237.88V260.51L204.29 266.93L192.49 267.39L192.66 267.31L375.5 237.88Z" fill="white"/>
<path d="M192.71 267.29L375.5 189.1V214.35L192.71 267.29Z" fill="white"/>
<path d="M375.5 39.9301V89.5701L192.41 267.34H192.37L192.41 267.29L192.46 267.22L375.5 39.9301Z" fill="white"/>
<path d="M192.33 267.29L192.34 267.26V267.27L192.33 267.29Z" fill="white"/>
<path d="M192.33 267.47L192.41 267.66L192.33 267.52V267.47Z" fill="white"/>
</g>
</g>
<defs>
<clipPath id="clip0_1_147">
<rect width="375" height="518.1" fill="white" transform="translate(0.5)"/>
</clipPath>
</defs>
</svg>
