<svg width="25" height="24" viewBox="0 0 25 24" fill="none" xmlns="http://www.w3.org/2000/svg">
<g clip-path="url(#clip0_1_200)">
<path d="M15.832 23.987C15.467 23.9844 15.1066 23.9061 14.7734 23.7572C14.4402 23.6084 14.1414 23.3921 13.8959 23.122C12.5359 21.7273 11.1769 20.332 9.81892 18.936C9.78631 18.9001 9.75627 18.862 9.72896 18.822L9.6739 18.748L9.58992 18.639L7.20393 21.089L6.56795 21.745C6.12394 22.204 5.66798 22.678 5.20698 23.139C4.94652 23.4059 4.63557 23.6182 4.29219 23.7636C3.94881 23.909 3.57988 23.9846 3.20698 23.986C2.731 23.9884 2.26279 23.8646 1.85017 23.6273C1.43756 23.39 1.09527 23.0476 0.857984 22.635C0.611381 22.1977 0.487945 21.7018 0.500928 21.2V3.71399C0.485062 2.818 0.799395 1.9475 1.38398 1.26831C1.96857 0.589117 2.78261 0.148713 3.67097 0.0310059C3.70535 0.0244208 3.73887 0.0140174 3.77095 0H15.3439L15.513 0.0369873C15.641 0.0649873 15.773 0.0929836 15.899 0.126984C16.666 0.328625 17.3463 0.774819 17.837 1.39792C18.3276 2.02102 18.6019 2.78706 18.618 3.57999C18.6295 3.69086 18.6185 3.80293 18.5856 3.90945C18.5528 4.01598 18.4988 4.11479 18.427 4.19998C18.355 4.28506 18.2667 4.3548 18.1672 4.40497C18.0677 4.45514 17.9592 4.48474 17.848 4.492H17.7919C17.6857 4.49342 17.5802 4.47383 17.4815 4.43436C17.3828 4.39489 17.293 4.3363 17.217 4.26199C17.1411 4.1876 17.0807 4.09895 17.0391 4.00113C16.9976 3.90331 16.9757 3.79825 16.9749 3.69199C16.9782 3.30113 16.8668 2.91789 16.6546 2.58963C16.4424 2.26137 16.1387 2.00251 15.781 1.845C15.5219 1.72785 15.2413 1.66586 14.957 1.66299C12.97 1.65699 10.9179 1.65399 8.68391 1.65399H4.16694C3.65519 1.6532 3.16264 1.84862 2.7906 2.20001C2.41856 2.5514 2.19535 3.03204 2.16694 3.543C2.15894 3.663 2.15791 3.78199 2.15791 3.88199V21.057C2.14847 21.2499 2.16844 21.4431 2.21699 21.63C2.28756 21.8379 2.42253 22.0178 2.60237 22.1437C2.7822 22.2696 2.99753 22.3348 3.21699 22.33C3.36261 22.3306 3.50685 22.3022 3.64143 22.2466C3.77601 22.191 3.8982 22.1092 4.00093 22.006C4.43193 21.573 4.86393 21.127 5.28193 20.696L5.81892 20.142L6.78401 19.15L8.90498 16.972C8.98705 16.8769 9.08744 16.7993 9.20015 16.7438C9.31285 16.6883 9.43556 16.656 9.56099 16.649C9.68779 16.6555 9.8119 16.6879 9.92573 16.7441C10.0396 16.8004 10.1407 16.8793 10.223 16.976C11.864 18.659 13.469 20.305 15.056 21.944C15.1575 22.0622 15.2826 22.1577 15.4233 22.2245C15.564 22.2914 15.7173 22.328 15.873 22.332C15.9834 22.3313 16.0931 22.3147 16.1989 22.283C16.4197 22.2271 16.6154 22.0988 16.7546 21.9186C16.8938 21.7384 16.9686 21.5167 16.967 21.289C16.9635 21.1201 17.0117 20.9542 17.1052 20.8136C17.1987 20.6729 17.3329 20.5642 17.4899 20.502C17.5899 20.4596 17.6974 20.4375 17.806 20.437C17.9119 20.4372 18.0168 20.4584 18.1145 20.4994C18.2121 20.5404 18.3007 20.6005 18.375 20.676C18.4545 20.7562 18.5174 20.8515 18.5598 20.9562C18.6022 21.0609 18.6232 21.173 18.6219 21.286C18.6242 21.8881 18.423 22.4734 18.0509 22.9468C17.6787 23.4202 17.1576 23.754 16.572 23.894C16.3298 23.9538 16.0814 23.9851 15.832 23.987Z" fill="#FF5A00"/>
<path d="M17.7931 18.642C16.1319 18.6391 14.5396 17.9779 13.3649 16.8032C12.1902 15.6286 11.5289 14.0362 11.526 12.375C11.5237 11.5515 11.6849 10.7357 12.0003 9.97487C12.3156 9.21408 12.7788 8.52344 13.3631 7.94301C13.9432 7.35849 14.6336 6.89489 15.3942 6.57905C16.1548 6.26321 16.9705 6.10143 17.7941 6.10304H17.803C19.4625 6.10885 21.0523 6.77106 22.2252 7.94508C23.3981 9.1191 24.0588 10.7095 24.063 12.369C24.062 14.029 23.4033 15.621 22.2312 16.7965C21.0591 17.9719 19.4691 18.6352 17.8091 18.641L17.7931 18.642ZM17.7931 7.75801C17.1864 7.75667 16.5854 7.87588 16.025 8.10865C15.4647 8.34143 14.9563 8.68315 14.5291 9.11403C14.0994 9.54153 13.7589 10.0501 13.5274 10.6102C13.2958 11.1704 13.1777 11.7709 13.1801 12.377C13.184 13.5994 13.6719 14.7705 14.5369 15.6342C15.4019 16.4979 16.5737 16.9839 17.796 16.986H17.8051C19.0244 16.9795 20.1918 16.4916 21.0532 15.6286C21.9147 14.7656 22.4006 13.5974 22.4051 12.378C22.4077 11.7719 22.2899 11.1714 22.0585 10.6113C21.8271 10.0511 21.4867 9.54249 21.057 9.115C20.6299 8.68365 20.1213 8.34148 19.5608 8.10835C19.0003 7.87522 18.3991 7.75582 17.792 7.75703L17.7931 7.75801Z" fill="#FF5A00"/>
<path d="M17.785 15.092C17.6615 15.0956 17.5391 15.0675 17.4296 15.0104C17.32 14.9534 17.2268 14.8692 17.1589 14.766C17.0589 14.5833 16.9987 14.3816 16.9821 14.174C16.9639 13.9963 16.9584 13.8175 16.9659 13.639C16.9659 13.5544 16.9659 13.4694 16.9659 13.384C16.9646 13.3553 16.9568 13.3272 16.943 13.302C16.943 13.294 16.935 13.285 16.929 13.272L16.899 13.198H15.985C15.8705 13.2073 15.7554 13.1928 15.6469 13.1555C15.5383 13.1181 15.4385 13.0587 15.354 12.981C15.2696 12.9033 15.2022 12.809 15.1559 12.704C15.1096 12.5991 15.0854 12.4857 15.085 12.371C15.0848 12.256 15.1085 12.1422 15.1547 12.0369C15.2008 11.9315 15.2684 11.8369 15.353 11.759C15.4377 11.6812 15.5376 11.6218 15.6464 11.5847C15.7552 11.5475 15.8704 11.5333 15.985 11.543H16.985V11.09C16.985 10.85 16.9779 10.622 16.9919 10.396C17.0023 10.2301 17.065 10.0719 17.171 9.94391C17.277 9.81596 17.421 9.72498 17.582 9.68402C17.661 9.66089 17.7427 9.64907 17.825 9.64899C17.9484 9.6454 18.0708 9.67353 18.1804 9.73059C18.29 9.78765 18.3832 9.8718 18.4511 9.97504C18.5518 10.1567 18.6122 10.3579 18.6281 10.565C18.6455 10.7568 18.6495 10.9497 18.64 11.142C18.64 11.234 18.64 11.327 18.64 11.423V11.542H19.65C19.7627 11.5355 19.8755 11.552 19.9816 11.5905C20.0876 11.629 20.1847 11.6887 20.267 11.766C20.349 11.843 20.4146 11.936 20.4596 12.0391C20.5046 12.1423 20.5283 12.2535 20.5291 12.366C20.5288 12.4784 20.5057 12.5895 20.4612 12.6926C20.4167 12.7958 20.3516 12.8888 20.27 12.966C20.1881 13.0436 20.0913 13.1037 19.9854 13.1426C19.8794 13.1814 19.7667 13.1982 19.6541 13.192H18.631V13.644C18.631 13.884 18.638 14.112 18.624 14.338C18.6138 14.504 18.5509 14.6625 18.4447 14.7905C18.3385 14.9185 18.1943 15.0094 18.033 15.05C17.9527 15.0758 17.8693 15.0899 17.785 15.092Z" fill="#FF5A00"/>
</g>
<defs>
<clipPath id="clip0_1_200">
<rect width="23.563" height="23.987" fill="white" transform="translate(0.5)"/>
</clipPath>
</defs>
</svg>
