<svg width="25" height="24" viewBox="0 0 25 24" fill="none" xmlns="http://www.w3.org/2000/svg">
<g clip-path="url(#clip0_1_205)">
<path d="M16.237 14.3299C15.8486 12.5334 14.8502 10.9268 13.4114 9.78302C11.9726 8.63922 10.1823 8.02878 8.34446 8.0554C6.50664 8.08203 4.73471 8.74408 3.3297 9.92908C1.92468 11.1141 0.973238 12.749 0.637 14.5559C0.636453 14.7631 0.591439 14.9677 0.505 15.1559V15.3879C0.536 15.4129 0.53 15.4439 0.53 15.4819V15.5029C0.531219 15.5177 0.529161 15.5325 0.523974 15.5463C0.518787 15.5601 0.510599 15.5727 0.5 15.5829V16.4289C0.531 16.4539 0.525 16.4919 0.525 16.5229V16.5349C0.527303 16.5487 0.526231 16.5628 0.521876 16.576C0.517521 16.5893 0.510013 16.6013 0.5 16.6109L0.5 16.8029C0.563 17.0599 0.544 17.3289 0.594 17.5859C0.893938 19.0801 1.6206 20.4553 2.686 21.5449C3.69187 22.5922 4.96248 23.3476 6.363 23.7309C6.86837 23.8569 7.38417 23.9366 7.904 23.9689H8.092C8.13667 23.9503 8.18459 23.9407 8.233 23.9407C8.28141 23.9407 8.32933 23.9503 8.374 23.9689H8.656C8.6746 23.9512 8.69931 23.9413 8.725 23.9413C8.75069 23.9413 8.7754 23.9512 8.794 23.9689H8.932V23.9529C8.945 23.9089 8.988 23.9149 9.02 23.9149C9.44873 23.8901 9.8744 23.8272 10.292 23.7269C12.3111 23.2415 14.0615 21.9882 15.1715 20.2331C16.2816 18.4779 16.6638 16.3593 16.237 14.3269V14.3299ZM8.469 22.0729C7.2648 22.0759 6.08678 21.7216 5.08403 21.0548C4.08129 20.388 3.2989 19.4387 2.83587 18.3271C2.37285 17.2154 2.25001 15.9914 2.4829 14.81C2.71579 13.6285 3.29394 12.5427 4.14418 11.6899C4.99443 10.8371 6.07854 10.2558 7.25932 10.0194C8.44009 9.78299 9.66446 9.90221 10.7775 10.3619C11.8905 10.8217 12.842 11.6012 13.5118 12.602C14.1816 13.6028 14.5394 14.7797 14.54 15.9839C14.5408 17.596 13.902 19.1425 12.7638 20.284C11.6256 21.4256 10.081 22.069 8.469 22.0729Z" fill="#FF5A00"/>
<path d="M23.88 22.603C22.9084 23.0251 21.8938 23.3403 20.854 23.543C19.8376 23.746 18.8074 23.8717 17.772 23.919C17.728 23.919 17.678 23.9 17.659 23.969H17.565C17.5595 23.9617 17.5524 23.9559 17.5442 23.9518C17.5361 23.9478 17.5271 23.9456 17.518 23.9456C17.5089 23.9456 17.4999 23.9478 17.4918 23.9518C17.4836 23.9559 17.4765 23.9617 17.471 23.969H17.145C17.0601 23.9421 16.9705 23.9336 16.882 23.944H16.851C16.669 23.9304 16.486 23.9388 16.306 23.969H16.256V23.956C16.237 23.906 16.181 23.918 16.143 23.906C15.9257 23.8385 15.7405 23.6943 15.6218 23.5002C15.5032 23.306 15.4593 23.0754 15.4984 22.8512C15.5375 22.6271 15.6569 22.4249 15.8342 22.2824C16.0116 22.1399 16.2347 22.0669 16.462 22.077C17.2569 22.0781 18.0512 22.0384 18.842 21.958C20.3109 21.8208 21.7511 21.4653 23.115 20.903C23.2269 20.8506 23.3482 20.821 23.4717 20.816C23.5951 20.8109 23.7184 20.8304 23.8343 20.8734C23.9501 20.9165 24.0563 20.9821 24.1465 21.0665C24.2368 21.1509 24.3093 21.2524 24.36 21.3651C24.4107 21.4779 24.4384 21.5995 24.4416 21.7231C24.4448 21.8466 24.4234 21.9696 24.3786 22.0848C24.3339 22.1999 24.2666 22.3051 24.1809 22.394C24.0951 22.483 23.9935 22.554 23.88 22.603Z" fill="#FF5A00"/>
<path d="M23.629 1.81997C23.0012 1.29098 22.2689 0.900165 21.48 0.672972C19.9499 0.197226 18.3531 -0.0290036 16.751 0.00297188C16.519 0.00297188 16.281 -0.00302812 16.051 0.00297188C14.6684 0.0279659 13.2968 0.253655 11.979 0.672972C11.087 0.919278 10.2717 1.38711 9.60902 2.03297C9.21644 2.40727 8.98611 2.92047 8.96742 3.46257C8.94873 4.00467 9.14315 4.53252 9.50902 4.93297C9.98634 5.47298 10.5885 5.88804 11.263 6.14197C12.4516 6.61883 13.7068 6.90925 14.984 7.00297C16.8676 7.1957 18.77 7.07916 20.616 6.65797C21.6367 6.4585 22.6011 6.03724 23.441 5.42397C23.9439 5.07281 24.3023 4.55125 24.45 3.95597C24.5279 3.55876 24.4922 3.14763 24.347 2.7698C24.2017 2.39197 23.9529 2.06276 23.629 1.81997ZM22.289 3.96197C21.9375 4.22307 21.5461 4.42568 21.13 4.56197C19.8023 5.00255 18.4129 5.22872 17.014 5.23197C15.4274 5.28207 13.8441 5.05742 12.334 4.56797C11.9111 4.43019 11.5133 4.22487 11.156 3.95997C10.749 3.64097 10.742 3.45997 11.156 3.15197C11.6253 2.81404 12.1517 2.56369 12.71 2.41297C14.465 1.92152 16.2957 1.75812 18.11 1.93097C19.2403 1.99708 20.3535 2.23793 21.41 2.64497C21.7221 2.76684 22.0169 2.92887 22.287 3.12697C22.721 3.45497 22.721 3.62997 22.289 3.96197Z" fill="#FF5A00"/>
<path d="M23.874 9.98298C22.7937 10.4472 21.6626 10.7829 20.504 10.983C19.467 11.1683 18.4179 11.2773 17.365 11.309C17.138 11.2639 16.9355 11.1372 16.7956 10.9528C16.6558 10.7685 16.5884 10.5393 16.6061 10.3086C16.6239 10.0779 16.7255 9.86171 16.8919 9.70091C17.0583 9.5401 17.2778 9.44585 17.509 9.43598C19.2254 9.3836 20.9237 9.06896 22.545 8.50298C22.752 8.42798 22.952 8.33998 23.153 8.25898C23.2667 8.20798 23.3896 8.18027 23.5142 8.17748C23.6388 8.17469 23.7628 8.19689 23.8787 8.24275C23.9946 8.28862 24.1002 8.35723 24.1892 8.44454C24.2782 8.53185 24.3488 8.6361 24.3969 8.75113C24.4449 8.86616 24.4695 8.98965 24.4691 9.11432C24.4687 9.23899 24.4433 9.36232 24.3945 9.47703C24.3456 9.59174 24.2743 9.69552 24.1848 9.78224C24.0952 9.86896 23.9892 9.93688 23.873 9.98198L23.874 9.98298Z" fill="#FF5A00"/>
<path d="M23.9 18.434C23.1905 18.7495 22.4542 19.0012 21.7 19.186C20.7391 19.4281 19.7608 19.5953 18.774 19.686C18.526 19.7049 18.2806 19.6255 18.0907 19.465C17.9008 19.3044 17.7816 19.0757 17.759 18.828C17.739 18.5873 17.8135 18.3483 17.9668 18.1616C18.1201 17.9749 18.34 17.8553 18.58 17.828C19.7683 17.7205 20.9417 17.4858 22.08 17.128C22.424 17.015 22.763 16.878 23.107 16.746C23.2231 16.6912 23.3488 16.6593 23.477 16.652C23.6988 16.6438 23.9164 16.7139 24.0916 16.8502C24.2668 16.9864 24.3884 17.18 24.435 17.397C24.4787 17.605 24.4493 17.8218 24.3519 18.0107C24.2544 18.1996 24.0948 18.3491 23.9 18.434Z" fill="#FF5A00"/>
<path d="M24.249 13.954C24.1442 14.0793 24.0113 14.178 23.861 14.242C22.4715 14.8231 21.0083 15.2091 19.513 15.389C19.344 15.408 19.175 15.427 19.062 15.445C18.8157 15.4637 18.5719 15.3848 18.3832 15.2254C18.1945 15.0661 18.0759 14.839 18.053 14.593C18.03 14.3644 18.094 14.1355 18.2322 13.952C18.3705 13.7685 18.5729 13.6439 18.799 13.603C19.538 13.484 20.284 13.396 21.01 13.221C21.7529 13.0427 22.48 12.8039 23.184 12.507C23.3759 12.4242 23.5906 12.4108 23.7913 12.469C23.992 12.5272 24.1662 12.6534 24.284 12.826C24.4009 12.9925 24.4607 13.1925 24.4544 13.3958C24.4481 13.5992 24.376 13.7951 24.249 13.954Z" fill="#FF5A00"/>
<path d="M9.72797 19.503C9.66795 19.5229 9.616 19.5617 9.57993 19.6136C9.54386 19.6656 9.52563 19.7278 9.52797 19.791C9.51531 20.032 9.40964 20.2587 9.2332 20.4234C9.05676 20.5881 8.8233 20.6779 8.58197 20.674C8.34188 20.6716 8.11229 20.5752 7.94251 20.4054C7.77273 20.2357 7.67632 20.0061 7.67397 19.766C7.66697 19.63 7.59997 19.603 7.49997 19.58C7.12588 19.5055 6.76057 19.3922 6.40997 19.242C6.20952 19.1589 6.04458 19.008 5.94389 18.8158C5.84321 18.6236 5.81316 18.4021 5.85897 18.19C5.90636 17.9791 6.02505 17.791 6.19503 17.6574C6.365 17.5239 6.57585 17.4531 6.79197 17.457C6.957 17.4593 7.11951 17.4979 7.26797 17.57C7.69285 17.723 8.13476 17.8237 8.58397 17.87C8.70083 17.8873 8.8202 17.8721 8.92897 17.826C9.0045 17.7939 9.06998 17.742 9.11855 17.6758C9.16712 17.6097 9.19697 17.5317 9.20497 17.45C9.20988 17.3711 9.19181 17.2924 9.15294 17.2235C9.11407 17.1547 9.05607 17.0986 8.98597 17.062C8.83052 16.971 8.65184 16.9275 8.47197 16.937C7.79296 16.9371 7.13751 16.688 6.62997 16.237C6.34088 15.9702 6.12547 15.6334 6.00456 15.2591C5.88365 14.8848 5.86132 14.4857 5.93974 14.1002C6.01816 13.7148 6.19467 13.356 6.45222 13.0587C6.70976 12.7614 7.03964 12.5356 7.40997 12.403C7.57297 12.34 7.66697 12.29 7.68597 12.084C7.71873 11.8696 7.82784 11.6742 7.9932 11.5338C8.15857 11.3934 8.36907 11.3175 8.58597 11.32C8.80765 11.3107 9.0247 11.3852 9.19402 11.5286C9.36334 11.672 9.47255 11.8738 9.49997 12.094C9.49604 12.1513 9.50371 12.2089 9.52252 12.2632C9.54133 12.3175 9.57088 12.3675 9.60943 12.4102C9.64797 12.4528 9.69472 12.4873 9.74687 12.5115C9.79902 12.5357 9.85551 12.5491 9.91297 12.551C10.0494 12.5819 10.182 12.6282 10.308 12.689C10.5406 12.7737 10.73 12.9474 10.8345 13.1718C10.9391 13.3962 10.9502 13.6529 10.8655 13.8855C10.7807 14.1181 10.6071 14.3075 10.3827 14.412C10.1583 14.5166 9.90156 14.5277 9.66897 14.443C9.22064 14.2578 8.74355 14.1519 8.25897 14.13C8.16606 14.1262 8.07365 14.1454 7.98997 14.186C7.92096 14.2187 7.86227 14.2697 7.82035 14.3336C7.77843 14.3974 7.75489 14.4715 7.75231 14.5479C7.74972 14.6242 7.7682 14.6997 7.80571 14.7663C7.84322 14.8328 7.89832 14.8877 7.96497 14.925C8.18267 15.031 8.42292 15.0825 8.66497 15.075C9.08866 15.0808 9.50371 15.1956 9.87013 15.4084C10.2365 15.6212 10.542 15.9248 10.757 16.29C10.9159 16.5651 11.0155 16.8704 11.0495 17.1863C11.0834 17.5022 11.0509 17.8218 10.9539 18.1243C10.857 18.4269 10.6979 18.7059 10.4868 18.9433C10.2756 19.1808 10.0172 19.3714 9.72797 19.503Z" fill="#FF5A00"/>
</g>
<defs>
<clipPath id="clip0_1_205">
<rect width="23.99" height="23.969" fill="white" transform="translate(0.5)"/>
</clipPath>
</defs>
</svg>
