<svg width="25" height="25" viewBox="0 0 25 25" fill="none" xmlns="http://www.w3.org/2000/svg">
<g clip-path="url(#clip0_1_196)">
<path d="M24.45 10.7702C24.3248 9.26442 23.8904 7.80061 23.174 6.47023C22.4006 4.99433 21.3318 3.6933 20.0342 2.64803C18.7365 1.60276 17.2378 0.835593 15.631 0.394234C14.1915 0.0281914 12.6991 -0.0841563 11.221 0.0622336C9.71518 0.187386 8.25135 0.621768 6.921 1.33823C5.44574 2.11179 4.14544 3.18066 3.10101 4.47833C2.05657 5.776 1.29035 7.27472 0.85 8.88123C0.664581 9.57312 0.547355 10.2815 0.5 10.9962L0.5 11.1842C0.531 11.2092 0.525 11.2472 0.525 11.2782V11.3782C0.519 11.4222 0.538 11.4722 0.5 11.5162V11.6542C0.518512 11.6988 0.528042 11.7465 0.528042 11.7947C0.528042 11.843 0.518512 11.8907 0.5 11.9352L0.5 12.1232C0.518512 12.1678 0.528042 12.2155 0.528042 12.2637C0.528042 12.312 0.518512 12.3597 0.5 12.4042V12.5422C0.538 12.5802 0.519 12.6302 0.525 12.6802V12.7932C0.526721 12.8074 0.52538 12.8218 0.521068 12.8354C0.516755 12.8491 0.509571 12.8616 0.5 12.8722L0.5 13.0602C0.55 13.2792 0.531 13.5042 0.563 13.7292C0.735209 15.0057 1.1195 16.2444 1.7 17.3942C2.44106 18.8768 3.48005 20.1905 4.752 21.2532C6.2498 22.5218 8.03774 23.4009 9.957 23.8122C10.4517 23.9039 10.9506 23.9706 11.452 24.0122H11.64C11.6533 24.0021 11.6684 23.9947 11.6845 23.9904C11.7006 23.9861 11.7175 23.985 11.734 23.9872H11.984C11.9976 23.9851 12.0115 23.9863 12.0245 23.9906C12.0376 23.995 12.0494 24.0024 12.059 24.0122H12.9C12.9099 24.0028 12.9217 23.9956 12.9347 23.9913C12.9477 23.9869 12.9614 23.9856 12.975 23.9872H13.15C13.194 23.9872 13.238 23.9742 13.275 24.0122H13.413C13.657 23.9682 13.907 23.9872 14.151 23.9562C15.3983 23.7921 16.6107 23.4267 17.741 22.8742C19.2582 22.1249 20.6032 21.0686 21.6908 19.7722C22.7784 18.4758 23.5848 16.9676 24.059 15.3432C24.4657 13.8553 24.5982 12.3057 24.45 10.7702ZM13.416 21.9292C13.422 21.6222 13.416 21.3222 13.416 21.0162C13.416 20.7102 13.422 20.4222 13.416 20.1282C13.4143 19.8803 13.3141 19.6431 13.1375 19.469C12.961 19.2949 12.7225 19.198 12.4745 19.1997C12.2265 19.2015 11.9894 19.3016 11.8153 19.4782C11.6411 19.6548 11.5443 19.8933 11.546 20.1412C11.54 20.7412 11.54 21.3412 11.546 21.9412C11.546 22.0852 11.502 22.1042 11.377 22.0852C9.36271 21.8595 7.46239 21.0349 5.9215 19.7181C4.38062 18.4013 3.26996 16.6527 2.733 14.6982C2.5988 14.1864 2.49858 13.6663 2.433 13.1412C2.408 12.9782 2.464 12.9662 2.602 12.9662C3.17133 12.9722 3.74067 12.9722 4.31 12.9662C4.43887 12.9767 4.56851 12.9604 4.69077 12.9184C4.81303 12.8763 4.92527 12.8094 5.02042 12.7219C5.11557 12.6343 5.19157 12.528 5.24364 12.4097C5.29572 12.2914 5.32274 12.1635 5.323 12.0342C5.32315 11.9034 5.29617 11.7739 5.24378 11.654C5.19138 11.5341 5.11471 11.4263 5.01859 11.3376C4.92247 11.2488 4.80899 11.1809 4.68531 11.1381C4.56163 11.0954 4.43043 11.0787 4.3 11.0892C3.731 11.0892 3.162 11.0832 2.592 11.0952C2.436 11.0952 2.417 11.0452 2.436 10.9072C2.62628 9.14271 3.28074 7.46012 4.33277 6.03078C5.38479 4.60144 6.79679 3.47641 8.425 2.77023C9.36454 2.3477 10.3654 2.07764 11.39 1.97023C11.54 1.95123 11.553 2.00123 11.553 2.12623C11.547 2.67023 11.553 3.22623 11.553 3.76523C11.5377 3.89813 11.5508 4.03276 11.5914 4.16022C11.632 4.28769 11.6992 4.40507 11.7886 4.50462C11.8779 4.60417 11.9874 4.68361 12.1098 4.73769C12.2321 4.79177 12.3646 4.81926 12.4983 4.81833C12.6321 4.81741 12.7642 4.78809 12.8858 4.73232C13.0074 4.67655 13.1157 4.5956 13.2037 4.49482C13.2917 4.39404 13.3573 4.27573 13.3961 4.14772C13.4349 4.01971 13.4461 3.88491 13.429 3.75223C13.429 3.21423 13.435 2.67623 13.429 2.13823C13.429 2.00723 13.442 1.95023 13.604 1.96923C15.7761 2.21587 17.8107 3.15678 19.4053 4.65213C20.9999 6.14747 22.0695 8.11744 22.455 10.2692C22.486 10.4382 22.505 10.6072 22.524 10.7762C22.562 11.0832 22.562 11.0832 22.243 11.0832H20.653C20.5246 11.0753 20.396 11.0937 20.2751 11.1375C20.1542 11.1812 20.0435 11.2493 19.9499 11.3375C19.8564 11.4257 19.7819 11.5322 19.7311 11.6504C19.6804 11.7685 19.6544 11.8958 19.6548 12.0244C19.6552 12.153 19.682 12.2802 19.7335 12.398C19.785 12.5158 19.8602 12.6218 19.9543 12.7095C20.0484 12.7971 20.1595 12.8645 20.2808 12.9074C20.402 12.9504 20.5307 12.968 20.659 12.9592C21.234 12.9592 21.816 12.9652 22.392 12.9532C22.548 12.9532 22.567 12.9972 22.548 13.1412C22.3372 15.1326 21.5345 17.0152 20.2435 18.5459C18.9524 20.0767 17.2323 21.1855 15.305 21.7292C14.7451 21.8962 14.1715 22.0133 13.591 22.0792C13.429 22.1042 13.41 22.0482 13.416 21.9292Z" fill="#FF5A00"/>
<path d="M13.617 16.0182C13.5349 16.0387 13.4635 16.0894 13.4172 16.1602C13.3708 16.231 13.3529 16.3167 13.367 16.4002C13.3864 16.5272 13.3796 16.6568 13.3469 16.781C13.3142 16.9053 13.2564 17.0215 13.177 17.1225C13.0976 17.2234 12.9983 17.3071 12.8853 17.3682C12.7723 17.4292 12.648 17.4665 12.52 17.4776C12.392 17.4887 12.2631 17.4734 12.1413 17.4327C12.0194 17.392 11.9072 17.3267 11.8116 17.2409C11.716 17.1551 11.639 17.0506 11.5854 16.9339C11.5318 16.8171 11.5028 16.6906 11.5 16.5622C11.494 16.3992 11.569 16.1932 11.469 16.0872C11.369 15.9812 11.169 15.9992 11.012 15.9492C10.731 15.8622 10.449 15.7742 10.168 15.6682C10.0478 15.6296 9.93655 15.5669 9.84115 15.4841C9.74574 15.4013 9.66811 15.3 9.61293 15.1864C9.55776 15.0727 9.52618 14.9491 9.52012 14.8229C9.51406 14.6967 9.53363 14.5706 9.57765 14.4522C9.62168 14.3338 9.68924 14.2255 9.77627 14.1339C9.86329 14.0424 9.96798 13.9694 10.084 13.9194C10.2 13.8694 10.325 13.8434 10.4513 13.843C10.5776 13.8426 10.7027 13.8679 10.819 13.9172C11.3709 14.1324 11.9496 14.2714 12.539 14.3302C12.6938 14.3508 12.8512 14.3225 12.989 14.2492C13.0876 14.2034 13.1714 14.1309 13.231 14.0399C13.2906 13.949 13.3235 13.8432 13.3261 13.7345C13.3287 13.6258 13.3009 13.5185 13.2457 13.4248C13.1906 13.3311 13.1103 13.2547 13.014 13.2042C12.8068 13.0934 12.5739 13.0396 12.339 13.0482C11.9355 13.0486 11.5363 12.9657 11.1663 12.8047C10.7963 12.6436 10.4636 12.4078 10.189 12.1122C9.92726 11.8124 9.74254 11.4533 9.65086 11.066C9.55918 10.6787 9.56331 10.2749 9.6629 9.88959C9.76248 9.50425 9.95451 9.14901 10.2224 8.85463C10.4902 8.56026 10.8258 8.33562 11.2 8.2002C11.2576 8.19019 11.3126 8.16865 11.3617 8.13687C11.4108 8.10509 11.4529 8.06372 11.4856 8.01525C11.5183 7.96678 11.5408 7.91221 11.5519 7.8548C11.563 7.7974 11.5623 7.73835 11.55 7.6812C11.5403 7.44499 11.623 7.2143 11.7806 7.03806C11.9382 6.86182 12.1582 6.7539 12.394 6.7372C12.5205 6.72742 12.6476 6.74312 12.7679 6.78337C12.8882 6.82362 12.9992 6.88761 13.0943 6.97153C13.1894 7.05545 13.2667 7.15761 13.3217 7.27195C13.3766 7.38629 13.408 7.51049 13.414 7.6372C13.426 7.8182 13.333 8.0502 13.452 8.1752C13.571 8.3002 13.777 8.2942 13.952 8.3502C14.127 8.4062 14.321 8.4752 14.496 8.5502C14.6528 8.61527 14.7881 8.72309 14.8866 8.86135C14.9851 8.99961 15.0428 9.16276 15.053 9.3322C15.0618 9.48962 15.031 9.64674 14.9634 9.78918C14.8958 9.93162 14.7935 10.0548 14.666 10.1475C14.5385 10.2403 14.3897 10.2995 14.2334 10.3199C14.077 10.3403 13.9181 10.3211 13.771 10.2642C13.2738 10.0618 12.7489 9.93537 12.214 9.8892C12.0857 9.87009 11.9546 9.88887 11.8369 9.94323C11.7191 9.99759 11.6197 10.0852 11.551 10.1952C11.5062 10.2576 11.4754 10.3289 11.4605 10.4043C11.4457 10.4797 11.4473 10.5574 11.4651 10.6321C11.4829 10.7069 11.5166 10.7769 11.5639 10.8374C11.6111 10.898 11.6709 10.9477 11.739 10.9832C12.0013 11.1205 12.294 11.1893 12.59 11.1832C13.0134 11.1878 13.4297 11.2925 13.805 11.4887C14.1802 11.6849 14.5037 11.9671 14.749 12.3122C14.9629 12.6182 15.1043 12.9689 15.1626 13.3377C15.2209 13.7065 15.1945 14.0838 15.0855 14.4408C14.9764 14.7979 14.7875 15.1255 14.5331 15.3988C14.2787 15.6721 13.9654 15.8839 13.617 16.0182Z" fill="#FF5A00"/>
</g>
<defs>
<clipPath id="clip0_1_196">
<rect width="24.009" height="24.012" fill="white" transform="translate(0.5)"/>
</clipPath>
</defs>
</svg>
