<svg width="61" height="60" viewBox="0 0 61 60" fill="none" xmlns="http://www.w3.org/2000/svg">
<g clip-path="url(#clip0_1_214)">
<path d="M2.68799 45.674V50.261C2.68799 54.053 11.926 57.136 23.313 57.136C34.7 57.136 43.938 54.053 43.938 50.261V45.674C39.501 48.8 31.391 50.261 23.313 50.261C15.235 50.261 7.12499 48.8 2.68799 45.674ZM37.063 15.886C48.45 15.886 57.688 12.803 57.688 9.01099C57.688 5.21899 48.45 2.13599 37.063 2.13599C25.676 2.13599 16.438 5.21899 16.438 9.01099C16.438 12.803 25.676 15.886 37.063 15.886ZM2.68799 34.406V39.949C2.68799 43.741 11.926 46.824 23.313 46.824C34.7 46.824 43.938 43.736 43.938 39.949V34.406C39.501 38.058 31.38 39.949 23.313 39.949C15.246 39.949 7.12499 38.058 2.68799 34.406ZM47.376 35.588C53.531 34.395 57.688 32.182 57.688 29.636V25.049C55.196 26.811 51.533 28.014 47.376 28.755V35.588ZM23.313 19.324C11.926 19.324 2.68799 23.169 2.68799 27.917C2.68799 32.665 11.926 36.511 23.313 36.511C34.7 36.511 43.938 32.665 43.938 27.917C43.938 23.169 34.7 19.324 23.313 19.324ZM46.871 25.372C53.316 24.211 57.688 21.936 57.688 19.324V14.736C53.875 17.436 47.322 18.882 40.425 19.226C43.594 20.763 45.925 22.827 46.871 25.372Z" fill="#FF5A00"/>
</g>
<defs>
<clipPath id="clip0_1_214">
<rect width="60" height="60" fill="white" transform="translate(0.5)"/>
</clipPath>
</defs>
</svg>
