<svg width="25" height="25" viewBox="0 0 25 25" fill="none" xmlns="http://www.w3.org/2000/svg">
<g clip-path="url(#clip0_1_227)">
<path d="M10.724 0.0240305V0.0720304C16.216 0.0720304 21.318 2.98503 23.26 7.97203C24.1976 10.5239 24.215 13.3229 23.3091 15.8862C22.4031 18.4495 20.6308 20.616 18.298 22.012C17.0619 22.8395 15.6681 23.4023 14.204 23.665C14.5145 23.7107 14.8315 23.6762 15.125 23.565C15.9487 23.3755 16.7523 23.1076 17.525 22.765C19.1556 22.0521 20.6117 20.9929 21.7921 19.6611C22.9725 18.3292 23.8491 16.7565 24.361 15.052C25.0899 12.2878 24.7941 9.35327 23.5283 6.79014C22.2624 4.22701 20.112 2.2084 17.474 1.10703C15.3249 0.270302 13.0218 -0.0972472 10.719 0.0290306L10.724 0.0240305Z" fill="#BF9101"/>
<path d="M22.14 18.2321H22.09C21.291 19.6449 20.1818 20.8581 18.846 21.7801C16.7815 23.264 14.2875 24.0305 11.746 23.9621C4.72698 23.6471 -0.573017 16.7461 0.800983 9.70809C1.09541 8.21584 1.67244 6.79364 2.50098 5.51809C3.56547 3.84807 5.03764 2.47658 6.77878 1.53289C8.51991 0.589191 10.4727 0.104362 12.453 0.124089C14.2668 0.162434 16.0433 0.647414 17.625 1.53609C18.306 1.91309 18.9 2.40509 19.553 2.82209C19.314 2.33909 18.544 1.97109 18.095 1.70709C16.5768 0.803033 14.8713 0.259734 13.11 0.119089C11.533 0.0248565 9.95296 0.245583 8.46214 0.768395C6.97132 1.29121 5.59953 2.10564 4.42677 3.16418C3.25401 4.22272 2.30377 5.50419 1.63147 6.93384C0.959168 8.36348 0.578267 9.91269 0.510983 11.4911C0.210983 18.4611 6.16898 24.6571 13.063 23.9731C15.8744 23.7366 18.5089 22.5039 20.492 20.4971C21.2126 19.883 21.7774 19.1067 22.14 18.2321Z" fill="#D9A509"/>
<path d="M11.605 0.143997C8.87155 0.38588 6.29216 1.51491 4.26001 3.359C3.23925 4.34007 2.40089 5.49467 1.78401 6.769C1.02462 8.36159 0.623495 10.1013 0.608874 11.8656C0.594253 13.6299 0.966488 15.376 1.69938 16.981C2.43227 18.5859 3.50801 20.0108 4.85089 21.1552C6.19376 22.2996 7.77114 23.1359 9.47201 23.605C10.8963 23.9647 12.3764 24.0479 13.832 23.85C16.5964 23.4422 19.1302 22.0778 20.9922 19.9942C22.8542 17.9107 23.9265 15.2402 24.0224 12.4475C24.1183 9.65486 23.2317 6.91703 21.5169 4.71073C19.8022 2.50443 17.3679 0.96943 14.638 0.372997C13.646 0.133254 12.6217 0.0559171 11.605 0.143997Z" fill="#E9C34F"/>
<path d="M11.547 1.86205C9.4107 2.05861 7.38339 2.89505 5.73 4.26205C4.83222 5.06835 4.08463 6.02755 3.522 7.09505C2.43373 9.16199 2.06017 11.531 2.45958 13.8325C2.859 16.134 4.00893 18.2387 5.73 19.8181C6.785 20.7254 8.01687 21.4038 9.34763 21.8104C10.6784 22.2169 12.0791 22.3428 13.461 22.1801C14.9756 21.9972 16.4277 21.4682 17.705 20.6341C18.8641 19.825 19.849 18.7915 20.6012 17.5947C21.3533 16.3979 21.8575 15.0622 22.0838 13.6669C22.31 12.2716 22.2537 10.845 21.9183 9.47188C21.5829 8.09872 20.9751 6.8069 20.131 5.67305C18.8613 4.06816 17.1373 2.88329 15.184 2.27305C14.0142 1.88125 12.7748 1.74118 11.547 1.86205Z" fill="#D7A301"/>
<path d="M11.897 2.26297C9.98327 2.44824 8.15771 3.15756 6.62097 4.31297C5.47813 5.23229 4.55252 6.39276 3.91033 7.7114C3.26814 9.03005 2.92523 10.4743 2.90612 11.9409C2.88701 13.4075 3.19218 14.8601 3.79979 16.1951C4.40741 17.53 5.30247 18.7142 6.42097 19.663C7.97861 20.9754 9.91747 21.7514 11.9505 21.876C13.9835 22.0007 16.0027 21.4673 17.709 20.355C18.6197 19.773 19.4198 19.0338 20.072 18.172C21.658 16.0649 22.3575 13.4214 22.0212 10.8056C21.6849 8.18993 20.3394 5.8093 18.272 4.17197C17.3614 3.48766 16.3374 2.96907 15.247 2.63997C14.1674 2.28854 13.0276 2.16027 11.897 2.26297Z" fill="#E9C34F"/>
<path d="M22.137 6.46997C22.6687 7.42705 23.149 8.41178 23.576 9.41998C24.191 11.4486 24.0738 13.6289 23.245 15.58C22.953 16.292 22.437 16.92 22.137 17.619C22.7114 17.0394 23.1282 16.3228 23.348 15.537C24.226 13.3722 24.2564 10.9561 23.433 8.76997C23.2077 7.90388 22.7611 7.11126 22.137 6.46997Z" fill="#D9A505"/>
<path d="M12.226 6.98706C12.5171 7.7358 12.9112 8.44026 13.397 9.08006C13.7682 9.83003 14.1978 10.5496 14.682 11.2321C14.753 10.8671 14.414 10.4741 14.232 10.1711C13.779 9.42006 13.363 8.64906 12.911 7.89706C12.739 7.60906 12.566 7.09206 12.226 6.98706Z" fill="#BF8F01"/>
<path d="M12.26 6.90503L10.86 9.78603L10.284 11.049L10.196 10.949C9.92797 11.119 9.45997 10.837 9.18797 10.749C8.37752 10.3872 7.5233 10.1327 6.64697 9.99203V10.135C6.98697 10.357 7.14697 11.106 7.31497 11.499L8.71497 14.733C8.85997 15.068 9.03297 15.778 9.30197 15.995C9.46597 16.127 9.82697 16.047 10.019 16.047C10.635 16.047 11.244 15.996 11.859 15.996C12.703 15.996 13.553 16.047 14.4 16.047C14.7291 16.1024 15.0658 16.0922 15.391 16.017C15.701 15.849 15.948 14.879 16.098 14.531C16.535 13.523 16.943 12.5 17.391 11.499C17.6714 11.006 17.8885 10.4795 18.037 9.93203C17.882 9.95503 17.622 9.98604 17.599 10.185C17.1566 10.1742 16.7189 10.2776 16.328 10.485C15.678 10.714 15.012 10.885 14.356 11.093C14.1615 10.5613 13.9135 10.0507 13.616 9.56903C13.2596 8.63549 12.8051 7.74247 12.26 6.90503Z" fill="#D7A301"/>
<path d="M5.97498 9.82605C6.16698 10.126 6.79698 10.19 7.12998 10.285C8.15928 10.6205 9.20955 10.8877 10.274 11.0851C10.074 10.8271 9.45898 10.761 9.14798 10.674C8.12374 10.2785 7.05996 9.99425 5.97498 9.82605Z" fill="#BF8F01"/>
<path d="M18.893 9.78503C18.173 11.278 17.403 12.753 16.654 14.232C16.44 14.655 16.154 15.642 15.754 15.898C15.354 16.154 14.254 15.95 13.778 15.95H8.55798V16.001C10.352 16.001 12.14 16.052 13.932 16.052H15.316C15.484 16.052 15.752 16.101 15.898 16C16.309 15.717 16.59 14.725 16.813 14.283C17.558 12.812 18.413 11.353 19.052 9.83604L18.893 9.78503Z" fill="#BF9101"/>
<path d="M6.14301 10.035C7.01869 12.0702 8.02754 14.0455 9.163 15.948H9.214C9.00973 15.4042 8.75705 14.8797 8.45901 14.381L6.97501 11.45C6.79101 11.084 6.54901 10.172 6.14301 10.035Z" fill="#DFB123"/>
<path d="M10.946 15.774V15.825H12.379L10.946 15.774Z" fill="#E3B735"/>
<path d="M8.89197 15.87V15.921H12.577L11.4 15.87H8.89197Z" fill="#D9AD25"/>
</g>
<defs>
<clipPath id="clip0_1_227">
<rect width="24.259" height="24.025" fill="white" transform="translate(0.5)"/>
</clipPath>
</defs>
</svg>
