<svg width="75" height="53" viewBox="0 0 75 53" fill="none" xmlns="http://www.w3.org/2000/svg">
<g clip-path="url(#clip0_1_218)">
<path d="M0.5 28.3691C0.784 26.9321 0.977042 25.469 1.36804 24.063C2.56981 19.8188 5.02465 16.0362 8.41144 13.21C11.7982 10.3838 15.9592 8.64571 20.35 8.22308C26.0361 7.67665 31.7118 9.36461 36.1751 12.9296C40.6385 16.4946 43.5392 21.6568 44.263 27.3231C44.6313 30.2333 44.414 33.1879 43.6241 36.013C42.8341 38.8381 41.4874 41.4769 39.663 43.7741C37.8385 46.0711 35.5733 47.9802 33.0005 49.3892C30.4276 50.7983 27.599 51.6788 24.681 51.9791C24.5186 52.0074 24.3585 52.0479 24.202 52.1H20.734C20.5779 52.0479 20.4181 52.0075 20.256 51.9791C15.8717 51.5357 11.723 49.7808 8.35132 46.9434C4.97968 44.1061 2.54185 40.3181 1.35602 36.074C0.970018 34.693 0.784042 33.2541 0.506042 31.8431L0.5 28.3691ZM39.23 30.1281C39.2351 25.6777 37.4728 21.4074 34.3306 18.2558C31.1884 15.1042 26.9234 13.3293 22.473 13.3211C18.0351 13.3229 13.7786 15.083 10.6356 18.2161C7.49249 21.3493 5.71887 25.6001 5.703 30.038C5.68785 34.4882 7.43993 38.7623 10.5743 41.9214C13.7086 45.0805 17.9689 46.8662 22.419 46.886C26.8691 46.889 31.1386 45.1262 34.2903 41.9846C37.4421 38.8429 39.2186 34.5782 39.23 30.1281Z" fill="#FF5A00"/>
<path d="M51.365 0.00897313C56.949 0.00897313 62.533 -0.00606887 68.116 0.0159311C68.7819 0.00791202 69.4393 0.165651 70.0292 0.474793C70.619 0.783936 71.1227 1.23478 71.495 1.78693C71.8677 2.33956 72.0971 2.97633 72.1624 3.63971C72.2277 4.30309 72.1269 4.97228 71.869 5.58698C71.5888 6.34019 71.0808 6.98731 70.4157 7.43842C69.7506 7.88952 68.9615 8.12216 68.158 8.10394C66.595 8.14594 65.03 8.11493 63.465 8.11493H34.8C33.7282 8.16521 32.6801 7.78821 31.8859 7.06659C31.0918 6.34497 30.6163 5.33771 30.564 4.26593C30.5343 3.71101 30.6196 3.15595 30.8146 2.63556C31.0095 2.11517 31.3099 1.64077 31.697 1.24201C32.0839 0.843285 32.5491 0.528758 33.0633 0.318299C33.5775 0.107841 34.1296 0.00597107 34.685 0.0189829C40.2457 -0.00101711 45.8057 -0.00436021 51.365 0.00897313Z" fill="#FF5A00"/>
<path d="M36.814 49.781C37.9137 48.8724 38.9595 47.9004 39.946 46.87C41.226 45.377 42.356 43.753 43.511 42.157C43.5932 42.0043 43.7165 41.8777 43.8669 41.7915C44.0172 41.7052 44.1887 41.6628 44.362 41.6689C53.032 41.6809 61.7023 41.6853 70.373 41.682C70.9106 41.6701 71.4452 41.7659 71.9451 41.964C72.4451 42.162 72.9003 42.4582 73.284 42.8349C73.6677 43.2116 73.972 43.6613 74.1792 44.1574C74.3863 44.6536 74.492 45.1863 74.49 45.724C74.4936 46.2621 74.3893 46.7954 74.1831 47.2925C73.977 47.7895 73.6733 48.2402 73.29 48.6179C72.9066 48.9956 72.4514 49.2927 71.9512 49.4914C71.4511 49.6902 70.9161 49.7865 70.378 49.7749C63.0567 49.7902 55.735 49.7926 48.413 49.782L36.814 49.781Z" fill="#FF5A00"/>
<path d="M45.162 39.3541L46.962 31.2649H70.384C71.2216 31.2448 72.0442 31.4889 72.7353 31.9626C73.4264 32.4363 73.9507 33.1155 74.234 33.904C74.5219 34.6644 74.5721 35.4944 74.378 36.284C74.1839 37.0736 73.7547 37.7857 73.147 38.326C72.4325 38.9902 71.4926 39.3587 70.517 39.357C62.0897 39.365 53.6624 39.3667 45.235 39.362C45.163 39.364 45.093 39.3341 45.162 39.3541Z" fill="#FF5A00"/>
<path d="M45.165 20.8449H70.329C71.0005 20.8237 71.6666 20.9705 72.2671 21.2717C72.8676 21.5729 73.3835 22.0191 73.768 22.57C74.1526 23.1209 74.3937 23.7589 74.4695 24.4264C74.5453 25.094 74.4533 25.7699 74.202 26.393C73.8991 27.1606 73.3677 27.8166 72.6796 28.2721C71.9915 28.7277 71.18 28.9609 70.355 28.94C66.479 28.951 62.602 28.94 58.726 28.94H46.959L45.165 20.8449Z" fill="#FF5A00"/>
<path d="M36.809 10.4219H61.109C61.7383 10.4053 62.3627 10.5363 62.9322 10.8046C63.5016 11.073 64.0003 11.471 64.388 11.9669C64.7759 12.4628 65.042 13.0427 65.1652 13.6601C65.2883 14.2775 65.265 14.9152 65.097 15.5219C64.881 16.3691 64.3915 17.1214 63.7045 17.6622C63.0175 18.2029 62.1713 18.5019 61.297 18.5129C55.6184 18.5369 49.9397 18.5369 44.261 18.5129C44.1393 18.5082 44.0201 18.477 43.9117 18.4216C43.8032 18.3661 43.7081 18.2878 43.633 18.192C41.9521 15.2574 39.6895 12.6971 36.984 10.6679C36.9167 10.5925 36.8586 10.5101 36.809 10.4219Z" fill="#FF5A00"/>
<path d="M22.445 15.631C24.3476 15.6296 26.2318 16.0035 27.9896 16.7314C29.7474 17.4594 31.3444 18.5269 32.689 19.8729C34.0336 21.2189 35.0993 22.8171 35.8254 24.5756C36.5514 26.3341 36.9234 28.2185 36.92 30.121C36.9145 33.949 35.3925 37.6189 32.6873 40.3273C29.9821 43.0357 26.314 44.562 22.486 44.572C20.5843 44.5732 18.7011 44.1992 16.9441 43.4714C15.1871 42.7437 13.591 41.6765 12.247 40.3309C10.9031 38.9854 9.83785 37.3881 9.11217 35.6303C8.3865 33.8724 8.01468 31.9888 8.01803 30.087C8.01802 26.2581 9.53709 22.5854 12.2418 19.8752C14.9466 17.1651 18.6161 15.6387 22.445 15.631ZM23.645 38.031C24.5519 37.517 25.4119 36.9244 26.215 36.26C26.8428 35.6835 27.2892 34.9368 27.4999 34.111C27.7107 33.2851 27.6767 32.4158 27.402 31.609C26.888 29.951 25.502 29.4209 23.956 29.1749C22.84 28.9979 21.713 28.875 20.61 28.646C19.81 28.478 19.598 28.081 19.65 27.276C19.6789 26.8783 19.794 26.4916 19.9874 26.1429C20.1809 25.7943 20.4479 25.492 20.77 25.257C21.0921 25.0221 21.4615 24.8602 21.8524 24.7825C22.2434 24.7048 22.6466 24.7131 23.034 24.807C23.5404 24.9273 24.0058 25.1793 24.3832 25.5376C24.7607 25.8959 25.0366 26.3476 25.183 26.8469C25.493 27.6469 26.01 27.947 26.664 27.747C26.8263 27.6974 26.9757 27.6131 27.102 27.4998C27.2282 27.3865 27.3283 27.2469 27.395 27.0909C27.4617 26.9349 27.4935 26.7662 27.4881 26.5966C27.4828 26.4269 27.4404 26.2606 27.364 26.109C27.1051 25.2453 26.628 24.4628 25.9787 23.8372C25.3294 23.2115 24.5298 22.7637 23.657 22.537C23.531 20.698 23.331 20.248 22.532 20.272C20.951 20.32 21.41 21.6299 21.282 22.5029C20.371 22.7114 19.5347 23.1662 18.8646 23.8176C18.1944 24.4691 17.7162 25.2922 17.482 26.197C17.3009 26.6937 17.2313 27.2242 17.2783 27.7509C17.3253 28.2775 17.4877 28.7873 17.7541 29.244C18.0204 29.7009 18.384 30.0934 18.8192 30.3938C19.2544 30.6942 19.7504 30.895 20.272 30.9819C20.505 31.0409 20.741 31.0874 20.979 31.121C22.026 31.273 23.079 31.375 24.12 31.578C25.161 31.781 25.443 32.278 25.249 33.299C25.1706 33.8412 24.924 34.3451 24.544 34.7397C24.1641 35.1344 23.6699 35.4 23.131 35.499C22.6141 35.6386 22.0666 35.615 21.5635 35.4318C21.0604 35.2485 20.6261 34.9144 20.32 34.475C20.0774 34.1172 19.8761 33.7331 19.72 33.33C19.674 33.1729 19.5954 33.0273 19.4892 32.9027C19.3831 32.7781 19.2518 32.6773 19.104 32.6069C18.9564 32.5366 18.7955 32.4982 18.632 32.4943C18.4685 32.4903 18.3059 32.5209 18.155 32.584C18.01 32.6454 17.8789 32.7356 17.7696 32.849C17.6603 32.9624 17.5751 33.0968 17.519 33.244C17.4629 33.3912 17.4372 33.5483 17.4434 33.7057C17.4496 33.8631 17.4876 34.0177 17.555 34.16C17.6077 34.3204 17.6684 34.4778 17.737 34.632C18.0439 35.3895 18.5216 36.0659 19.1328 36.6085C19.7441 37.1511 20.4724 37.5452 21.261 37.76C21.392 39.502 21.614 39.907 22.419 39.924C23.261 39.946 23.511 39.5239 23.647 38.0239L23.645 38.031Z" fill="#FF5A00"/>
</g>
<defs>
<clipPath id="clip0_1_218">
<rect width="73.995" height="52.1" fill="white" transform="translate(0.5)"/>
</clipPath>
</defs>
</svg>
