<svg xmlns="http://www.w3.org/2000/svg" width="73.995" height="52.1" viewBox="0 0 73.995 52.1">
  <g id="coinhistory" transform="translate(530.783 -1181.868)">
    <path id="Path_13049" data-name="Path 13049" d="M-530.783,1335.88c.284-1.437.477-2.9.868-4.306a21.91,21.91,0,0,1,18.982-15.84,21.987,21.987,0,0,1,23.913,19.1,22.01,22.01,0,0,1-4.6,16.451,22.01,22.01,0,0,1-14.982,8.205,3.32,3.32,0,0,0-.479.121h-3.468a3.321,3.321,0,0,0-.478-.121,21.913,21.913,0,0,1-18.9-15.905c-.386-1.381-.572-2.82-.85-4.231Zm38.73,1.759a16.788,16.788,0,0,0-16.757-16.807,16.777,16.777,0,0,0-16.77,16.717,16.791,16.791,0,0,0,16.716,16.848,16.8,16.8,0,0,0,16.811-16.757Z" transform="translate(0 -125.643)" fill="#3a8bc3"/>
    <path id="Path_13051" data-name="Path 13051" d="M-354.472,1273.64c5.584,0,11.168-.015,16.751.007a4.017,4.017,0,0,1,3.379,1.771,4.017,4.017,0,0,1,.374,3.8,3.866,3.866,0,0,1-3.711,2.517c-1.563.042-3.128.011-4.693.011h-28.665a4.051,4.051,0,0,1-4.236-3.849,4.032,4.032,0,0,1,1.133-3.024,4.032,4.032,0,0,1,2.988-1.223Q-362.811,1273.62-354.472,1273.64Z" transform="translate(-125.446 -91.763)" fill="#3a8bc3"/>
    <path id="Path_13052" data-name="Path 13052" d="M-342.929,1497.3a36.69,36.69,0,0,0,3.132-2.911c1.28-1.493,2.41-3.117,3.565-4.713a.929.929,0,0,1,.851-.488q13.005.018,26.011.013a4.028,4.028,0,0,1,2.911,1.153,4.028,4.028,0,0,1,1.206,2.889,4.025,4.025,0,0,1-1.2,2.894,4.025,4.025,0,0,1-2.912,1.157q-10.982.023-21.965.007Z" transform="translate(-151.54 -265.651)" fill="#3a8bc3"/>
    <path id="Path_13053" data-name="Path 13053" d="M-299.861,1443.43l1.8-8.089h23.422a3.989,3.989,0,0,1,3.85,2.639,4.015,4.015,0,0,1-1.087,4.422,3.853,3.853,0,0,1-2.63,1.031q-12.641.012-25.282.005C-299.86,1443.44-299.93,1443.41-299.861,1443.43Z" transform="translate(-186.26 -222.208)" fill="#3a8bc3"/>
    <path id="Path_13054" data-name="Path 13054" d="M-299.728,1381.44h25.164a4.039,4.039,0,0,1,3.439,1.725,4.039,4.039,0,0,1,.434,3.823,4.026,4.026,0,0,1-3.847,2.547c-3.876.011-7.753,0-11.629,0h-11.767Z" transform="translate(-186.39 -178.727)" fill="#3a8bc3"/>
    <path id="Path_13055" data-name="Path 13055" d="M-342.954,1327.54h24.3a4.027,4.027,0,0,1,3.279,1.545,4.027,4.027,0,0,1,.709,3.555,3.973,3.973,0,0,1-3.8,2.991q-8.518.036-17.036,0a.839.839,0,0,1-.628-.321,24.837,24.837,0,0,0-6.649-7.524,1.4,1.4,0,0,1-.176-.246Z" transform="translate(-151.52 -135.25)" fill="#3a8bc3"/>
    <path id="Path_13058" data-name="Path 13058" d="M-477.475,1354.5a14.465,14.465,0,0,1,10.244,4.242A14.465,14.465,0,0,1-463,1368.99a14.472,14.472,0,0,1-14.434,14.451,14.459,14.459,0,0,1-10.239-4.241,14.46,14.46,0,0,1-4.229-10.244,14.456,14.456,0,0,1,14.427-14.456Zm1.2,22.4a17.81,17.81,0,0,0,2.57-1.771,4.393,4.393,0,0,0,1.187-4.651c-.514-1.658-1.9-2.188-3.446-2.434-1.116-.177-2.243-.3-3.346-.529-.8-.168-1.012-.565-.96-1.37a2.745,2.745,0,0,1,1.12-2.019,2.745,2.745,0,0,1,2.264-.45,2.95,2.95,0,0,1,2.149,2.04c.31.8.827,1.1,1.481.9a1.166,1.166,0,0,0,.731-.656,1.165,1.165,0,0,0-.031-.982,5.247,5.247,0,0,0-3.707-3.572c-.126-1.839-.326-2.289-1.125-2.265-1.581.048-1.122,1.358-1.25,2.231a5.1,5.1,0,0,0-3.8,3.694,3.6,3.6,0,0,0,.272,3.047,3.6,3.6,0,0,0,2.518,1.738,6.692,6.692,0,0,0,.707.139c1.047.152,2.1.254,3.141.457s1.323.7,1.129,1.721a2.618,2.618,0,0,1-2.118,2.2,2.6,2.6,0,0,1-2.811-1.024,5.72,5.72,0,0,1-.6-1.145,1.163,1.163,0,0,0-.616-.723,1.163,1.163,0,0,0-.949-.023,1.168,1.168,0,0,0-.636.66,1.168,1.168,0,0,0,.036.916,4.984,4.984,0,0,0,.182.472,5.307,5.307,0,0,0,3.524,3.128c.131,1.742.353,2.147,1.158,2.164.842.022,1.092-.4,1.228-1.9Z" transform="translate(-31.363 -157.001)" fill="#3a8bc3"/>
  </g>
</svg>
