<svg width="60" height="71" viewBox="0 0 60 71" fill="none" xmlns="http://www.w3.org/2000/svg">
<g clip-path="url(#clip0_1_242)">
<path d="M53.649 0H6.4V5.905H53.649V0ZM6.4 70.865H53.649V64.965H6.4V70.865ZM53.649 11.811H6.4C4.83709 11.8171 3.33992 12.4406 2.23476 13.5458C1.12961 14.6509 0.506057 16.1481 0.5 17.711V53.149C0.506065 54.7128 1.1303 56.2107 2.23654 57.316C3.34277 58.4213 4.84122 59.0443 6.405 59.049H53.649C55.2128 59.0429 56.7107 58.4187 57.816 57.3125C58.9213 56.2062 59.5443 54.7078 59.549 53.144V17.716C59.5429 16.1522 58.9187 14.6543 57.8125 13.549C56.7062 12.4437 55.2078 11.8207 53.644 11.816L53.649 11.811ZM30.027 19.931C31.3411 19.931 32.6256 20.3207 33.7182 21.0507C34.8108 21.7808 35.6624 22.8184 36.1653 24.0325C36.6681 25.2465 36.7997 26.5824 36.5433 27.8712C36.287 29.16 35.6542 30.3438 34.725 31.273C33.7958 32.2022 32.612 32.835 31.3232 33.0913C30.0344 33.3477 28.6985 33.2161 27.4845 32.7133C26.2704 32.2104 25.2328 31.3588 24.5027 30.2662C23.7727 29.1736 23.383 27.8891 23.383 26.575C23.383 24.8129 24.083 23.123 25.329 21.877C26.575 20.631 28.2649 19.931 30.027 19.931ZM44.791 50.2H15.264V45.767C15.264 40.836 25.097 38.385 30.028 38.385C34.959 38.385 44.792 40.836 44.792 45.767L44.791 50.2Z" fill="#FF5A00"/>
</g>
<defs>
<clipPath id="clip0_1_242">
<rect width="59.054" height="70.865" fill="white" transform="translate(0.5)"/>
</clipPath>
</defs>
</svg>
