<svg xmlns="http://www.w3.org/2000/svg" width="59.054" height="70.865" viewBox="0 0 59.054 70.865">
  <g id="contactus_icon" transform="translate(-2346 -1973)">
    <path id="contactus_icon-2" data-name="contactus_icon" d="M56.149,0H8.9V5.905H56.149ZM8.9,70.865H56.149v-5.9H8.9ZM56.149,11.811H8.9a5.923,5.923,0,0,0-5.9,5.9V53.149a5.923,5.923,0,0,0,5.905,5.9H56.149a5.923,5.923,0,0,0,5.9-5.905V17.716a5.923,5.923,0,0,0-5.905-5.9Zm-23.622,8.12a6.644,6.644,0,1,1-6.644,6.644A6.644,6.644,0,0,1,32.527,19.931ZM47.291,50.2H17.764V45.767c0-4.931,9.833-7.382,14.764-7.382s14.764,2.451,14.764,7.382Z" transform="translate(2343 1973)" fill="#3a8bc3"/>
  </g>
</svg>
