<svg width="20" height="19" viewBox="0 0 20 19" fill="none" xmlns="http://www.w3.org/2000/svg">
<g clip-path="url(#clip0_1_245)">
<path d="M19.492 9.49796C19.492 10.669 19.467 11.84 19.498 13.011C19.5169 13.6353 19.3993 14.2562 19.1533 14.8303C18.9074 15.4045 18.539 15.918 18.074 16.335C17.0848 17.2495 15.8949 17.9194 14.6 18.291C12.4639 18.9661 10.2051 19.1607 7.985 18.861C6.48001 18.694 5.01754 18.2567 3.668 17.57C2.61116 17.0622 1.71442 16.2734 1.076 15.29C0.701075 14.6901 0.501547 13.9973 0.5 13.29L0.5 5.72496C0.51321 5.10312 0.663453 4.49186 0.940019 3.93475C1.21658 3.37764 1.61266 2.88842 2.1 2.50196C3.10995 1.63426 4.29938 1.00079 5.583 0.646956C7.55889 0.0565032 9.63329 -0.130872 11.683 0.0959556C13.2594 0.237531 14.7961 0.66875 16.216 1.36796C17.2221 1.83774 18.0931 2.55428 18.748 3.45096C19.2409 4.13722 19.5016 4.96307 19.492 5.80796C19.479 7.04196 19.492 8.27096 19.492 9.50796V9.49796ZM9.115 10.562C9.045 10.48 9.001 10.41 8.944 10.353L7.007 8.41596C6.9058 8.302 6.77891 8.2138 6.63683 8.15868C6.49475 8.10355 6.34157 8.08307 6.19 8.09896C6.01059 8.11243 5.83933 8.17937 5.69833 8.29113C5.55733 8.40289 5.45307 8.55435 5.399 8.72596C5.33177 8.90128 5.31998 9.09301 5.36523 9.27525C5.41047 9.45749 5.51057 9.62144 5.652 9.74496C6.564 10.657 7.475 11.575 8.393 12.486C8.48293 12.5985 8.59704 12.6894 8.72687 12.7518C8.85671 12.8143 8.99893 12.8467 9.143 12.8467C9.28707 12.8467 9.42929 12.8143 9.55912 12.7518C9.68896 12.6894 9.80307 12.5985 9.893 12.486C10.621 11.758 11.351 11.03 12.083 10.302L14.52 7.86496C14.6178 7.77992 14.6972 7.67579 14.7533 7.55896C14.8094 7.44213 14.8411 7.31506 14.8463 7.18555C14.8515 7.05605 14.8302 6.92685 14.7837 6.80587C14.7372 6.6849 14.6664 6.57472 14.5757 6.48209C14.4851 6.38946 14.3765 6.31633 14.2565 6.26721C14.1366 6.21808 14.0079 6.19399 13.8783 6.19641C13.7487 6.19883 13.621 6.22772 13.503 6.28129C13.3849 6.33487 13.2791 6.412 13.192 6.50796L9.336 10.366C9.279 10.423 9.222 10.48 9.127 10.566L9.115 10.562Z" fill="#45536D"/>
</g>
<defs>
<clipPath id="clip0_1_245">
<rect width="19" height="19" fill="white" transform="translate(0.5)"/>
</clipPath>
</defs>
</svg>
