<svg width="66" height="61" viewBox="0 0 66 61" fill="none" xmlns="http://www.w3.org/2000/svg">
<g clip-path="url(#clip0_1_248)">
<path d="M32.785 60.9769C50.567 60.9769 65.071 59.0079 65.071 56.5939C65.071 54.1799 50.571 52.2109 32.785 52.2109C14.999 52.2109 0.5 54.1799 0.5 56.5939C0.5 59.0079 15 60.9769 32.785 60.9769Z" fill="#45536D"/>
<path d="M21.358 45.2371C12.145 45.2371 4.67499 46.8511 4.67499 48.8371V53.9621C4.67499 55.9521 12.144 57.5621 21.358 57.5621C30.572 57.5621 38.041 55.9481 38.041 53.9621V48.8371C38.041 46.8461 30.572 45.2371 21.358 45.2371Z" fill="#FFD112"/>
<path d="M4.73699 48.53C4.69688 48.6288 4.67584 48.7343 4.67499 48.841V53.966C4.69391 54.1566 4.75574 54.3404 4.85584 54.5037C4.95595 54.6671 5.09172 54.8056 5.25299 54.909V50.542C6.92962 51.2487 8.71459 51.6639 10.531 51.77L6.11799 48.179L4.73699 48.53Z" fill="white"/>
<path d="M21.359 45.505C19.202 45.505 17.038 45.591 14.89 45.787C13.1191 45.9361 11.3589 46.1922 9.61899 46.554C8.94199 46.7 8.26599 46.87 7.60699 47.081C7.09171 47.2405 6.59009 47.4411 6.10699 47.681C5.66407 47.8734 5.28326 48.185 5.00699 48.581L5.11599 48.568L10.46 50.291L11.254 51.902C13.0449 52.3949 14.8657 52.7724 16.705 53.032C17.912 53.701 18.225 56.21 16.158 56.421C13.0218 56.5998 9.87727 56.2767 6.84299 55.464C7.09499 55.564 7.34999 55.651 7.60399 55.732C8.26299 55.943 8.93999 56.113 9.61599 56.259C11.3559 56.621 13.1161 56.8774 14.887 57.027C17.035 57.227 19.199 57.309 21.356 57.309C23.513 57.309 25.677 57.223 27.825 57.027C29.5959 56.8774 31.3561 56.621 33.096 56.259C33.7747 56.1163 34.4453 55.9407 35.108 55.732C35.6235 55.5731 36.1251 55.3725 36.608 55.132C36.997 54.932 37.773 54.484 37.773 53.967V48.842C37.773 48.326 36.997 47.876 36.608 47.677C36.1249 47.4371 35.6233 47.2364 35.108 47.077C34.446 46.869 33.7753 46.6933 33.096 46.55C31.3561 46.1882 29.5959 45.9321 27.825 45.783C25.6743 45.589 23.518 45.495 21.356 45.501" fill="#F2A500"/>
<path d="M21.358 45.422C17.4132 45.3754 13.4739 45.7279 9.60001 46.474C6.67101 47.107 4.86001 47.946 4.86001 48.842V53.967C4.86001 54.867 6.67201 55.703 9.60001 56.335C17.3757 57.737 25.3394 57.737 33.115 56.335C36.044 55.702 37.855 54.863 37.855 53.967V48.842C37.855 47.942 36.043 47.106 33.115 46.474C29.2412 45.7279 25.3028 45.3755 21.358 45.422ZM9.52101 46.113C17.348 44.6991 25.365 44.6991 33.192 46.113C36.301 46.785 38.224 47.747 38.224 48.842V53.967C38.224 55.061 36.301 56.024 33.192 56.696C25.365 58.1093 17.3481 58.1093 9.52101 56.696C6.41201 56.024 4.48901 55.061 4.48901 53.967V48.842C4.48901 47.742 6.41201 46.785 9.52101 46.113Z" fill="#B33D2F"/>
<path d="M21.358 52.446C30.547 52.446 38.041 50.827 38.041 48.846C38.041 46.865 30.547 45.246 21.358 45.246C12.169 45.246 4.67499 46.865 4.67499 48.846C4.67499 50.827 12.169 52.446 21.358 52.446Z" fill="#FFD112"/>
<path d="M8.45199 46.557C6.09199 47.179 4.67499 47.974 4.67499 48.841C4.67629 48.9731 4.70775 49.103 4.76699 49.221L4.97599 49.233C4.85099 48.465 5.62999 47.762 7.63999 47.314C7.91099 47.048 8.18099 46.805 8.45199 46.557Z" fill="white"/>
<path d="M5.451 49.6C5.65793 49.7528 5.87814 49.8867 6.109 50C6.59202 50.2401 7.09365 50.4408 7.609 50.6C8.269 50.811 8.945 50.981 9.621 51.127C11.3608 51.4895 13.1211 51.7459 14.892 51.895C17.04 52.095 19.204 52.177 21.361 52.177C23.518 52.177 25.682 52.091 27.83 51.895C29.5994 51.7438 31.3579 51.4853 33.096 51.121C33.7747 50.9784 34.4453 50.8027 35.108 50.594C35.6233 50.4348 36.125 50.2341 36.608 49.994C36.997 49.794 37.773 49.345 37.773 48.83C37.773 48.315 36.997 47.864 36.608 47.665C36.125 47.4248 35.6234 47.2242 35.108 47.065C34.446 46.857 33.7753 46.6814 33.096 46.538C31.7435 46.2525 30.3774 46.0359 29.003 45.889C29.326 45.983 29.646 46.089 29.962 46.201C30.4172 46.3618 30.8573 46.5626 31.277 46.801C31.619 47.001 32.3 47.449 32.3 47.966C32.3 48.483 31.619 48.932 31.277 49.131C30.8572 49.3694 30.4172 49.5702 29.962 49.731C29.3828 49.9379 28.793 50.1135 28.195 50.257C26.6717 50.6184 25.1254 50.875 23.567 51.025C19.7893 51.401 15.9837 51.401 12.206 51.025C10.6476 50.875 9.10132 50.6184 7.578 50.257C6.98001 50.1135 6.39016 49.9379 5.811 49.731C5.69 49.687 5.569 49.641 5.448 49.592" fill="#F2A500"/>
<path d="M21.358 45.422C17.4132 45.3754 13.4739 45.7279 9.60001 46.474C6.67101 47.107 4.86001 47.946 4.86001 48.842C4.86001 49.738 6.67201 50.578 9.60001 51.21C17.3757 52.6116 25.3393 52.6116 33.115 51.21C36.044 50.577 37.855 49.738 37.855 48.842C37.855 47.946 36.043 47.106 33.115 46.474C29.2412 45.7279 25.3028 45.3755 21.358 45.422ZM9.52101 46.113C17.348 44.6991 25.365 44.6991 33.192 46.113C36.301 46.785 38.224 47.747 38.224 48.842C38.224 49.937 36.3 50.9 33.192 51.571C25.365 52.9845 17.348 52.9845 9.52101 51.571C6.41201 50.899 4.48901 49.936 4.48901 48.842C4.48901 47.748 6.41201 46.785 9.52101 46.113ZM21.173 53.475C21.173 53.426 21.1925 53.3789 21.2272 53.3442C21.2619 53.3095 21.3089 53.29 21.358 53.29C21.4071 53.29 21.4541 53.3095 21.4888 53.3442C21.5235 53.3789 21.543 53.426 21.543 53.475V56.542C21.543 56.5911 21.5235 56.6382 21.4888 56.6728C21.4541 56.7075 21.4071 56.727 21.358 56.727C21.3089 56.727 21.2619 56.7075 21.2272 56.6728C21.1925 56.6382 21.173 56.5911 21.173 56.542V53.475ZM6.63901 51.49C6.63901 51.441 6.6585 51.3939 6.6932 51.3592C6.72789 51.3245 6.77495 51.305 6.82401 51.305C6.87308 51.305 6.92013 51.3245 6.95483 51.3592C6.98952 51.3939 7.00901 51.441 7.00901 51.49V54.626C7.00901 54.6751 6.98952 54.7222 6.95483 54.7568C6.92013 54.7915 6.87308 54.811 6.82401 54.811C6.77495 54.811 6.72789 54.7915 6.6932 54.7568C6.6585 54.7222 6.63901 54.6751 6.63901 54.626V51.49ZM9.54601 52.337C9.54601 52.3127 9.5508 52.2887 9.5601 52.2662C9.56939 52.2438 9.58302 52.2234 9.6002 52.2062C9.61738 52.189 9.63777 52.1754 9.66022 52.1661C9.68266 52.1568 9.70672 52.152 9.73101 52.152C9.75531 52.152 9.77937 52.1568 9.80181 52.1661C9.82426 52.1754 9.84465 52.189 9.86183 52.2062C9.87901 52.2234 9.89263 52.2438 9.90193 52.2662C9.91123 52.2887 9.91601 52.3127 9.91601 52.337V55.5C9.91601 55.5243 9.91123 55.5484 9.90193 55.5708C9.89263 55.5933 9.87901 55.6137 9.86183 55.6308C9.84465 55.648 9.82426 55.6617 9.80181 55.671C9.77937 55.6802 9.75531 55.685 9.73101 55.685C9.70672 55.685 9.68266 55.6802 9.66022 55.671C9.63777 55.6617 9.61738 55.648 9.6002 55.6308C9.58302 55.6137 9.56939 55.5933 9.5601 55.5708C9.5508 55.5484 9.54601 55.5243 9.54601 55.5V52.337ZM12.453 52.876C12.453 52.827 12.4725 52.7799 12.5072 52.7452C12.5419 52.7105 12.5889 52.691 12.638 52.691C12.6871 52.691 12.7341 52.7105 12.7688 52.7452C12.8035 52.7799 12.823 52.827 12.823 52.876V56.008C12.823 56.0571 12.8035 56.1042 12.7688 56.1388C12.7341 56.1735 12.6871 56.193 12.638 56.193C12.5889 56.193 12.5419 56.1735 12.5072 56.1388C12.4725 56.1042 12.453 56.0571 12.453 56.008V52.876ZM15.359 53.22C15.359 53.171 15.3785 53.1239 15.4132 53.0892C15.4479 53.0545 15.4949 53.035 15.544 53.035C15.5931 53.035 15.6401 53.0545 15.6748 53.0892C15.7095 53.1239 15.729 53.171 15.729 53.22V56.32C15.729 56.3691 15.7095 56.4162 15.6748 56.4508C15.6401 56.4855 15.5931 56.505 15.544 56.505C15.4949 56.505 15.4479 56.4855 15.4132 56.4508C15.3785 56.4162 15.359 56.3691 15.359 56.32V53.22ZM18.266 53.413C18.266 53.364 18.2855 53.3169 18.3202 53.2822C18.3549 53.2475 18.4019 53.228 18.451 53.228C18.5001 53.228 18.5471 53.2475 18.5818 53.2822C18.6165 53.3169 18.636 53.364 18.636 53.413V56.491C18.636 56.5401 18.6165 56.5872 18.5818 56.6218C18.5471 56.6565 18.5001 56.676 18.451 56.676C18.4019 56.676 18.3549 56.6565 18.3202 56.6218C18.2855 56.5872 18.266 56.5401 18.266 56.491V53.413ZM35.707 51.49C35.707 51.4657 35.7118 51.4417 35.7211 51.4192C35.7304 51.3968 35.744 51.3764 35.7612 51.3592C35.7784 51.342 35.7988 51.3284 35.8212 51.3191C35.8437 51.3098 35.8677 51.305 35.892 51.305C35.9163 51.305 35.9404 51.3098 35.9628 51.3191C35.9853 51.3284 36.0057 51.342 36.0228 51.3592C36.04 51.3764 36.0536 51.3968 36.0629 51.4192C36.0722 51.4417 36.077 51.4657 36.077 51.49V54.626C36.077 54.6751 36.0575 54.7222 36.0228 54.7568C35.9881 54.7915 35.9411 54.811 35.892 54.811C35.8429 54.811 35.7959 54.7915 35.7612 54.7568C35.7265 54.7222 35.707 54.6751 35.707 54.626V51.49ZM32.8 52.337C32.8 52.288 32.8195 52.2409 32.8542 52.2062C32.8889 52.1715 32.9359 52.152 32.985 52.152C33.0341 52.152 33.0811 52.1715 33.1158 52.2062C33.1505 52.2409 33.17 52.288 33.17 52.337V55.5C33.17 55.5243 33.1652 55.5484 33.1559 55.5708C33.1466 55.5933 33.133 55.6137 33.1158 55.6308C33.0986 55.648 33.0783 55.6617 33.0558 55.671C33.0334 55.6802 33.0093 55.685 32.985 55.685C32.9607 55.685 32.9367 55.6802 32.9142 55.671C32.8918 55.6617 32.8714 55.648 32.8542 55.6308C32.837 55.6137 32.8234 55.5933 32.8141 55.5708C32.8048 55.5484 32.8 55.5243 32.8 55.5V52.337ZM29.893 52.876C29.893 52.827 29.9125 52.7799 29.9472 52.7452C29.9819 52.7105 30.0289 52.691 30.078 52.691C30.1271 52.691 30.1741 52.7105 30.2088 52.7452C30.2435 52.7799 30.263 52.827 30.263 52.876V56.008C30.263 56.0571 30.2435 56.1042 30.2088 56.1388C30.1741 56.1735 30.1271 56.193 30.078 56.193C30.0289 56.193 29.9819 56.1735 29.9472 56.1388C29.9125 56.1042 29.893 56.0571 29.893 56.008V52.876ZM26.987 53.22C26.987 53.171 27.0065 53.1239 27.0412 53.0892C27.0759 53.0545 27.1229 53.035 27.172 53.035C27.2211 53.035 27.2681 53.0545 27.3028 53.0892C27.3375 53.1239 27.357 53.171 27.357 53.22V56.32C27.357 56.3691 27.3375 56.4162 27.3028 56.4508C27.2681 56.4855 27.2211 56.505 27.172 56.505C27.1229 56.505 27.0759 56.4855 27.0412 56.4508C27.0065 56.4162 26.987 56.3691 26.987 56.32V53.22ZM24.08 53.413C24.08 53.364 24.0995 53.3169 24.1342 53.2822C24.1689 53.2475 24.2159 53.228 24.265 53.228C24.3141 53.228 24.3611 53.2475 24.3958 53.2822C24.4305 53.3169 24.45 53.364 24.45 53.413V56.491C24.45 56.5401 24.4305 56.5872 24.3958 56.6218C24.3611 56.6565 24.3141 56.676 24.265 56.676C24.2159 56.676 24.1689 56.6565 24.1342 56.6218C24.0995 56.5872 24.08 56.5401 24.08 56.491V53.413Z" fill="#B33D2F"/>
<path d="M24.509 39.42C15.295 39.42 7.82599 41.034 7.82599 43.02V48.145C7.82599 50.136 15.295 51.745 24.509 51.745C33.723 51.745 41.192 50.131 41.192 48.145V43.02C41.192 41.029 33.723 39.42 24.509 39.42Z" fill="#FFD112"/>
<path d="M7.82599 46.05V48.1501C7.8551 48.3701 7.93612 48.58 8.06235 48.7626C8.18858 48.9452 8.35641 49.0951 8.55199 49.2001L8.78299 49.1501C8.22899 48.5561 8.11199 48.039 8.01099 46.05H7.82599Z" fill="white"/>
<path d="M24.507 39.6881C22.35 39.6881 20.186 39.7741 18.038 39.9701C16.2671 40.1189 14.5069 40.375 12.767 40.7371C12.09 40.8831 11.414 41.0531 10.755 41.2641C10.2397 41.4234 9.73807 41.6241 9.255 41.8641C8.866 42.0641 8.09 42.5121 8.09 43.0291V45.7001C10.7803 46.4672 13.5625 46.8642 16.36 46.8801C16.36 47.3331 17.027 49.6981 15.118 49.8911C13.0152 50.1845 10.8722 49.9172 8.906 49.1161C9.034 49.1951 9.157 49.2611 9.255 49.3161C9.73793 49.5563 10.2396 49.757 10.755 49.9161C11.414 50.1271 12.091 50.2971 12.767 50.4431C14.5068 50.8054 16.2671 51.0619 18.038 51.2111C20.186 51.4111 22.35 51.4931 24.507 51.4931C26.664 51.4931 28.828 51.4071 30.976 51.2111C32.7469 51.0618 34.5071 50.8054 36.247 50.4431C36.9257 50.2997 37.5963 50.1241 38.259 49.9161C38.7744 49.757 39.2761 49.5564 39.759 49.3161C40.148 49.1161 40.924 48.6681 40.924 48.1521V43.0271C40.924 42.5111 40.148 42.0611 39.759 41.8621C39.2759 41.6221 38.7743 41.4214 38.259 41.2621C37.597 41.0541 36.9263 40.8784 36.247 40.7351C34.5071 40.3731 32.7469 40.117 30.976 39.9681C28.8253 39.7741 26.669 39.6801 24.507 39.6861" fill="#F2A500"/>
<path d="M24.509 39.606C20.5642 39.5593 16.6249 39.9118 12.751 40.658C9.82202 41.291 8.01101 42.13 8.01101 43.026V48.152C8.01101 49.052 9.82302 49.887 12.751 50.52C20.5267 51.9217 28.4903 51.9217 36.266 50.52C39.195 49.887 41.007 49.047 41.007 48.152V43.027C41.007 42.127 39.195 41.292 36.266 40.659C32.3922 39.9128 28.4528 39.5603 24.508 39.607M12.672 40.297C20.499 38.8836 28.516 38.8836 36.343 40.297C39.452 40.969 41.375 41.932 41.375 43.026V48.152C41.375 49.252 39.452 50.209 36.343 50.881C28.516 52.2951 20.499 52.2951 12.672 50.881C9.56301 50.209 7.64001 49.247 7.64001 48.152V43.027C7.64001 41.933 9.56301 40.968 12.672 40.297Z" fill="#B33D2F"/>
<path d="M24.509 46.629C33.697 46.629 41.192 45.01 41.192 43.029C41.192 41.048 33.698 39.429 24.509 39.429C15.32 39.429 7.82599 41.048 7.82599 43.029C7.82599 45.01 15.32 46.629 24.509 46.629Z" fill="#F2A500"/>
<path d="M24.509 39.606C20.5642 39.5593 16.6249 39.9118 12.751 40.658C9.82202 41.291 8.01101 42.13 8.01101 43.026C8.01101 43.922 9.82302 44.762 12.751 45.394C20.5267 46.7959 28.4904 46.7959 36.266 45.394C39.195 44.761 41.007 43.922 41.007 43.026C41.007 42.13 39.195 41.291 36.266 40.658C32.3922 39.9118 28.4528 39.5593 24.508 39.606M12.672 40.296C20.499 38.8826 28.516 38.8826 36.343 40.296C39.452 40.968 41.375 41.931 41.375 43.025C41.375 44.119 39.452 45.082 36.343 45.754C28.516 47.1678 20.499 47.1678 12.672 45.754C9.56301 45.082 7.64001 44.12 7.64001 43.025C7.64001 41.93 9.56301 40.967 12.672 40.296ZM24.324 47.658C24.324 47.609 24.3435 47.5619 24.3782 47.5272C24.4129 47.4925 24.46 47.473 24.509 47.473C24.5581 47.473 24.6051 47.4925 24.6398 47.5272C24.6745 47.5619 24.694 47.609 24.694 47.658V50.725C24.694 50.7741 24.6745 50.8212 24.6398 50.8559C24.6051 50.8906 24.5581 50.91 24.509 50.91C24.46 50.91 24.4129 50.8906 24.3782 50.8559C24.3435 50.8212 24.324 50.7741 24.324 50.725V47.658ZM9.79001 45.673C9.79001 45.6487 9.7948 45.6247 9.8041 45.6022C9.81339 45.5798 9.82702 45.5594 9.8442 45.5422C9.86138 45.525 9.88177 45.5114 9.90422 45.5021C9.92666 45.4928 9.95072 45.488 9.97502 45.488C9.99931 45.488 10.0234 45.4928 10.0458 45.5021C10.0683 45.5114 10.0887 45.525 10.1058 45.5422C10.123 45.5594 10.1366 45.5798 10.1459 45.6022C10.1552 45.6247 10.16 45.6487 10.16 45.673V48.809C10.16 48.8333 10.1552 48.8574 10.1459 48.8798C10.1366 48.9023 10.123 48.9227 10.1058 48.9399C10.0887 48.957 10.0683 48.9707 10.0458 48.98C10.0234 48.9893 9.99931 48.994 9.97502 48.994C9.95072 48.994 9.92666 48.9893 9.90422 48.98C9.88177 48.9707 9.86138 48.957 9.8442 48.9399C9.82702 48.9227 9.81339 48.9023 9.8041 48.8798C9.7948 48.8574 9.79001 48.8333 9.79001 48.809V45.673ZM12.697 46.52C12.697 46.471 12.7165 46.4239 12.7512 46.3892C12.7859 46.3545 12.8329 46.335 12.882 46.335C12.9311 46.335 12.9781 46.3545 13.0128 46.3892C13.0475 46.4239 13.067 46.471 13.067 46.52V49.684C13.067 49.7083 13.0622 49.7324 13.0529 49.7548C13.0436 49.7773 13.03 49.7977 13.0128 49.8149C12.9957 49.832 12.9753 49.8457 12.9528 49.855C12.9304 49.8643 12.9063 49.869 12.882 49.869C12.8577 49.869 12.8337 49.8643 12.8112 49.855C12.7888 49.8457 12.7684 49.832 12.7512 49.8149C12.734 49.7977 12.7204 49.7773 12.7111 49.7548C12.7018 49.7324 12.697 49.7083 12.697 49.684V46.52ZM15.604 47.058C15.604 47.009 15.6235 46.9619 15.6582 46.9272C15.6929 46.8925 15.7399 46.873 15.789 46.873C15.8381 46.873 15.8851 46.8925 15.9198 46.9272C15.9545 46.9619 15.974 47.009 15.974 47.058V50.19C15.974 50.2391 15.9545 50.2862 15.9198 50.3209C15.8851 50.3556 15.8381 50.375 15.789 50.375C15.7399 50.375 15.6929 50.3556 15.6582 50.3209C15.6235 50.2862 15.604 50.2391 15.604 50.19V47.058ZM18.511 47.402C18.511 47.353 18.5305 47.3059 18.5652 47.2712C18.5999 47.2365 18.6469 47.217 18.696 47.217C18.7451 47.217 18.7921 47.2365 18.8268 47.2712C18.8615 47.3059 18.881 47.353 18.881 47.402V50.502C18.881 50.5511 18.8615 50.5982 18.8268 50.6329C18.7921 50.6676 18.7451 50.687 18.696 50.687C18.6469 50.687 18.5999 50.6676 18.5652 50.6329C18.5305 50.5982 18.511 50.5511 18.511 50.502V47.402ZM21.418 47.596C21.418 47.547 21.4375 47.4999 21.4722 47.4652C21.5069 47.4305 21.554 47.411 21.603 47.411C21.6521 47.411 21.6991 47.4305 21.7338 47.4652C21.7685 47.4999 21.788 47.547 21.788 47.596V50.674C21.788 50.7231 21.7685 50.7702 21.7338 50.8049C21.6991 50.8395 21.6521 50.859 21.603 50.859C21.554 50.859 21.5069 50.8395 21.4722 50.8049C21.4375 50.7702 21.418 50.7231 21.418 50.674V47.596ZM38.858 45.673C38.858 45.624 38.8775 45.5769 38.9122 45.5422C38.9469 45.5075 38.9939 45.488 39.043 45.488C39.0921 45.488 39.1391 45.5075 39.1738 45.5422C39.2085 45.5769 39.228 45.624 39.228 45.673V48.81C39.228 48.8343 39.2232 48.8584 39.2139 48.8808C39.2046 48.9033 39.191 48.9237 39.1738 48.9409C39.1566 48.958 39.1363 48.9717 39.1138 48.981C39.0914 48.9903 39.0673 48.995 39.043 48.995C39.0187 48.995 38.9947 48.9903 38.9722 48.981C38.9498 48.9717 38.9294 48.958 38.9122 48.9409C38.895 48.9237 38.8814 48.9033 38.8721 48.8808C38.8628 48.8584 38.858 48.8343 38.858 48.81V45.673ZM35.951 46.52C35.951 46.471 35.9705 46.4239 36.0052 46.3892C36.0399 46.3545 36.087 46.335 36.136 46.335C36.1851 46.335 36.2321 46.3545 36.2668 46.3892C36.3015 46.4239 36.321 46.471 36.321 46.52V49.684C36.321 49.7331 36.3015 49.7802 36.2668 49.8149C36.2321 49.8496 36.1851 49.869 36.136 49.869C36.087 49.869 36.0399 49.8496 36.0052 49.8149C35.9705 49.7802 35.951 49.7331 35.951 49.684V46.52ZM33.044 47.058C33.044 47.009 33.0635 46.9619 33.0982 46.9272C33.1329 46.8925 33.18 46.873 33.229 46.873C33.2781 46.873 33.3251 46.8925 33.3598 46.9272C33.3945 46.9619 33.414 47.009 33.414 47.058V50.19C33.414 50.2143 33.4092 50.2384 33.3999 50.2608C33.3906 50.2833 33.377 50.3037 33.3598 50.3209C33.3427 50.338 33.3223 50.3517 33.2998 50.361C33.2774 50.3703 33.2533 50.375 33.229 50.375C33.2047 50.375 33.1807 50.3703 33.1582 50.361C33.1358 50.3517 33.1154 50.338 33.0982 50.3209C33.081 50.3037 33.0674 50.2833 33.0581 50.2608C33.0488 50.2384 33.044 50.2143 33.044 50.19V47.058ZM30.137 47.402C30.137 47.353 30.1565 47.3059 30.1912 47.2712C30.2259 47.2365 30.273 47.217 30.322 47.217C30.3711 47.217 30.4181 47.2365 30.4528 47.2712C30.4875 47.3059 30.507 47.353 30.507 47.402V50.502C30.507 50.5511 30.4875 50.5982 30.4528 50.6329C30.4181 50.6676 30.3711 50.687 30.322 50.687C30.273 50.687 30.2259 50.6676 30.1912 50.6329C30.1565 50.5982 30.137 50.5511 30.137 50.502V47.402ZM27.23 47.602C27.23 47.553 27.2495 47.5059 27.2842 47.4712C27.3189 47.4365 27.366 47.417 27.415 47.417C27.4641 47.417 27.5111 47.4365 27.5458 47.4712C27.5805 47.5059 27.6 47.553 27.6 47.602V50.68C27.6 50.7291 27.5805 50.7762 27.5458 50.8109C27.5111 50.8456 27.4641 50.865 27.415 50.865C27.366 50.865 27.3189 50.8456 27.2842 50.8109C27.2495 50.7762 27.23 50.7291 27.23 50.68V47.602Z" fill="#B33D2F"/>
<path d="M17.647 33.467C8.43299 33.467 0.963989 35.081 0.963989 37.067V42.192C0.963989 44.182 8.43299 45.792 17.647 45.792C26.861 45.792 34.33 44.177 34.33 42.192V37.067C34.33 35.076 26.861 33.467 17.647 33.467Z" fill="#FFD112"/>
<path d="M3.266 35.244C1.8 35.78 0.966003 36.4 0.966003 37.072V42.2C0.987746 42.4015 1.05585 42.5951 1.16498 42.7659C1.27411 42.9366 1.4213 43.0797 1.595 43.184V38.984C5.9338 40.4714 10.5215 41.0964 15.1 40.824L3.266 35.244Z" fill="white"/>
<path d="M16.1 39.329H22.865V44.646L14.919 44.055C15.686 43.845 16.163 43.299 16.099 42.123L16.1 39.329Z" fill="#F2A500"/>
<path d="M17.646 33.735C15.489 33.735 13.325 33.821 11.177 34.017C9.40612 34.1664 7.64591 34.4229 5.906 34.785C5.22734 34.9283 4.55667 35.1036 3.894 35.311C3.3787 35.4703 2.87707 35.671 2.394 35.911C2.005 36.111 1.229 36.559 1.229 37.076V37.648C1.53863 37.4995 1.85884 37.3741 2.187 37.273C2.632 37.131 3.087 37.016 3.546 36.917C4.72081 36.6729 5.90932 36.5003 7.105 36.4C8.556 36.267 10.017 36.209 11.473 36.209C12.929 36.209 14.391 36.267 15.842 36.4C17.0377 36.5006 18.2262 36.6736 19.401 36.918C19.858 37.018 20.314 37.132 20.76 37.274C21.1072 37.3799 21.4453 37.5137 21.771 37.674C22.034 37.808 22.558 38.112 22.558 38.46V41.92C22.558 42.268 22.034 42.572 21.771 42.706C21.4453 42.8663 21.1072 43 20.76 43.106C20.315 43.248 19.86 43.363 19.401 43.462C18.2262 43.7062 17.0377 43.8792 15.842 43.98C14.391 44.113 12.93 44.171 11.473 44.171C10.016 44.171 8.555 44.113 7.1 43.98C5.90431 43.8792 4.71581 43.7062 3.541 43.462C3.08234 43.3646 2.62934 43.246 2.182 43.106C2.026 43.058 1.87167 43.0043 1.719 42.945C1.92927 43.1044 2.15391 43.244 2.39 43.362C2.873 43.6021 3.37464 43.8027 3.89 43.962C4.55 44.173 5.225 44.343 5.902 44.489C7.64188 44.8512 9.40211 45.1076 11.173 45.257C13.321 45.457 15.485 45.539 17.642 45.539C19.799 45.539 21.963 45.453 24.111 45.257C25.8819 45.1076 27.6421 44.8512 29.382 44.489C30.0607 44.3463 30.7313 44.1706 31.394 43.962C31.9094 43.8027 32.411 43.6021 32.894 43.362C33.283 43.162 34.059 42.714 34.059 42.198V37.073C34.059 36.557 33.283 36.107 32.894 35.908C32.4109 35.668 31.9093 35.4674 31.394 35.308C30.7313 35.1026 30.0607 34.9273 29.382 34.782C27.6421 34.4199 25.8819 34.1635 24.111 34.014C21.9603 33.82 19.804 33.726 17.642 33.732" fill="#F2A500"/>
<path d="M17.647 33.652C13.7024 33.6042 9.76301 33.9553 5.88902 34.7C2.96002 35.336 1.14802 36.175 1.14802 37.072V42.2C1.14802 43.1 2.96002 43.935 5.88902 44.568C13.6646 45.9703 21.6284 45.9703 29.404 44.568C32.333 43.935 34.144 43.096 34.144 42.2V37.074C34.144 36.174 32.332 35.338 29.404 34.705C25.5301 33.9593 21.5908 33.6071 17.646 33.654M5.81002 34.344C13.6371 32.9307 21.654 32.9307 29.481 34.344C32.59 35.016 34.513 35.979 34.513 37.074V42.2C34.513 43.3 32.59 44.257 29.481 44.929C21.654 46.3427 13.637 46.3427 5.81002 44.929C2.70002 44.256 0.778015 43.294 0.778015 42.2V37.074C0.778015 35.974 2.70102 35.016 5.81002 34.344Z" fill="#B33D2F"/>
<path d="M17.647 40.677C26.836 40.677 34.33 39.058 34.33 37.077C34.33 35.096 26.836 33.4771 17.647 33.4771C8.45799 33.4771 0.963989 35.1 0.963989 37.077C0.963989 39.054 8.45799 40.677 17.647 40.677Z" fill="#FFD112"/>
<path d="M7.25999 34.251C3.42299 34.911 0.959991 35.929 0.959991 37.072C0.962532 37.2274 1.00562 37.3794 1.08499 37.513L1.32199 37.555C1.09999 36.636 2.58099 35.521 5.99999 35.03C6.36799 35.185 6.73499 35.441 7.09999 35.596L7.25999 34.251Z" fill="white"/>
<path d="M1.71601 37.812C1.92905 37.9749 2.15707 38.1172 2.39701 38.237C2.88003 38.4771 3.38166 38.6777 3.89701 38.837C4.55601 39.048 5.23201 39.218 5.90901 39.364C7.64891 39.7258 9.40914 39.982 11.18 40.131C13.328 40.331 15.493 40.413 17.649 40.413C19.805 40.413 21.97 40.327 24.118 40.131C25.8889 39.9819 27.6491 39.7258 29.389 39.364C30.0677 39.2213 30.7383 39.0457 31.401 38.837C31.9163 38.6777 32.418 38.4771 32.901 38.237C33.29 38.037 34.066 37.589 34.066 37.073C34.066 36.557 33.29 36.107 32.901 35.908C32.418 35.668 31.9163 35.4673 31.401 35.308C30.741 35.098 30.065 34.928 29.389 34.782C28.2877 34.548 27.1777 34.362 26.059 34.224C26.376 34.306 26.692 34.396 27.003 34.495C27.4795 34.6412 27.9433 34.8258 28.39 35.047C28.75 35.231 29.468 35.647 29.468 36.125C29.468 36.603 28.75 37.019 28.39 37.203C27.9432 37.4237 27.4794 37.6079 27.003 37.754C26.3908 37.9486 25.769 38.1115 25.14 38.242C23.5295 38.5773 21.9002 38.8147 20.261 38.953C18.272 39.135 16.269 39.214 14.272 39.214C12.275 39.214 10.272 39.135 8.28301 38.953C6.64247 38.8149 5.01181 38.5774 3.40001 38.242C2.83134 38.122 2.26867 37.9777 1.71201 37.809" fill="#F2A500"/>
<path d="M17.647 33.652C13.7024 33.6042 9.76301 33.9553 5.88902 34.7C2.96002 35.336 1.14802 36.175 1.14802 37.072C1.14802 37.969 2.96002 38.808 5.88902 39.44C13.6647 40.8415 21.6283 40.8415 29.404 39.44C32.333 38.807 34.144 37.967 34.144 37.072C34.144 36.177 32.332 35.336 29.4 34.7C25.5261 33.9543 21.5868 33.6022 17.642 33.649M5.80602 34.339C13.6331 32.9257 21.65 32.9257 29.477 34.339C32.586 35.011 34.509 35.974 34.509 37.069C34.509 38.164 32.59 39.129 29.481 39.8C21.654 41.2134 13.637 41.2134 5.81002 39.8C2.70002 39.129 0.778015 38.167 0.778015 37.072C0.778015 35.977 2.70002 35.014 5.81002 34.342M17.462 41.7C17.462 41.6509 17.4815 41.6039 17.5162 41.5692C17.5509 41.5345 17.5979 41.515 17.647 41.515C17.6961 41.515 17.7431 41.5345 17.7778 41.5692C17.8125 41.6039 17.832 41.6509 17.832 41.7V44.767C17.832 44.8161 17.8125 44.8631 17.7778 44.8978C17.7431 44.9325 17.6961 44.952 17.647 44.952C17.5979 44.952 17.5509 44.9325 17.5162 44.8978C17.4815 44.8631 17.462 44.8161 17.462 44.767V41.7ZM2.92802 39.72C2.92802 39.6709 2.94751 39.6239 2.9822 39.5892C3.01689 39.5545 3.06395 39.535 3.11302 39.535C3.16208 39.535 3.20914 39.5545 3.24383 39.5892C3.27852 39.6239 3.29802 39.6709 3.29802 39.72V42.857C3.29802 42.9061 3.27852 42.9531 3.24383 42.9878C3.20914 43.0225 3.16208 43.042 3.11302 43.042C3.06395 43.042 3.01689 43.0225 2.9822 42.9878C2.94751 42.9531 2.92802 42.9061 2.92802 42.857V39.72ZM5.83502 40.567C5.83502 40.5179 5.85451 40.4709 5.8892 40.4362C5.92389 40.4015 5.97095 40.382 6.02002 40.382C6.06908 40.382 6.11614 40.4015 6.15083 40.4362C6.18552 40.4709 6.20502 40.5179 6.20502 40.567V43.73C6.20502 43.7791 6.18552 43.8261 6.15083 43.8608C6.11614 43.8955 6.06908 43.915 6.02002 43.915C5.97095 43.915 5.92389 43.8955 5.8892 43.8608C5.85451 43.8261 5.83502 43.7791 5.83502 43.73V40.567ZM8.74201 41.105C8.74201 41.0807 8.7468 41.0566 8.7561 41.0342C8.76539 41.0117 8.77902 40.9914 8.7962 40.9742C8.81338 40.957 8.83377 40.9434 8.85622 40.9341C8.87866 40.9248 8.90272 40.92 8.92702 40.92C8.95131 40.92 8.97537 40.9248 8.99781 40.9341C9.02026 40.9434 9.04065 40.957 9.05783 40.9742C9.07501 40.9914 9.08864 41.0117 9.09793 41.0342C9.10723 41.0566 9.11202 41.0807 9.11202 41.105V44.237C9.11202 44.2613 9.10723 44.2853 9.09793 44.3078C9.08864 44.3302 9.07501 44.3506 9.05783 44.3678C9.04065 44.385 9.02026 44.3986 8.99781 44.4079C8.97537 44.4172 8.95131 44.422 8.92702 44.422C8.90272 44.422 8.87866 44.4172 8.85622 44.4079C8.83377 44.3986 8.81338 44.385 8.7962 44.3678C8.77902 44.3506 8.76539 44.3302 8.7561 44.3078C8.7468 44.2853 8.74201 44.2613 8.74201 44.237V41.105ZM11.649 41.449C11.649 41.4247 11.6538 41.4006 11.6631 41.3782C11.6724 41.3557 11.686 41.3354 11.7032 41.3182C11.7204 41.301 11.7408 41.2874 11.7632 41.2781C11.7857 41.2688 11.8097 41.264 11.834 41.264C11.8583 41.264 11.8824 41.2688 11.9048 41.2781C11.9273 41.2874 11.9477 41.301 11.9648 41.3182C11.982 41.3354 11.9956 41.3557 12.0049 41.3782C12.0142 41.4006 12.019 41.4247 12.019 41.449V44.549C12.019 44.5733 12.0142 44.5973 12.0049 44.6198C11.9956 44.6422 11.982 44.6626 11.9648 44.6798C11.9477 44.697 11.9273 44.7106 11.9048 44.7199C11.8824 44.7292 11.8583 44.734 11.834 44.734C11.8097 44.734 11.7857 44.7292 11.7632 44.7199C11.7408 44.7106 11.7204 44.697 11.7032 44.6798C11.686 44.6626 11.6724 44.6422 11.6631 44.6198C11.6538 44.5973 11.649 44.5733 11.649 44.549V41.449ZM14.556 41.642C14.556 41.5929 14.5755 41.5459 14.6102 41.5112C14.6449 41.4765 14.692 41.457 14.741 41.457C14.7901 41.457 14.8371 41.4765 14.8718 41.5112C14.9065 41.5459 14.926 41.5929 14.926 41.642V44.721C14.926 44.7701 14.9065 44.8171 14.8718 44.8518C14.8371 44.8865 14.7901 44.906 14.741 44.906C14.692 44.906 14.6449 44.8865 14.6102 44.8518C14.5755 44.8171 14.556 44.7701 14.556 44.721V41.642ZM32 39.719C32 39.6699 32.0195 39.6229 32.0542 39.5882C32.0889 39.5535 32.1359 39.534 32.185 39.534C32.2341 39.534 32.2811 39.5535 32.3158 39.5882C32.3505 39.6229 32.37 39.6699 32.37 39.719V42.856C32.37 42.9051 32.3505 42.9521 32.3158 42.9868C32.2811 43.0215 32.2341 43.041 32.185 43.041C32.1359 43.041 32.0889 43.0215 32.0542 42.9868C32.0195 42.9521 32 42.9051 32 42.856V39.719ZM29.093 40.566C29.093 40.5169 29.1125 40.4699 29.1472 40.4352C29.1819 40.4005 29.229 40.381 29.278 40.381C29.3271 40.381 29.3741 40.4005 29.4088 40.4352C29.4435 40.4699 29.463 40.5169 29.463 40.566V43.729C29.463 43.7781 29.4435 43.8251 29.4088 43.8598C29.3741 43.8945 29.3271 43.914 29.278 43.914C29.229 43.914 29.1819 43.8945 29.1472 43.8598C29.1125 43.8251 29.093 43.7781 29.093 43.729V40.566ZM26.186 41.104C26.186 41.0549 26.2055 41.0079 26.2402 40.9732C26.2749 40.9385 26.322 40.919 26.371 40.919C26.4201 40.919 26.4671 40.9385 26.5018 40.9732C26.5365 41.0079 26.556 41.0549 26.556 41.104V44.236C26.556 44.2851 26.5365 44.3321 26.5018 44.3668C26.4671 44.4015 26.4201 44.421 26.371 44.421C26.322 44.421 26.2749 44.4015 26.2402 44.3668C26.2055 44.3321 26.186 44.2851 26.186 44.236V41.104ZM23.279 41.448C23.279 41.3989 23.2985 41.3519 23.3332 41.3172C23.3679 41.2825 23.415 41.263 23.464 41.263C23.5131 41.263 23.5601 41.2825 23.5948 41.3172C23.6295 41.3519 23.649 41.3989 23.649 41.448V44.548C23.649 44.5971 23.6295 44.6441 23.5948 44.6788C23.5601 44.7135 23.5131 44.733 23.464 44.733C23.415 44.733 23.3679 44.7135 23.3332 44.6788C23.2985 44.6441 23.279 44.5971 23.279 44.548V41.448ZM20.372 41.641C20.372 41.5919 20.3915 41.5449 20.4262 41.5102C20.4609 41.4755 20.5079 41.456 20.557 41.456C20.6061 41.456 20.6531 41.4755 20.6878 41.5102C20.7225 41.5449 20.742 41.5919 20.742 41.641V44.72C20.742 44.7691 20.7225 44.8161 20.6878 44.8508C20.6531 44.8855 20.6061 44.905 20.557 44.905C20.5079 44.905 20.4609 44.8855 20.4262 44.8508C20.3915 44.8161 20.372 44.7691 20.372 44.72V41.641Z" fill="#B33D2F"/>
<path d="M22.875 27.5699C13.661 27.5699 6.19199 29.1839 6.19199 31.1699V36.2949C6.19199 38.2859 13.661 39.8949 22.875 39.8949C32.089 39.8949 39.558 38.2809 39.558 36.2949V31.1699C39.558 29.1789 32.089 27.5699 22.875 27.5699Z" fill="#FFD112"/>
<path d="M6.19199 31.293V36.3C6.20833 36.482 6.265 36.6581 6.35788 36.8155C6.45077 36.9729 6.57754 37.1077 6.72899 37.21V32.86C10.182 34.66 14.689 34.905 19.449 34.888L7.64899 30.813L6.19199 31.293Z" fill="white"/>
<path d="M21.449 39.894C21.9157 39.9027 22.3903 39.907 22.873 39.907C32.087 39.907 39.556 38.293 39.556 36.307V31.182C39.556 30.065 37.205 29.067 33.515 28.406H20.738V35.925C20.7872 36.5659 20.593 37.2017 20.1942 37.7057C19.7953 38.2097 19.221 38.5447 18.586 38.644C19.6602 38.7055 20.6763 39.1513 21.449 39.9" fill="#F2A500"/>
<path d="M6.80899 36.927C7.05653 37.1415 7.33081 37.323 7.62499 37.467C8.108 37.7071 8.60964 37.9078 9.12499 38.067C9.78399 38.278 10.46 38.448 11.137 38.594C12.8769 38.9558 14.6371 39.212 16.408 39.361C18.556 39.561 20.72 39.643 22.877 39.643C25.034 39.643 27.198 39.557 29.346 39.361C31.1165 39.2119 32.8764 38.9558 34.616 38.594C35.2947 38.4514 35.9653 38.2757 36.628 38.067C37.1433 37.9078 37.645 37.7071 38.128 37.467C38.517 37.267 39.293 36.819 39.293 36.303V31.178C39.293 30.662 38.517 30.212 38.128 30.014C37.8096 29.8538 37.4816 29.7132 37.146 29.593C37.2434 29.6682 37.3245 29.7623 37.3845 29.8698C37.4445 29.9772 37.4821 30.0957 37.495 30.218V35.343C37.495 35.859 36.719 36.309 36.33 36.507C35.847 36.7473 35.3454 36.9479 34.83 37.107C34.17 37.318 33.494 37.488 32.818 37.634C31.0781 37.9961 29.3179 38.2526 27.547 38.402C25.399 38.602 23.235 38.684 21.078 38.684C18.921 38.684 16.757 38.598 14.609 38.402C12.8381 38.2526 11.0779 37.9961 9.33799 37.634C8.65932 37.4913 7.98866 37.3157 7.32599 37.107C7.15266 37.0517 6.98066 36.993 6.80999 36.931" fill="#F2A500"/>
<path d="M22.875 27.758C18.9302 27.7111 14.9909 28.0632 11.117 28.809C8.18799 29.442 6.37699 30.281 6.37699 31.177V36.3C6.37699 37.2 8.18799 38.035 11.117 38.668C18.8926 40.07 26.8563 40.07 34.632 38.668C37.561 38.035 39.372 37.196 39.372 36.3V31.177C39.372 30.277 37.561 29.441 34.632 28.809C30.7581 28.0632 26.8197 27.7111 22.875 27.758ZM11.039 28.448C18.866 27.0346 26.883 27.0346 34.71 28.448C37.819 29.12 39.742 30.083 39.742 31.177V36.3C39.742 37.4 37.819 38.357 34.71 39.029C26.883 40.4427 18.866 40.4427 11.039 39.029C7.92999 38.359 6.00699 37.4 6.00699 36.3V31.177C6.00699 30.082 7.92999 29.119 11.039 28.448Z" fill="#B33D2F"/>
<path d="M22.875 34.7811C32.064 34.7811 39.558 33.1621 39.558 31.1811C39.558 29.2001 32.064 27.5811 22.875 27.5811C13.686 27.5811 6.19199 29.2001 6.19199 31.1811C6.19199 33.1621 13.686 34.7811 22.875 34.7811Z" fill="#FFD112"/>
<path d="M10.14 28.849C7.67799 29.477 6.19199 30.29 6.19199 31.177C6.19208 31.2414 6.1998 31.3055 6.21499 31.368L6.37699 31.421C6.63599 30.582 7.74199 30.01 9.67699 29.698L10.14 28.849Z" fill="white"/>
<path d="M6.60001 31.569C6.88171 31.8971 7.23102 32.1605 7.62401 32.341C8.10701 32.5811 8.60864 32.7818 9.12401 32.941C9.78301 33.152 10.46 33.322 11.136 33.468C12.8759 33.8301 14.6361 34.0865 16.407 34.236C18.555 34.436 20.719 34.518 22.876 34.518C25.033 34.518 27.197 34.432 29.345 34.236C31.1156 34.0865 32.8754 33.83 34.615 33.468C35.2937 33.3253 35.9643 33.1497 36.627 32.941C37.1423 32.7817 37.644 32.5811 38.127 32.341C38.516 32.141 39.292 31.693 39.292 31.177C39.292 30.661 38.516 30.211 38.127 30.012C37.8201 29.8573 37.5042 29.721 37.181 29.604C37.2674 29.7173 37.3167 29.8546 37.322 29.997C37.322 30.513 36.546 30.963 36.157 31.161C35.674 31.4011 35.1723 31.6017 34.657 31.761C33.998 31.972 33.321 32.142 32.645 32.288C30.9051 32.6501 29.1449 32.9066 27.374 33.056C25.226 33.256 23.061 33.338 20.905 33.338C18.749 33.338 16.584 33.252 14.436 33.056C12.6651 32.9066 10.9049 32.6501 9.16501 32.288C8.48634 32.1447 7.81567 31.969 7.15301 31.761C6.96834 31.7017 6.78467 31.639 6.60201 31.573" fill="#F2A500"/>
<path d="M22.875 27.758C18.9302 27.7111 14.9909 28.0632 11.117 28.809C8.18799 29.442 6.37699 30.281 6.37699 31.177C6.37699 32.073 8.18799 32.912 11.117 33.545C18.8927 34.9468 26.8563 34.9468 34.632 33.545C37.561 32.912 39.372 32.073 39.372 31.177C39.372 30.281 37.561 29.441 34.632 28.809C30.7581 28.0632 26.8197 27.7111 22.875 27.758ZM11.039 28.448C18.866 27.0346 26.883 27.0346 34.71 28.448C37.819 29.12 39.742 30.083 39.742 31.177C39.742 32.271 37.819 33.235 34.71 33.906C26.883 35.3195 18.866 35.3195 11.039 33.906C7.92999 33.234 6.00699 32.271 6.00699 31.177C6.00699 30.083 7.92999 29.119 11.039 28.448ZM22.688 35.811C22.688 35.762 22.7075 35.7149 22.7422 35.6802C22.7769 35.6455 22.8239 35.626 22.873 35.626C22.9221 35.626 22.9691 35.6455 23.0038 35.6802C23.0385 35.7149 23.058 35.762 23.058 35.811V38.879C23.058 38.9281 23.0385 38.9751 23.0038 39.0098C22.9691 39.0445 22.9221 39.064 22.873 39.064C22.8239 39.064 22.7769 39.0445 22.7422 39.0098C22.7075 38.9751 22.688 38.9281 22.688 38.879V35.811ZM8.15399 33.826C8.15399 33.8017 8.15877 33.7777 8.16807 33.7552C8.17737 33.7328 8.19099 33.7124 8.20817 33.6952C8.22535 33.678 8.24575 33.6644 8.26819 33.6551C8.29064 33.6458 8.31469 33.641 8.33899 33.641C8.36328 33.641 8.38734 33.6458 8.40978 33.6551C8.43223 33.6644 8.45262 33.678 8.4698 33.6952C8.48698 33.7124 8.50061 33.7328 8.50991 33.7552C8.5192 33.7777 8.52399 33.8017 8.52399 33.826V36.963C8.52399 37.0121 8.5045 37.0591 8.4698 37.0938C8.43511 37.1285 8.38805 37.148 8.33899 37.148C8.28992 37.148 8.24287 37.1285 8.20817 37.0938C8.17348 37.0591 8.15399 37.0121 8.15399 36.963V33.826ZM11.061 34.673C11.061 34.6487 11.0658 34.6247 11.0751 34.6022C11.0844 34.5798 11.098 34.5594 11.1152 34.5422C11.1324 34.525 11.1527 34.5114 11.1752 34.5021C11.1976 34.4928 11.2217 34.488 11.246 34.488C11.2703 34.488 11.2943 34.4928 11.3168 34.5021C11.3392 34.5114 11.3596 34.525 11.3768 34.5422C11.394 34.5594 11.4076 34.5798 11.4169 34.6022C11.4262 34.6247 11.431 34.6487 11.431 34.673V37.837C11.431 37.8613 11.4262 37.8854 11.4169 37.9078C11.4076 37.9303 11.394 37.9507 11.3768 37.9678C11.3596 37.985 11.3392 37.9986 11.3168 38.0079C11.2943 38.0172 11.2703 38.022 11.246 38.022C11.2217 38.022 11.1976 38.0172 11.1752 38.0079C11.1527 37.9986 11.1324 37.985 11.1152 37.9678C11.098 37.9507 11.0844 37.9303 11.0751 37.9078C11.0658 37.8854 11.061 37.8613 11.061 37.837V34.673ZM13.968 35.211C13.968 35.162 13.9875 35.1149 14.0222 35.0802C14.0569 35.0455 14.1039 35.026 14.153 35.026C14.2021 35.026 14.2491 35.0455 14.2838 35.0802C14.3185 35.1149 14.338 35.162 14.338 35.211V38.343C14.338 38.3921 14.3185 38.4391 14.2838 38.4738C14.2491 38.5085 14.2021 38.528 14.153 38.528C14.1039 38.528 14.0569 38.5085 14.0222 38.4738C13.9875 38.4391 13.968 38.3921 13.968 38.343V35.211ZM16.875 35.555C16.875 35.506 16.8945 35.4589 16.9292 35.4242C16.9639 35.3895 17.0109 35.37 17.06 35.37C17.1091 35.37 17.1561 35.3895 17.1908 35.4242C17.2255 35.4589 17.245 35.506 17.245 35.555V38.655C17.245 38.7041 17.2255 38.7511 17.1908 38.7858C17.1561 38.8205 17.1091 38.84 17.06 38.84C17.0109 38.84 16.9639 38.8205 16.9292 38.7858C16.8945 38.7511 16.875 38.7041 16.875 38.655V35.555ZM19.782 35.748C19.782 35.699 19.8015 35.6519 19.8362 35.6172C19.8709 35.5825 19.9179 35.563 19.967 35.563C20.0161 35.563 20.0631 35.5825 20.0978 35.6172C20.1325 35.6519 20.152 35.699 20.152 35.748V38.827C20.152 38.8761 20.1325 38.9231 20.0978 38.9578C20.0631 38.9925 20.0161 39.012 19.967 39.012C19.9179 39.012 19.8709 38.9925 19.8362 38.9578C19.8015 38.9231 19.782 38.8761 19.782 38.827V35.748ZM37.223 33.825C37.223 33.776 37.2425 33.7289 37.2772 33.6942C37.3119 33.6595 37.3589 33.64 37.408 33.64C37.4571 33.64 37.5041 33.6595 37.5388 33.6942C37.5735 33.7289 37.593 33.776 37.593 33.825V36.962C37.593 37.0111 37.5735 37.0581 37.5388 37.0928C37.5041 37.1275 37.4571 37.147 37.408 37.147C37.3589 37.147 37.3119 37.1275 37.2772 37.0928C37.2425 37.0581 37.223 37.0111 37.223 36.962V33.825ZM34.316 34.672C34.316 34.623 34.3355 34.5759 34.3702 34.5412C34.4049 34.5065 34.4519 34.487 34.501 34.487C34.5501 34.487 34.5971 34.5065 34.6318 34.5412C34.6665 34.5759 34.686 34.623 34.686 34.672V37.836C34.686 37.8851 34.6665 37.9321 34.6318 37.9668C34.5971 38.0015 34.5501 38.021 34.501 38.021C34.4519 38.021 34.4049 38.0015 34.3702 37.9668C34.3355 37.9321 34.316 37.8851 34.316 37.836V34.672ZM31.409 35.21C31.409 35.161 31.4285 35.1139 31.4632 35.0792C31.4979 35.0445 31.5449 35.025 31.594 35.025C31.6431 35.025 31.6901 35.0445 31.7248 35.0792C31.7595 35.1139 31.779 35.161 31.779 35.21V38.342C31.779 38.3911 31.7595 38.4381 31.7248 38.4728C31.6901 38.5075 31.6431 38.527 31.594 38.527C31.5449 38.527 31.4979 38.5075 31.4632 38.4728C31.4285 38.4381 31.409 38.3911 31.409 38.342V35.21ZM28.5 35.554C28.5 35.505 28.5195 35.4579 28.5542 35.4232C28.5889 35.3885 28.6359 35.369 28.685 35.369C28.7341 35.369 28.7811 35.3885 28.8158 35.4232C28.8505 35.4579 28.87 35.505 28.87 35.554V38.654C28.87 38.7031 28.8505 38.7501 28.8158 38.7848C28.7811 38.8195 28.7341 38.839 28.685 38.839C28.6359 38.839 28.5889 38.8195 28.5542 38.7848C28.5195 38.7501 28.5 38.7031 28.5 38.654V35.554ZM25.593 35.747C25.593 35.698 25.6125 35.6509 25.6472 35.6162C25.6819 35.5815 25.7289 35.562 25.778 35.562C25.8271 35.562 25.8741 35.5815 25.9088 35.6162C25.9435 35.6509 25.963 35.698 25.963 35.747V38.826C25.963 38.8751 25.9435 38.9221 25.9088 38.9568C25.8741 38.9915 25.8271 39.011 25.778 39.011C25.7289 39.011 25.6819 38.9915 25.6472 38.9568C25.6125 38.9221 25.593 38.8751 25.593 38.826V35.747Z" fill="#B33D2F"/>
<path d="M25.011 20.684C15.797 20.684 8.328 22.298 8.328 24.284V29.409C8.328 31.4 15.797 33.009 25.011 33.009C34.225 33.009 41.694 31.395 41.694 29.409V24.284C41.694 22.293 34.225 20.684 25.011 20.684Z" fill="#FFD112"/>
<path d="M8.69 23.539C8.58333 23.634 8.49645 23.7492 8.43433 23.8779C8.37221 24.0066 8.33608 24.1463 8.328 24.289V29.414C8.35011 29.6171 8.41917 29.8123 8.52973 29.9841C8.64029 30.1559 8.78931 30.2997 8.965 30.404V26.1C15.49 28.7 23.775 28.909 33.365 27.594L33.547 26.722L17.1 22.462L17.018 22.455L8.69 23.539Z" fill="white"/>
<path d="M11.073 31.116L11.26 31.177C11.919 31.388 12.595 31.557 13.272 31.704C15.0119 32.0658 16.7721 32.3219 18.543 32.471C20.691 32.671 22.855 32.753 25.012 32.753C27.169 32.753 29.333 32.667 31.481 32.471C33.2519 32.322 35.0121 32.0658 36.752 31.704C37.4307 31.5614 38.1013 31.3857 38.764 31.177C39.2794 31.0178 39.781 30.8172 40.264 30.577C40.653 30.377 41.429 29.929 41.429 29.412V24.287C41.429 23.771 40.653 23.321 40.264 23.122C39.781 22.8819 39.2794 22.6813 38.764 22.522C38.102 22.314 37.4313 22.1384 36.752 21.995C35.7027 21.7717 34.6457 21.5924 33.581 21.457C34.0308 21.6024 34.469 21.7812 34.892 21.992C35.281 22.192 36.057 22.64 36.057 23.157V28.282C36.057 28.798 35.281 29.248 34.892 29.447C34.409 29.6872 33.9074 29.8878 33.392 30.047C32.733 30.258 32.056 30.428 31.38 30.574C29.6401 30.9362 27.8799 31.1927 26.109 31.342C23.961 31.542 21.797 31.624 19.64 31.624C17.483 31.624 15.319 31.538 13.171 31.342C12.471 31.278 11.771 31.203 11.071 31.112" fill="#F2A500"/>
<path d="M25.009 20.869C21.0648 20.8233 17.1261 21.1764 13.253 21.923C10.324 22.556 8.513 23.395 8.513 24.291V29.416C8.513 30.316 10.324 31.152 13.253 31.785C21.0287 33.1866 28.9923 33.1866 36.768 31.785C39.697 31.152 41.508 30.313 41.508 29.416V24.291C41.508 23.391 39.696 22.555 36.768 21.923C32.8941 21.1773 28.9547 20.8251 25.01 20.872M13.175 21.562C21.002 20.1486 29.019 20.1486 36.846 21.562C39.955 22.234 41.878 23.197 41.878 24.291V29.416C41.878 30.511 39.955 31.474 36.846 32.146C29.0189 33.5592 21.0021 33.5592 13.175 32.146C10.066 31.474 8.14301 30.511 8.14301 29.416V24.291C8.14301 23.196 10.066 22.233 13.175 21.562Z" fill="#B33D2F"/>
<path d="M25.011 27.893C34.2 27.893 41.694 26.274 41.694 24.293C41.694 22.312 34.2 20.693 25.011 20.693C15.822 20.693 8.328 22.312 8.328 24.293C8.328 26.274 15.822 27.893 25.011 27.893Z" fill="#FFD112"/>
<path d="M25.011 20.684C15.797 20.684 8.328 22.298 8.328 24.284C8.32972 24.4213 8.36399 24.5564 8.428 24.678L8.6 24.625C8.721 22.68 15.765 21.534 27.223 20.896V20.711C26.499 20.6903 25.7613 20.6796 25.01 20.679" fill="white"/>
<path d="M9.70001 25.424L9.75701 25.453C10.24 25.6931 10.7417 25.8937 11.257 26.053C11.916 26.264 12.593 26.434 13.269 26.58C15.0089 26.9421 16.7691 27.1986 18.54 27.348C20.688 27.548 22.852 27.63 25.009 27.63C27.166 27.63 29.33 27.544 31.478 27.348C33.2489 27.1986 35.0091 26.9421 36.749 26.58C37.4277 26.4374 38.0983 26.2617 38.761 26.053C39.2763 25.8937 39.778 25.6931 40.261 25.453C40.65 25.253 41.426 24.805 41.426 24.288C41.426 23.771 40.65 23.322 40.261 23.123C39.778 22.883 39.2764 22.6823 38.761 22.523C38.099 22.315 37.4283 22.1394 36.749 21.996L36.337 21.91L32.771 25.332C31.0311 25.6943 29.2709 25.9508 27.5 26.1C25.352 26.3 23.188 26.382 21.031 26.382C18.874 26.382 16.71 26.3 14.562 26.1C12.9302 25.961 11.3072 25.7337 9.70001 25.419" fill="#F2A500"/>
<path d="M25.009 20.869C21.0648 20.8233 17.1261 21.1764 13.253 21.923C10.324 22.556 8.513 23.395 8.513 24.291C8.513 25.187 10.324 26.026 13.253 26.659C21.0287 28.0609 28.9924 28.0609 36.768 26.659C39.697 26.026 41.508 25.187 41.508 24.291C41.508 23.395 39.696 22.555 36.768 21.923C32.8941 21.1773 28.9547 20.8251 25.01 20.872M13.175 21.562C21.002 20.1486 29.019 20.1486 36.846 21.562C39.955 22.234 41.878 23.197 41.878 24.291C41.878 25.385 39.955 26.349 36.846 27.02C29.019 28.4335 21.002 28.4335 13.175 27.02C10.066 26.348 8.14301 25.386 8.14301 24.291C8.14301 23.196 10.066 22.233 13.175 21.562ZM24.827 28.922C24.827 28.873 24.8465 28.8259 24.8812 28.7912C24.9159 28.7565 24.9629 28.737 25.012 28.737C25.0611 28.737 25.1081 28.7565 25.1428 28.7912C25.1775 28.8259 25.197 28.873 25.197 28.922V31.988C25.197 32.0371 25.1775 32.0842 25.1428 32.1189C25.1081 32.1535 25.0611 32.173 25.012 32.173C24.9629 32.173 24.9159 32.1535 24.8812 32.1189C24.8465 32.0842 24.827 32.0371 24.827 31.988V28.922ZM10.291 26.937C10.291 26.888 10.3105 26.8409 10.3452 26.8062C10.3799 26.7715 10.4269 26.752 10.476 26.752C10.5251 26.752 10.5721 26.7715 10.6068 26.8062C10.6415 26.8409 10.661 26.888 10.661 26.937V30.074C10.661 30.0983 10.6562 30.1224 10.6469 30.1448C10.6376 30.1673 10.624 30.1877 10.6068 30.2048C10.5896 30.222 10.5692 30.2357 10.5468 30.245C10.5244 30.2542 10.5003 30.259 10.476 30.259C10.4517 30.259 10.4277 30.2542 10.4052 30.245C10.3828 30.2357 10.3624 30.222 10.3452 30.2048C10.328 30.1877 10.3144 30.1673 10.3051 30.1448C10.2958 30.1224 10.291 30.0983 10.291 30.074V26.937ZM13.198 27.784C13.198 27.735 13.2175 27.6879 13.2522 27.6532C13.2869 27.6185 13.3339 27.599 13.383 27.599C13.4321 27.599 13.4791 27.6185 13.5138 27.6532C13.5485 27.6879 13.568 27.735 13.568 27.784V30.947C13.568 30.9961 13.5485 31.0432 13.5138 31.0778C13.4791 31.1125 13.4321 31.132 13.383 31.132C13.3339 31.132 13.2869 31.1125 13.2522 31.0778C13.2175 31.0432 13.198 30.9961 13.198 30.947V27.784ZM16.105 28.322C16.105 28.273 16.1245 28.2259 16.1592 28.1912C16.1939 28.1565 16.2409 28.137 16.29 28.137C16.3391 28.137 16.3861 28.1565 16.4208 28.1912C16.4555 28.2259 16.475 28.273 16.475 28.322V31.454C16.475 31.5031 16.4555 31.5502 16.4208 31.5848C16.3861 31.6195 16.3391 31.639 16.29 31.639C16.2409 31.639 16.1939 31.6195 16.1592 31.5848C16.1245 31.5502 16.105 31.5031 16.105 31.454V28.322ZM19.011 28.666C19.011 28.617 19.0305 28.5699 19.0652 28.5352C19.0999 28.5005 19.1469 28.481 19.196 28.481C19.2451 28.481 19.2921 28.5005 19.3268 28.5352C19.3615 28.5699 19.381 28.617 19.381 28.666V31.766C19.381 31.8151 19.3615 31.8622 19.3268 31.8968C19.2921 31.9315 19.2451 31.951 19.196 31.951C19.1469 31.951 19.0999 31.9315 19.0652 31.8968C19.0305 31.8622 19.011 31.8151 19.011 31.766V28.666ZM21.918 28.859C21.918 28.81 21.9375 28.7629 21.9722 28.7282C22.0069 28.6935 22.0539 28.674 22.103 28.674C22.1521 28.674 22.1991 28.6935 22.2338 28.7282C22.2685 28.7629 22.288 28.81 22.288 28.859V31.938C22.288 31.9871 22.2685 32.0342 22.2338 32.0688C22.1991 32.1035 22.1521 32.123 22.103 32.123C22.0539 32.123 22.0069 32.1035 21.9722 32.0688C21.9375 32.0342 21.918 31.9871 21.918 31.938V28.859ZM39.358 26.936C39.358 26.887 39.3775 26.8399 39.4122 26.8052C39.4469 26.7705 39.4939 26.751 39.543 26.751C39.5921 26.751 39.6391 26.7705 39.6738 26.8052C39.7085 26.8399 39.728 26.887 39.728 26.936V30.072C39.728 30.0963 39.7232 30.1204 39.7139 30.1428C39.7046 30.1653 39.691 30.1857 39.6738 30.2028C39.6566 30.22 39.6362 30.2337 39.6138 30.243C39.5914 30.2522 39.5673 30.257 39.543 30.257C39.5187 30.257 39.4947 30.2522 39.4722 30.243C39.4498 30.2337 39.4294 30.22 39.4122 30.2028C39.395 30.1857 39.3814 30.1653 39.3721 30.1428C39.3628 30.1204 39.358 30.0963 39.358 30.072V26.936ZM36.451 27.783C36.451 27.734 36.4705 27.6869 36.5052 27.6522C36.5399 27.6175 36.5869 27.598 36.636 27.598C36.6851 27.598 36.7321 27.6175 36.7668 27.6522C36.8015 27.6869 36.821 27.734 36.821 27.783V30.946C36.821 30.9951 36.8015 31.0422 36.7668 31.0768C36.7321 31.1115 36.6851 31.131 36.636 31.131C36.5869 31.131 36.5399 31.1115 36.5052 31.0768C36.4705 31.0422 36.451 30.9951 36.451 30.946V27.783ZM33.544 28.321C33.544 28.272 33.5635 28.2249 33.5982 28.1902C33.6329 28.1555 33.6799 28.136 33.729 28.136C33.7781 28.136 33.8251 28.1555 33.8598 28.1902C33.8945 28.2249 33.914 28.272 33.914 28.321V31.453C33.914 31.5021 33.8945 31.5492 33.8598 31.5838C33.8251 31.6185 33.7781 31.638 33.729 31.638C33.6799 31.638 33.6329 31.6185 33.5982 31.5838C33.5635 31.5492 33.544 31.5021 33.544 31.453V28.321ZM30.637 28.665C30.637 28.616 30.6565 28.5689 30.6912 28.5342C30.7259 28.4995 30.7729 28.48 30.822 28.48C30.8711 28.48 30.9181 28.4995 30.9528 28.5342C30.9875 28.5689 31.007 28.616 31.007 28.665V31.765C31.007 31.8141 30.9875 31.8612 30.9528 31.8958C30.9181 31.9305 30.8711 31.95 30.822 31.95C30.7729 31.95 30.7259 31.9305 30.6912 31.8958C30.6565 31.8612 30.637 31.8141 30.637 31.765V28.665ZM27.73 28.858C27.73 28.809 27.7495 28.7619 27.7842 28.7272C27.8189 28.6925 27.8659 28.673 27.915 28.673C27.9641 28.673 28.0111 28.6925 28.0458 28.7272C28.0805 28.7619 28.1 28.809 28.1 28.858V31.937C28.1 31.9861 28.0805 32.0332 28.0458 32.0678C28.0111 32.1025 27.9641 32.122 27.915 32.122C27.8659 32.122 27.8189 32.1025 27.7842 32.0678C27.7495 32.0332 27.73 31.9861 27.73 31.937V28.858Z" fill="#B33D2F"/>
<path d="M49.828 29.31L52.628 30.062C54.328 30.5175 55.9216 31.3034 57.3178 32.3747C58.7141 33.4461 59.8856 34.782 60.7656 36.3061C61.6456 37.8303 62.2167 39.5128 62.4465 41.2577C62.6762 43.0025 62.56 44.7756 62.1045 46.4755C61.649 48.1755 60.8631 49.7691 59.7918 51.1653C58.7204 52.5616 57.3845 53.7332 55.8604 54.6131C54.3363 55.4931 52.6537 56.0643 50.9089 56.294C49.164 56.5237 47.391 56.4075 45.691 55.952L42.891 55.201C39.4578 54.2811 36.5306 52.0351 34.7534 48.9569C32.9762 45.8788 32.4946 42.2208 33.4145 38.7875C34.3344 35.3543 36.5805 32.4271 39.6586 30.6499C42.7367 28.8727 46.3948 28.3911 49.828 29.311" fill="#CD900F"/>
<path d="M33.552 45.171C34.0839 47.5009 35.2409 49.6417 36.8986 51.3632C38.5563 53.0846 40.6519 54.3216 42.96 54.941L45.76 55.693C48.211 56.3496 50.7997 56.2822 53.2132 55.4989C55.6266 54.7156 57.7616 53.25 59.3598 51.2792C60.9581 49.3084 61.9512 46.9168 62.2192 44.3936C62.4872 41.8704 62.0186 39.3236 60.87 37.061C61.3715 39.2677 61.2944 41.5666 60.6462 43.7347C59.998 45.9029 58.8006 47.8668 57.1702 49.4361C55.5398 51.0055 53.5317 52.127 51.3404 52.692C49.1491 53.257 46.849 53.2463 44.663 52.661L41.858 51.909C40.1911 51.4648 38.6285 50.6955 37.2598 49.6454C35.8912 48.5953 34.7436 47.2851 33.883 45.79C33.765 45.5854 33.653 45.3784 33.547 45.169" fill="#A87300"/>
<path d="M49.876 29.132L52.676 29.883C54.4066 30.338 56.0304 31.1305 57.4539 32.2148C58.8774 33.2992 60.0726 34.6541 60.971 36.2017C61.8694 37.7493 62.4532 39.4592 62.6888 41.233C62.9245 43.0069 62.8074 44.8099 62.3443 46.5384C61.8812 48.2669 61.0812 49.8869 59.9902 51.3053C58.8992 52.7237 57.5388 53.9127 55.987 54.8038C54.4352 55.695 52.7227 56.2708 50.9477 56.4982C49.1727 56.7256 47.3703 56.6001 45.644 56.129L42.844 55.378C39.368 54.4464 36.4037 52.1739 34.6014 49.0591C32.7992 45.9443 32.3063 42.2417 33.231 38.764L33.237 38.74C34.1683 35.2638 36.4408 32.2992 39.5556 30.4967C42.6704 28.6943 46.3731 28.2013 49.851 29.126L49.876 29.132ZM52.585 30.24L49.8 29.5L49.776 29.494C48.0997 29.0447 46.3513 28.93 44.6306 29.1565C42.91 29.3829 41.2508 29.9461 39.7478 30.8137C36.7123 32.5661 34.4973 35.4525 33.59 38.838C32.6827 42.2234 33.1574 45.8307 34.9098 48.8662C36.6621 51.9016 39.5485 54.1167 42.934 55.024L45.734 55.776C49.1199 56.6834 52.7276 56.2086 55.7634 54.4561C58.7993 52.7036 61.0146 49.8168 61.922 46.431C62.8294 43.0451 62.3547 39.4374 60.6022 36.4015C58.8496 33.3657 55.9629 31.1504 52.577 30.243" fill="#B33D2F"/>
<path d="M47.691 42.8C47.6437 42.7867 47.6035 42.7552 47.5794 42.7124C47.5553 42.6695 47.5492 42.6188 47.5625 42.5715C47.5758 42.5242 47.6073 42.484 47.6501 42.4599C47.693 42.4358 47.7437 42.4297 47.791 42.443L61.267 46.054C61.2904 46.0606 61.3124 46.0717 61.3315 46.0867C61.3507 46.1018 61.3666 46.1204 61.3786 46.1416C61.3905 46.1628 61.3982 46.1862 61.4011 46.2104C61.404 46.2345 61.4021 46.2591 61.3955 46.2825C61.3889 46.3059 61.3778 46.3279 61.3628 46.347C61.3477 46.3661 61.3291 46.3821 61.3079 46.3941C61.2867 46.406 61.2633 46.4136 61.2391 46.4165C61.215 46.4194 61.1904 46.4176 61.167 46.411L47.691 42.8ZM44.759 30.14C44.7356 30.1334 44.7136 30.1223 44.6945 30.1073C44.6754 30.0922 44.6594 30.0736 44.6474 30.0524C44.6355 30.0311 44.6279 30.0078 44.625 29.9836C44.6221 29.9594 44.6239 29.9349 44.6305 29.9115C44.6371 29.8881 44.6482 29.8661 44.6632 29.847C44.6783 29.8278 44.6969 29.8119 44.7181 29.7999C44.7394 29.788 44.7627 29.7804 44.7869 29.7774C44.8111 29.7745 44.8356 29.7764 44.859 29.783L56.927 33.017C56.9743 33.0303 57.0145 33.0618 57.0386 33.1046C57.0627 33.1475 57.0688 33.1982 57.0555 33.2455C57.0422 33.2928 57.0107 33.333 56.9679 33.3571C56.925 33.3812 56.8743 33.3873 56.827 33.374L44.759 30.14ZM46.808 33.658L60.069 37.211C60.1163 37.2243 60.167 37.2182 60.2099 37.1941C60.2527 37.17 60.2842 37.1298 60.2975 37.0825C60.3108 37.0352 60.3047 36.9845 60.2806 36.9416C60.2565 36.8988 60.2163 36.8673 60.169 36.854L46.908 33.3C46.8607 33.2867 46.81 33.2928 46.7671 33.3169C46.7243 33.341 46.6928 33.3812 46.6795 33.4285C46.6662 33.4758 46.6723 33.5265 46.6964 33.5694C46.7205 33.6122 46.7607 33.6447 46.808 33.658ZM47.85 36.9C47.8027 36.8867 47.7625 36.8552 47.7384 36.8124C47.7143 36.7695 47.7082 36.7188 47.7215 36.6715C47.7348 36.6242 47.7663 36.584 47.8091 36.5599C47.852 36.5358 47.9027 36.5297 47.95 36.543L61.404 40.143C61.4513 40.1563 61.4915 40.1878 61.5156 40.2306C61.5397 40.2735 61.5458 40.3242 61.5325 40.3715C61.5192 40.4188 61.4877 40.459 61.4449 40.4831C61.402 40.5072 61.3513 40.5133 61.304 40.5L47.85 36.9ZM48.109 39.939L61.588 43.551C61.6117 43.5585 61.6366 43.5612 61.6613 43.5589C61.6861 43.5566 61.7101 43.5494 61.7319 43.5376C61.7538 43.5258 61.7731 43.5097 61.7886 43.4904C61.8041 43.471 61.8156 43.4487 61.8223 43.4248C61.829 43.4008 61.8308 43.3758 61.8277 43.3512C61.8245 43.3266 61.8164 43.3028 61.8039 43.2814C61.7914 43.2599 61.7746 43.2412 61.7547 43.2264C61.7348 43.2116 61.7121 43.2009 61.688 43.195L48.209 39.589C48.1617 39.5757 48.111 39.5818 48.0681 39.6059C48.0253 39.63 47.9938 39.6702 47.9805 39.7175C47.9672 39.7648 47.9733 39.8155 47.9974 39.8584C48.0215 39.9012 48.0617 39.9327 48.109 39.946M38.821 52.3C38.7976 52.2934 38.7756 52.2823 38.7565 52.2673C38.7374 52.2522 38.7214 52.2336 38.7094 52.2124C38.6975 52.1911 38.6899 52.1678 38.687 52.1436C38.6841 52.1194 38.6859 52.0949 38.6925 52.0715C38.6991 52.0481 38.7102 52.0261 38.7252 52.007C38.7403 51.9878 38.7589 51.9719 38.7801 51.9599C38.8014 51.948 38.8247 51.9404 38.8489 51.9374C38.8731 51.9345 38.8976 51.9364 38.921 51.943L50.989 55.177C51.0124 55.1836 51.0344 55.1947 51.0535 55.2097C51.0727 55.2248 51.0886 55.2434 51.1006 55.2646C51.1125 55.2858 51.1202 55.3092 51.1231 55.3334C51.126 55.3575 51.1241 55.3821 51.1175 55.4055C51.1109 55.4289 51.0998 55.4509 51.0848 55.47C51.0697 55.4891 51.0511 55.5051 51.0299 55.5171C51.0087 55.529 50.9853 55.5366 50.9611 55.5395C50.937 55.5424 50.9124 55.5406 50.889 55.534L38.821 52.3ZM42.354 50.278L55.615 53.832C55.6624 53.8453 55.713 53.8392 55.7559 53.8151C55.7987 53.791 55.8302 53.7508 55.8435 53.7035C55.8568 53.6562 55.8507 53.6055 55.8266 53.5626C55.8025 53.5198 55.7623 53.4883 55.715 53.475L42.454 49.924C42.4306 49.9174 42.4061 49.9155 42.3819 49.9184C42.3577 49.9214 42.3344 49.929 42.3131 49.9409C42.2919 49.9529 42.2733 49.9688 42.2582 49.988C42.2432 50.0071 42.2321 50.0291 42.2255 50.0525C42.2189 50.0759 42.2171 50.1004 42.22 50.1246C42.2229 50.1488 42.2305 50.1721 42.2424 50.1934C42.2544 50.2146 42.2704 50.2332 42.2895 50.2483C42.3086 50.2633 42.3306 50.2744 42.354 50.281M44.88 47.989C44.8327 47.9757 44.7925 47.9442 44.7684 47.9014C44.7443 47.8585 44.7382 47.8078 44.7515 47.7605C44.7648 47.7132 44.7963 47.673 44.8391 47.6489C44.882 47.6248 44.9327 47.6187 44.98 47.632L58.434 51.232C58.4813 51.2453 58.5215 51.2768 58.5456 51.3196C58.5697 51.3625 58.5758 51.4132 58.5625 51.4605C58.5492 51.5078 58.5177 51.548 58.4749 51.5721C58.432 51.5962 58.3813 51.6023 58.334 51.589L44.88 47.989ZM46.624 45.489L60.1 49.1C60.1473 49.1133 60.198 49.1072 60.2409 49.0831C60.2837 49.059 60.3152 49.0188 60.3285 48.9715C60.3418 48.9242 60.3357 48.8735 60.3116 48.8306C60.2875 48.7878 60.2473 48.7563 60.2 48.743L46.72 45.131C46.6727 45.1177 46.622 45.1238 46.5791 45.1479C46.5363 45.172 46.5048 45.2122 46.4915 45.2595C46.4782 45.3068 46.4843 45.3575 46.5084 45.4004C46.5325 45.4432 46.5727 45.4747 46.62 45.488" fill="#B33D2F"/>
<path d="M49.828 29.31C52.3878 29.9962 54.6867 31.426 56.4339 33.4186C58.1812 35.4112 59.2983 37.8772 59.6441 40.5047C59.9899 43.1322 59.5488 45.8033 58.3766 48.1801C57.2045 50.5569 55.3538 52.5328 53.0587 53.8579C50.7635 55.183 48.127 55.7978 45.4825 55.6245C42.838 55.4512 40.3043 54.4977 38.2017 52.8844C36.0991 51.2712 34.5221 49.0707 33.6701 46.5612C32.8181 44.0517 32.7293 41.346 33.415 38.786C33.8704 37.0861 34.6561 35.4924 35.7274 34.0962C36.7987 32.6999 38.1346 31.5283 39.6587 30.6484C41.1828 29.7684 42.8654 29.1973 44.6102 28.9677C46.3551 28.7381 48.1281 28.8544 49.828 29.31Z" fill="#FFD112"/>
<path d="M49.828 29.31C52.3463 29.9806 54.613 31.3744 56.348 33.319C56.3893 33.4156 56.4297 33.513 56.469 33.611C54.5505 31.6997 52.1085 30.3999 49.4516 29.8757C46.7947 29.3516 44.0421 29.6266 41.5414 30.6661C39.0408 31.7055 36.9043 33.4628 35.4018 35.7159C33.8994 37.969 33.0984 40.6169 33.1 43.325C33.1 43.7523 33.1193 44.175 33.158 44.593C32.7655 42.3729 32.9393 40.0897 33.6632 37.9546C34.3872 35.8194 35.6379 33.9014 37.2998 32.3779C38.9617 30.8544 40.9809 29.7747 43.1708 29.2386C45.3606 28.7025 47.6503 28.7274 49.828 29.311" fill="white"/>
<path d="M33.713 38.71L33.673 38.855C33.0972 41.0089 33.0792 43.2739 33.6207 45.4366C34.1622 47.5993 35.2455 49.5885 36.7684 51.2168C38.2913 52.8452 40.2036 54.0589 42.3253 54.7438C44.447 55.4287 46.7081 55.5622 48.8956 55.1316C51.0831 54.701 53.125 53.7206 54.8288 52.2827C56.5327 50.8448 57.8424 48.9968 58.6345 46.9128C59.4267 44.8288 59.6752 42.5774 59.3567 40.3708C59.0382 38.1642 58.1632 36.075 56.814 34.3C57.5995 35.9745 57.9919 37.8064 57.9612 39.6558C57.9305 41.5051 57.4775 43.323 56.6368 44.9705C55.7961 46.618 54.59 48.0515 53.1106 49.1616C51.6311 50.2716 49.9175 51.0289 48.1007 51.3754C46.2838 51.7219 44.4118 51.6486 42.6277 51.161C40.8435 50.6734 39.1944 49.7845 37.8063 48.5621C36.4182 47.3397 35.3279 45.8162 34.6186 44.108C33.9094 42.3998 33.6 40.5521 33.714 38.7061" fill="#F2A500"/>
<path d="M49.851 29.125L49.875 29.132C53.3511 30.0638 56.3155 32.3364 58.1179 35.4514C59.9203 38.5663 60.4134 42.269 59.489 45.747L59.482 45.771C58.5503 49.247 56.2775 52.2114 53.1626 54.0137C50.0476 55.8159 46.3449 56.3087 42.867 55.384L42.843 55.377C39.367 54.4455 36.4026 52.173 34.6004 49.0582C32.7982 45.9434 32.3053 42.2408 33.23 38.763L33.236 38.739C34.1675 35.263 36.44 32.2985 39.5548 30.4961C42.6695 28.6937 46.3721 28.2006 49.85 29.125M57.805 35.646C56.2761 32.9987 53.8767 30.9634 51.0154 29.8868C48.1542 28.8103 45.0081 28.7591 42.1134 29.7421C39.2187 30.725 36.7543 32.6813 35.1402 35.2775C33.5261 37.8737 32.8621 40.9493 33.2613 43.9802C33.6606 47.0111 35.0984 49.8098 37.3298 51.8994C39.5612 53.9891 42.4481 55.2404 45.4986 55.4401C48.5492 55.6399 51.5746 54.7758 54.0595 52.995C56.5443 51.2142 58.3349 48.6269 59.126 45.674C59.5751 43.9976 59.6896 42.2492 59.463 40.5286C59.2363 38.808 58.6729 37.1489 57.805 35.646Z" fill="#B33D2F"/>
<path d="M49.078 32.114C51.0842 32.6511 52.8861 33.7712 54.2558 35.3324C55.6255 36.8937 56.5013 38.8261 56.7726 40.8852C57.044 42.9443 56.6985 45.0376 55.78 46.9004C54.8616 48.7631 53.4113 50.3117 51.6126 51.3501C49.814 52.3886 47.7478 52.8703 45.6753 52.7343C43.6029 52.5984 41.6173 51.8509 39.9697 50.5864C38.3221 49.3219 37.0866 47.5971 36.4193 45.6303C35.752 43.6636 35.683 41.5431 36.221 39.537C36.9421 36.8481 38.7016 34.5556 41.1126 33.1636C43.5236 31.7716 46.3887 31.3941 49.078 32.114Z" fill="#FFD112"/>
<path d="M55.567 37.213C56.275 38.507 56.7025 39.9356 56.8216 41.4058C56.9407 42.8759 56.7487 44.3547 56.2581 45.7457C55.7675 47.1368 54.9893 48.4088 53.9743 49.479C52.9592 50.5492 51.7301 51.3936 50.367 51.957L50.09 51.87C55.49 48.706 57.797 44.06 55.29 37.098L55.567 37.213Z" fill="white"/>
<path d="M49.009 32.373C47.3388 31.9254 45.5825 31.9083 43.9039 32.3232C42.2253 32.7382 40.6793 33.5718 39.4101 34.7461C38.1409 35.9204 37.19 37.3971 36.6462 39.0385C36.1023 40.6798 35.9832 42.4322 36.3 44.132C36.1202 41.8848 36.6685 39.6394 37.8637 37.7279C39.0589 35.8164 40.8376 34.3403 42.9368 33.518C45.0359 32.6958 47.3439 32.5709 49.5194 33.162C51.695 33.753 53.6226 35.0286 55.017 36.8C53.6463 34.6173 51.4996 33.0347 49.009 32.371" fill="#F2A500"/>
<path d="M48.926 52.436C46.7946 52.9728 44.5484 52.8273 42.5041 52.0198C40.4598 51.2124 38.7204 49.7838 37.5312 47.9353C36.3419 46.0869 35.7626 43.9119 35.8751 41.7167C35.9875 39.5216 36.786 37.4172 38.158 35.7C40.1098 35.7752 42.0146 36.3202 43.7108 37.2886C45.407 38.2571 46.8445 39.6205 47.9014 41.2631C48.9582 42.9057 49.6032 44.779 49.7816 46.7241C49.96 48.6691 49.6665 50.6285 48.926 52.436Z" fill="#F2A500"/>
<path d="M44.81 45.676L45.664 42.491C44.8176 42.067 44.1177 41.3989 43.655 40.573C43.3072 39.8568 43.2395 39.0365 43.465 38.273C43.5594 37.8808 43.7333 37.5121 43.976 37.19C44.2188 36.8678 44.5251 36.5989 44.876 36.4C45.6431 35.9765 46.5371 35.8441 47.394 36.027L47.594 35.278L48.794 35.599L48.594 36.348C49.3474 36.6052 50.0023 37.0903 50.468 37.736C50.8691 38.3552 51.0456 39.0933 50.968 39.827L48.808 39.516C48.8353 39.2317 48.7878 38.9452 48.6703 38.6849C48.5528 38.4246 48.3693 38.1995 48.138 38.032L47.338 41C48.2951 41.4354 49.1127 42.1277 49.7 43C50.0432 43.6868 50.1074 44.4799 49.879 45.213C49.7766 45.645 49.5889 46.0522 49.3268 46.4106C49.0647 46.769 48.7336 47.0714 48.353 47.3C47.4921 47.7835 46.4924 47.9599 45.518 47.8L45.137 49.22L43.937 48.899L44.313 47.499C43.4774 47.2035 42.7597 46.6457 42.267 45.909C41.8026 45.1239 41.6196 44.204 41.748 43.301L43.954 43.641C43.9288 44.0458 44.0023 44.4507 44.168 44.821C44.3098 45.1509 44.527 45.443 44.802 45.674M46.942 37.687C46.6144 37.6983 46.2981 37.81 46.036 38.007C45.7908 38.1864 45.6143 38.4444 45.536 38.738C45.4641 39.009 45.4838 39.2962 45.592 39.555C45.7306 39.8653 45.9524 40.1311 46.233 40.323L46.942 37.687ZM45.966 46.12C46.3709 46.1554 46.7764 46.0589 47.122 45.845C47.4493 45.6464 47.6853 45.3271 47.779 44.956C47.8717 44.6344 47.838 44.2896 47.685 43.992C47.4678 43.624 47.1481 43.3272 46.765 43.138L45.966 46.12Z" fill="#B33D2F"/>
<path d="M44.81 45.677L45.664 42.492C44.8178 42.0681 44.118 41.4004 43.655 40.575C43.4231 40.0662 43.32 39.5081 43.3549 38.95C43.3898 38.3919 43.5615 37.851 43.855 37.375C44.4679 37.7356 45.0478 38.1495 45.588 38.612C45.5717 38.6552 45.5576 38.6993 45.546 38.744C45.4742 39.0151 45.4939 39.3023 45.602 39.561C45.7406 39.8713 45.9625 40.1371 46.243 40.329L46.477 39.455C46.8255 39.8207 47.1508 40.2078 47.451 40.614L47.343 41.014C47.571 41.1393 47.7837 41.2647 47.981 41.39C48.0577 41.5127 48.1323 41.637 48.205 41.763C48.9334 43.0232 49.429 44.4042 49.668 45.84C49.3935 46.4529 48.9359 46.9658 48.358 47.308C47.497 47.7914 46.4973 47.9677 45.523 47.808L45.142 49.227L43.942 48.906L44.318 47.506C43.4824 47.2104 42.7648 46.6527 42.272 45.916C41.8076 45.1309 41.6246 44.2111 41.753 43.308L43.959 43.648C43.9338 44.0529 44.0072 44.4578 44.173 44.828C44.3151 45.1578 44.5322 45.4499 44.807 45.681M45.972 46.127C46.377 46.162 46.7825 46.0652 47.128 45.851C47.4553 45.6526 47.6914 45.3332 47.785 44.962C47.8771 44.641 47.8435 44.297 47.691 44C47.4738 43.632 47.1541 43.3353 46.771 43.146L45.972 46.127Z" fill="#9C2517"/>
<path d="M23.676 0.185059H26.576C28.3357 0.185059 30.0782 0.53166 31.704 1.20507C33.3297 1.87849 34.8069 2.86552 36.0512 4.10983C37.2955 5.35413 38.2826 6.83134 38.956 8.4571C39.6294 10.0829 39.976 11.8253 39.976 13.5851C39.976 15.3448 39.6294 17.0873 38.956 18.713C38.2826 20.3388 37.2955 21.816 36.0512 23.0603C34.8069 24.3046 33.3297 25.2916 31.704 25.965C30.0782 26.6385 28.3357 26.9851 26.576 26.9851H23.676C21.9163 26.9851 20.1738 26.6385 18.548 25.965C16.9223 25.2916 15.4451 24.3046 14.2008 23.0603C12.9565 21.816 11.9694 20.3388 11.296 18.713C10.6226 17.0873 10.276 15.3448 10.276 13.5851C10.276 11.8253 10.6226 10.0829 11.296 8.4571C11.9694 6.83134 12.9565 5.35413 14.2008 4.10983C15.4451 2.86552 16.9223 1.87849 18.548 1.20507C20.1738 0.53166 21.9163 0.185059 23.676 0.185059Z" fill="#CD900F"/>
<path d="M11.928 19.464C13.0191 21.6454 14.6961 23.4798 16.7711 24.7617C18.846 26.0437 21.237 26.7224 23.676 26.722H26.576C29.0368 26.722 31.4481 26.0306 33.5351 24.7267C35.622 23.4228 37.3007 21.5589 38.3798 19.3473C39.4589 17.1357 39.8949 14.6654 39.6382 12.218C39.3815 9.77064 38.4425 7.4446 36.928 5.505C37.9286 7.50768 38.4008 9.73283 38.2999 11.9693C38.199 14.2057 37.5283 16.3793 36.3513 18.2837C35.1744 20.1881 33.5304 21.7602 31.5753 22.8508C29.6201 23.9413 27.4187 24.5142 25.18 24.515H22.28C20.2838 24.5167 18.3136 24.0625 16.5196 23.1872C14.7256 22.3119 13.1552 21.0384 11.928 19.464Z" fill="#A87300"/>
<path d="M23.675 0H26.575C28.3593 -2.65877e-08 30.1261 0.351438 31.7745 1.03425C33.423 1.71706 34.9208 2.71787 36.1825 3.97954C37.4441 5.24121 38.445 6.73903 39.1278 8.38748C39.8106 10.0359 40.162 11.8027 40.162 13.587C40.162 15.3713 39.8106 17.1381 39.1278 18.7865C38.445 20.435 37.4441 21.9328 36.1825 23.1945C34.9208 24.4561 33.423 25.4569 31.7745 26.1398C30.1261 26.8226 28.3593 27.174 26.575 27.174H23.675C20.0715 27.174 16.6156 25.7425 14.0676 23.1945C11.5195 20.6464 10.088 17.1905 10.088 13.587C10.088 9.9835 11.5195 6.5276 14.0676 3.97954C16.6156 1.43148 20.0715 5.36963e-08 23.675 0ZM26.575 0.37H23.675C20.1696 0.37 16.8078 1.7625 14.3292 4.24117C11.8505 6.71984 10.458 10.0816 10.458 13.587C10.458 17.0924 11.8505 20.4542 14.3292 22.9328C16.8078 25.4115 20.1696 26.804 23.675 26.804H26.575C30.0804 26.804 33.4422 25.4115 35.9208 22.9328C38.3995 20.4542 39.792 17.0924 39.792 13.587C39.792 10.0816 38.3995 6.71984 35.9208 4.24117C33.4422 1.7625 30.0804 0.37 26.575 0.37Z" fill="#B33D2F"/>
<path d="M25.1 13.7721C25.0509 13.7721 25.0039 13.7526 24.9692 13.7179C24.9345 13.6832 24.915 13.6361 24.915 13.5871C24.915 13.538 24.9345 13.4909 24.9692 13.4562C25.0039 13.4215 25.0509 13.4021 25.1 13.4021H39.054C39.1031 13.4021 39.1501 13.4215 39.1848 13.4562C39.2195 13.4909 39.239 13.538 39.239 13.5871C39.239 13.6361 39.2195 13.6832 39.1848 13.7179C39.1501 13.7526 39.1031 13.7721 39.054 13.7721H25.1ZM18.994 2.30005C18.9449 2.30005 18.8979 2.28056 18.8632 2.24587C18.8285 2.21117 18.809 2.16412 18.809 2.11505C18.809 2.06599 18.8285 2.01893 18.8632 1.98424C18.8979 1.94954 18.9449 1.93005 18.994 1.93005H31.487C31.5361 1.93005 31.5831 1.94954 31.6178 1.98424C31.6525 2.01893 31.672 2.06599 31.672 2.11505C31.672 2.16412 31.6525 2.21117 31.6178 2.24587C31.5831 2.28056 31.5361 2.30005 31.487 2.30005H18.994ZM21.884 5.16805C21.8349 5.16805 21.7879 5.14856 21.7532 5.11387C21.7185 5.07917 21.699 5.03212 21.699 4.98305C21.699 4.93399 21.7185 4.88693 21.7532 4.85224C21.7879 4.81754 21.8349 4.79805 21.884 4.79805H35.613C35.6621 4.79805 35.7091 4.81754 35.7438 4.85224C35.7785 4.88693 35.798 4.93399 35.798 4.98305C35.798 5.03212 35.7785 5.07917 35.7438 5.11387C35.7091 5.14856 35.6621 5.16805 35.613 5.16805H21.884ZM23.731 8.03605C23.6819 8.03605 23.6349 8.01656 23.6002 7.98187C23.5655 7.94717 23.546 7.90012 23.546 7.85105C23.546 7.80199 23.5655 7.75493 23.6002 7.72024C23.6349 7.68554 23.6819 7.66605 23.731 7.66605H37.66C37.7091 7.66605 37.7561 7.68554 37.7908 7.72024C37.8255 7.75493 37.845 7.80199 37.845 7.85105C37.845 7.90012 37.8255 7.94717 37.7908 7.98187C37.7561 8.01656 37.7091 8.03605 37.66 8.03605H23.731ZM24.768 10.9001C24.7189 10.9001 24.6719 10.8806 24.6372 10.8459C24.6025 10.8112 24.583 10.7641 24.583 10.7151C24.583 10.666 24.6025 10.6189 24.6372 10.5842C24.6719 10.5495 24.7189 10.5301 24.768 10.5301H38.723C38.7473 10.5301 38.7713 10.5348 38.7938 10.5441C38.8162 10.5534 38.8366 10.5671 38.8538 10.5842C38.871 10.6014 38.8846 10.6218 38.8939 10.6443C38.9032 10.6667 38.908 10.6908 38.908 10.7151C38.908 10.7393 38.9032 10.7634 38.8939 10.7858C38.8846 10.8083 38.871 10.8287 38.8538 10.8459C38.8366 10.863 38.8162 10.8767 38.7938 10.886C38.7713 10.8953 38.7473 10.9001 38.723 10.9001H24.768ZM18.994 25.2401C18.9449 25.2401 18.8979 25.2206 18.8632 25.1859C18.8285 25.1512 18.809 25.1041 18.809 25.0551C18.809 25.006 18.8285 24.9589 18.8632 24.9242C18.8979 24.8895 18.9449 24.8701 18.994 24.8701H31.487C31.5361 24.8701 31.5831 24.8895 31.6178 24.9242C31.6525 24.9589 31.672 25.006 31.672 25.0551C31.672 25.1041 31.6525 25.1512 31.6178 25.1859C31.5831 25.2206 31.5361 25.2401 31.487 25.2401H18.994ZM21.883 22.3721C21.8339 22.3721 21.7869 22.3526 21.7522 22.3179C21.7175 22.2832 21.698 22.2361 21.698 22.1871C21.698 22.138 21.7175 22.0909 21.7522 22.0562C21.7869 22.0215 21.8339 22.0021 21.883 22.0021H35.612C35.6611 22.0021 35.7081 22.0215 35.7428 22.0562C35.7775 22.0909 35.797 22.138 35.797 22.1871C35.797 22.2361 35.7775 22.2832 35.7428 22.3179C35.7081 22.3526 35.6611 22.3721 35.612 22.3721H21.883ZM23.73 19.5041C23.6809 19.5041 23.6339 19.4846 23.5992 19.4499C23.5645 19.4152 23.545 19.3681 23.545 19.3191C23.545 19.27 23.5645 19.2229 23.5992 19.1882C23.6339 19.1535 23.6809 19.1341 23.73 19.1341H37.659C37.7081 19.1341 37.7551 19.1535 37.7898 19.1882C37.8245 19.2229 37.844 19.27 37.844 19.3191C37.844 19.3681 37.8245 19.4152 37.7898 19.4499C37.7551 19.4846 37.7081 19.5041 37.659 19.5041H23.73ZM24.767 16.6361C24.7179 16.6361 24.6709 16.6166 24.6362 16.5819C24.6015 16.5472 24.582 16.5001 24.582 16.4511C24.582 16.402 24.6015 16.3549 24.6362 16.3202C24.6709 16.2855 24.7179 16.2661 24.767 16.2661H38.722C38.7711 16.2661 38.8181 16.2855 38.8528 16.3202C38.8875 16.3549 38.907 16.402 38.907 16.4511C38.907 16.5001 38.8875 16.5472 38.8528 16.5819C38.8181 16.6166 38.7711 16.6361 38.722 16.6361H24.767Z" fill="#B33D2F"/>
<path d="M23.676 26.988C26.3263 26.988 28.917 26.2021 31.1206 24.7297C33.3243 23.2573 35.0418 21.1645 36.056 18.716C37.0702 16.2674 37.3356 13.5731 36.8185 10.9738C36.3015 8.37444 35.0253 5.98679 33.1512 4.11276C31.2772 2.23874 28.8896 0.962514 26.2902 0.445472C23.6909 -0.0715704 20.9966 0.193794 18.548 1.20801C16.0995 2.22222 14.0067 3.93973 12.5343 6.14335C11.0619 8.34697 10.276 10.9377 10.276 13.588C10.276 17.1419 11.6878 20.5502 14.2008 23.0632C16.7138 25.5762 20.1221 26.988 23.676 26.988Z" fill="#FFD112"/>
<path d="M23.678 0.184946C26.1181 0.182104 28.5123 0.848616 30.6 2.11195L30.56 2.29995C20.941 -2.13105 12.96 3.48795 10.7 11.0999L10.55 10.9069C11.169 7.88146 12.8135 5.16243 15.2056 3.2094C17.5978 1.25636 20.5908 0.189088 23.679 0.187946" fill="white"/>
<path d="M31.309 2.90002C33.2038 4.2536 34.7046 6.08668 35.6576 8.21136C36.6105 10.336 36.9814 12.6759 36.7322 14.9912C36.4829 17.3064 35.6225 19.5137 34.2392 21.3869C32.8558 23.2601 30.9993 24.7317 28.8598 25.651C26.7203 26.5702 24.3749 26.9041 22.0638 26.6183C19.7528 26.3325 17.5594 25.4373 15.7083 24.0245C13.8572 22.6117 12.4151 20.7321 11.5298 18.5784C10.6444 16.4247 10.3477 14.0742 10.67 11.768C10.7682 13.631 11.3008 15.4451 12.2252 17.0654C13.1497 18.6858 14.4403 20.0675 15.994 21.1L16.079 21.186C17.5821 22.689 19.497 23.7125 21.5818 24.1271C23.6665 24.5416 25.8274 24.3287 27.7911 23.5152C29.7548 22.7018 31.4332 21.3242 32.614 19.5568C33.7949 17.7894 34.4251 15.7116 34.425 13.586C34.425 13.4527 34.4227 13.3194 34.418 13.186C34.7361 11.3479 34.6208 9.46093 34.0812 7.67523C33.5417 5.88953 32.5918 4.25442 31.309 2.90002Z" fill="#F2A500"/>
<path d="M23.675 3.11524e-08C26.8184 -0.000212743 29.8647 1.08953 32.2947 3.08354C34.7248 5.07756 36.3882 7.85247 37.0017 10.9355C37.6151 14.0185 37.1406 17.2188 35.659 19.9911C34.1773 22.7635 31.7803 24.9363 28.8762 26.1395C25.9721 27.3426 22.7407 27.5015 19.7325 26.5892C16.7244 25.6768 14.1257 23.7497 12.3791 21.1361C10.6326 18.5226 9.84632 15.3842 10.1543 12.2559C10.4622 9.12761 11.8454 6.20285 14.068 3.98C16.6159 1.43189 20.0716 0.000243939 23.675 3.11524e-08ZM33.021 4.241C30.8588 2.07873 28.0138 0.733069 24.9706 0.433317C21.9275 0.133565 18.8746 0.898265 16.332 2.59712C13.7895 4.29597 11.9147 6.82386 11.0271 9.75006C10.1395 12.6763 10.2939 15.8197 11.4642 18.6448C12.6344 21.4699 14.748 23.8018 17.4448 25.2432C20.1417 26.6846 23.2549 27.1463 26.2539 26.5496C29.253 25.953 31.9524 24.3349 33.8922 21.971C35.832 19.6072 36.8922 16.6439 36.892 13.586C36.8918 10.0809 35.4994 6.71949 33.021 4.241Z" fill="#B33D2F"/>
<path d="M23.676 24.085C25.7527 24.085 27.7828 23.4692 29.5095 22.3154C31.2362 21.1616 32.582 19.5218 33.3767 17.6031C34.1715 15.6845 34.3794 13.5733 33.9742 11.5365C33.5691 9.49972 32.5691 7.6288 31.1006 6.16034C29.6322 4.69189 27.7612 3.69187 25.7244 3.28672C23.6876 2.88158 21.5764 3.08951 19.6578 3.88423C17.7392 4.67895 16.0993 6.02476 14.9456 7.75148C13.7918 9.47819 13.176 11.5083 13.176 13.585C13.176 16.3697 14.2822 19.0405 16.2514 21.0096C18.2205 22.9787 20.8912 24.085 23.676 24.085Z" fill="#FFD112"/>
<path d="M33.447 9.73104C34.3471 12.0122 34.4204 14.5364 33.6541 16.8659C32.8879 19.1954 31.3305 21.1832 29.252 22.4846C27.1735 23.7859 24.7051 24.3188 22.2748 23.9906C19.8446 23.6625 17.6059 22.4941 15.947 20.688L16 20.472C24.064 28.072 36.447 20.472 33.208 9.63904L33.447 9.73104Z" fill="white"/>
<path d="M23.677 3.35706C25.5235 3.35658 27.3358 3.856 28.9214 4.80234C30.507 5.74867 31.8068 7.10661 32.683 8.73206C31.1813 6.59954 28.9219 5.12105 26.3666 4.59879C23.8112 4.07652 21.1529 4.54991 18.9349 5.9222C16.7169 7.29449 15.1068 9.46205 14.4336 11.9819C13.7604 14.5017 14.0749 17.1834 15.313 19.4791C14.2343 17.9469 13.597 16.148 13.4707 14.2784C13.3445 12.4089 13.7341 10.5406 14.597 8.87735C15.46 7.21409 16.7631 5.81976 18.3643 4.84648C19.9655 3.87319 21.8032 3.35733 23.677 3.35706Z" fill="#F2A500"/>
<path d="M23.675 2.90002C26.1463 2.90011 28.5411 3.75707 30.4514 5.3249C32.3617 6.89272 33.6693 9.07441 34.1514 11.4982C34.6335 13.9221 34.2603 16.4381 33.0953 18.6175C31.9303 20.797 30.0457 22.5052 27.7625 23.4509C25.4793 24.3966 22.9388 24.5215 20.5739 23.8041C18.209 23.0868 16.166 21.5716 14.793 19.5168C13.42 17.462 12.8019 14.9948 13.044 12.5353C13.2862 10.0759 14.3736 7.77657 16.121 6.02902C17.113 5.03697 18.2906 4.25004 19.5868 3.71316C20.8829 3.17628 22.2721 2.89998 23.675 2.90002ZM30.967 6.29002C29.28 4.60273 27.0601 3.55259 24.6856 3.31855C22.3111 3.0845 19.929 3.68102 17.945 5.00647C15.961 6.33193 14.498 8.3043 13.8053 10.5875C13.1125 12.8707 13.2329 15.3235 14.1458 17.5279C15.0588 19.7323 16.7079 21.552 18.8121 22.6768C20.9163 23.8017 23.3454 24.1621 25.6856 23.6967C28.0258 23.2313 30.1322 21.9689 31.6459 20.1245C33.1596 18.2802 33.987 15.968 33.987 13.582C33.9871 10.8471 32.9007 8.22409 30.967 6.29002Z" fill="#B33D2F"/>
<path d="M23.066 17.293V13.993C22.1388 13.8025 21.29 13.3386 20.629 12.661C20.1091 12.0599 19.832 11.2865 19.852 10.492C19.8426 10.0896 19.9157 9.68953 20.0669 9.31648C20.2181 8.94343 20.4441 8.60532 20.731 8.32301C21.3624 7.71602 22.1913 7.35677 23.066 7.31101V6.53601H24.306V7.31101C25.1002 7.36462 25.8582 7.66375 26.475 8.16701C27.0229 8.66117 27.3847 9.32829 27.5 10.057L25.333 10.315C25.2856 10.0332 25.1654 9.76858 24.9842 9.54756C24.803 9.32653 24.5671 9.15673 24.3 9.05501V12.132C25.3379 12.3057 26.3072 12.764 27.1 13.456C27.6088 14.0308 27.8757 14.78 27.845 15.547C27.856 15.9893 27.7787 16.4294 27.6176 16.8414C27.4566 17.2535 27.215 17.6294 26.907 17.947C26.2011 18.6366 25.2819 19.0657 24.3 19.164V20.634H23.06V19.181C22.1762 19.1118 21.3385 18.7586 20.672 18.174C20.0218 17.5352 19.6085 16.694 19.5 15.789L21.719 15.547C21.7991 15.9449 21.9748 16.3173 22.231 16.632C22.4534 16.9137 22.7387 17.1393 23.064 17.291M23.064 9.02201C22.7505 9.11792 22.474 9.30782 22.272 9.56601C22.083 9.80282 21.9803 10.097 21.981 10.4C21.9817 10.6805 22.0748 10.9529 22.246 11.175C22.4603 11.4388 22.7434 11.6382 23.064 11.751V9.02201ZM24.304 17.422C24.7041 17.3513 25.0707 17.1531 25.349 16.857C25.612 16.5801 25.7557 16.2109 25.749 15.829C25.7549 15.4943 25.633 15.1699 25.408 14.922C25.1034 14.6226 24.7179 14.4185 24.299 14.335L24.304 17.422Z" fill="#B33D2F"/>
<path d="M19.038 2.11503C19.261 2.50103 18.838 3.16503 18.088 3.59703C17.338 4.02903 16.553 4.06503 16.33 3.67903C16.107 3.29303 16.53 2.62903 17.28 2.19703C18.03 1.76503 18.814 1.72803 19.038 2.11503Z" fill="white"/>
<path d="M31.854 33.374H34.754C38.3079 33.374 41.7163 34.7858 44.2292 37.2988C46.7422 39.8118 48.154 43.2201 48.154 46.774C48.154 50.3279 46.7422 53.7363 44.2292 56.2493C41.7163 58.7622 38.3079 60.174 34.754 60.174H31.854C28.3001 60.174 24.8918 58.7622 22.3788 56.2493C19.8658 53.7363 18.454 50.3279 18.454 46.774C18.454 43.2201 19.8658 39.8118 22.3788 37.2988C24.8918 34.7858 28.3001 33.374 31.854 33.374Z" fill="#CD900F"/>
<path d="M34.759 59.908C37.1075 59.9077 39.4129 59.2777 41.4352 58.0838C43.4575 56.8898 45.1227 55.1754 46.2574 53.1193C47.3921 51.0631 47.9548 48.7403 47.8868 46.3929C47.8188 44.0454 47.1227 41.759 45.871 39.772C46.453 41.7322 46.5694 43.8011 46.2112 45.8143C45.853 47.8274 45.0299 49.7292 43.8074 51.3683C42.585 53.0074 40.9969 54.3386 39.1695 55.256C37.3421 56.1735 35.3258 56.6518 33.281 56.653H30.381C28.1613 56.6542 25.9776 56.0924 24.0341 55.0202C22.0906 53.948 20.4507 52.4003 19.268 50.522C20.076 53.2336 21.7379 55.6119 24.0063 57.303C26.2748 58.9942 29.0286 59.9078 31.858 59.908H34.759Z" fill="#A87300"/>
<path d="M31.855 33.189H34.755C38.3584 33.189 41.8141 34.6204 44.3621 37.1684C46.9101 39.7163 48.3415 43.1721 48.3415 46.7755C48.3415 50.3789 46.9101 53.8346 44.3621 56.3826C41.8141 58.9306 38.3584 60.362 34.755 60.362H31.855C30.0707 60.362 28.3039 60.0106 26.6555 59.3277C25.007 58.6449 23.5092 57.6441 22.2475 56.3825C20.9859 55.1208 19.9851 53.623 19.3023 51.9745C18.6194 50.3261 18.268 48.5593 18.268 46.775C18.268 44.9907 18.6194 43.2239 19.3023 41.5755C19.9851 39.927 20.9859 38.4292 22.2475 37.1675C23.5092 35.9059 25.007 34.905 26.6555 34.2222C28.3039 33.5394 30.0707 33.189 31.855 33.189ZM34.755 33.558H31.855C30.1097 33.5428 28.3787 33.8735 26.7619 34.5308C25.1451 35.1882 23.6745 36.1593 22.4349 37.3881C21.1954 38.6169 20.2116 40.079 19.5402 41.69C18.8687 43.3011 18.523 45.0291 18.523 46.7745C18.523 48.5198 18.8687 50.2479 19.5402 51.859C20.2116 53.47 21.1954 54.9321 22.4349 56.1609C23.6745 57.3897 25.1451 58.3608 26.7619 59.0181C28.3787 59.6755 30.1097 60.0062 31.855 59.991H34.755C36.5003 60.0062 38.2313 59.6755 39.8481 59.0181C41.4649 58.3608 42.9356 57.3897 44.1751 56.1609C45.4146 54.9321 46.3984 53.47 47.0699 51.859C47.7413 50.2479 48.087 48.5198 48.087 46.7745C48.087 45.0291 47.7413 43.3011 47.0699 41.69C46.3984 40.079 45.4146 38.6169 44.1751 37.3881C42.9356 36.1593 41.4649 35.1882 39.8481 34.5308C38.2313 33.8735 36.5003 33.5428 34.755 33.558Z" fill="#B33D2F"/>
<path d="M33.283 46.96C33.2339 46.96 33.1869 46.9405 33.1522 46.9058C33.1175 46.8711 33.098 46.8241 33.098 46.775C33.098 46.726 33.1175 46.6789 33.1522 46.6442C33.1869 46.6095 33.2339 46.59 33.283 46.59H47.234C47.2831 46.59 47.3301 46.6095 47.3648 46.6442C47.3995 46.6789 47.419 46.726 47.419 46.775C47.419 46.8241 47.3995 46.8711 47.3648 46.9058C47.3301 46.9405 47.2831 46.96 47.234 46.96H33.283ZM27.174 35.489C27.1249 35.489 27.0779 35.4695 27.0432 35.4348C27.0085 35.4001 26.989 35.3531 26.989 35.304C26.989 35.255 27.0085 35.2079 27.0432 35.1732C27.0779 35.1385 27.1249 35.119 27.174 35.119H39.667C39.7161 35.119 39.7631 35.1385 39.7978 35.1732C39.8325 35.2079 39.852 35.255 39.852 35.304C39.852 35.3531 39.8325 35.4001 39.7978 35.4348C39.7631 35.4695 39.7161 35.489 39.667 35.489H27.174ZM30.063 38.357C30.0139 38.357 29.9669 38.3375 29.9322 38.3028C29.8975 38.2681 29.878 38.2211 29.878 38.172C29.878 38.123 29.8975 38.0759 29.9322 38.0412C29.9669 38.0065 30.0139 37.987 30.063 37.987H43.792C43.8163 37.987 43.8404 37.9918 43.8628 38.0011C43.8853 38.0104 43.9056 38.024 43.9228 38.0412C43.94 38.0584 43.9536 38.0788 43.9629 38.1012C43.9722 38.1237 43.977 38.1477 43.977 38.172C43.977 38.1963 43.9722 38.2204 43.9629 38.2428C43.9536 38.2653 43.94 38.2857 43.9228 38.3028C43.9056 38.32 43.8853 38.3336 43.8628 38.3429C43.8404 38.3522 43.8163 38.357 43.792 38.357H30.063ZM31.91 41.225C31.8609 41.225 31.8139 41.2055 31.7792 41.1708C31.7445 41.1361 31.725 41.0891 31.725 41.04C31.725 40.991 31.7445 40.9439 31.7792 40.9092C31.8139 40.8745 31.8609 40.855 31.91 40.855H45.839C45.8633 40.855 45.8874 40.8598 45.9098 40.8691C45.9323 40.8784 45.9526 40.892 45.9698 40.9092C45.987 40.9264 46.0006 40.9468 46.0099 40.9692C46.0192 40.9917 46.024 41.0157 46.024 41.04C46.024 41.0643 46.0192 41.0884 46.0099 41.1108C46.0006 41.1333 45.987 41.1537 45.9698 41.1708C45.9526 41.188 45.9323 41.2016 45.9098 41.2109C45.8874 41.2202 45.8633 41.225 45.839 41.225H31.91ZM32.947 44.092C32.9216 44.0939 32.8962 44.0905 32.8722 44.0821C32.8481 44.0737 32.8261 44.0604 32.8075 44.0431C32.7889 44.0257 32.774 44.0048 32.7638 43.9814C32.7537 43.9581 32.7484 43.933 32.7484 43.9075C32.7484 43.8821 32.7537 43.8569 32.7638 43.8336C32.774 43.8103 32.7889 43.7893 32.8075 43.772C32.8261 43.7547 32.8481 43.7414 32.8722 43.733C32.8962 43.7245 32.9216 43.7211 32.947 43.723H46.9C46.9254 43.7211 46.9509 43.7245 46.9749 43.733C46.9989 43.7414 47.0209 43.7547 47.0395 43.772C47.0582 43.7893 47.073 43.8103 47.0832 43.8336C47.0934 43.8569 47.0986 43.8821 47.0986 43.9075C47.0986 43.933 47.0934 43.9581 47.0832 43.9814C47.073 44.0048 47.0582 44.0257 47.0395 44.0431C47.0209 44.0604 46.9989 44.0737 46.9749 44.0821C46.9509 44.0905 46.9254 44.0939 46.9 44.092H32.947ZM27.174 58.431C27.1497 58.431 27.1257 58.4262 27.1032 58.4169C27.0808 58.4076 27.0604 58.394 27.0432 58.3768C27.026 58.3597 27.0124 58.3393 27.0031 58.3168C26.9938 58.2944 26.989 58.2703 26.989 58.246C26.989 58.2217 26.9938 58.1977 27.0031 58.1752C27.0124 58.1528 27.026 58.1324 27.0432 58.1152C27.0604 58.098 27.0808 58.0844 27.1032 58.0751C27.1257 58.0658 27.1497 58.061 27.174 58.061H39.667C39.7161 58.061 39.7631 58.0805 39.7978 58.1152C39.8325 58.1499 39.852 58.197 39.852 58.246C39.852 58.2951 39.8325 58.3421 39.7978 58.3768C39.7631 58.4115 39.7161 58.431 39.667 58.431H27.174ZM30.064 55.563C30.0149 55.563 29.9679 55.5435 29.9332 55.5088C29.8985 55.4741 29.879 55.4271 29.879 55.378C29.879 55.329 29.8985 55.2819 29.9332 55.2472C29.9679 55.2125 30.0149 55.193 30.064 55.193H43.793C43.8421 55.193 43.8891 55.2125 43.9238 55.2472C43.9585 55.2819 43.978 55.329 43.978 55.378C43.978 55.4271 43.9585 55.4741 43.9238 55.5088C43.8891 55.5435 43.8421 55.563 43.793 55.563H30.064ZM31.911 52.695C31.8619 52.695 31.8149 52.6755 31.7802 52.6408C31.7455 52.6061 31.726 52.5591 31.726 52.51C31.726 52.461 31.7455 52.4139 31.7802 52.3792C31.8149 52.3445 31.8619 52.325 31.911 52.325H45.84C45.8891 52.325 45.9361 52.3445 45.9708 52.3792C46.0055 52.4139 46.025 52.461 46.025 52.51C46.025 52.5591 46.0055 52.6061 45.9708 52.6408C45.9361 52.6755 45.8891 52.695 45.84 52.695H31.911ZM32.948 49.827C32.899 49.827 32.8519 49.8075 32.8172 49.7728C32.7825 49.7381 32.763 49.6911 32.763 49.642C32.763 49.593 32.7825 49.5459 32.8172 49.5112C32.8519 49.4765 32.899 49.457 32.948 49.457H46.9C46.9491 49.457 46.9961 49.4765 47.0308 49.5112C47.0655 49.5459 47.085 49.593 47.085 49.642C47.085 49.6911 47.0655 49.7381 47.0308 49.7728C46.9961 49.8075 46.9491 49.827 46.9 49.827H32.948Z" fill="#B33D2F"/>
<path d="M31.854 60.181C34.5043 60.181 37.095 59.3951 39.2987 57.9227C41.5023 56.4503 43.2198 54.3575 44.234 51.9089C45.2482 49.4604 45.5136 46.7661 44.9965 44.1668C44.4795 41.5674 43.2033 39.1798 41.3292 37.3058C39.4552 35.4317 37.0676 34.1555 34.4682 33.6385C31.8689 33.1214 29.1746 33.3868 26.7261 34.401C24.2775 35.4152 22.1847 37.1327 20.7123 39.3363C19.2399 41.54 18.454 44.1307 18.454 46.781C18.454 50.3349 19.8658 53.7432 22.3788 56.2562C24.8918 58.7692 28.3001 60.181 31.854 60.181Z" fill="#FFD112"/>
<path d="M31.854 33.374C33.1813 33.3731 34.5013 33.5692 35.771 33.956L35.887 34.186C27.036 33.02 21.5 36.715 18.816 44.6L18.656 44.44C19.2053 41.3388 20.8294 38.5301 23.2433 36.507C25.6571 34.4839 28.7065 33.3758 31.856 33.377" fill="white"/>
<path d="M36.649 34.5439C38.9426 35.4442 40.9366 36.9716 42.4031 38.9516C43.8696 40.9315 44.7495 43.2842 44.9421 45.7406C45.1347 48.197 44.6324 50.658 43.4924 52.8424C42.3524 55.0267 40.6208 56.8463 38.4956 58.093C36.3704 59.3398 33.9373 59.9634 31.4743 59.8927C29.0114 59.822 26.6181 59.0597 24.5679 57.693C22.5178 56.3263 20.8935 54.4104 19.8808 52.1642C18.868 49.918 18.5077 47.4322 18.841 44.9909C18.9857 46.9387 19.6242 48.8176 20.6962 50.4503C21.7681 52.083 23.2382 53.4158 24.9679 54.323C26.6976 55.2301 28.6299 55.6818 30.5825 55.6354C32.5351 55.5891 34.4437 55.0461 36.1284 54.0578C37.8131 53.0695 39.2182 51.6684 40.2115 49.9867C41.2047 48.3049 41.7532 46.3979 41.8053 44.4454C41.8574 42.4929 41.4113 40.5594 40.5092 38.827C39.607 37.0947 38.2786 35.6207 36.649 34.5439Z" fill="#F2A500"/>
<path d="M31.856 33.189C34.9994 33.1888 38.0457 34.2785 40.4757 36.2725C42.9058 38.2665 44.5692 41.0414 45.1827 44.1244C45.7961 47.2074 45.3216 50.4078 43.84 53.1801C42.3583 55.9525 39.9612 58.1253 37.0572 59.3284C34.1531 60.5315 30.9217 60.6905 27.9135 59.7781C24.9054 58.8658 22.3067 56.9387 20.5601 54.3251C18.8136 51.7115 18.0273 48.5732 18.3353 45.4449C18.6432 42.3166 20.0264 39.3918 22.249 37.169C24.7969 34.6209 28.2526 33.1892 31.856 33.189ZM41.2 37.43C39.0379 35.2679 36.1931 33.9225 33.1502 33.6228C30.1073 33.3232 27.0547 34.0879 24.5124 35.7866C21.9702 37.4854 20.0955 40.0131 19.208 42.939C18.3205 45.865 18.475 49.0081 19.6451 51.833C20.8152 54.6578 22.9286 56.9895 25.6252 58.4308C28.3218 59.8721 31.4347 60.3338 34.4335 59.7372C37.4324 59.1407 40.1316 57.5228 42.0713 55.1592C44.0109 52.7956 45.0711 49.8326 45.071 46.775C45.0709 43.2699 43.6785 39.9084 41.2 37.43Z" fill="#B33D2F"/>
<path d="M31.856 57.273C33.9327 57.273 35.9628 56.6571 37.6895 55.5034C39.4162 54.3496 40.762 52.7098 41.5567 50.7911C42.3514 48.8725 42.5594 46.7613 42.1542 44.7245C41.7491 42.6877 40.7491 40.8168 39.2806 39.3483C37.8122 37.8799 35.9412 36.8799 33.9044 36.4747C31.8676 36.0696 29.7564 36.2775 27.8378 37.0722C25.9192 37.8669 24.2793 39.2128 23.1256 40.9395C21.9718 42.6662 21.356 44.6962 21.356 46.773C21.356 49.5577 22.4622 52.2284 24.4314 54.1976C26.4005 56.1667 29.0712 57.273 31.856 57.273Z" fill="#FFD112"/>
<path d="M41.9 43.725C42.6555 46.2188 42.4568 48.9044 41.3425 51.2599C40.2282 53.6153 38.2779 55.4722 35.8706 56.4698C33.4634 57.4673 30.7713 57.5341 28.3175 56.6572C25.8638 55.7802 23.8238 54.0223 22.594 51.725C22.594 51.675 22.587 51.625 22.585 51.575C23.8966 53.7159 25.9319 55.3159 28.3219 56.085C30.7118 56.854 33.2983 56.7413 35.6123 55.7672C37.9263 54.793 39.8146 53.022 40.935 50.7751C42.0553 48.5283 42.3334 45.9543 41.719 43.52L41.903 43.72" fill="white"/>
<path d="M31.855 36.545C33.4303 36.5439 34.9846 36.9072 36.3962 37.6065C37.8078 38.3057 39.0384 39.3221 39.992 40.576C38.3613 38.9357 36.2346 37.8797 33.9422 37.572C31.6498 37.2644 29.3199 37.7222 27.3144 38.8746C25.3089 40.0269 23.74 41.8091 22.8514 43.9446C21.9627 46.08 21.8041 48.4492 22.4 50.684C21.7585 49.1297 21.51 47.4412 21.6763 45.768C21.8426 44.0947 22.4186 42.4882 23.3534 41.0905C24.2883 39.6928 25.5531 38.547 27.0361 37.7543C28.519 36.9617 30.1745 36.5467 31.856 36.546" fill="#F2A500"/>
<path d="M31.856 36.093C34.3275 36.0935 36.7223 36.9508 38.6326 38.519C40.5428 40.0872 41.8502 42.2692 42.3321 44.6933C42.8139 47.1174 42.4403 49.6335 41.275 51.813C40.1097 53.9925 38.2248 55.7006 35.9414 56.6462C33.6579 57.5918 31.1173 57.7164 28.7522 56.9988C26.3872 56.2812 24.3442 54.7658 22.9712 52.7108C21.5982 50.6558 20.9802 48.1883 21.2225 45.7287C21.4648 43.2691 22.5524 40.9696 24.3 39.222C25.2922 38.2297 26.4702 37.4427 27.7667 36.9058C29.0632 36.3689 30.4527 36.0927 31.856 36.093ZM39.148 39.483C37.4609 37.7955 35.2409 36.7452 32.8661 36.511C30.4914 36.2768 28.109 36.8733 26.1248 38.1988C24.1406 39.5243 22.6774 41.4968 21.9844 43.7802C21.2915 46.0636 21.4118 48.5166 22.3247 50.7213C23.2376 52.9259 24.8868 54.7458 26.9911 55.8709C29.0955 56.9959 31.5248 57.3565 33.8653 56.8912C36.2057 56.4259 38.3123 55.1635 39.8263 53.319C41.3402 51.4746 42.1678 49.1622 42.168 46.776C42.1682 44.0407 41.0819 41.4174 39.148 39.483Z" fill="#B33D2F"/>
<path d="M31.243 50.481V47.181C30.3157 46.9902 29.4669 46.5259 28.806 45.848C28.2861 45.2464 28.0087 44.4728 28.028 43.678C28.0186 43.2755 28.0918 42.8753 28.2432 42.5023C28.3945 42.1292 28.6208 41.7911 28.908 41.509C29.5397 40.9029 30.3687 40.5447 31.243 40.5V39.725H32.484V40.5C33.2782 40.5537 34.0361 40.8528 34.653 41.356C35.202 41.8497 35.5649 42.5169 35.681 43.246L33.515 43.504C33.4678 43.2223 33.3479 42.9579 33.167 42.7369C32.9862 42.5159 32.7507 42.346 32.484 42.244V45.32C33.5219 45.4937 34.4912 45.952 35.284 46.644C35.7933 47.2186 36.0606 47.9678 36.03 48.735C36.0409 49.1773 35.9636 49.6173 35.8026 50.0294C35.6415 50.4415 35.4 50.8173 35.092 51.135C34.3855 51.8248 33.4655 52.254 32.483 52.352V53.822H31.242V52.366C30.3582 52.2968 29.5205 51.9436 28.854 51.359C28.2025 50.7206 27.7877 49.8795 27.678 48.974L29.897 48.732C29.9778 49.1295 30.1539 49.5014 30.41 49.816C30.6323 50.098 30.9176 50.324 31.243 50.476M31.243 42.208C30.9296 42.3036 30.6532 42.4932 30.451 42.751C30.2618 42.9881 30.1592 43.2826 30.16 43.586C30.1609 43.8664 30.254 44.1387 30.425 44.361C30.6393 44.6248 30.9224 44.8241 31.243 44.937V42.208ZM32.484 50.608C32.8842 50.5373 33.2508 50.3391 33.529 50.043C33.792 49.766 33.9357 49.3968 33.929 49.015C33.935 48.6802 33.8131 48.3558 33.588 48.108C33.2832 47.8088 32.8978 47.6048 32.479 47.521L32.484 50.608Z" fill="#B33D2F"/>
<path d="M26.883 35.438C27.089 35.795 26.683 36.414 25.983 36.819C25.283 37.224 24.545 37.263 24.338 36.906C24.131 36.549 24.538 35.93 25.238 35.525C25.938 35.12 26.676 35.08 26.883 35.438Z" fill="white"/>
<path d="M54.078 19.812C53.7385 20.2015 53.378 20.572 52.998 20.922C51.2163 22.5787 49.0238 23.7284 46.648 24.252C46.568 24.182 46.478 24.112 46.398 24.052C46.308 23.972 46.218 23.902 46.128 23.822C45.2217 23.0425 44.4245 22.1444 43.758 21.152C43.6687 21.0315 43.5885 20.9045 43.518 20.772C42.3618 18.9082 41.6905 16.7847 41.5654 14.595C41.4402 12.4053 41.8652 10.2191 42.8015 8.23575C43.7378 6.25239 45.1557 4.53493 46.9259 3.23999C48.696 1.94504 50.7622 1.11379 52.936 0.822021L53.456 1.31202C53.456 1.31467 53.457 1.31722 53.4589 1.31909C53.4608 1.32097 53.4633 1.32202 53.466 1.32202C54.4628 2.34631 55.2929 3.52057 55.926 4.80202C55.9267 4.8097 55.9303 4.81683 55.936 4.82202C57.1165 7.23099 57.5693 9.93183 57.239 12.5941C56.9086 15.2564 55.8095 17.7646 54.076 19.812" fill="#62B5A4"/>
<path d="M46.245 24.082C49.6689 23.4032 52.6908 21.4106 54.6636 18.5311C56.6364 15.6516 57.4033 12.114 56.8 8.67603C57.013 11.414 55.1 17 51.149 18.735C47.198 20.47 44.202 18.915 42.467 14.958C42.0848 14.0858 41.8652 13.1512 41.819 12.2C41.5146 14.393 41.7597 16.6271 42.5322 18.7019C43.3048 20.7767 44.5806 22.6272 46.245 24.087V24.082Z" fill="#238C77"/>
<path d="M56.228 5.88202L56.218 6.37202C55.3711 4.43299 54.0465 2.74028 52.368 1.45202C46.808 2.34202 43.708 5.93202 42.008 11.082C41.9754 11.1565 41.9486 11.2334 41.928 11.312L41.818 10.912C41.858 10.762 41.888 10.592 41.938 10.442C41.908 10.372 41.868 10.292 41.838 10.212C42.5365 7.77631 43.9118 5.5888 45.8041 3.90362C47.6963 2.21844 50.028 1.10478 52.528 0.692017C52.8522 0.876501 53.163 1.08368 53.458 1.31202C53.458 1.31467 53.459 1.31721 53.4609 1.31909C53.4628 1.32096 53.4653 1.32202 53.468 1.32202C54.4648 2.34631 55.2949 3.52057 55.928 4.80202C55.9287 4.8097 55.9323 4.81683 55.938 4.82202C56.0662 5.16596 56.1633 5.52071 56.228 5.88202Z" fill="white"/>
<path d="M55.936 4.82198C55.9303 4.81679 55.9267 4.80966 55.926 4.80198C55.2935 3.52067 54.4641 2.34641 53.468 1.32198C53.4653 1.32198 53.4628 1.32092 53.4609 1.31905C53.4591 1.31717 53.458 1.31463 53.458 1.31198L52.936 0.821978L52.886 0.771978L52.758 0.651978L52.588 0.681978C52.568 0.681978 52.548 0.691978 52.528 0.691978C50.0276 1.10439 47.6956 2.2179 45.8029 3.9031C43.9102 5.5883 42.5346 7.776 41.836 10.212C41.1342 12.6848 41.169 15.3086 41.936 17.762C42.6704 20.1364 44.0521 22.2592 45.926 23.892C46.0428 23.9998 46.1664 24.1 46.296 24.192L46.426 24.292L46.586 24.262C46.606 24.262 46.626 24.252 46.646 24.252C49.0218 23.7284 51.2143 22.5786 52.996 20.922C53.376 20.572 53.7365 20.2014 54.076 19.812C55.8095 17.7646 56.9086 15.2563 57.239 12.5941C57.5693 9.93178 57.1165 7.23095 55.936 4.82198ZM56.886 12.732C56.5167 15.3437 55.3825 17.7877 53.6264 19.756C51.8704 21.7242 49.5709 23.1285 47.018 23.792C46.698 23.712 46.428 23.652 46.108 23.572C44.3129 21.987 42.9879 19.939 42.278 17.652C41.7654 16.0004 41.5953 14.2616 41.778 12.542C41.788 12.432 41.798 12.332 41.818 12.222C41.8618 11.839 41.9252 11.4585 42.008 11.082C42.5611 8.53121 43.8716 6.20696 45.7681 4.41368C47.6645 2.62039 50.0583 1.44169 52.636 1.03198C54.2532 2.488 55.4834 4.32295 56.216 6.37198C56.8142 8.03728 57.076 9.80477 56.986 11.572C56.966 11.962 56.936 12.342 56.886 12.732Z" fill="#B33D2F"/>
<path d="M45.825 25.684C45.8191 25.7081 45.8084 25.7308 45.7936 25.7507C45.7787 25.7706 45.76 25.7873 45.7386 25.7999C45.7172 25.8124 45.6934 25.8205 45.6688 25.8236C45.6442 25.8268 45.6191 25.825 45.5952 25.8183C45.5713 25.8115 45.549 25.8001 45.5296 25.7846C45.5102 25.769 45.4942 25.7498 45.4824 25.7279C45.4706 25.706 45.4634 25.682 45.4611 25.6573C45.4588 25.6326 45.4615 25.6076 45.469 25.584L50.894 5.33898C50.9006 5.31554 50.9117 5.29362 50.9267 5.27448C50.9418 5.25534 50.9604 5.23934 50.9816 5.22741C51.0029 5.21548 51.0262 5.20784 51.0504 5.20494C51.0746 5.20203 51.0991 5.20392 51.1225 5.21048C51.1459 5.21705 51.1679 5.22817 51.187 5.24321C51.2061 5.25824 51.2221 5.2769 51.2341 5.29812C51.246 5.31934 51.2536 5.3427 51.2565 5.36687C51.2594 5.39104 51.2576 5.41554 51.251 5.43898L45.825 25.684Z" fill="#B33D2F"/>
<path d="M49.311 12.4611C49.3332 12.5032 49.3382 12.5524 49.3249 12.5981C49.3116 12.6439 49.2811 12.6827 49.2398 12.7064C49.1984 12.7301 49.1495 12.7369 49.1033 12.7253C49.0571 12.7136 49.0172 12.6845 48.992 12.6441L45.751 7.03005C45.7379 7.00956 45.7289 6.98669 45.7246 6.96274C45.7203 6.93879 45.7208 6.91422 45.726 6.89045C45.7312 6.86668 45.741 6.84417 45.7549 6.82419C45.7688 6.80422 45.7865 6.78718 45.807 6.77405C45.8275 6.76092 45.8504 6.75195 45.8743 6.74766C45.8983 6.74336 45.9228 6.74383 45.9466 6.74903C45.9704 6.75423 45.9929 6.76406 46.0129 6.77796C46.0328 6.79187 46.0499 6.80956 46.063 6.83005L46.07 6.84205L49.311 12.4611ZM48.411 15.8331C48.3688 15.8553 48.3197 15.8603 48.2739 15.847C48.2282 15.8337 48.1893 15.8032 48.1656 15.7618C48.1419 15.7205 48.1352 15.6716 48.1468 15.6253C48.1584 15.5791 48.1875 15.5392 48.228 15.5141L53.841 12.2731C53.8832 12.2508 53.9323 12.2458 53.9781 12.2591C54.0238 12.2724 54.0627 12.3029 54.0864 12.3443C54.1101 12.3856 54.1168 12.4345 54.1052 12.4808C54.0936 12.527 54.0645 12.5669 54.024 12.5921L48.411 15.8331ZM47.685 18.5421C47.6981 18.5625 47.7071 18.5854 47.7114 18.6094C47.7157 18.6333 47.7152 18.6579 47.71 18.6816C47.7048 18.7054 47.695 18.7279 47.6811 18.7479C47.6672 18.7679 47.6495 18.7849 47.629 18.7981C47.6085 18.8112 47.5856 18.8202 47.5617 18.8244C47.5377 18.8287 47.5132 18.8283 47.4894 18.8231C47.4656 18.8179 47.4431 18.808 47.4231 18.7941C47.4032 18.7802 47.3861 18.7625 47.373 18.7421L47.366 18.7301L44.12 13.1111C44.1069 13.0906 44.0979 13.0677 44.0936 13.0437C44.0893 13.0198 44.0898 12.9952 44.095 12.9715C44.1002 12.9477 44.11 12.9252 44.1239 12.9052C44.1378 12.8852 44.1555 12.8682 44.176 12.8551C44.1965 12.8419 44.2194 12.833 44.2433 12.8287C44.2673 12.8244 44.2918 12.8248 44.3156 12.83C44.3394 12.8352 44.3619 12.8451 44.3819 12.859C44.4018 12.8729 44.4189 12.8906 44.432 12.9111L44.439 12.9231L47.685 18.5421Z" fill="#B33D2F"/>
<path d="M47.036 25.2599C48.2756 26.7048 49.8984 27.7698 51.7171 28.3323C53.5359 28.8948 55.4766 28.9318 57.3155 28.439C59.1543 27.9463 60.8165 26.9438 62.1103 25.5473C63.4041 24.1508 64.2769 22.417 64.628 20.5459C63.3883 19.1011 61.7656 18.0361 59.9468 17.4736C58.1281 16.9111 56.1874 16.8741 54.3485 17.3669C52.5097 17.8596 50.8475 18.8621 49.5537 20.2586C48.2599 21.6551 47.3871 23.3889 47.036 25.2599Z" fill="#62B5A4"/>
<path d="M64.01 19.888C62.8817 18.79 61.5123 17.9711 60.0113 17.4964C58.5102 17.0218 56.9189 16.9046 55.3645 17.1543C53.8101 17.404 52.3356 18.0136 51.0586 18.9344C49.7817 19.8553 48.7377 21.0619 48.01 22.458L47.969 22.958C51.977 16.629 58.791 15.897 63.975 20.107L64.01 19.888Z" fill="white"/>
<path d="M47.323 25.18C48.5339 26.5529 50.104 27.5604 51.8565 28.0893C53.609 28.6182 55.4743 28.6474 57.2425 28.1735C59.0107 27.6997 60.6115 26.7417 61.8647 25.4074C63.118 24.0731 63.9738 22.4154 64.336 20.621C64.248 20.521 64.158 20.421 64.067 20.328C63.4669 21.8682 62.4882 23.2324 61.2214 24.2943C59.9546 25.3562 58.4406 26.0816 56.8192 26.4036C55.1978 26.7255 53.5215 26.6335 51.9451 26.1362C50.3686 25.6388 48.943 24.7521 47.8 23.558C47.5959 24.0842 47.437 24.6268 47.325 25.18" fill="#238C77"/>
<path d="M47.236 25.206C48.4556 26.6031 50.0426 27.6303 51.8167 28.1707C53.5908 28.7111 55.4809 28.7432 57.2723 28.2633C59.0637 27.7833 60.6847 26.8106 61.951 25.4556C63.2173 24.1007 64.0782 22.4177 64.436 20.598C63.2164 19.2008 61.6294 18.1737 59.8553 17.6332C58.0812 17.0928 56.1911 17.0607 54.3997 17.5406C52.6082 18.0206 50.9873 18.9933 49.721 20.3483C48.4547 21.7032 47.5938 23.3862 47.236 25.206ZM51.676 28.506C49.8216 27.9319 48.1665 26.8471 46.9 25.376C46.8815 25.3549 46.868 25.3299 46.8605 25.3029C46.8531 25.2759 46.8519 25.2475 46.857 25.22C47.2151 23.3153 48.1039 21.5506 49.4212 20.1292C50.7385 18.7078 52.4307 17.6874 54.3026 17.1858C56.1745 16.6841 58.1501 16.7215 60.0017 17.2937C61.8532 17.8659 63.5055 18.9496 64.768 20.42C64.7865 20.441 64.8 20.466 64.8075 20.493C64.8149 20.52 64.8161 20.5484 64.811 20.576C64.5616 21.9038 64.0531 23.1695 63.3145 24.3007C62.5758 25.432 61.6216 26.4067 60.5062 27.1691C59.3908 27.9315 58.1362 28.4667 56.8139 28.7441C55.4917 29.0215 54.1277 29.0357 52.8 28.786C52.4193 28.7149 52.043 28.6221 51.673 28.508" fill="#B33D2F"/>
<path d="M45.693 25.81C45.6696 25.8166 45.645 25.8185 45.6209 25.8156C45.5967 25.8127 45.5734 25.8051 45.5521 25.7931C45.5309 25.7812 45.5123 25.7652 45.4972 25.746C45.4822 25.7269 45.4711 25.705 45.4645 25.6815C45.4579 25.6581 45.456 25.6336 45.459 25.6094C45.4619 25.5853 45.4695 25.5619 45.4814 25.5407C45.4934 25.5195 45.5093 25.5008 45.5285 25.4858C45.5476 25.4707 45.5696 25.4596 45.593 25.453L61.145 21.286C61.1923 21.2728 61.243 21.2789 61.2859 21.303C61.3287 21.3271 61.3602 21.3672 61.3735 21.4145C61.3868 21.4619 61.3807 21.5126 61.3566 21.5554C61.3325 21.5983 61.2923 21.6298 61.245 21.643L45.693 25.81Z" fill="#B33D2F"/>
<path d="M55.854 23.032C55.8295 23.0743 55.7891 23.1051 55.7419 23.1177C55.6946 23.1303 55.6443 23.1235 55.602 23.099C55.5597 23.0745 55.5289 23.0341 55.5163 22.9869C55.5037 22.9396 55.5105 22.8893 55.535 22.847L58.025 18.535C58.0495 18.4927 58.0899 18.4619 58.1371 18.4493C58.1844 18.4367 58.2347 18.4435 58.277 18.468C58.3193 18.4925 58.3501 18.5329 58.3627 18.5801C58.3753 18.6274 58.3685 18.6777 58.344 18.72L55.854 23.032ZM53.205 23.742C53.1836 23.7308 53.1646 23.7154 53.1491 23.6969C53.1337 23.6783 53.122 23.6569 53.1148 23.6338C53.1076 23.6107 53.105 23.5865 53.1072 23.5624C53.1094 23.5383 53.1163 23.5149 53.1275 23.4935C53.1387 23.4721 53.1541 23.4531 53.1726 23.4376C53.1912 23.4221 53.2126 23.4105 53.2357 23.4033C53.2588 23.3961 53.283 23.3935 53.3071 23.3957C53.3312 23.3979 53.3546 23.4048 53.376 23.416L53.388 23.423L57.701 25.913C57.7433 25.9374 57.7742 25.9776 57.7868 26.0248C57.7995 26.0719 57.7929 26.1222 57.7685 26.1645C57.7441 26.2068 57.7039 26.2377 57.6567 26.2503C57.6096 26.263 57.5593 26.2564 57.517 26.232L53.205 23.742ZM51.182 24.284C51.1699 24.3049 51.1537 24.3233 51.1345 24.338C51.1152 24.3527 51.0933 24.3635 51.0699 24.3697C51.0465 24.3759 51.0221 24.3775 50.9981 24.3743C50.9741 24.371 50.9509 24.3631 50.93 24.351C50.9091 24.3389 50.8907 24.3227 50.876 24.3035C50.8613 24.2842 50.8505 24.2623 50.8443 24.2389C50.8381 24.2155 50.8365 24.1911 50.8397 24.1671C50.843 24.1431 50.8509 24.1199 50.863 24.099L53.353 19.787C53.3651 19.7661 53.3813 19.7477 53.4005 19.733C53.4198 19.7183 53.4417 19.7075 53.4651 19.7013C53.4885 19.6951 53.5129 19.6935 53.5369 19.6967C53.5609 19.6999 53.5841 19.7078 53.605 19.72C53.6259 19.7321 53.6443 19.7483 53.659 19.7675C53.6737 19.7868 53.6845 19.8087 53.6907 19.8321C53.6969 19.8555 53.6985 19.8799 53.6953 19.9039C53.692 19.9279 53.6841 19.9511 53.672 19.972L51.182 24.284Z" fill="#B33D2F"/>
<path d="M50.043 2.91498C50.324 3.40098 49.888 4.17898 49.069 4.65198C48.25 5.12498 47.358 5.11398 47.077 4.62698C46.796 4.13998 47.232 3.36299 48.051 2.88999C48.87 2.41699 49.763 2.42798 50.043 2.91498Z" fill="white"/>
</g>
<defs>
<clipPath id="clip0_1_248">
<rect width="64.571" height="60.977" fill="white" transform="translate(0.5)"/>
</clipPath>
</defs>
</svg>
