<svg id="daily_coins" xmlns="http://www.w3.org/2000/svg" width="64.571" height="60.977" viewBox="0 0 64.571 60.977">
  <path id="Path_24" data-name="Path 24" d="M32.285,60.977c17.782,0,32.286-1.969,32.286-4.383s-14.5-4.383-32.286-4.383S0,54.18,0,56.594s14.5,4.383,32.285,4.383" fill="#45536d"/>
  <path id="Path_25" data-name="Path 25" d="M20.858,45.237c-9.213,0-16.683,1.614-16.683,3.6v5.125c0,1.99,7.469,3.6,16.683,3.6s16.683-1.614,16.683-3.6V48.837c0-1.991-7.469-3.6-16.683-3.6" fill="#ffd112"/>
  <path id="Path_26" data-name="Path 26" d="M4.237,48.53a.845.845,0,0,0-.062.311v5.125a1.269,1.269,0,0,0,.578.943V50.542a15.987,15.987,0,0,0,5.278,1.228L5.618,48.179Z" fill="#fff"/>
  <path id="Path_27" data-name="Path 27" d="M20.859,45.505c-2.157,0-4.321.086-6.469.282a44.049,44.049,0,0,0-5.271.767c-.677.146-1.353.316-2.012.527a10.056,10.056,0,0,0-1.5.6,2.608,2.608,0,0,0-1.1.9l.109-.013L9.96,50.291l.794,1.611a43.409,43.409,0,0,0,5.451,1.13c1.207.669,1.52,3.178-.547,3.389a29.513,29.513,0,0,1-9.315-.957c.252.1.507.187.761.268.659.211,1.336.381,2.012.527a44.1,44.1,0,0,0,5.271.768c2.148.2,4.312.282,6.469.282s4.321-.086,6.469-.282a44.1,44.1,0,0,0,5.271-.768q1.018-.214,2.012-.527a9.918,9.918,0,0,0,1.5-.6c.389-.2,1.165-.648,1.165-1.165V48.842c0-.516-.776-.966-1.165-1.165a10.048,10.048,0,0,0-1.5-.6q-.993-.312-2.012-.527a44.047,44.047,0,0,0-5.271-.767q-3.226-.291-6.469-.282" fill="#f2a500"/>
  <path id="Path_28" data-name="Path 28" d="M20.858,45.422A58.515,58.515,0,0,0,9.1,46.474c-2.929.633-4.74,1.472-4.74,2.368v5.125c0,.9,1.812,1.736,4.74,2.368a66.26,66.26,0,0,0,23.515,0c2.929-.633,4.74-1.472,4.74-2.368V48.842c0-.9-1.812-1.736-4.74-2.368a58.517,58.517,0,0,0-11.758-1.052m-11.836.691a66.579,66.579,0,0,1,23.671,0c3.109.672,5.032,1.634,5.032,2.729v5.125c0,1.094-1.923,2.057-5.032,2.729a66.61,66.61,0,0,1-23.671,0c-3.109-.672-5.032-1.635-5.032-2.729V48.842c0-1.1,1.923-2.057,5.032-2.729" fill="#b33d2f"/>
  <path id="Path_29" data-name="Path 29" d="M20.858,52.446c9.189,0,16.683-1.619,16.683-3.6s-7.494-3.6-16.683-3.6-16.683,1.619-16.683,3.6,7.494,3.6,16.683,3.6" fill="#ffd112"/>
  <path id="Path_30" data-name="Path 30" d="M7.952,46.557c-2.36.622-3.777,1.417-3.777,2.284a.866.866,0,0,0,.092.38l.209.012c-.125-.768.654-1.471,2.664-1.919.271-.266.541-.51.812-.758" fill="#fff"/>
  <path id="Path_31" data-name="Path 31" d="M4.951,49.6a4.3,4.3,0,0,0,.658.4,10.013,10.013,0,0,0,1.5.6c.66.211,1.336.381,2.012.527a43.91,43.91,0,0,0,5.271.768c2.148.2,4.312.282,6.469.282s4.321-.086,6.469-.282a43.907,43.907,0,0,0,5.266-.774q1.018-.214,2.012-.527a10.01,10.01,0,0,0,1.5-.6c.389-.2,1.165-.649,1.165-1.164s-.776-.966-1.165-1.165a9.983,9.983,0,0,0-1.5-.6q-.993-.312-2.012-.527a40.79,40.79,0,0,0-4.093-.649c.323.094.643.2.959.312a8.164,8.164,0,0,1,1.315.6c.342.2,1.023.648,1.023,1.165s-.681.966-1.023,1.165a8.187,8.187,0,0,1-1.315.6,17.161,17.161,0,0,1-1.767.526,34.287,34.287,0,0,1-4.628.768,57.361,57.361,0,0,1-11.361,0,34.288,34.288,0,0,1-4.628-.768,17.175,17.175,0,0,1-1.767-.526c-.121-.044-.242-.09-.363-.139" fill="#f2a500"/>
  <path id="Path_32" data-name="Path 32" d="M20.858,45.422A58.515,58.515,0,0,0,9.1,46.474c-2.929.633-4.74,1.472-4.74,2.368S6.172,50.578,9.1,51.21a66.282,66.282,0,0,0,23.515,0c2.929-.633,4.74-1.472,4.74-2.368s-1.812-1.736-4.74-2.368a58.517,58.517,0,0,0-11.758-1.052m-11.836.691a66.579,66.579,0,0,1,23.671,0c3.109.672,5.032,1.634,5.032,2.729S35.8,50.9,32.692,51.571a66.6,66.6,0,0,1-23.671,0c-3.109-.672-5.032-1.635-5.032-2.729s1.923-2.057,5.032-2.729m11.652,7.362a.185.185,0,1,1,.37,0v3.067a.185.185,0,1,1-.37,0ZM6.139,51.49a.185.185,0,0,1,.37,0v3.136a.185.185,0,1,1-.37,0Zm2.907.847a.185.185,0,1,1,.37,0V55.5a.185.185,0,1,1-.37,0Zm2.907.539a.185.185,0,0,1,.37,0v3.132a.185.185,0,1,1-.37,0Zm2.906.344a.185.185,0,0,1,.37,0v3.1a.185.185,0,1,1-.37,0Zm2.907.193a.185.185,0,1,1,.37,0v3.078a.185.185,0,1,1-.37,0ZM35.207,51.49a.185.185,0,1,1,.37,0v3.136a.185.185,0,0,1-.37,0Zm-2.907.847a.185.185,0,0,1,.37,0V55.5a.185.185,0,1,1-.37,0Zm-2.907.539a.185.185,0,1,1,.37,0v3.132a.185.185,0,1,1-.37,0Zm-2.906.344a.185.185,0,1,1,.37,0v3.1a.185.185,0,1,1-.37,0Zm-2.907.193a.185.185,0,1,1,.37,0v3.078a.185.185,0,1,1-.37,0Z" fill="#b33d2f"/>
  <path id="Path_33" data-name="Path 33" d="M24.009,39.42c-9.214,0-16.683,1.614-16.683,3.6v5.125c0,1.991,7.469,3.6,16.683,3.6s16.683-1.614,16.683-3.6V43.02c0-1.991-7.469-3.6-16.683-3.6" fill="#ffd112"/>
  <path id="Path_34" data-name="Path 34" d="M7.326,46.05v2.1a1.4,1.4,0,0,0,.726,1.05l.231-.05c-.554-.594-.671-1.111-.772-3.1Z" fill="#fff"/>
  <path id="Path_35" data-name="Path 35" d="M24.007,39.688c-2.157,0-4.321.086-6.469.282a43.943,43.943,0,0,0-5.271.767c-.677.146-1.353.316-2.012.527a10.041,10.041,0,0,0-1.5.6c-.389.2-1.165.648-1.165,1.165V45.7a30.793,30.793,0,0,0,8.27,1.18c0,.453.667,2.818-1.242,3.011a12.049,12.049,0,0,1-6.212-.775c.128.079.251.145.349.2a9.961,9.961,0,0,0,1.5.6c.659.211,1.336.381,2.012.527a43.943,43.943,0,0,0,5.271.768c2.148.2,4.312.282,6.469.282s4.321-.086,6.469-.282a43.961,43.961,0,0,0,5.271-.768q1.018-.215,2.012-.527a9.956,9.956,0,0,0,1.5-.6c.389-.2,1.165-.648,1.165-1.164V43.027c0-.516-.776-.966-1.165-1.165a10.037,10.037,0,0,0-1.5-.6q-.993-.312-2.012-.527a43.962,43.962,0,0,0-5.271-.767q-3.226-.291-6.469-.282" fill="#f2a500"/>
  <path id="Path_36" data-name="Path 36" d="M24.009,39.606a58.5,58.5,0,0,0-11.758,1.052c-2.929.633-4.74,1.472-4.74,2.368v5.126c0,.9,1.812,1.735,4.74,2.368a66.274,66.274,0,0,0,23.515,0c2.929-.633,4.741-1.473,4.741-2.368V43.027c0-.9-1.812-1.735-4.741-2.368a58.5,58.5,0,0,0-11.758-1.052m-11.836.69a66.6,66.6,0,0,1,23.671,0c3.109.672,5.032,1.635,5.032,2.729v5.126c0,1.1-1.923,2.057-5.032,2.729a66.572,66.572,0,0,1-23.671,0c-3.109-.672-5.032-1.634-5.032-2.729V43.027c0-1.094,1.923-2.058,5.032-2.729" fill="#b33d2f"/>
  <path id="Path_37" data-name="Path 37" d="M24.009,46.629c9.188,0,16.683-1.619,16.683-3.6s-7.494-3.6-16.683-3.6-16.683,1.619-16.683,3.6,7.494,3.6,16.683,3.6" fill="#f2a500"/>
  <path id="Path_38" data-name="Path 38" d="M24.009,39.606a58.5,58.5,0,0,0-11.758,1.052c-2.929.633-4.74,1.472-4.74,2.368s1.812,1.736,4.74,2.368a66.267,66.267,0,0,0,23.515,0c2.929-.633,4.741-1.472,4.741-2.368s-1.812-1.735-4.741-2.368a58.5,58.5,0,0,0-11.758-1.052m-11.836.69a66.6,66.6,0,0,1,23.671,0c3.109.672,5.032,1.635,5.032,2.729s-1.923,2.057-5.032,2.729a66.587,66.587,0,0,1-23.671,0C9.063,45.082,7.14,44.12,7.14,43.025s1.923-2.058,5.032-2.729m11.652,7.362a.185.185,0,1,1,.37,0v3.067a.185.185,0,1,1-.37,0ZM9.29,45.673a.185.185,0,1,1,.37,0v3.136a.185.185,0,1,1-.37,0Zm2.907.847a.185.185,0,0,1,.37,0v3.164a.185.185,0,1,1-.37,0Zm2.907.538a.185.185,0,0,1,.37,0V50.19a.185.185,0,1,1-.37,0Zm2.907.344a.185.185,0,1,1,.37,0v3.1a.185.185,0,1,1-.37,0Zm2.907.194a.185.185,0,1,1,.37,0v3.078a.185.185,0,1,1-.37,0Zm17.44-1.923a.185.185,0,0,1,.37,0V48.81a.185.185,0,1,1-.37,0Zm-2.907.847a.185.185,0,0,1,.37,0v3.164a.185.185,0,1,1-.37,0Zm-2.907.538a.185.185,0,0,1,.37,0V50.19a.185.185,0,1,1-.37,0Zm-2.907.344a.185.185,0,1,1,.37,0v3.1a.185.185,0,1,1-.37,0Zm-2.907.2a.185.185,0,1,1,.37,0v3.078a.185.185,0,0,1-.37,0Z" fill="#b33d2f"/>
  <path id="Path_39" data-name="Path 39" d="M17.147,33.467c-9.214,0-16.683,1.614-16.683,3.6v5.125c0,1.99,7.469,3.6,16.683,3.6s16.683-1.615,16.683-3.6V37.067c0-1.991-7.469-3.6-16.683-3.6" fill="#ffd112"/>
  <path id="Path_40" data-name="Path 40" d="M2.766,35.244C1.3,35.78.466,36.4.466,37.072V42.2a1.312,1.312,0,0,0,.629.984v-4.2A35.2,35.2,0,0,0,14.6,40.824Z" fill="#fff"/>
  <path id="Path_41" data-name="Path 41" d="M15.6,39.329h6.765v5.317l-7.946-.591c.767-.21,1.244-.756,1.18-1.932Z" fill="#f2a500"/>
  <path id="Path_42" data-name="Path 42" d="M17.146,33.735c-2.157,0-4.321.086-6.469.282a44.067,44.067,0,0,0-5.271.768q-1.018.215-2.012.526a10.04,10.04,0,0,0-1.5.6c-.389.2-1.165.648-1.165,1.165v.572a6.947,6.947,0,0,1,.958-.375c.445-.142.9-.257,1.359-.356A29.709,29.709,0,0,1,6.605,36.4c1.451-.133,2.912-.191,4.368-.191s2.918.058,4.369.191a29.712,29.712,0,0,1,3.559.518c.457.1.913.214,1.359.356a6.758,6.758,0,0,1,1.011.4c.263.134.787.438.787.786v3.46c0,.348-.524.652-.787.786a6.746,6.746,0,0,1-1.011.4c-.445.142-.9.257-1.359.356a29.762,29.762,0,0,1-3.559.518c-1.451.133-2.912.191-4.369.191S8.055,44.113,6.6,43.98a29.76,29.76,0,0,1-3.559-.518q-.688-.146-1.359-.356-.234-.072-.463-.161a4.261,4.261,0,0,0,.671.417,10,10,0,0,0,1.5.6c.66.211,1.335.381,2.012.527a44,44,0,0,0,5.271.768c2.148.2,4.312.282,6.469.282s4.321-.086,6.469-.282a44,44,0,0,0,5.271-.768q1.018-.214,2.012-.527a10,10,0,0,0,1.5-.6c.389-.2,1.165-.648,1.165-1.164V37.073c0-.516-.776-.966-1.165-1.165a10.042,10.042,0,0,0-1.5-.6Q29.9,35,28.882,34.782a44.076,44.076,0,0,0-5.271-.768q-3.226-.291-6.469-.282" fill="#f2a500"/>
  <path id="Path_43" data-name="Path 43" d="M17.147,33.652A58.527,58.527,0,0,0,5.389,34.7C2.46,35.336.648,36.175.648,37.072V42.2c0,.9,1.812,1.735,4.741,2.368a66.244,66.244,0,0,0,23.515,0c2.929-.633,4.74-1.472,4.74-2.368V37.074c0-.9-1.812-1.736-4.74-2.369a58.526,58.526,0,0,0-11.758-1.051m-11.836.69a66.609,66.609,0,0,1,23.671,0c3.109.672,5.032,1.635,5.032,2.73V42.2c0,1.1-1.923,2.057-5.032,2.729a66.586,66.586,0,0,1-23.671,0C2.2,44.256.278,43.294.278,42.2V37.074c0-1.1,1.923-2.058,5.032-2.73" fill="#b33d2f"/>
  <path id="Path_44" data-name="Path 44" d="M17.147,40.677c9.189,0,16.683-1.619,16.683-3.6s-7.494-3.6-16.683-3.6S.464,35.1.464,37.077s7.494,3.6,16.683,3.6" fill="#ffd112"/>
  <path id="Path_45" data-name="Path 45" d="M6.76,34.251c-3.837.66-6.3,1.678-6.3,2.821a.892.892,0,0,0,.125.441l.237.042C.6,36.636,2.081,35.521,5.5,35.03c.368.155.735.411,1.1.566Z" fill="#fff"/>
  <path id="Path_46" data-name="Path 46" d="M1.216,37.812a4.238,4.238,0,0,0,.681.425,10.013,10.013,0,0,0,1.5.6c.659.211,1.335.381,2.012.527a44.023,44.023,0,0,0,5.271.767c2.148.2,4.313.282,6.469.282s4.321-.086,6.469-.282a44.027,44.027,0,0,0,5.271-.767q1.018-.214,2.012-.527a10.013,10.013,0,0,0,1.5-.6c.389-.2,1.165-.648,1.165-1.164s-.776-.966-1.165-1.165a10.028,10.028,0,0,0-1.5-.6c-.66-.21-1.336-.38-2.012-.526q-1.652-.351-3.33-.558c.317.082.633.172.944.271a9.223,9.223,0,0,1,1.387.552c.36.184,1.078.6,1.078,1.078s-.718.894-1.078,1.078a9.261,9.261,0,0,1-1.387.551,18.681,18.681,0,0,1-1.863.488,40.744,40.744,0,0,1-4.879.711c-1.989.182-3.992.261-5.989.261s-4-.079-5.989-.261A40.744,40.744,0,0,1,2.9,38.242q-.853-.18-1.688-.433" fill="#f2a500"/>
  <path id="Path_47" data-name="Path 47" d="M17.147,33.652A58.527,58.527,0,0,0,5.389,34.7C2.46,35.336.648,36.175.648,37.072S2.46,38.808,5.389,39.44a66.282,66.282,0,0,0,23.515,0c2.929-.633,4.74-1.473,4.74-2.368S31.832,35.336,28.9,34.7a58.528,58.528,0,0,0-11.758-1.051m-11.836.69a66.609,66.609,0,0,1,23.671,0c3.109.672,5.032,1.635,5.032,2.73s-1.919,2.06-5.028,2.731a66.6,66.6,0,0,1-23.671,0C2.2,39.129.278,38.167.278,37.072S2.2,35.014,5.31,34.342M16.962,41.7a.185.185,0,1,1,.37,0v3.067a.185.185,0,1,1-.37,0ZM2.428,39.72a.185.185,0,1,1,.37,0v3.137a.185.185,0,1,1-.37,0Zm2.907.847a.185.185,0,0,1,.37,0V43.73a.185.185,0,1,1-.37,0Zm2.907.538a.185.185,0,1,1,.37,0v3.132a.185.185,0,1,1-.37,0Zm2.907.344a.185.185,0,1,1,.37,0v3.1a.185.185,0,1,1-.37,0Zm2.907.193a.185.185,0,1,1,.37,0v3.079a.185.185,0,1,1-.37,0ZM31.5,39.719a.185.185,0,1,1,.37,0v3.137a.185.185,0,1,1-.37,0Zm-2.907.847a.185.185,0,1,1,.37,0v3.163a.185.185,0,1,1-.37,0Zm-2.907.538a.185.185,0,1,1,.37,0v3.132a.185.185,0,1,1-.37,0Zm-2.907.344a.185.185,0,1,1,.37,0v3.1a.185.185,0,1,1-.37,0Zm-2.907.193a.185.185,0,1,1,.37,0V44.72a.185.185,0,1,1-.37,0Z" fill="#b33d2f"/>
  <path id="Path_48" data-name="Path 48" d="M22.375,27.57c-9.214,0-16.683,1.614-16.683,3.6v5.125c0,1.991,7.469,3.6,16.683,3.6s16.683-1.614,16.683-3.6V31.17c0-1.991-7.469-3.6-16.683-3.6" fill="#ffd112"/>
  <path id="Path_49" data-name="Path 49" d="M5.692,31.293V36.3a1.231,1.231,0,0,0,.537.91V32.86c3.453,1.8,7.96,2.045,12.72,2.028l-11.8-4.075Z" fill="#fff"/>
  <path id="Path_50" data-name="Path 50" d="M20.949,39.894q.7.013,1.424.013c9.214,0,16.683-1.614,16.683-3.6V31.182c0-1.117-2.351-2.115-6.041-2.776H20.238v7.519a2.554,2.554,0,0,1-2.152,2.719A4.482,4.482,0,0,1,20.949,39.9" fill="#f2a500"/>
  <path id="Path_51" data-name="Path 51" d="M6.309,36.927a3.792,3.792,0,0,0,.816.54,10.006,10.006,0,0,0,1.5.6c.659.211,1.335.381,2.012.527a44.023,44.023,0,0,0,5.271.767c2.148.2,4.312.282,6.469.282s4.321-.086,6.469-.282a44.022,44.022,0,0,0,5.27-.767q1.018-.214,2.012-.527a10.009,10.009,0,0,0,1.5-.6c.389-.2,1.165-.648,1.165-1.164V31.178c0-.516-.776-.966-1.165-1.164a8.727,8.727,0,0,0-.982-.421.91.91,0,0,1,.349.625v5.125c0,.516-.776.966-1.165,1.164a9.972,9.972,0,0,1-1.5.6c-.66.211-1.336.381-2.012.527a44.053,44.053,0,0,1-5.271.768c-2.148.2-4.312.282-6.469.282s-4.321-.086-6.469-.282a44.053,44.053,0,0,1-5.271-.768q-1.018-.214-2.012-.527-.26-.083-.516-.176" fill="#f2a500"/>
  <path id="Path_52" data-name="Path 52" d="M22.375,27.758a58.513,58.513,0,0,0-11.758,1.051c-2.929.633-4.74,1.472-4.74,2.368V36.3c0,.9,1.811,1.735,4.74,2.368a66.259,66.259,0,0,0,23.515,0c2.929-.633,4.74-1.472,4.74-2.368V31.177c0-.9-1.811-1.736-4.74-2.368a58.518,58.518,0,0,0-11.758-1.051m-11.835.69a66.6,66.6,0,0,1,23.671,0c3.109.672,5.032,1.635,5.032,2.729V36.3c0,1.1-1.923,2.057-5.032,2.729a66.59,66.59,0,0,1-23.671,0C7.43,38.359,5.507,37.4,5.507,36.3V31.177c0-1.095,1.923-2.058,5.032-2.729" fill="#b33d2f"/>
  <path id="Path_53" data-name="Path 53" d="M22.375,34.781c9.189,0,16.683-1.619,16.683-3.6s-7.494-3.6-16.683-3.6S5.692,29.2,5.692,31.181s7.494,3.6,16.683,3.6" fill="#ffd112"/>
  <path id="Path_54" data-name="Path 54" d="M9.64,28.849c-2.462.628-3.948,1.441-3.948,2.328a.814.814,0,0,0,.023.191l.162.053c.259-.839,1.365-1.411,3.3-1.723Z" fill="#fff"/>
  <path id="Path_55" data-name="Path 55" d="M6.1,31.569a3,3,0,0,0,1.024.772,10,10,0,0,0,1.5.6c.659.211,1.336.381,2.012.527a44.058,44.058,0,0,0,5.271.768c2.148.2,4.312.282,6.469.282s4.321-.086,6.469-.282a44.061,44.061,0,0,0,5.27-.768q1.018-.214,2.012-.527a10.017,10.017,0,0,0,1.5-.6c.389-.2,1.165-.648,1.165-1.164s-.776-.966-1.165-1.165a8.626,8.626,0,0,0-.946-.408.691.691,0,0,1,.141.393c0,.516-.776.966-1.165,1.164a10.016,10.016,0,0,1-1.5.6c-.659.211-1.336.381-2.012.527a44.046,44.046,0,0,1-5.271.768c-2.148.2-4.313.282-6.469.282s-4.321-.086-6.469-.282a44.056,44.056,0,0,1-5.271-.768q-1.018-.215-2.012-.527-.277-.089-.551-.188" fill="#f2a500"/>
  <path id="Path_56" data-name="Path 56" d="M22.375,27.758a58.513,58.513,0,0,0-11.758,1.051c-2.929.633-4.74,1.472-4.74,2.368s1.811,1.735,4.74,2.368a66.271,66.271,0,0,0,23.515,0c2.929-.633,4.74-1.472,4.74-2.368s-1.811-1.736-4.74-2.368a58.518,58.518,0,0,0-11.758-1.051m-11.835.69a66.6,66.6,0,0,1,23.671,0c3.109.672,5.032,1.635,5.032,2.729s-1.923,2.058-5.032,2.729a66.6,66.6,0,0,1-23.671,0c-3.109-.672-5.032-1.635-5.032-2.729s1.923-2.058,5.032-2.729m11.649,7.363a.185.185,0,1,1,.37,0v3.068a.185.185,0,1,1-.37,0ZM7.654,33.826a.185.185,0,1,1,.37,0v3.137a.185.185,0,1,1-.37,0Zm2.907.847a.185.185,0,1,1,.37,0v3.164a.185.185,0,1,1-.37,0Zm2.907.538a.185.185,0,1,1,.37,0v3.132a.185.185,0,1,1-.37,0Zm2.907.344a.185.185,0,1,1,.37,0v3.1a.185.185,0,1,1-.37,0Zm2.907.193a.185.185,0,1,1,.37,0v3.079a.185.185,0,1,1-.37,0Zm17.441-1.923a.185.185,0,0,1,.37,0v3.137a.185.185,0,1,1-.37,0Zm-2.907.847a.185.185,0,0,1,.37,0v3.164a.185.185,0,1,1-.37,0Zm-2.907.538a.185.185,0,1,1,.37,0v3.132a.185.185,0,1,1-.37,0ZM28,35.554a.185.185,0,1,1,.37,0v3.1a.185.185,0,1,1-.37,0Zm-2.907.193a.185.185,0,1,1,.37,0v3.079a.185.185,0,1,1-.37,0Z" fill="#b33d2f"/>
  <path id="Path_57" data-name="Path 57" d="M24.511,20.684c-9.214,0-16.683,1.614-16.683,3.6v5.125c0,1.991,7.469,3.6,16.683,3.6s16.683-1.614,16.683-3.6V24.284c0-1.991-7.469-3.6-16.683-3.6" fill="#ffd112"/>
  <path id="Path_58" data-name="Path 58" d="M8.19,23.539a1.087,1.087,0,0,0-.362.75v5.125a1.317,1.317,0,0,0,.637.99V26.1c6.525,2.6,14.81,2.809,24.4,1.494l.182-.872L16.6,22.462l-.082-.007Z" fill="#fff"/>
  <path id="Path_59" data-name="Path 59" d="M10.573,31.116l.187.061c.659.211,1.335.38,2.012.527a44.041,44.041,0,0,0,5.271.767c2.148.2,4.312.282,6.469.282s4.321-.086,6.469-.282a44.032,44.032,0,0,0,5.271-.767q1.018-.214,2.012-.527a10,10,0,0,0,1.5-.6c.389-.2,1.165-.648,1.165-1.165V24.287c0-.516-.776-.966-1.165-1.165a10.005,10.005,0,0,0-1.5-.6q-.993-.312-2.012-.527-1.574-.335-3.171-.538a9.474,9.474,0,0,1,1.311.535c.389.2,1.165.648,1.165,1.165v5.125c0,.516-.776.966-1.165,1.165a10,10,0,0,1-1.5.6c-.659.211-1.336.381-2.012.527a44.021,44.021,0,0,1-5.271.768c-2.148.2-4.312.282-6.469.282s-4.321-.086-6.469-.282c-.7-.064-1.4-.139-2.1-.23" fill="#f2a500"/>
  <path id="Path_60" data-name="Path 60" d="M24.509,20.869a58.517,58.517,0,0,0-11.756,1.054c-2.929.633-4.74,1.472-4.74,2.368v5.125c0,.9,1.811,1.736,4.74,2.369a66.278,66.278,0,0,0,23.515,0c2.929-.633,4.74-1.472,4.74-2.369V24.291c0-.9-1.812-1.736-4.74-2.368A58.517,58.517,0,0,0,24.51,20.872m-11.835.69a66.6,66.6,0,0,1,23.671,0c3.109.672,5.032,1.635,5.032,2.729v5.125c0,1.095-1.923,2.058-5.032,2.73a66.613,66.613,0,0,1-23.671,0c-3.109-.672-5.032-1.635-5.032-2.73V24.291c0-1.095,1.923-2.058,5.032-2.729" fill="#b33d2f"/>
  <path id="Path_61" data-name="Path 61" d="M24.511,27.893c9.189,0,16.683-1.619,16.683-3.6s-7.494-3.6-16.683-3.6-16.683,1.619-16.683,3.6,7.494,3.6,16.683,3.6" fill="#ffd112"/>
  <path id="Path_62" data-name="Path 62" d="M24.511,20.684c-9.214,0-16.683,1.614-16.683,3.6a.869.869,0,0,0,.1.394l.172-.053c.121-1.945,7.165-3.091,18.623-3.729v-.185q-1.086-.031-2.213-.032" fill="#fff"/>
  <path id="Path_63" data-name="Path 63" d="M9.2,25.424l.057.029a10.017,10.017,0,0,0,1.5.6c.659.211,1.336.381,2.012.527a44.048,44.048,0,0,0,5.271.768c2.148.2,4.312.282,6.469.282s4.321-.086,6.469-.282a44.041,44.041,0,0,0,5.271-.768q1.018-.214,2.012-.527a10.026,10.026,0,0,0,1.5-.6c.389-.2,1.165-.648,1.165-1.165s-.776-.966-1.165-1.165a10.013,10.013,0,0,0-1.5-.6q-.993-.312-2.012-.527l-.412-.086-3.566,3.422A43.964,43.964,0,0,1,27,26.1c-2.148.2-4.312.282-6.469.282S16.21,26.3,14.062,26.1A45.338,45.338,0,0,1,9.2,25.419" fill="#f2a500"/>
  <path id="Path_64" data-name="Path 64" d="M24.509,20.869a58.517,58.517,0,0,0-11.756,1.054c-2.929.633-4.74,1.472-4.74,2.368s1.811,1.735,4.74,2.368a66.267,66.267,0,0,0,23.515,0c2.929-.633,4.74-1.472,4.74-2.368s-1.812-1.736-4.74-2.368A58.517,58.517,0,0,0,24.51,20.872m-11.835.69a66.6,66.6,0,0,1,23.671,0c3.109.672,5.032,1.635,5.032,2.729s-1.923,2.058-5.032,2.729a66.6,66.6,0,0,1-23.671,0c-3.109-.672-5.032-1.634-5.032-2.729s1.923-2.058,5.032-2.729m11.652,7.36a.185.185,0,0,1,.37,0v3.066a.185.185,0,0,1-.37,0ZM9.791,26.937a.185.185,0,0,1,.37,0v3.137a.185.185,0,1,1-.37,0Zm2.907.847a.185.185,0,0,1,.37,0v3.163a.185.185,0,0,1-.37,0Zm2.907.538a.185.185,0,0,1,.37,0v3.132a.185.185,0,0,1-.37,0Zm2.906.344a.185.185,0,0,1,.37,0v3.1a.185.185,0,0,1-.37,0Zm2.907.193a.185.185,0,1,1,.37,0v3.079a.185.185,0,0,1-.37,0Zm17.44-1.923a.185.185,0,0,1,.37,0v3.136a.185.185,0,1,1-.37,0Zm-2.907.847a.185.185,0,0,1,.37,0v3.163a.185.185,0,1,1-.37,0Zm-2.907.538a.185.185,0,0,1,.37,0v3.132a.185.185,0,1,1-.37,0Zm-2.907.344a.185.185,0,0,1,.37,0v3.1a.185.185,0,0,1-.37,0Zm-2.907.193a.185.185,0,1,1,.37,0v3.079a.185.185,0,0,1-.37,0Z" fill="#b33d2f"/>
  <path id="Path_65" data-name="Path 65" d="M49.328,29.31l2.8.752a13.4,13.4,0,1,1-6.937,25.89l-2.8-.751a13.4,13.4,0,0,1,6.937-25.89" fill="#cd900f"/>
  <path id="Path_66" data-name="Path 66" d="M33.052,45.171a13.145,13.145,0,0,0,9.408,9.77l2.8.752A13.134,13.134,0,0,0,60.37,37.061a13.136,13.136,0,0,1-16.207,15.6l-2.805-.752a13.092,13.092,0,0,1-7.975-6.119q-.177-.307-.336-.621" fill="#a87300"/>
  <path id="Path_67" data-name="Path 67" d="M49.376,29.132l2.8.751a13.586,13.586,0,1,1-7.032,26.246l-2.8-.751a13.586,13.586,0,0,1-9.613-16.614l.006-.024a13.586,13.586,0,0,1,16.614-9.614Zm2.709,1.108L49.3,29.5l-.024-.006a13.215,13.215,0,0,0-6.842,25.53l2.8.752a13.217,13.217,0,0,0,6.843-25.533" fill="#b33d2f"/>
  <path id="Path_68" data-name="Path 68" d="M47.191,42.8a.185.185,0,0,1,.1-.357l13.476,3.611a.185.185,0,1,1-.1.357ZM44.259,30.14a.185.185,0,1,1,.1-.357l12.068,3.234a.185.185,0,0,1-.1.357Zm2.049,3.518,13.261,3.553a.185.185,0,0,0,.1-.357L46.408,33.3a.185.185,0,0,0-.1.357M47.35,36.9a.185.185,0,0,1,.1-.357l13.454,3.6a.185.185,0,0,1-.1.357Zm.259,3.039,13.479,3.612a.185.185,0,1,0,.1-.356L47.709,39.589a.185.185,0,0,0-.1.357M38.321,52.3a.185.185,0,1,1,.1-.357l12.068,3.234a.185.185,0,1,1-.1.357Zm3.533-2.022,13.261,3.554a.185.185,0,0,0,.1-.357L41.954,49.924a.185.185,0,1,0-.1.357m2.526-2.292a.185.185,0,0,1,.1-.357l13.454,3.6a.185.185,0,0,1-.1.357Zm1.744-2.5L59.6,49.1a.185.185,0,0,0,.1-.357L46.22,45.131a.185.185,0,1,0-.1.357" fill="#b33d2f"/>
  <path id="Path_69" data-name="Path 69" d="M49.328,29.31a13.4,13.4,0,1,1-16.413,9.476A13.4,13.4,0,0,1,49.328,29.31" fill="#ffd112"/>
  <path id="Path_70" data-name="Path 70" d="M49.328,29.31a13.338,13.338,0,0,1,6.52,4.009q.062.145.121.292A13.7,13.7,0,0,0,32.6,43.325q0,.641.058,1.268a13.405,13.405,0,0,1,16.67-15.282" fill="#fff"/>
  <path id="Path_71" data-name="Path 71" d="M33.213,38.71l-.04.145A13.132,13.132,0,1,0,56.314,34.3a12.136,12.136,0,1,1-23.1,4.406" fill="#f2a500"/>
  <path id="Path_72" data-name="Path 72" d="M49.351,29.125l.024.007a13.588,13.588,0,0,1,9.614,16.615l-.007.024a13.587,13.587,0,0,1-16.615,9.613l-.024-.007A13.586,13.586,0,0,1,32.73,38.763l.006-.024A13.587,13.587,0,0,1,49.35,29.125m7.955,6.521a13.214,13.214,0,1,0,1.321,10.028,13.214,13.214,0,0,0-1.321-10.028Z" fill="#b33d2f"/>
  <path id="Path_73" data-name="Path 73" d="M48.578,32.114a10.5,10.5,0,1,1-12.857,7.423,10.5,10.5,0,0,1,12.857-7.423" fill="#ffd112"/>
  <path id="Path_74" data-name="Path 74" d="M55.067,37.213a10.5,10.5,0,0,1-5.2,14.744l-.277-.087c5.4-3.164,7.707-7.81,5.2-14.772Z" fill="#fff"/>
  <path id="Path_75" data-name="Path 75" d="M48.509,32.373A10.233,10.233,0,0,0,35.8,44.132,10.5,10.5,0,0,1,54.517,36.8a10.194,10.194,0,0,0-6.008-4.429" fill="#f2a500"/>
  <path id="Path_76" data-name="Path 76" d="M48.426,52.436A10.5,10.5,0,0,1,37.658,35.7,12.142,12.142,0,0,1,48.426,52.436" fill="#f2a500"/>
  <path id="Path_78" data-name="Path 78" d="M44.31,45.676l.854-3.185a4.732,4.732,0,0,1-2.009-1.918,3.194,3.194,0,0,1-.19-2.3A2.945,2.945,0,0,1,44.376,36.4a3.639,3.639,0,0,1,2.518-.373l.2-.749,1.2.321-.2.749a3.841,3.841,0,0,1,1.874,1.388,3.223,3.223,0,0,1,.5,2.091l-2.16-.311a1.639,1.639,0,0,0-.67-1.484L46.838,41A5.687,5.687,0,0,1,49.2,43a2.973,2.973,0,0,1,.179,2.213A3.33,3.33,0,0,1,47.853,47.3a4.35,4.35,0,0,1-2.835.5l-.381,1.42-1.2-.321.376-1.4a4.109,4.109,0,0,1-2.046-1.59,4.013,4.013,0,0,1-.519-2.608l2.206.34a2.507,2.507,0,0,0,.214,1.18,2.3,2.3,0,0,0,.634.853m2.14-7.987a1.6,1.6,0,0,0-.906.32,1.331,1.331,0,0,0-.5.731,1.272,1.272,0,0,0,.056.817,1.838,1.838,0,0,0,.641.768Zm-.976,8.433a1.884,1.884,0,0,0,1.156-.275,1.457,1.457,0,0,0,.657-.889,1.313,1.313,0,0,0-.094-.964,2.2,2.2,0,0,0-.92-.854Z" fill="#b33d2f"/>
  <path id="Path_79" data-name="Path 79" d="M44.31,45.677l.854-3.185a4.735,4.735,0,0,1-2.009-1.917,3.406,3.406,0,0,1,.2-3.2,12.088,12.088,0,0,1,1.733,1.237,1.3,1.3,0,0,0-.042.132,1.273,1.273,0,0,0,.056.817,1.84,1.84,0,0,0,.641.768l.234-.874a12.127,12.127,0,0,1,.974,1.159l-.108.4q.342.188.638.376.115.184.224.373a12.124,12.124,0,0,1,1.463,4.077,3.25,3.25,0,0,1-1.31,1.468,4.353,4.353,0,0,1-2.835.5l-.381,1.419-1.2-.321.376-1.4a4.111,4.111,0,0,1-2.046-1.59,4.013,4.013,0,0,1-.519-2.608l2.206.34a2.506,2.506,0,0,0,.214,1.18,2.307,2.307,0,0,0,.634.853m1.165.446a1.886,1.886,0,0,0,1.156-.276,1.456,1.456,0,0,0,.657-.889A1.313,1.313,0,0,0,47.191,44a2.2,2.2,0,0,0-.92-.854Z" fill="#9c2517"/>
  <path id="Path_80" data-name="Path 80" d="M23.176.185h2.9a13.4,13.4,0,1,1,0,26.8h-2.9a13.4,13.4,0,1,1,0-26.8" fill="#cd900f"/>
  <path id="Path_81" data-name="Path 81" d="M11.428,19.464a13.133,13.133,0,0,0,11.748,7.258h2.9A13.134,13.134,0,0,0,36.428,5.505,13.138,13.138,0,0,1,24.68,24.515h-2.9a13.111,13.111,0,0,1-10.352-5.051" fill="#a87300"/>
  <path id="Path_82" data-name="Path 82" d="M23.175,0h2.9a13.587,13.587,0,1,1,0,27.174h-2.9A13.587,13.587,0,0,1,23.175,0m2.9.37h-2.9a13.217,13.217,0,1,0,0,26.434h2.9a13.217,13.217,0,0,0,0-26.434" fill="#b33d2f"/>
  <path id="Path_83" data-name="Path 83" d="M24.6,13.772a.185.185,0,0,1,0-.37H38.554a.185.185,0,1,1,0,.37ZM18.494,2.3a.185.185,0,0,1,0-.37H30.987a.185.185,0,1,1,0,.37Zm2.89,2.868a.185.185,0,0,1,0-.37H35.113a.185.185,0,1,1,0,.37Zm1.847,2.868a.185.185,0,0,1,0-.37H37.16a.185.185,0,1,1,0,.37ZM24.268,10.9a.185.185,0,0,1,0-.37H38.223a.185.185,0,1,1,0,.37Zm-5.774,14.34a.185.185,0,0,1,0-.37H30.987a.185.185,0,0,1,0,.37Zm2.889-2.868a.185.185,0,0,1,0-.37H35.112a.185.185,0,1,1,0,.37Zm1.847-2.868a.185.185,0,1,1,0-.37H37.159a.185.185,0,1,1,0,.37Zm1.037-2.868a.185.185,0,1,1,0-.37H38.222a.185.185,0,1,1,0,.37Z" fill="#b33d2f"/>
  <path id="Path_84" data-name="Path 84" d="M23.176,26.988a13.4,13.4,0,1,0-13.4-13.4,13.4,13.4,0,0,0,13.4,13.4" fill="#ffd112"/>
  <path id="Path_85" data-name="Path 85" d="M23.178.185A13.34,13.34,0,0,1,30.1,2.112l-.04.188c-9.619-4.431-17.6,1.188-19.86,8.8l-.15-.193A13.406,13.406,0,0,1,23.179.188" fill="#fff"/>
  <path id="Path_86" data-name="Path 86" d="M30.809,2.9A13.132,13.132,0,1,1,10.17,11.768,11.961,11.961,0,0,0,15.494,21.1l.085.086a10.747,10.747,0,0,0,18.346-7.6q0-.2-.007-.4A11.986,11.986,0,0,0,30.81,2.9" fill="#f2a500"/>
  <path id="Path_87" data-name="Path 87" d="M23.175,0a13.587,13.587,0,1,1-9.607,3.98A13.587,13.587,0,0,1,23.175,0m9.346,4.241a13.217,13.217,0,1,0,3.871,9.345,13.217,13.217,0,0,0-3.871-9.345" fill="#b33d2f"/>
  <path id="Path_88" data-name="Path 88" d="M23.176,24.085a10.5,10.5,0,1,0-10.5-10.5,10.5,10.5,0,0,0,10.5,10.5" fill="#ffd112"/>
  <path id="Path_89" data-name="Path 89" d="M32.947,9.731a10.5,10.5,0,0,1-17.5,10.957l.053-.216c8.064,7.6,20.447,0,17.208-10.833Z" fill="#fff"/>
  <path id="Path_90" data-name="Path 90" d="M23.177,3.357a10.228,10.228,0,0,1,9.006,5.375,10.231,10.231,0,0,0-17.37,10.747A10.231,10.231,0,0,1,23.177,3.358" fill="#f2a500"/>
  <path id="Path_91" data-name="Path 91" d="M23.175,2.9a10.682,10.682,0,1,1-7.554,3.129A10.682,10.682,0,0,1,23.175,2.9m7.292,3.39a10.313,10.313,0,1,0,3.02,7.292,10.313,10.313,0,0,0-3.02-7.292" fill="#b33d2f"/>
  <path id="Path_92" data-name="Path 92" d="M22.566,17.293v-3.3a4.736,4.736,0,0,1-2.437-1.332,3.193,3.193,0,0,1-.777-2.169,2.946,2.946,0,0,1,.879-2.169,3.644,3.644,0,0,1,2.335-1.012V6.536h1.24v.775a3.84,3.84,0,0,1,2.169.856A3.224,3.224,0,0,1,27,10.057l-2.167.258A1.639,1.639,0,0,0,23.8,9.055v3.077a5.685,5.685,0,0,1,2.8,1.324,2.975,2.975,0,0,1,.745,2.091,3.329,3.329,0,0,1-.938,2.4A4.351,4.351,0,0,1,23.8,19.164v1.47H22.56V19.181a4.108,4.108,0,0,1-2.388-1.007A4.013,4.013,0,0,1,19,15.789l2.219-.242a2.5,2.5,0,0,0,.512,1.085,2.3,2.3,0,0,0,.833.659m0-8.269a1.6,1.6,0,0,0-.792.544,1.332,1.332,0,0,0-.291.834,1.275,1.275,0,0,0,.265.775,1.841,1.841,0,0,0,.818.576Zm1.24,8.4a1.884,1.884,0,0,0,1.045-.565,1.456,1.456,0,0,0,.4-1.028,1.315,1.315,0,0,0-.341-.907,2.194,2.194,0,0,0-1.109-.587Z" fill="#b33d2f"/>
  <path id="Path_93" data-name="Path 93" d="M18.538,2.115c.223.386-.2,1.05-.95,1.482s-1.535.468-1.758.082.2-1.05.95-1.482,1.535-.469,1.759-.082" fill="#fff"/>
  <path id="Path_94" data-name="Path 94" d="M31.354,33.374h2.9a13.4,13.4,0,0,1,0,26.8h-2.9a13.4,13.4,0,0,1,0-26.8" fill="#cd900f"/>
  <path id="Path_95" data-name="Path 95" d="M34.259,59.908A13.135,13.135,0,0,0,45.371,39.772a13.141,13.141,0,0,1-12.59,16.881h-2.9a13.124,13.124,0,0,1-11.113-6.131,13.138,13.138,0,0,0,12.59,9.386Z" fill="#a87300"/>
  <path id="Path_96" data-name="Path 96" d="M31.355,33.189h2.9a13.586,13.586,0,1,1,0,27.173h-2.9a13.587,13.587,0,1,1,0-27.174m2.9.37h-2.9a13.217,13.217,0,1,0,0,26.433h2.9a13.217,13.217,0,1,0,0-26.433" fill="#b33d2f"/>
  <path id="Path_97" data-name="Path 97" d="M32.783,46.96a.185.185,0,1,1,0-.37H46.734a.185.185,0,0,1,0,.37ZM26.674,35.489a.185.185,0,0,1,0-.37H39.167a.185.185,0,0,1,0,.37Zm2.889,2.868a.185.185,0,0,1,0-.37H43.292a.185.185,0,1,1,0,.37Zm1.847,2.868a.185.185,0,0,1,0-.37H45.339a.185.185,0,1,1,0,.37Zm1.037,2.867a.185.185,0,1,1,0-.369H46.4a.185.185,0,1,1,0,.369ZM26.674,58.431a.185.185,0,1,1,0-.37H39.167a.185.185,0,0,1,0,.37Zm2.89-2.868a.185.185,0,0,1,0-.37H43.293a.185.185,0,1,1,0,.37Zm1.847-2.868a.185.185,0,0,1,0-.37H45.34a.185.185,0,1,1,0,.37Zm1.037-2.868a.185.185,0,1,1,0-.37H46.4a.185.185,0,0,1,0,.37Z" fill="#b33d2f"/>
  <path id="Path_98" data-name="Path 98" d="M31.354,60.181a13.4,13.4,0,1,0-13.4-13.4,13.4,13.4,0,0,0,13.4,13.4" fill="#ffd112"/>
  <path id="Path_99" data-name="Path 99" d="M31.354,33.374a13.408,13.408,0,0,1,3.917.582l.116.23C26.536,33.02,21,36.715,18.316,44.6l-.16-.16a13.4,13.4,0,0,1,13.2-11.063" fill="#fff"/>
  <path id="Path_100" data-name="Path 100" d="M36.149,34.544A13.131,13.131,0,1,1,18.341,44.991,11.5,11.5,0,1,0,36.149,34.544" fill="#f2a500"/>
  <path id="Path_101" data-name="Path 101" d="M31.356,33.189a13.587,13.587,0,1,1-9.607,3.98,13.587,13.587,0,0,1,9.607-3.98M40.7,37.43a13.216,13.216,0,1,0,3.871,9.345A13.216,13.216,0,0,0,40.7,37.43" fill="#b33d2f"/>
  <path id="Path_102" data-name="Path 102" d="M31.356,57.273a10.5,10.5,0,1,0-10.5-10.5,10.5,10.5,0,0,0,10.5,10.5" fill="#ffd112"/>
  <path id="Path_103" data-name="Path 103" d="M41.4,43.725a10.5,10.5,0,0,1-19.306,8c0-.05-.007-.1-.009-.15A10.5,10.5,0,0,0,41.219,43.52l.184.2" fill="#fff"/>
  <path id="Path_104" data-name="Path 104" d="M31.355,36.545a10.213,10.213,0,0,1,8.137,4.031A10.5,10.5,0,0,0,21.9,50.684a10.234,10.234,0,0,1,9.456-14.138" fill="#f2a500"/>
  <path id="Path_105" data-name="Path 105" d="M31.356,36.093A10.683,10.683,0,1,1,23.8,39.222a10.682,10.682,0,0,1,7.556-3.129m7.292,3.39a10.314,10.314,0,1,0,3.02,7.293,10.314,10.314,0,0,0-3.02-7.293" fill="#b33d2f"/>
  <path id="Path_106" data-name="Path 106" d="M30.743,50.481v-3.3a4.737,4.737,0,0,1-2.437-1.333,3.2,3.2,0,0,1-.778-2.17,2.944,2.944,0,0,1,.88-2.169A3.641,3.641,0,0,1,30.743,40.5v-.775h1.241V40.5a3.842,3.842,0,0,1,2.169.856,3.224,3.224,0,0,1,1.028,1.89l-2.166.258a1.639,1.639,0,0,0-1.031-1.26V45.32a5.686,5.686,0,0,1,2.8,1.324,2.974,2.974,0,0,1,.746,2.091,3.33,3.33,0,0,1-.938,2.4,4.353,4.353,0,0,1-2.609,1.217v1.47H30.742V52.366a4.107,4.107,0,0,1-2.388-1.007,4.015,4.015,0,0,1-1.176-2.385l2.219-.242a2.508,2.508,0,0,0,.513,1.084,2.3,2.3,0,0,0,.833.66m0-8.268a1.6,1.6,0,0,0-.792.543,1.333,1.333,0,0,0-.291.835,1.277,1.277,0,0,0,.265.775,1.842,1.842,0,0,0,.818.576Zm1.241,8.4a1.883,1.883,0,0,0,1.045-.565,1.456,1.456,0,0,0,.4-1.028,1.314,1.314,0,0,0-.341-.907,2.2,2.2,0,0,0-1.109-.587Z" fill="#b33d2f"/>
  <path id="Path_107" data-name="Path 107" d="M26.383,35.438c.206.357-.2.976-.9,1.381s-1.438.444-1.645.087.2-.976.9-1.381,1.438-.444,1.645-.086" fill="#fff"/>
  <path id="Path_108" data-name="Path 108" d="M53.578,19.812a14.146,14.146,0,0,1-1.08,1.11,13.635,13.635,0,0,1-6.35,3.33c-.08-.07-.17-.14-.25-.2-.09-.08-.18-.15-.27-.23a13.313,13.313,0,0,1-2.37-2.67,3.031,3.031,0,0,1-.24-.38A13.14,13.14,0,0,1,52.436.822l.52.49a.01.01,0,0,0,.01.01,13.673,13.673,0,0,1,2.46,3.48.031.031,0,0,0,.01.02,13.8,13.8,0,0,1-1.86,14.99" fill="#62b5a4"/>
  <path id="Path_109" data-name="Path 109" d="M45.745,24.082A13.353,13.353,0,0,0,56.3,8.676c.213,2.738-1.7,8.324-5.651,10.059s-6.947.18-8.682-3.777a7.816,7.816,0,0,1-.648-2.758,13.367,13.367,0,0,0,4.426,11.887Z" fill="#238c77"/>
  <path id="Path_110" data-name="Path 110" d="M55.728,5.882l-.01.49a12.518,12.518,0,0,0-3.85-4.92c-5.56.89-8.66,4.48-10.36,9.63a1.555,1.555,0,0,0-.08.23l-.11-.4c.04-.15.07-.32.12-.47-.03-.07-.07-.15-.1-.23A13.39,13.39,0,0,1,52.028.692a7.912,7.912,0,0,1,.93.62.01.01,0,0,0,.01.01,13.673,13.673,0,0,1,2.46,3.48.031.031,0,0,0,.01.02,6.131,6.131,0,0,1,.29,1.06" fill="#fff"/>
  <path id="Path_111" data-name="Path 111" d="M55.436,4.822a.031.031,0,0,1-.01-.02,13.673,13.673,0,0,0-2.458-3.48.01.01,0,0,1-.01-.01l-.522-.49-.05-.05-.128-.12-.17.03c-.02,0-.04.01-.06.01a13.39,13.39,0,0,0-10.692,9.52,13.213,13.213,0,0,0,.1,7.55,13.371,13.371,0,0,0,3.99,6.13,3.718,3.718,0,0,0,.37.3l.13.1.16-.03c.02,0,.04-.01.06-.01a13.635,13.635,0,0,0,6.35-3.33,14.145,14.145,0,0,0,1.08-1.11,13.8,13.8,0,0,0,1.86-14.99m.95,7.91a13.36,13.36,0,0,1-9.868,11.06c-.32-.08-.59-.14-.91-.22a13.064,13.064,0,0,1-3.83-5.92,12.709,12.709,0,0,1-.5-5.11c.01-.11.02-.21.04-.32a11.292,11.292,0,0,1,.19-1.14A12.956,12.956,0,0,1,52.136,1.032a13.137,13.137,0,0,1,3.58,5.34,13.37,13.37,0,0,1,.77,5.2c-.02.39-.05.77-.1,1.16" fill="#b33d2f"/>
  <path id="Path_112" data-name="Path 112" d="M45.325,25.684a.185.185,0,1,1-.356-.1L50.394,5.339a.185.185,0,1,1,.357.1Z" fill="#b33d2f"/>
  <path id="Path_113" data-name="Path 113" d="M48.811,12.461a.184.184,0,0,1-.319.183L45.251,7.03a.185.185,0,1,1,.312-.2l.007.012Zm-.9,3.372a.184.184,0,0,1-.183-.319l5.613-3.241a.184.184,0,0,1,.183.319Zm-.726,2.709a.185.185,0,1,1-.312.2l-.007-.012L43.62,13.111a.185.185,0,1,1,.312-.2l.007.012Z" fill="#b33d2f"/>
  <path id="Path_114" data-name="Path 114" d="M46.536,25.26a10.1,10.1,0,0,0,17.592-4.714A10.1,10.1,0,0,0,46.536,25.26" fill="#62b5a4"/>
  <path id="Path_115" data-name="Path 115" d="M63.51,19.888a10.1,10.1,0,0,0-16,2.57l-.041.5c4.008-6.329,10.822-7.061,16.006-2.851Z" fill="#fff"/>
  <path id="Path_116" data-name="Path 116" d="M46.823,25.18a9.833,9.833,0,0,0,17.013-4.559c-.088-.1-.178-.2-.269-.293A9.834,9.834,0,0,1,47.3,23.558a9.949,9.949,0,0,0-.475,1.622" fill="#238c77"/>
  <path id="Path_117" data-name="Path 117" d="M46.736,25.206a9.916,9.916,0,0,0,17.2-4.608,9.916,9.916,0,0,0-17.2,4.608m4.44,3.3a10.335,10.335,0,0,1-4.776-3.13.185.185,0,0,1-.043-.156,10.285,10.285,0,0,1,17.911-4.8.185.185,0,0,1,.043.156A10.286,10.286,0,0,1,52.3,28.786a10.127,10.127,0,0,1-1.127-.278" fill="#b33d2f"/>
  <path id="Path_118" data-name="Path 118" d="M45.193,25.81a.185.185,0,1,1-.1-.357l15.552-4.167a.185.185,0,0,1,.1.357Z" fill="#b33d2f"/>
  <path id="Path_119" data-name="Path 119" d="M55.354,23.032a.184.184,0,0,1-.319-.185l2.49-4.312a.184.184,0,1,1,.319.185Zm-2.649.71a.184.184,0,1,1,.171-.326l.012.007,4.313,2.49a.184.184,0,0,1-.184.319Zm-2.023.542a.184.184,0,1,1-.319-.185l2.49-4.312a.184.184,0,0,1,.319.185Z" fill="#b33d2f"/>
  <path id="Path_120" data-name="Path 120" d="M49.543,2.915c.281.486-.155,1.264-.974,1.737s-1.711.462-1.992-.025.155-1.264.974-1.737,1.711-.462,1.991.025" fill="#fff"/>
</svg>
