<svg width="42" height="49" viewBox="0 0 42 49" fill="none" xmlns="http://www.w3.org/2000/svg">
<g clip-path="url(#clip0_1_345)">
<path d="M13.132 36.1151C13.0872 35.9987 13.0086 35.8984 12.9063 35.8271C12.804 35.7558 12.6827 35.7168 12.558 35.7151H8.309C6.23582 35.7389 4.25511 36.5769 2.79421 38.0481C1.3333 39.5193 0.509311 41.5058 0.5 43.5791V47.4791C0.500264 47.6312 0.560824 47.7771 0.668413 47.8847C0.776001 47.9923 0.921847 48.0528 1.074 48.0531H16.864C16.9592 48.0501 17.0524 48.0253 17.1364 47.9805C17.2204 47.9357 17.293 47.8722 17.3485 47.7948C17.4041 47.7175 17.441 47.6283 17.4565 47.5344C17.472 47.4404 17.4657 47.3442 17.438 47.2531L13.132 36.1151ZM33.515 35.7711H29.266C29.1434 35.7806 29.0255 35.8228 28.9246 35.8931C28.8237 35.9634 28.7434 36.0594 28.692 36.1711L24.385 47.2541C24.3459 47.3451 24.331 47.4447 24.3418 47.5431C24.3525 47.6416 24.3884 47.7356 24.4462 47.8161C24.5039 47.8966 24.5815 47.9608 24.6713 48.0025C24.7612 48.0442 24.8603 48.0619 24.959 48.0541H40.749C40.9012 48.0538 41.047 47.9933 41.1546 47.8857C41.2622 47.7781 41.3227 47.6322 41.323 47.4801V43.5801C41.3211 41.5095 40.4979 39.5242 39.0338 38.06C37.5698 36.5958 35.5846 35.7722 33.514 35.7701L33.515 35.7711Z" fill="#FF5A00"/>
<path d="M6.242 18.2H3.888C3.49204 18.2 3.11229 18.3573 2.83229 18.6373C2.5523 18.9173 2.395 19.2971 2.395 19.693C2.395 20.089 2.5523 20.4688 2.83229 20.7488C3.11229 21.0287 3.49204 21.186 3.888 21.186H6.242C6.63797 21.186 7.01772 21.0287 7.29771 20.7488C7.57771 20.4688 7.735 20.089 7.735 19.693C7.735 19.2971 7.57771 18.9173 7.29771 18.6373C7.01772 18.3573 6.63797 18.2 6.242 18.2ZM20.883 5.28204C21.0795 5.2835 21.2743 5.24589 21.4561 5.17137C21.6379 5.09686 21.803 4.98694 21.942 4.84801C22.0809 4.70908 22.1908 4.54392 22.2653 4.36211C22.3398 4.18031 22.3775 3.98551 22.376 3.78904V1.48904C22.3769 1.2929 22.3389 1.09853 22.2642 0.917198C22.1894 0.735862 22.0794 0.571168 21.9405 0.432663C21.8017 0.294158 21.6367 0.184599 21.4551 0.110335C21.2736 0.0360722 21.0791 -0.00141708 20.883 4.09515e-05C20.6896 -0.00011711 20.4981 0.0388317 20.3201 0.114547C20.1421 0.190262 19.9813 0.301181 19.8472 0.440637C19.7132 0.580094 19.6087 0.745209 19.5401 0.926062C19.4715 1.10691 19.4402 1.29977 19.448 1.49304V3.84704C19.4539 4.22578 19.607 4.58734 19.8749 4.85518C20.1427 5.12302 20.5043 5.27611 20.883 5.28204ZM9.916 7.75104L8.251 6.08604C7.97475 5.82257 7.6064 5.67761 7.22468 5.68213C6.84295 5.68666 6.47814 5.8403 6.2082 6.11024C5.93827 6.38018 5.78462 6.74499 5.7801 7.12671C5.77557 7.50843 5.92054 7.87678 6.184 8.15304L7.849 9.81804C8.12823 10.0806 8.49876 10.2241 8.882 10.218C9.07246 10.2262 9.26254 10.1948 9.4403 10.126C9.61807 10.0571 9.77968 9.95231 9.915 9.81804C10.0515 9.68276 10.1599 9.52178 10.2338 9.34439C10.3078 9.16701 10.3458 8.97673 10.3458 8.78454C10.3458 8.59236 10.3078 8.40207 10.2338 8.22469C10.1599 8.0473 10.0515 7.88632 9.915 7.75104H9.916ZM20.883 36.057C20.4116 36.0594 19.9603 36.2477 19.627 36.581C19.2937 36.9143 19.1054 37.3657 19.103 37.837V46.047C19.103 46.5191 19.2905 46.9719 19.6244 47.3057C19.9582 47.6395 20.4109 47.827 20.883 47.827C21.3551 47.827 21.8078 47.6395 22.1417 47.3057C22.4755 46.9719 22.663 46.5191 22.663 46.047V37.837C22.6606 37.3657 22.4723 36.9143 22.139 36.581C21.8057 36.2477 21.3544 36.0594 20.883 36.057ZM35.639 6.08604C35.5037 5.94953 35.3427 5.84117 35.1654 5.76722C34.988 5.69327 34.7977 5.6552 34.6055 5.6552C34.4133 5.6552 34.223 5.69327 34.0457 5.76722C33.8683 5.84117 33.7073 5.94953 33.572 6.08604L31.907 7.75104C31.7705 7.88632 31.6621 8.0473 31.5882 8.22469C31.5142 8.40207 31.4762 8.59236 31.4762 8.78454C31.4762 8.97673 31.5142 9.16701 31.5882 9.34439C31.6621 9.52178 31.7705 9.68276 31.907 9.81804C32.1891 10.0765 32.5579 10.2199 32.9405 10.2199C33.3231 10.2199 33.6919 10.0765 33.974 9.81804L35.639 8.15304C35.7755 8.01776 35.8839 7.85678 35.9578 7.67939C36.0318 7.50201 36.0698 7.31173 36.0698 7.11954C36.0698 6.92736 36.0318 6.73708 35.9578 6.55969C35.8839 6.3823 35.7755 6.22132 35.639 6.08604ZM19.62 7.98104C15.027 8.49804 10.548 12.919 10.031 17.512C9.83368 19.133 9.99922 20.7776 10.5157 22.3267C11.0321 23.8758 11.8865 25.2907 13.017 26.469C14.2768 27.7804 14.9769 29.5306 14.969 31.349C14.9693 31.7905 15.1448 32.2139 15.457 32.5261C15.7692 32.8383 16.1925 33.0138 16.634 33.014H25.074C25.5155 33.0138 25.9389 32.8383 26.251 32.5261C26.5632 32.2139 26.7387 31.7905 26.739 31.349C26.732 29.5476 27.433 27.8155 28.691 26.526C29.6863 25.521 30.4727 24.3287 31.0047 23.0181C31.5368 21.7075 31.804 20.3045 31.791 18.89C31.8072 17.3431 31.4931 15.8104 30.8696 14.3945C30.2462 12.9787 29.3278 11.7121 28.1757 10.6795C27.0237 9.64696 25.6646 8.87211 24.1892 8.40676C22.7137 7.94141 21.156 7.79627 19.62 7.98104ZM22.376 23.2V27.219C22.376 27.615 22.2187 27.9948 21.9387 28.2747C21.6587 28.5547 21.279 28.712 20.883 28.712C20.487 28.712 20.1073 28.5547 19.8273 28.2747C19.5473 27.9948 19.39 27.615 19.39 27.219V23.2C18.581 23.0062 17.8574 22.5536 17.3289 21.9111C16.8005 21.2686 16.4961 20.4712 16.462 19.64C16.462 19.2441 16.6193 18.8643 16.8993 18.5843C17.1793 18.3043 17.559 18.147 17.955 18.147C18.351 18.147 18.7307 18.3043 19.0107 18.5843C19.2907 18.8643 19.448 19.2441 19.448 19.64C19.448 20.04 20.08 20.501 20.883 20.501C21.744 20.501 22.318 20.042 22.318 19.64C22.318 19.2441 22.4753 18.8643 22.7553 18.5843C23.0353 18.3043 23.415 18.147 23.811 18.147C24.207 18.147 24.5867 18.3043 24.8667 18.5843C25.1467 18.8643 25.304 19.2441 25.304 19.64C25.2699 20.4712 24.9655 21.2686 24.4371 21.9111C23.9086 22.5536 23.185 23.0062 22.376 23.2ZM37.876 18.2H35.524C35.128 18.2 34.7483 18.3573 34.4683 18.6373C34.1883 18.9173 34.031 19.2971 34.031 19.693C34.031 20.089 34.1883 20.4688 34.4683 20.7488C34.7483 21.0287 35.128 21.186 35.524 21.186H37.878C38.0745 21.1875 38.2693 21.1499 38.4511 21.0754C38.6329 21.0009 38.798 20.8909 38.937 20.752C39.0759 20.6131 39.1858 20.4479 39.2603 20.2661C39.3348 20.0843 39.3725 19.8895 39.371 19.693C39.3772 19.4953 39.3429 19.2984 39.2701 19.1144C39.1973 18.9304 39.0875 18.7633 38.9476 18.6234C38.8077 18.4835 38.6406 18.3738 38.4567 18.301C38.2727 18.2281 38.0758 18.1938 37.878 18.2H37.876Z" fill="#FF5A00"/>
</g>
<defs>
<clipPath id="clip0_1_345">
<rect width="40.823" height="48.056" fill="white" transform="translate(0.5)"/>
</clipPath>
</defs>
</svg>
