<svg xmlns="http://www.w3.org/2000/svg" width="24.023" height="24.006" viewBox="0 0 24.023 24.006">
  <g id="delete_account" transform="translate(0.013 0.001)">
    <path id="Path_2441" data-name="Path 2441" d="M-1351.98,1148.34a6.421,6.421,0,0,1-2.892-4.6,6.422,6.422,0,0,1,1.668-5.17,6.417,6.417,0,0,1,4.665-2.026,6.417,6.417,0,0,1,4.674,2,6.424,6.424,0,0,1,1.692,5.172,6.425,6.425,0,0,1-2.883,4.615c.21.085.409.161.6.245a9.925,9.925,0,0,1,3.46,2.405c.127.138.239.076.359.053a4.791,4.791,0,0,1,5.594,3.65,4.794,4.794,0,0,1-.785,3.846,4.794,4.794,0,0,1-3.395,1.97,4.782,4.782,0,0,1-3.741-1.228,4.782,4.782,0,0,1-1.552-3.618,4.678,4.678,0,0,1,1.764-3.633l.136-.109.169-.132c-.216-.188-.413-.374-.625-.54a8.775,8.775,0,0,0-11.339.4,8.082,8.082,0,0,0-2.713,5.243c-.121.922-.151,1.857-.2,2.787a.829.829,0,0,1-.216.606.829.829,0,0,1-.584.269.809.809,0,0,1-.6-.266.809.809,0,0,1-.206-.622,16.4,16.4,0,0,1,.19-3.46,10.3,10.3,0,0,1,6.52-7.758Zm-1.345-5.386a4.81,4.81,0,0,0,4.783,4.792,4.806,4.806,0,0,0,4.816-4.757,4.8,4.8,0,0,0-1.395-3.423,4.8,4.8,0,0,0-3.413-1.417,4.8,4.8,0,0,0-4.8,4.8Zm16.8,12.8a3.2,3.2,0,0,0-3.19-3.2,3.2,3.2,0,0,0-2.272.937,3.2,3.2,0,0,0-.938,2.271,3.2,3.2,0,0,0,.95,2.267,3.2,3.2,0,0,0,2.278.924,3.207,3.207,0,0,0,3.167-3.2Z" transform="translate(1358.933 -1136.545)" fill="#3a8bc3"/>
    <path id="Path_2442" data-name="Path 2442" d="M-1076.54,1443.1h1.525a.808.808,0,0,1,.605.213.807.807,0,0,1,.259.587.808.808,0,0,1-.265.587.808.808,0,0,1-.609.207h-3.049a.809.809,0,0,1-.61-.206.809.809,0,0,1-.266-.587.808.808,0,0,1,.264-.6.807.807,0,0,1,.622-.207C-1077.56,1443.1-1077.05,1443.1-1076.54,1443.1Z" transform="translate(1095.757 -1424.699)" fill="#3a8bc3"/>
  </g>
</svg>
