<svg width="25" height="24" viewBox="0 0 25 24" fill="none" xmlns="http://www.w3.org/2000/svg">
<g clip-path="url(#clip0_1_349)">
<path d="M7.46597 11.796C6.67696 11.2873 6.0091 10.6118 5.50943 9.81705C5.00976 9.02227 4.69047 8.12761 4.57401 7.19607C4.45735 6.26479 4.5462 5.31928 4.83438 4.42605C5.12257 3.53283 5.60304 2.71354 6.24198 2.02603C6.84044 1.38825 7.56293 0.879557 8.36514 0.531156C9.16736 0.182756 10.0324 0.00199635 10.907 2.83666e-05C11.7812 -0.00257147 12.6467 0.173564 13.4505 0.517484C14.2542 0.861405 14.9792 1.36586 15.581 2.00003C16.2243 2.68575 16.7093 3.50443 17.0016 4.3981C17.294 5.29177 17.3867 6.23864 17.273 7.17203C17.1594 8.10536 16.8423 9.00242 16.3441 9.79983C15.846 10.5972 15.1789 11.2757 14.3899 11.7871C14.5999 11.8721 14.7989 11.9481 14.9899 12.0321C16.3021 12.5769 17.4821 13.397 18.45 14.437C18.577 14.575 18.689 14.5131 18.809 14.4901C20.0331 14.2507 21.3022 14.4979 22.3468 15.1795C23.3914 15.8611 24.1291 16.9232 24.403 18.14C24.5509 18.8002 24.5574 19.4843 24.4222 20.1471C24.2869 20.81 24.0128 21.4367 23.618 21.9861C23.2231 22.5354 22.7164 22.995 22.1313 23.3345C21.5461 23.674 20.8958 23.8859 20.2229 23.9561C19.5479 24.0287 18.8653 23.9568 18.2202 23.745C17.5752 23.5333 16.9826 23.1866 16.482 22.7281C15.9813 22.2697 15.5839 21.71 15.3163 21.0862C15.0487 20.4624 14.9171 19.7888 14.93 19.1101C14.9339 18.4113 15.0944 17.7221 15.3997 17.0934C15.705 16.4647 16.1473 15.9124 16.694 15.4771L16.83 15.3681L16.9989 15.2361C16.7829 15.0481 16.5859 14.8621 16.3739 14.6961C14.7425 13.4096 12.7075 12.7437 10.6311 12.8169C8.55476 12.8902 6.57169 13.6978 5.03494 15.0961C3.50185 16.4392 2.5328 18.3119 2.32193 20.3391C2.20093 21.2611 2.17098 22.1961 2.12198 23.1261C2.12817 23.2364 2.1122 23.3468 2.07511 23.4508C2.03801 23.5549 1.98048 23.6506 1.90592 23.7321C1.83139 23.8136 1.74143 23.8794 1.64115 23.9256C1.54086 23.9718 1.43228 23.9974 1.32193 24.0011C1.20889 24.0012 1.09715 23.9775 0.993806 23.9317C0.890463 23.8859 0.797831 23.8189 0.721956 23.7351C0.646138 23.6516 0.58861 23.5529 0.553133 23.4458C0.517655 23.3387 0.50496 23.2254 0.515901 23.1131C0.456869 21.9563 0.520621 20.7965 0.705965 19.6531C1.03187 17.9077 1.80343 16.2761 2.94583 14.9168C4.08823 13.5575 5.56268 12.5165 7.22598 11.895L7.46597 11.796ZM6.121 6.41006C6.12573 7.67797 6.63081 8.8928 7.52652 9.79019C8.42223 10.6876 9.63607 11.1949 10.904 11.2021C12.1719 11.2048 13.3895 10.7063 14.2915 9.81534C15.1936 8.92432 15.7071 7.71295 15.72 6.4451C15.7252 5.81066 15.6046 5.18144 15.3651 4.5939C15.1257 4.00636 14.7722 3.47217 14.325 3.02212C13.8779 2.57214 13.3461 2.21517 12.7603 1.97195C12.1745 1.72873 11.5462 1.6041 10.9119 1.60513C9.63886 1.60513 8.41803 2.11084 7.51785 3.01101C6.61768 3.91119 6.11197 5.13202 6.11197 6.40506L6.121 6.41006ZM22.9209 19.2101C22.9209 18.3631 22.5852 17.5507 21.9872 16.9508C21.3893 16.351 20.5779 16.0127 19.731 16.01C19.3092 16.0088 18.8913 16.0909 18.5014 16.2517C18.1115 16.4125 17.7572 16.6488 17.4589 16.9471C17.1606 17.2451 16.9243 17.5992 16.7633 17.9889C16.6024 18.3787 16.5199 18.7964 16.5209 19.218C16.522 19.6399 16.6065 20.0574 16.7696 20.4464C16.9326 20.8355 17.171 21.1885 17.471 21.4851C17.771 21.7817 18.1268 22.016 18.5177 22.1746C18.9087 22.3332 19.3271 22.4128 19.7489 22.4091C20.5913 22.3986 21.3958 22.0571 21.9884 21.4583C22.581 20.8595 22.9142 20.0516 22.9159 19.2091L22.9209 19.2101Z" fill="#FF5A00"/>
<path d="M19.73 18.402H21.255C21.3651 18.3943 21.4755 18.4093 21.5796 18.4459C21.6836 18.4826 21.779 18.5401 21.86 18.615C21.941 18.6899 22.0059 18.7808 22.0504 18.8817C22.095 18.9827 22.1183 19.0917 22.119 19.202C22.1175 19.3128 22.0931 19.4221 22.0475 19.5231C22.0019 19.6241 21.9361 19.7146 21.854 19.7891C21.7721 19.8634 21.6758 19.9201 21.571 19.9557C21.4663 19.9913 21.3553 20.005 21.245 19.996H18.196C18.0857 20.0052 17.9746 19.9917 17.8696 19.9563C17.7647 19.9209 17.6682 19.8643 17.5861 19.79C17.5039 19.7157 17.4379 19.6252 17.3921 19.5242C17.3463 19.4232 17.3218 19.3139 17.3201 19.203C17.3197 19.0901 17.343 18.9784 17.3884 18.875C17.4339 18.7717 17.5005 18.6791 17.584 18.603C17.6674 18.5269 17.7659 18.4691 17.8731 18.4335C17.9802 18.3978 18.0937 18.3851 18.2061 18.396C18.7101 18.402 19.22 18.402 19.73 18.402Z" fill="#FF5A00"/>
</g>
<defs>
<clipPath id="clip0_1_349">
<rect width="24.023" height="24.006" fill="white" transform="translate(0.5)"/>
</clipPath>
</defs>
</svg>
