<svg width="201" height="150" viewBox="0 0 201 150" fill="none" xmlns="http://www.w3.org/2000/svg">
<g clip-path="url(#clip0_1_353)">
<path opacity="0.11" d="M3.29901 61.335C3.30746 64.8648 4.71342 68.2477 7.20939 70.7436C9.70536 73.2396 13.0882 74.6456 16.618 74.654H76.818C80.2091 74.654 83.4612 76.0011 85.8591 78.399C88.2569 80.7968 89.604 84.049 89.604 87.44C89.604 90.8311 88.2569 94.0832 85.8591 96.4811C83.4612 98.8789 80.2091 100.226 76.818 100.226H33.133C30.8723 100.226 28.7042 101.124 27.1056 102.723C25.5071 104.321 24.609 106.489 24.609 108.75C24.609 111.011 25.5071 113.179 27.1056 114.777C28.7042 116.376 30.8723 117.274 33.133 117.274H75.753C78.0137 117.274 80.1818 118.172 81.7804 119.771C83.3789 121.369 84.277 123.537 84.277 125.798C84.277 128.059 83.3789 130.227 81.7804 131.825C80.1818 133.424 78.0137 134.322 75.753 134.322H37.399C35.9861 134.322 34.631 134.883 33.6319 135.882C32.6328 136.882 32.0715 138.237 32.0715 139.65C32.0715 141.062 32.6328 142.418 33.6319 143.417C34.631 144.416 35.9861 144.977 37.399 144.977H130.099C131.512 144.977 132.867 144.416 133.866 143.417C134.865 142.418 135.427 141.062 135.427 139.65C135.427 138.237 134.865 136.882 133.866 135.882C132.867 134.883 131.512 134.322 130.099 134.322H115.175C112.914 134.322 110.746 133.424 109.148 131.825C107.549 130.227 106.651 128.059 106.651 125.798C106.651 123.537 107.549 121.369 109.148 119.771C110.746 118.172 112.914 117.274 115.175 117.274H190.825C193.086 117.274 195.254 116.376 196.852 114.777C198.451 113.179 199.349 111.011 199.349 108.75C199.349 106.489 198.451 104.321 196.852 102.723C195.254 101.124 193.086 100.226 190.825 100.226H179.105C175.714 100.226 172.462 98.8789 170.064 96.4811C167.666 94.0832 166.319 90.8311 166.319 87.44C166.319 84.049 167.666 80.7968 170.064 78.399C172.462 76.0011 175.714 74.654 179.105 74.654H186.031C187.78 74.654 189.512 74.3095 191.128 73.6402C192.744 72.9708 194.212 71.9898 195.449 70.753C196.686 69.5162 197.667 68.0479 198.336 66.432C199.006 64.816 199.35 63.0841 199.35 61.335C199.35 59.5859 199.006 57.854 198.336 56.2381C197.667 54.6221 196.686 53.1538 195.449 51.9171C194.212 50.6803 192.744 49.6992 191.128 49.0299C189.512 48.3605 187.78 48.016 186.031 48.016H122.099C119.697 48.016 117.393 47.0618 115.695 45.3633C113.996 43.6648 113.042 41.3611 113.042 38.959C113.042 36.557 113.996 34.2533 115.695 32.5548C117.393 30.8562 119.697 29.902 122.099 29.902H148.736C150.387 29.9002 151.996 29.387 153.343 28.4331C154.69 27.4791 155.708 26.1313 156.258 24.575C156.571 23.7219 156.73 22.8198 156.727 21.911C156.724 19.7929 155.882 17.7623 154.384 16.2645C152.887 14.7667 150.856 13.9239 148.738 13.921H64.565C62.447 13.9255 60.4171 14.7689 58.9195 16.2665C57.4219 17.7641 56.5785 19.7941 56.574 21.912C56.571 22.8208 56.7298 23.7229 57.043 24.576C57.5912 26.1333 58.6092 27.4821 59.9565 28.4363C61.3038 29.3904 62.914 29.9029 64.565 29.903H81.612C84.0141 29.903 86.3178 30.8572 88.0163 32.5558C89.7148 34.2543 90.669 36.558 90.669 38.96C90.669 41.3621 89.7148 43.6658 88.0163 45.3643C86.3178 47.0628 84.0141 48.017 81.612 48.017H16.618C13.0884 48.0255 9.70568 49.4313 7.20974 51.927C4.7138 54.4228 3.30773 57.8054 3.29901 61.335Z" fill="#45536D" fill-opacity="0.5"/>
<path d="M104.975 139.632C94 139.631 83.2896 136.263 74.2904 129.98C65.2912 123.698 58.4368 114.806 54.653 104.504C50.8692 94.2015 50.3383 82.9864 53.132 72.3729C55.9257 61.7595 61.9095 52.2591 70.275 45.155C70.5043 44.9602 70.7697 44.8124 71.0561 44.7202C71.3425 44.6279 71.6442 44.593 71.9441 44.6174C72.244 44.6418 72.5361 44.725 72.8039 44.8623C73.0716 44.9995 73.3097 45.1882 73.5045 45.4175C73.6993 45.6468 73.847 45.9122 73.9393 46.1986C74.0315 46.485 74.0664 46.7867 74.0421 47.0866C74.0177 47.3865 73.9345 47.6786 73.7972 47.9464C73.6599 48.2141 73.4713 48.4522 73.242 48.647C68.0732 53.0364 63.8712 58.4501 60.9014 64.5462C57.9316 70.6423 56.2586 77.2882 55.9881 84.0638C55.7177 90.8395 56.8556 97.5975 59.3301 103.911C61.8045 110.224 65.5617 115.956 70.3641 120.743C75.1666 125.531 80.9098 129.27 87.231 131.724C93.5521 134.179 100.314 135.296 107.088 135.004C113.863 134.712 120.504 133.018 126.591 130.029C132.677 127.041 138.078 122.821 142.451 117.639C142.644 117.407 142.882 117.216 143.15 117.076C143.417 116.936 143.71 116.85 144.011 116.824C144.312 116.798 144.615 116.831 144.903 116.922C145.191 117.014 145.458 117.161 145.689 117.356C145.92 117.551 146.11 117.79 146.248 118.058C146.386 118.327 146.47 118.62 146.494 118.922C146.518 119.223 146.483 119.526 146.39 119.813C146.297 120.1 146.147 120.366 145.951 120.596C140.922 126.564 134.648 131.36 127.571 134.648C120.493 137.937 112.781 139.638 104.977 139.632" fill="black"/>
<path d="M156.295 88.309C155.687 88.309 155.105 88.0676 154.675 87.638C154.245 87.2083 154.004 86.6256 154.004 86.018C153.997 78.5277 152.276 71.1383 148.972 64.4161C145.668 57.6938 140.869 51.8171 134.943 47.2361C129.017 42.6551 122.121 39.4915 114.783 37.9876C107.445 36.4838 99.8604 36.6796 92.61 38.56C92.3164 38.6428 92.0092 38.6661 91.7065 38.6285C91.4037 38.591 91.1116 38.4934 90.8471 38.3414C90.5826 38.1895 90.3511 37.9862 90.1662 37.7436C89.9813 37.501 89.8467 37.2239 89.7703 36.9286C89.6939 36.6333 89.6773 36.3256 89.7214 36.0238C89.7655 35.722 89.8694 35.432 90.0271 35.1708C90.1847 34.9097 90.393 34.6827 90.6395 34.5031C90.8861 34.3235 91.1661 34.1949 91.463 34.125C99.3907 32.0684 107.684 31.854 115.707 33.4982C123.731 35.1424 131.271 38.6016 137.751 43.6107C144.231 48.6198 149.478 55.0458 153.09 62.3964C156.703 69.7469 158.584 77.8268 158.591 86.017C158.591 86.6246 158.35 87.2073 157.92 87.637C157.49 88.0666 156.908 88.308 156.3 88.308" fill="black"/>
<path d="M42.658 122.678C42.658 122.134 42.4967 121.603 42.1947 121.151C41.8926 120.699 41.4633 120.346 40.961 120.138C40.4587 119.93 39.9059 119.876 39.3727 119.982C38.8394 120.088 38.3496 120.35 37.9651 120.734C37.5807 121.119 37.3189 121.608 37.2128 122.142C37.1067 122.675 37.1612 123.228 37.3692 123.73C37.5773 124.232 37.9296 124.662 38.3817 124.964C38.8338 125.266 39.3653 125.427 39.909 125.427C40.6381 125.427 41.3373 125.137 41.8528 124.622C42.3683 124.106 42.658 123.407 42.658 122.678Z" fill="#1A496D"/>
<path d="M62.818 26.452C62.817 26.0284 62.6693 25.6181 62.3999 25.2912C62.1305 24.9642 61.7561 24.7407 61.3405 24.6588C60.9249 24.5768 60.4937 24.6414 60.1203 24.8416C59.7469 25.0418 59.4545 25.3652 59.2928 25.7567C59.131 26.1483 59.11 26.5838 59.2332 26.9891C59.3565 27.3944 59.6164 27.7445 59.9687 27.9797C60.321 28.215 60.744 28.3208 61.1656 28.2793C61.5872 28.2378 61.9813 28.0515 62.281 27.752C62.4517 27.5813 62.587 27.3786 62.6791 27.1555C62.7713 26.9325 62.8185 26.6934 62.818 26.452Z" fill="#1A496D"/>
<path d="M160.877 146.505C160.876 146.081 160.728 145.671 160.459 145.344C160.19 145.017 159.815 144.794 159.4 144.712C158.984 144.63 158.553 144.694 158.179 144.895C157.806 145.095 157.514 145.418 157.352 145.81C157.19 146.201 157.169 146.637 157.292 147.042C157.415 147.447 157.675 147.797 158.028 148.033C158.38 148.268 158.803 148.374 159.225 148.332C159.646 148.291 160.04 148.104 160.34 147.805C160.511 147.634 160.646 147.432 160.738 147.209C160.83 146.985 160.877 146.746 160.877 146.505Z" fill="#1A496D"/>
<path d="M171.874 122.678C170.605 122.678 169.365 122.302 168.31 121.597C167.255 120.892 166.433 119.89 165.947 118.718C165.462 117.546 165.335 116.256 165.582 115.012C165.83 113.767 166.441 112.624 167.338 111.727C168.235 110.83 169.378 110.219 170.622 109.971C171.867 109.724 173.157 109.851 174.329 110.336C175.501 110.822 176.503 111.644 177.208 112.699C177.913 113.754 178.289 114.994 178.289 116.263C178.289 117.964 177.613 119.596 176.41 120.799C175.207 122.002 173.575 122.678 171.874 122.678ZM171.874 111.678C170.968 111.679 170.082 111.948 169.329 112.452C168.576 112.955 167.99 113.671 167.643 114.508C167.297 115.345 167.206 116.266 167.383 117.155C167.56 118.044 167.997 118.86 168.637 119.5C169.278 120.141 170.094 120.577 170.983 120.754C171.872 120.931 172.793 120.84 173.63 120.494C174.467 120.147 175.182 119.56 175.686 118.807C176.19 118.054 176.459 117.168 176.459 116.262C176.459 115.66 176.341 115.064 176.11 114.507C175.88 113.951 175.542 113.445 175.117 113.02C174.691 112.594 174.185 112.256 173.629 112.026C173.072 111.796 172.476 111.678 171.874 111.678Z" fill="#FF5A00"/>
<path d="M162.71 45.697C161.804 45.697 160.918 45.4282 160.164 44.9248C159.411 44.4213 158.824 43.7057 158.477 42.8684C158.13 42.0312 158.039 41.1099 158.216 40.2211C158.393 39.3322 158.829 38.5158 159.47 37.875C160.111 37.2342 160.927 36.7978 161.816 36.621C162.705 36.4442 163.626 36.5349 164.463 36.8817C165.301 37.2285 166.016 37.8158 166.52 38.5693C167.023 39.3228 167.292 40.2087 167.292 41.115C167.292 42.3302 166.809 43.4956 165.95 44.3549C165.091 45.2142 163.925 45.697 162.71 45.697ZM162.71 38.365C162.166 38.365 161.635 38.5262 161.183 38.8283C160.731 39.1303 160.378 39.5596 160.17 40.062C159.962 40.5643 159.908 41.117 160.014 41.6503C160.12 42.1835 160.382 42.6733 160.766 43.0578C161.151 43.4423 161.64 43.7041 162.174 43.8101C162.707 43.9162 163.26 43.8618 163.762 43.6537C164.264 43.4456 164.694 43.0933 164.996 42.6412C165.298 42.1891 165.459 41.6577 165.459 41.114C165.459 40.3849 165.169 39.6857 164.654 39.1701C164.138 38.6546 163.439 38.365 162.71 38.365Z" fill="#FF5A00"/>
<path d="M80.232 12.708C79.1442 12.708 78.0808 12.3854 77.1764 11.7811C76.2719 11.1767 75.5669 10.3178 75.1507 9.31277C74.7344 8.30778 74.6255 7.20191 74.8377 6.13501C75.0499 5.06812 75.5737 4.08811 76.3429 3.31892C77.1121 2.54973 78.0921 2.02591 79.159 1.81369C80.2259 1.60147 81.3318 1.71039 82.3368 2.12667C83.3417 2.54295 84.2007 3.2479 84.8051 4.15237C85.4094 5.05684 85.732 6.12021 85.732 7.20801C85.732 8.6667 85.1525 10.0656 84.1211 11.0971C83.0896 12.1285 81.6907 12.708 80.232 12.708ZM80.232 3.54401C79.5068 3.54361 78.7977 3.75834 78.1945 4.16101C77.5913 4.56368 77.1212 5.13621 76.8434 5.80617C76.5657 6.47612 76.493 7.2134 76.6343 7.92472C76.7757 8.63604 77.1249 9.28944 77.6377 9.80226C78.1506 10.3151 78.804 10.6643 79.5153 10.8057C80.2266 10.9471 80.9639 10.8743 81.6338 10.5966C82.3038 10.3189 82.8763 9.84866 83.279 9.24548C83.6817 8.64231 83.8964 7.93325 83.896 7.20801C83.8955 6.23642 83.5093 5.30477 82.8223 4.61776C82.1352 3.93074 81.2036 3.54454 80.232 3.54401Z" fill="#FF5A00"/>
<path d="M5.082 75.939C4.17577 75.939 3.28989 75.6703 2.53638 75.1668C1.78287 74.6633 1.19559 73.9477 0.848786 73.1105C0.501985 72.2732 0.411246 71.3519 0.588044 70.4631C0.764841 69.5743 1.20123 68.7579 1.84204 68.1171C2.48284 67.4763 3.29928 67.0399 4.1881 66.8631C5.07692 66.6863 5.99821 66.777 6.83546 67.1238C7.67271 67.4706 8.38832 68.0579 8.8918 68.8114C9.39527 69.5649 9.664 70.4508 9.664 71.357C9.664 72.5722 9.18126 73.7377 8.32197 74.597C7.46267 75.4563 6.29722 75.939 5.082 75.939ZM5.082 68.607C4.5383 68.607 4.00681 68.7682 3.55474 69.0703C3.10267 69.3724 2.75032 69.8017 2.54226 70.304C2.33419 70.8063 2.27975 71.3591 2.38582 71.8923C2.49189 72.4256 2.75371 72.9154 3.13817 73.2999C3.52262 73.6843 4.01244 73.9461 4.5457 74.0522C5.07895 74.1583 5.63168 74.1038 6.134 73.8958C6.63631 73.6877 7.06565 73.3354 7.36771 72.8833C7.66978 72.4312 7.831 71.8997 7.831 71.356C7.831 70.6269 7.54138 69.9277 7.02584 69.4122C6.5103 68.8966 5.81108 68.607 5.082 68.607Z" fill="#FF5A00"/>
<path d="M123.762 13.1631C123.761 13.4058 123.664 13.6383 123.493 13.8099C123.321 13.9815 123.089 14.0783 122.846 14.0791H119.638V17.2871C119.63 17.5249 119.53 17.7504 119.359 17.9158C119.188 18.0813 118.959 18.1738 118.721 18.1738C118.484 18.1738 118.255 18.0813 118.084 17.9158C117.913 17.7504 117.813 17.5249 117.805 17.2871V14.0801H114.597C114.474 14.0841 114.352 14.0634 114.237 14.0192C114.122 13.975 114.017 13.9081 113.929 13.8226C113.841 13.7371 113.77 13.6347 113.722 13.5215C113.674 13.4082 113.65 13.2865 113.65 13.1636C113.65 13.0406 113.674 12.9189 113.722 12.8057C113.77 12.6924 113.841 12.59 113.929 12.5045C114.017 12.419 114.122 12.3522 114.237 12.3079C114.352 12.2637 114.474 12.243 114.597 12.2471H117.805V9.03906C117.805 8.79599 117.902 8.56287 118.073 8.391C118.245 8.21912 118.478 8.12256 118.721 8.12256C118.965 8.12256 119.198 8.21912 119.37 8.391C119.541 8.56287 119.638 8.79599 119.638 9.03906V12.2471H122.846C123.089 12.2478 123.321 12.3446 123.493 12.5162C123.664 12.6878 123.761 12.9204 123.762 13.1631Z" fill="#2FDF84"/>
<path d="M35.326 40.199C35.3255 40.3754 35.2551 40.5445 35.1303 40.6693C35.0055 40.7941 34.8365 40.8644 34.66 40.865H32.326V43.198C32.326 43.3746 32.2558 43.544 32.1309 43.6689C32.006 43.7938 31.8366 43.864 31.66 43.864C31.4834 43.864 31.314 43.7938 31.1891 43.6689C31.0642 43.544 30.994 43.3746 30.994 43.198V40.865H28.66C28.5703 40.8684 28.4808 40.8538 28.3969 40.8218C28.313 40.7899 28.2364 40.7414 28.1717 40.6791C28.1071 40.6169 28.0556 40.5423 28.0204 40.4597C27.9853 40.3771 27.9672 40.2882 27.9672 40.1985C27.9672 40.1087 27.9853 40.0199 28.0204 39.9373C28.0556 39.8547 28.1071 39.78 28.1717 39.7178C28.2364 39.6555 28.313 39.607 28.3969 39.5751C28.4808 39.5432 28.5703 39.5285 28.66 39.532H30.994V37.199C30.994 37.0223 31.0642 36.8529 31.1891 36.728C31.314 36.6031 31.4834 36.533 31.66 36.533C31.8366 36.533 32.006 36.6031 32.1309 36.728C32.2558 36.8529 32.326 37.0223 32.326 37.199V39.533H34.659C34.8355 39.5335 35.0045 39.6038 35.1293 39.7286C35.2541 39.8534 35.3255 40.0225 35.326 40.199Z" fill="#2FDF84"/>
<path d="M200.284 75.023C200.283 75.2438 200.196 75.4554 200.039 75.6115C199.883 75.7676 199.672 75.8555 199.451 75.856H196.535V78.772C196.535 78.8814 196.513 78.9897 196.472 79.0908C196.43 79.1919 196.368 79.2837 196.291 79.3611C196.214 79.4384 196.122 79.4998 196.021 79.5416C195.92 79.5835 195.811 79.605 195.702 79.605C195.593 79.605 195.484 79.5835 195.383 79.5416C195.282 79.4998 195.19 79.4384 195.113 79.3611C195.036 79.2837 194.974 79.1919 194.932 79.0908C194.891 78.9897 194.869 78.8814 194.869 78.772V75.856H191.953C191.732 75.856 191.52 75.7683 191.364 75.6121C191.208 75.4558 191.12 75.244 191.12 75.023C191.12 74.8021 191.208 74.5902 191.364 74.434C191.52 74.2778 191.732 74.19 191.953 74.19H194.869V71.274C194.869 71.1646 194.891 71.0563 194.932 70.9553C194.974 70.8542 195.036 70.7624 195.113 70.685C195.19 70.6077 195.282 70.5463 195.383 70.5044C195.484 70.4626 195.593 70.441 195.702 70.441C195.811 70.441 195.92 70.4626 196.021 70.5044C196.122 70.5463 196.214 70.6077 196.291 70.685C196.368 70.7624 196.43 70.8542 196.472 70.9553C196.513 71.0563 196.535 71.1646 196.535 71.274V74.19H199.451C199.672 74.1906 199.883 74.2785 200.039 74.4346C200.196 74.5907 200.283 74.8023 200.284 75.023Z" fill="#2FDF84"/>
<path d="M128.503 61H82.503C80.9117 61 79.3856 61.6321 78.2603 62.7574C77.1351 63.8826 76.503 65.4087 76.503 67V72.472C76.503 72.8773 76.664 73.2659 76.9505 73.5525C77.2371 73.839 77.6257 74 78.031 74H132.975C133.38 74 133.769 73.839 134.055 73.5525C134.342 73.2659 134.503 72.8773 134.503 72.472V67C134.503 65.4087 133.871 63.8826 132.746 62.7574C131.62 61.6321 130.094 61 128.503 61Z" fill="#FF5A00"/>
<path d="M83.503 67V72.47C83.5022 72.6711 83.5412 72.8705 83.6179 73.0564C83.6945 73.2424 83.8071 73.4114 83.9494 73.5536C84.0916 73.6959 84.2606 73.8085 84.4466 73.8852C84.6325 73.9618 84.8319 74.0008 85.033 74H78.033C77.8319 74.0008 77.6325 73.9618 77.4466 73.8852C77.2606 73.8085 77.0916 73.6959 76.9494 73.5536C76.8071 73.4114 76.6945 73.2424 76.6179 73.0564C76.5412 72.8705 76.5022 72.6711 76.503 72.47V67C76.503 65.4087 77.1351 63.8826 78.2604 62.7574C79.3856 61.6321 80.9117 61 82.503 61H89.503C87.9117 61 86.3856 61.6321 85.2604 62.7574C84.1351 63.8826 83.503 65.4087 83.503 67Z" fill="black" fill-opacity="0.4"/>
<path d="M128.503 59H119.503V55.76C119.5 54.4985 118.998 53.2894 118.106 52.3974C117.214 51.5053 116.005 51.0029 114.743 51H96.263C95.0015 51.0029 93.7924 51.5053 92.9004 52.3974C92.0083 53.2894 91.5059 54.4985 91.503 55.76V59H82.503C80.3822 59.0029 78.349 59.8467 76.8494 61.3464C75.3497 62.846 74.5059 64.8792 74.503 67V72.47C74.5029 72.9336 74.5941 73.3927 74.7714 73.821C74.9488 74.2494 75.2088 74.6386 75.5366 74.9664C75.8644 75.2942 76.2536 75.5542 76.682 75.7316C77.1103 75.9089 77.5694 76.0001 78.033 76H79.503V111C79.5059 113.121 80.3497 115.154 81.8494 116.654C83.349 118.153 85.3822 118.997 87.503 119H122.503C124.624 118.997 126.657 118.153 128.157 116.654C129.656 115.154 130.5 113.121 130.503 111V76H132.973C133.437 76.0001 133.896 75.9089 134.324 75.7316C134.752 75.5542 135.142 75.2942 135.469 74.9664C135.797 74.6386 136.057 74.2494 136.235 73.821C136.412 73.3927 136.503 72.9336 136.503 72.47V67C136.5 64.8792 135.656 62.846 134.157 61.3464C132.657 59.8467 130.624 59.0029 128.503 59ZM95.503 55.76C95.503 55.5584 95.5831 55.3651 95.7256 55.2226C95.8681 55.0801 96.0614 55 96.263 55H114.743C114.945 55 115.138 55.0801 115.28 55.2226C115.423 55.3651 115.503 55.5584 115.503 55.76V59H95.503V55.76ZM132.503 72H121.503C120.973 72 120.464 72.2107 120.089 72.5858C119.714 72.9609 119.503 73.4696 119.503 74C119.503 74.5304 119.714 75.0391 120.089 75.4142C120.464 75.7893 120.973 76 121.503 76H126.503V111C126.503 112.061 126.082 113.078 125.331 113.828C124.581 114.579 123.564 115 122.503 115H87.503C86.4421 115 85.4247 114.579 84.6746 113.828C83.9244 113.078 83.503 112.061 83.503 111V76H111.503C112.033 76 112.542 75.7893 112.917 75.4142C113.292 75.0391 113.503 74.5304 113.503 74C113.503 73.4696 113.292 72.9609 112.917 72.5858C112.542 72.2107 112.033 72 111.503 72H78.503V67C78.503 65.9391 78.9244 64.9217 79.6746 64.1716C80.4247 63.4214 81.4421 63 82.503 63H128.503C129.564 63 130.581 63.4214 131.331 64.1716C132.082 64.9217 132.503 65.9391 132.503 67V72Z" fill="black"/>
<path d="M93.503 103C92.9726 103 92.4639 102.789 92.0888 102.414C91.7137 102.039 91.503 101.53 91.503 101V91C91.503 90.4696 91.7137 89.9609 92.0888 89.5858C92.4639 89.2107 92.9726 89 93.503 89C94.0334 89 94.5421 89.2107 94.9172 89.5858C95.2923 89.9609 95.503 90.4696 95.503 91V101C95.503 101.53 95.2923 102.039 94.9172 102.414C94.5421 102.789 94.0334 103 93.503 103Z" fill="black"/>
<path d="M105.503 107C104.973 107 104.464 106.789 104.089 106.414C103.714 106.039 103.503 105.53 103.503 105V87C103.503 86.4696 103.714 85.9609 104.089 85.5858C104.464 85.2107 104.973 85 105.503 85C106.033 85 106.542 85.2107 106.917 85.5858C107.292 85.9609 107.503 86.4696 107.503 87V105C107.503 105.53 107.292 106.039 106.917 106.414C106.542 106.789 106.033 107 105.503 107Z" fill="black"/>
<path d="M117.503 103C116.973 103 116.464 102.789 116.089 102.414C115.714 102.039 115.503 101.53 115.503 101V91C115.503 90.4696 115.714 89.9609 116.089 89.5858C116.464 89.2107 116.973 89 117.503 89C118.033 89 118.542 89.2107 118.917 89.5858C119.292 89.9609 119.503 90.4696 119.503 91V101C119.503 101.53 119.292 102.039 118.917 102.414C118.542 102.789 118.033 103 117.503 103Z" fill="black"/>
</g>
<defs>
<clipPath id="clip0_1_353">
<rect width="200.004" height="150" fill="white" transform="translate(0.5)"/>
</clipPath>
</defs>
</svg>
