<svg width="20" height="19" viewBox="0 0 20 19" fill="none" xmlns="http://www.w3.org/2000/svg">
<g clip-path="url(#clip0_1_378)">
<path d="M10.6 11.337C10.4833 11.2764 10.3627 11.2237 10.239 11.179C10.1652 11.1548 10.0933 11.125 10.024 11.09C9.95553 11.0626 9.89768 11.0138 9.85901 10.951C9.86121 10.9279 9.86866 10.9057 9.8808 10.8859C9.89293 10.8661 9.90942 10.8494 9.92901 10.837C9.97542 10.8111 10.0279 10.798 10.081 10.799H10.087C10.1971 10.8016 10.3044 10.8345 10.397 10.894C10.4341 10.9183 10.4756 10.9349 10.5193 10.9428C10.5629 10.9507 10.6076 10.9497 10.6508 10.9399C10.694 10.9301 10.7349 10.9117 10.7708 10.8858C10.8068 10.8599 10.8371 10.827 10.8601 10.7891C10.8831 10.7513 10.8982 10.7091 10.9046 10.6653C10.9109 10.6214 10.9083 10.5767 10.897 10.5339C10.8857 10.491 10.8659 10.4509 10.8388 10.4159C10.8116 10.3808 10.7777 10.3516 10.739 10.33C10.6298 10.2651 10.5129 10.214 10.391 10.178C10.3717 10.1112 10.3308 10.0526 10.2747 10.0114C10.2187 9.97016 10.1506 9.94859 10.081 9.95002C10.0082 9.95003 9.93751 9.97433 9.88009 10.0191C9.82267 10.0638 9.78182 10.1264 9.76401 10.197C9.69628 10.2212 9.63231 10.2549 9.57401 10.297C9.43408 10.3822 9.32491 10.5097 9.26234 10.6611C9.19977 10.8125 9.18704 10.9799 9.22601 11.139C9.26708 11.2622 9.33414 11.3752 9.42264 11.4703C9.51115 11.5653 9.61904 11.6403 9.73901 11.69C9.82801 11.734 9.91601 11.766 10.005 11.804C10.0984 11.8375 10.1893 11.8776 10.277 11.924C10.2988 11.9375 10.3199 11.9522 10.34 11.968C10.3473 11.9901 10.3494 12.0137 10.3461 12.0367C10.3428 12.0598 10.3342 12.0818 10.321 12.101C10.2904 12.134 10.253 12.1601 10.2114 12.1773C10.1698 12.1946 10.125 12.2027 10.08 12.201H10.07C10.0366 12.2013 10.0032 12.1993 9.97001 12.195C9.85555 12.1694 9.7463 12.1245 9.64701 12.062C9.60995 12.0377 9.56838 12.0211 9.52477 12.0133C9.48116 12.0054 9.43642 12.0064 9.3932 12.0161C9.34998 12.0259 9.30917 12.0443 9.27321 12.0702C9.23725 12.0961 9.20688 12.129 9.1839 12.1669C9.16093 12.2048 9.14582 12.2469 9.13947 12.2908C9.13313 12.3346 9.13569 12.3793 9.14699 12.4222C9.15829 12.465 9.17811 12.5051 9.20526 12.5402C9.23241 12.5752 9.26634 12.6044 9.30501 12.626C9.44218 12.7162 9.59469 12.7806 9.75501 12.816C9.77395 12.8855 9.81528 12.9468 9.8726 12.9903C9.92992 13.0339 10 13.0574 10.072 13.057C10.1454 13.0558 10.2163 13.0303 10.2736 12.9846C10.331 12.9388 10.3716 12.8753 10.389 12.804C10.5587 12.7592 10.7096 12.6614 10.82 12.525C10.9319 12.3904 10.9947 12.2218 10.9981 12.0468C11.0016 11.8719 10.9455 11.7009 10.839 11.562C10.7709 11.4795 10.6869 11.4115 10.592 11.362L10.6 11.337Z" fill="#45536D"/>
<path d="M7.56201 7.13798H12.61C12.7482 7.13589 12.8801 7.07957 12.9771 6.98118C13.0742 6.8828 13.1288 6.7502 13.129 6.61198V6.32698C13.1272 6.1899 13.0719 6.05894 12.975 5.962C12.8781 5.86506 12.7471 5.8098 12.61 5.80798H7.56201C7.42379 5.80823 7.2912 5.86277 7.19281 5.95985C7.09442 6.05693 7.03811 6.18878 7.03601 6.32698V6.61198C7.03654 6.75132 7.09212 6.88481 7.19065 6.98334C7.28918 7.08187 7.42267 7.13746 7.56201 7.13798Z" fill="#45536D"/>
<path d="M19.494 9.50007C19.494 8.26507 19.488 7.03607 19.494 5.80007C19.5066 4.95551 19.2468 4.12937 18.753 3.44407C18.0938 2.54804 17.2205 1.83154 16.213 1.36007C14.7924 0.661083 13.255 0.230204 11.678 0.089071C11.1 0.032071 10.526 7.10103e-05 9.956 7.10103e-05C8.47336 -0.00449532 6.99826 0.211192 5.579 0.640071C4.29665 0.996665 3.10876 1.63176 2.1 2.50007C1.64787 2.86306 1.27326 3.31318 0.99841 3.82371C0.723561 4.33424 0.554072 4.89478 0.5 5.47207L0.5 13.5601C0.545618 14.1778 0.741276 14.7751 1.07 15.3001C1.70569 16.2829 2.59969 17.0717 3.654 17.5801C5.00577 18.2685 6.47175 18.7046 7.98 18.8671C8.67654 18.9552 9.37791 18.9996 10.08 19.0001C11.6126 19.0036 13.1364 18.7674 14.596 18.3001C15.8913 17.9237 17.0816 17.2517 18.073 16.3371C18.5212 15.9353 18.8799 15.4438 19.1258 14.8944C19.3716 14.345 19.4991 13.75 19.5 13.1481V13.0151C19.468 11.8431 19.5 10.6721 19.5 9.50007H19.494ZM15.567 12.5591C15.5652 13.4319 15.2176 14.2684 14.6005 14.8855C13.9833 15.5027 13.1468 15.8502 12.274 15.8521H7.72C6.84776 15.8502 6.01187 15.5025 5.39567 14.8852C4.77946 14.2678 4.43326 13.4313 4.433 12.5591V11.5591C4.41491 10.7126 4.71829 9.89076 5.282 9.25907L6.827 7.53707C6.68469 7.4286 6.56946 7.28863 6.49034 7.12814C6.41123 6.96764 6.37038 6.791 6.371 6.61207V6.32707C6.37162 6.02456 6.4882 5.73381 6.69674 5.51467C6.90528 5.29553 7.1899 5.16468 7.492 5.14907L7.087 4.12307C7.04415 4.01527 7.02829 3.89864 7.04079 3.78331C7.0533 3.66799 7.09379 3.55747 7.15875 3.46136C7.22371 3.36525 7.31117 3.28647 7.41351 3.23187C7.51586 3.17727 7.63 3.1485 7.746 3.14807H12.382C12.5004 3.14743 12.6171 3.17603 12.7218 3.23133C12.8264 3.28663 12.9158 3.36692 12.982 3.46507C13.0481 3.56258 13.0886 3.6752 13.0996 3.79249C13.1106 3.90978 13.0918 4.02796 13.045 4.13607L12.627 5.13607C12.9372 5.14081 13.2331 5.26787 13.4501 5.4896C13.6672 5.71133 13.7879 6.0098 13.786 6.32007V6.60507C13.7877 6.80571 13.7372 7.00334 13.6396 7.17863C13.5419 7.35392 13.4005 7.50086 13.229 7.60507L14.7 9.24007C15.2687 9.8739 15.5745 10.7007 15.555 11.5521V12.5461L15.567 12.5591Z" fill="#45536D"/>
<path d="M8.20801 5.14299H11.919L12.483 3.81299H7.68301L7.70801 3.88299L8.20801 5.14299Z" fill="#45536D"/>
<path d="M12.521 7.80005H7.486L5.776 9.69005C5.32012 10.1991 5.0755 10.8629 5.092 11.546V12.553C5.09568 13.2508 5.37447 13.9188 5.86784 14.4122C6.3612 14.9056 7.02929 15.1844 7.727 15.188H12.28C12.9784 15.1865 13.6477 14.9083 14.1415 14.4145C14.6353 13.9207 14.9134 13.2514 14.915 12.553V11.553C14.9374 10.8671 14.6921 10.1994 14.231 9.69105L12.527 7.80005H12.521ZM10.076 14.168C10.0767 13.4599 10.3585 12.7809 10.8596 12.2805C11.3608 11.7801 12.0401 11.4992 12.7482 11.4995C13.4564 11.4999 14.1355 11.7814 14.6361 12.2823C15.1368 12.7832 15.418 13.4624 15.418 14.1705C15.418 14.8787 15.1368 15.5579 14.6361 16.0588C14.1355 16.5597 13.4564 16.8412 12.7482 16.8415C12.0401 16.8419 11.3608 16.561 10.8596 16.0606C10.3585 15.5602 10.0767 14.8812 10.076 14.173V14.168Z" fill="#45536D"/>
</g>
<defs>
<clipPath id="clip0_1_378">
<rect width="19" height="19" fill="white" transform="translate(0.5)"/>
</clipPath>
</defs>
</svg>
