<svg width="995" height="857" viewBox="0 0 995 857" fill="none" xmlns="http://www.w3.org/2000/svg">
<g clip-path="url(#clip0_1_396)">
<mask id="mask0_1_396" style="mask-type:luminance" maskUnits="userSpaceOnUse" x="0" y="0" width="995" height="857">
<path d="M994.688 0H0.5V856.374H994.688V0Z" fill="white"/>
</mask>
<g mask="url(#mask0_1_396)">
<path d="M84.928 331.109C75.3958 325.214 66.4838 318.371 58.328 310.684C57.7931 310.194 57.0869 309.934 56.3618 309.96C55.6368 309.987 54.9513 310.297 54.4534 310.825C53.9554 311.352 53.6851 312.055 53.7007 312.78C53.7164 313.505 54.0168 314.195 54.537 314.701C62.9648 322.642 72.1732 329.711 82.022 335.801C82.3303 335.997 82.6744 336.129 83.0343 336.191C83.3942 336.253 83.7629 336.243 84.1188 336.161C84.4747 336.079 84.8109 335.928 85.1078 335.715C85.4047 335.502 85.6564 335.233 85.8483 334.922C86.0403 334.611 86.1686 334.266 86.2259 333.905C86.2833 333.544 86.2684 333.176 86.1822 332.821C86.0961 332.466 85.9403 332.132 85.724 331.838C85.5077 331.543 85.2351 331.295 84.922 331.107" fill="black"/>
<path d="M167.62 356.054C156.416 355.69 145.276 354.204 134.369 351.616C134.015 351.529 133.648 351.514 133.289 351.57C132.929 351.626 132.584 351.752 132.273 351.942C131.963 352.132 131.693 352.382 131.479 352.676C131.266 352.971 131.112 353.305 131.028 353.659C130.944 354.014 130.931 354.381 130.99 354.74C131.048 355.099 131.178 355.444 131.37 355.753C131.562 356.062 131.814 356.33 132.11 356.541C132.406 356.753 132.741 356.904 133.096 356.985C144.364 359.657 155.87 361.192 167.444 361.569H167.691C168.022 361.551 168.347 361.472 168.649 361.337C169.221 361.084 169.689 360.645 169.979 360.091C170.268 359.537 170.36 358.901 170.241 358.287C170.121 357.674 169.797 357.119 169.321 356.714C168.845 356.309 168.246 356.078 167.621 356.058" fill="black"/>
<path d="M125.129 29.286C125.772 29.0016 126.281 28.4828 126.554 27.8355C126.828 27.1881 126.843 26.4609 126.599 25.8022C126.354 25.1436 125.867 24.6031 125.238 24.2911C124.608 23.979 123.883 23.9189 123.211 24.123C116.354 26.1944 109.631 28.6892 103.083 31.593C99.156 33.336 95.233 35.253 91.429 37.293L91.212 37.409C90.8856 37.5763 90.5958 37.807 90.3596 38.0877C90.1234 38.3683 89.9455 38.6932 89.8364 39.0434C89.7273 39.3936 89.6891 39.7621 89.724 40.1272C89.759 40.4924 89.8664 40.8469 90.04 41.17C90.2136 41.4931 90.4499 41.7784 90.7351 42.0091C91.0202 42.2398 91.3485 42.4114 91.7008 42.5137C92.053 42.6161 92.4222 42.6471 92.7866 42.6051C93.151 42.5631 93.5033 42.4488 93.823 42.269L94.036 42.154C97.717 40.182 101.515 38.325 105.32 36.637C111.66 33.8259 118.167 31.4109 124.806 29.406C124.916 29.3723 125.024 29.3323 125.129 29.286Z" fill="black"/>
<path d="M51.33 74.803C51.5813 74.5398 51.7782 74.2296 51.9091 73.89C52.04 73.5505 52.1025 73.1884 52.0929 72.8247C52.0833 72.4609 52.0019 72.1026 51.8533 71.7705C51.7046 71.4383 51.4918 71.1388 51.2269 70.8893C50.9621 70.6397 50.6505 70.445 50.3101 70.3164C49.9697 70.1878 49.6072 70.1278 49.2435 70.1398C48.8798 70.1519 48.522 70.2358 48.1909 70.3867C47.8598 70.5375 47.5617 70.7524 47.314 71.019C39.3757 79.4519 32.3098 88.6654 26.224 98.519C26.0282 98.8273 25.8956 99.1713 25.8338 99.5313C25.772 99.8912 25.7823 100.26 25.864 100.616C25.9458 100.972 26.0974 101.308 26.3101 101.605C26.5227 101.902 26.7922 102.153 27.1029 102.345C27.4136 102.537 27.7593 102.666 28.12 102.723C28.4806 102.78 28.8491 102.765 29.204 102.679C29.5589 102.593 29.8931 102.437 30.1873 102.221C30.4816 102.005 30.7299 101.732 30.918 101.419C36.8077 91.8818 43.6465 82.9645 51.33 74.803Z" fill="black"/>
<path d="M6.01601 184.116C6.37414 172.912 7.85488 161.772 10.436 150.863C10.5243 150.509 10.5415 150.141 10.4865 149.78C10.4314 149.419 10.3054 149.072 10.1155 148.761C9.92568 148.449 9.67586 148.178 9.38052 147.963C9.08519 147.749 8.75021 147.595 8.39501 147.511C8.0398 147.427 7.67143 147.414 7.31123 147.473C6.95103 147.532 6.60617 147.662 6.29663 147.856C5.98708 148.049 5.71901 148.302 5.50794 148.6C5.29687 148.898 5.147 149.235 5.06701 149.591C2.40063 160.86 0.870643 172.368 0.500013 183.942C0.476837 184.673 0.745007 185.383 1.24554 185.917C1.74606 186.45 2.43795 186.763 3.16901 186.786H3.41801C4.10647 186.747 4.75528 186.451 5.23655 185.957C5.71782 185.463 5.99662 184.807 6.01801 184.118" fill="black"/>
<path d="M25.734 268.032C23.762 264.35 21.905 260.553 20.217 256.747C17.3952 250.384 14.9725 243.851 12.963 237.187C12.8586 236.84 12.6869 236.517 12.4578 236.237C12.2286 235.956 11.9464 235.724 11.6273 235.552C11.3083 235.381 10.9586 235.274 10.5982 235.238C10.2378 235.202 9.87385 235.237 9.52703 235.341C9.18021 235.445 8.85734 235.617 8.57688 235.846C8.29641 236.075 8.06383 236.358 7.89241 236.677C7.72099 236.996 7.6141 237.345 7.57783 237.706C7.54156 238.066 7.57663 238.43 7.68103 238.777C9.75641 245.662 12.2589 252.411 15.174 258.984C16.917 262.913 18.834 266.834 20.874 270.64L20.95 270.783C21.201 271.246 21.5789 271.629 22.0394 271.885C22.4999 272.141 23.0239 272.261 23.55 272.23C23.879 272.212 24.202 272.135 24.503 272.001C24.567 271.973 24.63 271.941 24.692 271.909C25.3359 271.562 25.8158 270.974 26.0265 270.273C26.2372 269.573 26.1615 268.818 25.816 268.173L25.734 268.032Z" fill="black"/>
<path d="M211.92 26.905C212.582 26.8673 213.208 26.5925 213.684 26.1308C214.16 25.6691 214.454 25.0515 214.512 24.3909C214.57 23.7304 214.388 23.0711 213.999 22.5338C213.61 21.9965 213.041 21.6171 212.396 21.465C201.126 18.8033 189.617 17.2787 178.043 16.914C177.678 16.8985 177.314 16.9555 176.972 17.0817C176.629 17.2079 176.315 17.4009 176.048 17.6493C175.78 17.8978 175.565 18.1969 175.414 18.5293C175.263 18.8616 175.179 19.2206 175.168 19.5855C175.157 19.9504 175.218 20.3138 175.348 20.6549C175.478 20.9959 175.675 21.3077 175.927 21.5721C176.178 21.8366 176.48 22.0485 176.814 22.1956C177.148 22.3427 177.508 22.422 177.873 22.429C189.077 22.7821 200.218 24.2581 211.128 26.835C211.388 26.8962 211.654 26.9197 211.92 26.905Z" fill="black"/>
<path d="M251.616 336.33C247.93 338.305 244.132 340.161 240.331 341.847C233.943 344.681 227.384 347.113 220.692 349.127C219.992 349.339 219.404 349.821 219.059 350.466C218.714 351.112 218.639 351.868 218.851 352.568C219.063 353.268 219.545 353.856 220.19 354.201C220.836 354.546 221.592 354.621 222.292 354.409C229.204 352.328 235.979 349.818 242.578 346.891C246.505 345.149 250.42 343.235 254.21 341.205L254.31 341.154C254.628 340.984 254.909 340.753 255.136 340.473C255.364 340.193 255.533 339.871 255.634 339.525C255.736 339.179 255.767 338.816 255.726 338.458C255.686 338.1 255.574 337.754 255.398 337.439C255.041 336.796 254.445 336.32 253.74 336.113C253.035 335.905 252.276 335.984 251.628 336.331" fill="black"/>
<path d="M342.478 191.861C341.747 191.838 341.037 192.106 340.503 192.606C339.97 193.107 339.656 193.798 339.632 194.529C339.262 205.733 337.77 216.872 335.178 227.778C335.01 228.49 335.131 229.239 335.514 229.862C335.898 230.485 336.513 230.93 337.224 231.1C337.813 231.241 338.431 231.184 338.984 230.937C339.373 230.766 339.717 230.507 339.989 230.18C340.261 229.853 340.452 229.467 340.549 229.053C343.227 217.787 344.768 206.281 345.149 194.708C345.172 193.977 344.904 193.267 344.404 192.733C343.904 192.199 343.213 191.886 342.482 191.861" fill="black"/>
<path d="M334.067 143.089C334.438 143.288 334.849 143.399 335.27 143.415C335.69 143.431 336.109 143.351 336.494 143.181C337.107 142.908 337.599 142.421 337.879 141.811C338.159 141.201 338.207 140.511 338.015 139.868C335.931 132.928 333.413 126.126 330.474 119.502C328.733 115.576 326.817 111.656 324.779 107.851L324.621 107.558C324.275 106.914 323.687 106.433 322.987 106.222C322.286 106.011 321.531 106.087 320.886 106.433C320.242 106.779 319.761 107.367 319.55 108.067C319.339 108.768 319.415 109.524 319.761 110.168L319.914 110.455C321.889 114.142 323.745 117.939 325.431 121.74C328.274 128.152 330.712 134.736 332.731 141.453C332.834 141.801 333.005 142.124 333.234 142.405C333.463 142.686 333.745 142.919 334.065 143.09" fill="black"/>
<path d="M287.209 67.69C287.471 67.9455 287.782 68.1461 288.123 68.2803C288.463 68.4145 288.828 68.4795 289.194 68.4715C289.56 68.4635 289.921 68.3827 290.255 68.2339C290.59 68.085 290.891 67.871 291.142 67.6044C291.393 67.3378 291.589 67.0239 291.717 66.6809C291.846 66.338 291.905 65.9729 291.891 65.607C291.876 65.2411 291.79 64.8816 291.635 64.5496C291.481 64.2175 291.262 63.9196 290.991 63.673C282.556 55.7389 273.34 48.6776 263.485 42.597C262.863 42.2232 262.118 42.1097 261.413 42.2809C260.708 42.4522 260.098 42.8944 259.717 43.5119C259.335 44.1294 259.213 44.8723 259.375 45.5797C259.538 46.287 259.972 46.9019 260.585 47.291C270.123 53.1772 279.042 60.0119 287.206 67.691" fill="black"/>
<path d="M318.447 276.314C317.824 275.93 317.075 275.808 316.362 275.975C315.65 276.143 315.033 276.586 314.647 277.208C308.748 286.738 301.9 295.647 294.209 303.799C293.956 304.062 293.757 304.372 293.625 304.712C293.492 305.051 293.429 305.414 293.437 305.779C293.446 306.143 293.527 306.503 293.675 306.836C293.823 307.169 294.036 307.469 294.301 307.72C294.567 307.97 294.879 308.165 295.22 308.294C295.561 308.423 295.924 308.483 296.289 308.471C296.653 308.459 297.012 308.374 297.343 308.222C297.675 308.071 297.973 307.855 298.221 307.587C306.168 299.163 313.243 289.958 319.338 280.112C319.723 279.489 319.845 278.74 319.677 278.027C319.509 277.315 319.066 276.698 318.444 276.312" fill="black"/>
<path d="M881.681 693.733C879.09 693.733 876.557 692.965 874.403 691.525C872.249 690.086 870.57 688.04 869.578 685.646C868.587 683.252 868.327 680.618 868.833 678.077C869.338 675.536 870.586 673.202 872.418 671.37C874.25 669.538 876.584 668.29 879.125 667.785C881.666 667.279 884.3 667.539 886.694 668.53C889.088 669.522 891.134 671.201 892.573 673.355C894.013 675.509 894.781 678.042 894.781 680.633C894.781 682.353 894.442 684.057 893.784 685.646C893.126 687.236 892.161 688.68 890.944 689.896C889.728 691.113 888.284 692.078 886.694 692.736C885.105 693.394 883.401 693.733 881.681 693.733ZM881.681 672.9C880.152 672.9 878.658 673.354 877.387 674.203C876.117 675.052 875.126 676.259 874.541 677.672C873.956 679.084 873.803 680.638 874.102 682.137C874.4 683.636 875.136 685.013 876.217 686.094C877.298 687.175 878.675 687.911 880.174 688.209C881.673 688.508 883.227 688.355 884.639 687.77C886.052 687.185 887.259 686.195 888.108 684.924C888.957 683.653 889.411 682.159 889.411 680.63C889.411 679.615 889.211 678.61 888.823 677.672C888.434 676.734 887.865 675.882 887.147 675.164C886.429 674.446 885.577 673.877 884.639 673.488C883.701 673.1 882.696 672.9 881.681 672.9Z" fill="#FF5A00"/>
<path d="M132.682 736.385H124.634V725.037C124.634 724.431 124.393 723.851 123.965 723.423C123.537 722.995 122.957 722.754 122.351 722.754C121.746 722.754 121.165 722.995 120.737 723.423C120.309 723.851 120.068 724.431 120.068 725.037V736.385H112.019C111.422 736.398 110.853 736.644 110.435 737.07C110.017 737.497 109.783 738.071 109.783 738.669C109.783 739.266 110.017 739.84 110.435 740.267C110.853 740.693 111.422 740.94 112.019 740.952H120.067V752.3C120.067 752.905 120.308 753.486 120.736 753.914C121.164 754.342 121.745 754.583 122.35 754.583C122.956 754.583 123.536 754.342 123.964 753.914C124.392 753.486 124.633 752.905 124.633 752.3V740.952H132.681C132.985 740.958 133.287 740.904 133.57 740.792C133.852 740.68 134.11 740.513 134.327 740.3C134.544 740.088 134.717 739.834 134.834 739.554C134.952 739.273 135.013 738.972 135.013 738.669C135.013 738.365 134.952 738.064 134.834 737.783C134.717 737.503 134.544 737.249 134.327 737.037C134.11 736.824 133.852 736.657 133.57 736.545C133.287 736.433 132.985 736.379 132.681 736.385" fill="#FF5A00"/>
<path d="M864.332 96.441H852.25V79.405C852.25 78.4961 851.889 77.6245 851.246 76.9818C850.604 76.3391 849.732 75.978 848.823 75.978C847.914 75.978 847.042 76.3391 846.4 76.9818C845.757 77.6245 845.396 78.4961 845.396 79.405V96.441H833.32C832.421 96.4564 831.564 96.8242 830.934 97.4654C830.304 98.1065 829.951 98.9695 829.951 99.8685C829.951 100.768 830.304 101.631 830.934 102.272C831.564 102.913 832.421 103.281 833.32 103.296H845.399V120.328C845.399 121.237 845.76 122.109 846.403 122.751C847.045 123.394 847.917 123.755 848.826 123.755C849.735 123.755 850.607 123.394 851.249 122.751C851.892 122.109 852.253 121.237 852.253 120.328V103.292H864.332C865.231 103.277 866.088 102.909 866.718 102.268C867.348 101.627 867.701 100.764 867.701 99.8645C867.701 98.9655 867.348 98.1025 866.718 97.4613C866.088 96.8202 865.231 96.4524 864.332 96.437" fill="#FF5A00"/>
<path d="M539.658 297.458C530.608 302.853 521.85 308.72 513.418 315.037C512.98 315.365 512.659 315.824 512.501 316.347C512.343 316.871 512.356 317.431 512.539 317.946C512.722 318.462 513.065 318.905 513.517 319.212C513.97 319.518 514.509 319.672 515.055 319.651C515.14 319.647 515.225 319.64 515.31 319.629C515.739 319.568 516.146 319.401 516.493 319.141C524.78 312.933 533.388 307.166 542.282 301.864C542.571 301.692 542.824 301.464 543.025 301.194C543.227 300.924 543.373 300.617 543.455 300.291C543.538 299.965 543.556 299.625 543.507 299.292C543.459 298.959 543.345 298.638 543.173 298.349C543.001 298.06 542.773 297.807 542.503 297.606C542.233 297.404 541.926 297.258 541.6 297.176C541.274 297.093 540.934 297.075 540.601 297.124C540.268 297.172 539.947 297.286 539.658 297.458Z" fill="black"/>
<path d="M530.181 801.98C521.556 796.251 513.236 790.076 505.255 783.48C504.996 783.262 504.696 783.097 504.372 782.996C504.049 782.894 503.709 782.858 503.371 782.888C503.034 782.919 502.705 783.016 502.406 783.174C502.106 783.332 501.84 783.548 501.624 783.809C501.408 784.07 501.246 784.371 501.147 784.695C501.048 785.019 501.014 785.36 501.047 785.697C501.08 786.035 501.18 786.362 501.34 786.66C501.5 786.959 501.718 787.223 501.981 787.437C510.101 794.145 518.565 800.426 527.339 806.254C527.787 806.551 528.316 806.7 528.853 806.679C528.938 806.675 529.023 806.668 529.108 806.657C529.624 806.585 530.105 806.358 530.489 806.006C530.872 805.654 531.14 805.194 531.255 804.686C531.371 804.179 531.33 803.648 531.136 803.165C530.943 802.681 530.608 802.268 530.174 801.98" fill="black"/>
<path d="M617.004 265.753C616.713 265.586 616.391 265.478 616.058 265.436C615.725 265.394 615.387 265.419 615.063 265.508C611.64 266.44 608.176 267.447 604.763 268.508C598.13 270.565 591.5 272.873 585.053 275.365C584.488 275.584 584.018 275.996 583.728 276.529C583.438 277.061 583.346 277.679 583.468 278.273C583.59 278.867 583.918 279.398 584.395 279.773C584.871 280.148 585.465 280.341 586.071 280.32C586.158 280.318 586.244 280.311 586.33 280.297C586.526 280.27 586.718 280.22 586.903 280.148C593.241 277.696 599.761 275.428 606.281 273.407C609.628 272.37 613.034 271.379 616.405 270.462C616.894 270.328 617.332 270.052 617.664 269.669C617.996 269.286 618.207 268.813 618.27 268.31C618.334 267.807 618.247 267.297 618.021 266.843C617.795 266.39 617.439 266.014 616.999 265.762" fill="black"/>
<path d="M602.668 837.022C592.819 833.817 583.143 830.101 573.681 825.889C573.373 825.752 573.042 825.677 572.705 825.668C572.369 825.659 572.034 825.717 571.719 825.838C571.405 825.958 571.117 826.14 570.873 826.371C570.629 826.603 570.432 826.881 570.296 827.189C570.159 827.496 570.084 827.828 570.075 828.164C570.066 828.501 570.123 828.836 570.244 829.15C570.365 829.465 570.546 829.752 570.778 829.997C571.01 830.241 571.287 830.437 571.595 830.574C581.219 834.858 591.061 838.638 601.079 841.897C601.366 841.992 601.667 842.035 601.969 842.023C602.055 842.021 602.14 842.013 602.225 842.001C602.8 841.921 603.33 841.649 603.73 841.229C604.13 840.809 604.376 840.265 604.427 839.688C604.478 839.11 604.332 838.532 604.013 838.048C603.694 837.564 603.219 837.202 602.668 837.022Z" fill="black"/>
<path d="M477.511 347.822C477.174 347.829 476.842 347.903 476.534 348.04C476.226 348.178 475.949 348.376 475.719 348.622C468.476 356.267 461.638 364.285 455.232 372.643C454.937 373.029 454.757 373.491 454.714 373.976C454.671 374.46 454.767 374.947 454.99 375.379C455.213 375.811 455.555 376.17 455.974 376.416C456.394 376.661 456.875 376.782 457.361 376.765C457.448 376.763 457.535 376.756 457.621 376.743C458.29 376.651 458.895 376.299 459.304 375.762C465.601 367.546 472.322 359.666 479.442 352.152C479.791 351.784 480.023 351.32 480.108 350.821C480.194 350.321 480.129 349.807 479.922 349.343C479.716 348.88 479.377 348.489 478.948 348.218C478.519 347.948 478.019 347.811 477.512 347.824" fill="black"/>
<path d="M431.445 414.087C430.844 413.769 430.141 413.703 429.492 413.903C428.842 414.103 428.298 414.553 427.98 415.154C423.056 424.467 418.62 434.03 414.691 443.804C414.531 444.201 414.473 444.631 414.523 445.056C414.572 445.481 414.727 445.887 414.973 446.237C415.22 446.587 415.55 446.869 415.933 447.059C416.317 447.248 416.741 447.339 417.169 447.322C417.254 447.32 417.338 447.312 417.422 447.3C417.869 447.238 418.293 447.058 418.649 446.78C419.005 446.502 419.281 446.135 419.45 445.716C423.313 436.107 427.674 426.706 432.514 417.551C432.832 416.95 432.898 416.247 432.697 415.597C432.497 414.947 432.046 414.403 431.445 414.085" fill="black"/>
<path d="M400.928 596.097C399.888 588.605 399.128 580.982 398.67 573.439C398.627 572.764 398.32 572.133 397.814 571.683C397.308 571.234 396.646 571.002 395.97 571.039C395.635 571.053 395.306 571.134 395.003 571.277C394.699 571.421 394.428 571.624 394.205 571.874C393.977 572.129 393.802 572.426 393.69 572.749C393.577 573.072 393.529 573.414 393.549 573.755C394.015 581.427 394.788 589.182 395.849 596.807C396.234 599.577 396.664 602.379 397.125 605.135C397.225 605.75 397.547 606.307 398.029 606.701C398.512 607.095 399.122 607.299 399.744 607.274C399.832 607.272 399.92 607.264 400.007 607.251C400.03 607.25 400.053 607.246 400.075 607.24C400.744 607.125 401.341 606.751 401.734 606.197C402.128 605.644 402.286 604.958 402.175 604.288C401.72 601.576 401.297 598.822 400.92 596.102" fill="black"/>
<path d="M404.517 491.237C404.243 490.811 403.848 490.475 403.383 490.273C402.918 490.071 402.404 490.011 401.905 490.101C401.406 490.191 400.945 490.427 400.58 490.778C400.215 491.13 399.962 491.583 399.854 492.078C397.616 502.376 395.919 512.785 394.772 523.261C394.735 523.596 394.765 523.934 394.86 524.258C394.954 524.581 395.111 524.882 395.322 525.145C395.533 525.407 395.794 525.626 396.089 525.787C396.385 525.949 396.709 526.051 397.044 526.087C397.171 526.101 397.298 526.106 397.425 526.101C397.509 526.099 397.592 526.091 397.675 526.079C398.242 526.002 398.766 525.737 399.165 525.327C399.563 524.917 399.813 524.386 399.875 523.817C401.004 513.52 402.673 503.29 404.875 493.169C404.948 492.84 404.955 492.5 404.895 492.168C404.835 491.836 404.71 491.52 404.527 491.237" fill="black"/>
<path d="M681.916 851.248C671.566 850.827 661.245 849.861 650.996 848.355C650.323 848.256 649.639 848.429 649.093 848.834C648.547 849.24 648.185 849.846 648.086 850.519C647.987 851.192 648.16 851.876 648.565 852.422C648.971 852.968 649.577 853.33 650.25 853.429C660.677 854.962 671.178 855.945 681.708 856.373H681.908C681.993 856.369 682.078 856.362 682.163 856.351C682.796 856.261 683.372 855.938 683.779 855.445C684.186 854.952 684.394 854.325 684.363 853.687C684.331 853.049 684.063 852.445 683.61 851.995C683.157 851.544 682.552 851.279 681.913 851.251" fill="black"/>
<path d="M450.793 724.213C450.601 723.936 450.357 723.7 450.074 723.517C449.791 723.335 449.475 723.21 449.143 723.15C448.812 723.09 448.472 723.096 448.143 723.167C447.814 723.238 447.502 723.373 447.225 723.565C446.948 723.757 446.712 724.001 446.529 724.284C446.347 724.567 446.222 724.883 446.162 725.215C446.102 725.546 446.108 725.886 446.179 726.215C446.25 726.544 446.385 726.856 446.577 727.133C452.578 735.793 459.032 744.13 465.912 752.109C466.163 752.401 466.476 752.633 466.829 752.787C467.182 752.941 467.565 753.013 467.95 752.998C468.036 752.996 468.123 752.989 468.208 752.975C468.665 752.911 469.095 752.726 469.455 752.438C469.815 752.15 470.091 751.77 470.253 751.339C470.416 750.908 470.459 750.441 470.379 749.987C470.298 749.533 470.097 749.109 469.796 748.76C463.035 740.918 456.693 732.724 450.796 724.213" fill="black"/>
<path d="M414.444 652.395C414.334 652.077 414.163 651.783 413.939 651.531C413.716 651.279 413.445 651.073 413.143 650.926C412.84 650.779 412.511 650.692 412.175 650.672C411.839 650.652 411.502 650.698 411.184 650.807C410.865 650.917 410.572 651.089 410.32 651.312C410.068 651.535 409.862 651.806 409.714 652.109C409.567 652.412 409.481 652.741 409.46 653.077C409.44 653.413 409.486 653.75 409.596 654.068C413.034 664.024 416.986 673.795 421.438 683.341C421.649 683.799 421.992 684.184 422.422 684.447C422.852 684.71 423.35 684.84 423.854 684.82C423.941 684.818 424.028 684.811 424.114 684.797C424.512 684.742 424.891 684.594 425.22 684.365C425.55 684.137 425.822 683.834 426.014 683.482C426.206 683.129 426.312 682.736 426.324 682.335C426.337 681.934 426.255 681.536 426.085 681.172C421.709 671.788 417.823 662.183 414.444 652.395Z" fill="black"/>
<path d="M901.576 766.213C894.216 773.488 886.479 780.371 878.396 786.834C877.974 787.171 877.67 787.633 877.526 788.153C877.382 788.673 877.406 789.226 877.594 789.732C877.782 790.238 878.126 790.671 878.575 790.971C879.024 791.27 879.557 791.42 880.096 791.399C880.18 791.396 880.264 791.388 880.347 791.377C880.803 791.313 881.234 791.128 881.594 790.841C889.818 784.265 897.69 777.262 905.179 769.86C905.418 769.623 905.609 769.341 905.739 769.031C905.87 768.721 905.938 768.388 905.94 768.051C905.942 767.714 905.877 767.38 905.75 767.068C905.623 766.757 905.435 766.473 905.199 766.233C904.962 765.994 904.68 765.804 904.37 765.673C904.059 765.543 903.726 765.475 903.389 765.473C903.053 765.471 902.719 765.535 902.407 765.663C902.095 765.79 901.811 765.977 901.572 766.214" fill="black"/>
<path d="M962.007 419.474C957.243 410.078 951.988 400.939 946.263 392.096C946.087 391.799 945.852 391.542 945.574 391.338C945.296 391.134 944.979 390.988 944.643 390.91C944.307 390.831 943.959 390.821 943.619 390.881C943.279 390.94 942.954 391.067 942.665 391.255C942.375 391.443 942.127 391.687 941.934 391.973C941.741 392.259 941.608 392.581 941.542 392.92C941.476 393.258 941.48 393.607 941.552 393.944C941.625 394.282 941.764 394.601 941.963 394.883C947.588 403.574 952.752 412.555 957.433 421.789C957.673 422.267 958.056 422.657 958.53 422.905C959.003 423.153 959.543 423.246 960.072 423.17C960.353 423.132 960.626 423.046 960.878 422.917C961.484 422.609 961.943 422.073 962.155 421.427C962.366 420.781 962.313 420.077 962.006 419.47" fill="black"/>
<path d="M983.764 625.8C983.105 625.636 982.407 625.739 981.824 626.088C981.241 626.437 980.82 627.002 980.653 627.661C978.122 637.705 975.069 647.609 971.505 657.334C971.36 657.73 971.314 658.155 971.373 658.572C971.431 658.989 971.592 659.386 971.84 659.727C972.088 660.067 972.416 660.341 972.795 660.525C973.174 660.709 973.593 660.796 974.014 660.779C974.098 660.777 974.181 660.77 974.264 660.757C974.725 660.693 975.16 660.505 975.522 660.213C975.884 659.921 976.16 659.536 976.32 659.099C979.943 649.205 983.048 639.129 985.62 628.912C985.786 628.253 985.683 627.554 985.334 626.971C984.985 626.387 984.418 625.966 983.759 625.8" fill="black"/>
<path d="M991.93 544.993H991.919C991.243 545.02 990.605 545.311 990.143 545.804C989.68 546.297 989.43 546.952 989.446 547.628C989.736 557.983 989.478 568.346 988.674 578.674C988.648 579.01 988.688 579.348 988.792 579.668C988.896 579.988 989.062 580.285 989.281 580.541C989.5 580.797 989.768 581.007 990.068 581.16C990.369 581.312 990.696 581.404 991.032 581.43C991.132 581.438 991.232 581.44 991.332 581.436C991.417 581.434 991.502 581.427 991.586 581.414C992.164 581.33 992.696 581.053 993.095 580.628C993.495 580.203 993.738 579.655 993.786 579.073C994.604 568.564 994.866 558.02 994.572 547.483C994.552 546.803 994.262 546.158 993.767 545.691C993.272 545.224 992.612 544.973 991.932 544.992" fill="black"/>
<path d="M696.298 254.94C685.761 254.859 675.227 255.334 664.74 256.363C664.405 256.391 664.08 256.486 663.782 256.642C663.484 256.797 663.221 257.011 663.007 257.27C662.69 257.652 662.491 258.116 662.433 258.609C662.374 259.101 662.46 259.6 662.679 260.045C662.898 260.49 663.24 260.862 663.666 261.116C664.092 261.37 664.582 261.496 665.077 261.478C665.128 261.478 665.177 261.472 665.231 261.467C675.542 260.456 685.899 259.988 696.259 260.067C696.384 260.069 696.508 260.061 696.632 260.044C697.267 259.947 697.842 259.616 698.244 259.115C698.646 258.615 698.846 257.981 698.804 257.341C698.762 256.7 698.481 256.099 698.017 255.655C697.553 255.211 696.94 254.957 696.298 254.944" fill="black"/>
<path d="M986.734 500.347C986.785 500.34 986.834 500.331 986.882 500.322C987.548 500.188 988.134 499.795 988.511 499.23C988.888 498.664 989.026 497.973 988.894 497.306C986.829 486.973 984.232 476.754 981.112 466.69L980.979 466.263C980.77 465.622 980.317 465.088 979.718 464.779C979.118 464.469 978.421 464.408 977.777 464.608C977.133 464.808 976.594 465.254 976.276 465.849C975.958 466.444 975.887 467.14 976.079 467.787L976.211 468.212C979.278 478.107 981.832 488.153 983.861 498.312C983.981 498.91 984.309 499.445 984.788 499.823C985.266 500.2 985.863 500.395 986.472 500.373C986.557 500.371 986.643 500.363 986.727 500.351" fill="black"/>
<path d="M954.083 701.395C953.492 701.059 952.791 700.971 952.135 701.15C951.479 701.329 950.921 701.762 950.583 702.352C945.45 711.344 939.852 720.063 933.811 728.473C933.531 728.863 933.366 729.323 933.335 729.802C933.304 730.28 933.408 730.758 933.634 731.181C933.861 731.604 934.202 731.955 934.618 732.193C935.034 732.432 935.509 732.55 935.988 732.532C936.075 732.53 936.161 732.523 936.246 732.509C936.59 732.461 936.92 732.344 937.217 732.165C937.515 731.985 937.772 731.748 937.975 731.466C944.119 722.911 949.814 714.041 955.036 704.894C955.203 704.601 955.311 704.279 955.353 703.944C955.396 703.61 955.372 703.271 955.283 702.946C955.194 702.621 955.042 702.316 954.835 702.05C954.629 701.784 954.372 701.561 954.079 701.394" fill="black"/>
<path d="M892.761 330.122C892.25 329.673 891.582 329.445 890.904 329.489C890.225 329.532 889.591 329.843 889.142 330.354C888.693 330.865 888.465 331.533 888.509 332.212C888.552 332.89 888.863 333.524 889.374 333.973C897.144 340.811 904.55 348.052 911.561 355.666C912.025 356.155 912.662 356.442 913.335 356.464C914.009 356.487 914.664 356.244 915.16 355.787C915.655 355.331 915.951 354.698 915.984 354.025C916.017 353.352 915.783 352.693 915.334 352.191C908.2 344.445 900.666 337.078 892.761 330.121" fill="black"/>
<path d="M762.048 843.445C751.965 845.845 741.763 847.716 731.484 849.051C730.836 849.145 730.248 849.484 729.842 849.998C729.436 850.512 729.242 851.161 729.299 851.814C729.357 852.466 729.662 853.072 730.152 853.506C730.642 853.941 731.279 854.172 731.934 854.151C732.012 854.149 732.089 854.142 732.166 854.131C733.069 854.014 733.973 853.892 734.878 853.767C744.352 852.452 753.893 850.656 763.237 848.431C763.899 848.273 764.47 847.86 764.827 847.28C765.183 846.701 765.295 846.004 765.138 845.343C764.98 844.681 764.566 844.109 763.987 843.753C763.408 843.396 762.711 843.284 762.049 843.442" fill="black"/>
<path d="M777.348 266.794C767.227 263.861 756.959 261.461 746.587 259.603C746.254 259.539 745.911 259.542 745.579 259.612C745.247 259.682 744.932 259.817 744.652 260.009C744.372 260.202 744.134 260.448 743.95 260.733C743.766 261.018 743.641 261.337 743.581 261.671C743.522 262.005 743.529 262.348 743.603 262.679C743.677 263.011 743.816 263.324 744.012 263.601C744.208 263.878 744.457 264.114 744.744 264.294C745.032 264.474 745.352 264.596 745.687 264.651C755.882 266.477 765.975 268.837 775.923 271.72C776.186 271.796 776.46 271.83 776.734 271.82C776.819 271.816 776.904 271.809 776.989 271.798C777.569 271.715 778.103 271.437 778.503 271.008C778.902 270.58 779.143 270.028 779.185 269.444C779.228 268.86 779.069 268.279 778.735 267.797C778.401 267.316 777.913 266.963 777.351 266.798" fill="black"/>
<path d="M852.189 300.061C843.23 294.521 833.988 289.45 824.502 284.871C824.198 284.721 823.868 284.633 823.53 284.611C823.192 284.59 822.853 284.635 822.533 284.746C822.213 284.856 821.918 285.028 821.665 285.253C821.412 285.478 821.205 285.751 821.058 286.056C820.911 286.361 820.826 286.692 820.807 287.03C820.789 287.368 820.837 287.706 820.95 288.025C821.063 288.345 821.238 288.638 821.465 288.89C821.692 289.141 821.967 289.344 822.273 289.489C831.598 293.991 840.683 298.976 849.49 304.422C849.924 304.69 850.428 304.823 850.938 304.804C851.023 304.801 851.107 304.793 851.191 304.781C851.714 304.709 852.202 304.477 852.588 304.118C852.974 303.758 853.24 303.289 853.35 302.772C853.459 302.256 853.406 301.719 853.199 301.233C852.992 300.748 852.64 300.339 852.191 300.061" fill="black"/>
<path d="M837.144 814.425C828.081 819.431 818.761 823.959 809.223 827.988C808.65 828.23 808.184 828.672 807.913 829.231C807.641 829.791 807.583 830.431 807.748 831.03C807.913 831.63 808.291 832.149 808.811 832.491C809.331 832.833 809.957 832.974 810.573 832.888C810.795 832.857 811.012 832.798 811.218 832.711C820.921 828.61 830.403 824.004 839.625 818.911C839.927 818.752 840.194 818.534 840.411 818.271C840.627 818.007 840.789 817.703 840.887 817.376C840.985 817.049 841.016 816.706 840.98 816.367C840.943 816.028 840.839 815.7 840.674 815.401C840.509 815.102 840.286 814.84 840.018 814.628C839.751 814.417 839.443 814.261 839.115 814.17C838.786 814.079 838.442 814.054 838.104 814.097C837.766 814.141 837.439 814.251 837.144 814.422" fill="black"/>
<path d="M512.7 401.247H477.897V751.51H512.7V401.247Z" fill="#FF5A00"/>
<path opacity="0.86" d="M512.7 401.378H477.759V413.488H512.7V401.378Z" fill="#FF5A00"/>
<path d="M699.054 118.013V284.908L581.042 402.92H414.147L296.135 284.908V118.013L414.147 0H581.042L699.054 118.013Z" fill="#FF5A00"/>
<path d="M699.054 118.013V284.908L581.042 402.92H414.142L335.181 323.959C631.948 367.69 635.026 53.984 635.026 53.984L699.054 118.013Z" fill="#551948"/>
<path opacity="0.86" d="M699.054 118.013V284.908L581.042 402.92H414.142L335.181 323.959C631.948 367.69 635.026 53.984 635.026 53.984L699.054 118.013Z" fill="#FF5A00"/>
<path d="M699.054 201.46C699.054 201.46 642.32 412.118 414.147 402.919H581.042L699.054 284.908V201.46Z" fill="black"/>
<path opacity="0.86" d="M699.054 201.46C699.054 201.46 642.32 412.118 414.147 402.919H581.042L699.054 284.908V201.46Z" fill="#FF5A00"/>
<path d="M679.473 126.123V276.796L572.931 383.339H422.258L315.716 276.796V126.123L422.258 19.5811H572.931L679.473 126.123Z" stroke="white" stroke-width="12" stroke-miterlimit="10"/>
<path d="M512.701 401.247H498.727V751.51H512.701V401.247Z" fill="black"/>
<path opacity="0.86" d="M512.701 401.247H498.727V751.51H512.701V401.247Z" fill="#FF5A00"/>
</g>
<mask id="mask1_1_396" style="mask-type:luminance" maskUnits="userSpaceOnUse" x="0" y="0" width="995" height="857">
<path d="M994.688 0H0.5V856.374H994.688V0Z" fill="white"/>
</mask>
<g mask="url(#mask1_1_396)">
<path d="M754.564 763.361H234.871C233.32 763.361 231.832 762.745 230.735 761.648C229.638 760.551 229.022 759.063 229.022 757.512V756.278C229.022 754.727 229.638 753.239 230.735 752.142C231.832 751.045 233.32 750.429 234.871 750.429H754.564C755.332 750.429 756.093 750.58 756.803 750.874C757.512 751.168 758.157 751.599 758.701 752.142C759.244 752.685 759.675 753.33 759.968 754.04C760.262 754.75 760.413 755.511 760.413 756.279V757.512C760.413 759.063 759.797 760.551 758.7 761.648C757.603 762.745 756.115 763.361 754.564 763.361Z" fill="black"/>
<path d="M754.564 763.361H234.871C233.32 763.361 231.832 762.745 230.735 761.648C229.638 760.551 229.022 759.063 229.022 757.512V756.278C229.022 754.727 229.638 753.239 230.735 752.142C231.832 751.045 233.32 750.429 234.871 750.429H754.564C755.332 750.429 756.093 750.58 756.803 750.874C757.512 751.168 758.157 751.599 758.701 752.142C759.244 752.685 759.675 753.33 759.968 754.04C760.262 754.75 760.413 755.511 760.413 756.279V757.512C760.413 759.063 759.797 760.551 758.7 761.648C757.603 762.745 756.115 763.361 754.564 763.361Z" fill="black"/>
<path d="M245.138 763.361H161.338C159.623 763.361 157.978 762.68 156.766 761.467C155.553 760.255 154.872 758.61 154.872 756.895C154.872 755.18 155.553 753.535 156.766 752.323C157.978 751.11 159.623 750.429 161.338 750.429H245.138C246.853 750.429 248.498 751.11 249.71 752.323C250.923 753.535 251.604 755.18 251.604 756.895C251.604 758.61 250.923 760.255 249.71 761.467C248.498 762.68 246.853 763.361 245.138 763.361Z" fill="black"/>
<path d="M245.138 763.361H161.338C159.623 763.361 157.978 762.68 156.766 761.467C155.553 760.255 154.872 758.61 154.872 756.895C154.872 755.18 155.553 753.535 156.766 752.323C157.978 751.11 159.623 750.429 161.338 750.429H245.138C246.853 750.429 248.498 751.11 249.71 752.323C250.923 753.535 251.604 755.18 251.604 756.895C251.604 758.61 250.923 760.255 249.71 761.467C248.498 762.68 246.853 763.361 245.138 763.361Z" fill="black"/>
<path d="M123.256 763.361H33.969C33.2007 763.361 32.4399 763.21 31.7301 762.916C31.0203 762.622 30.3754 762.191 29.8321 761.648C29.2889 761.105 28.858 760.46 28.564 759.75C28.2701 759.04 28.1189 758.279 28.119 757.511V756.278C28.119 755.51 28.2703 754.749 28.5643 754.039C28.8583 753.33 29.2892 752.685 29.8325 752.142C30.3757 751.599 31.0206 751.168 31.7304 750.874C32.4401 750.58 33.2008 750.429 33.969 750.429H123.256C124.024 750.429 124.785 750.58 125.495 750.874C126.204 751.168 126.849 751.599 127.393 752.142C127.936 752.685 128.366 753.33 128.66 754.04C128.954 754.75 129.105 755.511 129.105 756.279V757.512C129.105 759.063 128.489 760.551 127.392 761.648C126.295 762.745 124.807 763.361 123.256 763.361Z" fill="black"/>
<path d="M123.256 763.361H33.969C33.2007 763.361 32.4399 763.21 31.7301 762.916C31.0203 762.622 30.3754 762.191 29.8321 761.648C29.2889 761.105 28.858 760.46 28.564 759.75C28.2701 759.04 28.1189 758.279 28.119 757.511V756.278C28.119 755.51 28.2703 754.749 28.5643 754.039C28.8583 753.33 29.2892 752.685 29.8325 752.142C30.3757 751.599 31.0206 751.168 31.7304 750.874C32.4401 750.58 33.2008 750.429 33.969 750.429H123.256C124.024 750.429 124.785 750.58 125.495 750.874C126.204 751.168 126.849 751.599 127.393 752.142C127.936 752.685 128.366 753.33 128.66 754.04C128.954 754.75 129.105 755.511 129.105 756.279V757.512C129.105 759.063 128.489 760.551 127.392 761.648C126.295 762.745 124.807 763.361 123.256 763.361Z" fill="black"/>
<path d="M866.534 763.361H793.051C791.5 763.361 790.013 762.745 788.916 761.648C787.819 760.551 787.203 759.064 787.202 757.513V756.278C787.202 754.727 787.818 753.239 788.915 752.142C790.012 751.045 791.5 750.429 793.051 750.429H866.534C867.302 750.429 868.063 750.58 868.773 750.874C869.482 751.168 870.127 751.599 870.671 752.142C871.214 752.685 871.644 753.33 871.938 754.04C872.232 754.75 872.383 755.511 872.383 756.279V757.512C872.383 759.063 871.767 760.551 870.67 761.648C869.573 762.745 868.085 763.361 866.534 763.361Z" fill="black"/>
<path d="M866.534 763.361H793.051C791.5 763.361 790.013 762.745 788.916 761.648C787.819 760.551 787.203 759.064 787.202 757.513V756.278C787.202 754.727 787.818 753.239 788.915 752.142C790.012 751.045 791.5 750.429 793.051 750.429H866.534C867.302 750.429 868.063 750.58 868.773 750.874C869.482 751.168 870.127 751.599 870.671 752.142C871.214 752.685 871.644 753.33 871.938 754.04C872.232 754.75 872.383 755.511 872.383 756.279V757.512C872.383 759.063 871.767 760.551 870.67 761.648C869.573 762.745 868.085 763.361 866.534 763.361Z" fill="black"/>
<path d="M960.603 763.361H905.695C903.98 763.361 902.335 762.68 901.123 761.467C899.91 760.255 899.229 758.61 899.229 756.895C899.229 755.18 899.91 753.535 901.123 752.323C902.335 751.11 903.98 750.429 905.695 750.429H960.603C962.318 750.429 963.963 751.11 965.175 752.323C966.388 753.535 967.069 755.18 967.069 756.895C967.069 758.61 966.388 760.255 965.175 761.467C963.963 762.68 962.318 763.361 960.603 763.361Z" fill="black"/>
<path d="M960.603 763.361H905.695C903.98 763.361 902.335 762.68 901.123 761.467C899.91 760.255 899.229 758.61 899.229 756.895C899.229 755.18 899.91 753.535 901.123 752.323C902.335 751.11 903.98 750.429 905.695 750.429H960.603C962.318 750.429 963.963 751.11 965.175 752.323C966.388 753.535 967.069 755.18 967.069 756.895C967.069 758.61 966.388 760.255 965.175 761.467C963.963 762.68 962.318 763.361 960.603 763.361Z" fill="black"/>
<path d="M426.731 724.991H243.641L246.972 712.931L253.478 689.381L257.418 675.121L263.226 654.098L274.426 613.572L280.234 592.548L321.065 444.748H349.312L364.277 498.914L390.14 592.548L395.948 613.571L407.148 654.097L412.956 675.12L423.402 712.93L426.731 724.991Z" fill="#FF5A00"/>
<path d="M426.73 725.85H243.64L246.971 713.79L253.477 690.24C381.062 682.703 364.277 499.776 364.277 499.776L423.403 713.79L426.73 725.85Z" fill="black"/>
<path opacity="0.86" d="M426.73 725.85H243.64L246.971 713.79L253.477 690.24C381.062 682.703 364.277 499.776 364.277 499.776L423.403 713.79L426.73 725.85Z" fill="#FF5A00"/>
<path d="M464.191 725.85H206.178V750.381H464.191V725.85Z" fill="#FF5A00"/>
<path d="M426.731 725.851H243.641L246.972 713.791H423.4L426.731 725.851Z" fill="black"/>
<path d="M426.731 725.851H243.641L246.972 713.791H423.4L426.731 725.851Z" fill="black"/>
<path d="M395.948 614.431C395.948 614.431 392.112 695.348 299.148 713.857L423.402 713.79L395.948 614.431Z" fill="black"/>
<path opacity="0.42" d="M395.948 614.431C395.948 614.431 392.112 695.348 299.148 713.857L423.402 713.79L395.948 614.431Z" fill="#FF5A00"/>
<path d="M395.949 614.43H274.422L280.23 593.407H390.14L395.949 614.43Z" fill="white"/>
<path d="M412.954 675.981H257.417L263.225 654.958H407.145L412.954 675.981Z" fill="white"/>
</g>
</g>
<defs>
<clipPath id="clip0_1_396">
<rect width="994.188" height="856.374" fill="white" transform="translate(0.5)"/>
</clipPath>
</defs>
</svg>
