<svg xmlns="http://www.w3.org/2000/svg" width="36.751" height="29.298" viewBox="0 0 36.751 29.298">
  <g id="exam_icon" transform="translate(-0.001)">
    <path id="Path_2311" data-name="Path 2311" d="M4.146,23.02V17.129l-1.813-1V23.02a2.039,2.039,0,0,0-1.45,1.994A2.244,2.244,0,0,0,3.149,27.28a2.241,2.241,0,0,0,1-4.26Z" fill="#3a8bc3"/>
    <path id="Path_2312" data-name="Path 2312" d="M18.375,24.651a3.654,3.654,0,0,1-1.994-.544L6.321,18.4v4.531c.091,0,.091.091.181.091l10.06,5.8a3.691,3.691,0,0,0,3.625,0l10.06-5.8A3.655,3.655,0,0,0,32.06,19.85V17.4L20.369,24.107a3.654,3.654,0,0,1-1.994.544ZM35.866,9.516,20.188.453a3.852,3.852,0,0,0-3.625,0L.884,9.516a1.785,1.785,0,0,0,0,3.081l16.585,9.516a1.531,1.531,0,0,0,.906.272,1.748,1.748,0,0,0,.906-.272L35.866,12.6a1.785,1.785,0,0,0,0-3.084Z" fill="#3a8bc3"/>
  </g>
</svg>
