<svg width="38" height="30" viewBox="0 0 38 30" fill="none" xmlns="http://www.w3.org/2000/svg">
<g clip-path="url(#clip0_1_385)">
<path d="M4.64496 23.0199V17.1289L2.83196 16.1289V23.0199C2.40573 23.1484 2.03327 23.4129 1.77145 23.7729C1.50963 24.133 1.37283 24.5688 1.38196 25.0139C1.37902 25.3123 1.43562 25.6083 1.54846 25.8845C1.6613 26.1608 1.8281 26.4118 2.0391 26.6228C2.25011 26.8338 2.50108 27.0006 2.77733 27.1134C3.05358 27.2262 3.34957 27.2828 3.64796 27.2799C4.15801 27.2863 4.65497 27.1184 5.05672 26.8041C5.45846 26.4898 5.74096 26.0478 5.85753 25.5512C5.97411 25.0546 5.91777 24.5331 5.69785 24.0729C5.47792 23.6126 5.10756 23.2412 4.64796 23.0199H4.64496Z" fill="#FF5A00"/>
<path d="M18.874 24.6509C18.1708 24.6653 17.4784 24.4764 16.88 24.1069L6.81998 18.3999V22.9309C6.91098 22.9309 6.91098 23.0219 7.00098 23.0219L17.061 28.8219C17.6142 29.1338 18.2385 29.2976 18.8735 29.2976C19.5085 29.2976 20.1328 29.1338 20.686 28.8219L30.746 23.0219C31.2999 22.6988 31.759 22.2355 32.0773 21.6787C32.3955 21.122 32.5616 20.4912 32.559 19.8499V17.3999L20.868 24.1069C20.2695 24.4764 19.5772 24.6653 18.874 24.6509ZM36.365 9.51594L20.687 0.452945C20.1291 0.155477 19.5067 -0.00012207 18.8745 -0.00012207C18.2423 -0.00012207 17.6198 0.155477 17.062 0.452945L1.38298 9.51594C1.11413 9.67332 0.89114 9.89831 0.736182 10.1686C0.581225 10.4388 0.499695 10.7449 0.499695 11.0564C0.499695 11.368 0.581225 11.6741 0.736182 11.9443C0.89114 12.2146 1.11413 12.4396 1.38298 12.5969L17.968 22.1129C18.2337 22.297 18.5508 22.3922 18.874 22.3849C19.1952 22.3793 19.5087 22.2852 19.78 22.1129L36.365 12.5999C36.6345 12.4428 36.8582 12.2177 37.0136 11.9471C37.169 11.6766 37.2508 11.37 37.2508 11.0579C37.2508 10.7459 37.169 10.4393 37.0136 10.1688C36.8582 9.89821 36.6345 9.67312 36.365 9.51594Z" fill="#FF5A00"/>
</g>
<defs>
<clipPath id="clip0_1_385">
<rect width="36.751" height="29.298" fill="white" transform="translate(0.5)"/>
</clipPath>
</defs>
</svg>
