<svg width="48" height="47" viewBox="0 0 48 47" fill="none" xmlns="http://www.w3.org/2000/svg">
<g clip-path="url(#clip0_1_392)">
<path d="M47.5 23.495C47.4979 28.9226 45.6159 34.1819 42.1741 38.3788C38.7323 42.5756 33.9431 45.4507 28.6209 46.5154C23.2987 47.5801 17.7721 46.7685 12.9807 44.2187C8.18925 41.6688 4.42887 37.5382 2.33894 32.5291C0.249002 27.5199 -0.0414793 21.9416 1.51689 16.7424C3.07525 11.5433 6.38626 7.04446 10.8869 4.01077C15.3876 0.977089 20.8001 -0.404119 26.2041 0.102001C31.608 0.608121 36.6699 2.97032 40.529 6.78695C42.738 8.97268 44.4915 11.5748 45.688 14.4427C46.8846 17.3107 47.5005 20.3874 47.5 23.495ZM40.852 34.882C43.7808 30.5588 44.9354 25.2752 44.077 20.1244C43.2186 14.9737 40.4129 10.35 36.2404 7.21034C32.0679 4.07065 26.8481 2.65521 21.6611 3.25692C16.4741 3.85864 11.7169 6.43145 8.37402 10.443C1.49302 18.725 3.02702 29.361 7.20702 34.855C9.40576 32.6261 12.0258 30.8568 14.9148 29.65C17.8037 28.4432 20.9038 27.823 24.0347 27.8255C27.1655 27.828 30.2646 28.4532 33.1516 29.6646C36.0386 30.876 38.6569 32.6496 40.852 34.882Z" fill="#C0C0C0"/>
<path d="M33.213 15.342C33.2102 17.1633 32.6669 18.9429 31.6518 20.4552C30.6367 21.9674 29.1956 23.1444 27.511 23.8369C25.8264 24.5294 23.9742 24.7063 22.189 24.3452C20.4037 23.984 18.7659 23.1011 17.4829 21.8083C16.1999 20.5155 15.3296 18.871 14.9821 17.0831C14.6346 15.2952 14.8256 13.4443 15.5309 11.7651C16.2362 10.0858 17.4241 8.65373 18.9441 7.6502C20.4641 6.64667 22.2477 6.11689 24.069 6.12798C26.5017 6.14278 28.8296 7.12052 30.5432 8.84728C32.2568 10.574 33.2168 12.9092 33.213 15.342Z" fill="#C0C0C0"/>
</g>
<defs>
<clipPath id="clip0_1_392">
<rect width="47" height="47" fill="white" transform="translate(0.5)"/>
</clipPath>
</defs>
</svg>
