<svg width="49" height="45" viewBox="0 0 49 45" fill="none" xmlns="http://www.w3.org/2000/svg">
<g clip-path="url(#clip0_1_389)">
<path d="M29.2691 0.16294C28.2432 -0.111653 27.1539 -0.0223408 26.1864 0.415681C25.219 0.853703 24.4332 1.61338 23.9627 2.56546C23.4922 3.51755 23.3661 4.60323 23.6058 5.63781C23.8456 6.67239 24.4364 7.59195 25.2777 8.24005C26.119 8.88815 27.1588 9.22476 28.2203 9.19261C29.2818 9.16046 30.2994 8.76154 31.0999 8.06371C31.9005 7.36588 32.4345 6.41225 32.6112 5.36506C32.7879 4.31787 32.5963 3.24181 32.0691 2.31994C31.7672 1.79389 31.3645 1.33258 30.884 0.962437C30.4035 0.592298 29.8547 0.32061 29.2691 0.16294ZM7.26209 22.7479C7.38684 22.3117 7.42272 21.8549 7.36762 21.4045C7.31251 20.9542 7.16753 20.5194 6.94128 20.1262C6.71503 19.7329 6.41212 19.389 6.05049 19.115C5.68887 18.841 5.27591 18.6424 4.83609 18.5309C4.3999 18.4133 3.94482 18.3828 3.49684 18.4411C3.04885 18.4994 2.61673 18.6453 2.22515 18.8706C1.83356 19.0958 1.49018 19.396 1.21461 19.754C0.939047 20.112 0.736686 20.5208 0.619088 20.9569C0.501489 21.3931 0.470955 21.8482 0.529229 22.2962C0.587503 22.7442 0.733443 23.1763 0.958718 23.5679C1.18399 23.9595 1.48419 24.3028 1.84217 24.5784C2.20015 24.854 2.6089 25.0563 3.04509 25.1739C3.92529 25.3935 4.85632 25.2634 5.64265 24.8111C6.42898 24.3587 7.00943 23.6192 7.26209 22.7479ZM19.8541 43.2539C22.1439 44.4205 24.6877 45.0001 27.2569 44.9405C29.8261 44.881 32.3402 44.1842 34.5736 42.9129C36.8069 41.6415 38.6895 39.8353 40.0523 37.6565C41.415 35.4776 42.2153 32.9945 42.3811 30.4299C38.9941 33.114 35.4018 35.528 31.6371 37.6499C27.8572 39.8129 23.9181 41.6849 19.8541 43.2499V43.2539ZM48.0421 15.8749C46.3091 12.9289 40.7641 13.8529 34.7571 15.9899C32.4157 14.6041 29.7508 13.859 27.0302 13.8295C24.3096 13.8 21.6292 14.4872 19.2584 15.8219C16.8875 17.1566 14.9097 19.0919 13.5238 21.4332C12.1379 23.7745 11.3927 26.4394 11.3631 29.1599C7.66309 32.1599 4.83609 35.1669 4.20109 37.5929C4.05236 38.0592 4.00127 38.5511 4.05099 39.038C4.10071 39.5249 4.25018 39.9963 4.49009 40.4229C5.24109 41.7509 6.80009 42.2709 8.82209 42.2709C14.5401 42.2709 24.0131 37.9389 29.9631 34.5889C38.2231 29.9679 47.0631 23.2679 48.3311 18.7039C48.4797 18.2378 48.5308 17.7461 48.4811 17.2594C48.4313 16.7726 48.2819 16.3014 48.0421 15.8749ZM7.43509 38.6899C7.43509 37.8809 8.87909 35.8599 11.8251 33.2599C12.1741 34.594 12.6987 35.8759 13.3851 37.0719C13.5581 37.3609 13.7321 37.5919 13.9051 37.8809C10.4391 38.9209 8.12909 39.0899 7.43509 38.6899ZM22.3351 21.4769C21.0222 22.2212 19.9168 23.2826 19.1197 24.5641C18.3226 25.8455 17.8593 27.3063 17.7721 28.8129C17.7424 29.1754 17.5774 29.5134 17.3098 29.7596C17.0422 30.0059 16.6917 30.1424 16.3281 30.1419H16.2131C16.0273 30.1307 15.8456 30.083 15.6783 30.0016C15.511 29.9201 15.3613 29.8065 15.2379 29.6672C15.1145 29.5279 15.0197 29.3657 14.959 29.1898C14.8983 29.0138 14.8728 28.8277 14.8841 28.6419C15.0155 26.6721 15.6328 24.7654 16.6809 23.0924C17.7289 21.4193 19.175 20.0318 20.8901 19.0539C21.0528 18.9576 21.233 18.8945 21.4203 18.8685C21.6076 18.8425 21.7982 18.8541 21.981 18.9025C22.1638 18.9509 22.3352 19.0352 22.4851 19.1504C22.6349 19.2657 22.7604 19.4097 22.8541 19.5739C22.9477 19.7319 23.0086 19.9071 23.0332 20.0891C23.0578 20.271 23.0456 20.4561 22.9974 20.6333C22.9492 20.8105 22.8659 20.9762 22.7525 21.1206C22.6391 21.265 22.4978 21.3851 22.3371 21.4739L22.3351 21.4769ZM40.9351 22.8059C40.7775 22.4219 40.584 22.0536 40.3571 21.7059C39.6998 20.5735 38.9047 19.5269 37.9901 18.5899C41.8021 17.4349 44.3441 17.2039 45.0371 17.6659C45.0371 18.4159 43.6511 20.3219 40.9371 22.8059H40.9351Z" fill="white"/>
</g>
<defs>
<clipPath id="clip0_1_389">
<rect width="48" height="44.945" fill="white" transform="translate(0.5)"/>
</clipPath>
</defs>
</svg>
