<svg width="19" height="18" viewBox="0 0 19 18" fill="none" xmlns="http://www.w3.org/2000/svg">
<g clip-path="url(#clip0_1_476)">
<path d="M18.141 9.20096C18.1517 8.58223 18.0879 7.96445 17.951 7.36096H9.5V10.701H14.46C14.3659 11.2866 14.1545 11.8471 13.8383 12.3489C13.5221 12.8507 13.1077 13.2834 12.62 13.621L12.603 13.733L15.275 15.803L15.46 15.821C16.3446 14.9661 17.0402 13.9353 17.5018 12.7951C17.9634 11.6548 18.1808 10.4304 18.14 9.20096" fill="#4285F4"/>
<path d="M9.49999 18.001C11.6923 18.0629 13.825 17.2828 15.46 15.821L12.62 13.621C11.699 14.2384 10.6083 14.553 9.49999 14.521C8.3619 14.5144 7.2548 14.1495 6.33577 13.4782C5.41674 12.8068 4.73245 11.8632 4.37999 10.781L4.27399 10.79L1.49999 12.94L1.46399 13.04C2.21181 14.5307 3.35937 15.784 4.77846 16.6601C6.19754 17.5362 7.83227 18.0004 9.49999 18.001Z" fill="#34A853"/>
<path d="M4.37998 10.781C4.18336 10.208 4.08201 9.60674 4.07998 9.00099C4.0836 8.3962 4.18144 7.79566 4.36998 7.22099L4.36498 7.10099L1.55198 4.91699L1.45998 4.96099C0.828781 6.21418 0.5 7.59782 0.5 9.00099C0.5 10.4042 0.828781 11.7878 1.45998 13.041L4.37998 10.781Z" fill="#FBBC05"/>
<path d="M9.50001 3.48099C10.7896 3.46094 12.0369 3.9412 12.98 4.82099L15.52 2.34099C13.8909 0.812708 11.7336 -0.025849 9.50001 0.000991201C7.8313 0.00123087 6.19553 0.465394 4.77539 1.34163C3.35526 2.21787 2.2067 3.47167 1.45801 4.96299L4.37001 7.22099C4.72592 6.13901 5.41247 5.19605 6.33286 4.52505C7.25324 3.85404 8.36102 3.48886 9.50001 3.48099Z" fill="#EB4335"/>
</g>
<defs>
<clipPath id="clip0_1_476">
<rect width="17.645" height="18.004" fill="white" transform="translate(0.5)"/>
</clipPath>
</defs>
</svg>
