<svg width="46" height="48" viewBox="0 0 46 48" fill="none" xmlns="http://www.w3.org/2000/svg">
<g clip-path="url(#clip0_1_591)">
<path d="M45.672 25.666L44.121 17.341C43.9485 16.4025 43.4513 15.5546 42.7165 14.9458C41.9818 14.337 41.0562 14.0061 40.102 14.011H36.657C35.7028 14.0061 34.7773 14.337 34.0425 14.9458C33.3077 15.5546 32.8105 16.4025 32.638 17.341C32.7674 17.695 32.8635 18.0602 32.925 18.432L34.825 28.48C35.0638 29.6534 34.8808 30.8734 34.308 31.925V31.982L34.94 39.676C34.9785 40.186 35.2058 40.6634 35.5775 41.0148C35.9492 41.3661 36.4386 41.5663 36.95 41.576H39.701C40.2182 41.5858 40.7185 41.3922 41.0944 41.0369C41.4703 40.6816 41.6917 40.1929 41.711 39.676L42.343 31.982C42.3958 31.6366 42.5121 31.304 42.686 31.001L45.27 27.269C45.4544 27.0506 45.5864 26.7928 45.6557 26.5154C45.7251 26.2381 45.7299 25.9485 45.67 25.669L45.672 25.666ZM7.95102 11.082C8.90479 11.0816 9.83703 10.7984 10.6299 10.2683C11.4227 9.73813 12.0406 8.9848 12.4054 8.10353C12.7701 7.22227 12.8654 6.25264 12.6792 5.31723C12.4929 4.38182 12.0335 3.52263 11.359 2.84828C10.6846 2.17393 9.82527 1.7147 8.88982 1.52866C7.95437 1.34261 6.98476 1.43809 6.10357 1.80304C5.22238 2.16799 4.46918 2.78601 3.93919 3.57897C3.4092 4.37193 3.12622 5.30424 3.12602 6.25801C3.12589 6.89162 3.25061 7.51906 3.49305 8.10446C3.7355 8.68986 4.09092 9.22175 4.539 9.66974C4.98708 10.1177 5.51904 10.473 6.10449 10.7154C6.68994 10.9577 7.3174 11.0823 7.95102 11.082ZM38.551 11.082C39.6547 11.072 40.721 10.6803 41.5686 9.97333C42.4163 9.26639 42.9931 8.28783 43.2011 7.20384C43.4091 6.11986 43.2355 4.99729 42.7097 4.02679C42.184 3.0563 41.3385 2.29771 40.3169 1.87987C39.2953 1.46203 38.1605 1.4107 37.1053 1.7346C36.0502 2.0585 35.1397 2.73766 34.5284 3.65673C33.9172 4.5758 33.6429 5.67811 33.7522 6.77644C33.8615 7.87478 34.3477 8.90142 35.128 9.68201C35.5784 10.1291 36.1126 10.4829 36.7 10.7231C37.2874 10.9634 37.9164 11.0853 38.551 11.082ZM9.49902 14.01H6.05102C5.09681 14.0051 4.17128 14.336 3.4365 14.9448C2.70172 15.5536 2.20454 16.4015 2.03202 17.34L0.542021 25.666C0.484988 25.934 0.48628 26.2111 0.545807 26.4786C0.605335 26.746 0.721706 26.9975 0.887021 27.216L3.41302 30.948C3.63547 31.2247 3.75682 31.569 3.75702 31.924L4.38902 39.618C4.42751 40.1281 4.65482 40.6054 5.02653 40.9568C5.39824 41.3081 5.88762 41.5083 6.39902 41.518H9.15102C9.66818 41.5278 10.1685 41.3342 10.5444 40.9789C10.9203 40.6236 11.1417 40.1349 11.161 39.618L11.793 31.924V31.867C11.252 30.805 11.0705 29.596 11.276 28.422L13.171 18.374C13.2468 18.0054 13.3426 17.6412 13.458 17.283C13.2941 16.3563 12.8057 15.5181 12.0804 14.9185C11.3551 14.3188 10.44 13.9968 9.49902 14.01Z" fill="#FF5A00"/>
<path d="M23.279 11.484C24.592 11.4709 25.8601 11.0039 26.8678 10.1621C27.8755 9.32027 28.5608 8.15564 28.8074 6.86593C29.0539 5.57622 28.8465 4.24092 28.2204 3.08677C27.5942 1.93262 26.5879 1.03076 25.3723 0.534321C24.1567 0.0378815 22.8067 -0.022535 21.5516 0.36333C20.2965 0.749194 19.2137 1.55756 18.4869 2.65115C17.7601 3.74475 17.4343 5.05618 17.5646 6.36276C17.695 7.66935 18.2735 8.89054 19.202 9.81899C19.7386 10.3512 20.3749 10.7722 21.0746 11.0579C21.7742 11.3436 22.5233 11.4884 23.279 11.484ZM31.834 29.001L29.939 18.948C29.7201 17.8255 29.1208 16.8129 28.2423 16.0808C27.3637 15.3487 26.2596 14.9419 25.116 14.929H21.04C19.8936 14.9312 18.784 15.3342 17.9032 16.0681C17.0225 16.802 16.426 17.8208 16.217 18.948L14.322 29.001C14.2572 29.3182 14.2593 29.6454 14.3282 29.9617C14.397 30.278 14.5312 30.5765 14.722 30.838L17.822 35.317C18.073 35.6699 18.2123 36.09 18.222 36.523L18.968 45.767C19.0183 46.3741 19.2943 46.9403 19.7416 47.3538C20.1888 47.7674 20.7749 47.9983 21.384 48.001H24.714C25.3257 48.0054 25.9159 47.7762 26.3642 47.36C26.8125 46.9439 27.085 46.3723 27.126 45.762L27.872 36.518C27.9177 36.092 28.0541 35.6808 28.272 35.312L31.372 30.833C31.5682 30.5744 31.7102 30.2788 31.7896 29.964C31.869 29.6493 31.8841 29.3217 31.834 29.001Z" fill="#FF5A00"/>
</g>
<defs>
<clipPath id="clip0_1_591">
<rect width="45.214" height="48.001" fill="white" transform="translate(0.5)"/>
</clipPath>
</defs>
</svg>
