<svg xmlns="http://www.w3.org/2000/svg" width="47.971" height="47.018" viewBox="0 0 47.971 47.018">
  <g id="guess_icon" transform="translate(-1 0.013)">
    <path id="Path_2317" data-name="Path 2317" d="M38.823,11.2a9.638,9.638,0,0,0-6.89-2.871,9.737,9.737,0,0,0-6.89,2.871,1.746,1.746,0,1,0,2.469,2.469,6.238,6.238,0,0,1,8.842,0,1.665,1.665,0,0,0,2.411,0,1.686,1.686,0,0,0,.058-2.469Z" fill="#3a8bc3"/>
    <path id="Path_2318" data-name="Path 2318" d="M43.933,5.053a17.286,17.286,0,0,0-26.641,21.76l-3.158,3.158-.517-.459a.661.661,0,0,0-.976,0L1.388,40.766a1.423,1.423,0,0,0,0,1.952l3.9,3.9a1.423,1.423,0,0,0,1.952,0L18.5,35.368a.661.661,0,0,0,0-.976l-.517-.517,3.043-3.043A17.274,17.274,0,0,0,43.933,5.053Zm-3.9,20.555a11.777,11.777,0,1,1,3.441-8.325,11.77,11.77,0,0,1-3.441,8.325Z" fill="#3a8bc3"/>
  </g>
</svg>
