<svg width="49" height="48" viewBox="0 0 49 48" fill="none" xmlns="http://www.w3.org/2000/svg">
<g clip-path="url(#clip0_1_491)">
<path d="M38.323 11.213C37.4231 10.3004 36.3503 9.57638 35.1672 9.08341C33.9842 8.59044 32.7147 8.33838 31.433 8.34199C30.1522 8.34385 28.8843 8.5984 27.702 9.09105C26.5197 9.58371 25.4462 10.3048 24.543 11.213C24.3773 11.3743 24.2454 11.5669 24.1548 11.7797C24.0642 11.9924 24.0167 12.221 24.0152 12.4523C24.0136 12.6835 24.0581 12.9127 24.1458 13.1267C24.2336 13.3406 24.363 13.535 24.5265 13.6985C24.69 13.862 24.8844 13.9914 25.0983 14.0791C25.3122 14.1669 25.5415 14.2113 25.7727 14.2098C26.0039 14.2083 26.2326 14.1608 26.4453 14.0702C26.658 13.9796 26.8507 13.8476 27.012 13.682C27.5916 13.0997 28.2806 12.6377 29.0392 12.3224C29.7979 12.0071 30.6114 11.8448 31.433 11.8448C32.2546 11.8448 33.0681 12.0071 33.8268 12.3224C34.5854 12.6377 35.2744 13.0997 35.854 13.682C36.0095 13.8452 36.1965 13.9752 36.4038 14.0639C36.611 14.1527 36.8341 14.1985 37.0595 14.1985C37.2849 14.1985 37.508 14.1527 37.7152 14.0639C37.9225 13.9752 38.1095 13.8452 38.265 13.682C38.4384 13.5282 38.5782 13.3404 38.6758 13.1301C38.7733 12.9199 38.8265 12.6918 38.8319 12.4601C38.8374 12.2284 38.795 11.9981 38.7074 11.7835C38.6198 11.5689 38.489 11.3747 38.323 11.213Z" fill="#FF5A00"/>
<path d="M43.433 5.06599C40.4038 2.03549 36.357 0.238071 32.0775 0.0223867C27.7981 -0.193298 23.591 1.18812 20.2724 3.8987C16.9539 6.60927 14.7603 10.4558 14.1172 14.6921C13.4741 18.9285 14.4273 23.2527 16.792 26.826L13.634 29.984L13.117 29.525C13.0551 29.4572 12.9797 29.4031 12.8957 29.366C12.8116 29.329 12.7208 29.3098 12.629 29.3098C12.5372 29.3098 12.4464 29.329 12.3623 29.366C12.2783 29.4031 12.2029 29.4572 12.141 29.525L0.888005 40.779C0.639147 41.043 0.500549 41.3922 0.500549 41.755C0.500549 42.1178 0.639147 42.4669 0.888005 42.731L4.788 46.631C5.05204 46.8798 5.40117 47.0184 5.764 47.0184C6.12684 47.0184 6.47596 46.8798 6.74 46.631L18 35.381C18.0678 35.3191 18.1219 35.2437 18.159 35.1597C18.196 35.0756 18.2152 34.9848 18.2152 34.893C18.2152 34.8012 18.196 34.7103 18.159 34.6263C18.1219 34.5423 18.0678 34.4669 18 34.405L17.483 33.888L20.526 30.845C23.986 33.567 28.3547 34.8652 32.7397 34.4745C37.1246 34.0838 41.195 32.0336 44.1192 28.7427C47.0434 25.4519 48.6008 21.1687 48.4733 16.7682C48.3458 12.3677 46.5429 8.18195 43.433 5.06599ZM39.533 25.621C37.6081 27.5498 35.074 28.7513 32.3624 29.021C29.6509 29.2907 26.9297 28.6117 24.6627 27.0998C22.3956 25.5879 20.723 23.3366 19.9299 20.7297C19.1368 18.1227 19.2722 15.3214 20.3131 12.8031C21.354 10.2848 23.2359 8.20541 25.6382 6.91923C28.0405 5.63306 30.8145 5.21972 33.4874 5.74967C36.1603 6.27961 38.5667 7.72004 40.2966 9.82547C42.0264 11.9309 42.9727 14.5711 42.974 17.296C42.9763 20.4175 41.7386 23.4121 39.533 25.621Z" fill="#FF5A00"/>
</g>
<defs>
<clipPath id="clip0_1_491">
<rect width="47.971" height="47.018" fill="white" transform="translate(0.5)"/>
</clipPath>
</defs>
</svg>
