<svg width="84" height="91" viewBox="0 0 84 91" fill="none" xmlns="http://www.w3.org/2000/svg">
<path d="M33.941 2.80401L9.41701 16.754C6.93227 18.1679 4.86345 20.211 3.41845 22.6777C1.97345 25.1445 1.20316 27.9482 1.18501 30.807L1.00001 59.021C0.981488 61.88 1.71584 64.6935 3.12926 67.1787C4.54267 69.664 6.58536 71.7334 9.05201 73.179L33.395 87.444C35.8619 88.8895 38.6658 89.6602 41.5249 89.6786C44.3841 89.697 47.1977 88.9626 49.683 87.549L74.208 73.599C76.6936 72.1854 78.7632 70.1425 80.2089 67.6755C81.6547 65.2085 82.4255 62.4044 82.444 59.545L82.625 31.333C82.6437 28.474 81.9095 25.6604 80.496 23.1751C79.0826 20.6899 77.0398 18.6205 74.573 17.175L50.229 2.90901C47.7617 1.46431 44.9575 0.694496 42.0984 0.676943C39.2393 0.659389 36.4259 1.39471 33.941 2.80901" fill="black"/>
<path opacity="0.8" d="M33.941 2.80401L9.41701 16.754C6.93227 18.1679 4.86345 20.211 3.41845 22.6777C1.97345 25.1445 1.20316 27.9482 1.18501 30.807L1.00001 59.021C0.981488 61.88 1.71584 64.6935 3.12926 67.1787C4.54267 69.664 6.58536 71.7334 9.05201 73.179L33.395 87.444C35.8619 88.8895 38.6658 89.6602 41.5249 89.6786C44.3841 89.697 47.1977 88.9626 49.683 87.549L74.208 73.599C76.6936 72.1854 78.7632 70.1425 80.2089 67.6755C81.6547 65.2085 82.4255 62.4044 82.444 59.545L82.625 31.333C82.6437 28.474 81.9095 25.6604 80.496 23.1751C79.0826 20.6899 77.0398 18.6205 74.573 17.175L50.229 2.90901C47.7617 1.46431 44.9575 0.694496 42.0984 0.676943C39.2393 0.659389 36.4259 1.39471 33.941 2.80901" fill="#FF5A00"/>
<path d="M34.964 8.31103L13.627 20.448C11.4647 21.6779 9.66416 23.4553 8.40644 25.6016C7.14872 27.7479 6.47811 30.1874 6.46201 32.675L6.30401 57.222C6.28792 59.7095 6.9269 62.1574 8.15671 64.3197C9.38652 66.4819 11.1638 68.2824 13.31 69.54L34.485 81.951C36.6313 83.2087 39.0708 83.8792 41.5583 83.8951C44.0459 83.9111 46.4938 83.272 48.656 82.042L69.998 69.905C72.1603 68.6751 73.9609 66.8977 75.2186 64.7514C76.4763 62.6051 77.1469 60.1656 77.163 57.678L77.321 33.133C77.3372 30.6453 76.6983 28.197 75.4685 26.0344C74.2387 23.8718 72.4613 22.071 70.315 20.813L49.135 8.40203C46.9886 7.14469 44.5492 6.47437 42.0617 6.45839C39.5742 6.44242 37.1263 7.08136 34.964 8.31103Z" fill="#FF5A00"/>
<g opacity="0.05">
<path d="M52.72 10.366L51.32 14.716L41.52 45.146L47.75 12.658L48.65 7.98801C48.815 8.07701 48.981 8.17001 49.144 8.26501L52.72 10.366Z" fill="white"/>
<path d="M60.352 14.833L58.025 18.586L41.534 45.133L41.529 45.141L54.714 16.671L56.585 12.633L60.352 14.833Z" fill="white"/>
<path d="M75.248 25.564L71.004 28.033L41.531 45.152L68.351 24.833L72.142 21.961C73.3742 22.9793 74.425 24.1989 75.25 25.568" fill="white"/>
<path d="M43.633 83.527C42.0752 83.7496 40.4911 83.7084 38.947 83.405L39.24 79.05L40.127 65.876L41.518 45.195V45.179L43.385 79.118L43.633 83.527Z" fill="white"/>
<path d="M41.51 45.16L10.54 58.407L6.65399 60.067C6.44081 59.0652 6.33621 58.0433 6.34199 57.019L6.35299 55.343L10.253 54.212L41.51 45.16Z" fill="white"/>
<path d="M41.515 45.154L6.491 33.203L6.496 32.514C6.50372 31.15 6.71022 29.7944 7.109 28.49L10.965 30.356L39.529 44.195L41.515 45.154Z" fill="white"/>
<path d="M41.513 45.149L12.935 26.7L9.198 24.286C10.1264 23.0055 11.2632 21.89 12.561 20.986L15.978 23.836L41.513 45.149Z" fill="white"/>
<path d="M41.512 45.145L19.562 21.733L16.628 18.603L20.506 16.403L22.968 19.771L41.512 45.145Z" fill="white"/>
<path d="M41.518 45.15L35.012 33.489L26.285 17.852L24.278 14.252L28.058 12.101L29.62 15.933L41.518 45.15Z" fill="white"/>
<path d="M41.518 45.146L33.068 13.933L31.968 9.87303L34.968 8.16703C35.3484 7.94941 35.7396 7.75116 36.14 7.57303L36.769 11.961L41.518 45.146Z" fill="white"/>
<path d="M18.204 67.796L41.51 45.168L21.675 69.8L19.259 72.8L15.385 70.533L18.204 67.796Z" fill="white"/>
<path d="M41.515 45.154L10.258 42.505L6.43698 42.18L6.46398 37.8L10.258 38.6L33.885 43.557L41.515 45.154Z" fill="white"/>
<path d="M51.077 80.441L48.661 81.813C48.0938 82.1372 47.5039 82.4199 46.896 82.659L46.278 78.344L41.521 45.175V45.191L35.29 77.656L34.509 81.733L34.485 81.723L30.5 79.386L31.72 75.598L41.52 45.165L41.515 45.17L28.33 73.643L26.7 77.156L22.985 74.988L25.013 71.733L41.507 45.173L14.685 65.485L11.404 67.972C10.2003 66.9629 9.17291 65.7605 8.36398 64.414L12.03 62.282L41.51 45.156L10.258 50.189L6.38498 50.813L6.41198 46.474L10.26 46.328L28.522 45.642L41.522 45.154H41.532L50.685 78.968L51.077 80.441Z" fill="white"/>
<path d="M58.765 76.069L54.985 78.22L53.423 74.385L41.523 45.165V45.17L56.745 72.46L58.765 76.069Z" fill="white"/>
<path d="M43.802 11.264L41.521 45.152L39.65 11.197L39.395 6.56001C40.9552 6.26886 42.5535 6.24418 44.122 6.48701L43.802 11.264Z" fill="white"/>
<path d="M66.419 71.718L62.538 73.925L60.073 70.549L41.529 45.174L63.476 68.58L66.419 71.718Z" fill="white"/>
<path d="M74.069 66.172C73.0787 67.4298 71.88 68.5085 70.525 69.361L67.065 66.476L41.53 45.163L70.108 63.615L74.069 66.172Z" fill="white"/>
<path d="M77.125 57.309V57.474C77.1144 59.0234 76.8506 60.5607 76.344 62.025L72.073 59.959L51.916 50.194L41.53 45.163L56.597 50.305L72.785 55.833L77.125 57.309Z" fill="white"/>
<path d="M77.185 48.181L77.155 52.633L48.366 46.592L41.529 45.157L72.785 47.806L77.185 48.181Z" fill="white"/>
<path d="M72.785 36.102L41.55 45.149L72.785 40.121L77.243 39.402L77.213 43.814L72.785 43.982L42.795 45.107L41.529 45.156H41.536L72.5 31.911L76.985 29.994C77.1902 30.9739 77.2908 31.9729 77.285 32.974L77.274 34.807L72.785 36.102Z" fill="white"/>
<path d="M41.529 45.151V45.143L64.146 17.059L68.085 19.367L64.839 22.518L41.529 45.151Z" fill="white"/>
</g>
</svg>
