<svg xmlns="http://www.w3.org/2000/svg" width="132.902" height="119.228" viewBox="0 0 132.902 119.228">
  <g id="hexagon_frame" transform="translate(-206.549 -146.2)">
    <g id="Group_3746" data-name="Group 3746" transform="translate(206.55 146.2)">
      <g id="Group_3745" data-name="Group 3745">
        <path id="Path_13775" data-name="Path 13775" d="M311.465,153.262A15.615,15.615,0,0,0,299.22,146.2H246.706a15.615,15.615,0,0,0-12.246,7.062l-26.22,45.452a15.754,15.754,0,0,0,0,14.2l26.219,45.452a15.615,15.615,0,0,0,12.246,7.062H299.22a15.615,15.615,0,0,0,12.246-7.062l26.3-45.452a15.754,15.754,0,0,0,0-14.2Zm-2.78,100.3a15.615,15.615,0,0,1-12.246,7.062H249.56a15.615,15.615,0,0,1-12.246-7.062l-23.44-40.569a15.754,15.754,0,0,1,0-14.2l23.44-40.569a15.615,15.615,0,0,1,12.246-7.062h46.88a15.615,15.615,0,0,1,12.246,7.062l23.44,40.569a15.754,15.754,0,0,1,0,14.2Z" transform="translate(-206.55 -146.2)"/>
      </g>
    </g>
    <g id="Group_3746-2" data-name="Group 3746" transform="translate(206.55 146.2)" opacity="0.8">
      <g id="Group_3745-2" data-name="Group 3745">
        <path id="Path_13775-2" data-name="Path 13775" d="M311.465,153.262A15.615,15.615,0,0,0,299.22,146.2H246.706a15.615,15.615,0,0,0-12.246,7.062l-26.22,45.452a15.754,15.754,0,0,0,0,14.2l26.219,45.452a15.615,15.615,0,0,0,12.246,7.062H299.22a15.615,15.615,0,0,0,12.246-7.062l26.3-45.452a15.754,15.754,0,0,0,0-14.2Zm-2.78,100.3a15.615,15.615,0,0,1-12.246,7.062H249.56a15.615,15.615,0,0,1-12.246-7.062l-23.44-40.569a15.754,15.754,0,0,1,0-14.2l23.44-40.569a15.615,15.615,0,0,1,12.246-7.062h46.88a15.615,15.615,0,0,1,12.246,7.062l23.44,40.569a15.754,15.754,0,0,1,0,14.2Z" transform="translate(-206.55 -146.2)" fill="#3a8bc3"/>
      </g>
    </g>
    <path id="Subtraction_17" data-name="Subtraction 17" d="M-4334.63,8181.6h-44.863a16.214,16.214,0,0,1-12.7-7.321l-22.507-38.943a16.3,16.3,0,0,1,0-14.72l22.433-38.865a16.2,16.2,0,0,1,12.693-7.322h44.863a16.223,16.223,0,0,1,12.7,7.322l22.508,38.943a16.3,16.3,0,0,1,0,14.721l-22.432,38.865a16.212,16.212,0,0,1-12.694,7.322Zm-40.294-96.1a12.858,12.858,0,0,0-10.072,5.807l-17.794,30.833a12.928,12.928,0,0,0,0,11.677l17.855,30.892a12.866,12.866,0,0,0,10.072,5.81h35.588a12.862,12.862,0,0,0,10.071-5.809l17.794-30.831a12.925,12.925,0,0,0,0-11.677l-17.855-30.894a12.862,12.862,0,0,0-10.071-5.807Z" transform="translate(4630.063 -7922.159)" fill="#3a8bc3"/>
  </g>
</svg>
