<svg width="134" height="120" viewBox="0 0 134 120" fill="none" xmlns="http://www.w3.org/2000/svg">
<g clip-path="url(#clip0_1_482)">
<path d="M105.416 7.062C104.074 5.0048 102.266 3.29315 100.138 2.06609C98.0107 0.839021 95.6236 0.131151 93.171 0H40.657C38.2042 0.130996 35.8169 0.838785 33.6891 2.06586C31.5612 3.29293 29.7529 5.00467 28.411 7.062L2.19099 52.514C1.07945 54.7157 0.500366 57.1476 0.500366 59.614C0.500366 62.0804 1.07945 64.5123 2.19099 66.714L28.41 112.166C29.7519 114.223 31.5603 115.935 33.6881 117.162C35.8159 118.389 38.2032 119.097 40.656 119.228H93.171C95.6238 119.097 98.0111 118.389 100.139 117.162C102.267 115.935 104.075 114.223 105.417 112.166L131.717 66.714C132.829 64.5123 133.408 62.0804 133.408 59.614C133.408 57.1476 132.829 54.7157 131.717 52.514L105.416 7.062ZM102.636 107.362C101.294 109.419 99.4857 111.131 97.3579 112.358C95.2301 113.585 92.8428 114.293 90.39 114.424H43.511C41.0582 114.293 38.6709 113.585 36.5431 112.358C34.4152 111.131 32.6069 109.419 31.265 107.362L7.82498 66.793C6.71344 64.5913 6.13437 62.1594 6.13437 59.693C6.13437 57.2266 6.71344 54.7947 7.82498 52.593L31.265 12.024C32.6069 9.96667 34.4152 8.25493 36.5431 7.02786C38.6709 5.80079 41.0582 5.093 43.511 4.96201H90.391C92.8438 5.093 95.2311 5.80079 97.3589 7.02786C99.4867 8.25493 101.295 9.96667 102.637 12.024L126.077 52.593C127.189 54.7947 127.768 57.2266 127.768 59.693C127.768 62.1594 127.189 64.5913 126.077 66.793L102.636 107.362Z" fill="black"/>
<g opacity="0.8">
<path d="M105.416 7.062C104.074 5.0048 102.266 3.29315 100.138 2.06609C98.0107 0.839021 95.6236 0.131151 93.171 0H40.657C38.2042 0.130996 35.8169 0.838785 33.6891 2.06586C31.5612 3.29293 29.7529 5.00467 28.411 7.062L2.19099 52.514C1.07945 54.7157 0.500366 57.1476 0.500366 59.614C0.500366 62.0804 1.07945 64.5123 2.19099 66.714L28.41 112.166C29.7519 114.223 31.5603 115.935 33.6881 117.162C35.8159 118.389 38.2032 119.097 40.656 119.228H93.171C95.6238 119.097 98.0111 118.389 100.139 117.162C102.267 115.935 104.075 114.223 105.417 112.166L131.717 66.714C132.829 64.5123 133.408 62.0804 133.408 59.614C133.408 57.1476 132.829 54.7157 131.717 52.514L105.416 7.062ZM102.636 107.362C101.294 109.419 99.4857 111.131 97.3579 112.358C95.2301 113.585 92.8428 114.293 90.39 114.424H43.511C41.0582 114.293 38.6709 113.585 36.5431 112.358C34.4152 111.131 32.6069 109.419 31.265 107.362L7.82498 66.793C6.71344 64.5913 6.13437 62.1594 6.13437 59.693C6.13437 57.2266 6.71344 54.7947 7.82498 52.593L31.265 12.024C32.6069 9.96667 34.4152 8.25493 36.5431 7.02786C38.6709 5.80079 41.0582 5.093 43.511 4.96201H90.391C92.8438 5.093 95.2311 5.80079 97.3589 7.02786C99.4867 8.25493 101.295 9.96667 102.637 12.024L126.077 52.593C127.189 54.7947 127.768 57.2266 127.768 59.693C127.768 62.1594 127.189 64.5913 126.077 66.793L102.636 107.362Z" fill="#FF5A00"/>
</g>
<path d="M89.3841 113.241H44.5208C41.9777 113.104 39.5027 112.369 37.2962 111.098C35.0898 109.826 33.2143 108.052 31.8211 105.92L9.31378 66.9769C8.15915 64.6953 7.55792 62.1742 7.55792 59.6171C7.55792 57.0599 8.15915 54.5388 9.31378 52.2572L31.7469 13.392C33.1384 11.26 35.0128 9.4859 37.2181 8.21375C39.4234 6.94159 41.8975 6.2074 44.4398 6.07019H89.303C91.8461 6.20813 94.3208 6.94269 96.5272 8.21472C98.7335 9.48676 100.609 11.2603 102.003 13.392L124.511 52.3348C125.666 54.6166 126.267 57.1384 126.267 59.6957C126.267 62.253 125.666 64.7743 124.511 67.056L102.079 105.921C100.687 108.052 98.8116 109.826 96.6063 111.098C94.4009 112.37 91.9273 113.105 89.3851 113.243L89.3841 113.241ZM49.0901 17.141C47.0732 17.2498 45.1101 17.8323 43.3602 18.8412C41.6103 19.8501 40.1226 21.2571 39.0179 22.9481L21.2239 53.7811C20.3078 55.591 19.8304 57.591 19.8304 59.6195C19.8304 61.648 20.3078 63.648 21.2239 65.4579L39.0789 96.35C40.1838 98.0411 41.6714 99.4485 43.4212 100.458C45.171 101.467 47.1341 102.05 49.1512 102.16H84.7391C86.756 102.051 88.7184 101.468 90.4681 100.458C92.2177 99.4492 93.7052 98.042 94.8099 96.351L112.604 65.5199C113.52 63.7101 113.998 61.7101 113.998 59.6815C113.998 57.6529 113.52 55.653 112.604 53.8431L94.7488 22.9491C93.644 21.2584 92.1567 19.8515 90.407 18.8427C88.6574 17.8338 86.6948 17.2512 84.678 17.142L49.0901 17.141Z" fill="#FF5A00"/>
</g>
<defs>
<clipPath id="clip0_1_482">
<rect width="132.902" height="119.228" fill="white" transform="translate(0.5)"/>
</clipPath>
</defs>
</svg>
