<svg xmlns="http://www.w3.org/2000/svg" width="16.88" height="24.022" viewBox="0 0 16.88 24.022">
  <g id="how_to_play_icon" transform="translate(-3.992 0.016)">
    <path id="Path_2405" data-name="Path 2405" d="M14.709,23.912c-.069.031-.138.063-.213.094H10.373c-.069-.031-.144-.056-.213-.094a.934.934,0,0,1-.526-1,.915.915,0,0,1,.871-.777c1.285-.013,2.575-.013,3.86,0a.915.915,0,0,1,.871.777.938.938,0,0,1-.527,1Z" fill="#3a8bc3"/>
    <path id="Path_2406" data-name="Path 2406" d="M18.72,2.82A8.187,8.187,0,0,0,11.075.113,8,8,0,0,0,6,3,8.209,8.209,0,0,0,4.125,9.851a8.434,8.434,0,0,0,2.218,4.43,5.136,5.136,0,0,1,1.4,3.522,2.809,2.809,0,0,0,2.857,2.82h1.849c.645,0,1.3.013,1.949,0a2.791,2.791,0,0,0,2.713-2.695,5.494,5.494,0,0,1,1.529-3.785,8.158,8.158,0,0,0,2.225-5.5A8.1,8.1,0,0,0,18.72,2.82Zm-1.41,9.995a7.74,7.74,0,0,0-1.849,3.29,7.075,7.075,0,0,0-.213,1.623.949.949,0,0,1-1.04,1.028H10.623a.942.942,0,0,1-1-1,6.912,6.912,0,0,0-1.861-4.7,6.937,6.937,0,0,1-1.811-3.6,6.563,6.563,0,1,1,12.94-2.2,6.293,6.293,0,0,1-1.581,5.559Z" fill="#3a8bc3"/>
    <path id="Path_2407" data-name="Path 2407" d="M13.913,8.942a1,1,0,0,0-.539.909.934.934,0,0,1-1.867-.038A2.654,2.654,0,0,1,12.854,7.4.937.937,0,1,0,11.5,6.58a.913.913,0,0,1-.526.827.934.934,0,0,1-1.347-.858,2.812,2.812,0,0,1,5.514-.758,2.775,2.775,0,0,1-1.228,3.151Z" fill="#3a8bc3"/>
    <path id="Path_2408" data-name="Path 2408" d="M13.374,13.115a.94.94,0,1,1-.946-.934.94.94,0,0,1,.946.934Z" fill="#3a8bc3"/>
  </g>
</svg>
