<svg width="18" height="25" viewBox="0 0 18 25" fill="none" xmlns="http://www.w3.org/2000/svg">
<g clip-path="url(#clip0_1_595)">
<path d="M11.217 23.928C11.148 23.959 11.079 23.991 11.004 24.022H6.88099C6.81199 23.991 6.73699 23.966 6.66799 23.928C6.48312 23.8416 6.33161 23.6971 6.23662 23.5165C6.14164 23.336 6.1084 23.1292 6.14199 22.928C6.17398 22.7173 6.2785 22.5244 6.43751 22.3826C6.59652 22.2407 6.80005 22.1588 7.01299 22.151C8.29799 22.138 9.58799 22.138 10.873 22.151C11.0859 22.1588 11.2895 22.2407 11.4485 22.3826C11.6075 22.5244 11.712 22.7173 11.744 22.928C11.7768 23.1293 11.7431 23.3358 11.648 23.5163C11.5529 23.6967 11.4016 23.8413 11.217 23.928Z" fill="#FF5A00"/>
<path d="M15.228 2.83599C14.2985 1.75967 13.1048 0.944004 11.7642 0.469337C10.4237 -0.00532934 8.98264 -0.122629 7.58299 0.128991C5.58802 0.417592 3.77553 1.44866 2.50799 3.01599C1.7024 3.94466 1.11568 5.04241 0.791147 6.2282C0.466618 7.41398 0.412569 8.65752 0.632992 9.86699C0.912168 11.5324 1.68484 13.0757 2.85099 14.297C3.7496 15.2496 4.2504 16.5094 4.25099 17.819C4.24947 18.1929 4.32261 18.5633 4.46611 18.9085C4.60962 19.2538 4.8206 19.5669 5.08669 19.8296C5.35279 20.0922 5.66864 20.2991 6.01573 20.4381C6.36282 20.5771 6.73416 20.6454 7.10799 20.639H8.95699C9.60199 20.639 10.257 20.652 10.906 20.639C11.6163 20.6195 12.2924 20.3299 12.7966 19.8291C13.3007 19.3284 13.5948 18.6542 13.619 17.944C13.6236 16.5328 14.1711 15.1775 15.148 14.159C16.5537 12.6699 17.3479 10.7066 17.373 8.65899C17.4157 7.59504 17.2483 6.5331 16.8802 5.53393C16.5122 4.53476 15.9507 3.61796 15.228 2.83599ZM13.818 12.831C12.9396 13.7583 12.3044 14.8886 11.969 16.121C11.8354 16.6519 11.764 17.1966 11.756 17.744C11.7683 17.8831 11.7498 18.0233 11.7017 18.1544C11.6536 18.2855 11.5772 18.4045 11.4778 18.5027C11.3785 18.6008 11.2587 18.6759 11.127 18.7225C10.9953 18.769 10.855 18.7859 10.716 18.772H7.13099C6.99746 18.7805 6.86365 18.7605 6.73847 18.7132C6.61328 18.666 6.4996 18.5926 6.40499 18.498C6.31038 18.4034 6.23701 18.2897 6.18976 18.1645C6.14252 18.0393 6.12248 17.9055 6.13099 17.772C6.12634 16.0265 5.46151 14.3475 4.26999 13.072C3.32339 12.0776 2.69313 10.8248 2.45899 9.47199C2.30798 8.61957 2.3271 7.7457 2.51526 6.9007C2.70342 6.0557 3.05689 5.25628 3.55531 4.54847C4.05374 3.84066 4.68728 3.23845 5.41943 2.77653C6.15159 2.3146 6.9679 2.00209 7.82134 1.85699C8.67479 1.71189 9.54851 1.73707 10.3922 1.93108C11.2359 2.12509 12.0328 2.48409 12.7372 2.98741C13.4415 3.49073 14.0393 4.12843 14.4961 4.86377C14.953 5.59911 15.2598 6.41756 15.399 7.27199C15.5988 8.2575 15.5595 9.27653 15.2844 10.2437C15.0093 11.2109 14.5065 12.0981 13.818 12.831Z" fill="#FF5A00"/>
<path d="M10.421 8.95799C10.2552 9.04405 10.1169 9.17482 10.0216 9.33547C9.92634 9.49613 9.87798 9.68026 9.88199 9.86699C9.87079 10.1103 9.765 10.3396 9.58715 10.506C9.40931 10.6725 9.17349 10.7628 8.92997 10.7579C8.68645 10.7529 8.4545 10.653 8.28358 10.4795C8.11265 10.306 8.01627 10.0726 8.01499 9.82899C7.99625 9.34187 8.11203 8.85899 8.34964 8.43334C8.58726 8.00768 8.93751 7.6557 9.36199 7.41599C9.5122 7.3413 9.6396 7.22765 9.73089 7.08692C9.82218 6.94618 9.87402 6.78352 9.88099 6.61591C9.88795 6.4483 9.8498 6.28189 9.7705 6.13407C9.6912 5.98624 9.57367 5.86241 9.43018 5.77551C9.28669 5.68861 9.1225 5.64183 8.95476 5.64004C8.78702 5.63826 8.62187 5.68154 8.47656 5.76537C8.33126 5.8492 8.21112 5.9705 8.1287 6.11661C8.04627 6.26271 8.00459 6.42827 8.00799 6.59599C8.008 6.76958 7.95853 6.93958 7.86537 7.08605C7.7722 7.23253 7.63921 7.34941 7.48199 7.42299C7.33804 7.494 7.17822 7.52672 7.01795 7.51799C6.85768 7.50926 6.70236 7.45937 6.56698 7.37313C6.4316 7.2869 6.32073 7.16724 6.24507 7.02568C6.1694 6.88413 6.13149 6.72546 6.13499 6.56499C6.13993 5.88909 6.38815 5.23759 6.83422 4.72977C7.28028 4.22195 7.89434 3.89179 8.56395 3.79973C9.23357 3.70768 9.91394 3.8599 10.4805 4.22852C11.047 4.59714 11.4619 5.1575 11.649 5.80699C11.8201 6.39412 11.7925 7.02134 11.5704 7.59116C11.3484 8.16098 10.9443 8.64149 10.421 8.95799Z" fill="#FF5A00"/>
<path d="M9.88199 13.131C9.88318 13.3169 9.82921 13.499 9.72691 13.6542C9.6246 13.8094 9.47857 13.9309 9.30726 14.0031C9.13596 14.0753 8.94708 14.0952 8.76451 14.06C8.58194 14.0249 8.41389 13.9365 8.28159 13.8059C8.14929 13.6753 8.0587 13.5083 8.02127 13.3262C7.98383 13.1441 8.00124 12.955 8.07129 12.7828C8.14133 12.6106 8.26087 12.463 8.41479 12.3587C8.5687 12.2545 8.75009 12.1982 8.936 12.197C9.05944 12.1962 9.18183 12.2197 9.29618 12.2662C9.41053 12.3127 9.51459 12.3813 9.60244 12.4681C9.69028 12.5548 9.76018 12.658 9.80815 12.7717C9.85612 12.8855 9.88121 13.0075 9.88199 13.131Z" fill="#FF5A00"/>
</g>
<defs>
<clipPath id="clip0_1_595">
<rect width="16.88" height="24.022" fill="white" transform="translate(0.5)"/>
</clipPath>
</defs>
</svg>
