<svg width="25" height="24" viewBox="0 0 25 24" fill="none" xmlns="http://www.w3.org/2000/svg">
<g clip-path="url(#clip0_1_606)">
<path d="M20.859 2.779C20.8616 2.34098 20.7587 1.90878 20.5591 1.51889C20.3595 1.12901 20.0689 0.792914 19.712 0.539C19.3272 0.276765 18.8941 0.0935552 18.438 0H6.47899C6.45899 0.012 6.44199 0.032 6.42099 0.034C5.73289 0.152334 5.11157 0.517524 4.67344 1.06114C4.23531 1.60475 4.01044 2.28948 4.04099 2.987C4.07699 5.36 4.04099 7.735 4.05599 10.109C4.04805 10.6622 4.09427 11.2148 4.19399 11.759C4.4557 13.3081 5.15313 14.7506 6.20471 15.9178C7.25628 17.0851 8.61849 17.9287 10.132 18.35C10.579 18.495 11.05 18.561 11.508 18.662V22.049H8.78699C8.65998 22.0413 8.53275 22.0597 8.41308 22.1029C8.29341 22.1461 8.18382 22.2133 8.09102 22.3003C7.99822 22.3874 7.92416 22.4924 7.87337 22.6091C7.82259 22.7258 7.79615 22.8516 7.79567 22.9788C7.79519 23.106 7.82069 23.232 7.8706 23.3491C7.9205 23.4661 7.99377 23.5717 8.08592 23.6595C8.17807 23.7472 8.28715 23.8152 8.4065 23.8593C8.52584 23.9034 8.65293 23.9227 8.77999 23.916H16.136C16.263 23.9229 16.3902 23.9037 16.5096 23.8597C16.629 23.8157 16.7381 23.7479 16.8304 23.6602C16.9226 23.5726 16.996 23.467 17.046 23.35C17.0961 23.2331 17.1217 23.1071 17.1214 22.9799C17.121 22.8526 17.0947 22.7268 17.0441 22.6101C16.9934 22.4933 16.9194 22.3882 16.8267 22.3011C16.734 22.2139 16.6245 22.1466 16.5049 22.1033C16.3852 22.0599 16.258 22.0415 16.131 22.049H13.407V18.635C13.541 18.616 13.665 18.602 13.787 18.582C15.7537 18.2661 17.5446 17.2626 18.8407 15.75C20.1369 14.2374 20.8542 12.3139 20.865 10.322C20.8783 7.808 20.8763 5.29367 20.859 2.779ZM18.994 10.185C19.0122 11.8273 18.4114 13.4163 17.3112 14.6358C16.2109 15.8553 14.6919 16.6158 13.0563 16.766C11.4208 16.9163 9.7886 16.4453 8.48459 15.4467C7.18057 14.4481 6.30032 12.9952 6.01899 11.377C5.95772 10.9772 5.9263 10.5734 5.92499 10.169C5.91699 7.763 5.92499 5.358 5.92499 2.953C5.9042 2.80729 5.91737 2.65875 5.96347 2.51898C6.00957 2.3792 6.08735 2.25197 6.19074 2.14723C6.29414 2.04248 6.42034 1.96304 6.5595 1.91513C6.69867 1.86721 6.84702 1.85211 6.99299 1.871H17.943C18.0853 1.85405 18.2295 1.86954 18.365 1.91631C18.5004 1.96307 18.6235 2.0399 18.725 2.14102C18.8265 2.24214 18.9038 2.36494 18.9511 2.5002C18.9984 2.63545 19.0144 2.77966 18.998 2.922V10.183L18.994 10.185Z" fill="white"/>
<path d="M2.369 8.78101V10.181C2.38956 10.4163 2.32163 10.6508 2.1785 10.8387C2.03537 11.0266 1.82731 11.1543 1.595 11.197C1.36635 11.2347 1.13182 11.1868 0.936259 11.0625C0.740701 10.9381 0.597842 10.7461 0.535 10.523C0.525035 10.5008 0.513332 10.4794 0.5 10.459V4.48501C0.519 4.44201 0.537 4.40001 0.559 4.35901C0.634225 4.15233 0.779395 3.9785 0.969346 3.86763C1.1593 3.75677 1.38205 3.71586 1.599 3.75201C1.82025 3.79 2.02032 3.90666 2.16236 4.08049C2.30441 4.25432 2.37886 4.47362 2.372 4.69801C2.37067 6.05867 2.36967 7.41967 2.369 8.78101Z" fill="white"/>
<path d="M24.416 4.74V10.2C24.4267 10.3289 24.4107 10.4586 24.3688 10.581C24.327 10.7034 24.2602 10.8158 24.1728 10.9112C24.0854 11.0065 23.9791 11.0827 23.8608 11.135C23.7425 11.1872 23.6146 11.2144 23.4852 11.2149C23.3559 11.2153 23.2278 11.1889 23.1092 11.1374C22.9905 11.0859 22.8838 11.0104 22.7958 10.9156C22.7077 10.8208 22.6402 10.7089 22.5976 10.5867C22.555 10.4646 22.5381 10.335 22.548 10.206V4.747C22.5372 4.61809 22.5532 4.48835 22.595 4.36593C22.6368 4.24351 22.7034 4.13107 22.7908 4.03569C22.8782 3.94032 22.9844 3.86406 23.1027 3.81174C23.221 3.75941 23.3488 3.73215 23.4782 3.73167C23.6076 3.73118 23.7356 3.75749 23.8543 3.80892C23.973 3.86036 24.0797 3.93581 24.1678 4.03053C24.2559 4.12526 24.3235 4.23719 24.3662 4.35929C24.4089 4.48139 24.4258 4.61102 24.416 4.74Z" fill="white"/>
<path d="M16.896 6.965C16.8365 6.78222 16.7231 6.62174 16.5707 6.50465C16.4182 6.38756 16.2339 6.31935 16.042 6.309C15.487 6.231 14.933 6.154 14.381 6.058C14.3242 6.04457 14.2706 6.01997 14.2234 5.98564C14.1762 5.9513 14.1363 5.90791 14.106 5.858C13.839 5.358 13.59 4.848 13.34 4.338C13.2701 4.16127 13.1486 4.00963 12.9914 3.90278C12.8343 3.79593 12.6486 3.7388 12.4585 3.7388C12.2684 3.7388 12.0828 3.79593 11.9256 3.90278C11.7684 4.00963 11.6469 4.16127 11.577 4.338C11.328 4.848 11.077 5.358 10.812 5.859C10.782 5.90895 10.7423 5.95239 10.6953 5.98674C10.6482 6.02109 10.5947 6.04566 10.538 6.059C9.98701 6.159 9.43201 6.233 8.87801 6.311C8.68659 6.31995 8.50236 6.38665 8.34957 6.50232C8.19678 6.61798 8.08259 6.77719 8.02201 6.959C7.96041 7.13787 7.95488 7.33128 8.00616 7.51338C8.05745 7.69548 8.16311 7.85758 8.30901 7.978C8.71601 8.378 9.11501 8.778 9.52801 9.172C9.57763 9.21347 9.61435 9.26827 9.63384 9.32993C9.65333 9.39159 9.65478 9.45754 9.63801 9.52C9.52501 10.147 9.42601 10.777 9.33201 11.341C9.31798 11.5058 9.34777 11.6714 9.41837 11.821C9.48897 11.9706 9.59787 12.0988 9.73403 12.1927C9.87018 12.2866 10.0288 12.3429 10.1937 12.3558C10.3586 12.3686 10.5239 12.3377 10.673 12.266C11.227 12.003 11.762 11.699 12.314 11.427C12.3602 11.4073 12.4098 11.3972 12.46 11.3972C12.5102 11.3972 12.5599 11.4073 12.606 11.427C13.149 11.695 13.684 11.983 14.224 12.258C14.3783 12.3447 14.555 12.3833 14.7314 12.3689C14.9078 12.3544 15.0759 12.2876 15.214 12.177C15.3579 12.0742 15.4688 11.9317 15.5329 11.7668C15.597 11.602 15.6116 11.422 15.575 11.249C15.481 10.666 15.375 10.085 15.288 9.5C15.2831 9.44626 15.2888 9.39208 15.305 9.34058C15.3211 9.28909 15.3473 9.2413 15.382 9.2C15.777 8.792 16.182 8.394 16.591 8C16.7413 7.87914 16.851 7.71523 16.9055 7.53025C16.9601 7.34526 16.9567 7.14804 16.896 6.965ZM13.423 9.725C13.1554 9.49352 12.8128 9.36705 12.4589 9.36907C12.1051 9.3711 11.764 9.50148 11.499 9.736C11.6435 9.4188 11.6634 9.05888 11.5549 8.72766C11.4463 8.39645 11.2172 8.11815 10.913 7.948C11.2487 7.88854 11.5739 7.78005 11.878 7.626C12.1097 7.40147 12.3056 7.14281 12.459 6.859C12.6075 7.14158 12.7995 7.39905 13.028 7.622C13.3347 7.78058 13.6638 7.8912 14.004 7.95C13.7016 8.11873 13.4738 8.39516 13.3659 8.72426C13.2581 9.05336 13.2781 9.411 13.422 9.726L13.423 9.725Z" fill="white"/>
</g>
<defs>
<clipPath id="clip0_1_606">
<rect width="23.919" height="23.917" fill="white" transform="translate(0.5)"/>
</clipPath>
</defs>
</svg>
