<svg xmlns="http://www.w3.org/2000/svg" width="23.919" height="23.917" viewBox="0 0 23.919 23.917">
  <g id="icon_leaderboard" transform="translate(-0.041 -0.041)">
    <path id="Path_121" data-name="Path 121" d="M20.4,2.82A2.729,2.729,0,0,0,19.253.58,3.517,3.517,0,0,0,17.979.041H6.02C6,.053,5.983.073,5.962.075a2.869,2.869,0,0,0-2.38,2.953c.036,2.373,0,4.748.015,7.122a8.48,8.48,0,0,0,.138,1.65,8.272,8.272,0,0,0,5.938,6.591c.447.145.918.211,1.376.312V22.09H8.328a.935.935,0,1,0-.007,1.867h7.356a.935.935,0,1,0-.005-1.867H12.948V18.676c.134-.019.258-.033.38-.053a8.412,8.412,0,0,0,7.078-8.26q.02-3.771-.006-7.543Zm-1.865,7.406A6.536,6.536,0,0,1,5.56,11.418a8.149,8.149,0,0,1-.094-1.208c-.008-2.406,0-4.811,0-7.216A.955.955,0,0,1,6.534,1.912h10.95a.949.949,0,0,1,1.055,1.051v7.261Z" fill="#fff"/>
    <path id="Path_122" data-name="Path 122" d="M1.91,8.822v1.4a.949.949,0,0,1-.774,1.016.942.942,0,0,1-1.06-.674A.463.463,0,0,0,.041,10.5V4.526C.06,4.483.078,4.441.1,4.4a.942.942,0,0,1,1.04-.607.931.931,0,0,1,.773.946Q1.911,6.78,1.91,8.822Z" fill="#fff"/>
    <path id="Path_123" data-name="Path 123" d="M23.957,4.781v5.46a.937.937,0,1,1-1.868.006V4.788a.937.937,0,1,1,1.868-.007Z" fill="#fff"/>
    <path id="Path_124" data-name="Path 124" d="M16.437,7.006a.952.952,0,0,0-.854-.656c-.555-.078-1.109-.155-1.661-.251a.44.44,0,0,1-.275-.2c-.267-.5-.516-1.01-.766-1.52a.948.948,0,0,0-1.763,0c-.249.51-.5,1.02-.765,1.521a.436.436,0,0,1-.274.2c-.551.1-1.106.174-1.66.252A.949.949,0,0,0,7.563,7,.929.929,0,0,0,7.85,8.019c.407.4.806.8,1.219,1.194a.339.339,0,0,1,.11.348c-.113.627-.212,1.257-.306,1.821a.938.938,0,0,0,1.341.925c.554-.263,1.089-.567,1.641-.839a.372.372,0,0,1,.292,0c.543.268,1.078.556,1.618.831a.888.888,0,0,0,.99-.081.909.909,0,0,0,.361-.928c-.094-.583-.2-1.164-.287-1.749a.408.408,0,0,1,.094-.3c.395-.408.8-.806,1.209-1.2a.946.946,0,0,0,.305-1.035Zm-3.473,2.76a1.461,1.461,0,0,0-1.924.011,1.389,1.389,0,0,0-.586-1.788,3.478,3.478,0,0,0,.965-.322A3.162,3.162,0,0,0,12,6.9a3.046,3.046,0,0,0,.569.763,3.377,3.377,0,0,0,.976.328,1.378,1.378,0,0,0-.582,1.776Z" fill="#fff"/>
  </g>
</svg>
