<svg width="25" height="24" viewBox="0 0 25 24" fill="none" xmlns="http://www.w3.org/2000/svg">
<g clip-path="url(#clip0_1_495)">
<path d="M3.13095 23.978C2.64521 23.9903 2.16658 23.8596 1.75449 23.6021C1.34239 23.3447 1.015 22.9719 0.812958 22.53C0.715024 22.3305 0.639287 22.121 0.587006 21.905C0.560006 21.805 0.531969 21.705 0.499969 21.613V20.983C0.714631 20.0792 1.08698 19.2204 1.59995 18.446C2.61568 16.8864 4.08398 15.6745 5.80795 14.973L5.97202 14.905L6.23203 14.798L6.103 14.669C5.53143 14.142 5.0995 13.4815 4.84592 12.7466C4.59234 12.0117 4.52502 11.2253 4.64999 10.458C4.74258 9.81885 4.96955 9.20656 5.31601 8.66153C5.66247 8.1165 6.12057 7.6511 6.66 7.29599C7.43701 6.76261 8.35855 6.47962 9.30099 6.48499C10.2351 6.47936 11.1497 6.75224 11.9281 7.26877C12.7064 7.7853 13.3132 8.52207 13.671 9.38501L13.723 9.51001L16.0009 8.271L15.886 8.15601C15.2932 7.60568 14.8537 6.91083 14.6102 6.13953C14.3667 5.36823 14.3277 4.54691 14.497 3.75601C14.697 2.66784 15.2965 1.69372 16.1779 1.025C17.0195 0.361835 18.0595 0.000838297 19.131 2.32087e-06C19.752 -0.00233771 20.3673 0.120406 20.9399 0.360934C21.5125 0.601462 22.0308 0.954843 22.464 1.4C22.9016 1.85225 23.2455 2.38647 23.4762 2.97199C23.7068 3.55751 23.8196 4.18282 23.808 4.81201C23.7937 5.44823 23.6523 6.07515 23.3919 6.65583C23.1316 7.2365 22.7575 7.75916 22.292 8.193L22.1631 8.315L22.3239 8.39002L22.56 8.49799C22.734 8.57599 22.898 8.65 23.06 8.737C23.399 8.923 23.76 9.12601 24.112 9.35501C24.3141 9.48109 24.4579 9.68209 24.5121 9.914C24.5328 10.0188 24.5325 10.1267 24.5112 10.2314C24.4899 10.3362 24.4481 10.4356 24.388 10.524C24.3168 10.6368 24.2182 10.7299 24.1014 10.7944C23.9846 10.8589 23.8534 10.8928 23.7199 10.893C23.5417 10.8907 23.3679 10.8365 23.2199 10.737C22.4781 10.2257 21.6472 9.85773 20.77 9.65201C20.19 9.52323 19.5981 9.45618 19.004 9.452C17.1859 9.45761 15.4392 10.1598 14.123 11.414C14.0389 11.4933 13.9847 11.5993 13.9699 11.714C13.8484 12.8116 13.3435 13.8311 12.544 14.593C12.5241 14.6133 12.5059 14.6354 12.49 14.659L12.464 14.694L12.3709 14.814L12.509 14.878L12.732 14.978C12.892 15.049 13.043 15.115 13.188 15.195C13.526 15.38 13.9171 15.595 14.2881 15.833C14.388 15.8863 14.4758 15.9597 14.5459 16.0487C14.6159 16.1377 14.6667 16.2403 14.695 16.35C14.7233 16.4598 14.7284 16.5744 14.7099 16.6863C14.6915 16.7982 14.65 16.905 14.588 17C14.5176 17.1155 14.4188 17.211 14.301 17.2774C14.1832 17.3437 14.0502 17.3787 13.915 17.379C13.734 17.3761 13.5579 17.3205 13.4081 17.219C12.661 16.6996 11.8205 16.3295 10.933 16.129C10.3596 16.0091 9.77575 15.9475 9.19003 15.945C8.21285 15.9486 7.246 16.146 6.34567 16.5259C5.44534 16.9058 4.62943 17.4605 3.94504 18.158C3.1828 18.9028 2.60631 19.8164 2.26205 20.825C2.18885 21.0008 2.15967 21.1918 2.17709 21.3814C2.19452 21.571 2.25801 21.7535 2.36203 21.913C2.47726 22.0627 2.62731 22.1819 2.79916 22.2604C2.97101 22.3388 3.15941 22.374 3.34799 22.363H11.383C11.5857 22.3426 11.7888 22.3968 11.9544 22.5153C12.1201 22.6338 12.2369 22.8086 12.2831 23.007C12.3122 23.1224 12.3145 23.243 12.2899 23.3595C12.2653 23.4759 12.2143 23.5852 12.141 23.679C12.0695 23.7698 11.9784 23.8431 11.8745 23.8935C11.7705 23.9439 11.6565 23.9701 11.541 23.97H3.15097L3.13095 23.978ZM9.29306 8.13901C8.48449 8.14031 7.7091 8.46107 7.13596 9.0314C6.56281 9.60174 6.23828 10.3754 6.233 11.184C6.2314 11.9953 6.55131 12.7743 7.12277 13.3502C7.69423 13.9262 8.47062 14.2522 9.28195 14.257H9.29794C10.1066 14.2546 10.8815 13.9325 11.4535 13.3609C12.0254 12.7893 12.3481 12.0146 12.351 11.206C12.3524 10.3956 12.0324 9.6178 11.4613 9.04291C10.8901 8.46802 10.1144 8.14298 9.30405 8.13901H9.29306ZM19.1049 1.64801C18.2953 1.64932 17.5192 1.97088 16.9459 2.54251C16.3726 3.11415 16.0487 3.88941 16.045 4.69901C16.0437 5.51016 16.3642 6.2887 16.9361 6.86386C17.5081 7.43902 18.2849 7.76382 19.096 7.767H19.104C19.9135 7.76569 20.6896 7.44407 21.2628 6.87241C21.8359 6.30075 22.1596 5.52551 22.1631 4.71601C22.1646 4.31434 22.0864 3.91635 21.9331 3.54508C21.7798 3.1738 21.5544 2.83661 21.27 2.55301C20.9876 2.26781 20.6515 2.04142 20.2811 1.88693C19.9107 1.73245 19.5134 1.65295 19.112 1.65302L19.1049 1.64801Z" fill="#FF5A00"/>
<path d="M20.132 23.985C20.0652 23.9848 19.9983 23.9811 19.9319 23.974C19.7596 23.9334 19.6061 23.8359 19.496 23.6973C19.3859 23.5587 19.3256 23.387 19.325 23.21C19.317 22.659 19.318 22.098 19.325 21.556V20.466H16.705C16.5886 20.4789 16.4709 20.4673 16.3593 20.432C16.2477 20.3967 16.1447 20.3384 16.0569 20.261C15.9691 20.1835 15.8985 20.0884 15.8496 19.982C15.8007 19.8756 15.7747 19.7601 15.773 19.643C15.77 19.5384 15.7882 19.4343 15.8263 19.3369C15.8645 19.2395 15.9217 19.1508 15.9949 19.076C16.0885 18.9883 16.1986 18.9199 16.3187 18.8747C16.4389 18.8296 16.5667 18.8086 16.695 18.813H19.325V16.17C19.3148 16.0554 19.3283 15.94 19.3648 15.8309C19.4012 15.7218 19.46 15.6214 19.537 15.536C19.614 15.4507 19.7075 15.3822 19.8122 15.3347C19.9168 15.2872 20.0301 15.2618 20.1449 15.26H20.152C20.2684 15.2602 20.3835 15.2849 20.4898 15.3324C20.5961 15.38 20.6912 15.4493 20.7689 15.536C20.8468 15.6226 20.9055 15.7246 20.9413 15.8354C20.9771 15.9462 20.9893 16.0632 20.977 16.179V18.813H23.617C23.7315 18.8014 23.8471 18.8137 23.9566 18.8491C24.0661 18.8846 24.167 18.9425 24.253 19.019C24.339 19.0957 24.4082 19.1894 24.4561 19.2942C24.5039 19.3991 24.5294 19.5128 24.5309 19.628C24.5344 19.7335 24.5166 19.8387 24.4784 19.9372C24.4403 20.0356 24.3827 20.1254 24.309 20.201C24.2165 20.2887 24.1074 20.3571 23.9883 20.4024C23.8692 20.4477 23.7423 20.469 23.6149 20.465H20.9719V23.097C20.9769 23.1747 20.9718 23.2526 20.9569 23.329C20.9333 23.5239 20.8342 23.7018 20.6809 23.8245C20.5276 23.9471 20.3323 24.0048 20.137 23.985H20.132Z" fill="#FF5A00"/>
</g>
<defs>
<clipPath id="clip0_1_495">
<rect width="24.028" height="23.989" fill="white" transform="translate(0.5)"/>
</clipPath>
</defs>
</svg>
