<svg xmlns="http://www.w3.org/2000/svg" width="24.028" height="23.989" viewBox="0 0 24.028 23.989">
  <g id="invite_friends" transform="translate(-0.002)">
    <path id="Path_2443" data-name="Path 2443" d="M-1354.3-248.022a2.48,2.48,0,0,1-2.318-1.448,3.042,3.042,0,0,1-.226-.625c-.027-.1-.055-.2-.087-.292v-.63a7.9,7.9,0,0,1,1.1-2.537,9.127,9.127,0,0,1,4.208-3.473l.164-.068.26-.107-.129-.129a4.7,4.7,0,0,1-1.453-4.211,4.57,4.57,0,0,1,2.01-3.162,4.62,4.62,0,0,1,2.641-.811,4.7,4.7,0,0,1,4.37,2.9l.052.125,2.278-1.239-.115-.115a4.67,4.67,0,0,1-1.389-4.4,4.434,4.434,0,0,1,1.681-2.731A4.777,4.777,0,0,1-1338.3-272a4.626,4.626,0,0,1,3.333,1.4,4.78,4.78,0,0,1,1.344,3.412,4.767,4.767,0,0,1-1.516,3.381l-.129.122.161.075.236.108c.174.078.338.152.5.239.339.186.7.389,1.052.618a.9.9,0,0,1,.4.559.807.807,0,0,1-.124.61.791.791,0,0,1-.668.369.917.917,0,0,1-.5-.156,7.224,7.224,0,0,0-2.45-1.085,8.42,8.42,0,0,0-1.766-.2,7.107,7.107,0,0,0-4.881,1.962.5.5,0,0,0-.153.3,4.69,4.69,0,0,1-1.426,2.879.467.467,0,0,0-.054.066l-.026.035-.093.12.138.064.223.1c.16.071.311.137.456.217.338.185.729.4,1.1.638a.817.817,0,0,1,.407.517.817.817,0,0,1-.107.65.79.79,0,0,1-.673.379.93.93,0,0,1-.507-.16,7.06,7.06,0,0,0-2.475-1.09,8.7,8.7,0,0,0-1.743-.184,7.386,7.386,0,0,0-5.245,2.213,6.8,6.8,0,0,0-1.683,2.667,1.169,1.169,0,0,0,.1,1.088,1.159,1.159,0,0,0,.986.45h8.035a.838.838,0,0,1,.9.644.781.781,0,0,1-.142.672.763.763,0,0,1-.6.291h-8.39Zm6.162-15.839a3.065,3.065,0,0,0-3.06,3.045,3.067,3.067,0,0,0,3.049,3.073h.016a3.062,3.062,0,0,0,3.053-3.051,3.062,3.062,0,0,0-3.047-3.067Zm9.812-6.491a3.065,3.065,0,0,0-3.06,3.051,3.063,3.063,0,0,0,3.051,3.068h.008a3.064,3.064,0,0,0,3.059-3.051,3.038,3.038,0,0,0-.893-2.163,3.036,3.036,0,0,0-2.158-.9Z" transform="translate(1356.933 272)" fill="#3a8bc3"/>
    <path id="Path_2444" data-name="Path 2444" d="M-1100.97-11.8a1.959,1.959,0,0,1-.2-.011.788.788,0,0,1-.607-.764c-.008-.551-.007-1.112,0-1.654v-1.09h-2.62a.84.84,0,0,1-.648-.205.841.841,0,0,1-.284-.618.779.779,0,0,1,.222-.567.975.975,0,0,1,.7-.263h2.63v-2.643a.836.836,0,0,1,.212-.634.836.836,0,0,1,.608-.276h.007a.831.831,0,0,1,.617.276.83.83,0,0,1,.208.643v2.634h2.64a.83.83,0,0,1,.636.206.83.83,0,0,1,.278.609.784.784,0,0,1-.222.573.965.965,0,0,1-.694.264h-2.643v2.632a.913.913,0,0,1-.015.232.75.75,0,0,1-.82.656Z" transform="translate(1120.604 35.785)" fill="#3a8bc3"/>
  </g>
</svg>
