<svg width="25" height="24" viewBox="0 0 25 24" fill="none" xmlns="http://www.w3.org/2000/svg">
<g clip-path="url(#clip0_1_550)">
<path d="M24.5 13.175V19.875C24.4317 20.6692 24.1432 21.4287 23.667 22.068C23.0109 23.0139 22.0233 23.6789 20.9 23.931C20.712 23.975 20.518 23.956 20.33 23.994C20.311 24 20.299 24 20.28 24.007H13.625C13.299 23.888 12.955 23.85 12.625 23.738C11.7246 23.4188 10.9429 22.8325 10.3846 22.0574C9.82616 21.2822 9.51757 20.3552 9.50001 19.4V17.479C9.49632 17.3534 9.51793 17.2284 9.56353 17.1114C9.60913 16.9943 9.6778 16.8876 9.76545 16.7977C9.85311 16.7077 9.95796 16.6363 10.0738 16.5876C10.1896 16.539 10.314 16.5141 10.4396 16.5145C10.5652 16.5149 10.6895 16.5406 10.805 16.59C10.9205 16.6394 11.0249 16.7115 11.1119 16.802C11.199 16.8925 11.267 16.9996 11.3118 17.117C11.3567 17.2343 11.3775 17.3595 11.373 17.485C11.379 18.093 11.373 18.7 11.373 19.314C11.3717 19.6835 11.4433 20.0497 11.5838 20.3916C11.7242 20.7334 11.9307 21.0441 12.1915 21.306C12.4523 21.5679 12.7621 21.7757 13.1033 21.9176C13.4446 22.0595 13.8104 22.1327 14.18 22.133C16.053 22.139 17.933 22.139 19.806 22.133C20.1756 22.1336 20.5417 22.0613 20.8833 21.9202C21.2249 21.7791 21.5352 21.5719 21.7966 21.3105C22.0579 21.0492 22.2651 20.7388 22.4062 20.3973C22.5474 20.0557 22.6197 19.6896 22.619 19.32C22.625 17.4467 22.625 15.5713 22.619 13.694C22.6174 12.9475 22.3197 12.2321 21.7912 11.7049C21.2626 11.1777 20.5465 10.8817 19.8 10.882H18C17.8713 10.8918 17.742 10.875 17.6201 10.8326C17.4981 10.7902 17.3863 10.7231 17.2915 10.6355C17.1967 10.5479 17.1209 10.4417 17.069 10.3236C17.017 10.2054 16.99 10.0778 16.9896 9.94871C16.9892 9.81964 17.0154 9.69186 17.0666 9.57337C17.1178 9.45488 17.1928 9.34821 17.2871 9.26002C17.3813 9.17184 17.4927 9.10403 17.6144 9.06084C17.736 9.01765 17.8652 8.99999 17.994 9.00898C18.794 9.02198 19.604 8.95898 20.406 9.04698C21.4269 9.17874 22.3762 9.64258 23.1075 10.367C23.8388 11.0915 24.3116 12.0363 24.453 13.056C24.462 13.1 24.444 13.15 24.5 13.175Z" fill="#FF5A00"/>
<path d="M15.5 4.742C15.5042 4.4693 15.4831 4.1968 15.437 3.928C15.2528 2.82158 14.6791 1.81751 13.8193 1.09715C12.9596 0.376786 11.8706 -0.0123627 10.749 -3.52802e-06H5.261C4.63313 -0.00958276 4.00973 0.107021 3.42777 0.342892C2.84581 0.578763 2.31715 0.929098 1.87313 1.37312C1.4291 1.81714 1.07877 2.34581 0.842897 2.92777C0.607026 3.50973 0.490423 4.13313 0.500002 4.761V10.243C0.489969 10.8713 0.606493 11.4952 0.842632 12.0776C1.07877 12.6599 1.4297 13.1887 1.8745 13.6326C2.31931 14.0765 2.8489 14.4263 3.43173 14.6612C4.01456 14.8961 4.63871 15.0113 5.267 15H10.73C11.3558 15.0093 11.9771 14.8936 12.5576 14.6596C13.138 14.4255 13.6659 14.078 14.1102 13.6372C14.5545 13.1964 14.9063 12.6713 15.145 12.0928C15.3836 11.5142 15.5043 10.8938 15.5 10.268C15.506 9.341 15.5 8.407 15.5 7.48V4.742ZM13.621 10.261C13.6287 10.6389 13.5602 11.0144 13.4195 11.3652C13.2788 11.716 13.0688 12.0348 12.8021 12.3026C12.5354 12.5704 12.2175 12.7817 11.8673 12.9238C11.5171 13.066 11.1419 13.1361 10.764 13.13H5.242C4.8638 13.1362 4.48821 13.0662 4.13764 12.9242C3.78707 12.7822 3.4687 12.571 3.20151 12.3032C2.93432 12.0355 2.7238 11.7167 2.58248 11.3658C2.44117 11.0149 2.37197 10.6392 2.379 10.261V4.73C2.37225 4.35438 2.44115 3.98124 2.5816 3.6328C2.72206 3.28437 2.9312 2.96776 3.19656 2.70183C3.46193 2.43591 3.7781 2.2261 4.12624 2.08491C4.47438 1.94372 4.84737 1.87403 5.223 1.88H10.78C11.1558 1.87447 11.529 1.94441 11.8773 2.08567C12.2256 2.22693 12.5421 2.43663 12.8079 2.70237C13.0737 2.96812 13.2836 3.28449 13.4249 3.63277C13.5663 3.98105 13.6364 4.35415 13.631 4.73C13.631 6.572 13.629 8.416 13.625 10.262L13.621 10.261Z" fill="#FF5A00"/>
<path d="M20.823 19.051C19.8957 17.203 18.9707 15.3507 18.048 13.494C17.9771 13.3277 17.8581 13.1864 17.7063 13.0882C17.5544 12.99 17.3768 12.9395 17.196 12.943C17.0112 12.9397 16.8296 12.9916 16.6744 13.092C16.5193 13.1925 16.3976 13.337 16.325 13.507C15.4043 15.349 14.4833 17.193 13.562 19.039C13.4987 19.1496 13.4587 19.272 13.4444 19.3986C13.4301 19.5253 13.4419 19.6535 13.4789 19.7755C13.5159 19.8974 13.5774 20.0105 13.6597 20.1079C13.742 20.2052 13.8433 20.2847 13.9573 20.3415C14.0714 20.3983 14.1959 20.4312 14.3232 20.4382C14.4504 20.4452 14.5778 20.4261 14.6974 20.3822C14.817 20.3382 14.9264 20.2703 15.0188 20.1826C15.1113 20.0948 15.1848 19.9891 15.235 19.872C15.435 19.484 15.635 19.095 15.818 18.701C15.8333 18.6546 15.8642 18.615 15.9054 18.5887C15.9465 18.5625 15.9955 18.5513 16.044 18.557C16.802 18.563 17.56 18.563 18.318 18.557C18.3705 18.5515 18.4232 18.5641 18.4676 18.5926C18.5119 18.6212 18.5452 18.664 18.562 18.714C18.762 19.127 18.962 19.541 19.182 19.948C19.2779 20.1337 19.4349 20.2806 19.6266 20.3639C19.8183 20.4472 20.0328 20.4617 20.234 20.405C20.4368 20.3551 20.617 20.2384 20.7454 20.0737C20.8739 19.909 20.9431 19.7059 20.942 19.497C20.9398 19.3408 20.8989 19.1875 20.823 19.051ZM16.839 16.677C16.952 16.451 17.058 16.232 17.184 15.969C17.316 16.232 17.422 16.439 17.535 16.677H16.839Z" fill="#FF5A00"/>
<path d="M11.751 4.59998C11.7274 4.35163 11.6071 4.12252 11.4161 3.96202C11.2251 3.80152 10.9787 3.7225 10.73 3.74198H5.22401C4.98171 3.73737 4.74701 3.82661 4.56899 3.99104C4.39097 4.15547 4.28342 4.38236 4.26883 4.62426C4.25423 4.86616 4.33373 5.10434 4.49069 5.28898C4.64765 5.47363 4.86991 5.59043 5.11101 5.61498C5.21101 5.62798 5.26101 5.64598 5.27401 5.75898C5.43871 6.87555 5.87782 7.93382 6.55201 8.83898C6.62701 8.93898 6.62101 8.98898 6.50801 9.04598C6.25101 9.17798 6.00101 9.32198 5.74401 9.45298C5.62649 9.50357 5.52053 9.57762 5.43263 9.67059C5.34473 9.76356 5.27673 9.8735 5.23281 9.99367C5.18888 10.1138 5.16995 10.2417 5.17717 10.3694C5.18439 10.4972 5.21762 10.6221 5.27481 10.7366C5.332 10.851 5.41196 10.9526 5.50978 11.0351C5.6076 11.1175 5.72123 11.1792 5.8437 11.2162C5.96617 11.2532 6.09492 11.2648 6.22204 11.2503C6.34916 11.2359 6.47199 11.1956 6.58301 11.132C7.03975 10.9265 7.47518 10.6767 7.88301 10.386C7.89885 10.3697 7.91782 10.3567 7.93877 10.3478C7.95973 10.3389 7.98225 10.3344 8.00501 10.3344C8.02776 10.3344 8.05028 10.3389 8.07124 10.3478C8.0922 10.3567 8.11116 10.3697 8.12701 10.386C8.52745 10.6708 8.95324 10.9182 9.39901 11.125C9.51028 11.1915 9.63409 11.2342 9.76267 11.2505C9.89126 11.2669 10.0218 11.2564 10.1462 11.2199C10.2705 11.1834 10.386 11.1215 10.4853 11.0382C10.5846 10.9549 10.6656 10.8519 10.7232 10.7358C10.7808 10.6197 10.8138 10.4929 10.82 10.3635C10.8263 10.234 10.8057 10.1046 10.7596 9.98351C10.7135 9.86238 10.6428 9.7521 10.552 9.65959C10.4612 9.56709 10.3523 9.49436 10.232 9.44598C9.98801 9.32098 9.75601 9.18298 9.51201 9.06398C9.39901 9.00798 9.36201 8.96398 9.45601 8.84498C10.128 7.94085 10.5657 6.88443 10.73 5.76998C10.742 5.68198 10.774 5.64498 10.874 5.63198C10.9998 5.62293 11.1225 5.5889 11.2349 5.5319C11.3474 5.47489 11.4474 5.39605 11.529 5.29997C11.6107 5.20389 11.6723 5.0925 11.7105 4.97232C11.7486 4.85213 11.7624 4.72556 11.751 4.59998ZM8.83201 5.75098C8.69398 6.38338 8.44369 6.98592 8.09301 7.52998C8.00501 7.66798 7.96801 7.60498 7.90501 7.51098C7.53262 6.9405 7.27703 6.30186 7.15301 5.63198H8.73801C8.83801 5.62598 8.85101 5.65698 8.83201 5.75098Z" fill="#FF5A00"/>
</g>
<defs>
<clipPath id="clip0_1_550">
<rect width="24" height="24.008" fill="white" transform="translate(0.5)"/>
</clipPath>
</defs>
</svg>
