<svg width="57" height="30" viewBox="0 0 57 30" fill="none" xmlns="http://www.w3.org/2000/svg">
<g clip-path="url(#clip0_1_576)">
<path d="M44.366 4.16609V25.835C44.3153 26.1592 44.1505 26.4547 43.9012 26.668C43.6519 26.8814 43.3346 26.9986 43.0065 26.9986C42.6784 26.9986 42.361 26.8814 42.1118 26.668C41.8625 26.4547 41.6976 26.1592 41.647 25.835V4.16609C41.6976 3.84191 41.8625 3.54644 42.1118 3.33308C42.361 3.11973 42.6784 3.00252 43.0065 3.00252C43.3346 3.00252 43.6519 3.11973 43.9012 3.33308C44.1505 3.54644 44.3153 3.84191 44.366 4.16609Z" fill="#45536D"/>
<path d="M44.366 4.16609V25.835C44.3153 26.1592 44.1505 26.4547 43.9012 26.668C43.6519 26.8814 43.3346 26.9986 43.0065 26.9986C42.6784 26.9986 42.361 26.8814 42.1118 26.668C41.8625 26.4547 41.6976 26.1592 41.647 25.835V4.16609C41.6976 3.84191 41.8625 3.54644 42.1118 3.33308C42.361 3.11973 42.6784 3.00252 43.0065 3.00252C43.3346 3.00252 43.6519 3.11973 43.9012 3.33308C44.1505 3.54644 44.3153 3.84191 44.366 4.16609Z" fill="#45536D"/>
<path d="M36.818 13.8477L14.707 0.203635C14.5012 0.0765703 14.2652 0.00690882 14.0235 0.00148661C13.7817 -0.0039356 13.5428 0.0551612 13.3315 0.172873C13.1203 0.290586 12.9442 0.462461 12.8216 0.67092C12.699 0.879379 12.6342 1.11706 12.634 1.35891V28.6441C12.6339 28.886 12.6986 29.1235 12.8212 29.3321C12.9438 29.5406 13.1199 29.7125 13.3314 29.8301C13.5428 29.9477 13.7818 30.0063 14.0237 30.0005C14.2656 29.9947 14.5015 29.9245 14.707 29.7969L36.818 16.1568C37.0164 16.0354 37.1803 15.8655 37.294 15.6626C37.4077 15.4598 37.4674 15.2311 37.4674 14.9986C37.4674 14.766 37.4077 14.5373 37.294 14.3345C37.1803 14.1316 37.0164 13.9612 36.818 13.8399V13.8477ZM15.356 26.2129V3.7969L33.52 15.002L15.356 26.2129Z" fill="#45536D"/>
<path d="M36.818 13.8477L14.707 0.203635C14.5012 0.0765703 14.2652 0.00690882 14.0235 0.00148661C13.7817 -0.0039356 13.5428 0.0551612 13.3315 0.172873C13.1203 0.290586 12.9442 0.462461 12.8216 0.67092C12.699 0.879379 12.6342 1.11706 12.634 1.35891V28.6441C12.6339 28.886 12.6986 29.1235 12.8212 29.3321C12.9438 29.5406 13.1199 29.7125 13.3314 29.8301C13.5428 29.9477 13.7818 30.0063 14.0237 30.0005C14.2656 29.9947 14.5015 29.9245 14.707 29.7969L36.818 16.1568C37.0164 16.0354 37.1803 15.8655 37.294 15.6626C37.4077 15.4598 37.4674 15.2311 37.4674 14.9986C37.4674 14.766 37.4077 14.5373 37.294 14.3345C37.1803 14.1316 37.0164 13.9612 36.818 13.8399V13.8477ZM15.356 26.2129V3.7969L33.52 15.002L15.356 26.2129Z" fill="#45536D"/>
</g>
<defs>
<clipPath id="clip0_1_576">
<rect width="56" height="30" fill="white" transform="translate(0.5)"/>
</clipPath>
</defs>
</svg>
