<svg id="lifeline_resettime" xmlns="http://www.w3.org/2000/svg" width="56" height="30.003" viewBox="0 0 56 30.003">
  <rect id="back" width="56" height="30" fill="none"/>
  <path id="Path_2773" data-name="Path 2773" d="M220.651,5469.86a13.019,13.019,0,0,1-9.553,5.1h-.067a1.024,1.024,0,1,1-.081-2.046,10.974,10.974,0,0,0-.065-21.914q-.312-.018-.6-.018a10.985,10.985,0,0,0-10.956,10.313,1.024,1.024,0,0,1-2.043-.14,12.876,12.876,0,0,1,3.057-7.6l.173-.2-1.2-1.2a1.024,1.024,0,1,1,1.448-1.447l1.219,1.226.2-.162A12.964,12.964,0,0,1,209,5449l.263-.026v-1.939h-2.927a1.024,1.024,0,1,1,0-2.048h7.937a1.024,1.024,0,1,1,0,2.049h-2.958v1.94l.265.024a13.453,13.453,0,0,1,1.509.231,12.844,12.844,0,0,1,5.5,2.615l.205.167,1.313-1.312a1.025,1.025,0,0,1,1.449,1.448l-1.313,1.312.167.207a12.852,12.852,0,0,1,2.619,5.491,12.993,12.993,0,0,1-2.372,10.7Z" transform="translate(-181.644 -5444.985)" fill="#45536d"/>
  <path id="Path_2774" data-name="Path 2774" d="M269.962,5504.8v6.272a1.025,1.025,0,1,1-2.049,0v-6.263a1.025,1.025,0,0,1,2.049,0Z" transform="translate(-240.284 -5493.813)" fill="#45536d"/>
  <path id="Path_2775" data-name="Path 2775" d="M269.962,5504.8v6.272a1.025,1.025,0,1,1-2.049,0v-6.263a1.025,1.025,0,0,1,2.049,0Z" transform="translate(-240.284 -5493.813)" fill="#45536d"/>
  <path id="Path_2776" data-name="Path 2776" d="M200.827,5557.3a1.024,1.024,0,0,1-1.025,1.024h-9.365a1.025,1.025,0,1,1,0-2.048H199.8a1.026,1.026,0,0,1,1.027,1.025Z" transform="translate(-175.1 -5537.414)" fill="#45536d"/>
  <path id="Path_2777" data-name="Path 2777" d="M200.827,5557.3a1.024,1.024,0,0,1-1.025,1.024h-9.365a1.025,1.025,0,1,1,0-2.048H199.8a1.026,1.026,0,0,1,1.027,1.025Z" transform="translate(-175.1 -5537.414)" fill="#45536d"/>
  <path id="Path_2778" data-name="Path 2778" d="M213.038,5584.93a1.026,1.026,0,0,1-1.025,1.025h-6.868a1.025,1.025,0,1,1,0-2.049h6.868a1.027,1.027,0,0,1,1.025,1.024Z" transform="translate(-187.312 -5560.346)" fill="#45536d"/>
  <path id="Path_2779" data-name="Path 2779" d="M213.038,5584.93a1.026,1.026,0,0,1-1.025,1.025h-6.868a1.025,1.025,0,1,1,0-2.049h6.868a1.027,1.027,0,0,1,1.025,1.024Z" transform="translate(-187.312 -5560.346)" fill="#45536d"/>
  <path id="Path_2780" data-name="Path 2780" d="M225.4,5610.82a1.025,1.025,0,0,1-1.025,1.025h-3.75a1.025,1.025,0,1,1,0-2.05h3.75A1.026,1.026,0,0,1,225.4,5610.82Z" transform="translate(-200.167 -5581.842)" fill="#45536d"/>
  <path id="Path_2781" data-name="Path 2781" d="M225.4,5610.82a1.025,1.025,0,0,1-1.025,1.025h-3.75a1.025,1.025,0,1,1,0-2.05h3.75A1.026,1.026,0,0,1,225.4,5610.82Z" transform="translate(-200.167 -5581.842)" fill="#45536d"/>
</svg>
