<svg width="57" height="30" viewBox="0 0 57 30" fill="none" xmlns="http://www.w3.org/2000/svg">
<g clip-path="url(#clip0_1_582)">
<path d="M50.595 27.716H46.88V21.668C46.8721 20.0198 46.2132 18.4414 45.0469 17.2768C43.8805 16.1121 42.3012 15.4555 40.653 15.45H40.453C39.0588 15.5003 37.7227 16.0216 36.663 16.929L36.284 17.261L36.057 17.461L35.924 17.186L35.697 16.741C35.044 15.4357 34.0396 14.3385 32.7969 13.573C31.5542 12.8075 30.1225 12.404 28.663 12.408V12.285H28.654L28.635 12.408H28.435C27.0144 12.4503 25.6316 12.875 24.4322 13.6374C23.2328 14.3998 22.2612 15.4717 21.62 16.74L21.383 17.185L21.25 17.45L21.023 17.25L20.644 16.928C19.5208 15.9762 18.0972 15.4523 16.625 15.449H16.416C14.7848 15.5224 13.2455 16.225 12.1213 17.4092C10.9971 18.5935 10.3755 20.1672 10.387 21.8V27.7H6.51C6.2058 27.7 5.91405 27.8208 5.69895 28.036C5.48384 28.2511 5.363 28.5428 5.363 28.847C5.363 29.1512 5.48384 29.443 5.69895 29.6581C5.91405 29.8732 6.2058 29.994 6.51 29.994H50.491C50.7865 29.9952 51.071 29.8819 51.2849 29.678C51.4988 29.4741 51.6255 29.1953 51.6384 28.9001C51.6514 28.6048 51.5495 28.316 51.3543 28.0942C51.159 27.8723 50.8855 27.7347 50.591 27.71L50.595 27.716ZM20.548 27.64H12.681V21.773C12.6804 20.7479 13.0701 19.761 13.7709 19.0128C14.4717 18.2646 15.431 17.8113 16.454 17.745H16.615C17.6582 17.7455 18.6585 18.1602 19.3962 18.8978C20.1338 19.6355 20.5485 20.6358 20.549 21.679L20.548 27.64ZM34.264 27.64H23.003V20.44C22.9962 18.9652 23.5593 17.5447 24.5749 16.4751C25.5904 15.4056 26.9798 14.7696 28.453 14.7H28.633C30.1236 14.7084 31.5507 15.3043 32.6047 16.3583C33.6587 17.4123 34.2546 18.8394 34.263 20.33L34.264 27.64ZM44.596 27.64H36.728V21.773C36.7257 20.7474 37.1148 19.7595 37.816 19.011C38.5171 18.2625 39.4774 17.8097 40.501 17.745H40.663C41.7062 17.7455 42.7065 18.1602 43.4442 18.8978C44.1818 19.6355 44.5965 20.6358 44.597 21.679L44.596 27.64Z" fill="#45536D"/>
<path d="M43.543 6.72999C42.8738 6.05761 41.9921 5.6381 41.0483 5.54293C40.1044 5.44777 39.1568 5.68286 38.3668 6.20812C37.5769 6.73338 36.9935 7.51632 36.7162 8.42351C36.4388 9.3307 36.4846 10.306 36.8458 11.1832C37.2069 12.0604 37.8611 12.7852 38.6968 13.2341C39.5325 13.683 40.498 13.8283 41.4288 13.6451C42.3596 13.4619 43.198 12.9616 43.8013 12.2294C44.4045 11.4973 44.7352 10.5786 44.737 9.62999C44.739 8.54329 44.3096 7.50022 43.543 6.72999ZM40.663 11.573C40.2787 11.5732 39.9029 11.4594 39.5832 11.246C39.2636 11.0326 39.0144 10.7293 38.8672 10.3742C38.72 10.0192 38.6813 9.62851 38.7562 9.25154C38.8311 8.87457 39.016 8.52827 39.2877 8.25643C39.5594 7.9846 39.9056 7.79945 40.2826 7.72439C40.6595 7.64934 41.0502 7.68776 41.4053 7.83479C41.7604 7.98183 42.0639 8.23086 42.2775 8.55041C42.491 8.86996 42.605 9.24566 42.605 9.62999C42.605 10.1451 42.4004 10.6392 42.0363 11.0035C41.6721 11.3679 41.1781 11.5727 40.663 11.573Z" fill="#45536D"/>
<path d="M19.505 6.739C19.127 6.35695 18.6767 6.05406 18.1803 5.84803C17.6839 5.64199 17.1514 5.53693 16.614 5.539C15.6667 5.53789 14.7483 5.86534 14.0154 6.46553C13.2824 7.06573 12.7803 7.90152 12.5946 8.83046C12.4089 9.7594 12.5511 10.724 12.997 11.5598C13.4428 12.3957 14.1648 13.051 15.0397 13.4142C15.9146 13.7774 16.8884 13.8259 17.7951 13.5515C18.7019 13.277 19.4853 12.6967 20.012 11.9093C20.5388 11.1219 20.7761 10.1762 20.6837 9.23342C20.5912 8.29062 20.1746 7.40906 19.505 6.739ZM16.614 11.573C16.2297 11.573 15.854 11.459 15.5345 11.2455C15.215 11.032 14.966 10.7286 14.8189 10.3736C14.6718 10.0185 14.6334 9.62785 14.7083 9.25094C14.7833 8.87404 14.9684 8.52783 15.2401 8.25609C15.5118 7.98436 15.858 7.79931 16.2349 7.72433C16.6118 7.64936 17.0025 7.68784 17.3576 7.8349C17.7126 7.98196 18.016 8.231 18.2295 8.55053C18.443 8.87005 18.557 9.24571 18.557 9.63C18.557 10.1453 18.3523 10.6395 17.9879 11.0039C17.6235 11.3683 17.1293 11.573 16.614 11.573Z" fill="#45536D"/>
<path d="M28.633 3.40651e-06C27.4475 0.00165745 26.2993 0.414217 25.3839 1.16741C24.4685 1.92061 23.8425 2.96786 23.6125 4.13079C23.3825 5.29373 23.5628 6.50042 24.1227 7.54535C24.6825 8.59028 25.5873 9.40881 26.6829 9.86154C27.7785 10.3143 28.9972 10.3732 30.1313 10.0283C31.2655 9.68334 32.245 8.95591 32.9031 7.96986C33.5611 6.98382 33.857 5.80014 33.7403 4.62045C33.6235 3.44075 33.1015 2.338 32.263 1.5C31.7862 1.02371 31.2202 0.64607 30.5973 0.388688C29.9744 0.131306 29.3069 -0.000773382 28.633 3.40651e-06ZM28.633 7.63C28.1385 7.63 27.6552 7.48338 27.2441 7.20868C26.833 6.93397 26.5125 6.54353 26.3233 6.08671C26.1341 5.6299 26.0846 5.12723 26.181 4.64228C26.2775 4.15733 26.5156 3.71187 26.8652 3.36224C27.2149 3.01261 27.6603 2.7745 28.1453 2.67804C28.6302 2.58158 29.1329 2.63109 29.5897 2.8203C30.0465 3.00952 30.437 3.32995 30.7117 3.74108C30.9864 4.1522 31.133 4.63555 31.133 5.13C31.133 5.79304 30.8696 6.42893 30.4008 6.89777C29.9319 7.36661 29.296 7.63 28.633 7.63Z" fill="#45536D"/>
</g>
<defs>
<clipPath id="clip0_1_582">
<rect width="56" height="30" fill="white" transform="translate(0.5)"/>
</clipPath>
</defs>
</svg>
