<svg width="57" height="30" viewBox="0 0 57 30" fill="none" xmlns="http://www.w3.org/2000/svg">
<g clip-path="url(#clip0_1_567)">
<path d="M20.275 2.27312L19.768 5.9572L20.128 5.96989C22.428 6.05289 24.136 6.87714 24.928 8.29314C25.3219 8.94408 25.5748 9.67013 25.6702 10.425C25.7656 11.1798 25.7015 11.9465 25.482 12.675C25.2684 13.305 24.9242 13.8828 24.4721 14.3708C24.0199 14.8588 23.4699 15.246 22.858 15.507C21.8325 15.9161 20.7334 16.1078 19.63 16.07C18.5463 16.063 17.4657 15.9524 16.403 15.7399C16.1281 15.6802 15.8848 15.5211 15.7199 15.2931C15.5551 15.0652 15.4801 14.7844 15.5095 14.5046C15.5388 14.2248 15.6704 13.9658 15.8791 13.777C16.0877 13.5883 16.3587 13.4834 16.64 13.4821C16.721 13.4835 16.8017 13.4924 16.881 13.509C17.7902 13.6883 18.7143 13.7823 19.641 13.7892C20.4192 13.8225 21.1962 13.7004 21.927 13.4308C22.2492 13.3013 22.5396 13.1036 22.7781 12.8512C23.0167 12.5989 23.1978 12.2979 23.309 11.9689C23.4281 11.5406 23.4562 11.0924 23.3916 10.6525C23.3271 10.2127 23.1712 9.79122 22.934 9.41521C22.396 8.45621 20.911 8.25017 19.761 8.25017C19.3782 8.2494 18.9957 8.27291 18.616 8.32097C18.5573 8.33224 18.4977 8.33802 18.438 8.33806C18.2752 8.3372 18.1144 8.30164 17.9665 8.23357C17.8186 8.16549 17.687 8.06664 17.5805 7.94353C17.4739 7.82041 17.3949 7.67584 17.3488 7.5197C17.3027 7.36356 17.2905 7.19901 17.313 7.03777L18.15 0.980148C18.1892 0.709118 18.3243 0.460912 18.5307 0.28093C18.7371 0.100947 19.0011 0.00115212 19.275 -0.000808716H25.332C25.6349 -0.000808716 25.9253 0.119497 26.1395 0.333664C26.3537 0.54783 26.474 0.837916 26.474 1.14079C26.474 1.44367 26.3537 1.73424 26.1395 1.94841C25.9253 2.16258 25.6349 2.28288 25.332 2.28288L20.275 2.27312Z" fill="#45536D"/>
<path d="M31.913 26.605C31.699 27.2348 31.3545 27.8122 30.9022 28.2999C30.4499 28.7875 29.8999 29.1744 29.288 29.4351C28.2624 29.8437 27.1633 30.0353 26.06 29.9981C24.9759 29.9897 23.8951 29.8785 22.832 29.6661C22.5563 29.6074 22.312 29.4488 22.1464 29.2208C21.9807 28.9927 21.9053 28.7111 21.9348 28.4307C21.9642 28.1504 22.0964 27.8909 22.3058 27.7022C22.5152 27.5135 22.7871 27.4094 23.069 27.4092C23.1511 27.4086 23.2329 27.4172 23.313 27.4351C24.2207 27.6163 25.1434 27.711 26.069 27.7188C26.8481 27.748 27.6253 27.6233 28.356 27.3511C28.6788 27.2224 28.9698 27.025 29.2086 26.7725C29.4474 26.5201 29.6284 26.2187 29.739 25.8892C29.8574 25.4613 29.8852 25.0131 29.8206 24.5738C29.756 24.1345 29.6005 23.7137 29.364 23.338C28.947 22.596 27.78 22.169 26.158 22.169C25.7843 22.1685 25.411 22.1947 25.041 22.2471C24.9842 22.2568 24.9266 22.2623 24.869 22.2632C24.7204 22.2639 24.5731 22.2346 24.4357 22.1778C24.2984 22.121 24.1737 22.0376 24.069 21.9322C23.9423 21.8069 23.8466 21.6537 23.7895 21.4849C23.7324 21.3162 23.7154 21.1365 23.74 20.96L24.015 18.96L26.433 16.523L26.69 16.2652L26.654 16.523L26.191 19.879L26.553 19.8931C28.853 19.9751 30.559 20.7999 31.353 22.2159C31.7474 22.867 32.0006 23.594 32.0963 24.3492C32.1919 25.1044 32.1277 25.8713 31.908 26.6002L31.913 26.605Z" fill="#45536D"/>
<path d="M32.852 15.0741C32.8524 15.2243 32.8232 15.3728 32.766 15.5116C32.7089 15.6505 32.6249 15.7768 32.519 15.8832C32.413 15.9897 32.2871 16.0745 32.1485 16.1322C32.0098 16.19 31.8612 16.2199 31.711 16.2201H26.705L27.021 15.9018L28.974 13.933H31.711C32.0137 13.9333 32.3039 14.0539 32.5178 14.268C32.7318 14.4821 32.852 14.7714 32.852 15.0741Z" fill="#45536D"/>
<path d="M37.188 14.4291C34.769 14.4291 32.876 16.9461 32.876 20.1561C32.876 23.3661 34.776 25.8851 37.188 25.8851C39.6 25.8851 41.5 23.3701 41.5 20.1561C41.5 16.9421 39.608 14.4291 37.188 14.4291ZM37.188 23.6009C36.104 23.6009 35.156 21.9922 35.156 20.1532C35.156 18.3142 36.107 16.7079 37.188 16.7079C38.269 16.7079 39.222 18.3182 39.222 20.1532C39.222 21.9882 38.271 23.6009 37.188 23.6009Z" fill="#45536D"/>
<path d="M35.091 5.92218C34.884 2.96718 33.057 0.759094 30.791 0.759094C28.372 0.759094 26.479 3.2751 26.479 6.4881C26.4173 7.53862 26.6367 8.58658 27.1144 9.52423C27.5921 10.4619 28.3109 11.2554 29.197 11.8231L31.139 9.88312C31.0288 9.91721 30.9142 9.93449 30.799 9.93488C29.715 9.93488 28.767 8.32707 28.767 6.48907C28.767 4.65107 29.718 3.0462 30.799 3.0462C31.88 3.0462 32.833 4.65407 32.833 6.48907C32.8384 7.2461 32.6712 7.99439 32.344 8.67706L35.091 5.92218Z" fill="#45536D"/>
</g>
<defs>
<clipPath id="clip0_1_567">
<rect width="56" height="30.003" fill="white" transform="translate(0.5)"/>
</clipPath>
</defs>
</svg>
