<svg width="57" height="30" viewBox="0 0 57 30" fill="none" xmlns="http://www.w3.org/2000/svg">
<g clip-path="url(#clip0_1_556)">
<path d="M39.507 24.8749C38.3739 26.3607 36.9343 27.5852 35.2859 28.4652C33.6376 29.3452 31.8191 29.8602 29.954 29.975H29.887C29.7511 29.983 29.6149 29.964 29.4865 29.9188C29.358 29.8736 29.2399 29.8032 29.1389 29.7118C29.038 29.6204 28.9563 29.5099 28.8987 29.3866C28.841 29.2632 28.8085 29.1296 28.8032 28.9935C28.7978 28.8575 28.8196 28.7216 28.8673 28.5941C28.915 28.4666 28.9877 28.3495 29.0811 28.2504C29.1745 28.1512 29.2867 28.0722 29.4112 28.017C29.5356 27.9617 29.6699 27.9318 29.806 27.9291C32.6061 27.7649 35.2371 26.5345 37.1586 24.4911C39.08 22.4476 40.1461 19.7462 40.1377 16.9413C40.1294 14.1363 39.0474 11.4411 37.1138 9.40904C35.1803 7.37703 32.5421 6.16254 29.741 6.015C29.533 6.003 29.333 5.99693 29.141 5.99693C26.3454 5.99908 23.6558 7.0671 21.6201 8.98326C19.5845 10.8994 18.356 13.5195 18.185 16.3099C18.1628 16.5781 18.0359 16.827 17.8319 17.0023C17.6278 17.1776 17.3629 17.2653 17.0945 17.2469C16.8261 17.2285 16.5757 17.1052 16.3975 16.9037C16.2192 16.7021 16.1274 16.4384 16.142 16.1698C16.3065 13.3712 17.3798 10.7032 19.199 8.57018L19.372 8.36998L18.172 7.16978C18.0722 7.07579 17.9924 6.9627 17.9371 6.83727C17.8819 6.71183 17.8524 6.57685 17.8504 6.4398C17.8484 6.30275 17.8739 6.16642 17.9254 6.03941C17.9769 5.91241 18.0535 5.79743 18.1504 5.70055C18.2474 5.60366 18.3628 5.5269 18.4898 5.47545C18.6169 5.42399 18.7529 5.39863 18.89 5.40074C19.027 5.40285 19.1623 5.43232 19.2877 5.48766C19.4131 5.54299 19.5261 5.62319 19.62 5.72301L20.839 6.94908L21.039 6.78697C22.9959 5.22388 25.3636 4.26111 27.856 4.015L28.119 3.98912V2.05016H25.192C24.9204 2.05016 24.66 1.9419 24.4679 1.74986C24.2759 1.55783 24.168 1.29781 24.168 1.02623C24.168 0.754648 24.2759 0.494146 24.4679 0.302109C24.66 0.110072 24.9204 0.0018158 25.192 0.0018158H33.129C33.4007 0.0018158 33.6613 0.109978 33.8534 0.302109C34.0456 0.49424 34.1535 0.755004 34.1535 1.02672C34.1535 1.29843 34.0456 1.55871 33.8534 1.75084C33.6613 1.94297 33.4007 2.05113 33.129 2.05113H30.171V3.99107L30.436 4.015C30.943 4.06338 31.4468 4.14046 31.945 4.24596C33.9615 4.66409 35.8478 5.5612 37.445 6.86119L37.65 7.02818L38.963 5.71617C39.1574 5.53603 39.414 5.43822 39.679 5.44322C39.944 5.44822 40.1968 5.55568 40.3842 5.74303C40.5717 5.93037 40.6793 6.18263 40.6845 6.44762C40.6897 6.7126 40.592 6.9694 40.412 7.16393L39.099 8.47594L39.266 8.68297C40.5659 10.2773 41.464 12.1606 41.885 14.1742C42.293 16.0228 42.2921 17.9382 41.8824 19.7865C41.4727 21.6347 40.664 23.3709 39.513 24.8739L39.507 24.8749Z" fill="#45536D"/>
<path d="M30.178 10.9868V17.2588C30.1823 17.396 30.1589 17.5331 30.1094 17.6611C30.0598 17.7892 29.9851 17.9058 29.8895 18.0044C29.794 18.103 29.6795 18.1813 29.5531 18.2348C29.4267 18.2884 29.2908 18.3159 29.1535 18.3159C29.0162 18.3159 28.8803 18.2884 28.7539 18.2348C28.6274 18.1813 28.513 18.103 28.4175 18.0044C28.3219 17.9058 28.2471 17.7892 28.1976 17.6611C28.148 17.5331 28.1247 17.396 28.129 17.2588V10.9961C28.1373 10.7299 28.2489 10.4773 28.4401 10.292C28.6313 10.1066 28.8872 10.0029 29.1535 10.0029C29.4198 10.0029 29.6756 10.1066 29.8669 10.292C30.0581 10.4773 30.1697 10.7299 30.178 10.9961V10.9868Z" fill="#45536D"/>
<path d="M30.178 10.9868V17.2588C30.1823 17.396 30.1589 17.5331 30.1094 17.6611C30.0598 17.7892 29.9851 17.9058 29.8895 18.0044C29.794 18.103 29.6795 18.1813 29.5531 18.2348C29.4267 18.2884 29.2908 18.3159 29.1535 18.3159C29.0162 18.3159 28.8803 18.2884 28.7539 18.2348C28.6274 18.1813 28.513 18.103 28.4175 18.0044C28.3219 17.9058 28.2471 17.7892 28.1976 17.6611C28.148 17.5331 28.1247 17.396 28.129 17.2588V10.9961C28.1373 10.7299 28.2489 10.4773 28.4401 10.292C28.6313 10.1066 28.8872 10.0029 29.1535 10.0029C29.4198 10.0029 29.6756 10.1066 29.8669 10.292C30.0581 10.4773 30.1697 10.7299 30.178 10.9961V10.9868Z" fill="#45536D"/>
<path d="M26.227 19.8858C26.227 20.0204 26.2005 20.1536 26.149 20.2779C26.0974 20.4022 26.0219 20.5153 25.9267 20.6104C25.8315 20.7055 25.7185 20.7812 25.5942 20.8326C25.4698 20.884 25.3366 20.9104 25.202 20.9102H15.837C15.6987 20.9164 15.5606 20.894 15.4311 20.8453C15.3015 20.7966 15.1831 20.7222 15.0831 20.6266C14.9831 20.5309 14.9035 20.4159 14.8491 20.2887C14.7948 20.1614 14.7667 20.0242 14.7667 19.8858C14.7667 19.7474 14.7948 19.6108 14.8491 19.4835C14.9035 19.3562 14.9831 19.2413 15.0831 19.1456C15.1831 19.0499 15.3015 18.9751 15.4311 18.9264C15.5606 18.8777 15.6987 18.8558 15.837 18.8619H25.2C25.3347 18.8618 25.4682 18.8881 25.5927 18.9395C25.7172 18.991 25.8304 19.0665 25.9258 19.1617C26.0211 19.2569 26.0968 19.3698 26.1485 19.4942C26.2002 19.6187 26.2269 19.7511 26.227 19.8858Z" fill="#45536D"/>
<path d="M26.227 19.8858C26.227 20.0204 26.2005 20.1536 26.149 20.2779C26.0974 20.4022 26.0219 20.5153 25.9267 20.6104C25.8315 20.7055 25.7185 20.7812 25.5942 20.8326C25.4698 20.884 25.3366 20.9104 25.202 20.9102H15.837C15.6987 20.9164 15.5606 20.894 15.4311 20.8453C15.3015 20.7966 15.1831 20.7222 15.0831 20.6266C14.9831 20.5309 14.9035 20.4159 14.8491 20.2887C14.7948 20.1614 14.7667 20.0242 14.7667 19.8858C14.7667 19.7474 14.7948 19.6108 14.8491 19.4835C14.9035 19.3562 14.9831 19.2413 15.0831 19.1456C15.1831 19.0499 15.3015 18.9751 15.4311 18.9264C15.5606 18.8777 15.6987 18.8558 15.837 18.8619H25.2C25.3347 18.8618 25.4682 18.8881 25.5927 18.9395C25.7172 18.991 25.8304 19.0665 25.9258 19.1617C26.0211 19.2569 26.0968 19.3698 26.1485 19.4942C26.2002 19.6187 26.2269 19.7511 26.227 19.8858Z" fill="#45536D"/>
<path d="M26.226 24.5842C26.2257 24.8559 26.1177 25.1161 25.9255 25.3083C25.7333 25.5005 25.4728 25.6088 25.201 25.6091H18.333C18.1958 25.6134 18.0591 25.5898 17.931 25.5402C17.803 25.4907 17.6862 25.4161 17.5876 25.3205C17.489 25.2249 17.4106 25.1105 17.3571 24.9841C17.3036 24.8576 17.276 24.722 17.276 24.5847C17.276 24.4474 17.3036 24.3112 17.3571 24.1848C17.4106 24.0583 17.489 23.9439 17.5876 23.8483C17.6862 23.7528 17.803 23.6782 17.931 23.6286C18.0591 23.5791 18.1958 23.5555 18.333 23.5598H25.201C25.4725 23.5603 25.7328 23.6686 25.9249 23.8605C26.1169 24.0524 26.2252 24.3127 26.226 24.5842Z" fill="#45536D"/>
<path d="M26.226 24.5842C26.2257 24.8559 26.1177 25.1161 25.9255 25.3083C25.7333 25.5005 25.4728 25.6088 25.201 25.6091H18.333C18.1958 25.6134 18.0591 25.5898 17.931 25.5402C17.803 25.4907 17.6862 25.4161 17.5876 25.3205C17.489 25.2249 17.4106 25.1105 17.3571 24.9841C17.3036 24.8576 17.276 24.722 17.276 24.5847C17.276 24.4474 17.3036 24.3112 17.3571 24.1848C17.4106 24.0583 17.489 23.9439 17.5876 23.8483C17.6862 23.7528 17.803 23.6782 17.931 23.6286C18.0591 23.5791 18.1958 23.5555 18.333 23.5598H25.201C25.4725 23.5603 25.7328 23.6686 25.9249 23.8605C26.1169 24.0524 26.2252 24.3127 26.226 24.5842Z" fill="#45536D"/>
<path d="M25.733 28.9778C25.733 29.2497 25.625 29.5107 25.4328 29.7029C25.2405 29.8952 24.9798 30.0032 24.708 30.0032H20.958C20.6861 30.0032 20.4254 29.8952 20.2332 29.7029C20.041 29.5107 19.933 29.2497 19.933 28.9778C19.933 28.706 20.041 28.4454 20.2332 28.2532C20.4254 28.061 20.6861 27.9529 20.958 27.9529H24.708C24.9797 27.9532 25.2403 28.0615 25.4325 28.2537C25.6246 28.4459 25.7327 28.7061 25.733 28.9778Z" fill="#45536D"/>
<path d="M25.733 28.9778C25.733 29.2497 25.625 29.5107 25.4328 29.7029C25.2405 29.8952 24.9798 30.0032 24.708 30.0032H20.958C20.6861 30.0032 20.4254 29.8952 20.2332 29.7029C20.041 29.5107 19.933 29.2497 19.933 28.9778C19.933 28.706 20.041 28.4454 20.2332 28.2532C20.4254 28.061 20.6861 27.9529 20.958 27.9529H24.708C24.9797 27.9532 25.2403 28.0615 25.4325 28.2537C25.6246 28.4459 25.7327 28.7061 25.733 28.9778Z" fill="#45536D"/>
</g>
<defs>
<clipPath id="clip0_1_556">
<rect width="56" height="30.003" fill="white" transform="translate(0.5)"/>
</clipPath>
</defs>
</svg>
