<svg width="300" height="306" viewBox="0 0 300 306" fill="none" xmlns="http://www.w3.org/2000/svg">
<g clip-path="url(#clip0_1_588)">
<path d="M153.01 76.59C149.032 76.5887 145.218 75.0079 142.405 72.1951C139.592 69.3824 138.011 65.5678 138.01 61.59V15C138.01 11.0218 139.59 7.20644 142.403 4.3934C145.216 1.58035 149.032 0 153.01 0C156.988 0 160.804 1.58035 163.617 4.3934C166.43 7.20644 168.01 11.0218 168.01 15V61.59C168.009 65.5678 166.428 69.3824 163.615 72.1951C160.802 75.0079 156.988 76.5887 153.01 76.59ZM153.01 305.02C150.623 305.02 148.334 304.072 146.646 302.384C144.958 300.696 144.01 298.407 144.01 296.02V249.43C144.01 247.043 144.958 244.754 146.646 243.066C148.334 241.378 150.623 240.43 153.01 240.43C155.397 240.43 157.686 241.378 159.374 243.066C161.062 244.754 162.01 247.043 162.01 249.43V296.02C162.01 298.407 161.062 300.696 159.374 302.384C157.686 304.072 155.397 305.02 153.01 305.02ZM59.09 167.51H12.5C9.3174 167.51 6.26516 166.246 4.01472 163.995C1.76428 161.745 0.5 158.693 0.5 155.51C0.5 152.327 1.76428 149.275 4.01472 147.025C6.26516 144.774 9.3174 143.51 12.5 143.51H59.09C62.2726 143.51 65.3248 144.774 67.5753 147.025C69.8257 149.275 71.09 152.327 71.09 155.51C71.09 158.693 69.8257 161.745 67.5753 163.995C65.3248 166.246 62.2726 167.51 59.09 167.51ZM293.52 161.51H246.93C245.339 161.51 243.813 160.878 242.687 159.753C241.562 158.627 240.93 157.101 240.93 155.51C240.93 153.919 241.562 152.393 242.687 151.267C243.813 150.142 245.339 149.51 246.93 149.51H293.52C295.111 149.51 296.637 150.142 297.763 151.267C298.888 152.393 299.52 153.919 299.52 155.51C299.52 157.101 298.888 158.627 297.763 159.753C296.637 160.878 295.111 161.51 293.52 161.51ZM199.97 78.17C199.267 78.172 198.576 77.9855 197.97 77.63C197.515 77.3678 197.117 77.0184 196.797 76.6019C196.477 76.1855 196.243 75.71 196.107 75.2029C195.972 74.6957 195.938 74.1668 196.007 73.6463C196.076 73.1259 196.247 72.6242 196.51 72.17L219.81 31.81C220.06 31.332 220.404 30.9095 220.822 30.5679C221.239 30.2264 221.722 29.9728 222.24 29.8225C222.758 29.6722 223.301 29.6282 223.837 29.6933C224.372 29.7583 224.889 29.931 225.356 30.201C225.823 30.471 226.231 30.8327 226.554 31.2643C226.878 31.6959 227.111 32.1885 227.239 32.7125C227.368 33.2364 227.389 33.781 227.301 34.3133C227.214 34.8456 227.019 35.3547 226.73 35.81L203.43 76.17C203.078 76.7789 202.573 77.2844 201.963 77.6356C201.354 77.9867 200.663 78.171 199.96 78.17H199.97ZM82.74 287.21C80.9855 287.208 79.2624 286.745 77.7436 285.866C76.2248 284.988 74.9639 283.725 74.0874 282.206C73.211 280.686 72.7498 278.962 72.7503 277.207C72.7507 275.453 73.2127 273.729 74.09 272.21L97.39 231.85C98.0418 230.704 98.914 229.697 99.9563 228.889C100.999 228.081 102.19 227.487 103.463 227.142C104.736 226.796 106.064 226.706 107.372 226.876C108.68 227.046 109.941 227.473 111.083 228.132C112.225 228.792 113.226 229.671 114.027 230.718C114.828 231.766 115.414 232.962 115.751 234.237C116.088 235.512 116.17 236.841 115.991 238.147C115.812 239.454 115.377 240.712 114.71 241.85L91.41 282.21C90.5327 283.733 89.2691 284.997 87.7468 285.875C86.2244 286.753 84.4973 287.213 82.74 287.21ZM274.7 232.77C273.474 232.772 272.269 232.448 271.21 231.83L230.85 208.53C230.032 208.082 229.311 207.475 228.73 206.745C228.15 206.015 227.721 205.176 227.469 204.278C227.217 203.379 227.148 202.44 227.264 201.514C227.381 200.589 227.681 199.696 228.148 198.888C228.614 198.08 229.238 197.373 229.981 196.81C230.725 196.246 231.573 195.837 232.477 195.606C233.381 195.376 234.322 195.328 235.245 195.466C236.167 195.604 237.053 195.925 237.85 196.41L278.21 219.71C279.544 220.481 280.586 221.671 281.175 223.096C281.764 224.52 281.866 226.099 281.466 227.587C281.066 229.075 280.186 230.39 278.963 231.327C277.74 232.264 276.241 232.771 274.7 232.77ZM71.66 121.55C69.3813 121.551 67.1427 120.951 65.17 119.81L24.81 96.51C21.8237 94.7861 19.6445 91.9465 18.7518 88.6158C17.8591 85.2852 18.3261 81.7363 20.05 78.75C21.7739 75.7637 24.6135 73.5845 27.9442 72.6918C31.2748 71.7991 34.8237 72.2661 37.81 73.99L78.17 97.29C80.6499 98.7209 82.5881 100.931 83.6836 103.576C84.7791 106.221 84.9708 109.154 84.2287 111.919C83.4867 114.685 81.8525 117.128 79.5798 118.869C77.3071 120.61 74.5231 121.553 71.66 121.55ZM106.06 88.17C103.6 88.1721 101.183 87.5263 99.0516 86.2975C96.9204 85.0686 95.1505 83.3002 93.92 81.17L70.62 40.81C68.8651 37.6018 68.4351 33.8344 69.4219 30.3133C70.4088 26.7922 72.7341 23.797 75.9006 21.9681C79.0672 20.1393 82.8236 19.6219 86.3667 20.5268C89.9097 21.4316 92.9581 23.6867 94.86 26.81L118.16 67.17C119.388 69.2972 120.035 71.7101 120.036 74.1664C120.036 76.6227 119.391 79.0359 118.164 81.1638C116.937 83.2916 115.171 85.0592 113.045 86.289C110.919 87.5188 108.506 88.1675 106.05 88.17H106.06ZM223.28 285.21C221.874 285.212 220.492 284.843 219.273 284.141C218.055 283.439 217.043 282.428 216.34 281.21L193.04 240.85C191.979 239.012 191.692 236.828 192.241 234.778C192.791 232.728 194.132 230.981 195.97 229.92C197.808 228.859 199.992 228.572 202.042 229.121C204.092 229.671 205.839 231.012 206.9 232.85L230.2 273.21C230.902 274.426 231.271 275.804 231.272 277.208C231.272 278.612 230.903 279.991 230.202 281.206C229.501 282.422 228.492 283.432 227.277 284.135C226.062 284.838 224.684 285.209 223.28 285.21ZM234.35 113.55C233.249 113.55 232.18 113.187 231.306 112.517C230.433 111.847 229.805 110.907 229.521 109.844C229.236 108.781 229.31 107.654 229.731 106.637C230.152 105.62 230.897 104.77 231.85 104.22L272.21 80.92C272.779 80.5865 273.408 80.3688 274.061 80.2795C274.715 80.1902 275.379 80.231 276.017 80.3995C276.654 80.568 277.252 80.861 277.776 81.2616C278.3 81.6621 278.739 82.1623 279.069 82.7334C279.399 83.3044 279.612 83.935 279.697 84.5889C279.782 85.2428 279.737 85.9071 279.564 86.5435C279.391 87.1798 279.094 87.7757 278.69 88.2969C278.286 88.818 277.783 89.2541 277.21 89.58L236.85 112.88C236.089 113.317 235.227 113.548 234.35 113.55ZM31.32 236.77C28.8965 236.774 26.5396 235.977 24.6155 234.503C22.6914 233.03 21.3077 230.962 20.6795 228.621C20.0513 226.281 20.2137 223.798 21.1414 221.559C22.0692 219.32 23.7103 217.45 25.81 216.24L66.17 192.94C68.6975 191.481 71.701 191.086 74.5196 191.842C77.3383 192.598 79.7413 194.442 81.2 196.97C82.6587 199.498 83.0536 202.501 82.2978 205.32C81.542 208.138 79.6975 210.541 77.17 212L36.81 235.3C35.1424 236.269 33.2485 236.779 31.32 236.78V236.77Z" fill="black"/>
</g>
<defs>
<clipPath id="clip0_1_588">
<rect width="299.02" height="305.02" fill="white" transform="translate(0.5)"/>
</clipPath>
</defs>
</svg>
