<svg xmlns="http://www.w3.org/2000/svg" width="299.02" height="305.02" viewBox="0 0 299.02 305.02">
  <g id="loadder" transform="translate(-2275 -1129)">
    <path id="loadder-2" data-name="loadder" d="M152.51,76.59a15.005,15.005,0,0,1-15-15V15a15,15,0,0,1,30,0V61.59A15.005,15.005,0,0,1,152.51,76.59Zm0,228.43a9,9,0,0,1-9-9V249.43a9,9,0,0,1,18,0v46.59A9,9,0,0,1,152.51,305.02ZM58.59,167.51H12a12,12,0,0,1,0-24H58.59a12,12,0,0,1,0,24Zm234.43-6H246.43a6,6,0,0,1,0-12h46.59a6,6,0,0,1,0,12ZM199.47,78.17a3.932,3.932,0,0,1-2-.54,3.992,3.992,0,0,1-1.46-5.46l23.3-40.36a4,4,0,1,1,6.92,4l-23.3,40.36a4,4,0,0,1-3.47,2ZM82.24,287.21a10,10,0,0,1-8.65-15l23.3-40.36a10,10,0,1,1,17.32,10l-23.3,40.36a9.984,9.984,0,0,1-8.67,5ZM274.2,232.77a6.908,6.908,0,0,1-3.49-.94l-40.36-23.3a7,7,0,1,1,7-12.12l40.36,23.3a7,7,0,0,1-3.51,13.06ZM71.16,121.55a12.959,12.959,0,0,1-6.49-1.74L24.31,96.51a13,13,0,0,1,13-22.52l40.36,23.3a13,13,0,0,1-6.51,24.26Zm34.4-33.38a14.006,14.006,0,0,1-12.14-7L70.12,40.81a14,14,0,0,1,24.24-14l23.3,40.36a14,14,0,0,1-12.11,21ZM222.78,285.21a8,8,0,0,1-6.94-4l-23.3-40.36a8,8,0,0,1,13.86-8l23.3,40.36a8,8,0,0,1-6.92,12Zm11.07-171.66a5,5,0,0,1-2.5-9.33l40.36-23.3a5,5,0,1,1,5,8.66l-40.36,23.3a5.043,5.043,0,0,1-2.5.67ZM30.82,236.77a11,11,0,0,1-5.51-20.53l40.36-23.3a11,11,0,1,1,11,19.06L36.31,235.3a10.941,10.941,0,0,1-5.49,1.48Z" transform="translate(2275 1129)"/>
  </g>
</svg>
