<svg width="25" height="24" viewBox="0 0 25 24" fill="none" xmlns="http://www.w3.org/2000/svg">
<g clip-path="url(#clip0_1_601)">
<path d="M20.802 20.031C20.8485 20.2015 20.8443 20.3818 20.7897 20.5498C20.7352 20.7179 20.6328 20.8664 20.495 20.977C19.6069 21.765 18.6062 22.4162 17.526 22.909C16.248 23.4962 14.8755 23.8504 13.473 23.955C13.435 23.955 13.398 23.949 13.385 23.993V24.009H13.247C13.2371 23.9995 13.2253 23.9924 13.2123 23.988C13.1993 23.9837 13.1856 23.9823 13.172 23.984H12.953C12.909 23.984 12.865 23.972 12.828 24.009H12.546C12.3916 23.9714 12.2304 23.9714 12.076 24.009H11.888C11.8781 23.9995 11.8663 23.9924 11.8533 23.988C11.8403 23.9837 11.8266 23.9823 11.813 23.984H11.7C11.669 23.984 11.631 23.978 11.606 24.009H11.374C11.1498 23.9266 10.9129 23.8843 10.674 23.884C8.36302 23.5199 6.21384 22.4727 4.503 20.877C2.56237 19.1933 1.24876 16.9023 0.775999 14.377C0.316638 12.3122 0.432813 10.161 1.11187 8.15767C1.79092 6.15437 3.00679 4.37588 4.627 3.01601C6.53793 1.31455 8.94933 0.279033 11.499 0.0650064C13.0048 -0.0957519 14.5275 0.0435674 15.9791 0.47491C17.4307 0.906252 18.7824 1.62106 19.956 2.57801C20.131 2.71601 20.307 2.86601 20.476 3.01701C20.576 3.0957 20.6588 3.19403 20.7194 3.30596C20.7799 3.41788 20.8169 3.54101 20.8281 3.66777C20.8392 3.79454 20.8243 3.92224 20.7842 4.04301C20.7441 4.16378 20.6797 4.27507 20.595 4.37001C20.5137 4.46626 20.4134 4.5447 20.3004 4.60043C20.1874 4.65616 20.0641 4.68798 19.9382 4.69389C19.8124 4.6998 19.6866 4.67969 19.5689 4.6348C19.4512 4.58991 19.344 4.52121 19.254 4.43301C18.4222 3.67243 17.4638 3.06325 16.422 2.63301C15.0925 2.07531 13.6568 1.816 12.2161 1.87336C10.7755 1.93073 9.36499 2.30336 8.084 2.96501C6.7883 3.55504 5.63972 4.42531 4.72112 5.51304C3.80252 6.60076 3.1368 7.87882 2.772 9.25501C2.09973 11.5496 2.27764 14.0097 3.27307 16.1837C4.2685 18.3577 6.01465 20.0997 8.191 21.09C9.39966 21.6933 10.719 22.0428 12.0678 22.1171C13.4166 22.1914 14.7664 21.9889 16.034 21.522C17.1872 21.1027 18.2487 20.4647 19.16 19.643C19.2707 19.5212 19.4102 19.4293 19.5657 19.3756C19.7213 19.322 19.8878 19.3084 20.05 19.336C20.2306 19.363 20.3989 19.4438 20.533 19.5677C20.6671 19.6916 20.7609 19.8531 20.802 20.031Z" fill="#FF5A00"/>
<path d="M24.536 11.724V12.476C24.479 12.6031 24.441 12.7379 24.423 12.876C24.282 13.3415 24.0257 13.7639 23.678 14.104C22.651 15.119 21.617 16.134 20.59 17.142C20.5037 17.2389 20.3983 17.3169 20.2805 17.371C20.1626 17.4252 20.0348 17.4545 19.9051 17.4569C19.7754 17.4594 19.6466 17.435 19.5268 17.3853C19.4069 17.3355 19.2987 17.2616 19.2088 17.168C19.1189 17.0745 19.0494 16.9634 19.0045 16.8417C18.9596 16.72 18.9404 16.5903 18.948 16.4608C18.9556 16.3313 18.9899 16.2048 19.0488 16.0892C19.1076 15.9735 19.1898 15.8714 19.29 15.789C20.29 14.805 21.282 13.828 22.278 12.845C22.3993 12.7566 22.4977 12.6406 22.5652 12.5065C22.6326 12.3724 22.6672 12.2242 22.6659 12.0742C22.6646 11.9241 22.6276 11.7765 22.5579 11.6436C22.4882 11.5107 22.3878 11.3963 22.265 11.31C21.265 10.339 20.273 9.37401 19.277 8.40301C19.1428 8.28735 19.0449 8.13546 18.9949 7.96555C18.9449 7.79563 18.9449 7.6149 18.995 7.44501C19.0366 7.27633 19.1262 7.12331 19.2529 7.00442C19.3796 6.88553 19.538 6.80585 19.709 6.77501C19.8542 6.73902 20.0063 6.74149 20.1503 6.78217C20.2942 6.82285 20.4251 6.90034 20.53 7.00701C21.614 8.05301 22.698 9.10701 23.769 10.164C24.1776 10.5696 24.4361 11.1021 24.502 11.674C24.498 11.693 24.523 11.709 24.536 11.724Z" fill="#FF5A00"/>
<path d="M19.869 12.939C18.879 12.945 17.883 12.939 16.893 12.939H7.293C7.17041 12.9501 7.04684 12.9369 6.92933 12.9003C6.81183 12.8636 6.7027 12.8042 6.60817 12.7253C6.41725 12.5661 6.29741 12.3376 6.275 12.09C6.25259 11.8424 6.32945 11.5961 6.48866 11.4052C6.64788 11.2143 6.87642 11.0944 7.124 11.072C7.17829 11.0689 7.23271 11.0689 7.287 11.072H19.819C20.0631 11.054 20.3047 11.1313 20.4929 11.2878C20.6811 11.4443 20.8012 11.6677 20.828 11.911C20.8418 12.0435 20.827 12.1775 20.7847 12.3038C20.7423 12.4301 20.6734 12.5459 20.5825 12.6433C20.4916 12.7407 20.3809 12.8175 20.2578 12.8685C20.1347 12.9196 20.0022 12.9436 19.869 12.939Z" fill="#FF5A00"/>
</g>
<defs>
<clipPath id="clip0_1_601">
<rect width="24.036" height="24.009" fill="white" transform="translate(0.5)"/>
</clipPath>
</defs>
</svg>
