<svg width="201" height="150" viewBox="0 0 201 150" fill="none" xmlns="http://www.w3.org/2000/svg">
<g clip-path="url(#clip0_1_526)">
<g opacity="0.11">
<path d="M200.708 61.335C200.7 64.8648 199.294 68.2477 196.798 70.7436C194.302 73.2396 190.919 74.6456 187.389 74.654H127.189C125.51 74.654 123.847 74.9847 122.296 75.6273C120.745 76.2698 119.335 77.2117 118.148 78.3989C116.961 79.5862 116.019 80.9957 115.376 82.547C114.734 84.0983 114.403 85.7609 114.403 87.44C114.403 89.1191 114.734 90.7817 115.376 92.333C116.019 93.8843 116.961 95.2938 118.148 96.4811C119.335 97.6684 120.745 98.6102 122.296 99.2527C123.847 99.8953 125.51 100.226 127.189 100.226H170.874C173.135 100.226 175.303 101.124 176.901 102.723C178.5 104.321 179.398 106.489 179.398 108.75C179.398 111.011 178.5 113.179 176.901 114.777C175.303 116.376 173.135 117.274 170.874 117.274H128.258C125.997 117.274 123.829 118.172 122.231 119.771C120.632 121.369 119.734 123.537 119.734 125.798C119.734 128.059 120.632 130.227 122.231 131.825C123.829 133.424 125.997 134.322 128.258 134.322H166.616C168.029 134.322 169.384 134.883 170.383 135.882C171.382 136.881 171.944 138.237 171.944 139.65C171.944 141.062 171.382 142.418 170.383 143.417C169.384 144.416 168.029 144.977 166.616 144.977H73.916C72.5031 144.977 71.148 144.416 70.1489 143.417C69.1498 142.418 68.5885 141.062 68.5885 139.65C68.5885 138.237 69.1498 136.881 70.1489 135.882C71.148 134.883 72.5031 134.322 73.916 134.322H88.832C91.0927 134.322 93.2608 133.424 94.8594 131.825C96.4579 130.227 97.356 128.059 97.356 125.798C97.356 123.537 96.4579 121.369 94.8594 119.771C93.2608 118.172 91.0927 117.274 88.832 117.274H13.182C10.9213 117.274 8.75319 116.376 7.15463 114.777C5.55607 113.179 4.658 111.011 4.658 108.75C4.658 106.489 5.55607 104.321 7.15463 102.723C8.75319 101.124 10.9213 100.226 13.182 100.226H24.902C28.2931 100.226 31.5452 98.8789 33.9431 96.4811C36.3409 94.0832 37.688 90.8311 37.688 87.44C37.688 84.0489 36.3409 80.7968 33.9431 78.3989C31.5452 76.0011 28.2931 74.654 24.902 74.654H17.977C14.4446 74.654 11.0568 73.2508 8.55905 70.753C6.06125 68.2552 4.658 64.8674 4.658 61.335C4.658 57.8026 6.06125 54.4148 8.55905 51.917C11.0568 49.4193 14.4446 48.016 17.977 48.016H81.906C83.0954 48.016 84.2731 47.7817 85.372 47.3266C86.4708 46.8714 87.4693 46.2043 88.3103 45.3633C89.1513 44.5223 89.8184 43.5238 90.2736 42.425C90.7287 41.3261 90.963 40.1484 90.963 38.959C90.963 37.7696 90.7287 36.5919 90.2736 35.493C89.8184 34.3942 89.1513 33.3958 88.3103 32.5547C87.4693 31.7137 86.4708 31.0466 85.372 30.5914C84.2731 30.1363 83.0954 29.902 81.906 29.902H55.269C53.6185 29.9001 52.009 29.387 50.662 28.433C49.3151 27.4791 48.2967 26.1313 47.747 24.575C47.4338 23.7219 47.275 22.8198 47.278 21.911C47.2807 19.7926 48.1234 17.7617 49.6215 16.2638C51.1196 14.7659 53.1506 13.9234 55.269 13.921H139.443C141.561 13.9255 143.591 14.7688 145.089 16.2665C146.586 17.7641 147.43 19.794 147.434 21.912C147.437 22.8208 147.278 23.7229 146.965 24.576C146.417 26.1333 145.399 27.4821 144.052 28.4362C142.704 29.3904 141.094 29.9029 139.443 29.903H122.395C119.993 29.903 117.689 30.8572 115.991 32.5557C114.292 34.2543 113.338 36.5579 113.338 38.96C113.338 41.3621 114.292 43.6658 115.991 45.3643C117.689 47.0628 119.993 48.017 122.395 48.017H187.39C190.919 48.0257 194.302 49.4317 196.798 51.9274C199.293 54.4231 200.699 57.8055 200.708 61.335Z" fill="#45536D" fill-opacity="0.5"/>
</g>
<path d="M104.975 139.632C94 139.631 83.2896 136.263 74.2904 129.98C65.2912 123.698 58.4368 114.806 54.653 104.504C50.8692 94.2015 50.3383 82.9864 53.132 72.3729C55.9258 61.7595 61.9095 52.2591 70.275 45.155C70.5043 44.9602 70.7697 44.8124 71.0561 44.7202C71.3425 44.6279 71.6442 44.593 71.9441 44.6174C72.244 44.6418 72.5362 44.725 72.8039 44.8623C73.0716 44.9995 73.3097 45.1882 73.5045 45.4175C73.6993 45.6468 73.8471 45.9122 73.9393 46.1986C74.0315 46.485 74.0665 46.7867 74.0421 47.0866C74.0177 47.3865 73.9345 47.6786 73.7972 47.9464C73.66 48.2141 73.4713 48.4522 73.242 48.647C68.0733 53.0364 63.8712 58.4501 60.9014 64.5462C57.9316 70.6423 56.2586 77.2882 55.9881 84.0638C55.7177 90.8395 56.8556 97.5975 59.3301 103.911C61.8046 110.224 65.5617 115.956 70.3642 120.743C75.1666 125.531 80.9099 129.27 87.231 131.724C93.5522 134.179 100.314 135.296 107.089 135.004C113.863 134.712 120.504 133.018 126.591 130.029C132.677 127.041 138.078 122.821 142.451 117.639C142.644 117.407 142.882 117.216 143.15 117.076C143.417 116.936 143.71 116.85 144.011 116.824C144.312 116.798 144.615 116.831 144.903 116.922C145.191 117.014 145.458 117.161 145.689 117.356C145.92 117.551 146.11 117.79 146.248 118.058C146.386 118.327 146.47 118.62 146.494 118.922C146.518 119.223 146.483 119.526 146.39 119.813C146.297 120.1 146.147 120.366 145.951 120.596C140.922 126.564 134.648 131.36 127.571 134.648C120.493 137.937 112.781 139.638 104.977 139.632" fill="black"/>
<path d="M156.295 88.309C155.687 88.309 155.105 88.0676 154.675 87.638C154.245 87.2083 154.004 86.6256 154.004 86.018C153.997 78.5277 152.276 71.1383 148.972 64.4161C145.668 57.6938 140.869 51.8171 134.943 47.2361C129.017 42.6551 122.121 39.4915 114.783 37.9876C107.445 36.4838 99.8604 36.6796 92.61 38.56C92.3164 38.6428 92.0092 38.6661 91.7065 38.6285C91.4038 38.591 91.1116 38.4934 90.8471 38.3414C90.5826 38.1895 90.3511 37.9862 90.1662 37.7436C89.9813 37.501 89.8467 37.2239 89.7703 36.9286C89.694 36.6333 89.6773 36.3256 89.7214 36.0238C89.7655 35.722 89.8694 35.432 90.0271 35.1708C90.1848 34.9097 90.393 34.6827 90.6396 34.5031C90.8861 34.3235 91.1661 34.1949 91.463 34.125C99.3908 32.0684 107.684 31.854 115.708 33.4982C123.731 35.1424 131.271 38.6016 137.751 43.6107C144.231 48.6198 149.478 55.0458 153.09 62.3964C156.703 69.7469 158.584 77.8268 158.591 86.017C158.591 86.6246 158.35 87.2073 157.92 87.637C157.49 88.0666 156.908 88.308 156.3 88.308" fill="black"/>
<path d="M42.658 122.678C42.658 122.134 42.4968 121.603 42.1947 121.151C41.8927 120.699 41.4633 120.346 40.961 120.138C40.4587 119.93 39.906 119.876 39.3727 119.982C38.8394 120.088 38.3496 120.35 37.9652 120.734C37.5807 121.119 37.3189 121.608 37.2128 122.142C37.1068 122.675 37.1612 123.228 37.3693 123.73C37.5773 124.232 37.9297 124.662 38.3817 124.964C38.8338 125.266 39.3653 125.427 39.909 125.427C40.6381 125.427 41.3373 125.137 41.8528 124.622C42.3684 124.106 42.658 123.407 42.658 122.678Z" fill="#1A496D"/>
<path d="M62.818 26.452C62.817 26.0284 62.6693 25.6181 62.3999 25.2912C62.1305 24.9642 61.7561 24.7407 61.3405 24.6588C60.9249 24.5768 60.4937 24.6414 60.1203 24.8416C59.7469 25.0418 59.4545 25.3652 59.2928 25.7567C59.131 26.1483 59.11 26.5838 59.2332 26.9891C59.3565 27.3944 59.6164 27.7445 59.9687 27.9797C60.321 28.215 60.744 28.3208 61.1656 28.2793C61.5872 28.2378 61.9813 28.0515 62.281 27.752C62.4517 27.5813 62.587 27.3786 62.6791 27.1555C62.7713 26.9325 62.8185 26.6934 62.818 26.452Z" fill="#1A496D"/>
<path d="M160.877 146.505C160.876 146.081 160.728 145.671 160.459 145.344C160.19 145.017 159.815 144.794 159.4 144.712C158.984 144.63 158.553 144.694 158.179 144.895C157.806 145.095 157.514 145.418 157.352 145.81C157.19 146.201 157.169 146.637 157.292 147.042C157.415 147.447 157.675 147.797 158.028 148.033C158.38 148.268 158.803 148.374 159.225 148.332C159.646 148.291 160.04 148.104 160.34 147.805C160.511 147.634 160.646 147.432 160.738 147.209C160.83 146.985 160.877 146.746 160.877 146.505Z" fill="#1A496D"/>
<path d="M171.874 122.678C170.605 122.678 169.365 122.302 168.31 121.597C167.255 120.892 166.433 119.89 165.947 118.718C165.462 117.546 165.335 116.256 165.582 115.011C165.83 113.767 166.441 112.624 167.338 111.727C168.235 110.83 169.378 110.219 170.623 109.971C171.867 109.724 173.157 109.851 174.329 110.336C175.501 110.822 176.503 111.644 177.208 112.699C177.913 113.754 178.289 114.994 178.289 116.263C178.289 117.964 177.613 119.596 176.41 120.799C175.207 122.002 173.575 122.678 171.874 122.678ZM171.874 111.678C170.968 111.679 170.082 111.948 169.329 112.452C168.576 112.955 167.99 113.671 167.643 114.508C167.297 115.345 167.206 116.266 167.383 117.155C167.56 118.044 167.997 118.86 168.637 119.5C169.278 120.141 170.094 120.577 170.983 120.754C171.872 120.931 172.793 120.84 173.63 120.494C174.467 120.147 175.182 119.56 175.686 118.807C176.19 118.054 176.459 117.168 176.459 116.262C176.459 115.66 176.341 115.064 176.111 114.507C175.88 113.951 175.542 113.445 175.117 113.02C174.691 112.594 174.185 112.256 173.629 112.026C173.072 111.796 172.476 111.678 171.874 111.678Z" fill="#FF5A00"/>
<path d="M162.71 45.697C161.804 45.697 160.918 45.4283 160.164 44.9248C159.411 44.4213 158.824 43.7057 158.477 42.8684C158.13 42.0312 158.039 41.1099 158.216 40.2211C158.393 39.3323 158.829 38.5158 159.47 37.875C160.111 37.2342 160.927 36.7978 161.816 36.621C162.705 36.4442 163.626 36.535 164.463 36.8818C165.301 37.2286 166.016 37.8159 166.52 38.5694C167.023 39.3229 167.292 40.2088 167.292 41.115C167.292 42.3302 166.809 43.4957 165.95 44.355C165.091 45.2142 163.925 45.697 162.71 45.697ZM162.71 38.365C162.166 38.365 161.635 38.5262 161.183 38.8283C160.731 39.1303 160.378 39.5597 160.17 40.062C159.962 40.5643 159.908 41.117 160.014 41.6503C160.12 42.1835 160.382 42.6734 160.766 43.0578C161.151 43.4423 161.64 43.7041 162.174 43.8102C162.707 43.9162 163.26 43.8618 163.762 43.6537C164.264 43.4457 164.694 43.0933 164.996 42.6413C165.298 42.1892 165.459 41.6577 165.459 41.114C165.459 40.3849 165.169 39.6857 164.654 39.1702C164.138 38.6546 163.439 38.365 162.71 38.365Z" fill="#FF5A00"/>
<path d="M80.232 12.708C79.1442 12.708 78.0808 12.3854 77.1764 11.7811C76.2719 11.1767 75.5669 10.3177 75.1507 9.31275C74.7344 8.30776 74.6255 7.20189 74.8377 6.135C75.0499 5.0681 75.5737 4.0881 76.3429 3.31891C77.1121 2.54972 78.0921 2.02589 79.159 1.81368C80.2259 1.60146 81.3318 1.71038 82.3368 2.12666C83.3417 2.54294 84.2007 3.24789 84.8051 4.15236C85.4094 5.05683 85.732 6.1202 85.732 7.20799C85.732 8.66669 85.1525 10.0656 84.1211 11.0971C83.0896 12.1285 81.6907 12.708 80.232 12.708ZM80.232 3.544C79.5068 3.5436 78.7977 3.75832 78.1945 4.16099C77.5913 4.56367 77.1212 5.1362 76.8434 5.80615C76.5657 6.47611 76.493 7.21338 76.6343 7.92471C76.7757 8.63603 77.1249 9.28943 77.6377 9.80225C78.1506 10.3151 78.804 10.6643 79.5153 10.8057C80.2266 10.947 80.9639 10.8743 81.6338 10.5966C82.3038 10.3188 82.8763 9.84864 83.279 9.24547C83.6817 8.64229 83.8964 7.93323 83.896 7.20799C83.8955 6.2364 83.5093 5.30476 82.8223 4.61774C82.1352 3.93072 81.2036 3.54452 80.232 3.544Z" fill="#FF5A00"/>
<path d="M5.082 75.939C4.17577 75.939 3.28989 75.6703 2.53638 75.1668C1.78287 74.6633 1.19559 73.9477 0.848786 73.1105C0.501985 72.2732 0.411246 71.3519 0.588044 70.4631C0.764841 69.5743 1.20123 68.7578 1.84204 68.117C2.48284 67.4762 3.29928 67.0398 4.1881 66.863C5.07692 66.6862 5.99821 66.777 6.83546 67.1238C7.67271 67.4706 8.38832 68.0579 8.8918 68.8114C9.39527 69.5649 9.664 70.4508 9.664 71.357C9.664 72.5722 9.18126 73.7377 8.32197 74.597C7.46267 75.4563 6.29722 75.939 5.082 75.939ZM5.082 68.607C4.5383 68.607 4.00681 68.7682 3.55474 69.0703C3.10267 69.3724 2.75032 69.8017 2.54226 70.304C2.33419 70.8063 2.27975 71.3591 2.38582 71.8923C2.49189 72.4256 2.75371 72.9154 3.13817 73.2998C3.52262 73.6843 4.01244 73.9461 4.5457 74.0522C5.07895 74.1582 5.63168 74.1038 6.134 73.8957C6.63631 73.6877 7.06565 73.3353 7.36771 72.8833C7.66978 72.4312 7.831 71.8997 7.831 71.356C7.831 70.6269 7.54138 69.9277 7.02584 69.4122C6.5103 68.8966 5.81108 68.607 5.082 68.607Z" fill="#FF5A00"/>
<path d="M123.762 13.163C123.761 13.4057 123.664 13.6382 123.493 13.8098C123.321 13.9814 123.089 14.0782 122.846 14.079H119.638V17.287C119.63 17.5248 119.53 17.7503 119.359 17.9158C119.188 18.0812 118.959 18.1737 118.721 18.1737C118.484 18.1737 118.255 18.0812 118.084 17.9158C117.913 17.7503 117.813 17.5248 117.805 17.287V14.08H114.597C114.474 14.0841 114.352 14.0634 114.237 14.0191C114.122 13.9749 114.017 13.908 113.929 13.8225C113.841 13.737 113.77 13.6346 113.722 13.5214C113.674 13.4082 113.65 13.2865 113.65 13.1635C113.65 13.0405 113.674 12.9188 113.722 12.8056C113.77 12.6924 113.841 12.59 113.929 12.5045C114.017 12.419 114.122 12.3521 114.237 12.3079C114.352 12.2636 114.474 12.2429 114.597 12.247H117.805V9.039C117.805 8.79593 117.902 8.56281 118.073 8.39093C118.245 8.21906 118.478 8.1225 118.721 8.1225C118.965 8.1225 119.198 8.21906 119.37 8.39093C119.541 8.56281 119.638 8.79593 119.638 9.039V12.247H122.846C123.089 12.2478 123.321 12.3445 123.493 12.5162C123.664 12.6878 123.761 12.9203 123.762 13.163Z" fill="#2FDF84"/>
<path d="M35.326 40.199C35.3255 40.3755 35.2551 40.5446 35.1303 40.6693C35.0056 40.7941 34.8365 40.8645 34.66 40.865H32.326V43.198C32.326 43.3746 32.2558 43.544 32.1309 43.6689C32.006 43.7938 31.8366 43.864 31.66 43.864C31.4834 43.864 31.314 43.7938 31.1891 43.6689C31.0642 43.544 30.994 43.3746 30.994 43.198V40.865H28.66C28.5703 40.8685 28.4808 40.8538 28.3969 40.8219C28.313 40.7899 28.2364 40.7414 28.1718 40.6792C28.1071 40.6169 28.0556 40.5423 28.0205 40.4597C27.9853 40.3771 27.9672 40.2883 27.9672 40.1985C27.9672 40.1087 27.9853 40.0199 28.0205 39.9373C28.0556 39.8547 28.1071 39.78 28.1718 39.7178C28.2364 39.6556 28.313 39.607 28.3969 39.5751C28.4808 39.5432 28.5703 39.5285 28.66 39.532H30.994V37.199C30.994 37.0224 31.0642 36.853 31.1891 36.7281C31.314 36.6032 31.4834 36.533 31.66 36.533C31.8366 36.533 32.006 36.6032 32.1309 36.7281C32.2558 36.853 32.326 37.0224 32.326 37.199V39.533H34.659C34.8355 39.5335 35.0046 39.6039 35.1293 39.7286C35.2541 39.8534 35.3255 40.0225 35.326 40.199Z" fill="#2FDF84"/>
<path d="M200.284 75.023C200.283 75.2438 200.196 75.4553 200.039 75.6114C199.883 75.7675 199.672 75.8555 199.451 75.856H196.535V78.772C196.535 78.8814 196.513 78.9897 196.472 79.0908C196.43 79.1918 196.368 79.2837 196.291 79.361C196.214 79.4384 196.122 79.4997 196.021 79.5416C195.92 79.5835 195.811 79.605 195.702 79.605C195.593 79.605 195.484 79.5835 195.383 79.5416C195.282 79.4997 195.19 79.4384 195.113 79.361C195.036 79.2837 194.974 79.1918 194.932 79.0908C194.891 78.9897 194.869 78.8814 194.869 78.772V75.856H191.953C191.732 75.856 191.52 75.7682 191.364 75.612C191.208 75.4558 191.12 75.2439 191.12 75.023C191.12 74.8021 191.208 74.5902 191.364 74.434C191.52 74.2778 191.732 74.19 191.953 74.19H194.869V71.274C194.869 71.1646 194.891 71.0563 194.932 70.9552C194.974 70.8542 195.036 70.7623 195.113 70.685C195.19 70.6076 195.282 70.5463 195.383 70.5044C195.484 70.4625 195.593 70.441 195.702 70.441C195.811 70.441 195.92 70.4625 196.021 70.5044C196.122 70.5463 196.214 70.6076 196.291 70.685C196.368 70.7623 196.43 70.8542 196.472 70.9552C196.513 71.0563 196.535 71.1646 196.535 71.274V74.19H199.451C199.672 74.1905 199.883 74.2785 200.039 74.4346C200.196 74.5907 200.283 74.8022 200.284 75.023Z" fill="#2FDF84"/>
<path d="M101.661 70.023V113.323C101.685 113.665 101.63 114.008 101.501 114.326C101.372 114.643 101.173 114.927 100.917 115.156C100.661 115.336 100.368 115.455 100.058 115.503C99.7491 115.551 99.4331 115.526 99.135 115.431L87.147 112.484C86.791 112.395 86.4498 112.255 86.134 112.068C85.4172 111.637 84.8186 111.035 84.3921 110.315C83.9655 109.596 83.7242 108.782 83.69 107.946V64.646C83.666 64.304 83.7206 63.961 83.8495 63.6433C83.9785 63.3256 84.1784 63.0416 84.434 62.813C84.6887 62.632 84.9822 62.513 85.291 62.4652C85.5998 62.4175 85.9155 62.4424 86.213 62.538L98.204 65.483C99.1797 65.7885 100.036 66.3895 100.656 67.203C101.275 68.0164 101.626 69.0012 101.661 70.023Z" fill="#FF5A00"/>
<path d="M119.172 78.328C119.691 78.328 120.188 78.122 120.555 77.7552C120.922 77.3884 121.129 76.8909 121.129 76.372V64.405C121.126 62.5811 120.401 60.8327 119.111 59.543C117.821 58.2534 116.073 57.5276 114.249 57.525H86.656C84.8321 57.5276 83.0837 58.2534 81.794 59.543C80.5044 60.8327 79.7786 62.5811 79.776 64.405V107.941C79.8154 109.837 80.462 111.67 81.6207 113.171C82.7793 114.673 84.3889 115.763 86.213 116.281L98.204 119.226C98.7199 119.357 99.2498 119.424 99.782 119.426C101.065 119.438 102.316 119.019 103.332 118.235C104.055 117.64 104.633 116.888 105.021 116.036C105.409 115.184 105.598 114.255 105.572 113.319V112.09H114.241C116.065 112.087 117.813 111.362 119.103 110.072C120.393 108.782 121.118 107.034 121.121 105.21V93.41C121.109 92.8985 120.898 92.4118 120.532 92.0542C120.166 91.6965 119.675 91.4962 119.164 91.4962C118.652 91.4962 118.161 91.6965 117.795 92.0542C117.429 92.4118 117.218 92.8985 117.206 93.41V105.21C117.205 105.996 116.892 106.75 116.336 107.306C115.78 107.862 115.026 108.175 114.24 108.176H105.572V70.025C105.533 68.1285 104.886 66.2946 103.727 64.7932C102.568 63.2918 100.957 62.2023 99.132 61.685L98.132 61.44H114.232C115.018 61.4408 115.772 61.7535 116.328 62.3096C116.884 62.8657 117.197 63.6196 117.198 64.406V76.369C117.197 76.8879 117.403 77.3857 117.769 77.753C118.136 78.1204 118.633 78.3272 119.152 78.328H119.172ZM98.205 65.484C99.1807 65.7895 100.037 66.3905 100.657 67.204C101.276 68.0174 101.627 69.0032 101.662 70.025V113.319C101.686 113.661 101.631 114.004 101.502 114.322C101.374 114.639 101.174 114.923 100.918 115.152C100.662 115.332 100.369 115.451 100.059 115.499C99.7501 115.547 99.4341 115.522 99.136 115.427L87.148 112.479C86.792 112.39 86.4508 112.25 86.135 112.063C85.418 111.632 84.8193 111.029 84.3927 110.309C83.9661 109.59 83.725 108.775 83.691 107.939V64.645C83.6671 64.303 83.7217 63.96 83.8506 63.6423C83.9796 63.3246 84.1795 63.0406 84.435 62.812C84.6898 62.631 84.9832 62.512 85.292 62.4642C85.6008 62.4165 85.9165 62.4414 86.214 62.537L98.205 65.484Z" fill="black"/>
<path d="M90.766 113.37L87.147 112.479C86.1714 112.174 85.3147 111.573 84.6954 110.76C84.076 109.947 83.7247 108.962 83.69 107.94V64.64C83.666 64.298 83.7206 63.955 83.8495 63.6373C83.9785 63.3196 84.1784 63.0356 84.434 62.807C84.6888 62.6262 84.9822 62.5072 85.291 62.4595C85.5998 62.4117 85.9155 62.4366 86.213 62.532L87.356 62.814V106.986C87.3738 108.244 87.6927 109.48 88.286 110.59C88.8792 111.7 89.7296 112.651 90.766 113.365" fill="#45536D" fill-opacity="0.3"/>
<path d="M141.92 84.923C141.921 84.9744 141.919 85.0259 141.913 85.077C141.914 85.0927 141.914 85.1084 141.913 85.124C141.908 85.175 141.901 85.2258 141.891 85.276C141.881 85.328 141.866 85.389 141.852 85.445C141.837 85.5025 141.818 85.5589 141.796 85.614C141.774 85.6753 141.748 85.735 141.718 85.793C141.694 85.8428 141.667 85.8912 141.637 85.938L141.537 86.09C141.501 86.1394 141.462 86.1868 141.42 86.232L132.37 96.197C132.2 96.3897 131.994 96.547 131.763 96.66C131.532 96.773 131.281 96.8394 131.024 96.8554C130.768 96.8714 130.511 96.8367 130.268 96.7534C130.025 96.67 129.8 96.5396 129.608 96.3695C129.415 96.1994 129.257 95.9931 129.144 95.7622C129.032 95.5314 128.965 95.2805 128.949 95.024C128.933 94.7675 128.968 94.5103 129.051 94.2672C129.135 94.024 129.265 93.7997 129.435 93.607L129.473 93.564L135.533 86.89L115.504 86.939C114.992 86.9274 114.506 86.7161 114.148 86.3503C113.791 85.9844 113.59 85.4931 113.59 84.9815C113.59 84.4699 113.791 83.9786 114.148 83.6127C114.506 83.2469 114.992 83.0356 115.504 83.024L135.527 82.975L129.479 76.397C129.302 76.2083 129.164 75.9864 129.074 75.7442C128.983 75.5019 128.941 75.2441 128.951 74.9856C128.961 74.7271 129.021 74.4731 129.13 74.2382C129.238 74.0034 129.392 73.7924 129.583 73.6174C129.773 73.4423 129.996 73.3068 130.239 73.2187C130.483 73.1305 130.741 73.0914 130.999 73.1036C131.258 73.1159 131.511 73.1792 131.745 73.29C131.978 73.4008 132.188 73.5568 132.361 73.749L141.409 83.592C141.455 83.6398 141.497 83.6906 141.536 83.744C141.607 83.8378 141.668 83.9382 141.719 84.044L141.734 84.069C141.756 84.12 141.778 84.169 141.797 84.221C141.841 84.3327 141.874 84.4482 141.897 84.566C141.907 84.6162 141.914 84.667 141.919 84.718V84.759C141.919 84.81 141.926 84.864 141.926 84.916" fill="black"/>
</g>
<defs>
<clipPath id="clip0_1_526">
<rect width="200.208" height="150" fill="white" transform="translate(0.5)"/>
</clipPath>
</defs>
</svg>
