<svg width="171" height="171" viewBox="0 0 171 171" fill="none" xmlns="http://www.w3.org/2000/svg">
<g clip-path="url(#clip0_1_926)">
<path d="M0.5 104.6V16.323C0.620805 16.0827 0.71793 15.8311 0.79 15.572C1.21614 12.7688 2.30102 10.1066 3.95557 7.80403C5.61012 5.50143 7.78717 3.62405 10.308 2.326C12.4064 1.38608 14.5737 0.608471 16.791 0L154.434 0C154.674 0.121618 154.925 0.21942 155.184 0.292C159.553 1.01127 163.52 3.27067 166.367 6.6613C169.214 10.0519 170.753 14.3498 170.706 18.777C170.755 46.535 170.735 74.293 170.648 102.051C170.626 104.764 170.031 107.443 168.902 109.91C165.36 117.458 159.085 120.825 150.843 120.82C116.989 120.801 83.135 120.799 49.281 120.812C39.474 120.812 29.667 120.836 19.86 120.805C11.031 120.777 3.98 115.77 1.4 107.753C1.065 106.714 0.8 105.653 0.5 104.6ZM49.248 65.614C49.013 64.927 48.848 64.529 48.741 64.114C47.5077 59.114 46.2807 54.1093 45.06 49.1C43.3747 42.21 41.688 35.3203 40 28.431C39.245 25.369 37.158 23.483 34.423 23.316C29.987 23.046 27.079 26.845 28.211 31.477C31.1977 43.6957 34.1937 55.9123 37.199 68.127C39.153 76.092 41.13 84.051 43.05 92.027C43.667 94.589 44.937 96.527 47.572 97.263C51.287 98.297 54.291 96.153 55.353 91.813C59.8197 73.5663 64.281 55.3187 68.737 37.07C69.037 35.824 69.537 35.382 70.848 35.425C74.058 35.525 77.274 35.459 80.487 35.459C99.213 35.459 117.939 35.4557 136.666 35.449C140.641 35.449 143.345 32.928 143.345 29.364C143.345 25.824 140.585 23.301 136.645 23.3C112.766 23.2927 88.8873 23.2927 65.008 23.3C61.325 23.3 59.231 24.964 58.35 28.53C57.114 33.53 55.897 38.541 54.667 43.545C52.884 50.805 51.098 58.065 49.241 65.616M101.7 61.082C97.888 57.216 94.19 53.4 90.4 49.674C89.8383 49.102 89.1689 48.6469 88.4303 48.3351C87.6918 48.0232 86.8988 47.8608 86.0971 47.8571C85.2954 47.8535 84.501 48.0087 83.7596 48.3139C83.0183 48.619 82.3447 49.068 81.7779 49.6349C81.2111 50.2018 80.7621 50.8754 80.4571 51.6168C80.1521 52.3582 79.9969 53.1526 80.0006 53.9543C80.0044 54.756 80.1669 55.549 80.4788 56.2875C80.7908 57.026 81.2459 57.6954 81.818 58.257C84.04 60.579 86.334 62.833 88.625 65.087C90.115 66.553 91.656 67.967 93.225 69.454C92.612 70.107 92.25 70.514 91.866 70.899C88.541 74.236 85.191 77.549 81.893 80.912C80.9523 81.7933 80.3223 82.9555 80.0972 84.2247C79.872 85.4939 80.0639 86.8019 80.644 87.953C81.168 89.1302 82.0758 90.095 83.219 90.6895C84.3622 91.284 85.6733 91.4731 86.938 91.226C88.3746 90.8881 89.6962 90.1764 90.769 89.163C94.495 85.631 98.06 81.929 101.74 78.237C105.452 81.957 109.04 85.574 112.654 89.168C115.421 91.921 119.181 92.091 121.67 89.611C124.212 87.079 124.07 83.397 121.286 80.584C118.051 77.314 114.786 74.07 111.544 70.81C111.167 70.432 110.822 70.022 110.236 69.379C110.774 69.0098 111.289 68.6091 111.779 68.179C115.042 64.937 118.329 61.716 121.522 58.407C122.299 57.6657 122.864 56.7312 123.161 55.6994C123.457 54.6675 123.474 53.5754 123.209 52.5348C122.945 51.4943 122.408 50.5429 121.655 49.778C120.902 49.0131 119.958 48.4623 118.922 48.182C117.823 47.8602 116.655 47.8604 115.556 48.1827C114.457 48.5049 113.473 49.1356 112.722 50C109.096 53.658 105.46 57.306 101.705 61.081" fill="#FF5A00"/>
<path d="M27.0969 170.557C25.9641 169.913 24.9059 169.146 23.9419 168.27C21.7129 165.77 22.0719 162.217 24.7119 159.8C31.9655 153.16 40.4032 147.944 49.5849 144.424C73.7809 135.07 97.9726 135.134 122.16 144.616C131.114 148.111 139.344 153.233 146.433 159.724C150.198 163.172 149.121 168.461 144.37 170.253C144.172 170.34 143.979 170.441 143.794 170.553H141.467C140.041 169.633 138.583 168.759 137.195 167.785C133.756 165.371 130.52 162.613 126.895 160.522C110.103 150.822 91.9639 147.97 72.9219 150.66C59.397 152.409 46.598 157.788 35.8829 166.224C33.9929 167.724 32.0199 169.113 30.0829 170.553L27.0969 170.557Z" fill="#FF5A00"/>
</g>
<defs>
<clipPath id="clip0_1_926">
<rect width="170.232" height="170.557" fill="white" transform="translate(0.5)"/>
</clipPath>
</defs>
</svg>
