<svg width="77" height="28" viewBox="0 0 77 28" fill="none" xmlns="http://www.w3.org/2000/svg">
<g clip-path="url(#clip0_1_930)">
<path d="M14.266 0C10.7184 0.0463117 7.32182 1.4431 4.76796 3.90592C2.21409 6.36875 0.694995 9.7124 0.52 13.256C0.52 13.337 0.51 13.408 0.51 13.479C0.5 13.691 0.5 13.9 0.5 14.117C0.533365 16.8073 1.3269 19.4334 2.789 21.692C3.43686 22.6879 4.21397 23.5935 5.1 24.385C7.60788 26.6733 10.8722 27.9552 14.267 27.985H62.743C64.9498 27.969 67.12 27.42 69.069 26.385C71.3576 25.1725 73.2624 23.3453 74.569 21.109C74.6591 20.9696 74.7396 20.8243 74.81 20.674C76.2446 18.022 76.7881 14.9789 76.3601 11.9942C75.932 9.00962 74.5552 6.24187 72.433 4.1C71.9664 3.63306 71.47 3.19682 70.947 2.794C70.786 2.672 70.616 2.551 70.447 2.429C70.106 2.196 69.754 1.983 69.393 1.771C69.212 1.671 69.021 1.579 68.841 1.477C68.2769 1.19713 67.6954 0.953963 67.1 0.749C66.9 0.678 66.7 0.617 66.5 0.557C66.167 0.457 65.836 0.375 65.5 0.3C65.058 0.209 64.6 0.128 64.144 0.077C63.6787 0.0260068 63.211 0.000302337 62.743 0L14.266 0Z" fill="url(#paint0_linear_1_930)"/>
<path opacity="0.1" d="M57.445 5.79C57.4452 6.65248 57.3682 7.51324 57.215 8.362C57.1358 8.83539 57.0255 9.30306 56.885 9.762C56.7059 10.4094 56.4752 11.0415 56.195 11.652C55.4121 13.3959 54.2943 14.969 52.905 16.282C52.575 16.582 52.235 16.882 51.875 17.152C51.755 17.2541 51.628 17.3476 51.495 17.432H51.485C51.4771 17.4499 51.4629 17.4641 51.445 17.472C49.0021 19.2324 46.0661 20.1772 43.055 20.172H42.965C40.942 20.1648 38.944 19.7249 37.105 18.882H37.095C36.2743 18.5126 35.4936 18.0603 34.765 17.532H34.755C34.7239 17.5187 34.6964 17.4982 34.675 17.472C34.1618 17.1091 33.674 16.7115 33.215 16.282C32.5681 15.6708 31.979 15.0013 31.455 14.282H31.445C30.7211 13.296 30.1294 12.2195 29.685 11.08C29.5836 10.849 29.4967 10.6119 29.425 10.37C28.9253 8.89485 28.6719 7.34749 28.675 5.79C28.675 5.29 28.705 4.79 28.745 4.3C28.8981 2.8148 29.2863 1.36336 29.895 0L56.225 0C57.0347 1.82261 57.4504 3.79564 57.445 5.79Z" fill="white"/>
<path opacity="0.1" d="M54.685 5.79V5.82C54.6883 5.9969 54.6816 6.17385 54.665 6.35C54.618 7.50131 54.392 8.63828 53.995 9.72V9.73C53.9744 9.8054 53.9476 9.87898 53.915 9.95C53.845 10.13 53.775 10.31 53.695 10.48C53.5224 10.8817 53.3254 11.2724 53.105 11.65C52.5334 12.619 51.8263 13.5012 51.005 14.27C50.1369 15.086 49.1487 15.7639 48.075 16.28C47.865 16.38 47.655 16.47 47.435 16.56C46.8991 16.7752 46.3474 16.949 45.785 17.08H45.775C44.8855 17.3022 43.9718 17.413 43.055 17.41C42.3913 17.4097 41.7289 17.3529 41.075 17.24C40.0223 17.0615 38.9993 16.7385 38.035 16.28C37.685 16.1 37.345 15.92 37.015 15.71C37.005 15.72 37.005 15.72 36.995 15.71L36.985 15.7C35.2434 14.6312 33.8124 13.1244 32.835 11.33V11.32C32.795 11.24 32.745 11.16 32.715 11.08C31.8705 9.44475 31.4315 7.63044 31.435 5.79C31.4316 5.61643 31.4383 5.44281 31.455 5.27V5.26C31.529 3.40958 32.0506 1.60469 32.975 0H53.145C54.1569 1.76167 54.688 3.75838 54.685 5.79Z" fill="white"/>
<path opacity="0.1" d="M51.925 5.79C51.925 5.98 51.915 6.16 51.905 6.35C51.8182 7.81099 51.3679 9.22718 50.595 10.47C50.5923 10.47 50.5898 10.4711 50.5879 10.4729C50.586 10.4748 50.585 10.4773 50.585 10.48C50.3223 10.8947 50.0246 11.2862 49.695 11.65C48.8229 12.6393 47.7409 13.4213 46.5279 13.9391C45.315 14.4568 44.0018 14.6971 42.6841 14.6425C41.3664 14.5879 40.0776 14.2397 38.9117 13.6233C37.7458 13.007 36.7322 12.1381 35.945 11.08C35.3153 10.2389 34.8442 9.29007 34.555 8.28C34.3131 7.47223 34.1918 6.63319 34.195 5.79C34.1886 3.66185 34.9563 1.604 36.355 0L49.765 0C50.5958 0.949853 51.21 2.06906 51.565 3.28C51.5909 3.3516 51.6109 3.42517 51.625 3.5C51.8267 4.24653 51.9276 5.0167 51.925 5.79Z" fill="white"/>
<path opacity="0.1" d="M49.165 5.79C49.1649 5.97673 49.1549 6.16333 49.135 6.349C49.0623 7.17321 48.8217 7.97382 48.4278 8.70149C48.034 9.42915 47.4953 10.0685 46.845 10.58C46.6052 10.7615 46.3548 10.9285 46.095 11.08C45.9513 11.1684 45.8008 11.2454 45.645 11.31C45.6089 11.3205 45.5751 11.3375 45.545 11.36C44.7618 11.7106 43.9131 11.8912 43.055 11.89C41.9908 11.895 40.9447 11.6154 40.025 11.08C38.7002 10.3194 37.7057 9.09324 37.235 7.64C37.049 7.04096 36.9546 6.41725 36.955 5.79C36.9545 4.51218 37.3546 3.26635 38.0991 2.22776C38.8435 1.18916 39.8947 0.41005 41.105 0L45.005 0C46.2163 0.409656 47.2689 1.18837 48.015 2.22682C48.7611 3.26527 49.1632 4.51131 49.165 5.79Z" fill="white"/>
<path d="M43.06 2.44C43.7223 2.4402 44.3697 2.63678 44.9203 3.0049C45.4709 3.37301 45.9 3.89612 46.1534 4.50809C46.4067 5.12006 46.4729 5.7934 46.3435 6.44297C46.2142 7.09255 45.8951 7.68919 45.4267 8.15746C44.9583 8.62572 44.3616 8.94458 43.712 9.07373C43.0624 9.20287 42.389 9.13649 41.7772 8.88298C41.1653 8.62947 40.6423 8.20022 40.2743 7.6495C39.9064 7.09878 39.71 6.45133 39.71 5.789C39.71 5.34912 39.7966 4.91355 39.965 4.50716C40.1334 4.10078 40.3802 3.73154 40.6912 3.42055C41.0023 3.10955 41.3716 2.86289 41.7781 2.69464C42.1845 2.5264 42.6201 2.43987 43.06 2.44Z" fill="white"/>
<path d="M5.07999 16.63V24.43C7.60123 26.6962 10.8641 27.9624 14.254 27.99H26.624C26.6361 27.997 26.65 28.0004 26.664 28V27.99H26.845L26.885 28L26.895 27.99H62.769C64.975 27.9748 67.1455 27.4332 69.1 26.41V16.63H5.07999Z" fill="url(#paint1_linear_1_930)"/>
<path d="M48.337 2.24399C48.181 2.35044 48.0528 2.49268 47.963 2.65882C47.8732 2.82496 47.8245 3.01018 47.821 3.19899C47.4423 3.29197 47.1037 3.50492 46.8559 3.80607C46.6081 4.10722 46.4643 4.48043 46.446 4.86999C46.2594 4.77187 46.0502 4.72465 45.8396 4.73308C45.6289 4.7415 45.4242 4.80528 45.246 4.918C45.2601 4.61209 45.1568 4.31235 44.9571 4.08017C44.7575 3.84798 44.4766 3.70092 44.172 3.6691C43.8674 3.63727 43.5622 3.72309 43.3188 3.90899C43.0755 4.09488 42.9124 4.36678 42.863 4.669C42.462 4.55666 42.0341 4.59101 41.6561 4.76588C41.2782 4.94074 40.975 5.24464 40.801 5.623C40.6094 5.47609 40.3675 5.41061 40.128 5.44075C39.8884 5.47088 39.6703 5.5942 39.521 5.78399C39.37 5.69449 39.1896 5.66864 39.0195 5.71215C38.8494 5.75566 38.7035 5.86496 38.614 6.01599C38.6037 6.03313 38.5943 6.05082 38.586 6.06899C38.5435 6.15692 38.5217 6.25335 38.522 6.35099H56.503C56.5031 6.29484 56.4922 6.2392 56.4708 6.18728C56.4494 6.13536 56.418 6.08817 56.3783 6.04841C56.3386 6.00866 56.2915 5.97712 56.2396 5.95559C56.1878 5.93407 56.1322 5.92299 56.076 5.92299C56.01 5.92295 55.9448 5.93819 55.8857 5.96751C55.8265 5.99683 55.775 6.03943 55.735 6.09199C55.6041 6.02495 55.4591 5.98998 55.312 5.98998C55.1649 5.98998 55.0199 6.02495 54.889 6.09199C54.8442 5.9718 54.7686 5.86549 54.6698 5.78371C54.571 5.70192 54.4525 5.64753 54.326 5.62599C54.1659 5.36635 53.9243 5.16699 53.639 5.059C53.6618 4.96572 53.6732 4.87002 53.673 4.774C53.6731 4.5684 53.6221 4.36601 53.5246 4.18502C53.4271 4.00403 53.2861 3.85013 53.1143 3.73716C52.9426 3.6242 52.7454 3.55572 52.5406 3.53789C52.3358 3.52005 52.1297 3.55342 51.941 3.63499C51.8541 3.56637 51.7506 3.52188 51.641 3.506C51.6228 3.39485 51.5892 3.28681 51.541 3.18499C51.4433 2.97213 51.2866 2.79174 51.0895 2.66519C50.8925 2.53864 50.6632 2.47125 50.429 2.47099C50.2764 2.4713 50.1252 2.49977 49.983 2.555C49.8059 2.29582 49.5332 2.11757 49.2247 2.05944C48.9162 2.00131 48.5973 2.06805 48.338 2.24499" fill="url(#paint2_linear_1_930)"/>
<path d="M27.07 5.90301C27.0235 5.89797 26.9767 5.89597 26.93 5.89701C26.707 5.89708 26.4868 5.94644 26.2852 6.04155C26.0835 6.13666 25.9053 6.27517 25.7634 6.44716C25.6215 6.61915 25.5194 6.82038 25.4644 7.03645C25.4093 7.25252 25.4027 7.47808 25.445 7.69701C25.264 7.87325 25.1544 8.11001 25.137 8.36201C24.879 8.3238 24.6155 8.3529 24.372 8.4465C24.1285 8.54009 23.9134 8.69499 23.7474 8.89619C23.5814 9.09739 23.4702 9.33807 23.4246 9.59488C23.3789 9.8517 23.4005 10.1159 23.487 10.362C23.3044 10.4626 23.1679 10.63 23.106 10.829C23.0933 10.828 23.0806 10.828 23.068 10.829C23.005 10.8291 22.9434 10.8471 22.8903 10.8809C22.8371 10.9148 22.7947 10.963 22.768 11.02C22.6996 10.9886 22.6252 10.9726 22.55 10.973C22.4745 10.9735 22.4 10.9895 22.331 11.02C22.2606 11.0516 22.1987 11.0992 22.15 11.159H48.35C48.3497 11.087 48.3268 11.0169 48.2846 10.9586C48.2425 10.9002 48.1831 10.8565 48.1149 10.8336C48.0466 10.8107 47.973 10.8097 47.9041 10.8307C47.8353 10.8518 47.7747 10.8938 47.731 10.951C47.6259 10.8973 47.5095 10.8693 47.3915 10.8693C47.2735 10.8693 47.1571 10.8973 47.052 10.951C47.0111 10.8418 46.9389 10.7472 46.8443 10.679C46.7497 10.6109 46.637 10.5723 46.5205 10.5681C46.404 10.5639 46.2889 10.5944 46.1896 10.6556C46.0904 10.7168 46.0115 10.806 45.963 10.912C45.8878 10.887 45.8092 10.8738 45.73 10.873C45.6343 10.8735 45.5395 10.8925 45.451 10.929C45.4187 10.863 45.3731 10.8043 45.3171 10.7566C45.2611 10.709 45.1958 10.6734 45.1254 10.6521C45.0551 10.6308 44.9811 10.6243 44.908 10.6328C44.835 10.6414 44.7645 10.665 44.701 10.702C44.5806 10.5502 44.4055 10.4517 44.2132 10.4277C44.0209 10.4038 43.8269 10.4563 43.673 10.574C43.5615 10.33 43.3822 10.1232 43.1565 9.97821C42.9308 9.83319 42.6683 9.75606 42.4 9.75601C42.2718 9.7565 42.1444 9.77433 42.021 9.80901C41.9736 9.57326 41.84 9.36367 41.6463 9.22121C41.4525 9.07874 41.2127 9.01365 40.9735 9.03865C40.7343 9.06366 40.5131 9.17696 40.353 9.35641C40.193 9.53586 40.1056 9.76856 40.108 10.009C39.9537 9.91318 39.7756 9.86259 39.594 9.86301C39.4393 9.86265 39.2869 9.90007 39.15 9.97201C39.134 9.65931 39.0175 9.36013 38.8179 9.1189C38.6183 8.87767 38.3462 8.70727 38.042 8.63301C38.0377 8.43184 37.9697 8.23722 37.8477 8.07721C37.7257 7.9172 37.556 7.80005 37.3632 7.74266C37.1703 7.68527 36.9642 7.6906 36.7746 7.75788C36.5849 7.82515 36.4216 7.95091 36.308 8.11701C36.1941 8.07168 36.0726 8.04827 35.95 8.04801C35.7619 8.04858 35.5779 8.10304 35.4198 8.20495C35.2617 8.30685 35.1362 8.45193 35.058 8.62301C34.9802 8.53509 34.8846 8.46475 34.7775 8.41664C34.6705 8.36854 34.5544 8.34378 34.437 8.34401C34.3812 8.34416 34.3256 8.34986 34.271 8.36101C34.2523 8.10376 34.1369 7.86313 33.9481 7.68745C33.7593 7.51178 33.5109 7.41409 33.253 7.41401C33.2534 7.2146 33.2144 7.01707 33.1382 6.83278C33.0621 6.64848 32.9503 6.48105 32.8092 6.34009C32.6682 6.19913 32.5006 6.08742 32.3163 6.01139C32.132 5.93535 31.9344 5.89648 31.735 5.89701H31.687C31.517 5.41969 31.2034 5.00675 30.7892 4.71496C30.375 4.42316 29.8805 4.26685 29.3739 4.2675C28.8672 4.26816 28.3732 4.42576 27.9597 4.71863C27.5463 5.0115 27.2337 5.42525 27.065 5.90301" fill="url(#paint3_linear_1_930)"/>
<path d="M63.684 4.98C63.3401 5.10145 63.0277 5.29816 62.7696 5.55576C62.5115 5.81337 62.3141 6.12538 62.192 6.469H62.144C61.7432 6.46926 61.359 6.62851 61.0755 6.91179C60.792 7.19507 60.6325 7.57925 60.632 7.98C60.3741 7.98057 60.1258 8.07856 59.9371 8.25435C59.7483 8.43014 59.6329 8.67075 59.614 8.928C59.5594 8.9169 59.5038 8.91121 59.448 8.911C59.3306 8.91051 59.2144 8.93516 59.1073 8.98328C59.0002 9.0314 58.9046 9.10189 58.827 9.19C58.7488 9.01904 58.6232 8.8741 58.4651 8.77236C58.307 8.67062 58.123 8.61636 57.935 8.616C57.8125 8.61541 57.691 8.63814 57.577 8.683C57.4633 8.51677 57.2998 8.39097 57.11 8.32375C56.9201 8.25653 56.7139 8.25136 56.5209 8.309C56.328 8.36664 56.1583 8.4841 56.0365 8.64443C55.9146 8.80476 55.8469 8.99966 55.843 9.201C55.5388 9.27492 55.2667 9.44509 55.067 9.68618C54.8674 9.92727 54.7509 10.2264 54.735 10.539C54.5981 10.467 54.4457 10.4292 54.291 10.429C54.1092 10.4293 53.9311 10.4806 53.777 10.577C53.7769 10.338 53.6883 10.1075 53.5283 9.93002C53.3683 9.75251 53.1482 9.64052 52.9106 9.61567C52.6729 9.59082 52.4344 9.65487 52.2411 9.79545C52.0479 9.93604 51.9135 10.1432 51.864 10.377C51.5427 10.2866 51.1996 10.314 50.8967 10.4543C50.5938 10.5946 50.3509 10.8385 50.212 11.142C50.058 11.0244 49.8639 10.9721 49.6716 10.9962C49.4793 11.0203 49.3042 11.119 49.184 11.271C49.1027 11.2216 49.0091 11.196 48.914 11.197C48.8139 11.1968 48.7157 11.2248 48.6308 11.2779C48.5459 11.3309 48.4777 11.4069 48.434 11.497C48.3451 11.4607 48.25 11.4421 48.154 11.442C48.0751 11.4416 47.9967 11.4544 47.922 11.48C47.8898 11.4095 47.844 11.3461 47.7872 11.2934C47.7305 11.2406 47.6639 11.1996 47.5913 11.1725C47.5187 11.1455 47.4414 11.1331 47.364 11.1359C47.2866 11.1387 47.2105 11.1568 47.14 11.189C46.9989 11.2547 46.8888 11.3727 46.833 11.518C46.7279 11.4643 46.6115 11.4363 46.4935 11.4363C46.3755 11.4363 46.2591 11.4643 46.154 11.518C46.1108 11.4585 46.0496 11.4144 45.9796 11.3921C45.9095 11.3697 45.8341 11.3704 45.7644 11.394C45.6947 11.4175 45.6344 11.4628 45.5922 11.523C45.5501 11.5833 45.5283 11.6555 45.53 11.729H71.736C71.6873 11.6692 71.6254 11.6216 71.555 11.59C71.4864 11.5582 71.4116 11.5418 71.336 11.542C71.2606 11.5409 71.186 11.5574 71.118 11.59C71.0916 11.5327 71.0493 11.4841 70.9961 11.4501C70.943 11.416 70.8811 11.398 70.818 11.398H70.78C70.7181 11.199 70.5815 11.0316 70.399 10.931C70.4868 10.6849 70.5092 10.4203 70.4641 10.1629C70.4189 9.90556 70.3078 9.66433 70.1415 9.46279C69.9753 9.26125 69.7595 9.1063 69.5155 9.01309C69.2714 8.91987 69.0073 8.89159 68.749 8.931C68.7314 8.67905 68.6218 8.44236 68.441 8.266C68.459 8.17139 68.468 8.0753 68.468 7.979C68.4675 7.57825 68.308 7.19407 68.0245 6.91079C67.741 6.62751 67.3568 6.46826 66.956 6.468C66.9093 6.46694 66.8625 6.46894 66.816 6.474C66.7095 6.16942 66.5438 5.88889 66.3286 5.64851C66.1133 5.40813 65.8527 5.21264 65.5617 5.07326C65.2706 4.93388 64.955 4.85337 64.6327 4.83633C64.3105 4.8193 63.9881 4.86608 63.684 4.974" fill="url(#paint4_linear_1_930)"/>
<path d="M13.6 2.869C13.4201 2.8691 13.2441 2.9209 13.0929 3.01824C12.9416 3.11558 12.8216 3.25434 12.747 3.418C12.7114 3.49587 12.6868 3.57833 12.674 3.663C12.5897 3.67493 12.5102 3.70949 12.444 3.763C12.282 3.69473 12.1044 3.67254 11.9306 3.69887C11.7568 3.72519 11.5937 3.79901 11.4592 3.91218C11.3247 4.02534 11.2241 4.17346 11.1685 4.34018C11.1129 4.50691 11.1044 4.68575 11.144 4.857C10.925 4.93965 10.7396 5.09265 10.617 5.292C10.5202 5.30916 10.4294 5.35118 10.3537 5.41393C10.278 5.47669 10.2198 5.55803 10.185 5.65C10.0843 5.59872 9.97296 5.57199 9.85999 5.57199C9.74702 5.57199 9.63565 5.59872 9.53499 5.65C9.50414 5.60983 9.46447 5.57731 9.41904 5.55494C9.3736 5.53257 9.32363 5.52095 9.27299 5.521L9.26699 5.515C9.22365 5.51513 9.18077 5.52379 9.14078 5.5405C9.10079 5.5572 9.06449 5.58162 9.03394 5.61236C9.00339 5.64309 8.97919 5.67955 8.96273 5.71963C8.94626 5.75972 8.93786 5.80266 8.93799 5.846H22.738C22.7389 5.77072 22.7229 5.6962 22.691 5.628C22.6501 5.54085 22.5852 5.46719 22.5039 5.41564C22.4226 5.3641 22.3283 5.33681 22.232 5.337C22.141 5.33699 22.0516 5.36114 21.973 5.407C21.8589 5.26066 21.6914 5.16561 21.5072 5.14273C21.3231 5.11986 21.1374 5.17103 20.991 5.285C20.8841 5.0503 20.7117 4.85142 20.4946 4.71219C20.2775 4.57296 20.0249 4.49929 19.767 4.5C19.6447 4.50027 19.523 4.51675 19.405 4.549C19.3567 4.32624 19.2279 4.12916 19.0432 3.99554C18.8586 3.86193 18.6311 3.8012 18.4044 3.82499C18.1777 3.84879 17.9678 3.95544 17.8149 4.12449C17.6621 4.29353 17.577 4.51307 17.576 4.741C17.4393 4.65565 17.2828 4.60744 17.1218 4.60112C16.9608 4.59481 16.8009 4.63061 16.658 4.705C16.6428 4.40645 16.5316 4.12079 16.341 3.89052C16.1503 3.66025 15.8904 3.49768 15.6 3.427C15.5955 3.18914 15.4979 2.96253 15.3281 2.7959C15.1583 2.62928 14.9299 2.53595 14.692 2.536C14.5746 2.70728 14.4025 2.83356 14.2039 2.89407C14.0052 2.95459 13.7919 2.94574 13.599 2.869" fill="url(#paint5_linear_1_930)"/>
<path d="M7.56799 17.649H58.637C38.586 17.649 32.97 10.464 29.778 10.464C27.178 10.464 20.396 17.649 7.56799 17.649Z" fill="url(#paint6_linear_1_930)"/>
<path d="M3.87 11.619C3.84 11.639 3.81 11.649 3.78 11.669C3.73 11.699 3.68 11.719 3.63 11.749C3.62 11.759 3.61 11.759 3.59 11.769C3.51 11.809 3.43 11.859 3.34 11.899L3.33 11.909C3.29 11.929 3.24 11.959 3.19 11.979C3.14 11.999 3.11 12.029 3.06 12.049L3.04 12.059C3.02 12.069 3.01 12.079 2.99 12.079L2.97 12.089C2.2 12.489 1.38 12.879 0.52 13.289C0.52 13.369 0.51 13.439 0.51 13.509C0.5 13.719 0.5 13.929 0.5 14.139C0.53372 16.7983 1.32461 19.393 2.78 21.619C3.56 21.729 4.33 21.829 5.08 21.909C7.29861 22.2019 9.53238 22.3655 11.77 22.399C11.9 22.399 12.03 22.399 12.15 22.389C12.47 22.379 12.77 22.369 13.04 22.339C13.1237 22.3377 13.2072 22.331 13.29 22.319H13.3C13.38 22.309 13.44 22.299 13.51 22.289C13.6587 22.2747 13.8058 22.248 13.95 22.209C14.0245 22.1982 14.0981 22.1815 14.17 22.159C14.22 22.149 14.26 22.139 14.3 22.129H14.31L14.37 22.099C14.3944 22.097 14.4182 22.0902 14.44 22.079C14.4918 22.0598 14.542 22.0364 14.59 22.009H14.6C14.6709 21.9805 14.738 21.9436 14.8 21.899C14.89 21.839 14.99 21.779 15.09 21.709C15.162 21.6763 15.2321 21.6396 15.3 21.599L15.36 21.569C15.47 21.509 15.59 21.449 15.71 21.389C15.77 21.369 15.83 21.339 15.89 21.319C15.9 21.309 15.91 21.299 15.92 21.299C15.9581 21.2781 15.9983 21.2614 16.04 21.249C16.0909 21.223 16.1446 21.2029 16.2 21.189C16.228 21.1715 16.2583 21.1581 16.29 21.149C16.68 20.999 17.09 20.869 17.51 20.749L17.74 20.689H17.75C17.754 20.6852 17.7587 20.6824 17.7639 20.6806C17.7691 20.6789 17.7746 20.6783 17.78 20.679L17.9 20.649C17.9 20.639 17.91 20.639 17.92 20.639C17.97 20.629 18.03 20.609 18.08 20.599C18.34 20.539 18.59 20.479 18.85 20.429C18.93 20.409 19.01 20.399 19.09 20.379C19.1 20.379 19.11 20.369 19.13 20.369C19.1974 20.3595 19.2642 20.3462 19.33 20.329H19.36C19.4177 20.3204 19.4745 20.307 19.53 20.289H19.54C19.77 20.249 20 20.209 20.22 20.179C23 19.729 25.15 19.669 23.21 19.119C21.01 18.489 19.03 18.039 28.84 17.819C29.18 17.809 29.53 17.809 29.9 17.799C30.08 17.799 30.26 17.789 30.45 17.789L32.26 17.759L34.57 17.729H34.58C35.33 17.719 36.11 17.719 36.94 17.709C37.38 17.699 37.83 17.699 38.29 17.699C38.89 17.689 39.51 17.689 40.15 17.679C40.2135 17.6776 40.277 17.6809 40.34 17.689C40.34 17.689 40.35 17.699 40.35 17.689C40.413 17.6807 40.4765 17.6773 40.54 17.679C41.27 17.679 42.02 17.669 42.79 17.669H53.72C53.13 17.669 52.56 17.659 51.99 17.649C51.76 17.649 51.54 17.639 51.31 17.629H51.3C51.09 17.629 50.89 17.619 50.68 17.609C50.2 17.599 49.72 17.579 49.25 17.549C48.78 17.519 48.3 17.499 47.83 17.459C47.45 17.439 47.07 17.409 46.7 17.379C46.33 17.349 45.96 17.319 45.6 17.279H45.59C45.12 17.239 44.66 17.189 44.2 17.129C44.01 17.109 43.82 17.089 43.63 17.059C43.2 17.009 42.77 16.959 42.36 16.899C42.2727 16.8906 42.1858 16.8772 42.1 16.859H42.09C41.29 16.749 40.5 16.619 39.73 16.479C39.42 16.429 39.11 16.369 38.8 16.309C38.42 16.249 38.05 16.169 37.68 16.089C37.5381 16.0686 37.3978 16.0385 37.26 15.999C37.12 15.979 36.98 15.949 36.84 15.919C36.8373 15.919 36.8348 15.9179 36.8329 15.9161C36.8311 15.9142 36.83 15.9116 36.83 15.909C36.82 15.919 36.82 15.919 36.81 15.909C36.7 15.889 36.59 15.859 36.49 15.839C36.1 15.759 35.73 15.669 35.36 15.579C34.88 15.469 34.41 15.349 33.95 15.229C33.03 14.999 32.13 14.749 31.27 14.479H31.26C30.73 14.319 30.22 14.159 29.72 13.999C29.675 13.9916 29.6313 13.9782 29.59 13.959C28.64 13.649 27.72 13.329 26.85 13.019C26.37 12.839 25.91 12.669 25.46 12.499H25.45C25.19 12.389 24.93 12.289 24.68 12.189C24.57 12.139 24.45 12.099 24.34 12.049C23.94 11.899 23.56 11.739 23.19 11.579C22.95 11.479 22.71 11.379 22.48 11.279C22.38 11.229 22.28 11.189 22.18 11.149C21.6 10.899 21.05 10.659 20.52 10.419C20.11 10.239 19.71 10.059 19.33 9.87899C17.74 9.15899 16.38 8.53899 15.24 8.09899C15.07 8.02899 14.89 7.95899 14.73 7.90899C14.57 7.85899 14.41 7.78899 14.25 7.73899H14.23C14.08 7.68899 13.93 7.64899 13.79 7.60899C13.5212 7.53237 13.2471 7.47555 12.97 7.43899C12.851 7.41908 12.7306 7.40904 12.61 7.40899C12.5671 7.40106 12.5236 7.39771 12.48 7.39899C10.84 7.39899 8.05 9.38899 3.87 11.619Z" fill="url(#paint7_linear_1_930)"/>
<path opacity="0.1" d="M12.586 7.34599C17.15 7.34599 29.186 17.615 53.833 17.615H42.899C36.699 17.638 32.185 17.688 28.951 17.76C22.49 17.26 16.369 11.36 15.951 10.566C15.533 9.77199 20.616 12.01 19.98 11.099C19.344 10.188 13.842 7.34599 12.586 7.34599Z" fill="url(#paint8_linear_1_930)"/>
<path d="M55.37 9.68C55.3623 9.68073 55.3552 9.6843 55.35 9.69C55.323 9.68838 55.2958 9.69177 55.27 9.7C55.2228 9.70244 55.176 9.70913 55.13 9.72C55.0183 9.74318 54.9081 9.77324 54.8 9.81H54.79C54.66 9.85 54.52 9.91 54.38 9.96C54.3 9.99 54.21 10.03 54.12 10.07V10.08C53.9961 10.1319 53.8759 10.1921 53.76 10.26C53.72 10.28 53.68 10.3 53.63 10.32C53.5579 10.3562 53.4878 10.3963 53.42 10.44C53.24 10.53 53.06 10.63 52.87 10.74C52.31 11.06 51.68 11.45 51 11.9C50.949 11.9369 50.8955 11.9703 50.84 12H50.83C49.89 12.6 48.85 13.28 47.72 13.99C47.15 14.34 46.55 14.7 45.93 15.07C45.31 15.44 44.68 15.8 44.02 16.16H44.01C43.72 16.32 43.43 16.48 43.13 16.63C42.89 16.76 42.65 16.88 42.41 17.01H42.4C42.01 17.21 41.61 17.4 41.2 17.59C41.04 17.67 40.86 17.75 40.69 17.82L40.68 17.83C40.68 17.84 40.67 17.83 40.67 17.83L40.66 17.84C40.66 17.85 40.65 17.84 40.65 17.84C40.639 17.8505 40.625 17.8575 40.61 17.86C40.11 18.09 39.59 18.31 39.07 18.53C39.02 18.55 38.97 18.57 38.91 18.59C38.37 18.81 37.82 19.02 37.26 19.21C37.2561 19.2169 37.2502 19.2225 37.2431 19.2261C37.2359 19.2297 37.2279 19.231 37.22 19.23C36.79 19.39 36.36 19.53 35.92 19.66C35.67 19.74 35.42 19.82 35.17 19.89C34.81 20 34.46 20.09 34.1 20.18C33.74 20.27 33.38 20.36 33.02 20.44C32.16 20.63 31.29 20.79 30.4 20.92C29.95 20.98 29.5 21.03 29.04 21.07C28.67 21.11 28.3 21.13 27.92 21.15L27.42 21.18C27.04 21.19 26.65 21.2 26.26 21.2C26.95 21.2 27.62 21.2 28.27 21.21C29.26 21.21 30.21 21.22 31.12 21.24C31.67 21.25 32.21 21.27 32.74 21.28C32.97 21.28 33.21 21.29 33.43 21.3C33.54 21.3 33.64 21.31 33.75 21.31L37.49 21.47L39.63 21.62H39.65C45.13 22.05 47.25 22.8 44.63 23.71L44.54 23.74C44.51 23.75 44.49 23.76 44.46 23.77C44.4324 23.7719 44.4053 23.7787 44.38 23.79C44.31 23.81 44.25 23.84 44.17 23.86H44.15C44.14 23.86 44.14 23.86 44.13 23.87C44.12 23.88 44.09 23.88 44.07 23.89C44.05 23.9 44.05 23.89 44.05 23.9C43.94 23.93 43.85 23.96 43.76 23.99C43.7033 23.9994 43.6489 24.0198 43.6 24.05H43.59C42.63 24.4 42.69 24.68 43.36 24.93C43.4176 24.9434 43.4743 24.9601 43.53 24.98C43.58 25 43.63 25.01 43.69 25.03C43.72 25.04 43.75 25.04 43.78 25.05H43.79C43.85 25.07 43.9 25.09 43.97 25.11H43.98C44.0282 25.1103 44.0759 25.1205 44.12 25.14C44.25 25.16 44.39 25.19 44.54 25.22C44.579 25.2315 44.6193 25.2382 44.66 25.24L44.7 25.25C44.75 25.26 44.8 25.27 44.86 25.28H44.87C44.99 25.3 45.11 25.32 45.24 25.34L45.38 25.37H45.39C45.47 25.38 45.55 25.39 45.64 25.41H45.7L46.09 25.47C46.1158 25.4782 46.143 25.4816 46.17 25.48H46.18C46.27 25.5 46.36 25.51 46.45 25.53H46.46C46.5337 25.5322 46.6072 25.5388 46.68 25.55C46.91 25.59 47.15 25.62 47.39 25.64C47.49 25.66 47.59 25.67 47.69 25.69C47.79 25.71 47.91 25.71 48.02 25.73C48.0738 25.7317 48.1274 25.7384 48.18 25.75H48.21C48.35 25.77 48.47 25.79 48.61 25.8C48.6661 25.811 48.7229 25.8177 48.78 25.82H48.81C48.95 25.85 49.09 25.86 49.23 25.88C49.25 25.88 49.28 25.89 49.3 25.89C49.35 25.9 49.39 25.9 49.44 25.91C49.484 25.9118 49.5276 25.9185 49.57 25.93H49.58C49.6438 25.9312 49.7074 25.9379 49.77 25.95C49.79 25.95 49.8 25.96 49.82 25.96H49.83C49.94 25.97 50.05 25.99 50.15 26L50.19 26.01C50.23 26.01 50.27 26.02 50.31 26.02H50.32C50.8 26.09 51.26 26.15 51.71 26.23H51.72C51.794 26.2344 51.8675 26.2444 51.94 26.26C52.8737 26.3743 53.7923 26.5889 54.68 26.9C57.62 28.14 67.5 21.2 67.5 21.2H74.58C74.6697 21.0623 74.7499 20.9186 74.82 20.77C72.8209 20.3042 70.896 19.5639 69.1 18.57C68.23 18.09 67.39 17.58 66.58 17.05C66.47 16.98 66.36 16.9 66.25 16.83C66.16 16.76 66.06 16.7 65.97 16.64C65.97 16.6387 65.9698 16.6374 65.9692 16.6362C65.9687 16.635 65.968 16.6339 65.9671 16.6329C65.9662 16.632 65.965 16.6313 65.9638 16.6308C65.9626 16.6303 65.9613 16.63 65.96 16.63C65.88 16.58 65.8 16.52 65.72 16.47C65.63 16.4 65.54 16.34 65.45 16.28C65.36 16.22 65.27 16.15 65.19 16.09L65.1 16.03L65.09 16.02L65 15.96C64.9859 15.9437 64.969 15.9302 64.95 15.92H64.94C64.9 15.89 64.87 15.86 64.83 15.83C64.77 15.79 64.72 15.75 64.67 15.71C64.45 15.56 64.23 15.4 64.02 15.24L64.01 15.23C63.991 15.2198 63.9741 15.2063 63.96 15.19L63.6 14.92C63.5643 14.8964 63.5308 14.8697 63.5 14.84C63.44 14.8 63.38 14.75 63.32 14.71L63.31 14.7L63.19 14.61H63.18C63.1659 14.5937 63.149 14.5802 63.13 14.57C63.12 14.55 63.11 14.55 63.1 14.54C63.0948 14.5343 63.0877 14.5307 63.08 14.53C63.0451 14.4938 63.0046 14.4634 62.96 14.44C62.9325 14.4136 62.9024 14.3902 62.87 14.37C61.77 13.52 60.76 12.7 59.84 12C58.9569 11.2842 58.0095 10.6515 57.01 10.11C56.5498 9.85154 56.0369 9.70109 55.51 9.67C55.4631 9.66869 55.4162 9.67204 55.37 9.68Z" fill="url(#paint9_linear_1_930)"/>
<path d="M7.66 12.98C7.02028 13.0271 6.39559 13.1968 5.82 13.48C5.78 13.5 5.73 13.52 5.68 13.55H5.67C5.6264 13.5618 5.58559 13.5822 5.55 13.61H5.54C5.53458 13.6093 5.52907 13.6099 5.52388 13.6116C5.51869 13.6134 5.51395 13.6162 5.51 13.62C5.42 13.66 5.32 13.7 5.22 13.75C4.98 13.87 4.72 13.99 4.45 14.14C4.39 14.17 4.32 14.2 4.25 14.24C4.18 14.28 4.08 14.33 3.99 14.38C3.95157 14.3925 3.91467 14.4092 3.88 14.43C3.87 14.44 3.85 14.45 3.84 14.46C3.78 14.49 3.72 14.52 3.65 14.56C3.38 14.71 3.09 14.86 2.8 15.02L2.65 15.11C2.49 15.2 2.34 15.29 2.18 15.36L2.17 15.37C1.69 15.65 1.19 15.94 0.660004 16.23C0.954586 18.2091 1.67813 20.0998 2.78 21.77C3.42556 22.7546 4.19898 23.649 5.08 24.43C7.58474 26.6946 10.8334 27.9613 14.21 27.99H16.57C16.65 27.33 18.04 26.76 20.15 26.3L20.28 26.27C20.342 26.2509 20.4056 26.2375 20.47 26.23C20.5785 26.1999 20.6887 26.1765 20.8 26.16C20.86 26.15 20.92 26.13 20.99 26.12C21.17 26.09 21.34 26.05 21.54 26.01H21.58C21.6607 26.0015 21.7409 25.9882 21.82 25.97C21.8607 25.9682 21.901 25.9615 21.94 25.95C22.04 25.94 22.14 25.92 22.24 25.9C22.2807 25.8982 22.321 25.8915 22.36 25.88H22.37C22.4074 25.8782 22.4444 25.8715 22.48 25.86C22.5371 25.8577 22.5939 25.851 22.65 25.84C22.74 25.83 22.83 25.81 22.92 25.8C22.96 25.79 23 25.79 23.05 25.78L23.69 25.69C23.72 25.69 23.75 25.68 23.78 25.68L24.03 25.65L24.24 25.62C24.72 25.56 25.22 25.51 25.72 25.45C25.757 25.4516 25.794 25.4483 25.83 25.44C25.91 25.43 25.98 25.43 26.06 25.42H26.07C26.09 25.42 26.11 25.41 26.14 25.41H26.16C26.22 25.4 26.29 25.4 26.36 25.39C26.39 25.39 26.42 25.38 26.45 25.38C26.523 25.3717 26.5965 25.3683 26.67 25.37C26.6993 25.3617 26.7297 25.3584 26.76 25.36C26.96 25.33 27.16 25.31 27.36 25.3C27.3994 25.2917 27.4397 25.2884 27.48 25.29C27.5628 25.278 27.6463 25.2713 27.73 25.27H27.74C27.74 25.27 27.74 25.26 27.75 25.27H27.76C27.8 25.27 27.83 25.26 27.88 25.26H27.9C27.97 25.25 28.05 25.25 28.13 25.24H28.24C29.94 25.11 31.68 25.03 33.34 24.99C33.85 24.98 34.37 24.98 34.89 24.98C34.51 24.98 34.13 24.97 33.76 24.95C33.45 24.93 33.14 24.91 32.84 24.88C32.54 24.85 32.25 24.82 31.96 24.77C31.9092 24.7732 31.8582 24.7664 31.81 24.75C31.65 24.74 31.5 24.71 31.35 24.69C31.2456 24.6758 31.1421 24.6557 31.04 24.63C30.8 24.6 30.58 24.55 30.35 24.5C28.2841 24.0669 26.2744 23.3992 24.36 22.51C24 22.35 23.64 22.17 23.29 22C23 21.86 22.71 21.71 22.43 21.56C21.67 21.17 20.93 20.76 20.22 20.33C20.01 20.21 19.8 20.08 19.6 19.95C18.44 19.25 17.34 18.52 16.31 17.82C15.88 17.53 15.46 17.24 15.06 16.96C14.89 16.85 14.74 16.74 14.58 16.63C14.23 16.38 13.88 16.14 13.55 15.92C13.38 15.8 13.22 15.69 13.05 15.58C12.74 15.37 12.44 15.17 12.16 14.98C11.88 14.79 11.6 14.61 11.33 14.45C10.91 14.2 10.51 13.97 10.14 13.77C9.79212 13.5812 9.4312 13.4174 9.06 13.28C8.92935 13.226 8.79581 13.1793 8.66 13.14H8.65C8.57606 13.1107 8.49883 13.0906 8.42 13.08C8.24342 13.0322 8.06254 13.0021 7.88 12.99C7.82038 12.9817 7.76018 12.9783 7.7 12.98H7.66Z" fill="url(#paint10_linear_1_930)"/>
<path opacity="0.1" d="M50.256 14.075C53.377 12.992 47.029 19.895 39.486 21.475C36.16 21.211 31.604 21.063 26.123 21.063C41.245 21.063 52.048 9.53799 55.37 9.53799C53.888 9.53799 47.13 15.156 50.252 14.075" fill="url(#paint11_linear_1_930)"/>
<path opacity="0.1" d="M7.66601 12.977C12.133 12.977 21.817 24.977 34.888 24.977C29.8837 24.9429 24.8881 25.397 19.972 26.333C16.6867 23.9056 13.9022 20.8654 11.772 17.38C11.217 16.065 16.165 20.136 15.772 19.053C15.379 17.97 9.68501 12.979 7.66101 12.979L7.66601 12.977Z" fill="url(#paint12_linear_1_930)"/>
<path d="M58.578 17.034L58.798 16.984L58.348 17.604L58.568 17.554L58.498 17.684L58.678 17.624L58.198 18.284L58.468 18.224L58.378 18.384L58.538 18.334L58.168 18.844L57.698 18.204L57.888 18.264L57.808 18.124L58.058 18.174L57.548 17.484L57.808 17.544L57.218 16.754L56.628 17.544L56.898 17.484L56.388 18.174L56.628 18.124L56.548 18.264L56.748 18.204L56.208 18.934L56.508 18.874L56.408 19.044L56.578 18.994L55.908 19.904L56.298 19.814L56.168 20.054L56.398 19.984L55.608 21.054L56.078 20.954L55.918 21.234L56.278 21.124L55.418 22.294L55.098 21.854L55.298 21.914L55.188 21.704L55.528 21.784L54.928 20.964L55.078 21.014L54.988 20.854L55.258 20.914L54.778 20.264L54.958 20.314L54.888 20.184L55.108 20.234L54.648 19.614L54.878 19.664L54.358 18.954L53.828 19.664L54.068 19.614L53.608 20.234L53.828 20.184L53.758 20.314L53.928 20.264L53.728 20.544L53.388 20.054L53.588 20.114L53.508 19.964L53.748 20.024L53.238 19.294L53.508 19.354L52.928 18.514L52.358 19.354L52.618 19.294L52.118 20.024L52.358 19.964L52.278 20.114L52.468 20.054L51.948 20.824L52.228 20.754L52.138 20.934L52.308 20.874L51.648 21.844L52.028 21.754L51.908 21.994L52.128 21.924L51.408 22.974L51.078 22.524L51.238 22.574L51.168 22.444L51.388 22.494L50.948 21.904L51.168 21.954L50.668 21.274L50.168 21.954L50.388 21.904L49.948 22.494L50.158 22.444L50.088 22.574L50.258 22.524L49.798 23.144L50.048 23.094L49.968 23.234L50.118 23.194L49.538 23.974L49.878 23.894L49.768 24.104L49.958 24.044L49.658 24.454L49.268 23.874L49.438 23.934L49.348 23.754L49.628 23.824L49.118 23.084L49.308 23.144L49.228 22.994L49.458 23.044L48.978 22.344L49.218 22.404L48.668 21.594L48.108 22.404L48.358 22.344L47.878 23.044L48.118 22.994L48.038 23.144L48.218 23.084L47.718 23.824L47.998 23.754L47.908 23.934L48.068 23.884L47.428 24.814L47.788 24.724L47.668 24.964L47.898 24.884L47.148 25.994L47.588 25.884L47.448 26.164L47.788 26.054L46.938 27.294L46.648 26.914L46.948 27.004L46.818 26.774L47.208 26.864L46.548 25.974L46.748 26.034L46.648 25.844L46.958 25.914L46.398 25.164L46.548 25.204L46.468 25.064L46.708 25.114L46.258 24.514L46.428 24.564L46.368 24.454L46.568 24.494L46.148 23.924L46.358 23.974L45.878 23.324L45.398 23.974L45.608 23.924L45.188 24.494L45.388 24.454L45.328 24.564L45.498 24.514L45.048 25.114L45.288 25.064L45.208 25.204L45.358 25.164L44.988 25.654L44.708 25.234L44.878 25.294L44.788 25.114L45.068 25.184L44.578 24.444L44.748 24.504L44.668 24.344L44.898 24.404L44.428 23.694L44.668 23.754L44.128 22.934L43.578 23.754L43.828 23.694L43.348 24.404L43.588 24.344L43.508 24.504L43.678 24.444L43.188 25.184L43.458 25.114L43.368 25.294L43.548 25.234L42.908 26.194L43.258 26.104L43.148 26.334L43.368 26.264L42.628 27.374L43.068 27.264L42.928 27.554L43.258 27.444L42.908 27.974H45.348L45.328 27.934L45.888 27.764L46.588 27.974H47.038L46.978 27.864L47.428 27.964L46.968 27.344L47.418 27.234L47.248 27.574L48.668 27.114L50.098 27.574L49.928 27.234L50.448 27.364L49.658 26.204L49.848 26.144L49.898 26.164L49.888 26.134L50.668 25.904L51.958 26.284L51.808 26.004L52.278 26.114L51.468 25.024L51.778 25.114L51.648 24.874L52.048 24.964L51.768 24.594L52.928 24.214L54.408 24.694L54.238 24.354L54.768 24.484L54.308 23.814L54.358 23.794L55.708 24.194L55.548 23.904L56.038 24.014L55.188 22.864L55.518 22.964L55.378 22.714L55.808 22.814L55.478 22.374L55.888 22.284L55.708 22.604L57.218 22.154L58.728 22.604L58.548 22.284L59.098 22.404L58.358 21.394L59.108 21.174L60.458 21.574L60.298 21.284L60.788 21.394L59.938 20.244L60.268 20.344L60.128 20.094L60.558 20.184L59.848 19.224L60.048 19.284L59.938 19.084L60.288 19.164L59.678 18.334L59.828 18.384L59.738 18.224L60.008 18.284L59.528 17.634L59.698 17.684L59.628 17.554L59.858 17.604L59.398 16.984L59.628 17.034L59.098 16.324L58.578 17.034Z" fill="url(#paint13_linear_1_930)"/>
<path d="M69.128 9.23399L68.608 9.93399L68.838 9.88399L68.388 10.494L68.598 10.444L68.528 10.574L68.708 10.524L68.228 11.174L68.488 11.114L68.408 11.264L68.558 11.224L67.958 12.034L68.298 11.954L68.188 12.154L68.408 12.094L67.688 13.054L68.118 12.954L67.978 13.214L68.298 13.114L67.728 13.884L67.468 13.524L67.628 13.574L67.548 13.424L67.808 13.484L67.328 12.834L67.508 12.884L67.438 12.764L67.648 12.804L67.198 12.204L67.428 12.254L66.908 11.544L66.388 12.254L66.608 12.204L66.158 12.804L66.378 12.754L66.308 12.884L66.488 12.834L66.008 13.484L66.268 13.424L66.188 13.574L66.348 13.524L66.068 13.904L65.798 13.534L65.978 13.574L65.568 13.014L65.158 13.574L65.338 13.534L64.978 14.014L65.148 13.974L65.098 14.074L65.238 14.034L64.868 14.534L65.068 14.494L64.998 14.614L65.128 14.574L64.648 15.214L64.918 15.154L64.828 15.314L64.988 15.264L64.438 16.014L64.778 15.934L64.668 16.134L64.918 16.054L64.458 16.684L64.068 16.144L64.258 16.204L64.158 16.024L64.478 16.094L63.898 15.304L64.058 15.354L63.978 15.204L64.228 15.264L63.778 14.654L63.938 14.704L63.868 14.574L64.078 14.624L63.648 14.044L63.878 14.094L63.378 13.424L62.878 14.094L63.098 14.044L62.668 14.624L62.878 14.574L62.808 14.704L62.978 14.654L62.518 15.264L62.768 15.204L62.688 15.354L62.848 15.304L62.428 15.884L62.068 15.394L62.268 15.444L61.828 14.854L61.388 15.444L61.588 15.404L61.198 15.914L61.388 15.874L61.328 15.984L61.468 15.944L61.068 16.484L61.288 16.434L61.218 16.564L61.358 16.524L60.848 17.214L61.128 17.154L61.038 17.314L61.208 17.264L60.618 18.064L60.978 17.984L60.858 18.194L61.128 18.114L60.418 19.074L60.828 18.984L60.698 19.224L61.828 18.884L62.958 19.224L62.828 18.984L63.238 19.074L62.598 18.214L62.738 18.174L62.798 18.194L62.778 18.164L63.378 17.984L64.648 18.364L64.498 18.094L64.958 18.194L64.158 17.114L64.468 17.204L64.338 16.964L64.558 17.014L64.518 17.094L64.688 17.044L64.738 17.054L64.718 17.034L65.568 16.774L66.618 17.094L66.488 16.864L66.878 16.954L66.518 16.464L66.908 16.344L68.248 16.744L68.088 16.454L68.578 16.564L67.738 15.434L68.058 15.524L67.918 15.274L68.338 15.364L67.638 14.414L67.838 14.474L67.808 14.414L68.058 14.344H68.068L69.128 14.024L70.468 14.424L70.318 14.144L70.798 14.254L69.958 13.114L70.278 13.214L70.138 12.954L70.568 13.054L69.848 12.094L70.068 12.154L69.958 11.954L70.298 12.034L69.698 11.224L69.848 11.264L69.768 11.114L70.028 11.174L69.548 10.524L69.728 10.574L69.658 10.444L69.868 10.494L69.418 9.88399L69.648 9.93399L69.128 9.23399Z" fill="url(#paint14_linear_1_930)"/>
<path d="M2.948 11.634L3.168 11.584L2.728 12.174L2.948 12.124L2.878 12.254L3.038 12.204L2.578 12.834L2.838 12.774L2.758 12.924L2.908 12.884L2.318 13.674L2.658 13.604L2.548 13.794L2.748 13.734L2.058 14.664L2.468 14.574L2.338 14.814L2.648 14.724L1.828 15.834L2.298 15.734L2.148 16.004L3.458 15.614L4.488 15.924L4.738 15.994L4.708 16.054L4.918 15.994L4.228 16.924L4.628 16.834L4.498 17.074L4.818 16.974L3.998 18.084L4.478 17.974L4.318 18.264L5.628 17.874L6.008 17.984L5.658 18.464L6.028 18.374L5.908 18.604L6.928 18.294L7.758 18.544L7.738 18.574L7.808 18.554L7.958 18.604L7.918 18.534L8.138 18.484L8.008 18.714L8.298 18.624L7.518 19.674L7.978 19.574L7.828 19.844L9.068 19.474L9.648 19.644L9.628 19.684L9.698 19.664L9.818 19.694L9.198 20.534L9.598 20.444L9.468 20.684L10.568 20.354L11.668 20.684L11.538 20.444L11.938 20.534L11.248 19.604L11.518 19.684L11.408 19.474L11.748 19.554L11.168 18.774L11.338 18.824L11.248 18.664L11.528 18.724L11.038 18.054L11.158 18.094L11.088 17.964L11.308 18.014L10.908 17.484L11.058 17.524L10.998 17.424L11.178 17.464L10.808 16.964L10.998 17.004L10.568 16.424L10.148 17.004L10.328 16.964L9.998 17.424L9.588 16.874L9.728 16.914L9.648 16.774L9.898 16.824L9.448 16.224L9.618 16.274L9.558 16.154L9.748 16.204L9.328 15.634L9.548 15.684L9.068 15.034L8.578 15.684L8.798 15.634L8.378 16.204L8.578 16.154L8.518 16.274L8.668 16.224L8.228 16.824L8.478 16.774L8.398 16.914L8.548 16.874L7.988 17.624L8.298 17.554L8.198 17.744L8.398 17.684L8.008 18.204L7.568 17.604L7.808 17.674L7.698 17.484L8.028 17.554L7.488 16.824L7.648 16.874L7.558 16.714L7.818 16.774L7.358 16.144L7.478 16.184L7.418 16.074L7.618 16.114L7.258 15.624L7.388 15.664L7.338 15.564L7.498 15.604L7.148 15.134L7.328 15.174L6.928 14.634L6.528 15.174L6.708 15.134L6.448 15.504L6.178 15.134L6.328 15.184L6.238 15.024L6.498 15.084L6.028 14.454L6.208 14.504L6.148 14.384L6.348 14.434L5.908 13.834L6.128 13.884L5.628 13.194L5.118 13.884L5.348 13.834L4.898 14.434L5.108 14.384L5.048 14.504L5.218 14.454L4.748 15.084L5.018 15.024L4.928 15.184L5.078 15.134L4.818 15.474L4.268 14.724L4.578 14.814L4.448 14.574L4.858 14.664L4.168 13.734L4.368 13.794L4.258 13.604L4.598 13.674L4.008 12.884L4.158 12.924L4.078 12.774L4.328 12.834L3.868 12.204L4.038 12.254L3.968 12.124L4.178 12.174L3.738 11.584L3.968 11.634L3.458 10.944L2.948 11.634Z" fill="url(#paint15_linear_1_930)"/>
<path d="M12.708 18.554L12.948 18.504L12.498 19.104L12.708 19.054L12.638 19.184L12.808 19.134L12.338 19.764L12.608 19.704L12.518 19.864L12.668 19.814L12.078 20.614L12.418 20.544L12.308 20.744L12.498 20.684L11.808 21.624L12.228 21.524L12.098 21.774L12.408 21.684L11.578 22.794L12.068 22.684L11.908 22.974L13.228 22.574L13.958 22.794L13.228 23.784L13.758 23.664L13.588 23.974L15.058 23.534L16.528 23.974L16.358 23.664L16.758 23.754L16.438 24.174L16.858 24.084L16.718 24.334L17.038 24.234L16.208 25.354L16.698 25.244L16.538 25.534L17.858 25.134L17.908 25.144L17.458 25.804L17.978 25.674L17.808 26.014L19.238 25.544L20.368 25.914L20.098 26.274L20.498 26.184L20.368 26.414L20.668 26.324L19.878 27.394L20.338 27.294L20.188 27.564L21.448 27.184L22.208 27.414L22.198 27.444L22.248 27.424L22.438 27.484L22.108 27.974H24.688L24.258 27.344L24.588 27.444L24.448 27.174L24.878 27.274L24.148 26.204L24.368 26.274L24.258 26.054L24.608 26.134L23.988 25.224L24.138 25.274L24.048 25.094L24.328 25.164L23.828 24.434L24.008 24.494L23.938 24.354L24.168 24.404L23.698 23.724L23.938 23.784L23.398 22.994L22.858 23.784L23.098 23.724L22.628 24.404L22.848 24.354L22.778 24.494L22.968 24.434L22.468 25.164L22.738 25.104L22.648 25.274L22.808 25.224L22.428 25.774L22.128 25.374L22.328 25.434L22.228 25.244L22.548 25.314L21.978 24.554L22.128 24.594L22.048 24.444L22.298 24.504L21.848 23.894L22.008 23.944L21.948 23.824L22.148 23.874L21.718 23.294L21.938 23.344L21.448 22.684L20.958 23.344L21.178 23.294L20.748 23.874L20.948 23.824L20.888 23.944L21.058 23.894L20.728 24.344L20.018 23.314L20.238 23.384L20.118 23.154L20.488 23.244L19.848 22.304L20.008 22.354L19.918 22.174L20.198 22.244L19.688 21.494L19.878 21.554L19.798 21.394L20.038 21.454L19.558 20.754L19.798 20.814L19.238 19.994L18.688 20.814L18.928 20.754L18.448 21.454L18.688 21.394L18.608 21.554L18.788 21.494L18.468 21.964L18.278 21.694L18.438 21.744L18.368 21.614L18.588 21.664L18.138 21.064L18.368 21.114L17.858 20.424L17.338 21.114L17.578 21.064L17.128 21.664L17.338 21.614L17.268 21.744L17.438 21.694L16.968 22.324L17.238 22.264L17.148 22.424L17.298 22.384L16.708 23.174L17.048 23.104L16.938 23.304L17.128 23.244L16.818 23.674L15.968 22.524L16.328 22.634L16.178 22.364L16.638 22.464L15.858 21.414L16.088 21.484L15.968 21.264L16.348 21.354L15.688 20.454L15.858 20.504L15.768 20.344L16.048 20.404L15.528 19.694L15.718 19.754L15.638 19.604L15.878 19.654L15.388 18.994L15.638 19.044L15.068 18.274L14.488 19.044L14.738 18.994L14.248 19.654L14.488 19.604L14.408 19.754L14.598 19.694L14.148 20.304L13.788 19.814L13.938 19.864L13.848 19.704L14.108 19.764L13.648 19.134L13.808 19.184L13.738 19.054L13.958 19.104L13.518 18.504L13.738 18.554L13.228 17.854L12.708 18.554Z" fill="url(#paint16_linear_1_930)"/>
<path d="M27.399 25.104L27.639 25.044L27.179 25.734L27.399 25.674L27.329 25.824L27.509 25.764L27.019 26.494L27.289 26.424L27.199 26.604L27.369 26.544L27.099 26.954L26.739 26.474L26.879 26.514L26.809 26.384L27.039 26.434L26.609 25.844L26.769 25.894L26.699 25.774L26.899 25.814L26.499 25.274L26.699 25.314L26.229 24.674L25.759 25.314L25.959 25.274L25.559 25.814L25.759 25.774L25.689 25.894L25.849 25.844L25.419 26.434L25.649 26.384L25.579 26.514L25.719 26.474L25.169 27.204L25.479 27.134L25.379 27.324L25.559 27.274L25.379 27.514L25.039 27.974H26.639C26.6512 27.9809 26.665 27.9844 26.679 27.984V27.974H26.859L26.899 27.984L26.909 27.974H28.969L28.679 27.544L28.889 27.614L28.779 27.384L29.119 27.474L28.509 26.554L28.669 26.604L28.579 26.424L28.849 26.494L28.369 25.764L28.539 25.824L28.469 25.674L28.689 25.734L28.239 25.044L28.469 25.104L27.939 24.304L27.399 25.104Z" fill="url(#paint17_linear_1_930)"/>
<path d="M71.12 11.85C71.0403 11.8952 70.9635 11.9453 70.89 12C70.65 12.16 70.4 12.33 70.14 12.51C70.0777 12.55 70.0176 12.5934 69.96 12.64C69.88 12.69 69.8 12.75 69.71 12.81C69.6884 12.829 69.665 12.8458 69.64 12.86C69.63 12.87 69.62 12.87 69.61 12.89C69.57 12.91 69.52 12.95 69.47 12.98C69.01 13.31 68.52 13.66 68.02 14.02C67.97 14.06 67.93 14.09 67.89 14.12C67.8519 14.141 67.8152 14.1644 67.78 14.19L67.77 14.2C67.748 14.2141 67.7279 14.2309 67.71 14.25C67.7 14.26 67.69 14.26 67.68 14.27C67.6416 14.2943 67.6049 14.321 67.57 14.35C67.5525 14.3667 67.5322 14.3802 67.51 14.39C67.49 14.41 67.47 14.42 67.45 14.44C67.35 14.51 67.25 14.58 67.15 14.66C67.13 14.67 67.12 14.68 67.1 14.69C66.89 14.84 66.68 15 66.46 15.16C66.45 15.16 66.45 15.17 66.44 15.17L66.4392 15.1738L66.4371 15.1771L66.4338 15.1792L66.43 15.18C66.42 15.19 66.4 15.2 66.39 15.21C66.3524 15.2401 66.3122 15.2668 66.27 15.29L66.24 15.32C66.22 15.33 66.2 15.35 66.18 15.36C66.1509 15.3889 66.1171 15.4125 66.08 15.43C66.08 15.44 66.08 15.44 66.07 15.44V15.45H66.06L65.85 15.6C65.8374 15.6156 65.8197 15.6262 65.8 15.63C65.73 15.69 65.66 15.74 65.59 15.79C65.5291 15.8399 65.4657 15.8866 65.4 15.93C65.33 15.98 65.26 16.03 65.19 16.09C65.13 16.13 65.07 16.18 65 16.23H64.99C64.85 16.33 64.71 16.43 64.57 16.54C64.5251 16.5676 64.4817 16.5977 64.44 16.63C64.43 16.63 64.42 16.65 64.42 16.65C64.351 16.6933 64.2843 16.74 64.22 16.79C64.1592 16.8277 64.1023 16.8712 64.05 16.92C64.04 16.92 64.03 16.92 64.02 16.94C63.9754 16.9634 63.9349 16.9938 63.9 17.03C63.8946 17.0293 63.8891 17.0299 63.8839 17.0316C63.8787 17.0334 63.8739 17.0362 63.87 17.04C63.52 17.29 63.17 17.54 62.81 17.79C62.75 17.83 62.69 17.88 62.63 17.92C62.6057 17.9402 62.5788 17.957 62.55 17.97C62.5225 17.9964 62.4923 18.0199 62.46 18.04C62.449 18.0505 62.435 18.0575 62.42 18.06L62.39 18.09C62.37 18.1 62.36 18.11 62.34 18.12C62.2908 18.1623 62.2371 18.1992 62.18 18.23C61.86 18.46 61.53 18.69 61.19 18.92C61.04 19.02 60.91 19.12 60.76 19.22C60.76 19.2227 60.7589 19.2252 60.7571 19.2271C60.7552 19.2289 60.7526 19.23 60.75 19.23H60.74C60.54 19.36 60.34 19.5 60.13 19.64C60.07 19.68 60.01 19.72 59.94 19.77C59.8596 19.8278 59.7762 19.8813 59.69 19.93L59.6 19.99C59.6 20 59.59 20 59.58 20C59.5308 20.0423 59.4771 20.0792 59.42 20.11C59.13 20.3 58.85 20.49 58.55 20.68C58.4705 20.7391 58.387 20.7925 58.3 20.84C58.2605 20.8724 58.2167 20.8993 58.17 20.92C58.1473 20.9423 58.12 20.9594 58.09 20.97C58.08 20.99 58.07 20.99 58.05 21C58.0123 21.027 57.9721 21.0505 57.93 21.07C57.92 21.09 57.91 21.1 57.89 21.1C57.7353 21.2114 57.5751 21.3148 57.41 21.41C56.95 21.7 56.49 21.98 56.01 22.27C55.96 22.3 55.91 22.34 55.85 22.37C55.76 22.42 55.67 22.48 55.58 22.53C55.49 22.58 55.42 22.62 55.34 22.67C55.318 22.6855 55.2945 22.6989 55.27 22.71C55.2222 22.7405 55.172 22.7673 55.12 22.79C55.1011 22.8121 55.0771 22.8293 55.05 22.84C55.029 22.857 55.0053 22.8705 54.98 22.88C54.67 23.07 54.35 23.25 54.04 23.43H54.03C53.9565 23.4674 53.8863 23.5109 53.82 23.56C53.6 23.67 53.38 23.8 53.16 23.92H53.15C53.1473 23.92 53.1448 23.9211 53.1429 23.9229C53.141 23.9248 53.14 23.9274 53.14 23.93C53.0659 23.9623 52.9955 24.0026 52.93 24.05H52.91C52.9 24.05 52.9 24.06 52.89 24.06C52.62 24.22 52.34 24.36 52.06 24.51C52.06 24.5127 52.0589 24.5152 52.0571 24.5171C52.0552 24.5189 52.0527 24.52 52.05 24.52C51.97 24.56 51.89 24.6 51.8 24.65C51.73 24.68 51.66 24.72 51.58 24.76C51.53 24.79 51.48 24.81 51.43 24.84C51.4044 24.8553 51.3776 24.8687 51.35 24.88C51.31 24.9 51.26 24.93 51.21 24.95V24.96C50.78 25.17 50.35 25.39 49.91 25.6C49.84 25.64 49.77 25.67 49.7 25.71H49.69C49.67 25.71 49.67 25.72 49.66 25.72C49.58 25.76 49.51 25.79 49.44 25.83C49.425 25.8325 49.411 25.8395 49.4 25.85C49.37 25.86 49.33 25.88 49.3 25.89L49.24 25.92C49.22 25.93 49.21 25.94 49.19 25.94C49.19 25.9427 49.1889 25.9452 49.1871 25.9471C49.1852 25.9489 49.1826 25.95 49.18 25.95C48.7133 26.17 48.2333 26.39 47.74 26.61C47.59 26.68 47.43 26.74 47.28 26.81C47.25 26.82 47.21 26.84 47.18 26.85C47.17 26.86 47.16 26.86 47.15 26.87H47.14C47.0616 26.8991 46.9848 26.9325 46.91 26.97C46.8887 26.9721 46.8682 26.9789 46.85 26.99C46.8119 27.0109 46.7717 27.0276 46.73 27.04C46.67 27.07 46.61 27.09 46.55 27.12C46.09 27.31 45.61 27.5 45.14 27.68C45.07 27.71 44.99 27.74 44.92 27.77L44.83 27.8C44.67 27.86 44.51 27.92 44.35 27.97C44.35 27.97 44.34 27.99 44.33 27.98C44.3246 27.9854 44.3176 27.9889 44.31 27.99H62.8C65.1823 27.9698 67.5189 27.334 69.583 26.1443C71.6471 24.9546 73.3684 23.2513 74.58 21.2C74.6697 21.0623 74.7499 20.9186 74.82 20.77C75.7133 19.1275 76.2643 17.321 76.4396 15.4595C76.6149 13.5981 76.4109 11.7204 75.84 9.94C75.6883 9.91224 75.5342 9.89884 75.38 9.9C74.37 9.9 72.94 10.64 71.12 11.85Z" fill="url(#paint18_linear_1_930)"/>
<path d="M0.5 14.29C0.53372 16.9493 1.32461 19.544 2.78 21.77C3.42555 22.7546 4.19898 23.649 5.08 24.43C7.58473 26.6946 10.8334 27.9613 14.21 27.99H26.52C26.4 27.95 26.28 27.9 26.15 27.86C26.14 27.85 26.13 27.85 26.11 27.85L25.81 27.73L25.72 27.7C25.63 27.67 25.53 27.63 25.44 27.6C25.38 27.58 25.32 27.55 25.26 27.53C24.99 27.43 24.73 27.33 24.47 27.22C24.39 27.19 24.32 27.17 24.25 27.14L24.24 27.13C24.1717 27.1077 24.1049 27.081 24.04 27.05C23.97 27.02 23.9 27 23.83 26.97C23.58 26.87 23.34 26.77 23.1 26.67C23.074 26.6584 23.0473 26.6483 23.02 26.64L22.69 26.49C22.64 26.47 22.59 26.45 22.53 26.43V26.42H22.52C22.51 26.42 22.51 26.42 22.5 26.41C22.4 26.37 22.29 26.32 22.18 26.27H22.17C22.0882 26.2375 22.0081 26.2008 21.93 26.16C21.83 26.12 21.74 26.08 21.65 26.04H21.64C21.6348 26.0343 21.6277 26.0307 21.62 26.03H21.61L21.6 26.02C21.59 26.01 21.59 26.01 21.58 26.01C21.44 25.95 21.3 25.88 21.16 25.82C21.1324 25.8087 21.1056 25.7953 21.08 25.78C21.0416 25.7675 21.0047 25.7508 20.97 25.73C20.9082 25.7075 20.8481 25.6808 20.79 25.65C20.74 25.63 20.68 25.6 20.63 25.58C20.55 25.54 20.46 25.5 20.38 25.46C19.95 25.26 19.52 25.05 19.1 24.84C18.95 24.77 18.81 24.7 18.66 24.62C18.6216 24.6075 18.5847 24.5908 18.55 24.57H18.54C18.49 24.54 18.44 24.52 18.39 24.49C18.3846 24.4846 18.3776 24.4811 18.37 24.48C18.3 24.44 18.22 24.4 18.14 24.36C18.13 24.36 18.12 24.35 18.11 24.34C18.03 24.3 17.95 24.26 17.86 24.21C17.7728 24.1746 17.6891 24.1311 17.61 24.08C17.5381 24.0508 17.468 24.0174 17.4 23.98V23.97C17.3583 23.9576 17.3181 23.9409 17.28 23.92C17.2 23.87 17.11 23.83 17.03 23.78C16.97 23.75 16.92 23.72 16.86 23.69H16.85C16.84 23.69 16.83 23.68 16.82 23.67C16.81 23.66 16.79 23.66 16.78 23.65C16.57 23.54 16.36 23.43 16.16 23.32C15.63 23.03 15.11 22.74 14.6 22.45C14.5821 22.4423 14.5653 22.4322 14.55 22.42C14.5255 22.4089 14.502 22.3955 14.48 22.38H14.47C14.4229 22.3559 14.3792 22.3256 14.34 22.29L14.33 22.3V22.29C14.32 22.29 14.31 22.29 14.31 22.28H14.3C14.22 22.23 14.14 22.19 14.07 22.14C14 22.09 13.91 22.05 13.83 22C13.54 21.84 13.26 21.68 12.99 21.52C12.93 21.48 12.87 21.45 12.82 21.41C12.8 21.4 12.79 21.4 12.78 21.39C12.74 21.37 12.7 21.34 12.67 21.33C12.59 21.27 12.51 21.23 12.43 21.18H12.42L12.24 21.06C12.04 20.94 11.83 20.82 11.64 20.69C11.63 20.69 11.63 20.68 11.62 20.68C11.44 20.58 11.27 20.48 11.1 20.37C11.0973 20.37 11.0948 20.3689 11.0929 20.3671C11.0911 20.3652 11.09 20.3627 11.09 20.36C10.81 20.2 10.54 20.02 10.27 19.85C10.18 19.8 10.1 19.75 10.02 19.7C9.97898 19.6698 9.93549 19.643 9.89 19.62C9.83567 19.5798 9.77889 19.5431 9.72 19.51L9.71 19.5C9.70242 19.4989 9.69539 19.4954 9.69 19.49C9.63 19.45 9.58 19.42 9.53 19.39C9.16 19.15 8.81 18.93 8.46 18.7C8.42192 18.679 8.38519 18.6556 8.35 18.63C8.34 18.62 8.33 18.62 8.32 18.61C8.26228 18.5697 8.20217 18.533 8.14 18.5H8.13V18.49C8.11 18.48 8.09 18.46 8.07 18.45C8.02 18.42 7.97 18.38 7.91 18.35C7.85724 18.3076 7.80027 18.2708 7.74 18.24C7.49 18.07 7.24 17.91 6.99 17.74C6.98735 17.74 6.9848 17.739 6.98293 17.7371C6.98105 17.7352 6.98 17.7327 6.98 17.73H6.97C6.85221 17.6638 6.73866 17.5903 6.63 17.51C6.60158 17.4925 6.57481 17.4724 6.55 17.45L6.49 17.42C6.48 17.41 6.47 17.4 6.46 17.4C6.45481 17.3943 6.44768 17.3907 6.44 17.39C6.38 17.35 6.33 17.32 6.28 17.28C6.22898 17.2431 6.17552 17.2097 6.12 17.18C5.91 17.04 5.71 16.91 5.51 16.78C5.46 16.75 5.42 16.72 5.37 16.69H5.36C5.33 16.67 5.31 16.65 5.28 16.63C5.27 16.62 5.25 16.61 5.24 16.6L5.15 16.54C5.06 16.49 4.98 16.43 4.89 16.37C4.83111 16.3369 4.77433 16.3002 4.72 16.26C4.48 16.1 4.25 15.95 4.01 15.8C4.01 15.7974 4.00895 15.7948 4.00707 15.7929C4.0052 15.7911 4.00265 15.79 4 15.79C3.86 15.7 3.71 15.61 3.57 15.52C3.56735 15.52 3.5648 15.5189 3.56293 15.5171C3.56105 15.5152 3.56 15.5127 3.56 15.51C3.3 15.35 3.05 15.18 2.8 15.02C2.77 15.01 2.75 14.99 2.72 14.98C2.66567 14.9398 2.60889 14.9031 2.55 14.87C2.51 14.85 2.47 14.82 2.43 14.8C2.41247 14.7833 2.39217 14.7698 2.37 14.76C2.31228 14.7197 2.25217 14.683 2.19 14.65C2.1642 14.632 2.1375 14.6153 2.11 14.6C1.54 14.25 1 13.93 0.51 13.66C0.5 13.87 0.5 14.08 0.5 14.29Z" fill="url(#paint19_linear_1_930)"/>
</g>
<defs>
<linearGradient id="paint0_linear_1_930" x1="38.5012" y1="27.985" x2="38.5012" y2="0" gradientUnits="userSpaceOnUse">
<stop stop-color="#4C7392"/>
<stop offset="1" stop-color="#282F6C"/>
</linearGradient>
<linearGradient id="paint1_linear_1_930" x1="15.8353" y1="32.0591" x2="15.8353" y2="20.6891" gradientUnits="userSpaceOnUse">
<stop stop-color="#4C7392"/>
<stop offset="1" stop-color="#282F6C"/>
</linearGradient>
<linearGradient id="paint2_linear_1_930" x1="-173.24" y1="2.03896" x2="-173.24" y2="6.35099" gradientUnits="userSpaceOnUse">
<stop stop-color="white"/>
<stop offset="0.51" stop-color="white" stop-opacity="0.478"/>
<stop offset="1" stop-color="white" stop-opacity="0"/>
</linearGradient>
<linearGradient id="paint3_linear_1_930" x1="-286.407" y1="4.2675" x2="-286.407" y2="11.159" gradientUnits="userSpaceOnUse">
<stop stop-color="white"/>
<stop offset="0.51" stop-color="white" stop-opacity="0.478"/>
<stop offset="1" stop-color="white" stop-opacity="0"/>
</linearGradient>
<linearGradient id="paint4_linear_1_930" x1="-263.099" y1="4.83292" x2="-263.099" y2="11.729" gradientUnits="userSpaceOnUse">
<stop stop-color="white"/>
<stop offset="0.51" stop-color="white" stop-opacity="0.478"/>
<stop offset="1" stop-color="white" stop-opacity="0"/>
</linearGradient>
<linearGradient id="paint5_linear_1_930" x1="-153.585" y1="2.536" x2="-153.585" y2="5.846" gradientUnits="userSpaceOnUse">
<stop stop-color="white"/>
<stop offset="0.51" stop-color="white" stop-opacity="0.478"/>
<stop offset="1" stop-color="white" stop-opacity="0"/>
</linearGradient>
<linearGradient id="paint6_linear_1_930" x1="64.7653" y1="17.649" x2="64.7653" y2="10.464" gradientUnits="userSpaceOnUse">
<stop stop-color="#19205C"/>
<stop offset="1" stop-color="#376182"/>
</linearGradient>
<linearGradient id="paint7_linear_1_930" x1="73.3582" y1="7.39873" x2="73.3582" y2="7.39873" gradientUnits="userSpaceOnUse">
<stop stop-color="#19205C"/>
<stop offset="1" stop-color="#376182"/>
</linearGradient>
<linearGradient id="paint8_linear_1_930" x1="12.586" y1="12.553" x2="53.833" y2="12.553" gradientUnits="userSpaceOnUse">
<stop stop-color="#364460"/>
<stop offset="1" stop-color="#1D2840"/>
</linearGradient>
<linearGradient id="paint9_linear_1_930" x1="44.7128" y1="9.66972" x2="44.7128" y2="9.66972" gradientUnits="userSpaceOnUse">
<stop stop-color="#19205C"/>
<stop offset="1" stop-color="#376182"/>
</linearGradient>
<linearGradient id="paint10_linear_1_930" x1="59.4329" y1="38.077" x2="42.5066" y2="-3.70082" gradientUnits="userSpaceOnUse">
<stop stop-color="#19205C"/>
<stop offset="1" stop-color="#376182"/>
</linearGradient>
<linearGradient id="paint11_linear_1_930" x1="26.123" y1="15.5065" x2="55.37" y2="15.5065" gradientUnits="userSpaceOnUse">
<stop stop-color="#364460"/>
<stop offset="1" stop-color="#1D2840"/>
</linearGradient>
<linearGradient id="paint12_linear_1_930" x1="29.9327" y1="26.333" x2="21.8505" y2="7.88305" gradientUnits="userSpaceOnUse">
<stop stop-color="#364460"/>
<stop offset="1" stop-color="#1D2840"/>
</linearGradient>
<linearGradient id="paint13_linear_1_930" x1="9.26807" y1="25.7838" x2="10.2072" y2="10.3249" gradientUnits="userSpaceOnUse">
<stop stop-color="#030228"/>
<stop offset="1" stop-color="#13435E"/>
</linearGradient>
<linearGradient id="paint14_linear_1_930" x1="41.3499" y1="17.3459" x2="42.5525" y2="4.15043" gradientUnits="userSpaceOnUse">
<stop stop-color="#030228"/>
<stop offset="1" stop-color="#13435E"/>
</linearGradient>
<linearGradient id="paint15_linear_1_930" x1="-16.7441" y1="18.8529" x2="-15.5704" y2="5.98786" gradientUnits="userSpaceOnUse">
<stop stop-color="#030228"/>
<stop offset="1" stop-color="#13435E"/>
</linearGradient>
<linearGradient id="paint16_linear_1_930" x1="-12.8541" y1="26.0714" x2="-11.8879" y2="12.6629" gradientUnits="userSpaceOnUse">
<stop stop-color="#030228"/>
<stop offset="1" stop-color="#13435E"/>
</linearGradient>
<linearGradient id="paint17_linear_1_930" x1="17.544" y1="27.2922" x2="17.9596" y2="22.4265" gradientUnits="userSpaceOnUse">
<stop stop-color="#030228"/>
<stop offset="1" stop-color="#13435E"/>
</linearGradient>
<linearGradient id="paint18_linear_1_930" x1="76.5005" y1="27.99" x2="73.7043" y2="11.6986" gradientUnits="userSpaceOnUse">
<stop stop-color="#030228"/>
<stop offset="1" stop-color="#13435E"/>
</linearGradient>
<linearGradient id="paint19_linear_1_930" x1="4.9234" y1="25.2386" x2="6.37275" y2="17.9197" gradientUnits="userSpaceOnUse">
<stop stop-color="#030228"/>
<stop offset="1" stop-color="#13435E"/>
</linearGradient>
<clipPath id="clip0_1_930">
<rect width="76.004" height="28" fill="white" transform="translate(0.5)"/>
</clipPath>
</defs>
</svg>
