<svg width="201" height="150" viewBox="0 0 201 150" fill="none" xmlns="http://www.w3.org/2000/svg">
<g clip-path="url(#clip0_1_959)">
<path d="M200.5 61.335C200.493 64.8621 199.091 68.2431 196.598 70.739C194.106 73.2348 190.727 74.6424 187.2 74.654H127.058C125.379 74.654 123.716 74.9847 122.165 75.6273C120.614 76.2698 119.204 77.2117 118.017 78.3989C116.83 79.5862 115.888 80.9957 115.245 82.547C114.603 84.0983 114.272 85.7609 114.272 87.44C114.272 89.1191 114.603 90.7817 115.245 92.333C115.888 93.8843 116.83 95.2938 118.017 96.4811C119.204 97.6684 120.614 98.6102 122.165 99.2527C123.716 99.8953 125.379 100.226 127.058 100.226H170.698C172.959 100.226 175.127 101.124 176.725 102.723C178.324 104.321 179.222 106.489 179.222 108.75C179.222 111.011 178.324 113.179 176.725 114.777C175.127 116.376 172.959 117.274 170.698 117.274H128.124C125.863 117.274 123.695 118.172 122.097 119.771C120.498 121.369 119.6 123.537 119.6 125.798C119.6 128.059 120.498 130.227 122.097 131.825C123.695 133.424 125.863 134.322 128.124 134.322H166.441C167.841 134.341 169.178 134.911 170.161 135.908C171.145 136.905 171.696 138.249 171.696 139.65C171.696 141.05 171.145 142.394 170.161 143.391C169.178 144.388 167.841 144.958 166.441 144.977H73.841C72.4407 144.958 71.1043 144.388 70.1208 143.391C69.1374 142.394 68.586 141.05 68.586 139.65C68.586 138.249 69.1374 136.905 70.1208 135.908C71.1043 134.911 72.4407 134.341 73.841 134.322H88.741C91.0017 134.322 93.1698 133.424 94.7684 131.825C96.3669 130.227 97.265 128.059 97.265 125.798C97.265 123.537 96.3669 121.369 94.7684 119.771C93.1698 118.172 91.0017 117.274 88.741 117.274H13.173C10.9123 117.274 8.74419 116.376 7.14563 114.777C5.54707 113.179 4.64901 111.011 4.64901 108.75C4.64901 106.489 5.54707 104.321 7.14563 102.723C8.74419 101.124 10.9123 100.226 13.173 100.226H24.881C28.2721 100.226 31.5242 98.8789 33.9221 96.4811C36.3199 94.0832 37.667 90.8311 37.667 87.44C37.667 84.0489 36.3199 80.7968 33.9221 78.3989C31.5242 76.0011 28.2721 74.654 24.881 74.654H17.958C14.4256 74.654 11.0378 73.2508 8.54005 70.753C6.04226 68.2552 4.63901 64.8674 4.63901 61.335C4.63901 57.8026 6.04226 54.4148 8.54005 51.917C11.0378 49.4193 14.4256 48.016 17.958 48.016H81.824C83.0134 48.016 84.1911 47.7817 85.29 47.3266C86.3888 46.8714 87.3873 46.2043 88.2283 45.3633C89.0693 44.5223 89.7364 43.5238 90.1916 42.425C90.6467 41.3261 90.881 40.1484 90.881 38.959C90.881 37.7696 90.6467 36.5919 90.1916 35.493C89.7364 34.3942 89.0693 33.3958 88.2283 32.5547C87.3873 31.7137 86.3888 31.0466 85.29 30.5914C84.1911 30.1363 83.0134 29.902 81.824 29.902H55.215C53.5655 29.8997 51.9574 29.3862 50.6117 28.4322C49.2661 27.4782 48.2492 26.1307 47.701 24.575C47.3883 23.7218 47.2298 22.8197 47.233 21.911C47.2357 19.7941 48.0772 17.7646 49.5733 16.267C51.0694 14.7694 53.0981 13.9258 55.215 13.921H139.299C141.416 13.9255 143.445 14.7691 144.942 16.267C146.438 17.7648 147.28 19.7948 147.282 21.912C147.285 22.8207 147.127 23.7228 146.814 24.576C146.267 26.1326 145.251 27.481 143.905 28.4352C142.559 29.3894 140.95 29.9023 139.3 29.903H122.27C119.868 29.903 117.564 30.8572 115.866 32.5557C114.167 34.2543 113.213 36.5579 113.213 38.96C113.213 41.3621 114.167 43.6658 115.866 45.3643C117.564 47.0628 119.868 48.017 122.27 48.017H187.196C190.723 48.0286 194.102 49.4362 196.594 51.932C199.087 54.4279 200.489 57.8089 200.496 61.336" fill="white"/>
<path d="M104.861 139.633C93.886 139.632 83.1756 136.264 74.1764 129.981C65.1772 123.699 58.3228 114.807 54.539 104.505C50.7552 94.2025 50.2243 82.9873 53.018 72.3739C55.8117 61.7604 61.7955 52.2601 70.161 45.156C70.3903 44.9612 70.6557 44.8134 70.9421 44.7212C71.2285 44.6289 71.5302 44.594 71.8301 44.6184C72.13 44.6428 72.4221 44.726 72.6899 44.8632C72.9576 45.0005 73.1957 45.1892 73.3905 45.4185C73.5853 45.6478 73.733 45.9132 73.8253 46.1996C73.9175 46.486 73.9525 46.7877 73.9281 47.0876C73.9037 47.3875 73.8205 47.6796 73.6832 47.9474C73.5459 48.2151 73.3573 48.4532 73.128 48.648C67.9593 53.0373 63.7572 58.4511 60.7874 64.5472C57.8176 70.6433 56.1446 77.2892 55.8741 84.0648C55.6037 90.8404 56.7416 97.5985 59.2161 103.912C61.6906 110.225 65.4477 115.957 70.2501 120.744C75.0526 125.532 80.7959 129.271 87.117 131.725C93.4382 134.18 100.2 135.297 106.975 135.005C113.749 134.713 120.39 133.019 126.477 130.03C132.563 127.042 137.964 122.822 142.337 117.64C142.53 117.408 142.768 117.216 143.036 117.077C143.303 116.937 143.596 116.851 143.897 116.825C144.198 116.799 144.501 116.832 144.789 116.923C145.077 117.015 145.344 117.162 145.575 117.357C145.806 117.552 145.996 117.791 146.134 118.059C146.272 118.328 146.356 118.621 146.38 118.923C146.404 119.224 146.369 119.527 146.276 119.814C146.183 120.101 146.033 120.367 145.837 120.597C140.808 126.565 134.534 131.361 127.457 134.649C120.379 137.938 112.667 139.639 104.863 139.633" fill="black"/>
<path d="M156.181 88.309C155.573 88.309 154.991 88.0676 154.561 87.638C154.131 87.2083 153.89 86.6256 153.89 86.018C153.883 78.5277 152.162 71.1383 148.858 64.4161C145.554 57.6938 140.755 51.8171 134.829 47.2361C128.903 42.6551 122.007 39.4915 114.669 37.9876C107.331 36.4838 99.7464 36.6796 92.496 38.56C92.2024 38.6428 91.8952 38.6661 91.5925 38.6285C91.2898 38.591 90.9976 38.4934 90.7331 38.3414C90.4686 38.1895 90.2371 37.9862 90.0522 37.7436C89.8673 37.501 89.7327 37.2239 89.6563 36.9286C89.5799 36.6333 89.5633 36.3256 89.6074 36.0238C89.6515 35.722 89.7554 35.432 89.9131 35.1708C90.0707 34.9097 90.279 34.6827 90.5255 34.5031C90.7721 34.3235 91.0521 34.1949 91.349 34.125C99.2767 32.0684 107.57 31.854 115.594 33.4982C123.617 35.1424 131.157 38.6016 137.637 43.6107C144.117 48.6198 149.364 55.0458 152.976 62.3964C156.589 69.7469 158.47 77.8268 158.477 86.017C158.477 86.6246 158.236 87.2073 157.806 87.637C157.376 88.0666 156.794 88.308 156.186 88.308" fill="black"/>
<path d="M42.618 122.677C42.618 122.133 42.4568 121.602 42.1547 121.15C41.8526 120.698 41.4233 120.345 40.921 120.137C40.4187 119.929 39.8659 119.875 39.3327 119.981C38.7994 120.087 38.3096 120.349 37.9252 120.733C37.5407 121.118 37.2789 121.607 37.1728 122.141C37.0667 122.674 37.1212 123.227 37.3293 123.729C37.5373 124.231 37.8897 124.661 38.3417 124.963C38.7938 125.265 39.3253 125.426 39.869 125.426C40.5981 125.426 41.2973 125.136 41.8128 124.621C42.3284 124.105 42.618 123.406 42.618 122.677Z" fill="#1A496D"/>
<path d="M62.756 26.452C62.755 26.0284 62.6073 25.6181 62.3379 25.2912C62.0685 24.9642 61.6941 24.7407 61.2785 24.6588C60.8629 24.5768 60.4317 24.6414 60.0583 24.8416C59.685 25.0418 59.3925 25.3652 59.2308 25.7567C59.069 26.1483 59.048 26.5838 59.1712 26.9891C59.2945 27.3944 59.5544 27.7445 59.9067 27.9797C60.259 28.215 60.682 28.3208 61.1036 28.2793C61.5252 28.2378 61.9194 28.0515 62.219 27.752C62.3897 27.5813 62.525 27.3786 62.6172 27.1555C62.7093 26.9325 62.7565 26.6934 62.756 26.452Z" fill="#1A496D"/>
<path d="M160.711 146.505C160.71 146.081 160.562 145.671 160.293 145.344C160.023 145.017 159.649 144.794 159.233 144.712C158.818 144.63 158.387 144.694 158.013 144.895C157.64 145.095 157.348 145.418 157.186 145.81C157.024 146.201 157.003 146.637 157.126 147.042C157.249 147.447 157.509 147.797 157.862 148.033C158.214 148.268 158.637 148.374 159.059 148.332C159.48 148.291 159.874 148.104 160.174 147.805C160.345 147.634 160.48 147.432 160.572 147.209C160.664 146.985 160.711 146.746 160.711 146.505Z" fill="#1A496D"/>
<path d="M171.666 122.678C170.397 122.678 169.157 122.302 168.102 121.597C167.047 120.892 166.225 119.89 165.739 118.718C165.254 117.546 165.127 116.256 165.374 115.011C165.622 113.767 166.233 112.624 167.13 111.727C168.027 110.83 169.17 110.219 170.414 109.971C171.659 109.724 172.949 109.851 174.121 110.336C175.293 110.822 176.295 111.644 177 112.699C177.705 113.754 178.081 114.994 178.081 116.263C178.081 117.964 177.405 119.596 176.202 120.799C174.999 122.002 173.367 122.678 171.666 122.678ZM171.666 111.678C170.76 111.679 169.874 111.948 169.121 112.452C168.368 112.955 167.781 113.671 167.435 114.508C167.089 115.345 166.998 116.266 167.175 117.155C167.352 118.044 167.789 118.86 168.429 119.5C169.07 120.141 169.886 120.577 170.775 120.754C171.664 120.931 172.585 120.84 173.422 120.493C174.259 120.147 174.974 119.56 175.478 118.807C175.982 118.054 176.251 117.168 176.251 116.262C176.251 115.66 176.133 115.064 175.902 114.507C175.672 113.951 175.334 113.445 174.909 113.02C174.483 112.594 173.977 112.256 173.421 112.026C172.864 111.796 172.268 111.678 171.666 111.678Z" fill="#FF5A00"/>
<path d="M162.538 45.696C161.632 45.696 160.746 45.4273 159.992 44.9238C159.239 44.4203 158.652 43.7047 158.305 42.8675C157.958 42.0302 157.867 41.1089 158.044 40.2201C158.221 39.3313 158.657 38.5148 159.298 37.874C159.939 37.2332 160.755 36.7968 161.644 36.62C162.533 36.4432 163.454 36.534 164.291 36.8808C165.129 37.2276 165.844 37.8149 166.348 38.5684C166.851 39.3219 167.12 40.2078 167.12 41.114C167.12 42.3292 166.637 43.4947 165.778 44.354C164.919 45.2133 163.753 45.696 162.538 45.696ZM162.538 38.364C161.994 38.364 161.463 38.5252 161.011 38.8273C160.559 39.1294 160.206 39.5587 159.998 40.061C159.79 40.5633 159.736 41.116 159.842 41.6493C159.948 42.1826 160.21 42.6724 160.594 43.0568C160.979 43.4413 161.468 43.7031 162.002 43.8092C162.535 43.9152 163.088 43.8608 163.59 43.6527C164.092 43.4447 164.522 43.0923 164.824 42.6403C165.126 42.1882 165.287 41.6567 165.287 41.113C165.287 40.3839 164.997 39.6847 164.482 39.1692C163.966 38.6536 163.267 38.364 162.538 38.364Z" fill="#FF5A00"/>
<path d="M80.15 12.708C79.0622 12.708 77.9988 12.3854 77.0944 11.7811C76.1899 11.1767 75.4849 10.3177 75.0687 9.31275C74.6524 8.30776 74.5435 7.20189 74.7557 6.135C74.9679 5.0681 75.4917 4.0881 76.2609 3.31891C77.0301 2.54972 78.0101 2.02589 79.077 1.81368C80.1439 1.60146 81.2498 1.71038 82.2548 2.12666C83.2597 2.54294 84.1187 3.24789 84.7231 4.15236C85.3274 5.05683 85.65 6.1202 85.65 7.20799C85.65 8.66669 85.0705 10.0656 84.0391 11.0971C83.0076 12.1285 81.6087 12.708 80.15 12.708ZM80.15 3.544C79.4248 3.5436 78.7157 3.75832 78.1125 4.16099C77.5093 4.56367 77.0392 5.1362 76.7614 5.80615C76.4837 6.47611 76.4109 7.21338 76.5523 7.92471C76.6937 8.63603 77.0429 9.28943 77.5557 9.80225C78.0686 10.3151 78.722 10.6643 79.4333 10.8057C80.1446 10.947 80.8819 10.8743 81.5518 10.5966C82.2218 10.3188 82.7943 9.84864 83.197 9.24547C83.5997 8.64229 83.8144 7.93323 83.814 7.20799C83.8135 6.2364 83.4273 5.30476 82.7403 4.61774C82.0532 3.93072 81.1216 3.54452 80.15 3.544Z" fill="#FF5A00"/>
<path d="M5.082 75.939C4.17577 75.939 3.28989 75.6703 2.53638 75.1668C1.78287 74.6633 1.19559 73.9477 0.848786 73.1105C0.501985 72.2732 0.411246 71.3519 0.588044 70.4631C0.764841 69.5743 1.20123 68.7578 1.84204 68.117C2.48284 67.4762 3.29928 67.0398 4.1881 66.863C5.07692 66.6862 5.99821 66.777 6.83546 67.1238C7.67271 67.4706 8.38832 68.0579 8.8918 68.8114C9.39527 69.5649 9.664 70.4508 9.664 71.357C9.664 72.5722 9.18126 73.7377 8.32197 74.597C7.46267 75.4562 6.29722 75.939 5.082 75.939ZM5.082 68.607C4.5383 68.607 4.00681 68.7682 3.55474 69.0703C3.10267 69.3723 2.75032 69.8017 2.54226 70.304C2.33419 70.8063 2.27975 71.359 2.38582 71.8923C2.49189 72.4256 2.75371 72.9154 3.13817 73.2998C3.52262 73.6843 4.01244 73.9461 4.5457 74.0522C5.07895 74.1582 5.63168 74.1038 6.134 73.8957C6.63631 73.6877 7.06565 73.3353 7.36771 72.8833C7.66978 72.4312 7.831 71.8997 7.831 71.356C7.831 70.6269 7.54138 69.9277 7.02584 69.4122C6.5103 68.8966 5.81108 68.607 5.082 68.607Z" fill="#FF5A00"/>
<path d="M123.637 13.163C123.636 13.4057 123.539 13.6382 123.368 13.8098C123.196 13.9814 122.964 14.0782 122.721 14.079H119.513V17.287C119.505 17.5248 119.405 17.7503 119.234 17.9158C119.063 18.0812 118.834 18.1737 118.596 18.1737C118.359 18.1737 118.13 18.0812 117.959 17.9158C117.788 17.7503 117.688 17.5248 117.68 17.287V14.08H114.472C114.349 14.0841 114.227 14.0634 114.112 14.0191C113.997 13.9749 113.892 13.908 113.804 13.8225C113.716 13.737 113.645 13.6346 113.597 13.5214C113.549 13.4082 113.525 13.2865 113.525 13.1635C113.525 13.0405 113.549 12.9188 113.597 12.8056C113.645 12.6924 113.716 12.59 113.804 12.5045C113.892 12.419 113.997 12.3521 114.112 12.3079C114.227 12.2636 114.349 12.2429 114.472 12.247H117.68V9.039C117.68 8.79593 117.777 8.56281 117.948 8.39093C118.12 8.21906 118.353 8.1225 118.596 8.1225C118.84 8.1225 119.073 8.21906 119.245 8.39093C119.416 8.56281 119.513 8.79593 119.513 9.039V12.247H122.721C122.964 12.2478 123.196 12.3445 123.368 12.5162C123.539 12.6878 123.636 12.9203 123.637 13.163Z" fill="#2FDF84"/>
<path d="M35.325 40.198C35.3245 40.3745 35.2541 40.5436 35.1294 40.6683C35.0046 40.7931 34.8355 40.8635 34.659 40.864H32.325V43.197C32.325 43.3736 32.2548 43.543 32.1299 43.6679C32.005 43.7928 31.8356 43.863 31.659 43.863C31.4824 43.863 31.313 43.7928 31.1881 43.6679C31.0632 43.543 30.993 43.3736 30.993 43.197V40.864H28.659C28.5693 40.8675 28.4798 40.8528 28.3959 40.8209C28.312 40.7889 28.2355 40.7404 28.1708 40.6782C28.1061 40.6159 28.0546 40.5413 28.0195 40.4587C27.9843 40.3761 27.9662 40.2873 27.9662 40.1975C27.9662 40.1077 27.9843 40.0189 28.0195 39.9363C28.0546 39.8537 28.1061 39.779 28.1708 39.7168C28.2355 39.6546 28.312 39.606 28.3959 39.5741C28.4798 39.5422 28.5693 39.5275 28.659 39.531H30.993V37.198C30.993 37.0214 31.0632 36.852 31.1881 36.7271C31.313 36.6022 31.4824 36.532 31.659 36.532C31.8356 36.532 32.005 36.6022 32.1299 36.7271C32.2548 36.852 32.325 37.0214 32.325 37.198V39.532H34.658C34.8345 39.5325 35.0036 39.6029 35.1284 39.7276C35.2531 39.8524 35.3245 40.0215 35.325 40.198Z" fill="#2FDF84"/>
<path d="M200.075 75.022C200.074 75.2428 199.987 75.4543 199.83 75.6104C199.674 75.7665 199.463 75.8545 199.242 75.855H196.326V78.771C196.326 78.8804 196.304 78.9887 196.263 79.0898C196.221 79.1908 196.159 79.2827 196.082 79.36C196.005 79.4374 195.913 79.4987 195.812 79.5406C195.711 79.5825 195.602 79.604 195.493 79.604C195.384 79.604 195.275 79.5825 195.174 79.5406C195.073 79.4987 194.981 79.4374 194.904 79.36C194.827 79.2827 194.765 79.1908 194.723 79.0898C194.682 78.9887 194.66 78.8804 194.66 78.771V75.855H191.744C191.523 75.855 191.311 75.7672 191.155 75.611C190.999 75.4548 190.911 75.2429 190.911 75.022C190.911 74.8011 190.999 74.5892 191.155 74.433C191.311 74.2768 191.523 74.189 191.744 74.189H194.66V71.273C194.66 71.1636 194.682 71.0553 194.723 70.9542C194.765 70.8532 194.827 70.7613 194.904 70.684C194.981 70.6066 195.073 70.5453 195.174 70.5034C195.275 70.4615 195.384 70.44 195.493 70.44C195.602 70.44 195.711 70.4615 195.812 70.5034C195.913 70.5453 196.005 70.6066 196.082 70.684C196.159 70.7613 196.221 70.8532 196.263 70.9542C196.304 71.0553 196.326 71.1636 196.326 71.273V74.189H199.242C199.463 74.1895 199.674 74.2775 199.83 74.4336C199.987 74.5897 200.074 74.8012 200.075 75.022Z" fill="#2FDF84"/>
<path d="M89.932 88.993C89.833 88.8353 89.7756 88.655 89.7653 88.4691C89.755 88.2832 89.7921 88.0977 89.873 87.93C90.0549 87.6615 90.3043 87.4457 90.596 87.304C93.6927 85.4953 96.789 83.7093 99.885 81.946C99.9084 81.9331 99.9279 81.9141 99.9414 81.8911C99.955 81.868 99.9621 81.8417 99.962 81.815L99.956 77.263L99.961 50.394C99.961 50.3853 99.9593 50.3768 99.9558 50.3688C99.9524 50.3608 99.9475 50.3536 99.9412 50.3477C99.9349 50.3417 99.9275 50.337 99.9194 50.334C99.9113 50.3309 99.9026 50.3296 99.894 50.33C93.6928 50.5892 87.7161 52.7231 82.753 56.45C81.9803 57.026 81.2183 57.6553 80.467 58.338C75.6642 62.6685 72.1691 68.2565 70.377 74.47C68.4474 80.8318 68.6479 87.6496 70.948 93.887C71.4189 95.1521 71.9656 96.3876 72.585 97.587C72.5895 97.5957 72.5957 97.6033 72.6033 97.6095C72.6109 97.6157 72.6196 97.6203 72.629 97.623C72.648 97.6286 72.6685 97.6265 72.686 97.617C76.958 95.1503 81.2187 92.6943 85.468 90.249C85.7472 90.0611 86.0682 89.9443 86.403 89.909C86.5958 89.9127 86.7842 89.9671 86.9493 90.0666C87.1145 90.1661 87.2506 90.3073 87.344 90.476C87.4488 90.6966 87.4838 90.944 87.4444 91.185C87.4049 91.4261 87.2927 91.6494 87.123 91.825C87.0743 91.8717 86.728 92.082 86.084 92.456C81.7553 94.9647 77.422 97.4647 73.084 99.956C72.8262 100.128 72.5328 100.238 72.226 100.28C71.9904 100.289 71.7587 100.219 71.568 100.08C71.3979 99.9383 71.2583 99.7634 71.158 99.566C68.5207 94.965 67.0457 89.79 66.861 84.49V82.56C66.9174 80.8832 67.0912 79.2125 67.381 77.56C68.8416 69.3947 73.0334 61.9681 79.269 56.498C82.7979 53.3256 86.9703 50.9528 91.501 49.542C94.4706 48.6194 97.5585 48.133 100.668 48.098C100.987 48.0721 101.309 48.1178 101.608 48.232C101.829 48.3445 102.002 48.5341 102.093 48.765C102.167 48.9831 102.199 49.213 102.188 49.443C102.188 60.4477 102.191 71.4527 102.198 82.458C102.209 82.6742 102.155 82.8888 102.044 83.0744C101.932 83.2599 101.768 83.4081 101.572 83.5C98.3053 85.422 95.027 87.322 91.737 89.2C91.469 89.3786 91.1628 89.4916 90.843 89.53C90.6581 89.525 90.4775 89.4731 90.3182 89.3791C90.1588 89.2852 90.0259 89.1523 89.932 88.993Z" fill="black"/>
<path d="M142.859 82.318V84.025C142.689 89.3926 141.297 94.6508 138.79 99.4C138.632 99.7631 138.375 100.075 138.049 100.3C137.853 100.404 137.632 100.449 137.411 100.429C137.19 100.41 136.98 100.328 136.805 100.192L136.452 99.965C126.985 94.4983 117.521 89.029 108.059 83.557C107.838 83.4296 107.675 83.2218 107.603 82.977C107.551 82.7476 107.529 82.5121 107.539 82.277C107.529 75.5997 107.526 68.9227 107.53 62.246C107.53 61.4273 107.534 60.997 107.543 60.955C107.585 60.6934 107.719 60.4553 107.92 60.2834C108.122 60.1115 108.378 60.0171 108.643 60.0171C108.908 60.0171 109.164 60.1115 109.366 60.2834C109.567 60.4553 109.701 60.6934 109.743 60.955C109.75 60.9883 109.752 61.4217 109.75 62.255C109.737 67.3263 109.748 72.3637 109.781 77.367L109.751 81.903C109.751 81.9262 109.757 81.949 109.769 81.969C109.781 81.989 109.798 82.0056 109.818 82.017L137.036 97.744C137.045 97.7485 137.054 97.7513 137.064 97.7522C137.073 97.7531 137.083 97.7521 137.092 97.7492C137.102 97.7463 137.11 97.7417 137.118 97.7354C137.125 97.7292 137.131 97.7216 137.136 97.713C137.748 96.5152 138.274 95.2758 138.712 94.004C140.009 90.4355 140.655 86.6636 140.621 82.867C140.569 77.9494 139.409 73.1067 137.228 68.699C134.723 63.4805 130.867 59.0279 126.06 55.8035C121.252 52.5791 115.67 50.7005 109.891 50.363C109.874 50.3618 109.857 50.364 109.841 50.3696C109.825 50.3753 109.811 50.3841 109.798 50.3957C109.786 50.4072 109.776 50.4212 109.769 50.4367C109.762 50.4523 109.759 50.4691 109.759 50.486V55.438C109.783 55.7879 109.737 56.139 109.624 56.471C109.529 56.6504 109.387 56.8013 109.214 56.9079C109.041 57.0146 108.843 57.0733 108.64 57.078C108.472 57.0648 108.309 57.0173 108.16 56.9383C108.012 56.8594 107.881 56.7507 107.776 56.619C107.619 56.3664 107.543 56.0711 107.561 55.774C107.528 53.88 107.517 51.9853 107.528 50.09C107.515 49.7012 107.533 49.312 107.581 48.926C107.62 48.7741 107.693 48.633 107.794 48.5128C107.895 48.3926 108.021 48.2963 108.164 48.231C108.43 48.1238 108.717 48.0809 109.003 48.106C116.657 48.2811 124.03 51.0247 129.937 55.896C133.38 58.7147 136.247 62.1708 138.381 66.075C141.157 71.0511 142.693 76.6226 142.859 82.318Z" fill="black"/>
<path d="M99.956 77.263C84.128 86.3737 74.6427 91.8403 71.5 93.663C71.3322 93.7718 71.1452 93.8475 70.949 93.886C68.649 87.6493 68.4481 80.8323 70.377 74.471C72.1694 68.2574 75.6649 62.6693 80.468 58.339C81.2193 57.6563 81.9813 57.027 82.754 56.451C87.7171 52.7241 93.6938 50.5902 99.895 50.331C99.9037 50.3306 99.9123 50.332 99.9204 50.335C99.9285 50.338 99.9359 50.3427 99.9422 50.3487C99.9485 50.3546 99.9535 50.3618 99.9569 50.3698C99.9603 50.3778 99.962 50.3863 99.962 50.395L99.956 77.263Z" fill="#FF5A00"/>
<path d="M138.724 94.003L109.788 77.366C109.755 72.366 109.744 67.3287 109.757 62.254C109.757 61.422 109.755 60.9887 109.75 60.954C109.692 60.6976 109.552 60.467 109.352 60.2962C109.152 60.1255 108.902 60.0237 108.64 60.006V57.075C108.843 57.0702 109.041 57.0115 109.214 56.9048C109.387 56.7981 109.529 56.6474 109.624 56.468C109.737 56.136 109.783 55.7849 109.759 55.435V50.485C109.759 50.4681 109.762 50.4513 109.769 50.4357C109.776 50.4202 109.786 50.4062 109.798 50.3947C109.811 50.3831 109.825 50.3743 109.841 50.3686C109.857 50.363 109.874 50.3608 109.891 50.362C115.672 50.6976 121.257 52.5753 126.066 55.7998C130.875 59.0243 134.733 63.478 137.239 68.698C139.42 73.1057 140.58 77.9484 140.632 82.866C140.666 86.6625 140.02 90.4345 138.724 94.003Z" fill="#2EDFFC"/>
<path d="M99.956 77.262L99.962 81.814C99.9621 81.8407 99.955 81.867 99.9415 81.8901C99.9279 81.9131 99.9084 81.9321 99.885 81.945C96.7883 83.7083 93.692 85.4943 90.596 87.303C90.3043 87.4447 90.0549 87.6605 89.873 87.929C89.7921 88.0967 89.755 88.2822 89.7653 88.4681C89.7757 88.654 89.833 88.8343 89.932 88.992L87.345 90.478C87.2516 90.3093 87.1155 90.1681 86.9504 90.0686C86.7852 89.9691 86.5968 89.9147 86.404 89.911C86.0693 89.9463 85.7482 90.063 85.469 90.251C81.2197 92.699 76.959 95.155 72.687 97.619C72.6695 97.6285 72.649 97.6306 72.63 97.625C72.6206 97.6223 72.6119 97.6177 72.6043 97.6115C72.5967 97.6053 72.5905 97.5977 72.586 97.589C71.9666 96.3896 71.4199 95.1541 70.949 93.889C71.1452 93.8505 71.3322 93.7748 71.5 93.666C74.6393 91.8407 84.1247 86.3727 99.956 77.262Z" fill="#707070"/>
<path opacity="0.8" d="M99.956 77.262L99.962 81.814C99.9621 81.8407 99.955 81.867 99.9415 81.8901C99.9279 81.9131 99.9084 81.9321 99.885 81.945C96.7883 83.7083 93.692 85.4943 90.596 87.303C90.3043 87.4447 90.0549 87.6605 89.873 87.929C89.7921 88.0967 89.755 88.2822 89.7653 88.4681C89.7757 88.654 89.833 88.8343 89.932 88.992L87.345 90.478C87.2516 90.3093 87.1155 90.1681 86.9504 90.0686C86.7852 89.9691 86.5968 89.9147 86.404 89.911C86.0693 89.9463 85.7482 90.063 85.469 90.251C81.2197 92.699 76.959 95.155 72.687 97.619C72.6695 97.6285 72.649 97.6306 72.63 97.625C72.6206 97.6223 72.6119 97.6177 72.6043 97.6115C72.5967 97.6053 72.5905 97.5977 72.586 97.589C71.9666 96.3896 71.4199 95.1541 70.949 93.889C71.1452 93.8505 71.3322 93.7748 71.5 93.666C74.6393 91.8407 84.1247 86.3727 99.956 77.262Z" fill="#FF5A00"/>
<path d="M109.789 77.366L138.725 94.003C138.288 95.2749 137.761 96.5143 137.149 97.712C137.144 97.7206 137.138 97.7282 137.131 97.7345C137.123 97.7407 137.115 97.7454 137.105 97.7482C137.096 97.7511 137.086 97.7521 137.077 97.7512C137.067 97.7503 137.058 97.7475 137.049 97.743L109.826 82.016C109.806 82.0046 109.789 81.988 109.777 81.968C109.765 81.948 109.759 81.9252 109.759 81.902L109.789 77.366Z" fill="#27BDF3"/>
<path d="M117.96 97.481C117.881 97.6181 117.774 97.7371 117.646 97.8301C117.518 97.9232 117.372 97.9883 117.217 98.0212C117.062 98.0542 116.902 98.0541 116.747 98.0212C116.592 97.9882 116.446 97.9231 116.318 97.83C112.575 95.6587 108.801 93.4743 104.994 91.277C104.959 91.2568 104.92 91.2462 104.88 91.2462C104.839 91.2462 104.8 91.2568 104.765 91.277L79.843 105.727L77.732 106.95C77.7228 106.955 77.7149 106.963 77.7087 106.971C77.7025 106.98 77.6982 106.99 77.696 107C77.6938 107.01 77.6938 107.021 77.6958 107.032C77.6979 107.042 77.702 107.052 77.708 107.061C79.3123 109.46 81.213 111.647 83.365 113.57C83.4858 113.665 83.5864 113.782 83.661 113.917C83.7355 114.051 83.7825 114.198 83.7991 114.351C83.8157 114.504 83.8016 114.658 83.7576 114.805C83.7136 114.952 83.6406 115.089 83.543 115.207C83.4039 115.34 83.2352 115.438 83.0508 115.494C82.8663 115.549 82.6714 115.56 82.482 115.525C82.1579 115.422 81.8646 115.239 81.629 114.994C79.1354 112.743 76.9781 110.145 75.223 107.28C75.0941 107.11 75.0163 106.907 74.9986 106.695C74.9809 106.482 75.024 106.269 75.123 106.08C75.3385 105.789 75.6216 105.554 75.948 105.396C85.1867 100.043 94.4263 94.691 103.667 89.341C104.156 89.0576 104.412 88.9117 104.436 88.903C104.638 88.83 104.856 88.8117 105.068 88.85C105.269 88.8971 105.461 88.9779 105.636 89.089C109.563 91.351 113.485 93.6176 117.404 95.889C117.547 95.956 117.675 96.0509 117.781 96.1682C117.886 96.2855 117.967 96.4227 118.019 96.5718C118.071 96.7209 118.093 96.8789 118.082 97.0364C118.072 97.1939 118.031 97.3478 117.96 97.489V97.481Z" fill="black"/>
<path d="M117.959 97.481L120.519 98.981C120.427 99.1406 120.376 99.3203 120.37 99.5044C120.365 99.6884 120.404 99.871 120.486 100.036C120.669 100.302 120.917 100.515 121.207 100.656C124.086 102.331 126.98 104.016 129.889 105.713C124.098 112.238 115.973 116.223 107.269 116.807C106.281 116.886 105.29 116.915 104.3 116.893C97.7983 116.793 91.4681 114.792 86.09 111.137C83.8036 109.583 81.7064 107.768 79.841 105.728L104.763 91.278C104.798 91.2578 104.837 91.2472 104.878 91.2472C104.918 91.2472 104.957 91.2578 104.992 91.278C108.799 93.478 112.573 95.6623 116.316 97.831C116.444 97.9242 116.59 97.9895 116.745 98.0224C116.9 98.0554 117.061 98.0554 117.216 98.0223C117.371 97.9893 117.517 97.9241 117.645 97.8308C117.773 97.7375 117.88 97.6183 117.959 97.481Z" fill="#93DDB7"/>
<path d="M85.898 116.975C86.0263 116.771 86.22 116.616 86.4475 116.536C86.675 116.455 86.9229 116.455 87.151 116.533C87.5182 116.668 87.8686 116.845 88.195 117.061C88.7243 117.378 89.0596 117.576 89.201 117.655C94.0642 120.353 99.5402 121.753 105.101 121.72C110.663 121.687 116.122 120.223 120.953 117.468C121.82 116.976 122.656 116.447 123.462 115.881C126.851 113.499 129.759 110.497 132.033 107.034C132.039 107.026 132.042 107.017 132.044 107.007C132.046 106.997 132.046 106.988 132.044 106.978C132.042 106.969 132.038 106.96 132.032 106.952C132.027 106.944 132.019 106.938 132.011 106.933L129.893 105.71C126.984 104.013 124.09 102.327 121.211 100.653C120.921 100.512 120.673 100.299 120.49 100.033C120.408 99.868 120.369 99.6854 120.374 99.5014C120.38 99.3173 120.431 99.1375 120.523 98.978C120.593 98.8432 120.691 98.725 120.811 98.6313C120.931 98.5376 121.069 98.4707 121.217 98.435C121.364 98.3992 121.518 98.3956 121.667 98.4242C121.817 98.4528 121.958 98.5131 122.082 98.601C128.825 102.493 132.858 104.831 134.182 105.615C134.372 105.705 134.529 105.852 134.631 106.036C134.733 106.221 134.774 106.432 134.748 106.641C134.672 106.985 134.526 107.309 134.32 107.595C131.205 112.617 126.856 116.756 121.686 119.618C116.516 122.48 110.699 123.968 104.79 123.942C103.797 123.942 102.81 123.895 101.827 123.802C96.4617 123.321 91.2812 121.602 86.693 118.779C86.4669 118.641 86.2589 118.475 86.074 118.285C85.8948 118.123 85.7788 117.902 85.7466 117.662C85.7144 117.422 85.768 117.179 85.898 116.975Z" fill="black"/>
<path d="M129.89 105.71L132.008 106.933C132.016 106.938 132.024 106.944 132.029 106.952C132.035 106.96 132.039 106.969 132.041 106.978C132.043 106.988 132.043 106.998 132.041 107.007C132.039 107.017 132.036 107.026 132.03 107.034C129.756 110.497 126.848 113.499 123.459 115.881C122.654 116.447 121.818 116.976 120.95 117.468C116.119 120.223 110.66 121.687 105.098 121.72C99.5372 121.753 94.0612 120.353 89.198 117.655C89.0566 117.577 88.7213 117.379 88.192 117.061C87.8659 116.845 87.5159 116.668 87.149 116.533C86.9209 116.454 86.673 116.455 86.4455 116.536C86.218 116.616 86.0243 116.771 85.896 116.975L83.542 115.201C83.6396 115.083 83.7126 114.946 83.7566 114.799C83.8005 114.652 83.8146 114.498 83.7981 114.345C83.7815 114.192 83.7345 114.045 83.66 113.911C83.5854 113.776 83.4848 113.659 83.364 113.564C81.2127 111.642 79.3123 109.457 77.708 107.06C77.702 107.051 77.6978 107.041 77.6957 107.031C77.6937 107.02 77.6938 107.009 77.696 106.999C77.6982 106.989 77.7025 106.979 77.7087 106.97C77.7149 106.962 77.7228 106.954 77.732 106.949L79.843 105.73C81.7084 107.77 83.8056 109.585 86.092 111.139C91.4701 114.794 97.8003 116.795 104.302 116.895C105.292 116.917 106.283 116.888 107.271 116.809C115.976 116.224 124.101 112.237 129.89 105.71Z" fill="#5ED297"/>
</g>
<defs>
<clipPath id="clip0_1_959">
<rect width="200" height="150" fill="white" transform="translate(0.5)"/>
</clipPath>
</defs>
</svg>
