<svg width="18" height="24" viewBox="0 0 18 24" fill="none" xmlns="http://www.w3.org/2000/svg">
<g clip-path="url(#clip0_1_1004)">
<path d="M11.208 23.863C11.139 23.894 11.07 23.926 10.995 23.957H6.87296L6.65996 23.863C6.47509 23.7767 6.32358 23.6321 6.2286 23.4516C6.13361 23.271 6.10037 23.0643 6.13396 22.863C6.16595 22.6523 6.27047 22.4594 6.42948 22.3176C6.58849 22.1757 6.79202 22.0938 7.00496 22.086C8.28896 22.073 9.57996 22.073 10.864 22.086C11.0766 22.095 11.2795 22.1773 11.4383 22.3189C11.597 22.4606 11.7019 22.6528 11.735 22.863C11.7678 23.0643 11.7341 23.2708 11.639 23.4513C11.5439 23.6317 11.3926 23.7763 11.208 23.863Z" fill="#FF5A00"/>
<path d="M16.057 15.024C15.8726 14.9251 15.7211 14.7747 15.6209 14.591C15.5208 14.4074 15.4763 14.1985 15.493 13.99C15.499 12.09 15.512 10.181 15.493 8.27C15.4646 6.74296 14.9038 5.27377 13.9075 4.1162C12.9111 2.95863 11.5418 2.18538 10.036 1.93C9.88598 1.905 9.86098 1.849 9.86698 1.717C9.87298 1.441 9.87298 1.172 9.86698 0.896004C9.85651 0.655204 9.75365 0.4277 9.57978 0.260778C9.4059 0.0938568 9.1744 0.000357198 8.93337 -0.000286571C8.69234 -0.000930339 8.46034 0.0913312 8.28558 0.257322C8.11081 0.423312 8.00674 0.650263 7.99498 0.891004C7.98898 1.117 7.98198 1.342 7.99498 1.568C8.00798 1.794 7.96398 1.9 7.69498 1.956C6.17814 2.24097 4.81141 3.05439 3.83759 4.25175C2.86376 5.44912 2.3459 6.95292 2.37598 8.496V14.072C2.38667 14.2585 2.34399 14.4442 2.25296 14.6073C2.16193 14.7704 2.02631 14.9042 1.86198 14.993C1.4542 15.2222 1.11387 15.5546 0.875161 15.9569C0.636451 16.3592 0.507752 16.8173 0.501981 17.285C0.486647 17.6642 0.548564 18.0426 0.683972 18.3971C0.81938 18.7517 1.02545 19.075 1.28967 19.3474C1.55388 19.6199 1.87073 19.8358 2.22096 19.982C2.57118 20.1282 2.94748 20.2017 3.32698 20.198C5.19398 20.204 7.06098 20.198 8.92698 20.198C10.793 20.198 12.692 20.204 14.571 20.198C15.1757 20.193 15.7629 19.9936 16.2456 19.6294C16.7284 19.2651 17.0812 18.7552 17.252 18.175C17.4293 17.5916 17.4082 16.9658 17.192 16.3957C16.9757 15.8255 16.5766 15.3431 16.057 15.024ZM15.457 17.624C15.4053 17.83 15.2844 18.0119 15.1145 18.1394C14.9447 18.2668 14.7362 18.332 14.524 18.324H3.35198C3.1676 18.3337 2.98459 18.2875 2.827 18.1913C2.6694 18.0951 2.5446 17.9534 2.46898 17.785C2.39131 17.6301 2.35999 17.4561 2.3788 17.2839C2.3976 17.1116 2.46572 16.9485 2.57498 16.814C2.66533 16.7054 2.77651 16.616 2.90198 16.551C3.32263 16.32 3.67112 15.977 3.90886 15.5601C4.1466 15.1432 4.26432 14.6687 4.24898 14.189C4.26798 12.278 4.25498 10.361 4.25498 8.444C4.24065 7.27665 4.6623 6.14594 5.43747 5.27299C6.21264 4.40005 7.28558 3.84767 8.44643 3.72388C9.60729 3.60009 10.7726 3.9138 11.7144 4.60365C12.6562 5.2935 13.3068 6.30988 13.539 7.454C13.6016 7.79073 13.633 8.13251 13.633 8.475V14.007C13.5998 14.5236 13.7137 15.039 13.9615 15.4935C14.2093 15.948 14.5808 16.323 15.033 16.575C15.2108 16.6774 15.3495 16.8361 15.4272 17.026C15.5049 17.2159 15.5171 17.4263 15.462 17.624H15.457Z" fill="#FF5A00"/>
</g>
<defs>
<clipPath id="clip0_1_1004">
<rect width="16.872" height="23.958" fill="white" transform="translate(0.5)"/>
</clipPath>
</defs>
</svg>
