<svg width="336" height="220" viewBox="0 0 336 220" fill="none" xmlns="http://www.w3.org/2000/svg">
<g clip-path="url(#clip0_1_1008)">
<path fill-rule="evenodd" clip-rule="evenodd" d="M32.559 218.545H303.444C303.623 218.565 303.788 218.65 303.908 218.784C304.029 218.919 304.095 219.092 304.095 219.272C304.095 219.453 304.029 219.626 303.908 219.761C303.788 219.895 303.623 219.98 303.444 220H32.559C32.38 219.98 32.2146 219.895 32.0945 219.761C31.9744 219.626 31.908 219.453 31.908 219.272C31.908 219.092 31.9744 218.919 32.0945 218.784C32.2146 218.65 32.38 218.565 32.559 218.545Z" fill="#092978"/>
<path d="M118.86 218.542C118.86 218.542 130.895 212.574 129.108 203.331C127.321 194.088 117.537 195.06 118.86 187.763C120.183 180.466 126.609 169.101 120.36 160.831C114.111 152.561 103.719 157.518 102.415 144.693C101.364 134.357 96.983 127.037 88.493 129.183C80.637 131.171 74.777 137.802 74.631 153.576C74.474 170.376 63.624 165.652 63.488 178.025C63.353 190.486 72.458 190.486 76.014 198.846C77.694 202.794 73.314 216.674 86.26 218.546L118.86 218.542Z" fill="#FF5A00"/>
<path d="M89.812 135.899C89.812 135.899 89.78 136.181 89.736 136.732C89.599 138.386 89.323 142.414 89.323 148.032C89.323 164.459 91.698 194.465 106.697 218.413C106.723 218.453 106.745 218.496 106.762 218.541H105.191C90.328 194.293 88.013 164.449 88.009 148.031C88.009 140.476 88.504 135.761 88.509 135.738C88.5146 135.649 88.5379 135.561 88.5777 135.481C88.6175 135.4 88.6729 135.329 88.7407 135.27C88.8085 135.211 88.8873 135.167 88.9725 135.139C89.0578 135.111 89.1477 135.101 89.237 135.108C89.4175 135.14 89.5786 135.24 89.6864 135.388C89.7942 135.536 89.8403 135.721 89.815 135.902" fill="white"/>
<path fill-rule="evenodd" clip-rule="evenodd" d="M107.362 218.542C107.362 218.542 107.746 207.136 100.643 202.493C93.54 197.85 86.288 194.233 87.076 186.75C87.864 179.267 85.927 170.437 74.546 170.27C67.512 170.17 70.154 162.085 63.005 160.47C58.661 159.49 55.795 164.433 55.241 169.287C54.607 174.815 57.479 180.251 54.187 184.753C49.913 190.588 48.178 201.466 57.362 204.563C66.546 207.66 58.362 217.138 70.87 218.539L107.362 218.542Z" fill="#FF5A00"/>
<path d="M62.024 165.891C62.263 173.156 65.224 183.499 70.281 193.368C75.338 203.237 82.489 212.656 91.032 218.203C91.1554 218.284 91.25 218.403 91.302 218.541H89.046C80.814 212.734 74.017 203.597 69.134 194.067C63.995 184.025 60.974 173.56 60.711 165.944C60.6977 165.762 60.7568 165.582 60.8755 165.443C60.9942 165.304 61.1629 165.217 61.345 165.202C61.4349 165.202 61.5238 165.221 61.6067 165.256C61.6895 165.291 61.7647 165.342 61.8278 165.406C61.891 165.47 61.9409 165.545 61.9748 165.629C62.0086 165.712 62.0257 165.801 62.025 165.891" fill="white"/>
<path d="M184.699 218.251C184.699 218.251 169.458 210.694 171.721 198.991C173.984 187.288 186.372 188.516 184.699 179.275C183.026 170.034 174.885 155.645 182.799 145.175C190.713 134.705 203.871 140.975 205.519 124.74C206.851 111.652 212.398 102.383 223.147 105.101C233.098 107.618 240.519 116.015 240.702 135.989C240.902 157.256 254.64 151.28 254.81 166.948C254.981 182.723 243.451 182.723 238.951 193.311C236.824 198.311 242.37 215.882 225.976 218.252L184.699 218.251Z" fill="#FF5A00"/>
<path d="M221.482 113.604C221.482 113.604 221.517 113.962 221.577 114.659C221.751 116.753 222.098 121.859 222.098 128.959C222.104 149.759 219.093 187.759 200.098 218.08C200.067 218.132 200.039 218.187 200.016 218.243H202.005C220.826 187.543 223.756 149.743 223.762 128.958C223.762 119.391 223.137 113.421 223.134 113.392C223.127 113.278 223.098 113.167 223.048 113.065C222.998 112.963 222.928 112.872 222.842 112.797C222.756 112.723 222.656 112.666 222.548 112.631C222.44 112.596 222.325 112.582 222.212 112.592C221.985 112.632 221.782 112.759 221.646 112.945C221.51 113.131 221.452 113.363 221.483 113.592" fill="white"/>
<path fill-rule="evenodd" clip-rule="evenodd" d="M201.167 218.252C201.167 218.252 198.767 203.808 207.762 197.927C216.757 192.046 225.943 187.471 224.945 177.994C223.947 168.517 226.4 157.336 240.808 157.126C249.717 156.999 246.374 146.76 255.424 144.72C260.924 143.479 264.551 149.739 265.255 155.885C266.055 162.885 262.42 169.767 266.59 175.468C272.004 182.856 274.198 196.633 262.571 200.552C250.944 204.471 261.305 216.477 245.471 218.252H201.167Z" fill="#FF5A00"/>
<path d="M256.667 151.582C256.367 160.782 252.62 173.882 246.214 186.375C239.808 198.868 230.751 210.801 219.936 217.825C219.778 217.927 219.658 218.076 219.592 218.252H222.452C232.876 210.897 241.482 199.328 247.666 187.261C254.166 174.545 257.995 161.293 258.33 151.649C258.347 151.419 258.272 151.191 258.122 151.016C257.973 150.84 257.76 150.73 257.53 150.71C257.416 150.711 257.303 150.733 257.198 150.778C257.093 150.822 256.998 150.886 256.918 150.967C256.838 151.048 256.775 151.144 256.732 151.25C256.689 151.355 256.666 151.468 256.667 151.582Z" fill="white"/>
<path fill-rule="evenodd" clip-rule="evenodd" d="M224.28 218.596H238.003C238.315 218.592 238.615 218.474 238.847 218.265C239.079 218.056 239.226 217.769 239.262 217.459C239.273 217.368 239.275 217.276 239.268 217.184L238.713 209.747C238.271 209.548 237.811 209.392 237.34 209.279C237.102 209.223 236.884 209.105 236.705 208.938C236.527 208.771 236.396 208.561 236.324 208.327L236.295 208.22C235.982 206.788 233.981 206.334 233.612 207.731C233.565 207.912 233.524 208.088 233.486 208.256C233.48 208.298 233.47 208.342 233.464 208.382C233.404 208.682 233.364 208.959 233.328 209.202V209.217C233.284 209.552 233.26 209.89 233.258 210.228C233.078 210.465 232.901 210.7 232.731 210.928C232.646 211.043 232.56 211.157 232.478 211.27C232.295 211.511 232.121 211.746 231.951 211.97C231.872 212.077 231.79 212.18 231.711 212.282C231.522 212.527 231.332 212.76 231.143 212.982C231.061 213.082 230.976 213.182 230.891 213.269C230.323 213.989 229.521 214.489 228.624 214.683C227.137 214.893 224.706 215.062 223.532 217.315C223.508 217.361 223.488 217.409 223.472 217.459C223.43 217.588 223.419 217.725 223.44 217.859C223.46 217.993 223.512 218.12 223.59 218.231C223.669 218.341 223.772 218.432 223.892 218.495C224.012 218.559 224.145 218.593 224.28 218.596Z" fill="#F9A719"/>
<path d="M224.28 218.593H238.003C238.315 218.589 238.615 218.472 238.847 218.263C239.078 218.054 239.226 217.768 239.262 217.458H223.471C223.429 217.587 223.418 217.724 223.439 217.858C223.459 217.991 223.511 218.119 223.589 218.229C223.668 218.339 223.771 218.43 223.891 218.493C224.011 218.556 224.145 218.59 224.28 218.593Z" fill="#F2C686"/>
<path fill-rule="evenodd" clip-rule="evenodd" d="M254.422 161.382V169.853C254.422 179.246 252.768 199.872 252.171 211.27L245.886 211.147L240.728 170.036L231.917 171.302L231.481 160.084C231.381 121.302 251.181 130.333 249.45 152.321C249.257 154.741 255.344 158.722 254.422 161.382Z" fill="#111243"/>
<path fill-rule="evenodd" clip-rule="evenodd" d="M231.358 163.666H243.02L238.84 211.32L232.217 211.491L231.358 163.666Z" fill="#111243"/>
<path fill-rule="evenodd" clip-rule="evenodd" d="M243.692 217.898C243.806 219.964 250.903 219.253 252.036 218.632C252.247 218.498 252.419 218.312 252.535 218.09C252.651 217.869 252.706 217.621 252.696 217.372C252.675 216.373 252.491 215.385 252.15 214.446C251.695 212.991 251.75 213.018 251.44 212.024C251.44 212.024 251.522 210.405 249.199 209.787C246.876 209.169 246.02 213.197 245.622 213.971C245.259 214.682 243.845 215.653 243.7 217.4C243.687 217.566 243.685 217.733 243.694 217.9" fill="#F9A719"/>
<path d="M243.692 217.898C243.806 219.964 250.903 219.253 252.036 218.632C252.247 218.498 252.419 218.312 252.535 218.09C252.651 217.869 252.706 217.621 252.696 217.372C251.442 217.98 250.064 218.288 248.671 218.272C246.967 218.386 245.262 218.086 243.699 217.398C243.686 217.564 243.683 217.731 243.692 217.898Z" fill="#F2C686"/>
<path fill-rule="evenodd" clip-rule="evenodd" d="M240.727 170.039L237.838 210.895L238.801 210.819L241.746 178.167L240.727 170.039Z" fill="black"/>
<path fill-rule="evenodd" clip-rule="evenodd" d="M237.586 132.258C235.433 137.003 234.028 138.51 227.859 139.432C222.859 140.18 213.331 128.892 212.612 127.352C211.893 125.812 214.626 121.786 215.512 122.252C216.398 122.718 226.659 130.587 227.36 130.537C228.061 130.487 230.492 129.376 235.985 125.799C236.506 125.464 239.108 129.967 237.585 132.259" fill="#DA7A27"/>
<path fill-rule="evenodd" clip-rule="evenodd" d="M257.591 127.893C259.646 130.965 253.569 150.012 255.283 165.621C245.674 167.277 235.906 167.094 230.167 165.262C230.179 153.45 230.814 137.226 233.254 128.406C233.828 126.975 234.962 125.956 237.768 125.167C244.606 123.246 254.778 123.683 257.591 127.893Z" fill="#F9A719"/>
<path fill-rule="evenodd" clip-rule="evenodd" d="M240.519 124.582C236.753 126.51 235.812 142.759 234.789 165.44C237.996 165.769 241.229 165.769 244.436 165.44C244.836 143.308 248.528 128.126 249.954 124.357C246.811 124.044 243.642 124.121 240.518 124.586" fill="#F9A719"/>
<path fill-rule="evenodd" clip-rule="evenodd" d="M246.917 147.347L262.973 156.808L256.41 168.017L240.351 158.556L246.917 147.347Z" fill="#1F1F1F"/>
<path opacity="0.8" fill-rule="evenodd" clip-rule="evenodd" d="M246.917 147.347L262.973 156.808L256.41 168.017L240.351 158.556L246.917 147.347Z" fill="#FF5A00"/>
<path fill-rule="evenodd" clip-rule="evenodd" d="M248.597 159.96L246.466 162.09L245.775 161.684C245.929 162.114 246.134 162.523 246.387 162.903C246.609 163.057 246.871 163.145 247.141 163.157C247.234 163.367 247.342 163.571 247.463 163.766C247.526 163.814 247.955 164.02 248.17 163.917C248.385 163.814 248.562 164.379 248.562 164.379C248.802 164.428 249.046 164.448 249.291 164.44C249.515 164.404 249.521 164.783 249.521 164.783C250.095 164.626 250.591 164.262 250.913 163.761C251.33 162.987 251.996 161.913 251.996 161.913C251.324 161.329 250.621 160.782 249.89 160.273C249.474 160.113 249.04 160.008 248.597 159.96Z" fill="#F4B1B0"/>
<path fill-rule="evenodd" clip-rule="evenodd" d="M252.021 133.139C249.6 127.839 252.592 125.473 255.516 125.939C260.81 127.292 266.196 143.458 264.8 147.658C263.825 150.497 253.309 162.406 251.724 161.98C251.355 161.88 248.106 160.816 248.839 158.655C249.069 157.977 256.939 146.78 257.154 145.77C257.508 144.089 252.804 134.655 252.021 133.142" fill="#DA7A27"/>
<path fill-rule="evenodd" clip-rule="evenodd" d="M215.257 122.8C215.277 123.627 215.091 124.446 214.715 125.183C214.34 125.92 213.787 126.552 213.107 127.022C212.99 126.822 212.307 125.928 211.847 125.245C210.872 123.778 213.179 120.711 213.855 121.392L215.257 122.8Z" fill="#DA7A27"/>
<path fill-rule="evenodd" clip-rule="evenodd" d="M239.72 118.931C240.286 120.271 241.245 121.408 242.47 122.192L242.299 124.145L241.999 124.368C240.806 125.486 241.706 128.39 242.792 129.45C244.692 129.359 248.938 125.943 248.073 124.45L247.688 123.95L247.783 121.175C247.947 121.175 249.197 120.575 249.56 120.488C249.84 120.349 250.081 120.141 250.26 119.885C250.438 119.628 250.55 119.33 250.583 119.019C250.668 118.291 249.529 118.451 249.529 118.451C251.016 116.674 252.664 115.251 250.776 113.433C248.888 111.615 244.364 110.316 244.364 110.316L241.157 109.247C241.444 110.228 241.031 112.837 240.188 114.782C239.43 116.527 238.941 117.056 239.721 118.926" fill="#F4B1B0"/>
<path fill-rule="evenodd" clip-rule="evenodd" d="M246.454 121.478C246.454 121.478 244.708 124.061 243.407 124.217C242.106 124.373 242.773 124.238 242.299 124.148L242.469 122.194C243.344 122.394 244.215 122.386 246.453 121.477" fill="#E78284"/>
<path fill-rule="evenodd" clip-rule="evenodd" d="M247.549 115.062C248.316 115.745 248.408 116.875 247.918 118.711C247.773 119.252 247.536 119.669 248.338 119.147C248.707 118.908 249.32 118.559 249.566 118.707C249.677 118.8 249.767 118.914 249.831 119.044C249.895 119.173 249.931 119.314 249.937 119.458C249.943 119.603 249.919 119.746 249.867 119.881C249.814 120.015 249.734 120.137 249.632 120.239C249.474 120.385 249.168 120.613 249.168 120.613C249.519 120.671 249.878 120.652 250.221 120.555C250.563 120.458 250.88 120.287 251.148 120.054C252.079 119.254 254.753 116.845 254.148 113.503C253.037 107.39 247.929 108.958 248.033 106.859C248.065 106.245 248.352 105.797 247.926 105.616C243.096 103.565 238.588 106.773 238.916 109.994C239.396 114.727 245.343 113.104 247.55 115.062" fill="black"/>
<path fill-rule="evenodd" clip-rule="evenodd" d="M251.394 116.17C251.782 116.785 251.942 117.517 251.845 118.238C251.749 118.958 251.403 119.622 250.867 120.114C249.743 121.284 248.158 121.414 247.331 120.407C246.943 119.792 246.783 119.06 246.88 118.339C246.977 117.618 247.325 116.954 247.862 116.463C248.983 115.293 250.567 115.163 251.394 116.17Z" fill="#707070"/>
<path opacity="0.8" fill-rule="evenodd" clip-rule="evenodd" d="M251.394 116.17C251.782 116.785 251.942 117.517 251.845 118.238C251.749 118.958 251.403 119.622 250.867 120.114C249.743 121.284 248.158 121.414 247.331 120.407C246.943 119.792 246.783 119.06 246.88 118.339C246.977 117.618 247.325 116.954 247.862 116.463C248.983 115.293 250.567 115.163 251.394 116.17Z" fill="#FF5A00"/>
<path fill-rule="evenodd" clip-rule="evenodd" d="M251.707 116.499C252.094 117.114 252.253 117.846 252.157 118.567C252.06 119.288 251.713 119.952 251.177 120.443C250.053 121.614 248.477 121.743 247.641 120.736C247.254 120.121 247.095 119.389 247.192 118.668C247.288 117.947 247.635 117.283 248.171 116.792C248.472 116.443 248.856 116.176 249.287 116.013C249.719 115.851 250.184 115.798 250.64 115.861L250.466 115.569C251.2 114.468 251.538 113.15 251.423 111.832C251.211 109.632 250.529 109.016 248.891 107.789L249.109 107.549C253.355 108.284 254.324 113.365 251.394 116.174L251.315 116.14C251.462 116.24 251.594 116.361 251.707 116.498" fill="#FF5A00"/>
<path fill-rule="evenodd" clip-rule="evenodd" d="M202.389 41.123L126.489 39.111C123.214 39.1432 120.084 40.47 117.784 42.8017C115.483 45.1334 114.199 48.2806 114.211 51.556V206.099C114.199 209.375 115.483 212.522 117.783 214.854C120.084 217.186 123.214 218.513 126.489 218.545H200.158C203.434 218.513 206.564 217.187 208.865 214.855C211.166 212.523 212.45 209.375 212.438 206.099V51.556C212.438 44.71 209.138 41.123 202.389 41.123Z" fill="#284A9E"/>
<path d="M132.482 39.111C131.916 39.1108 131.351 39.1502 130.791 39.229H130.782L130.571 39.26L130.385 39.291L130.228 39.32H130.213C129.854 39.3867 129.5 39.4707 129.151 39.572C128.982 39.6207 128.815 39.673 128.651 39.729H128.643L128.554 39.758H128.547L128.459 39.789C128.114 39.911 127.777 40.0473 127.446 40.198H127.443C127.087 40.3607 126.741 40.54 126.404 40.736L126.247 40.83L126.092 40.924C125.865 41.064 125.644 41.2113 125.428 41.366C125.257 41.4887 125.088 41.615 124.923 41.745C124.794 41.847 124.668 41.9517 124.543 42.059C124.458 42.1317 124.375 42.2053 124.292 42.28C123.994 42.5507 123.709 42.8353 123.438 43.134C123.363 43.216 123.289 43.299 123.217 43.383C123.11 43.507 123.006 43.6337 122.904 43.763C122.771 43.9277 122.644 44.0943 122.524 44.263C122.157 44.7762 121.829 45.3164 121.543 45.879L121.512 45.941C121.423 46.1177 121.339 46.2967 121.259 46.478C121.181 46.654 121.107 46.8317 121.038 47.011V47.017C120.921 47.3177 120.816 47.6237 120.723 47.935C120.701 48.007 120.68 48.079 120.66 48.151V48.157C120.603 48.363 120.55 48.571 120.503 48.781V48.791C120.352 49.4676 120.257 50.1557 120.22 50.848C120.208 51.0707 120.202 51.2947 120.202 51.52V206.099C120.202 206.466 120.218 206.83 120.25 207.19V207.21C120.266 207.394 120.286 207.578 120.311 207.76V207.779C120.337 207.979 120.368 208.17 120.404 208.362V208.374C120.433 208.529 120.464 208.684 120.498 208.837C120.507 208.879 120.517 208.92 120.527 208.961V208.974C120.556 209.097 120.587 209.22 120.62 209.341V209.348C120.792 209.985 121.014 210.607 121.284 211.209C121.53 211.755 121.814 212.283 122.136 212.789C122.237 212.948 122.342 213.105 122.451 213.26C122.503 213.334 122.551 213.407 122.609 213.479L122.703 213.605C122.776 213.701 122.849 213.796 122.924 213.889C123.027 214.017 123.132 214.143 123.239 214.268C123.332 214.375 123.426 214.48 123.522 214.583C124.087 215.192 124.711 215.743 125.385 216.228H125.39C125.49 216.302 125.599 216.375 125.705 216.446L125.798 216.508L125.892 216.57C126.025 216.657 126.162 216.742 126.302 216.823C126.488 216.933 126.677 217.038 126.868 217.139L126.926 217.169H126.932C127.036 217.222 127.141 217.274 127.246 217.324C127.586 217.487 127.934 217.634 128.291 217.766C128.508 217.846 128.729 217.92 128.952 217.987C129.139 218.044 129.327 218.096 129.517 218.144L129.64 218.175C129.835 218.222 130.031 218.264 130.229 218.301H130.241C130.614 218.368 130.991 218.42 131.374 218.457H131.381C131.739 218.489 132.102 218.506 132.469 218.506H206.369C206.732 218.506 207.091 218.49 207.446 218.457H207.463C207.563 218.448 207.663 218.438 207.763 218.426H207.772C207.854 218.417 207.935 218.407 208.017 218.395H208.024C208.157 218.376 208.291 218.355 208.424 218.332C208.635 218.295 208.845 218.254 209.053 218.207H209.059C209.227 218.168 209.394 218.126 209.559 218.081C209.632 218.061 209.705 218.041 209.778 218.019H209.783C210.07 217.934 210.354 217.839 210.633 217.734L210.791 217.673H210.797L210.949 217.612H210.954C211.102 217.551 211.248 217.489 211.393 217.423L211.454 217.394H211.461C211.849 217.214 212.227 217.014 212.594 216.794C212.875 216.626 213.149 216.447 213.415 216.258C213.586 216.136 213.753 216.01 213.915 215.88L214.07 215.754C214.137 215.702 214.2 215.649 214.259 215.596C214.344 215.523 214.429 215.45 214.512 215.375C215.198 214.758 215.813 214.068 216.348 213.317C216.481 213.132 216.608 212.944 216.727 212.752C216.824 212.598 216.918 212.442 217.009 212.284V212.279C217.051 212.206 217.092 212.132 217.131 212.059C217.264 211.812 217.391 211.56 217.51 211.303C217.61 211.085 217.71 210.863 217.793 210.639C217.937 210.272 218.064 209.896 218.173 209.512V209.499C218.194 209.426 218.213 209.352 218.232 209.279C218.254 209.196 218.275 209.112 218.295 209.029C218.355 208.781 218.408 208.53 218.453 208.277V208.269C218.464 208.208 218.473 208.147 218.483 208.085C218.506 207.94 218.527 207.794 218.545 207.647V207.641C218.572 207.426 218.593 207.209 218.608 206.99V206.944C218.626 206.667 218.637 206.388 218.637 206.106V51.556C218.637 51.266 218.627 50.9787 218.607 50.694V50.672C218.592 50.456 218.571 50.2417 218.545 50.029V50.016C218.519 49.8073 218.488 49.6003 218.452 49.395V49.379C218.415 49.171 218.374 48.9647 218.327 48.76V48.753C218.318 48.713 218.307 48.673 218.298 48.633V48.623C218.25 48.423 218.197 48.226 218.14 48.032C218.039 47.688 217.924 47.3503 217.795 47.019V47.011C217.716 46.811 217.633 46.613 217.544 46.417V46.411C217.411 46.111 217.263 45.8173 217.102 45.53C217.061 45.4567 217.02 45.3833 216.978 45.31C216.867 45.118 216.751 44.9297 216.63 44.745C216.589 44.682 216.547 44.618 216.504 44.555C216.432 44.448 216.358 44.344 216.282 44.239C216.22 44.1537 216.157 44.0693 216.094 43.986C215.971 43.8253 215.844 43.6677 215.714 43.513C215.514 43.2737 215.303 43.0403 215.081 42.813L214.987 42.713L214.956 42.682L214.925 42.651C214.77 42.4997 214.612 42.352 214.451 42.208C214.318 42.0893 214.181 41.9737 214.042 41.861L213.886 41.736C213.572 41.4887 213.246 41.257 212.908 41.041C212.775 40.955 212.638 40.8713 212.499 40.79C212.1 40.5565 211.688 40.3458 211.265 40.159L211.046 40.059L210.896 39.997H210.888L210.734 39.937C210.241 39.7467 209.736 39.5887 209.223 39.464H209.214L209.091 39.435C208.886 39.3877 208.679 39.3457 208.47 39.309H208.458C208.249 39.273 208.039 39.242 207.827 39.216C207.599 39.1887 207.369 39.1677 207.137 39.153C206.886 39.137 206.637 39.128 206.377 39.128L132.482 39.111Z" fill="url(#paint0_linear_1_1008)"/>
<path fill-rule="evenodd" clip-rule="evenodd" d="M118.153 88.079C117.253 88.079 116.512 87.092 116.512 85.885V59.814C116.512 58.609 117.25 57.621 118.153 57.621V88.079ZM118.153 109.288C117.253 109.288 116.512 108.301 116.512 107.096V95.917C116.512 94.711 117.25 93.724 118.153 93.724V109.288Z" fill="white"/>
<path fill-rule="evenodd" clip-rule="evenodd" d="M129.114 210.835H129.099L128.956 210.807H128.937C128.815 210.78 128.695 210.747 128.577 210.707L128.484 210.677H128.479C128.396 210.649 128.313 210.618 128.232 210.585H128.224C128.152 210.556 128.081 210.525 128.011 210.492C127.948 210.462 127.886 210.432 127.825 210.399C127.752 210.36 127.679 210.32 127.608 210.277H127.601C127.474 210.2 127.35 210.117 127.229 210.028H127.224C127.118 209.949 127.014 209.866 126.914 209.778L126.886 209.753V209.746H126.868C126.641 209.543 126.432 209.322 126.244 209.083C126.212 209.043 126.181 209.003 126.15 208.962V208.935C126.097 208.864 126.046 208.792 125.997 208.718V208.713L125.937 208.622C125.87 208.521 125.808 208.418 125.75 208.312V208.306C125.66 208.145 125.577 207.979 125.501 207.806V207.798C125.469 207.725 125.438 207.652 125.409 207.578C125.307 207.321 125.223 207.057 125.157 206.788C125.146 206.744 125.136 206.7 125.126 206.656V206.63H125.12C125.111 206.589 125.102 206.548 125.094 206.506C125.07 206.383 125.049 206.258 125.031 206.132V206.095H125.026C124.989 205.811 124.97 205.525 124.97 205.239V53.762C124.97 53.4768 124.988 53.1918 125.025 52.909H125.031V52.867C125.048 52.742 125.069 52.619 125.093 52.497V52.49C125.112 52.3967 125.132 52.304 125.155 52.212V52.206C125.191 52.058 125.234 51.912 125.28 51.769C125.29 51.738 125.3 51.708 125.311 51.677C125.34 51.5923 125.371 51.509 125.403 51.427V51.421C125.423 51.3697 125.444 51.319 125.465 51.269C125.581 50.9958 125.717 50.7317 125.873 50.479C125.892 50.449 125.911 50.418 125.931 50.388H125.937V50.379C126.034 50.2283 126.138 50.0837 126.248 49.945V49.939C126.289 49.8877 126.33 49.837 126.373 49.787C126.536 49.5955 126.713 49.416 126.902 49.25H126.91V49.235L126.938 49.211C127.068 49.0994 127.203 48.9946 127.344 48.897C127.406 48.8543 127.469 48.813 127.532 48.773C127.584 48.7403 127.637 48.709 127.69 48.679L127.746 48.648H127.753C127.854 48.5927 127.957 48.5413 128.062 48.494H128.069C128.141 48.4613 128.214 48.4307 128.288 48.402C128.377 48.368 128.466 48.3367 128.557 48.308H128.572L128.663 48.281C128.744 48.2577 128.827 48.237 128.91 48.219H128.916C128.966 48.208 129.016 48.198 129.067 48.189H129.106V48.182C129.285 48.1512 129.465 48.1322 129.646 48.125H209.203C209.328 48.1297 209.451 48.14 209.574 48.156C209.637 48.164 209.699 48.173 209.761 48.184H209.779L209.919 48.212H209.936C210.015 48.2293 210.094 48.249 210.172 48.271H210.186C210.364 48.3215 210.538 48.3832 210.708 48.456H210.718C210.866 48.5198 211.01 48.5916 211.15 48.671V48.678H211.162L211.214 48.708C211.299 48.758 211.382 48.8107 211.464 48.866C211.539 48.9167 211.612 48.9693 211.684 49.024C211.737 49.064 211.79 49.106 211.841 49.148C211.926 49.219 212.009 49.293 212.091 49.37L212.186 49.462L212.215 49.49L212.243 49.519L212.272 49.549L212.302 49.581C212.378 49.6617 212.452 49.7453 212.523 49.832C212.566 49.8833 212.607 49.9353 212.647 49.988C212.678 50.029 212.709 50.07 212.74 50.113C212.807 50.203 212.869 50.295 212.928 50.389V50.397H212.933L212.991 50.49C213.034 50.5607 213.075 50.6327 213.116 50.706V50.712L213.145 50.764V50.775H213.151C213.218 50.897 213.279 51.022 213.335 51.15C213.367 51.222 213.398 51.295 213.427 51.369C213.46 51.4517 213.491 51.535 213.521 51.619L213.551 51.708V51.714L213.581 51.805C213.628 51.9557 213.67 52.109 213.706 52.265V52.28C213.742 52.4373 213.772 52.5973 213.797 52.76V52.786C213.807 52.8567 213.816 52.9277 213.825 52.999V53.039C213.837 53.1537 213.846 53.269 213.852 53.385V53.514H213.857V205.444H213.852V205.568C213.846 205.686 213.837 205.803 213.824 205.919V205.954C213.816 206.027 213.806 206.1 213.795 206.172V206.194C213.778 206.304 213.759 206.413 213.737 206.521H213.732V206.547C213.723 206.592 213.713 206.636 213.703 206.68V206.69C213.694 206.729 213.685 206.768 213.675 206.806V206.82C213.638 206.966 213.596 207.109 213.549 207.25C213.503 207.389 213.452 207.526 213.397 207.66H213.392V207.673C213.371 207.722 213.35 207.77 213.329 207.818C213.281 207.925 213.23 208.031 213.177 208.134H213.168V208.145L213.14 208.198V208.204L213.109 208.261C213.05 208.368 212.987 208.473 212.922 208.576L212.863 208.667V208.673L212.803 208.762C212.744 208.847 212.683 208.931 212.62 209.012H212.614V209.02C212.39 209.307 212.138 209.569 211.86 209.804C211.769 209.881 211.675 209.954 211.58 210.023L211.495 210.083H211.485V210.09C211.373 210.167 211.259 210.238 211.142 210.305L211.089 210.334H211.079V210.34C210.978 210.395 210.876 210.446 210.772 210.493H210.768L210.705 210.521C210.653 210.543 210.605 210.564 210.549 210.584C210.46 210.618 210.369 210.649 210.277 210.678H210.268L210.173 210.706C210.036 210.746 209.897 210.78 209.757 210.806H209.731C209.669 210.817 209.607 210.826 209.544 210.834C209.375 210.855 209.206 210.865 209.036 210.865H129.823C129.585 210.865 129.348 210.844 129.114 210.804" fill="#ECF4FF"/>
<path fill-rule="evenodd" clip-rule="evenodd" d="M209.044 45.852H129.823C128.53 45.8588 127.292 46.3765 126.379 47.2921C125.466 48.2077 124.952 49.447 124.949 50.74V60.179H213.918V50.74C213.915 49.447 213.401 48.2077 212.488 47.2921C211.575 46.3765 210.337 45.8588 209.044 45.852Z" fill="#C3DCFA"/>
<path fill-rule="evenodd" clip-rule="evenodd" d="M136.522 105.751H202.983C203.502 105.753 203.999 105.961 204.366 106.328C204.732 106.696 204.938 107.194 204.939 107.713C204.938 108.232 204.732 108.73 204.366 109.097C203.999 109.465 203.502 109.673 202.983 109.675H136.522C136.003 109.673 135.506 109.465 135.139 109.097C134.773 108.73 134.567 108.232 134.566 107.713C134.567 107.194 134.773 106.696 135.139 106.328C135.506 105.961 136.003 105.753 136.522 105.751Z" fill="#FF5A00"/>
<path fill-rule="evenodd" clip-rule="evenodd" d="M136.522 114.72H202.983C203.502 114.722 203.999 114.93 204.366 115.298C204.732 115.665 204.938 116.163 204.939 116.682C204.938 117.201 204.732 117.699 204.366 118.066C203.999 118.434 203.502 118.642 202.983 118.644H136.522C136.003 118.642 135.506 118.434 135.139 118.066C134.773 117.699 134.567 117.201 134.566 116.682C134.567 116.163 134.773 115.665 135.139 115.298C135.506 114.93 136.003 114.722 136.522 114.72Z" fill="#FF5A00"/>
<path fill-rule="evenodd" clip-rule="evenodd" d="M136.522 123.692H202.983C203.502 123.694 203.999 123.902 204.366 124.269C204.732 124.637 204.938 125.135 204.939 125.654C204.938 126.173 204.732 126.671 204.366 127.038C203.999 127.406 203.502 127.614 202.983 127.616H136.522C136.003 127.614 135.506 127.406 135.139 127.038C134.773 126.671 134.567 126.173 134.566 125.654C134.567 125.135 134.773 124.637 135.139 124.269C135.506 123.902 136.003 123.694 136.522 123.692Z" fill="#FF5A00"/>
<path fill-rule="evenodd" clip-rule="evenodd" d="M136.522 132.664H202.983C203.241 132.664 203.496 132.715 203.734 132.813C203.972 132.912 204.188 133.056 204.37 133.239C204.552 133.421 204.697 133.637 204.796 133.875C204.894 134.113 204.945 134.368 204.945 134.626C204.945 134.884 204.894 135.139 204.796 135.377C204.697 135.615 204.552 135.831 204.37 136.013C204.188 136.195 203.972 136.34 203.734 136.439C203.496 136.537 203.241 136.588 202.983 136.588H136.522C136.002 136.588 135.503 136.381 135.135 136.013C134.767 135.645 134.56 135.146 134.56 134.626C134.56 134.106 134.767 133.607 135.135 133.239C135.503 132.871 136.002 132.664 136.522 132.664Z" fill="#FF5A00"/>
<path fill-rule="evenodd" clip-rule="evenodd" d="M136.522 141.635H164.757C165.276 141.637 165.773 141.845 166.14 142.212C166.506 142.58 166.712 143.078 166.713 143.597C166.712 144.116 166.506 144.614 166.14 144.982C165.773 145.349 165.276 145.557 164.757 145.559H136.522C136.001 145.558 135.503 145.35 135.135 144.981C134.768 144.612 134.562 144.113 134.563 143.592C134.564 143.073 134.77 142.575 135.136 142.208C135.503 141.84 136 141.632 136.519 141.63" fill="#FF5A00"/>
<path fill-rule="evenodd" clip-rule="evenodd" d="M136.522 163.666H202.983C203.502 163.668 203.999 163.876 204.366 164.244C204.732 164.611 204.938 165.109 204.939 165.628C204.938 166.147 204.732 166.645 204.366 167.012C203.999 167.38 203.502 167.588 202.983 167.59H136.522C136.003 167.588 135.506 167.38 135.139 167.012C134.773 166.645 134.567 166.147 134.566 165.628C134.567 165.109 134.773 164.611 135.139 164.244C135.506 163.876 136.003 163.668 136.522 163.666Z" fill="#FF5A00"/>
<path fill-rule="evenodd" clip-rule="evenodd" d="M136.522 172.637H164.757C165.276 172.639 165.773 172.847 166.14 173.214C166.506 173.582 166.712 174.08 166.713 174.599C166.712 175.118 166.506 175.616 166.14 175.984C165.773 176.351 165.276 176.559 164.757 176.561H136.522C136.003 176.559 135.506 176.351 135.139 175.983C134.773 175.616 134.567 175.118 134.566 174.599C134.567 174.08 134.773 173.582 135.139 173.215C135.506 172.847 136.003 172.639 136.522 172.637Z" fill="#FF5A00"/>
<path fill-rule="evenodd" clip-rule="evenodd" d="M137.999 180.026H144.848C145.759 180.03 146.632 180.394 147.275 181.04C147.918 181.685 148.28 182.559 148.281 183.47V190.56C148.28 191.471 147.918 192.345 147.275 192.99C146.632 193.636 145.759 194 144.848 194.004H137.999C137.088 194 136.215 193.636 135.572 192.99C134.929 192.345 134.567 191.471 134.566 190.56V183.47C134.567 182.559 134.929 181.685 135.572 181.04C136.215 180.394 137.088 180.03 137.999 180.026Z" fill="#FF5A00"/>
<path fill-rule="evenodd" clip-rule="evenodd" d="M154.155 180.026H161.004C161.915 180.03 162.787 180.395 163.431 181.04C164.074 181.685 164.436 182.559 164.437 183.47V190.56C164.436 191.471 164.074 192.345 163.431 192.99C162.788 193.636 161.915 194 161.004 194.004H154.155C153.244 194 152.371 193.636 151.728 192.99C151.085 192.345 150.723 191.471 150.722 190.56V183.47C150.723 182.559 151.085 181.685 151.728 181.04C152.371 180.394 153.244 180.03 154.155 180.026Z" fill="#FF5A00"/>
<path fill-rule="evenodd" clip-rule="evenodd" d="M171.155 180.026H178.003C178.914 180.03 179.786 180.395 180.43 181.04C181.073 181.685 181.435 182.559 181.436 183.47V190.56C181.435 191.471 181.073 192.345 180.43 192.99C179.787 193.636 178.914 194 178.003 194.004H171.155C170.244 194 169.371 193.636 168.728 192.99C168.085 192.345 167.723 191.471 167.722 190.56V183.47C167.723 182.559 168.085 181.685 168.728 181.04C169.371 180.395 170.244 180.03 171.155 180.026Z" fill="#FF5A00"/>
<path fill-rule="evenodd" clip-rule="evenodd" d="M187.311 180.026H194.16C195.071 180.03 195.944 180.394 196.587 181.04C197.23 181.685 197.592 182.559 197.593 183.47V190.56C197.592 191.471 197.23 192.345 196.587 192.99C195.944 193.636 195.071 194 194.16 194.004H187.311C186.4 194 185.527 193.636 184.884 192.99C184.241 192.345 183.879 191.471 183.878 190.56V183.47C183.879 182.559 184.241 181.685 184.884 181.04C185.527 180.394 186.4 180.03 187.311 180.026Z" fill="#FF5A00"/>
<path d="M210.072 153.822H134.566V154.489H210.072V153.822Z" fill="#B1D2FC"/>
<path fill-rule="evenodd" clip-rule="evenodd" d="M150.984 48.83H204.719C205.661 48.8347 206.563 49.2117 207.229 49.8787C207.894 50.5457 208.269 51.4487 208.272 52.391C208.27 53.3343 207.896 54.2386 207.23 54.9066C206.564 55.5745 205.66 55.9518 204.717 55.956H150.984C150.041 55.9523 149.137 55.5752 148.471 54.9071C147.805 54.2391 147.43 53.3344 147.429 52.391C147.43 51.4476 147.805 50.5431 148.471 49.8751C149.137 49.2071 150.041 48.83 150.984 48.826" fill="white"/>
<path fill-rule="evenodd" clip-rule="evenodd" d="M132.961 48.83C133.895 48.8345 134.79 49.2084 135.45 49.8701C136.109 50.5318 136.48 51.4276 136.482 52.362V52.429C136.466 53.3527 136.089 54.2333 135.43 54.881C134.771 55.5287 133.884 55.8916 132.96 55.8916C132.037 55.8916 131.15 55.5287 130.491 54.881C129.832 54.2333 129.455 53.3527 129.439 52.429V52.362C129.44 51.4276 129.811 50.5316 130.471 49.8698C131.131 49.208 132.027 48.8342 132.961 48.83Z" fill="white"/>
<path fill-rule="evenodd" clip-rule="evenodd" d="M141.933 48.83C142.867 48.8342 143.762 49.2081 144.422 49.8699C145.081 50.5317 145.452 51.4276 145.453 52.362V52.429C145.452 53.3632 145.081 54.2589 144.421 54.9204C143.762 55.582 142.867 55.9558 141.933 55.96C140.999 55.9558 140.104 55.582 139.445 54.9204C138.785 54.2589 138.414 53.3632 138.413 52.429V52.362C138.414 51.4277 138.785 50.5319 139.445 49.8702C140.104 49.2084 140.999 48.8345 141.933 48.83Z" fill="white"/>
<path fill-rule="evenodd" clip-rule="evenodd" d="M106.932 218.605H93.35C93.042 218.602 92.7455 218.488 92.516 218.282C92.2865 218.077 92.1397 217.795 92.103 217.489C92.0908 217.399 92.0882 217.308 92.095 217.217L92.647 209.902C93.0842 209.709 93.5381 209.555 94.003 209.444C94.2379 209.389 94.4543 209.273 94.631 209.109C94.8077 208.945 94.9387 208.737 95.011 208.507C95.02 208.473 95.03 208.437 95.037 208.407C95.35 206.998 97.328 206.551 97.695 207.926C97.741 208.103 97.782 208.277 97.819 208.443C97.827 208.485 97.836 208.528 97.843 208.568C97.902 208.862 97.943 209.135 97.975 209.368V209.383C98.0187 209.715 98.0411 210.049 98.042 210.383C98.2213 210.617 98.3953 210.847 98.564 211.073C98.651 211.186 98.733 211.297 98.814 211.409C98.993 211.647 99.166 211.879 99.338 212.101C99.416 212.201 99.496 212.306 99.573 212.407C99.762 212.648 99.947 212.879 100.134 213.092C100.217 213.192 100.301 213.284 100.386 213.375C100.949 214.084 101.741 214.576 102.627 214.765C104.102 214.973 106.506 215.139 107.669 217.354C107.692 217.399 107.712 217.447 107.727 217.495C107.768 217.622 107.778 217.757 107.757 217.889C107.736 218.02 107.685 218.145 107.607 218.254C107.529 218.362 107.428 218.451 107.309 218.513C107.191 218.575 107.06 218.609 106.927 218.611" fill="#269DD8"/>
<path d="M106.932 218.605H93.35C93.0421 218.602 92.7456 218.488 92.5161 218.282C92.2865 218.077 92.1397 217.795 92.103 217.489H107.73C107.771 217.616 107.781 217.751 107.76 217.883C107.739 218.014 107.688 218.139 107.61 218.248C107.533 218.356 107.431 218.445 107.312 218.507C107.194 218.569 107.063 218.603 106.93 218.605" fill="#263C86"/>
<path fill-rule="evenodd" clip-rule="evenodd" d="M100.457 164.011H88.385L92.52 211.511L99.078 211.684L100.457 164.011Z" fill="#273373"/>
<path fill-rule="evenodd" clip-rule="evenodd" d="M77.1 161.735V170.18C77.1 179.542 78.735 200.101 79.328 211.464L85.547 211.341L91.24 165.386L100.417 165.394L100.543 160.549C100.108 121.814 80.307 130.786 82.022 152.704C82.209 155.116 76.185 159.088 77.1 161.735Z" fill="#273373"/>
<path fill-rule="evenodd" clip-rule="evenodd" d="M87.72 217.921C87.607 219.954 80.582 219.252 79.46 218.643C79.2519 218.512 79.0822 218.329 78.968 218.111C78.8538 217.894 78.7993 217.65 78.81 217.404C78.829 216.422 79.0118 215.449 79.351 214.527C79.801 213.096 79.738 213.127 80.051 212.144C80.051 212.144 79.97 210.554 82.272 209.944C84.574 209.334 85.418 213.297 85.81 214.058C86.169 214.758 87.568 215.71 87.71 217.43C87.7249 217.592 87.7275 217.755 87.718 217.918" fill="#269DD8"/>
<path d="M87.72 217.921C87.607 219.954 80.582 219.252 79.46 218.643C79.2519 218.512 79.0822 218.329 78.968 218.111C78.8538 217.893 78.7993 217.65 78.81 217.404C80.0511 218.002 81.4135 218.305 82.791 218.29C84.4767 218.402 86.1645 218.107 87.713 217.432C87.7279 217.594 87.7305 217.757 87.721 217.92" fill="#263C86"/>
<path fill-rule="evenodd" clip-rule="evenodd" d="M93.14 136.489C95.272 141.218 97.918 146.638 104.023 147.557C108.975 148.302 111.59 136.869 112.304 135.333C113.018 133.797 111.804 129.28 109.436 130.249C107.068 131.218 103.949 138.549 103.295 138.502C102.528 138.452 101.981 129.838 97.239 127.074C96.5 126.643 92.223 134.455 93.139 136.49" fill="#269DD8"/>
<path fill-rule="evenodd" clip-rule="evenodd" d="M81.323 124.825C79.9084 124.811 78.5095 125.122 77.234 125.734C75.9586 126.346 74.8409 127.243 73.967 128.355C71.933 131.417 77.948 150.402 76.253 165.962H101.597C101.58 153.643 100.886 141.333 99.517 129.09C96.362 124.073 86.175 124.824 81.324 124.824" fill="#269DD8"/>
<path fill-rule="evenodd" clip-rule="evenodd" d="M90.858 125.051C94.591 127.09 95.45 142.725 96.479 165.967H87.003C86.596 143.143 82.935 128.718 81.52 124.822C84.6301 124.511 87.7669 124.588 90.858 125.051Z" fill="white"/>
<path fill-rule="evenodd" clip-rule="evenodd" d="M79.432 132.82C80.532 130.533 80.321 128.484 78.211 127.063C74.138 124.396 67.072 136.496 64.695 142.969C63.732 145.597 67.211 158.32 68.109 159.498C68.581 160.119 70.082 163.264 71.884 159.998C71.917 159.935 70.172 147.278 70.363 145.97C70.611 144.27 78.663 134.426 79.431 132.824" fill="#269DD8"/>
<path fill-rule="evenodd" clip-rule="evenodd" d="M108.481 131.503C108.672 133.134 110.815 135.241 112.034 135.375C112.095 135.12 112.562 133.959 112.841 133.089C113.441 131.22 110.066 128.635 109.549 129.569L108.481 131.503Z" fill="#269DD8"/>
<path fill-rule="evenodd" clip-rule="evenodd" d="M110.695 128.207C110.647 127.446 110.495 124.428 110.895 123.807C111.095 123.487 111.188 123.58 111.349 123.7C111.543 123.892 111.673 124.139 111.723 124.407C111.809 124.85 111.868 125.297 111.901 125.747C113.252 124.458 114.219 122.064 115.001 120.391C115.319 119.711 116.083 119.556 115.901 120.659C115.612 121.72 115.24 122.756 114.789 123.759L117.051 123.546C117.52 123.085 117.709 123.775 117.527 124.139C116.907 124.815 116.184 125.389 115.385 125.839L116.876 125.165C117.376 124.801 117.276 125.578 117.165 125.741C116.568 126.207 115.914 126.595 115.218 126.894L116.394 126.641C117.081 126.172 116.394 127.441 116.194 127.568C115.663 127.773 115.166 128.057 114.719 128.41C113.79 129.695 113.045 131.103 112.504 132.594C111.342 132.022 110.424 131.053 109.916 129.862L110.695 128.207Z" fill="#F4B1B0"/>
<path fill-rule="evenodd" clip-rule="evenodd" d="M71.543 159.779L71.937 161.389L73.31 163.155C73.31 163.155 74.179 163.829 74.086 164.111C74.068 164.164 72.519 163.799 72.48 163.86C72.148 164.376 72.871 167.46 72.815 167.448C67.752 166.354 70.079 163.648 68.673 160.167C68.193 158.977 70.573 159.024 71.543 159.779Z" fill="#F4B1B0"/>
<path fill-rule="evenodd" clip-rule="evenodd" d="M92.723 121.432C91.9365 122.53 90.8216 123.351 89.539 123.775V125.016L89.76 125.316C90.56 126.73 90.127 129.574 88.793 130.267C86.705 129.511 83.884 127.646 83.317 125.026L83.689 124.678L84.197 124.318L84.445 121.218C84.288 121.171 83.282 120.232 82.961 120.043C82.7352 119.828 82.5669 119.56 82.4717 119.263C82.3765 118.966 82.3574 118.649 82.416 118.343C82.546 117.625 83.579 118.111 83.579 118.111C82.679 115.982 81.535 114.146 83.846 112.962C86.157 111.778 90.813 111.868 90.813 111.868L93.701 111.561C93.145 112.412 93.239 115.245 93.478 117.346C93.691 119.23 94.002 119.878 92.722 121.431" fill="#F4B1B0"/>
<path fill-rule="evenodd" clip-rule="evenodd" d="M85.615 121.889C85.615 121.889 86.523 124.862 87.708 125.389C88.2689 125.701 88.8949 125.877 89.536 125.904V123.773C88.0569 123.592 86.6785 122.93 85.614 121.887" fill="#E78284"/>
<path fill-rule="evenodd" clip-rule="evenodd" d="M90.699 105.506C97.527 107.641 94.928 114.265 91.225 114.699C89.308 115.021 87.057 113.069 85.562 114.488C84.821 115.188 84.949 117.074 85.486 118.888C85.646 119.422 85.886 119.831 85.086 119.335C84.716 119.107 84.099 118.778 83.86 118.935C83.7527 119.031 83.6665 119.147 83.6068 119.278C83.5471 119.409 83.5152 119.551 83.5131 119.694C83.5111 119.838 83.5389 119.98 83.5948 120.113C83.6507 120.245 83.7335 120.364 83.838 120.463C83.999 120.604 84.308 120.822 84.308 120.822C83.9654 120.933 83.5985 120.944 83.2495 120.856C82.9005 120.768 82.5835 120.582 82.335 120.322C77.952 115.433 79.152 109.022 87.653 107.268C89.026 106.985 89.17 105.029 90.702 105.508" fill="#273373"/>
<path fill-rule="evenodd" clip-rule="evenodd" d="M114.887 118.646C114.487 119.773 110.55 128.013 110.55 128.013L112.812 131.307L113.258 131.401L118.293 121.94L115.435 118.74L114.887 118.646Z" fill="#2E2F80"/>
<path fill-rule="evenodd" clip-rule="evenodd" d="M114.835 120.221L111.397 127.477L112.943 129.729L116.818 122.335L114.835 120.221Z" fill="white"/>
<path fill-rule="evenodd" clip-rule="evenodd" d="M254.665 75.7C256.011 75.695 257.329 76.0898 258.45 76.8342C259.572 77.5786 260.447 78.6392 260.966 79.8815C261.484 81.1239 261.622 82.4922 261.362 83.8131C261.102 85.1339 260.456 86.3479 259.505 87.3012C258.555 88.2545 257.343 88.9042 256.023 89.1681C254.703 89.4319 253.334 89.298 252.09 88.7833C250.846 88.2686 249.783 87.3963 249.035 86.2768C248.288 85.1574 247.889 83.8412 247.89 82.495C247.891 80.6967 248.605 78.9722 249.875 77.6987C251.144 76.4253 252.867 75.7066 254.665 75.7Z" fill="#707070"/>
<path opacity="0.8" fill-rule="evenodd" clip-rule="evenodd" d="M254.665 75.7C256.011 75.695 257.329 76.0898 258.45 76.8342C259.572 77.5786 260.447 78.6392 260.966 79.8815C261.484 81.1239 261.622 82.4922 261.362 83.8131C261.102 85.1339 260.456 86.3479 259.505 87.3012C258.555 88.2545 257.343 88.9042 256.023 89.1681C254.703 89.4319 253.334 89.298 252.09 88.7833C250.846 88.2686 249.783 87.3963 249.035 86.2768C248.288 85.1574 247.889 83.8412 247.89 82.495C247.891 80.6967 248.605 78.9722 249.875 77.6987C251.144 76.4253 252.867 75.7066 254.665 75.7Z" fill="#FF5A00"/>
<path d="M257.184 78.845H252.144C251.963 78.8483 251.791 78.9213 251.663 79.0488C251.535 79.1763 251.461 79.3484 251.457 79.529V85.455C251.461 85.6356 251.535 85.8077 251.663 85.9352C251.791 86.0627 251.963 86.1357 252.144 86.139H257.184C257.365 86.1357 257.537 86.0627 257.665 85.9352C257.793 85.8077 257.867 85.6356 257.871 85.455V79.529C257.867 79.3484 257.793 79.1763 257.665 79.0488C257.537 78.9213 257.365 78.8483 257.184 78.845ZM253.29 85.045C253.286 85.0921 253.265 85.1362 253.232 85.1695C253.198 85.2028 253.154 85.2232 253.107 85.227H252.558C252.511 85.2232 252.467 85.2028 252.433 85.1695C252.4 85.1362 252.379 85.0921 252.375 85.045V84.498C252.379 84.4509 252.4 84.4068 252.433 84.3735C252.467 84.3402 252.511 84.3198 252.558 84.316H253.107C253.154 84.3198 253.198 84.3402 253.232 84.3735C253.265 84.4068 253.286 84.4509 253.29 84.498V85.045ZM253.29 83.222C253.286 83.2691 253.265 83.3132 253.232 83.3465C253.198 83.3798 253.154 83.4002 253.107 83.404H252.558C252.511 83.4002 252.467 83.3798 252.433 83.3465C252.4 83.3132 252.379 83.2691 252.375 83.222V82.675C252.379 82.6279 252.4 82.5838 252.433 82.5505C252.467 82.5172 252.511 82.4968 252.558 82.493H253.107C253.154 82.4968 253.198 82.5172 253.232 82.5505C253.265 82.5838 253.286 82.6279 253.29 82.675V83.222ZM255.123 85.045C255.119 85.0921 255.098 85.1362 255.065 85.1695C255.031 85.2028 254.987 85.2232 254.94 85.227H254.39C254.343 85.2232 254.299 85.2028 254.265 85.1695C254.232 85.1362 254.211 85.0921 254.207 85.045V84.498C254.211 84.4509 254.232 84.4068 254.265 84.3735C254.299 84.3402 254.343 84.3198 254.39 84.316H254.94C254.987 84.3198 255.031 84.3402 255.065 84.3735C255.098 84.4068 255.119 84.4509 255.123 84.498V85.045ZM255.123 83.222C255.119 83.2691 255.098 83.3132 255.065 83.3465C255.031 83.3798 254.987 83.4002 254.94 83.404H254.39C254.343 83.4002 254.299 83.3798 254.265 83.3465C254.232 83.3132 254.211 83.2691 254.207 83.222V82.675C254.211 82.6279 254.232 82.5838 254.265 82.5505C254.299 82.5172 254.343 82.4968 254.39 82.493H254.94C254.987 82.4968 255.031 82.5172 255.065 82.5505C255.098 82.5838 255.119 82.6279 255.123 82.675V83.222ZM256.956 85.045C256.952 85.0921 256.931 85.1362 256.898 85.1695C256.864 85.2028 256.82 85.2232 256.773 85.227H256.223C256.176 85.2232 256.132 85.2028 256.098 85.1695C256.065 85.1362 256.044 85.0921 256.04 85.045V82.675C256.044 82.6279 256.065 82.5838 256.098 82.5505C256.132 82.5172 256.176 82.4968 256.223 82.493H256.773C256.82 82.4968 256.864 82.5172 256.898 82.5505C256.931 82.5838 256.952 82.6279 256.956 82.675V85.045ZM256.956 81.398C256.952 81.4451 256.931 81.4892 256.898 81.5225C256.864 81.5558 256.82 81.5762 256.773 81.58H252.559C252.512 81.5762 252.468 81.5558 252.434 81.5225C252.401 81.4892 252.38 81.4451 252.376 81.398V79.938C252.38 79.8909 252.401 79.8469 252.434 79.8135C252.468 79.7802 252.512 79.7598 252.559 79.756H256.774C256.821 79.7598 256.865 79.7802 256.899 79.8135C256.932 79.8469 256.953 79.8909 256.957 79.938L256.956 81.398Z" fill="white"/>
<path fill-rule="evenodd" clip-rule="evenodd" d="M215.997 62.128C236.851 62.128 236.957 90.467 216.539 90.467C208.015 90.467 201.106 84.123 201.106 76.298C201.106 68.473 207.474 62.128 215.997 62.128Z" fill="#FF5A00"/>
<path opacity="0.39" fill-rule="evenodd" clip-rule="evenodd" d="M218.459 62.128C239.31 62.128 239.422 90.467 219.003 90.467C210.479 90.467 203.57 84.123 203.57 76.298C203.57 68.473 209.938 62.129 218.458 62.129" fill="#FF5A00"/>
<path fill-rule="evenodd" clip-rule="evenodd" d="M214.865 70.616L225.908 76.154L214.865 81.692V70.616Z" fill="white"/>
<path fill-rule="evenodd" clip-rule="evenodd" d="M166.878 76.134H178.178C179.681 76.1406 181.12 76.7417 182.181 77.806C183.242 78.8702 183.839 80.3112 183.841 81.814V93.514C183.839 95.0169 183.242 96.458 182.181 97.5224C181.12 98.5868 179.681 99.1881 178.178 99.195H166.878C165.375 99.1881 163.936 98.5868 162.875 97.5224C161.814 96.458 161.217 95.0169 161.215 93.514V81.814C161.217 80.3112 161.814 78.8702 162.875 77.806C163.936 76.7417 165.375 76.1406 166.878 76.134Z" fill="#FF5A00"/>
<path d="M172.522 92.063C172.208 92.0692 171.899 91.986 171.631 91.823L167.136 89.311V91.305C167.176 91.305 167.176 91.345 167.216 91.345L171.716 93.897C171.964 94.0342 172.243 94.1062 172.526 94.1062C172.809 94.1062 173.088 94.0342 173.336 93.897L177.836 91.344C178.083 91.2036 178.289 90.9999 178.431 90.7539C178.573 90.5078 178.648 90.2283 178.646 89.944V88.868L173.422 91.825C173.154 91.9877 172.845 92.0706 172.531 92.064M180.347 85.405L173.341 81.418C173.091 81.2869 172.813 81.2185 172.531 81.2185C172.249 81.2185 171.971 81.2869 171.721 81.418L164.715 85.405C164.595 85.4729 164.495 85.5714 164.426 85.6906C164.356 85.8097 164.32 85.9451 164.32 86.083C164.32 86.2209 164.356 86.3563 164.426 86.4754C164.495 86.5946 164.595 86.6931 164.715 86.761L172.128 90.948C172.247 91.0291 172.389 91.071 172.533 91.068C172.676 91.0654 172.816 91.0239 172.938 90.948L180.347 86.761C180.467 86.6931 180.567 86.5946 180.636 86.4754C180.706 86.3563 180.742 86.2209 180.742 86.083C180.742 85.9451 180.706 85.8097 180.636 85.6906C180.567 85.5714 180.467 85.4729 180.347 85.405Z" fill="white"/>
<path fill-rule="evenodd" clip-rule="evenodd" d="M140.229 76.134H151.529C153.032 76.1406 154.471 76.7417 155.532 77.806C156.593 78.8702 157.19 80.3112 157.192 81.814V93.514C157.19 95.0169 156.593 96.458 155.532 97.5224C154.471 98.5868 153.032 99.1881 151.529 99.195H140.229C138.726 99.1881 137.287 98.5868 136.226 97.5224C135.165 96.458 134.568 95.0169 134.566 93.514V81.814C134.568 80.3112 135.165 78.8705 136.226 77.8062C137.287 76.742 138.726 76.1409 140.229 76.134Z" fill="#FF5A00"/>
<path d="M151.313 82.67C150.348 81.7583 149.07 81.2504 147.742 81.2504C146.415 81.2504 145.137 81.7583 144.172 82.67C143.351 83.4459 142.835 84.4904 142.718 85.6139C142.602 86.7375 142.891 87.8657 143.535 88.794L142.613 89.681L142.462 89.552C142.425 89.5154 142.374 89.4948 142.322 89.4948C142.27 89.4948 142.219 89.5154 142.182 89.552L138.895 92.719C138.823 92.792 138.782 92.8907 138.782 92.9935C138.782 93.0963 138.823 93.195 138.895 93.268L140.037 94.368C140.115 94.4382 140.217 94.477 140.322 94.477C140.427 94.477 140.529 94.4382 140.607 94.368L143.894 91.202C143.913 91.1848 143.929 91.1637 143.94 91.14C143.951 91.1163 143.956 91.0905 143.956 91.0645C143.956 91.0385 143.951 91.0128 143.94 90.989C143.929 90.9653 143.913 90.9442 143.894 90.927L143.743 90.781L144.631 89.925C145.613 90.6581 146.823 91.0211 148.046 90.9501C149.27 90.8791 150.429 90.3787 151.32 89.537C152.228 88.6718 152.756 87.4821 152.788 86.2284C152.821 84.9748 152.356 83.7593 151.494 82.848C151.437 82.7873 151.378 82.7283 151.318 82.671M150.178 88.455C149.522 89.0774 148.651 89.4243 147.747 89.4243C146.842 89.4243 145.972 89.0774 145.316 88.455C144.697 87.8665 144.336 87.0567 144.312 86.2027C144.288 85.3487 144.603 84.5201 145.189 83.898C145.23 83.854 145.273 83.8113 145.316 83.77C145.972 83.1476 146.842 82.8007 147.747 82.8007C148.651 82.8007 149.522 83.1476 150.178 83.77C150.497 84.0711 150.75 84.4341 150.924 84.8369C151.097 85.2397 151.186 85.6736 151.185 86.112C151.182 86.55 151.091 86.983 150.918 87.3854C150.746 87.7878 150.494 88.1515 150.178 88.455Z" fill="white"/>
<path fill-rule="evenodd" clip-rule="evenodd" d="M97.918 67.263H121.052C126.29 67.263 130.54 72.597 130.54 79.177V87.113C130.54 93.694 126.29 99.027 121.052 99.027H102.976L97.919 104.871V99.026C92.679 99.026 88.431 93.693 88.431 87.112V79.176C88.431 72.596 92.679 67.262 97.919 67.262" fill="#FF5A00"/>
<path d="M106.516 88.248C106.45 87.1336 106.714 86.0245 107.276 85.06C108.043 84.0984 108.963 83.2691 109.998 82.605C110.646 82.2064 111.194 81.6637 111.598 81.019C111.995 80.3618 112.198 79.6056 112.183 78.838C112.221 78.095 111.977 77.3651 111.499 76.795C111.25 76.5346 110.948 76.3315 110.613 76.1999C110.277 76.0683 109.917 76.0113 109.558 76.033C108.932 76.0145 108.323 76.2388 107.858 76.659C107.617 76.9029 107.429 77.1941 107.306 77.5142C107.183 77.8343 107.128 78.1765 107.144 78.519H102.139L102.108 78.427C102.031 77.5288 102.174 76.6253 102.525 75.7949C102.877 74.9646 103.425 74.2324 104.123 73.662C105.704 72.5351 107.619 71.9736 109.558 72.068C111.617 71.9497 113.647 72.6025 115.251 73.899C115.942 74.5168 116.487 75.2806 116.847 76.1349C117.207 76.9893 117.372 77.9129 117.331 78.839C117.335 80.0989 116.938 81.3273 116.198 82.347C115.454 83.4053 114.466 84.2687 113.317 84.864C112.76 85.1934 112.305 85.6711 112.003 86.244C111.749 86.8791 111.633 87.5607 111.661 88.244L106.516 88.248ZM111.646 94.592H106.538V90.474H111.646V94.592Z" fill="white"/>
<path fill-rule="evenodd" clip-rule="evenodd" d="M61.835 109.674C63.1796 109.67 64.4951 110.065 65.615 110.809C66.735 111.553 67.609 112.613 68.1265 113.854C68.644 115.095 68.7818 116.461 68.5222 117.78C68.2627 119.1 67.6176 120.312 66.6686 121.265C65.7196 122.217 64.5094 122.867 63.1911 123.131C61.8728 123.396 60.5056 123.263 59.2628 122.75C58.0199 122.237 56.9571 121.367 56.209 120.25C55.4609 119.133 55.061 117.819 55.06 116.474C55.0587 114.674 55.7712 112.948 57.0414 111.673C58.3115 110.398 60.0355 109.679 61.835 109.674Z" fill="#2D2D2D"/>
<path opacity="0.8" fill-rule="evenodd" clip-rule="evenodd" d="M61.835 109.674C63.1796 109.67 64.4951 110.065 65.615 110.809C66.735 111.553 67.609 112.613 68.1265 113.854C68.644 115.095 68.7818 116.461 68.5222 117.78C68.2627 119.1 67.6176 120.312 66.6686 121.265C65.7196 122.217 64.5094 122.867 63.1911 123.131C61.8728 123.396 60.5056 123.263 59.2628 122.75C58.0199 122.237 56.9571 121.367 56.209 120.25C55.4609 119.133 55.061 117.819 55.06 116.474C55.0587 114.674 55.7712 112.948 57.0414 111.673C58.3115 110.398 60.0355 109.679 61.835 109.674Z" fill="#FF5A00"/>
<path d="M60.246 118.038C60.2382 118.017 60.2245 118 60.2068 117.987C60.189 117.974 60.1679 117.966 60.146 117.965H59.372C58.9939 117.97 58.633 118.124 58.367 118.393C58.101 118.661 57.9513 119.024 57.95 119.402V120.116C57.9493 120.13 57.9514 120.143 57.9561 120.156C57.9609 120.169 57.9681 120.18 57.9775 120.19C57.9868 120.2 57.9981 120.208 58.0106 120.213C58.023 120.218 58.0365 120.221 58.05 120.221H60.926C60.9435 120.22 60.9606 120.215 60.9759 120.207C60.9913 120.199 61.0046 120.187 61.0147 120.173C61.0248 120.158 61.0315 120.142 61.0344 120.125C61.0372 120.107 61.0361 120.09 61.031 120.073L60.246 118.038ZM63.959 117.975H63.187C63.1655 117.978 63.1449 117.986 63.1274 117.998C63.1099 118.011 63.096 118.028 63.087 118.048L62.303 120.073C62.2968 120.085 62.2933 120.099 62.2927 120.113C62.292 120.127 62.2944 120.141 62.2994 120.154C62.3045 120.167 62.3123 120.179 62.3222 120.189C62.3321 120.198 62.344 120.206 62.357 120.211C62.3731 120.218 62.3905 120.221 62.408 120.22H65.287C65.3006 120.22 65.314 120.217 65.3265 120.212C65.339 120.207 65.3502 120.199 65.3596 120.189C65.3689 120.179 65.3762 120.168 65.3809 120.155C65.3856 120.142 65.3877 120.129 65.387 120.115V119.401C65.387 119.023 65.2372 118.661 64.9705 118.393C64.7037 118.126 64.3418 117.975 63.964 117.974" fill="white"/>
<path d="M58.991 114.766H58.562C58.4896 114.766 58.4202 114.795 58.369 114.846C58.3178 114.897 58.289 114.967 58.289 115.039C58.289 115.111 58.3178 115.181 58.369 115.232C58.4202 115.283 58.4896 115.312 58.562 115.312H58.991C59.0269 115.312 59.0624 115.305 59.0955 115.291C59.1286 115.278 59.1587 115.257 59.1841 115.232C59.2094 115.207 59.2295 115.177 59.2432 115.143C59.2569 115.11 59.264 115.075 59.264 115.039C59.264 115.003 59.2569 114.968 59.2432 114.935C59.2295 114.901 59.2094 114.871 59.1841 114.846C59.1587 114.821 59.1286 114.8 59.0955 114.787C59.0624 114.773 59.0269 114.766 58.991 114.766ZM61.658 112.406C61.7297 112.406 61.7986 112.378 61.8496 112.328C61.9006 112.277 61.9295 112.209 61.93 112.137V111.714C61.9305 111.642 61.9026 111.573 61.8524 111.522C61.8022 111.471 61.7337 111.442 61.662 111.441C61.5925 111.441 61.5259 111.469 61.4767 111.518C61.4276 111.567 61.4 111.634 61.4 111.703V112.144C61.401 112.213 61.4288 112.279 61.4775 112.328C61.5262 112.377 61.592 112.405 61.661 112.406M59.661 112.857L59.361 112.557C59.3099 112.513 59.2441 112.49 59.1769 112.493C59.1096 112.496 59.0459 112.524 58.9983 112.571C58.9508 112.619 58.9231 112.683 58.9206 112.75C58.9181 112.817 58.9411 112.883 58.985 112.934L59.285 113.234C59.3358 113.282 59.4032 113.308 59.473 113.307C59.5077 113.308 59.5423 113.303 59.5746 113.29C59.607 113.278 59.6364 113.258 59.661 113.234C59.7106 113.184 59.7384 113.116 59.7384 113.046C59.7384 112.976 59.7106 112.908 59.661 112.858M61.661 118.03C61.5751 118.031 61.4928 118.065 61.4321 118.126C61.3715 118.187 61.3373 118.269 61.337 118.355V119.855C61.337 119.941 61.3711 120.023 61.4319 120.084C61.4927 120.145 61.5751 120.179 61.661 120.179C61.7469 120.179 61.8293 120.145 61.8901 120.084C61.9509 120.023 61.985 119.941 61.985 119.855V118.355C61.9845 118.269 61.9502 118.187 61.8896 118.126C61.829 118.065 61.7469 118.031 61.661 118.03ZM64.349 112.554C64.3245 112.529 64.2953 112.51 64.2631 112.496C64.2309 112.483 64.1964 112.476 64.1615 112.476C64.1266 112.476 64.0921 112.483 64.0599 112.496C64.0278 112.51 63.9986 112.529 63.974 112.554L63.674 112.854C63.6242 112.904 63.5962 112.971 63.5962 113.042C63.5962 113.112 63.6242 113.18 63.674 113.23C63.7254 113.277 63.7926 113.304 63.8625 113.304C63.9324 113.304 63.9997 113.277 64.051 113.23L64.351 112.93C64.4006 112.88 64.4284 112.812 64.4284 112.742C64.4284 112.672 64.4006 112.604 64.351 112.554M61.432 112.9C60.9958 112.973 60.5931 113.179 60.28 113.492C59.9669 113.804 59.7589 114.206 59.685 114.642C59.6491 114.938 59.6792 115.238 59.7733 115.521C59.8674 115.804 60.023 116.062 60.229 116.278C60.4588 116.518 60.5864 116.838 60.585 117.17C60.585 117.25 60.6166 117.326 60.6729 117.382C60.7291 117.438 60.8054 117.47 60.885 117.47H62.422C62.5016 117.47 62.5779 117.438 62.6341 117.382C62.6904 117.326 62.722 117.25 62.722 117.17C62.7208 116.841 62.8486 116.525 63.078 116.289C63.2601 116.105 63.4037 115.886 63.5007 115.646C63.5977 115.405 63.6461 115.148 63.643 114.889C63.6467 114.607 63.5901 114.327 63.4768 114.068C63.3635 113.809 63.1963 113.578 62.9863 113.389C62.7762 113.2 62.5283 113.058 62.259 112.973C61.9898 112.888 61.7054 112.861 61.425 112.895M61.925 115.675V116.409C61.925 116.481 61.8963 116.55 61.8453 116.601C61.7943 116.652 61.7251 116.681 61.653 116.681C61.5809 116.681 61.5117 116.652 61.4607 116.601C61.4097 116.55 61.381 116.481 61.381 116.409V115.671C61.2336 115.635 61.1018 115.552 61.0055 115.435C60.9092 115.318 60.8535 115.173 60.847 115.021C60.847 114.949 60.8757 114.88 60.9267 114.829C60.9777 114.778 61.0469 114.749 61.119 114.749C61.1911 114.749 61.2603 114.778 61.3113 114.829C61.3624 114.88 61.391 114.949 61.391 115.021C61.391 115.094 61.506 115.177 61.652 115.177C61.798 115.177 61.913 115.093 61.913 115.021C61.913 114.949 61.9417 114.88 61.9927 114.829C62.0437 114.778 62.1129 114.749 62.185 114.749C62.2572 114.749 62.3263 114.778 62.3773 114.829C62.4283 114.88 62.457 114.949 62.457 115.021C62.4506 115.172 62.3953 115.317 62.2993 115.435C62.2034 115.552 62.0721 115.635 61.925 115.671V115.675ZM64.749 114.763H64.319C64.2466 114.763 64.1772 114.792 64.126 114.843C64.0748 114.894 64.046 114.964 64.046 115.036C64.046 115.108 64.0748 115.178 64.126 115.229C64.1772 115.28 64.2466 115.309 64.319 115.309H64.749C64.8207 115.309 64.8896 115.281 64.9406 115.231C64.9916 115.18 65.0205 115.112 65.021 115.04C65.0222 115.005 65.0166 114.971 65.0044 114.938C64.9922 114.906 64.9738 114.876 64.9501 114.851C64.9264 114.825 64.898 114.805 64.8664 114.79C64.8348 114.776 64.8007 114.768 64.766 114.767H64.749" fill="white"/>
<path d="M42.153 140.878C42.1988 140.878 42.2441 140.869 42.2865 140.852C42.3288 140.834 42.3673 140.809 42.3997 140.776C42.4321 140.744 42.4579 140.706 42.4754 140.663C42.493 140.621 42.502 140.576 42.502 140.53V135.621C42.502 135.528 42.4651 135.439 42.3995 135.374C42.3339 135.308 42.2448 135.271 42.152 135.271C42.0592 135.271 41.9701 135.308 41.9045 135.374C41.8389 135.439 41.802 135.528 41.802 135.621V140.53C41.802 140.576 41.811 140.621 41.8286 140.663C41.8461 140.706 41.8719 140.744 41.9043 140.776C41.9367 140.809 41.9752 140.834 42.0175 140.852C42.0599 140.869 42.1052 140.878 42.151 140.878" fill="#FF5A00"/>
<path d="M44.8129 143.528H47.187C47.2798 143.528 47.3688 143.491 47.4344 143.425C47.5001 143.36 47.5369 143.271 47.5369 143.178C47.5369 143.085 47.5001 142.996 47.4344 142.931C47.3688 142.865 47.2798 142.828 47.187 142.828H44.8129C44.7201 142.828 44.6311 142.865 44.5655 142.931C44.4998 142.996 44.463 143.085 44.463 143.178C44.463 143.271 44.4998 143.36 44.5655 143.425C44.6311 143.491 44.7201 143.528 44.8129 143.528Z" fill="#FF5A00"/>
<path d="M42.153 151.09C42.1988 151.09 42.2441 151.081 42.2865 151.064C42.3288 151.046 42.3673 151.021 42.3997 150.988C42.4321 150.956 42.4579 150.918 42.4754 150.875C42.493 150.833 42.502 150.788 42.502 150.742V145.833C42.502 145.74 42.4651 145.651 42.3995 145.586C42.3339 145.52 42.2448 145.483 42.152 145.483C42.0592 145.483 41.9701 145.52 41.9045 145.586C41.8389 145.651 41.802 145.74 41.802 145.833V150.746C41.802 150.792 41.811 150.837 41.8286 150.879C41.8461 150.922 41.8719 150.96 41.9043 150.992C41.9367 151.025 41.9752 151.05 42.0175 151.068C42.0599 151.085 42.1052 151.094 42.151 151.094" fill="#FF5A00"/>
<path d="M37.122 143.528H39.497C39.5898 143.528 39.6788 143.491 39.7445 143.425C39.8101 143.36 39.847 143.271 39.847 143.178C39.847 143.085 39.8101 142.996 39.7445 142.931C39.6788 142.865 39.5898 142.828 39.497 142.828H37.122C37.0292 142.828 36.9401 142.865 36.8745 142.931C36.8089 142.996 36.772 143.085 36.772 143.178C36.772 143.271 36.8089 143.36 36.8745 143.425C36.9401 143.491 37.0292 143.528 37.122 143.528Z" fill="#FF5A00"/>
<path d="M82.97 81.506C83.0316 81.506 83.0907 81.4816 83.1344 81.4381C83.1781 81.3946 83.2027 81.3356 83.203 81.274V77.997C83.203 77.9352 83.1785 77.8759 83.1348 77.8322C83.0911 77.7885 83.0318 77.764 82.97 77.764C82.9082 77.764 82.8489 77.7885 82.8052 77.8322C82.7615 77.8759 82.737 77.9352 82.737 77.997V81.274C82.7373 81.3356 82.7619 81.3946 82.8056 81.4381C82.8493 81.4816 82.9084 81.506 82.97 81.506Z" fill="#FF5A00"/>
<path d="M84.751 83.275H86.336C86.3976 83.275 86.4566 83.2506 86.5001 83.207C86.5436 83.1635 86.568 83.1045 86.568 83.043C86.568 82.9815 86.5436 82.9225 86.5001 82.879C86.4566 82.8354 86.3976 82.811 86.336 82.811H84.751C84.6895 82.811 84.6305 82.8354 84.587 82.879C84.5435 82.9225 84.519 82.9815 84.519 83.043C84.519 83.1045 84.5435 83.1635 84.587 83.207C84.6305 83.2506 84.6895 83.275 84.751 83.275Z" fill="#FF5A00"/>
<path d="M82.97 88.323C83.0316 88.323 83.0907 88.2986 83.1344 88.2551C83.1781 88.2116 83.2027 88.1526 83.203 88.091V84.814C83.203 84.7522 83.1785 84.693 83.1348 84.6493C83.0911 84.6056 83.0318 84.581 82.97 84.581C82.9082 84.581 82.8489 84.6056 82.8052 84.6493C82.7615 84.693 82.737 84.7522 82.737 84.814V88.091C82.7373 88.1526 82.7619 88.2116 82.8056 88.2551C82.8493 88.2986 82.9084 88.323 82.97 88.323Z" fill="#FF5A00"/>
<path d="M79.609 83.275H81.194C81.2555 83.275 81.3146 83.2506 81.3581 83.207C81.4016 83.1635 81.426 83.1045 81.426 83.043C81.426 82.9815 81.4016 82.9225 81.3581 82.879C81.3146 82.8354 81.2555 82.811 81.194 82.811H79.609C79.5475 82.811 79.4885 82.8354 79.4449 82.879C79.4014 82.9225 79.377 82.9815 79.377 83.043C79.377 83.1045 79.4014 83.1635 79.4449 83.207C79.4885 83.2506 79.5475 83.275 79.609 83.275Z" fill="#FF5A00"/>
<path d="M176.97 20.506C177.032 20.506 177.091 20.4816 177.134 20.4381C177.178 20.3946 177.203 20.3356 177.203 20.274V16.997C177.203 16.9352 177.178 16.8759 177.135 16.8322C177.091 16.7885 177.032 16.764 176.97 16.764C176.908 16.764 176.849 16.7885 176.805 16.8322C176.761 16.8759 176.737 16.9352 176.737 16.997V20.274C176.737 20.3356 176.762 20.3946 176.806 20.4381C176.849 20.4816 176.908 20.506 176.97 20.506Z" fill="#FF5A00"/>
<path d="M178.751 22.275H180.336C180.397 22.275 180.457 22.2506 180.5 22.207C180.544 22.1635 180.568 22.1045 180.568 22.043C180.568 21.9815 180.544 21.9225 180.5 21.879C180.457 21.8354 180.397 21.811 180.336 21.811H178.751C178.689 21.811 178.63 21.8354 178.587 21.879C178.543 21.9225 178.519 21.9815 178.519 22.043C178.519 22.1045 178.543 22.1635 178.587 22.207C178.63 22.2506 178.689 22.275 178.751 22.275Z" fill="#FF5A00"/>
<path d="M176.97 27.323C177.032 27.323 177.091 27.2986 177.134 27.2551C177.178 27.2116 177.203 27.1526 177.203 27.091V23.814C177.203 23.7522 177.178 23.693 177.135 23.6493C177.091 23.6056 177.032 23.581 176.97 23.581C176.908 23.581 176.849 23.6056 176.805 23.6493C176.761 23.693 176.737 23.7522 176.737 23.814V27.091C176.737 27.1526 176.762 27.2116 176.806 27.2551C176.849 27.2986 176.908 27.323 176.97 27.323Z" fill="#FF5A00"/>
<path d="M173.609 22.275H175.194C175.255 22.275 175.314 22.2506 175.358 22.207C175.402 22.1635 175.426 22.1045 175.426 22.043C175.426 21.9815 175.402 21.9225 175.358 21.879C175.314 21.8354 175.255 21.811 175.194 21.811H173.609C173.547 21.811 173.488 21.8354 173.445 21.879C173.401 21.9225 173.377 21.9815 173.377 22.043C173.377 22.1045 173.401 22.1635 173.445 22.207C173.488 22.2506 173.547 22.275 173.609 22.275Z" fill="#FF5A00"/>
<path d="M279.97 117.506C280.032 117.506 280.091 117.482 280.134 117.438C280.178 117.395 280.203 117.336 280.203 117.274V113.997C280.203 113.935 280.178 113.876 280.135 113.832C280.091 113.789 280.032 113.764 279.97 113.764C279.908 113.764 279.849 113.789 279.805 113.832C279.762 113.876 279.737 113.935 279.737 113.997V117.274C279.737 117.336 279.762 117.395 279.806 117.438C279.849 117.482 279.908 117.506 279.97 117.506Z" fill="#FF5A00"/>
<path d="M281.751 119.275H283.336C283.398 119.275 283.457 119.251 283.5 119.207C283.544 119.164 283.568 119.104 283.568 119.043C283.568 118.981 283.544 118.922 283.5 118.879C283.457 118.835 283.398 118.811 283.336 118.811H281.751C281.69 118.811 281.63 118.835 281.587 118.879C281.543 118.922 281.519 118.981 281.519 119.043C281.519 119.104 281.543 119.164 281.587 119.207C281.63 119.251 281.69 119.275 281.751 119.275Z" fill="#FF5A00"/>
<path d="M279.97 124.323C280.032 124.323 280.091 124.299 280.134 124.255C280.178 124.212 280.203 124.153 280.203 124.091V120.814C280.203 120.752 280.178 120.693 280.135 120.649C280.091 120.606 280.032 120.581 279.97 120.581C279.908 120.581 279.849 120.606 279.805 120.649C279.762 120.693 279.737 120.752 279.737 120.814V124.091C279.737 124.153 279.762 124.212 279.806 124.255C279.849 124.299 279.908 124.323 279.97 124.323Z" fill="#FF5A00"/>
<path d="M276.609 119.275H278.194C278.256 119.275 278.315 119.251 278.358 119.207C278.402 119.164 278.426 119.104 278.426 119.043C278.426 118.981 278.402 118.922 278.358 118.879C278.315 118.835 278.256 118.811 278.194 118.811H276.609C276.547 118.811 276.488 118.835 276.445 118.879C276.401 118.922 276.377 118.981 276.377 119.043C276.377 119.104 276.401 119.164 276.445 119.207C276.488 119.251 276.547 119.275 276.609 119.275Z" fill="#FF5A00"/>
<path d="M235.338 45.184H232.248C232.199 45.1841 232.151 45.1747 232.106 45.1561C232.061 45.1376 232.02 45.1104 231.986 45.076C231.951 45.0416 231.924 45.0008 231.905 44.9558C231.887 44.9109 231.877 44.8627 231.877 44.814V41.734C231.877 41.6853 231.887 41.6371 231.905 41.5922C231.924 41.5472 231.951 41.5064 231.986 41.472C232.02 41.4377 232.061 41.4104 232.106 41.3919C232.151 41.3734 232.199 41.3639 232.248 41.364H235.338C235.387 41.3639 235.435 41.3734 235.48 41.3919C235.525 41.4104 235.566 41.4377 235.6 41.472C235.635 41.5064 235.662 41.5472 235.681 41.5922C235.699 41.6371 235.709 41.6853 235.709 41.734V44.814C235.709 44.8627 235.699 44.9109 235.681 44.9558C235.662 45.0008 235.635 45.0416 235.6 45.076C235.566 45.1104 235.525 45.1376 235.48 45.1561C235.435 45.1747 235.387 45.1841 235.338 45.184ZM232.619 44.445H234.967V42.104H232.619V44.445Z" fill="#707070"/>
<path d="M235.338 51.421H232.248C232.199 51.4211 232.151 51.4117 232.106 51.3931C232.061 51.3746 232.02 51.3474 231.986 51.313C231.951 51.2786 231.924 51.2378 231.905 51.1928C231.887 51.1479 231.877 51.0997 231.877 51.051V47.971C231.877 47.9223 231.887 47.8741 231.905 47.8292C231.924 47.7842 231.951 47.7434 231.986 47.709C232.02 47.6747 232.061 47.6474 232.106 47.6289C232.151 47.6103 232.199 47.6009 232.248 47.601H235.338C235.387 47.6009 235.435 47.6103 235.48 47.6289C235.525 47.6474 235.566 47.6747 235.6 47.709C235.635 47.7434 235.662 47.7842 235.681 47.8292C235.699 47.8741 235.709 47.9223 235.709 47.971V51.051C235.709 51.0997 235.699 51.1479 235.681 51.1928C235.662 51.2378 235.635 51.2786 235.6 51.313C235.566 51.3474 235.525 51.3746 235.48 51.3931C235.435 51.4117 235.387 51.4211 235.338 51.421ZM232.619 50.682H234.967V48.341H232.619V50.682Z" fill="#707070"/>
<path d="M247.105 42.104H239.829C239.779 42.1066 239.729 42.099 239.682 42.0816C239.634 42.0642 239.591 42.0374 239.555 42.0028C239.519 41.9683 239.49 41.9267 239.47 41.8805C239.45 41.8344 239.44 41.7847 239.44 41.7345C239.44 41.6843 239.45 41.6346 239.47 41.5885C239.49 41.5423 239.519 41.5007 239.555 41.4662C239.591 41.4316 239.634 41.4048 239.682 41.3874C239.729 41.37 239.779 41.3624 239.829 41.365H247.105C247.155 41.3624 247.205 41.37 247.252 41.3874C247.299 41.4048 247.342 41.4316 247.379 41.4662C247.415 41.5007 247.444 41.5423 247.464 41.5885C247.484 41.6346 247.494 41.6843 247.494 41.7345C247.494 41.7847 247.484 41.8344 247.464 41.8805C247.444 41.9267 247.415 41.9683 247.379 42.0028C247.342 42.0374 247.299 42.0642 247.252 42.0816C247.205 42.099 247.155 42.1066 247.105 42.104Z" fill="#707070"/>
<path d="M254.152 44.691H239.829C239.779 44.6936 239.729 44.686 239.682 44.6686C239.634 44.6512 239.591 44.6244 239.555 44.5898C239.519 44.5553 239.49 44.5137 239.47 44.4675C239.45 44.4214 239.44 44.3717 239.44 44.3215C239.44 44.2713 239.45 44.2216 239.47 44.1755C239.49 44.1293 239.519 44.0877 239.555 44.0532C239.591 44.0186 239.634 43.9918 239.682 43.9744C239.729 43.957 239.779 43.9494 239.829 43.952H254.152C254.202 43.9494 254.252 43.957 254.299 43.9744C254.346 43.9918 254.389 44.0186 254.426 44.0532C254.462 44.0877 254.491 44.1293 254.511 44.1755C254.531 44.2216 254.541 44.2713 254.541 44.3215C254.541 44.3717 254.531 44.4214 254.511 44.4675C254.491 44.5137 254.462 44.5553 254.426 44.5898C254.389 44.6244 254.346 44.6512 254.299 44.6686C254.252 44.686 254.202 44.6936 254.152 44.691Z" fill="#707070"/>
<path d="M268.133 42.104H250.153C250.103 42.1066 250.053 42.099 250.006 42.0816C249.959 42.0642 249.915 42.0374 249.879 42.0028C249.843 41.9683 249.814 41.9267 249.794 41.8805C249.774 41.8344 249.764 41.7847 249.764 41.7345C249.764 41.6843 249.774 41.6346 249.794 41.5885C249.814 41.5423 249.843 41.5007 249.879 41.4662C249.915 41.4316 249.959 41.4048 250.006 41.3874C250.053 41.37 250.103 41.3624 250.153 41.365H268.133C268.183 41.3624 268.233 41.37 268.28 41.3874C268.327 41.4048 268.371 41.4316 268.407 41.4662C268.443 41.5007 268.472 41.5423 268.492 41.5885C268.512 41.6346 268.522 41.6843 268.522 41.7345C268.522 41.7847 268.512 41.8344 268.492 41.8805C268.472 41.9267 268.443 41.9683 268.407 42.0028C268.371 42.0374 268.327 42.0642 268.28 42.0816C268.233 42.099 268.183 42.1066 268.133 42.104Z" fill="#707070"/>
<path d="M251.7 48.341H239.829C239.779 48.3436 239.729 48.336 239.682 48.3186C239.634 48.3012 239.591 48.2744 239.555 48.2398C239.519 48.2053 239.49 48.1637 239.47 48.1175C239.45 48.0714 239.44 48.0217 239.44 47.9715C239.44 47.9213 239.45 47.8716 239.47 47.8255C239.49 47.7793 239.519 47.7377 239.555 47.7032C239.591 47.6686 239.634 47.6418 239.682 47.6244C239.729 47.607 239.779 47.5994 239.829 47.602H251.7C251.75 47.5994 251.8 47.607 251.847 47.6244C251.894 47.6418 251.938 47.6686 251.974 47.7032C252.01 47.7377 252.039 47.7793 252.059 47.8255C252.079 47.8716 252.089 47.9213 252.089 47.9715C252.089 48.0217 252.079 48.0714 252.059 48.1175C252.039 48.1637 252.01 48.2053 251.974 48.2398C251.938 48.2744 251.894 48.3012 251.847 48.3186C251.8 48.336 251.75 48.3436 251.7 48.341Z" fill="#707070"/>
<path d="M246.275 50.928H239.829C239.779 50.9306 239.729 50.923 239.682 50.9056C239.634 50.8882 239.591 50.8614 239.555 50.8268C239.519 50.7923 239.49 50.7507 239.47 50.7045C239.45 50.6584 239.44 50.6087 239.44 50.5585C239.44 50.5083 239.45 50.4586 239.47 50.4125C239.49 50.3663 239.519 50.3247 239.555 50.2902C239.591 50.2556 239.634 50.2288 239.682 50.2114C239.729 50.194 239.779 50.1864 239.829 50.189H246.275C246.325 50.1864 246.375 50.194 246.422 50.2114C246.469 50.2288 246.512 50.2556 246.549 50.2902C246.585 50.3247 246.614 50.3663 246.634 50.4125C246.654 50.4586 246.664 50.5083 246.664 50.5585C246.664 50.6087 246.654 50.6584 246.634 50.7045C246.614 50.7507 246.585 50.7923 246.549 50.8268C246.512 50.8614 246.469 50.8882 246.422 50.9056C246.375 50.923 246.325 50.9306 246.275 50.928Z" fill="#707070"/>
<path d="M261.998 48.341H254.748C254.698 48.3436 254.648 48.336 254.601 48.3186C254.553 48.3012 254.51 48.2744 254.474 48.2398C254.438 48.2053 254.409 48.1637 254.389 48.1175C254.369 48.0714 254.359 48.0217 254.359 47.9715C254.359 47.9213 254.369 47.8716 254.389 47.8255C254.409 47.7793 254.438 47.7377 254.474 47.7032C254.51 47.6686 254.553 47.6418 254.601 47.6244C254.648 47.607 254.698 47.5994 254.748 47.602H261.998C262.048 47.5994 262.098 47.607 262.145 47.6244C262.192 47.6418 262.235 47.6686 262.272 47.7032C262.308 47.7377 262.337 47.7793 262.357 47.8255C262.377 47.8716 262.387 47.9213 262.387 47.9715C262.387 48.0217 262.377 48.0714 262.357 48.1175C262.337 48.1637 262.308 48.2053 262.272 48.2398C262.235 48.2744 262.192 48.3012 262.145 48.3186C262.098 48.336 262.048 48.3436 261.998 48.341Z" fill="#707070"/>
<g opacity="0.8">
<path d="M235.338 45.184H232.248C232.199 45.1841 232.151 45.1747 232.106 45.1561C232.061 45.1376 232.02 45.1104 231.986 45.076C231.951 45.0416 231.924 45.0008 231.905 44.9558C231.887 44.9109 231.877 44.8627 231.877 44.814V41.734C231.877 41.6853 231.887 41.6371 231.905 41.5922C231.924 41.5472 231.951 41.5064 231.986 41.472C232.02 41.4377 232.061 41.4104 232.106 41.3919C232.151 41.3734 232.199 41.3639 232.248 41.364H235.338C235.387 41.3639 235.435 41.3734 235.48 41.3919C235.525 41.4104 235.566 41.4377 235.6 41.472C235.635 41.5064 235.662 41.5472 235.681 41.5922C235.699 41.6371 235.709 41.6853 235.709 41.734V44.814C235.709 44.8627 235.699 44.9109 235.681 44.9558C235.662 45.0008 235.635 45.0416 235.6 45.076C235.566 45.1104 235.525 45.1376 235.48 45.1561C235.435 45.1747 235.387 45.1841 235.338 45.184ZM232.619 44.445H234.967V42.104H232.619V44.445Z" fill="#FF5A00"/>
<path d="M235.338 51.421H232.248C232.199 51.4211 232.151 51.4117 232.106 51.3931C232.061 51.3746 232.02 51.3474 231.986 51.313C231.951 51.2786 231.924 51.2378 231.905 51.1928C231.887 51.1479 231.877 51.0997 231.877 51.051V47.971C231.877 47.9223 231.887 47.8741 231.905 47.8292C231.924 47.7842 231.951 47.7434 231.986 47.709C232.02 47.6747 232.061 47.6474 232.106 47.6289C232.151 47.6103 232.199 47.6009 232.248 47.601H235.338C235.387 47.6009 235.435 47.6103 235.48 47.6289C235.525 47.6474 235.566 47.6747 235.6 47.709C235.635 47.7434 235.662 47.7842 235.681 47.8292C235.699 47.8741 235.709 47.9223 235.709 47.971V51.051C235.709 51.0997 235.699 51.1479 235.681 51.1928C235.662 51.2378 235.635 51.2786 235.6 51.313C235.566 51.3474 235.525 51.3746 235.48 51.3931C235.435 51.4117 235.387 51.4211 235.338 51.421ZM232.619 50.682H234.967V48.341H232.619V50.682Z" fill="#FF5A00"/>
<path d="M247.105 42.104H239.829C239.779 42.1066 239.729 42.099 239.682 42.0816C239.634 42.0642 239.591 42.0374 239.555 42.0028C239.519 41.9683 239.49 41.9267 239.47 41.8805C239.45 41.8344 239.44 41.7847 239.44 41.7345C239.44 41.6843 239.45 41.6346 239.47 41.5885C239.49 41.5423 239.519 41.5007 239.555 41.4662C239.591 41.4316 239.634 41.4048 239.682 41.3874C239.729 41.37 239.779 41.3624 239.829 41.365H247.105C247.155 41.3624 247.205 41.37 247.252 41.3874C247.299 41.4048 247.342 41.4316 247.379 41.4662C247.415 41.5007 247.444 41.5423 247.464 41.5885C247.484 41.6346 247.494 41.6843 247.494 41.7345C247.494 41.7847 247.484 41.8344 247.464 41.8805C247.444 41.9267 247.415 41.9683 247.379 42.0028C247.342 42.0374 247.299 42.0642 247.252 42.0816C247.205 42.099 247.155 42.1066 247.105 42.104Z" fill="#FF5A00"/>
<path d="M254.152 44.691H239.829C239.779 44.6936 239.729 44.686 239.682 44.6686C239.634 44.6512 239.591 44.6244 239.555 44.5898C239.519 44.5553 239.49 44.5137 239.47 44.4675C239.45 44.4214 239.44 44.3717 239.44 44.3215C239.44 44.2713 239.45 44.2216 239.47 44.1755C239.49 44.1293 239.519 44.0877 239.555 44.0532C239.591 44.0186 239.634 43.9918 239.682 43.9744C239.729 43.957 239.779 43.9494 239.829 43.952H254.152C254.202 43.9494 254.252 43.957 254.299 43.9744C254.346 43.9918 254.389 44.0186 254.426 44.0532C254.462 44.0877 254.491 44.1293 254.511 44.1755C254.531 44.2216 254.541 44.2713 254.541 44.3215C254.541 44.3717 254.531 44.4214 254.511 44.4675C254.491 44.5137 254.462 44.5553 254.426 44.5898C254.389 44.6244 254.346 44.6512 254.299 44.6686C254.252 44.686 254.202 44.6936 254.152 44.691Z" fill="#FF5A00"/>
<path d="M268.133 42.104H250.153C250.103 42.1066 250.053 42.099 250.006 42.0816C249.959 42.0642 249.915 42.0374 249.879 42.0028C249.843 41.9683 249.814 41.9267 249.794 41.8805C249.774 41.8344 249.764 41.7847 249.764 41.7345C249.764 41.6843 249.774 41.6346 249.794 41.5885C249.814 41.5423 249.843 41.5007 249.879 41.4662C249.915 41.4316 249.959 41.4048 250.006 41.3874C250.053 41.37 250.103 41.3624 250.153 41.365H268.133C268.183 41.3624 268.233 41.37 268.28 41.3874C268.327 41.4048 268.371 41.4316 268.407 41.4662C268.443 41.5007 268.472 41.5423 268.492 41.5885C268.512 41.6346 268.522 41.6843 268.522 41.7345C268.522 41.7847 268.512 41.8344 268.492 41.8805C268.472 41.9267 268.443 41.9683 268.407 42.0028C268.371 42.0374 268.327 42.0642 268.28 42.0816C268.233 42.099 268.183 42.1066 268.133 42.104Z" fill="#FF5A00"/>
<path d="M251.7 48.341H239.829C239.779 48.3436 239.729 48.336 239.682 48.3186C239.634 48.3012 239.591 48.2744 239.555 48.2398C239.519 48.2053 239.49 48.1637 239.47 48.1175C239.45 48.0714 239.44 48.0217 239.44 47.9715C239.44 47.9213 239.45 47.8716 239.47 47.8255C239.49 47.7793 239.519 47.7377 239.555 47.7032C239.591 47.6686 239.634 47.6418 239.682 47.6244C239.729 47.607 239.779 47.5994 239.829 47.602H251.7C251.75 47.5994 251.8 47.607 251.847 47.6244C251.894 47.6418 251.938 47.6686 251.974 47.7032C252.01 47.7377 252.039 47.7793 252.059 47.8255C252.079 47.8716 252.089 47.9213 252.089 47.9715C252.089 48.0217 252.079 48.0714 252.059 48.1175C252.039 48.1637 252.01 48.2053 251.974 48.2398C251.938 48.2744 251.894 48.3012 251.847 48.3186C251.8 48.336 251.75 48.3436 251.7 48.341Z" fill="#FF5A00"/>
<path d="M246.275 50.928H239.829C239.779 50.9306 239.729 50.923 239.682 50.9056C239.634 50.8882 239.591 50.8614 239.555 50.8268C239.519 50.7923 239.49 50.7507 239.47 50.7045C239.45 50.6584 239.44 50.6087 239.44 50.5585C239.44 50.5083 239.45 50.4586 239.47 50.4125C239.49 50.3663 239.519 50.3247 239.555 50.2902C239.591 50.2556 239.634 50.2288 239.682 50.2114C239.729 50.194 239.779 50.1864 239.829 50.189H246.275C246.325 50.1864 246.375 50.194 246.422 50.2114C246.469 50.2288 246.512 50.2556 246.549 50.2902C246.585 50.3247 246.614 50.3663 246.634 50.4125C246.654 50.4586 246.664 50.5083 246.664 50.5585C246.664 50.6087 246.654 50.6584 246.634 50.7045C246.614 50.7507 246.585 50.7923 246.549 50.8268C246.512 50.8614 246.469 50.8882 246.422 50.9056C246.375 50.923 246.325 50.9306 246.275 50.928Z" fill="#FF5A00"/>
<path d="M261.998 48.341H254.748C254.698 48.3436 254.648 48.336 254.601 48.3186C254.553 48.3012 254.51 48.2744 254.474 48.2398C254.438 48.2053 254.409 48.1637 254.389 48.1175C254.369 48.0714 254.359 48.0217 254.359 47.9715C254.359 47.9213 254.369 47.8716 254.389 47.8255C254.409 47.7793 254.438 47.7377 254.474 47.7032C254.51 47.6686 254.553 47.6418 254.601 47.6244C254.648 47.607 254.698 47.5994 254.748 47.602H261.998C262.048 47.5994 262.098 47.607 262.145 47.6244C262.192 47.6418 262.235 47.6686 262.272 47.7032C262.308 47.7377 262.337 47.7793 262.357 47.8255C262.377 47.8716 262.387 47.9213 262.387 47.9715C262.387 48.0217 262.377 48.0714 262.357 48.1175C262.337 48.1637 262.308 48.2053 262.272 48.2398C262.235 48.2744 262.192 48.3012 262.145 48.3186C262.098 48.336 262.048 48.3436 261.998 48.341Z" fill="#FF5A00"/>
</g>
</g>
<defs>
<linearGradient id="paint0_linear_1_1008" x1="-0.18403" y1="219.941" x2="0.111275" y2="219.941" gradientUnits="userSpaceOnUse">
<stop stop-color="#3851A2"/>
<stop offset="1" stop-color="#71B5E3"/>
</linearGradient>
<clipPath id="clip0_1_1008">
<rect width="335" height="220" fill="white" transform="translate(0.5)"/>
</clipPath>
</defs>
</svg>
