<svg width="336" height="220" viewBox="0 0 336 220" fill="none" xmlns="http://www.w3.org/2000/svg">
<g clip-path="url(#clip0_1_1162)">
<path fill-rule="evenodd" clip-rule="evenodd" d="M32.151 217.057H303.036C303.215 217.076 303.38 217.16 303.5 217.294C303.62 217.427 303.687 217.6 303.687 217.78C303.687 217.96 303.62 218.133 303.5 218.266C303.38 218.4 303.215 218.484 303.036 218.503H32.151C31.9723 218.484 31.807 218.4 31.6868 218.266C31.5667 218.133 31.5002 217.96 31.5002 217.78C31.5002 217.6 31.5667 217.427 31.6868 217.294C31.807 217.16 31.9723 217.076 32.151 217.057Z" fill="#092978"/>
<path d="M279.883 213.047C280.175 213.143 280.486 213.159 280.786 213.094C281.086 213.03 281.364 212.886 281.59 212.679C281.816 212.471 281.983 212.207 282.073 211.914C282.163 211.621 282.173 211.309 282.103 211.01C281.792 207.77 276.043 205.492 274.419 205.135C273.979 204.712 273.537 204.29 273.093 203.87C273.937 202.865 274.81 201.875 275.713 200.902C276.606 201.102 277.489 201.32 278.363 201.556C279.981 202.966 285.731 208.19 289.831 207.561C291.737 207.261 292.569 205.738 291.671 204.061C289.771 200.223 280.986 200.535 278.571 201.097C277.76 200.878 276.94 200.672 276.112 200.478C277.538 198.964 279.035 197.493 280.604 196.066C281.386 196.121 282.163 196.188 282.936 196.266C284.536 197.146 290.784 201.237 294.714 200.111C296.514 199.584 297.155 198.101 296.065 196.737C293.625 193.537 284.952 195.205 283.031 195.945C282.34 195.874 281.644 195.813 280.944 195.76C282.552 194.315 284.232 192.922 285.984 191.581C286.771 191.508 287.557 191.447 288.34 191.396C290.087 191.92 296.214 194.29 299.568 192.785C301.126 192.075 301.449 190.747 300.181 189.801C297.348 187.626 290.094 190.145 288.369 191.051C287.747 191.09 287.124 191.137 286.499 191.191C288.221 189.896 290.009 188.656 291.864 187.471C294.32 186.791 302.33 185.371 304.695 182.306C305.795 180.828 304.961 179.506 302.734 179.451C297.843 179.305 292.693 185.214 291.516 187.082C289.783 188.191 288.105 189.35 286.484 190.559C286.633 190.032 286.788 189.506 286.948 188.98C288.109 187.527 293.298 182.296 292.31 179.307C291.81 177.935 290.031 177.722 288.419 178.891C284.858 181.491 286.148 187.452 286.539 188.952C286.339 189.619 286.148 190.285 285.965 190.952C284.117 192.352 282.347 193.812 280.655 195.332C280.573 194.691 280.495 194.048 280.422 193.404C280.978 191.655 284.596 184.112 281.772 181.358C280.449 180.134 278.232 180.606 276.994 182.408C274.273 186.459 279.037 192.168 280.043 193.496C280.128 194.213 280.218 194.928 280.313 195.641C278.65 197.15 277.066 198.709 275.561 200.32C275.194 199.637 274.827 198.954 274.461 198.27C274.414 196.115 275.189 187.755 270.823 186.1C270.329 185.933 269.807 185.872 269.288 185.919C268.769 185.966 268.266 186.12 267.81 186.373C267.355 186.625 266.957 186.97 266.642 187.385C266.327 187.8 266.102 188.276 265.982 188.783C264.891 193.483 272.19 197.366 273.96 198.55L275.16 200.75C274.258 201.729 273.386 202.723 272.543 203.734C271.943 203.467 271.338 203.208 270.728 202.955C269.817 201.755 266.036 197.034 262.04 198.143C260.24 198.651 259.385 200.153 260.14 201.39C261.857 204.026 268.82 203.265 270.529 203.27C271.124 203.515 271.714 203.766 272.301 204.023C269.766 207.089 267.469 210.343 265.429 213.759L265.891 213.981C267.954 210.533 270.281 207.25 272.851 204.162C273.286 204.569 273.719 204.978 274.151 205.389C274.539 206.899 276.686 212.465 279.883 213.053" fill="#FF5A00"/>
<path d="M277.222 144.914C280.694 143.15 292.772 138.869 295.032 134.152C296.032 131.869 293.966 130.327 290.376 130.918C282.518 132.207 277.505 141.684 276.497 144.518C274.309 146.553 272.239 148.647 270.288 150.798C270.281 150.058 270.279 149.317 270.282 148.575C271.406 146.267 277 137.646 273.734 134.169C272.176 132.588 269.225 132.993 267.361 135.093C263.319 139.737 268.406 146.838 269.636 148.684C269.636 149.621 269.645 150.557 269.663 151.491C267.449 153.974 265.393 156.516 263.495 159.119L262.302 156.697C262.402 154.222 264.364 143.108 258.337 140.85C256.985 140.395 255.508 140.492 254.227 141.119C252.946 141.747 251.964 142.855 251.495 144.202C249.649 150.313 259.73 155.53 261.769 156.958L263.112 159.646C261.255 162.223 259.552 164.843 258.005 167.504C257.182 166.749 256.35 166.001 255.511 165.259C254.588 162.476 251.746 151.479 244.033 151.531C240.492 151.601 237.747 154.231 238.117 157.104C239.094 163.19 251.807 164.856 254.892 165.813C255.802 166.606 256.702 167.406 257.592 168.213C256.672 169.824 255.808 171.446 255.001 173.078C254.023 172.955 253.038 172.846 252.045 172.753C250.277 171.507 242.496 167.094 237.086 170.404C234.681 171.881 234.186 174.127 235.903 175.284C239.703 177.663 249.395 173.851 251.894 173.235C252.861 173.323 253.821 173.426 254.774 173.543C252.389 178.414 250.458 183.494 249.004 188.719L249.736 188.843C251.217 183.563 253.189 178.433 255.626 173.521C256.419 173.894 257.205 174.275 257.984 174.664C259.184 176.479 264.207 183.222 268.757 183.145C269.189 183.195 269.625 183.129 270.023 182.953C270.42 182.777 270.763 182.499 271.017 182.146C271.271 181.794 271.426 181.38 271.466 180.947C271.506 180.515 271.43 180.079 271.245 179.686C269.876 175.266 260.77 174.095 258.273 174.242C257.473 173.842 256.667 173.448 255.856 173.059C256.671 171.435 257.542 169.82 258.469 168.215C259.862 168.154 261.246 168.124 262.619 168.125C265.648 169.338 275.63 174.631 281.371 172.668C284.079 171.715 284.955 169.359 283.13 167.293C279.112 162.493 266.009 165.802 262.746 167.439C261.467 167.439 260.178 167.462 258.881 167.508C260.358 165.004 261.974 162.534 263.729 160.097C264.929 159.886 266.126 159.696 267.319 159.529C270.148 160.063 280.932 163.585 286.558 160.999C289.15 159.776 289.697 157.564 287.529 156.011C282.547 152.297 269.855 157.386 267.329 159.072C266.257 159.221 265.184 159.388 264.109 159.572C265.918 157.1 267.872 154.678 269.969 152.306C271.144 151.935 272.325 151.583 273.511 151.251C276.443 151.3 286.84 152.578 291.563 149.669C293.751 148.284 293.741 146.392 291.33 145.469C285.875 143.298 275.63 148.992 273.406 150.791C272.463 151.058 271.524 151.334 270.588 151.619C272.662 149.321 274.872 147.085 277.219 144.911" fill="#FF5A00"/>
<path d="M77.895 125.348C77.4132 126.252 76.6314 126.96 75.684 127.351C74.7366 127.741 73.6829 127.789 72.704 127.486L70.238 132.13C70.6617 132.573 70.914 133.152 70.9496 133.764C70.9853 134.376 70.8021 134.981 70.4328 135.47C70.0635 135.96 69.5321 136.301 68.9338 136.435C68.3355 136.568 67.7092 136.484 67.1671 136.198C66.6249 135.912 66.2022 135.443 65.9746 134.873C65.747 134.304 65.7293 133.673 65.9247 133.092C66.1202 132.511 66.5159 132.018 67.0413 131.702C67.5666 131.386 68.1872 131.267 68.792 131.367L71.253 126.723C70.4519 126.087 69.8988 125.19 69.6896 124.189C69.4805 123.188 69.6285 122.145 70.108 121.241C70.154 121.155 70.208 121.075 70.257 120.992L66.357 117.447C65.8243 117.742 65.2039 117.838 64.6068 117.718C64.0097 117.598 63.4748 117.269 63.0978 116.791C62.7208 116.313 62.5263 115.716 62.5489 115.107C62.5716 114.498 62.81 113.918 63.2216 113.469C63.6332 113.02 64.191 112.732 64.7954 112.656C65.3998 112.581 66.0113 112.723 66.5206 113.057C67.0299 113.391 67.4037 113.895 67.5753 114.48C67.7468 115.064 67.7049 115.691 67.457 116.247L71.351 119.791C72.1499 119.196 73.1271 118.889 74.1228 118.922C75.1184 118.954 76.0736 119.324 76.8321 119.97C77.5906 120.615 78.1074 121.499 78.2981 122.477C78.4889 123.455 78.3422 124.468 77.882 125.352" fill="#FF5A00"/>
<path d="M100.571 165.577C99.6483 164.969 98.97 164.055 98.6557 162.995C98.3413 161.936 98.4112 160.8 98.853 159.787L91.053 154.639C90.1466 155.753 88.9584 156.603 87.612 157.103C86.2657 157.602 84.8102 157.731 83.3968 157.478C81.9834 157.224 80.6638 156.596 79.575 155.66C78.4863 154.724 77.6681 153.513 77.2056 152.154C76.7431 150.794 76.6531 149.336 76.9449 147.93C77.2368 146.524 77.8999 145.222 78.8653 144.159C79.8307 143.096 81.0631 142.311 82.4346 141.885C83.806 141.46 85.2664 141.409 86.664 141.739L89.707 132.927C88.6732 132.356 87.8911 131.418 87.5149 130.299C87.1387 129.179 87.1958 127.959 87.6749 126.88C88.154 125.8 89.0203 124.939 90.1028 124.467C91.1854 123.995 92.4056 123.946 93.5227 124.329C94.6397 124.713 95.5725 125.501 96.137 126.539C96.7014 127.576 96.8565 128.787 96.5716 129.933C96.2868 131.08 95.5826 132.077 94.5982 132.73C93.6138 133.382 92.4206 133.642 91.254 133.458L88.211 142.27C89.2052 142.718 90.0967 143.366 90.83 144.173C91.5634 144.98 92.1229 145.929 92.474 146.961C92.825 147.994 92.96 149.087 92.8705 150.174C92.7811 151.261 92.4691 152.318 91.954 153.279L99.754 158.427C100.37 157.775 101.159 157.313 102.029 157.095C102.898 156.876 103.812 156.911 104.663 157.195C105.514 157.478 106.265 157.999 106.83 158.696C107.395 159.392 107.749 160.235 107.85 161.126C107.952 162.017 107.797 162.918 107.403 163.724C107.01 164.53 106.394 165.206 105.629 165.674C104.864 166.142 103.982 166.381 103.085 166.364C102.189 166.347 101.316 166.074 100.569 165.578" fill="#FF5A00"/>
<path d="M266.066 86.267H252.79C252.649 86.267 252.514 86.3228 252.415 86.4221C252.315 86.5215 252.259 86.6562 252.258 86.797V90.052C252.26 90.6566 252.501 91.2359 252.929 91.6628C253.357 92.0897 253.937 92.3293 254.542 92.329H254.779V93.429C254.781 94.0519 255.03 94.6486 255.471 95.0883C255.912 95.5281 256.509 95.775 257.132 95.775H261.721C262.344 95.7753 262.942 95.5284 263.383 95.0887C263.824 94.6489 264.073 94.052 264.075 93.429V92.329H264.312C264.917 92.3293 265.497 92.0897 265.925 91.6628C266.353 91.2359 266.594 90.6566 266.596 90.052V86.797C266.595 86.6562 266.539 86.5215 266.439 86.4221C266.34 86.3228 266.205 86.267 266.064 86.267M258.095 91.267C258.023 91.2639 257.952 91.2753 257.885 91.3006C257.818 91.3258 257.756 91.3644 257.705 91.414C257.653 91.4635 257.612 91.5231 257.584 91.589C257.555 91.6549 257.541 91.7258 257.541 91.7975C257.541 91.8692 257.555 91.9401 257.584 92.006C257.612 92.0719 257.653 92.1315 257.705 92.181C257.756 92.2306 257.818 92.2692 257.885 92.2944C257.952 92.3197 258.023 92.3311 258.095 92.328H263.011V93.428C263.01 93.7692 262.874 94.096 262.632 94.3369C262.39 94.5778 262.063 94.713 261.722 94.713H257.133C256.792 94.7133 256.464 94.5781 256.223 94.3372C255.981 94.0963 255.845 93.7693 255.844 93.428V91.796C255.843 91.6553 255.787 91.5204 255.687 91.4211C255.588 91.3218 255.453 91.266 255.312 91.266C255.221 91.2954 255.124 91.2954 255.033 91.266H254.544C254.221 91.2663 253.911 91.1384 253.682 90.9104C253.454 90.6824 253.325 90.373 253.324 90.05V87.327H265.533V90.051C265.532 90.3739 265.403 90.6832 265.174 90.9111C264.946 91.139 264.636 91.267 264.313 91.267H258.095Z" fill="#0C0C0C"/>
<path d="M259.423 81.905C259.564 81.905 259.699 81.8492 259.798 81.7499C259.898 81.6506 259.954 81.5157 259.955 81.375V73.275C261.602 73.1798 263.156 72.4851 264.326 71.322C264.425 71.2222 264.481 71.0869 264.481 70.9459C264.481 70.805 264.424 70.67 264.325 70.5705C264.225 70.4711 264.089 70.4153 263.948 70.4156C263.807 70.4159 263.672 70.4722 263.573 70.572C263.044 71.1017 262.415 71.5213 261.722 71.8067C261.03 72.0921 260.288 72.2377 259.539 72.235C258.79 72.2376 258.048 72.0919 257.355 71.8063C256.663 71.5207 256.034 71.1009 255.504 70.571L255.272 70.34C255.223 70.2906 255.164 70.2514 255.1 70.2247C255.035 70.198 254.966 70.1842 254.896 70.1841C254.827 70.1841 254.757 70.1978 254.693 70.2244C254.628 70.2511 254.57 70.2902 254.52 70.3395C254.471 70.3888 254.432 70.4474 254.405 70.5118C254.378 70.5763 254.365 70.6454 254.365 70.7151C254.365 70.7849 254.378 70.854 254.405 70.9185C254.432 70.983 254.471 71.0416 254.52 71.091L254.752 71.322C255.865 72.4283 257.328 73.1136 258.891 73.261V81.378C258.892 81.5188 258.948 81.6536 259.048 81.7529C259.147 81.8522 259.282 81.908 259.423 81.908" fill="#0C0C0C"/>
<path d="M272.048 66.629C271.907 66.629 271.772 66.6848 271.673 66.7841C271.573 66.8834 271.517 67.0182 271.516 67.159C271.514 69.9546 270.536 72.6617 268.752 74.814C266.716 77.1651 265.575 80.1599 265.531 83.27V83.37H253.322V83.27C253.27 80.1498 252.123 77.1472 250.081 74.787C248.329 72.6614 247.36 69.9985 247.337 67.244C247.372 64.1036 248.609 61.0959 250.793 58.8391C252.977 56.5823 255.942 55.2479 259.08 55.11H259.43C261.762 55.1107 264.045 55.7848 266.003 57.0514C267.961 58.318 269.512 60.1232 270.469 62.25C270.526 62.3789 270.633 62.4797 270.764 62.5302C270.896 62.5808 271.043 62.5769 271.172 62.5195C271.3 62.4621 271.401 62.3558 271.452 62.2241C271.502 62.0923 271.498 61.9459 271.441 61.817C270.399 59.5025 268.71 57.5382 266.578 56.1602C264.447 54.7822 261.962 54.0491 259.424 54.049C259.3 54.049 259.176 54.0507 259.051 54.054C256.596 54.1129 254.208 54.8609 252.158 56.2125C250.108 57.5642 248.48 59.465 247.459 61.6979C246.438 63.9308 246.065 66.4058 246.384 68.8404C246.702 71.2749 247.699 73.5709 249.26 75.466C251.144 77.637 252.206 80.4008 252.26 83.275V83.904C252.26 84.0449 252.316 84.18 252.416 84.2795C252.516 84.3791 252.651 84.435 252.792 84.435H266.065C266.206 84.435 266.341 84.3791 266.441 84.2795C266.541 84.18 266.597 84.0449 266.597 83.904V83.272C266.642 80.4094 267.696 77.6546 269.573 75.493C271.515 73.1508 272.579 70.2045 272.582 67.162C272.581 67.0213 272.525 66.8864 272.426 66.7871C272.326 66.6878 272.191 66.632 272.05 66.632" fill="#0C0C0C"/>
<path d="M259.426 47.804C259.359 47.8041 259.293 47.7911 259.231 47.7656C259.169 47.7402 259.113 47.7028 259.066 47.6556C259.018 47.6085 258.981 47.5524 258.955 47.4907C258.929 47.429 258.916 47.3628 258.916 47.296V38.48C258.916 38.3447 258.97 38.215 259.065 38.1194C259.161 38.0237 259.291 37.97 259.426 37.97C259.561 37.97 259.691 38.0237 259.787 38.1194C259.882 38.215 259.936 38.3447 259.936 38.48V47.295C259.936 47.3618 259.923 47.428 259.897 47.4897C259.871 47.5514 259.834 47.6075 259.786 47.6546C259.739 47.7018 259.683 47.7392 259.621 47.7646C259.559 47.7901 259.493 47.8041 259.426 47.804Z" fill="#0C0C0C"/>
<path d="M245.98 53.358C245.913 53.3581 245.847 53.3451 245.785 53.3195C245.723 53.2939 245.666 53.2564 245.619 53.209L242.791 50.39C242.696 50.2944 242.642 50.1648 242.642 50.0298C242.643 49.8948 242.696 49.7653 242.792 49.67C242.888 49.5747 243.017 49.5212 243.152 49.5214C243.287 49.5216 243.417 49.5754 243.512 49.671L246.34 52.49C246.411 52.561 246.46 52.6517 246.48 52.7505C246.499 52.8492 246.489 52.9516 246.451 53.0446C246.412 53.1376 246.347 53.2171 246.263 53.2729C246.179 53.3287 246.081 53.3583 245.98 53.358Z" fill="#0C0C0C"/>
<path d="M243.152 82.988C243.051 82.9885 242.953 82.959 242.869 82.9033C242.785 82.8476 242.719 82.7681 242.68 82.6751C242.642 82.582 242.632 82.4796 242.651 82.3807C242.671 82.2819 242.72 82.1911 242.791 82.12L245.619 79.301C245.714 79.2054 245.844 79.1516 245.979 79.1514C246.114 79.1512 246.243 79.2047 246.339 79.3C246.435 79.3953 246.488 79.5248 246.489 79.6598C246.489 79.7948 246.435 79.9244 246.34 80.02L243.512 82.839C243.465 82.8863 243.409 82.9237 243.347 82.9493C243.285 82.9749 243.219 82.988 243.152 82.988Z" fill="#0C0C0C"/>
<path d="M275.707 82.988C275.64 82.988 275.574 82.9749 275.512 82.9493C275.45 82.9237 275.394 82.8863 275.347 82.839L272.519 80.02C272.424 79.9244 272.37 79.7948 272.37 79.6598C272.371 79.5248 272.424 79.3953 272.52 79.3C272.616 79.2047 272.745 79.1512 272.88 79.1514C273.015 79.1516 273.145 79.2054 273.24 79.301L276.067 82.12C276.138 82.191 276.187 82.2817 276.207 82.3805C276.227 82.4792 276.216 82.5816 276.178 82.6746C276.139 82.7676 276.074 82.8471 275.99 82.9029C275.906 82.9587 275.808 82.9883 275.707 82.988Z" fill="#0C0C0C"/>
<path d="M272.877 53.358C272.776 53.3583 272.678 53.3287 272.594 53.2729C272.51 53.2171 272.445 53.1376 272.406 53.0446C272.368 52.9516 272.358 52.8492 272.377 52.7505C272.397 52.6517 272.446 52.561 272.517 52.49L275.345 49.671C275.44 49.5754 275.57 49.5216 275.705 49.5214C275.84 49.5212 275.969 49.5747 276.065 49.67C276.161 49.7653 276.214 49.8948 276.215 50.0298C276.215 50.1648 276.161 50.2944 276.066 50.39L273.239 53.209C273.192 53.2564 273.135 53.2939 273.073 53.3195C273.011 53.3451 272.945 53.3581 272.878 53.358" fill="#0C0C0C"/>
<path d="M240.41 66.764H231.567C231.432 66.764 231.303 66.7104 231.207 66.6151C231.112 66.5197 231.058 66.3904 231.058 66.2555C231.058 66.1206 231.112 65.9913 231.207 65.8959C231.303 65.8006 231.432 65.747 231.567 65.747H240.41C240.545 65.747 240.674 65.8006 240.77 65.8959C240.865 65.9913 240.918 66.1206 240.918 66.2555C240.918 66.3904 240.865 66.5197 240.77 66.6151C240.674 66.7104 240.545 66.764 240.41 66.764Z" fill="#0C0C0C"/>
<path d="M287.289 66.764H278.446C278.311 66.764 278.182 66.7104 278.086 66.6151C277.991 66.5197 277.937 66.3904 277.937 66.2555C277.937 66.1206 277.991 65.9913 278.086 65.8959C278.182 65.8006 278.311 65.747 278.446 65.747H287.289C287.424 65.747 287.553 65.8006 287.648 65.8959C287.744 65.9913 287.798 66.1206 287.798 66.2555C287.798 66.3904 287.744 66.5197 287.648 66.6151C287.553 66.7104 287.424 66.764 287.289 66.764Z" fill="#0C0C0C"/>
<g opacity="0.8">
<path d="M266.066 86.267H252.79C252.649 86.267 252.514 86.3228 252.415 86.4221C252.315 86.5215 252.259 86.6562 252.258 86.797V90.052C252.26 90.6566 252.501 91.2359 252.929 91.6628C253.357 92.0897 253.937 92.3293 254.542 92.329H254.779V93.429C254.781 94.0519 255.03 94.6486 255.471 95.0883C255.912 95.5281 256.509 95.775 257.132 95.775H261.721C262.344 95.7753 262.942 95.5284 263.383 95.0887C263.824 94.6489 264.073 94.052 264.075 93.429V92.329H264.312C264.917 92.3293 265.497 92.0897 265.925 91.6628C266.353 91.2359 266.594 90.6566 266.596 90.052V86.797C266.595 86.6562 266.539 86.5215 266.439 86.4221C266.34 86.3228 266.205 86.267 266.064 86.267M258.095 91.267C258.023 91.2639 257.952 91.2753 257.885 91.3006C257.818 91.3258 257.756 91.3644 257.705 91.414C257.653 91.4635 257.612 91.5231 257.584 91.589C257.555 91.6549 257.541 91.7258 257.541 91.7975C257.541 91.8692 257.555 91.9401 257.584 92.006C257.612 92.0719 257.653 92.1315 257.705 92.181C257.756 92.2306 257.818 92.2692 257.885 92.2944C257.952 92.3197 258.023 92.3311 258.095 92.328H263.011V93.428C263.01 93.7692 262.874 94.096 262.632 94.3369C262.39 94.5778 262.063 94.713 261.722 94.713H257.133C256.792 94.7133 256.464 94.5781 256.223 94.3372C255.981 94.0963 255.845 93.7693 255.844 93.428V91.796C255.843 91.6553 255.787 91.5204 255.687 91.4211C255.588 91.3218 255.453 91.266 255.312 91.266C255.221 91.2954 255.124 91.2954 255.033 91.266H254.544C254.221 91.2663 253.911 91.1384 253.682 90.9104C253.454 90.6824 253.325 90.373 253.324 90.05V87.327H265.533V90.051C265.532 90.3739 265.403 90.6832 265.174 90.9111C264.946 91.139 264.636 91.267 264.313 91.267H258.095Z" fill="#FF5A00"/>
<path d="M259.423 81.905C259.564 81.905 259.699 81.8492 259.798 81.7499C259.898 81.6506 259.954 81.5157 259.955 81.375V73.275C261.602 73.1798 263.156 72.4851 264.326 71.322C264.425 71.2222 264.481 71.0869 264.481 70.9459C264.481 70.805 264.424 70.67 264.325 70.5705C264.225 70.4711 264.089 70.4153 263.948 70.4156C263.807 70.4159 263.672 70.4722 263.573 70.572C263.044 71.1017 262.415 71.5213 261.722 71.8067C261.03 72.0921 260.288 72.2377 259.539 72.235C258.79 72.2376 258.048 72.0919 257.355 71.8063C256.663 71.5207 256.034 71.1009 255.504 70.571L255.272 70.34C255.223 70.2906 255.164 70.2514 255.1 70.2247C255.035 70.198 254.966 70.1842 254.896 70.1841C254.827 70.1841 254.757 70.1978 254.693 70.2244C254.628 70.2511 254.57 70.2902 254.52 70.3395C254.471 70.3888 254.432 70.4474 254.405 70.5118C254.378 70.5763 254.365 70.6454 254.365 70.7151C254.365 70.7849 254.378 70.854 254.405 70.9185C254.432 70.983 254.471 71.0416 254.52 71.091L254.752 71.322C255.865 72.4283 257.328 73.1136 258.891 73.261V81.378C258.892 81.5188 258.948 81.6536 259.048 81.7529C259.147 81.8522 259.282 81.908 259.423 81.908" fill="#FF5A00"/>
<path d="M272.048 66.629C271.907 66.629 271.772 66.6848 271.673 66.7841C271.573 66.8834 271.517 67.0182 271.516 67.159C271.514 69.9546 270.536 72.6617 268.752 74.814C266.716 77.1651 265.575 80.1599 265.531 83.27V83.37H253.322V83.27C253.27 80.1498 252.123 77.1472 250.081 74.787C248.329 72.6614 247.36 69.9985 247.337 67.244C247.372 64.1036 248.609 61.0959 250.793 58.8391C252.977 56.5823 255.942 55.2479 259.08 55.11H259.43C261.762 55.1107 264.045 55.7848 266.003 57.0514C267.961 58.318 269.512 60.1232 270.469 62.25C270.526 62.3789 270.633 62.4797 270.764 62.5302C270.896 62.5808 271.043 62.5769 271.172 62.5195C271.3 62.4621 271.401 62.3558 271.452 62.2241C271.502 62.0923 271.498 61.9459 271.441 61.817C270.399 59.5025 268.71 57.5382 266.578 56.1602C264.447 54.7822 261.962 54.0491 259.424 54.049C259.3 54.049 259.176 54.0507 259.051 54.054C256.596 54.1129 254.208 54.8609 252.158 56.2125C250.108 57.5642 248.48 59.465 247.459 61.6979C246.438 63.9308 246.065 66.4058 246.384 68.8404C246.702 71.2749 247.699 73.5709 249.26 75.466C251.144 77.637 252.206 80.4008 252.26 83.275V83.904C252.26 84.0449 252.316 84.18 252.416 84.2795C252.516 84.3791 252.651 84.435 252.792 84.435H266.065C266.206 84.435 266.341 84.3791 266.441 84.2795C266.541 84.18 266.597 84.0449 266.597 83.904V83.272C266.642 80.4094 267.696 77.6546 269.573 75.493C271.515 73.1508 272.579 70.2045 272.582 67.162C272.581 67.0213 272.525 66.8864 272.426 66.7871C272.326 66.6878 272.191 66.632 272.05 66.632" fill="#FF5A00"/>
<path d="M259.426 47.804C259.359 47.8041 259.293 47.7911 259.231 47.7656C259.169 47.7402 259.113 47.7028 259.066 47.6556C259.018 47.6085 258.981 47.5524 258.955 47.4907C258.929 47.429 258.916 47.3628 258.916 47.296V38.48C258.916 38.3447 258.97 38.215 259.065 38.1194C259.161 38.0237 259.291 37.97 259.426 37.97C259.561 37.97 259.691 38.0237 259.787 38.1194C259.882 38.215 259.936 38.3447 259.936 38.48V47.295C259.936 47.3618 259.923 47.428 259.897 47.4897C259.871 47.5514 259.834 47.6075 259.786 47.6546C259.739 47.7018 259.683 47.7392 259.621 47.7646C259.559 47.7901 259.493 47.8041 259.426 47.804Z" fill="#FF5A00"/>
<path d="M245.98 53.358C245.913 53.3581 245.847 53.3451 245.785 53.3195C245.723 53.2939 245.666 53.2564 245.619 53.209L242.791 50.39C242.696 50.2944 242.642 50.1648 242.642 50.0298C242.643 49.8948 242.696 49.7653 242.792 49.67C242.888 49.5747 243.017 49.5212 243.152 49.5214C243.287 49.5216 243.417 49.5754 243.512 49.671L246.34 52.49C246.411 52.561 246.46 52.6517 246.48 52.7505C246.499 52.8492 246.489 52.9516 246.451 53.0446C246.412 53.1376 246.347 53.2171 246.263 53.2729C246.179 53.3287 246.081 53.3583 245.98 53.358Z" fill="#FF5A00"/>
<path d="M243.152 82.988C243.051 82.9885 242.953 82.959 242.869 82.9033C242.785 82.8476 242.719 82.7681 242.68 82.6751C242.642 82.582 242.632 82.4796 242.651 82.3807C242.671 82.2819 242.72 82.1911 242.791 82.12L245.619 79.301C245.714 79.2054 245.844 79.1516 245.979 79.1514C246.114 79.1512 246.243 79.2047 246.339 79.3C246.435 79.3953 246.488 79.5248 246.489 79.6598C246.489 79.7948 246.435 79.9244 246.34 80.02L243.512 82.839C243.465 82.8863 243.409 82.9237 243.347 82.9493C243.285 82.9749 243.219 82.988 243.152 82.988Z" fill="#FF5A00"/>
<path d="M275.707 82.988C275.64 82.988 275.574 82.9749 275.512 82.9493C275.45 82.9237 275.394 82.8863 275.347 82.839L272.519 80.02C272.424 79.9244 272.37 79.7948 272.37 79.6598C272.371 79.5248 272.424 79.3953 272.52 79.3C272.616 79.2047 272.745 79.1512 272.88 79.1514C273.015 79.1516 273.145 79.2054 273.24 79.301L276.067 82.12C276.138 82.191 276.187 82.2817 276.207 82.3805C276.227 82.4792 276.216 82.5816 276.178 82.6746C276.139 82.7676 276.074 82.8471 275.99 82.9029C275.906 82.9587 275.808 82.9883 275.707 82.988Z" fill="#FF5A00"/>
<path d="M272.877 53.358C272.776 53.3583 272.678 53.3287 272.594 53.2729C272.51 53.2171 272.445 53.1376 272.406 53.0446C272.368 52.9516 272.358 52.8492 272.377 52.7505C272.397 52.6517 272.446 52.561 272.517 52.49L275.345 49.671C275.44 49.5754 275.57 49.5216 275.705 49.5214C275.84 49.5212 275.969 49.5747 276.065 49.67C276.161 49.7653 276.214 49.8948 276.215 50.0298C276.215 50.1648 276.161 50.2944 276.066 50.39L273.239 53.209C273.192 53.2564 273.135 53.2939 273.073 53.3195C273.011 53.3451 272.945 53.3581 272.878 53.358" fill="#FF5A00"/>
<path d="M240.41 66.764H231.567C231.432 66.764 231.303 66.7104 231.207 66.6151C231.112 66.5197 231.058 66.3904 231.058 66.2555C231.058 66.1206 231.112 65.9913 231.207 65.8959C231.303 65.8006 231.432 65.747 231.567 65.747H240.41C240.545 65.747 240.674 65.8006 240.77 65.8959C240.865 65.9913 240.918 66.1206 240.918 66.2555C240.918 66.3904 240.865 66.5197 240.77 66.6151C240.674 66.7104 240.545 66.764 240.41 66.764Z" fill="#FF5A00"/>
<path d="M287.289 66.764H278.446C278.311 66.764 278.182 66.7104 278.086 66.6151C277.991 66.5197 277.937 66.3904 277.937 66.2555C277.937 66.1206 277.991 65.9913 278.086 65.8959C278.182 65.8006 278.311 65.747 278.446 65.747H287.289C287.424 65.747 287.553 65.8006 287.648 65.8959C287.744 65.9913 287.798 66.1206 287.798 66.2555C287.798 66.3904 287.744 66.5197 287.648 66.6151C287.553 66.7104 287.424 66.764 287.289 66.764Z" fill="#FF5A00"/>
</g>
<path fill-rule="evenodd" clip-rule="evenodd" d="M207.843 70.945H220.162C221 70.9463 221.804 71.2791 222.397 71.8708C222.991 72.4625 223.326 73.2649 223.33 74.103V86.384C223.326 87.2221 222.991 88.0248 222.397 88.6165C221.804 89.2082 221 89.541 220.162 89.542H207.843C207.005 89.5407 206.201 89.2079 205.608 88.6162C205.014 88.0245 204.679 87.2221 204.675 86.384V74.103C204.679 73.2649 205.014 72.4625 205.608 71.8708C206.201 71.2791 207.005 70.9463 207.843 70.945Z" fill="#FF5A00"/>
<path d="M212.408 82.682C212.375 82.1297 212.507 81.5801 212.787 81.103C213.17 80.6263 213.628 80.2155 214.144 79.887C214.468 79.6904 214.741 79.4218 214.944 79.102C215.142 78.777 215.243 78.4024 215.236 78.022C215.255 77.6536 215.133 77.2918 214.895 77.01C214.771 76.8808 214.62 76.7801 214.453 76.7148C214.286 76.6496 214.107 76.6213 213.928 76.632C213.766 76.6237 213.603 76.6501 213.452 76.7095C213.3 76.7688 213.163 76.8598 213.05 76.9763C212.936 77.0927 212.849 77.2321 212.793 77.385C212.738 77.5379 212.716 77.7008 212.728 77.863H210.228L210.213 77.817C210.174 77.3717 210.245 76.9237 210.419 76.5122C210.594 76.1006 210.866 75.738 211.213 75.456C212.002 74.8974 212.956 74.6192 213.922 74.666C214.948 74.6072 215.959 74.9303 216.76 75.573C217.104 75.878 217.376 76.2559 217.555 76.6793C217.735 77.1026 217.817 77.5607 217.797 78.02C217.799 78.6448 217.601 79.2537 217.232 79.758C216.861 80.2831 216.368 80.7108 215.796 81.005C215.519 81.1677 215.292 81.4041 215.141 81.688C215.014 82.0031 214.956 82.3416 214.97 82.681L212.408 82.682ZM214.965 85.824H212.419V83.784H214.965V85.824Z" fill="white"/>
<path d="M126.899 67.77H123.809C123.76 67.7701 123.712 67.7607 123.667 67.7421C123.622 67.7236 123.581 67.6964 123.547 67.662C123.512 67.6276 123.485 67.5868 123.466 67.5418C123.448 67.4969 123.438 67.4487 123.438 67.4V64.32C123.438 64.2713 123.448 64.2231 123.466 64.1782C123.485 64.1332 123.512 64.0924 123.547 64.058C123.581 64.0236 123.622 63.9964 123.667 63.9779C123.712 63.9593 123.76 63.9499 123.809 63.95H126.899C126.948 63.9499 126.996 63.9593 127.041 63.9779C127.086 63.9964 127.127 64.0236 127.161 64.058C127.196 64.0924 127.223 64.1332 127.242 64.1782C127.26 64.2231 127.27 64.2713 127.27 64.32V67.4C127.27 67.4487 127.26 67.4969 127.242 67.5418C127.223 67.5868 127.196 67.6276 127.161 67.662C127.127 67.6964 127.086 67.7236 127.041 67.7421C126.996 67.7607 126.948 67.7701 126.899 67.77ZM124.18 67.031H126.528V64.69H124.18V67.031Z" fill="black"/>
<path d="M126.899 74.006H123.809C123.76 74.0061 123.712 73.9967 123.667 73.9781C123.622 73.9596 123.581 73.9324 123.547 73.898C123.512 73.8636 123.485 73.8228 123.466 73.7778C123.448 73.7329 123.438 73.6847 123.438 73.636V70.553C123.438 70.5043 123.448 70.4561 123.466 70.4112C123.485 70.3662 123.512 70.3254 123.547 70.291C123.581 70.2566 123.622 70.2294 123.667 70.2109C123.712 70.1923 123.76 70.1829 123.809 70.183H126.899C126.997 70.183 127.091 70.2219 127.161 70.2913C127.231 70.3607 127.27 70.4548 127.27 70.553V73.633C127.27 73.6817 127.26 73.7299 127.242 73.7748C127.223 73.8198 127.196 73.8606 127.161 73.895C127.127 73.9294 127.086 73.9566 127.041 73.9751C126.996 73.9937 126.948 74.0031 126.899 74.003M124.18 73.264H126.528V70.923H124.18V73.264Z" fill="black"/>
<path d="M126.899 80.243H123.809C123.76 80.2431 123.712 80.2337 123.667 80.2151C123.622 80.1966 123.581 80.1694 123.547 80.135C123.512 80.1006 123.485 80.0598 123.466 80.0148C123.448 79.9699 123.438 79.9217 123.438 79.873V76.793C123.438 76.7443 123.448 76.6961 123.466 76.6512C123.485 76.6062 123.512 76.5654 123.547 76.531C123.581 76.4967 123.622 76.4694 123.667 76.4509C123.712 76.4323 123.76 76.4229 123.809 76.423H126.899C126.948 76.4229 126.996 76.4323 127.041 76.4509C127.086 76.4694 127.127 76.4967 127.161 76.531C127.196 76.5654 127.223 76.6062 127.242 76.6512C127.26 76.6961 127.27 76.7443 127.27 76.793V79.873C127.27 79.9217 127.26 79.9699 127.242 80.0148C127.223 80.0598 127.196 80.1006 127.161 80.135C127.127 80.1694 127.086 80.1966 127.041 80.2151C126.996 80.2337 126.948 80.2431 126.899 80.243ZM124.18 79.504H126.528V77.163H124.18V79.504Z" fill="black"/>
<path d="M144.243 64.69H131.39C131.34 64.6926 131.29 64.685 131.243 64.6676C131.196 64.6502 131.152 64.6234 131.116 64.5888C131.08 64.5543 131.051 64.5127 131.031 64.4665C131.011 64.4204 131.001 64.3707 131.001 64.3205C131.001 64.2703 131.011 64.2206 131.031 64.1745C131.051 64.1283 131.08 64.0867 131.116 64.0522C131.152 64.0176 131.196 63.9908 131.243 63.9734C131.29 63.956 131.34 63.9484 131.39 63.951H144.243C144.293 63.9484 144.343 63.956 144.39 63.9734C144.437 63.9908 144.481 64.0176 144.517 64.0522C144.553 64.0867 144.582 64.1283 144.602 64.1745C144.622 64.2206 144.632 64.2703 144.632 64.3205C144.632 64.3707 144.622 64.4204 144.602 64.4665C144.582 64.5127 144.553 64.5543 144.517 64.5888C144.481 64.6234 144.437 64.6502 144.39 64.6676C144.343 64.685 144.293 64.6926 144.243 64.69Z" fill="black"/>
<path d="M139.299 67.277H131.389C131.339 67.2796 131.289 67.272 131.242 67.2546C131.194 67.2372 131.151 67.2104 131.115 67.1758C131.079 67.1413 131.05 67.0997 131.03 67.0535C131.01 67.0074 131 66.9577 131 66.9075C131 66.8573 131.01 66.8076 131.03 66.7615C131.05 66.7153 131.079 66.6737 131.115 66.6392C131.151 66.6046 131.194 66.5778 131.242 66.5604C131.289 66.543 131.339 66.5354 131.389 66.538H139.299C139.349 66.5354 139.399 66.543 139.446 66.5604C139.493 66.5778 139.537 66.6046 139.573 66.6392C139.609 66.6737 139.638 66.7153 139.658 66.7615C139.678 66.8076 139.688 66.8573 139.688 66.9075C139.688 66.9577 139.678 67.0074 139.658 67.0535C139.638 67.0997 139.609 67.1413 139.573 67.1758C139.537 67.2104 139.493 67.2372 139.446 67.2546C139.399 67.272 139.349 67.2796 139.299 67.277Z" fill="black"/>
<path d="M151.329 64.69H147.292C147.242 64.6926 147.192 64.685 147.145 64.6676C147.098 64.6502 147.054 64.6234 147.018 64.5888C146.982 64.5543 146.953 64.5127 146.933 64.4665C146.913 64.4204 146.903 64.3707 146.903 64.3205C146.903 64.2703 146.913 64.2206 146.933 64.1745C146.953 64.1283 146.982 64.0867 147.018 64.0522C147.054 64.0176 147.098 63.9908 147.145 63.9734C147.192 63.956 147.242 63.9484 147.292 63.951H151.329C151.379 63.9484 151.429 63.956 151.476 63.9734C151.524 63.9908 151.567 64.0176 151.603 64.0522C151.639 64.0867 151.668 64.1283 151.688 64.1745C151.708 64.2206 151.718 64.2703 151.718 64.3205C151.718 64.3707 151.708 64.4204 151.688 64.4665C151.668 64.5127 151.639 64.5543 151.603 64.5888C151.567 64.6234 151.524 64.6502 151.476 64.6676C151.429 64.685 151.379 64.6926 151.329 64.69Z" fill="black"/>
<path d="M141.03 70.926H131.39C131.34 70.9286 131.29 70.921 131.243 70.9036C131.196 70.8862 131.152 70.8594 131.116 70.8248C131.08 70.7903 131.051 70.7487 131.031 70.7025C131.011 70.6564 131.001 70.6067 131.001 70.5565C131.001 70.5063 131.011 70.4566 131.031 70.4105C131.051 70.3643 131.08 70.3227 131.116 70.2882C131.152 70.2536 131.196 70.2268 131.243 70.2094C131.29 70.192 131.34 70.1844 131.39 70.187H141.03C141.08 70.1844 141.13 70.192 141.177 70.2094C141.224 70.2268 141.268 70.2536 141.304 70.2882C141.34 70.3227 141.369 70.3643 141.389 70.4105C141.409 70.4566 141.419 70.5063 141.419 70.5565C141.419 70.6067 141.409 70.6564 141.389 70.7025C141.369 70.7487 141.34 70.7903 141.304 70.8248C141.268 70.8594 141.224 70.8862 141.177 70.9036C141.13 70.921 141.08 70.9286 141.03 70.926Z" fill="black"/>
<path d="M145.644 73.514H131.39C131.34 73.5166 131.29 73.509 131.243 73.4916C131.196 73.4742 131.152 73.4474 131.116 73.4128C131.08 73.3783 131.051 73.3367 131.031 73.2905C131.011 73.2444 131.001 73.1947 131.001 73.1445C131.001 73.0943 131.011 73.0446 131.031 72.9985C131.051 72.9523 131.08 72.9107 131.116 72.8762C131.152 72.8416 131.196 72.8148 131.243 72.7974C131.29 72.78 131.34 72.7724 131.39 72.775H145.644C145.694 72.7724 145.744 72.78 145.791 72.7974C145.838 72.8148 145.882 72.8416 145.918 72.8762C145.954 72.9107 145.983 72.9523 146.003 72.9985C146.023 73.0446 146.033 73.0943 146.033 73.1445C146.033 73.1947 146.023 73.2444 146.003 73.2905C145.983 73.3367 145.954 73.3783 145.918 73.4128C145.882 73.4474 145.838 73.4742 145.791 73.4916C145.744 73.509 145.694 73.5166 145.644 73.514Z" fill="black"/>
<path d="M151.329 70.926H144.079C144.029 70.9286 143.979 70.921 143.932 70.9036C143.885 70.8862 143.841 70.8594 143.805 70.8248C143.769 70.7903 143.74 70.7487 143.72 70.7025C143.7 70.6564 143.69 70.6067 143.69 70.5565C143.69 70.5063 143.7 70.4566 143.72 70.4105C143.74 70.3643 143.769 70.3227 143.805 70.2882C143.841 70.2536 143.885 70.2268 143.932 70.2094C143.979 70.192 144.029 70.1844 144.079 70.187H151.329C151.379 70.1844 151.429 70.192 151.476 70.2094C151.523 70.2268 151.567 70.2536 151.603 70.2882C151.639 70.3227 151.668 70.3643 151.688 70.4105C151.708 70.4566 151.718 70.5063 151.718 70.5565C151.718 70.6067 151.708 70.6564 151.688 70.7025C151.668 70.7487 151.639 70.7903 151.603 70.8248C151.567 70.8594 151.523 70.8862 151.476 70.9036C151.429 70.921 151.379 70.9286 151.329 70.926Z" fill="black"/>
<path d="M144.243 77.163H131.39C131.34 77.1656 131.29 77.158 131.243 77.1406C131.196 77.1232 131.152 77.0964 131.116 77.0618C131.08 77.0273 131.051 76.9857 131.031 76.9395C131.011 76.8934 131.001 76.8437 131.001 76.7935C131.001 76.7433 131.011 76.6936 131.031 76.6475C131.051 76.6013 131.08 76.5597 131.116 76.5252C131.152 76.4906 131.196 76.4638 131.243 76.4464C131.29 76.429 131.34 76.4214 131.39 76.424H144.243C144.293 76.4214 144.343 76.429 144.39 76.4464C144.437 76.4638 144.481 76.4906 144.517 76.5252C144.553 76.5597 144.582 76.6013 144.602 76.6475C144.622 76.6936 144.632 76.7433 144.632 76.7935C144.632 76.8437 144.622 76.8934 144.602 76.9395C144.582 76.9857 144.553 77.0273 144.517 77.0618C144.481 77.0964 144.437 77.1232 144.39 77.1406C144.343 77.158 144.293 77.1656 144.243 77.163Z" fill="black"/>
<path d="M139.299 79.75H131.389C131.339 79.7526 131.289 79.745 131.242 79.7276C131.194 79.7102 131.151 79.6834 131.115 79.6488C131.079 79.6143 131.05 79.5726 131.03 79.5265C131.01 79.4804 131 79.4307 131 79.3805C131 79.3303 131.01 79.2806 131.03 79.2345C131.05 79.1883 131.079 79.1467 131.115 79.1121C131.151 79.0776 131.194 79.0508 131.242 79.0334C131.289 79.016 131.339 79.0084 131.389 79.011H139.299C139.349 79.0084 139.399 79.016 139.446 79.0334C139.493 79.0508 139.537 79.0776 139.573 79.1121C139.609 79.1467 139.638 79.1883 139.658 79.2345C139.678 79.2806 139.688 79.3303 139.688 79.3805C139.688 79.4307 139.678 79.4804 139.658 79.5265C139.638 79.5726 139.609 79.6143 139.573 79.6488C139.537 79.6834 139.493 79.7102 139.446 79.7276C139.399 79.745 139.349 79.7526 139.299 79.75Z" fill="black"/>
<path d="M151.329 77.163H147.292C147.242 77.1656 147.192 77.158 147.145 77.1406C147.098 77.1232 147.054 77.0964 147.018 77.0618C146.982 77.0273 146.953 76.9857 146.933 76.9395C146.913 76.8934 146.903 76.8437 146.903 76.7935C146.903 76.7433 146.913 76.6936 146.933 76.6475C146.953 76.6013 146.982 76.5597 147.018 76.5252C147.054 76.4906 147.098 76.4638 147.145 76.4464C147.192 76.429 147.242 76.4214 147.292 76.424H151.329C151.379 76.4214 151.429 76.429 151.476 76.4464C151.524 76.4638 151.567 76.4906 151.603 76.5252C151.639 76.5597 151.668 76.6013 151.688 76.6475C151.708 76.6936 151.718 76.7433 151.718 76.7935C151.718 76.8437 151.708 76.8934 151.688 76.9395C151.668 76.9857 151.639 77.0273 151.603 77.0618C151.567 77.0964 151.524 77.1232 151.476 77.1406C151.429 77.158 151.379 77.1656 151.329 77.163Z" fill="black"/>
<g opacity="0.8">
<path d="M126.899 67.77H123.809C123.76 67.7701 123.712 67.7607 123.667 67.7421C123.622 67.7236 123.581 67.6964 123.547 67.662C123.512 67.6276 123.485 67.5868 123.466 67.5418C123.448 67.4969 123.438 67.4487 123.438 67.4V64.32C123.438 64.2713 123.448 64.2231 123.466 64.1782C123.485 64.1332 123.512 64.0924 123.547 64.058C123.581 64.0236 123.622 63.9964 123.667 63.9779C123.712 63.9593 123.76 63.9499 123.809 63.95H126.899C126.948 63.9499 126.996 63.9593 127.041 63.9779C127.086 63.9964 127.127 64.0236 127.161 64.058C127.196 64.0924 127.223 64.1332 127.242 64.1782C127.26 64.2231 127.27 64.2713 127.27 64.32V67.4C127.27 67.4487 127.26 67.4969 127.242 67.5418C127.223 67.5868 127.196 67.6276 127.161 67.662C127.127 67.6964 127.086 67.7236 127.041 67.7421C126.996 67.7607 126.948 67.7701 126.899 67.77ZM124.18 67.031H126.528V64.69H124.18V67.031Z" fill="#FF5A00"/>
<path d="M126.899 74.006H123.809C123.76 74.0061 123.712 73.9967 123.667 73.9781C123.622 73.9596 123.581 73.9324 123.547 73.898C123.512 73.8636 123.485 73.8228 123.466 73.7778C123.448 73.7329 123.438 73.6847 123.438 73.636V70.553C123.438 70.5043 123.448 70.4561 123.466 70.4112C123.485 70.3662 123.512 70.3254 123.547 70.291C123.581 70.2566 123.622 70.2294 123.667 70.2109C123.712 70.1923 123.76 70.1829 123.809 70.183H126.899C126.997 70.183 127.091 70.2219 127.161 70.2913C127.231 70.3607 127.27 70.4548 127.27 70.553V73.633C127.27 73.6817 127.26 73.7299 127.242 73.7748C127.223 73.8198 127.196 73.8606 127.161 73.895C127.127 73.9294 127.086 73.9566 127.041 73.9751C126.996 73.9937 126.948 74.0031 126.899 74.003M124.18 73.264H126.528V70.923H124.18V73.264Z" fill="#FF5A00"/>
<path d="M126.899 80.243H123.809C123.76 80.2431 123.712 80.2337 123.667 80.2151C123.622 80.1966 123.581 80.1694 123.547 80.135C123.512 80.1006 123.485 80.0598 123.466 80.0148C123.448 79.9699 123.438 79.9217 123.438 79.873V76.793C123.438 76.7443 123.448 76.6961 123.466 76.6512C123.485 76.6062 123.512 76.5654 123.547 76.531C123.581 76.4967 123.622 76.4694 123.667 76.4509C123.712 76.4323 123.76 76.4229 123.809 76.423H126.899C126.948 76.4229 126.996 76.4323 127.041 76.4509C127.086 76.4694 127.127 76.4967 127.161 76.531C127.196 76.5654 127.223 76.6062 127.242 76.6512C127.26 76.6961 127.27 76.7443 127.27 76.793V79.873C127.27 79.9217 127.26 79.9699 127.242 80.0148C127.223 80.0598 127.196 80.1006 127.161 80.135C127.127 80.1694 127.086 80.1966 127.041 80.2151C126.996 80.2337 126.948 80.2431 126.899 80.243ZM124.18 79.504H126.528V77.163H124.18V79.504Z" fill="#FF5A00"/>
<path d="M144.243 64.69H131.39C131.34 64.6926 131.29 64.685 131.243 64.6676C131.196 64.6502 131.152 64.6234 131.116 64.5888C131.08 64.5543 131.051 64.5127 131.031 64.4665C131.011 64.4204 131.001 64.3707 131.001 64.3205C131.001 64.2703 131.011 64.2206 131.031 64.1745C131.051 64.1283 131.08 64.0867 131.116 64.0522C131.152 64.0176 131.196 63.9908 131.243 63.9734C131.29 63.956 131.34 63.9484 131.39 63.951H144.243C144.293 63.9484 144.343 63.956 144.39 63.9734C144.437 63.9908 144.481 64.0176 144.517 64.0522C144.553 64.0867 144.582 64.1283 144.602 64.1745C144.622 64.2206 144.632 64.2703 144.632 64.3205C144.632 64.3707 144.622 64.4204 144.602 64.4665C144.582 64.5127 144.553 64.5543 144.517 64.5888C144.481 64.6234 144.437 64.6502 144.39 64.6676C144.343 64.685 144.293 64.6926 144.243 64.69Z" fill="#FF5A00"/>
<path d="M139.299 67.277H131.389C131.339 67.2796 131.289 67.272 131.242 67.2546C131.194 67.2372 131.151 67.2104 131.115 67.1758C131.079 67.1413 131.05 67.0997 131.03 67.0535C131.01 67.0074 131 66.9577 131 66.9075C131 66.8573 131.01 66.8076 131.03 66.7615C131.05 66.7153 131.079 66.6737 131.115 66.6392C131.151 66.6046 131.194 66.5778 131.242 66.5604C131.289 66.543 131.339 66.5354 131.389 66.538H139.299C139.349 66.5354 139.399 66.543 139.446 66.5604C139.493 66.5778 139.537 66.6046 139.573 66.6392C139.609 66.6737 139.638 66.7153 139.658 66.7615C139.678 66.8076 139.688 66.8573 139.688 66.9075C139.688 66.9577 139.678 67.0074 139.658 67.0535C139.638 67.0997 139.609 67.1413 139.573 67.1758C139.537 67.2104 139.493 67.2372 139.446 67.2546C139.399 67.272 139.349 67.2796 139.299 67.277Z" fill="#FF5A00"/>
<path d="M151.329 64.69H147.292C147.242 64.6926 147.192 64.685 147.145 64.6676C147.098 64.6502 147.054 64.6234 147.018 64.5888C146.982 64.5543 146.953 64.5127 146.933 64.4665C146.913 64.4204 146.903 64.3707 146.903 64.3205C146.903 64.2703 146.913 64.2206 146.933 64.1745C146.953 64.1283 146.982 64.0867 147.018 64.0522C147.054 64.0176 147.098 63.9908 147.145 63.9734C147.192 63.956 147.242 63.9484 147.292 63.951H151.329C151.379 63.9484 151.429 63.956 151.476 63.9734C151.524 63.9908 151.567 64.0176 151.603 64.0522C151.639 64.0867 151.668 64.1283 151.688 64.1745C151.708 64.2206 151.718 64.2703 151.718 64.3205C151.718 64.3707 151.708 64.4204 151.688 64.4665C151.668 64.5127 151.639 64.5543 151.603 64.5888C151.567 64.6234 151.524 64.6502 151.476 64.6676C151.429 64.685 151.379 64.6926 151.329 64.69Z" fill="#FF5A00"/>
<path d="M141.03 70.926H131.39C131.34 70.9286 131.29 70.921 131.243 70.9036C131.196 70.8862 131.152 70.8594 131.116 70.8248C131.08 70.7903 131.051 70.7487 131.031 70.7025C131.011 70.6564 131.001 70.6067 131.001 70.5565C131.001 70.5063 131.011 70.4566 131.031 70.4105C131.051 70.3643 131.08 70.3227 131.116 70.2882C131.152 70.2536 131.196 70.2268 131.243 70.2094C131.29 70.192 131.34 70.1844 131.39 70.187H141.03C141.08 70.1844 141.13 70.192 141.177 70.2094C141.224 70.2268 141.268 70.2536 141.304 70.2882C141.34 70.3227 141.369 70.3643 141.389 70.4105C141.409 70.4566 141.419 70.5063 141.419 70.5565C141.419 70.6067 141.409 70.6564 141.389 70.7025C141.369 70.7487 141.34 70.7903 141.304 70.8248C141.268 70.8594 141.224 70.8862 141.177 70.9036C141.13 70.921 141.08 70.9286 141.03 70.926Z" fill="#FF5A00"/>
<path d="M145.644 73.514H131.39C131.34 73.5166 131.29 73.509 131.243 73.4916C131.196 73.4742 131.152 73.4474 131.116 73.4128C131.08 73.3783 131.051 73.3367 131.031 73.2905C131.011 73.2444 131.001 73.1947 131.001 73.1445C131.001 73.0943 131.011 73.0446 131.031 72.9985C131.051 72.9523 131.08 72.9107 131.116 72.8762C131.152 72.8416 131.196 72.8148 131.243 72.7974C131.29 72.78 131.34 72.7724 131.39 72.775H145.644C145.694 72.7724 145.744 72.78 145.791 72.7974C145.838 72.8148 145.882 72.8416 145.918 72.8762C145.954 72.9107 145.983 72.9523 146.003 72.9985C146.023 73.0446 146.033 73.0943 146.033 73.1445C146.033 73.1947 146.023 73.2444 146.003 73.2905C145.983 73.3367 145.954 73.3783 145.918 73.4128C145.882 73.4474 145.838 73.4742 145.791 73.4916C145.744 73.509 145.694 73.5166 145.644 73.514Z" fill="#FF5A00"/>
<path d="M151.329 70.926H144.079C144.029 70.9286 143.979 70.921 143.932 70.9036C143.885 70.8862 143.841 70.8594 143.805 70.8248C143.769 70.7903 143.74 70.7487 143.72 70.7025C143.7 70.6564 143.69 70.6067 143.69 70.5565C143.69 70.5063 143.7 70.4566 143.72 70.4105C143.74 70.3643 143.769 70.3227 143.805 70.2882C143.841 70.2536 143.885 70.2268 143.932 70.2094C143.979 70.192 144.029 70.1844 144.079 70.187H151.329C151.379 70.1844 151.429 70.192 151.476 70.2094C151.523 70.2268 151.567 70.2536 151.603 70.2882C151.639 70.3227 151.668 70.3643 151.688 70.4105C151.708 70.4566 151.718 70.5063 151.718 70.5565C151.718 70.6067 151.708 70.6564 151.688 70.7025C151.668 70.7487 151.639 70.7903 151.603 70.8248C151.567 70.8594 151.523 70.8862 151.476 70.9036C151.429 70.921 151.379 70.9286 151.329 70.926Z" fill="#FF5A00"/>
<path d="M144.243 77.163H131.39C131.34 77.1656 131.29 77.158 131.243 77.1406C131.196 77.1232 131.152 77.0964 131.116 77.0618C131.08 77.0273 131.051 76.9857 131.031 76.9395C131.011 76.8934 131.001 76.8437 131.001 76.7935C131.001 76.7433 131.011 76.6936 131.031 76.6475C131.051 76.6013 131.08 76.5597 131.116 76.5252C131.152 76.4906 131.196 76.4638 131.243 76.4464C131.29 76.429 131.34 76.4214 131.39 76.424H144.243C144.293 76.4214 144.343 76.429 144.39 76.4464C144.437 76.4638 144.481 76.4906 144.517 76.5252C144.553 76.5597 144.582 76.6013 144.602 76.6475C144.622 76.6936 144.632 76.7433 144.632 76.7935C144.632 76.8437 144.622 76.8934 144.602 76.9395C144.582 76.9857 144.553 77.0273 144.517 77.0618C144.481 77.0964 144.437 77.1232 144.39 77.1406C144.343 77.158 144.293 77.1656 144.243 77.163Z" fill="#FF5A00"/>
<path d="M139.299 79.75H131.389C131.339 79.7526 131.289 79.745 131.242 79.7276C131.194 79.7102 131.151 79.6834 131.115 79.6488C131.079 79.6143 131.05 79.5726 131.03 79.5265C131.01 79.4804 131 79.4307 131 79.3805C131 79.3303 131.01 79.2806 131.03 79.2345C131.05 79.1883 131.079 79.1467 131.115 79.1121C131.151 79.0776 131.194 79.0508 131.242 79.0334C131.289 79.016 131.339 79.0084 131.389 79.011H139.299C139.349 79.0084 139.399 79.016 139.446 79.0334C139.493 79.0508 139.537 79.0776 139.573 79.1121C139.609 79.1467 139.638 79.1883 139.658 79.2345C139.678 79.2806 139.688 79.3303 139.688 79.3805C139.688 79.4307 139.678 79.4804 139.658 79.5265C139.638 79.5726 139.609 79.6143 139.573 79.6488C139.537 79.6834 139.493 79.7102 139.446 79.7276C139.399 79.745 139.349 79.7526 139.299 79.75Z" fill="#FF5A00"/>
<path d="M151.329 77.163H147.292C147.242 77.1656 147.192 77.158 147.145 77.1406C147.098 77.1232 147.054 77.0964 147.018 77.0618C146.982 77.0273 146.953 76.9857 146.933 76.9395C146.913 76.8934 146.903 76.8437 146.903 76.7935C146.903 76.7433 146.913 76.6936 146.933 76.6475C146.953 76.6013 146.982 76.5597 147.018 76.5252C147.054 76.4906 147.098 76.4638 147.145 76.4464C147.192 76.429 147.242 76.4214 147.292 76.424H151.329C151.379 76.4214 151.429 76.429 151.476 76.4464C151.524 76.4638 151.567 76.4906 151.603 76.5252C151.639 76.5597 151.668 76.6013 151.688 76.6475C151.708 76.6936 151.718 76.7433 151.718 76.7935C151.718 76.8437 151.708 76.8934 151.688 76.9395C151.668 76.9857 151.639 77.0273 151.603 77.0618C151.567 77.0964 151.524 77.1232 151.476 77.1406C151.429 77.158 151.379 77.1656 151.329 77.163Z" fill="#FF5A00"/>
</g>
<path d="M135.016 48.931H131.926C131.877 48.9311 131.829 48.9217 131.784 48.9031C131.739 48.8846 131.698 48.8573 131.664 48.823C131.629 48.7886 131.602 48.7478 131.583 48.7028C131.565 48.6579 131.555 48.6097 131.555 48.561V45.481C131.555 45.4323 131.565 45.3841 131.583 45.3392C131.602 45.2942 131.629 45.2534 131.664 45.219C131.698 45.1846 131.739 45.1574 131.784 45.1389C131.829 45.1203 131.877 45.1109 131.926 45.111H135.016C135.065 45.1109 135.113 45.1203 135.158 45.1389C135.203 45.1574 135.244 45.1846 135.278 45.219C135.313 45.2534 135.34 45.2942 135.359 45.3392C135.377 45.3841 135.387 45.4323 135.387 45.481V48.561C135.387 48.6097 135.377 48.6579 135.359 48.7028C135.34 48.7478 135.313 48.7886 135.278 48.823C135.244 48.8573 135.203 48.8846 135.158 48.9031C135.113 48.9217 135.065 48.9311 135.016 48.931ZM132.297 48.192H134.645V45.851H132.297V48.192Z" fill="black"/>
<path d="M135.016 55.167H131.926C131.877 55.1671 131.829 55.1577 131.784 55.1391C131.739 55.1206 131.698 55.0934 131.664 55.059C131.629 55.0246 131.602 54.9838 131.583 54.9388C131.565 54.8939 131.555 54.8457 131.555 54.797V51.717C131.555 51.6683 131.565 51.6201 131.583 51.5752C131.602 51.5302 131.629 51.4894 131.664 51.455C131.698 51.4206 131.739 51.3934 131.784 51.3749C131.829 51.3563 131.877 51.3469 131.926 51.347H135.016C135.065 51.3469 135.113 51.3563 135.158 51.3749C135.203 51.3934 135.244 51.4206 135.278 51.455C135.313 51.4894 135.34 51.5302 135.359 51.5752C135.377 51.6201 135.387 51.6683 135.387 51.717V54.797C135.387 54.8457 135.377 54.8939 135.359 54.9388C135.34 54.9838 135.313 55.0246 135.278 55.059C135.244 55.0934 135.203 55.1206 135.158 55.1391C135.113 55.1577 135.065 55.1671 135.016 55.167ZM132.297 54.428H134.645V52.087H132.297V54.428Z" fill="black"/>
<path d="M146.782 45.851H139.506C139.456 45.8536 139.406 45.846 139.359 45.8286C139.312 45.8112 139.268 45.7844 139.232 45.7498C139.196 45.7153 139.167 45.6736 139.147 45.6275C139.127 45.5814 139.117 45.5317 139.117 45.4815C139.117 45.4313 139.127 45.3816 139.147 45.3355C139.167 45.2893 139.196 45.2477 139.232 45.2131C139.268 45.1786 139.312 45.1518 139.359 45.1344C139.406 45.117 139.456 45.1094 139.506 45.112H146.782C146.832 45.1094 146.882 45.117 146.929 45.1344C146.976 45.1518 147.02 45.1786 147.056 45.2131C147.092 45.2477 147.121 45.2893 147.141 45.3355C147.161 45.3816 147.171 45.4313 147.171 45.4815C147.171 45.5317 147.161 45.5814 147.141 45.6275C147.121 45.6736 147.092 45.7153 147.056 45.7498C147.02 45.7844 146.976 45.8112 146.929 45.8286C146.882 45.846 146.832 45.8536 146.782 45.851Z" fill="black"/>
<path d="M153.829 48.438H139.506C139.456 48.4406 139.406 48.433 139.359 48.4156C139.312 48.3982 139.268 48.3714 139.232 48.3368C139.196 48.3023 139.167 48.2606 139.147 48.2145C139.127 48.1684 139.117 48.1187 139.117 48.0685C139.117 48.0183 139.127 47.9686 139.147 47.9225C139.167 47.8763 139.196 47.8347 139.232 47.8001C139.268 47.7656 139.312 47.7388 139.359 47.7214C139.406 47.704 139.456 47.6964 139.506 47.699H153.829C153.879 47.6964 153.929 47.704 153.976 47.7214C154.023 47.7388 154.067 47.7656 154.103 47.8001C154.139 47.8347 154.168 47.8763 154.188 47.9225C154.208 47.9686 154.218 48.0183 154.218 48.0685C154.218 48.1187 154.208 48.1684 154.188 48.2145C154.168 48.2606 154.139 48.3023 154.103 48.3368C154.067 48.3714 154.023 48.3982 153.976 48.4156C153.929 48.433 153.879 48.4406 153.829 48.438Z" fill="black"/>
<path d="M167.81 45.851H149.83C149.78 45.8536 149.73 45.846 149.683 45.8286C149.636 45.8112 149.592 45.7844 149.556 45.7498C149.52 45.7153 149.491 45.6736 149.471 45.6275C149.451 45.5814 149.441 45.5317 149.441 45.4815C149.441 45.4313 149.451 45.3816 149.471 45.3355C149.491 45.2893 149.52 45.2477 149.556 45.2131C149.592 45.1786 149.636 45.1518 149.683 45.1344C149.73 45.117 149.78 45.1094 149.83 45.112H167.81C167.86 45.1094 167.91 45.117 167.957 45.1344C168.004 45.1518 168.048 45.1786 168.084 45.2131C168.12 45.2477 168.149 45.2893 168.169 45.3355C168.189 45.3816 168.199 45.4313 168.199 45.4815C168.199 45.5317 168.189 45.5814 168.169 45.6275C168.149 45.6736 168.12 45.7153 168.084 45.7498C168.048 45.7844 168.004 45.8112 167.957 45.8286C167.91 45.846 167.86 45.8536 167.81 45.851Z" fill="black"/>
<path d="M151.377 52.087H139.506C139.456 52.0896 139.406 52.082 139.359 52.0646C139.312 52.0472 139.268 52.0204 139.232 51.9858C139.196 51.9513 139.167 51.9096 139.147 51.8635C139.127 51.8174 139.117 51.7677 139.117 51.7175C139.117 51.6673 139.127 51.6176 139.147 51.5715C139.167 51.5253 139.196 51.4837 139.232 51.4491C139.268 51.4146 139.312 51.3878 139.359 51.3704C139.406 51.353 139.456 51.3454 139.506 51.348H151.377C151.427 51.3454 151.477 51.353 151.524 51.3704C151.572 51.3878 151.615 51.4146 151.651 51.4491C151.687 51.4837 151.716 51.5253 151.736 51.5715C151.756 51.6176 151.766 51.6673 151.766 51.7175C151.766 51.7677 151.756 51.8174 151.736 51.8635C151.716 51.9096 151.687 51.9513 151.651 51.9858C151.615 52.0204 151.572 52.0472 151.524 52.0646C151.477 52.082 151.427 52.0896 151.377 52.087Z" fill="black"/>
<path d="M145.952 54.675H139.506C139.456 54.6776 139.406 54.67 139.359 54.6526C139.312 54.6352 139.268 54.6084 139.232 54.5738C139.196 54.5393 139.167 54.4976 139.147 54.4515C139.127 54.4054 139.117 54.3557 139.117 54.3055C139.117 54.2553 139.127 54.2056 139.147 54.1595C139.167 54.1133 139.196 54.0717 139.232 54.0371C139.268 54.0026 139.312 53.9758 139.359 53.9584C139.406 53.941 139.456 53.9334 139.506 53.936H145.952C146.002 53.9334 146.052 53.941 146.099 53.9584C146.146 53.9758 146.19 54.0026 146.226 54.0371C146.262 54.0717 146.291 54.1133 146.311 54.1595C146.331 54.2056 146.341 54.2553 146.341 54.3055C146.341 54.3557 146.331 54.4054 146.311 54.4515C146.291 54.4976 146.262 54.5393 146.226 54.5738C146.19 54.6084 146.146 54.6352 146.099 54.6526C146.052 54.67 146.002 54.6776 145.952 54.675Z" fill="black"/>
<path d="M161.675 52.087H154.425C154.375 52.0896 154.325 52.082 154.278 52.0646C154.231 52.0472 154.187 52.0204 154.151 51.9858C154.115 51.9513 154.086 51.9096 154.066 51.8635C154.046 51.8174 154.036 51.7677 154.036 51.7175C154.036 51.6673 154.046 51.6176 154.066 51.5715C154.086 51.5253 154.115 51.4837 154.151 51.4491C154.187 51.4146 154.231 51.3878 154.278 51.3704C154.325 51.353 154.375 51.3454 154.425 51.348H161.675C161.725 51.3454 161.775 51.353 161.822 51.3704C161.869 51.3878 161.913 51.4146 161.949 51.4491C161.985 51.4837 162.014 51.5253 162.034 51.5715C162.054 51.6176 162.064 51.6673 162.064 51.7175C162.064 51.7677 162.054 51.8174 162.034 51.8635C162.014 51.9096 161.985 51.9513 161.949 51.9858C161.913 52.0204 161.869 52.0472 161.822 52.0646C161.775 52.082 161.725 52.0896 161.675 52.087Z" fill="black"/>
<g opacity="0.8">
<path d="M135.016 48.931H131.926C131.877 48.9311 131.829 48.9217 131.784 48.9031C131.739 48.8846 131.698 48.8573 131.664 48.823C131.629 48.7886 131.602 48.7478 131.583 48.7028C131.565 48.6579 131.555 48.6097 131.555 48.561V45.481C131.555 45.4323 131.565 45.3841 131.583 45.3392C131.602 45.2942 131.629 45.2534 131.664 45.219C131.698 45.1846 131.739 45.1574 131.784 45.1389C131.829 45.1203 131.877 45.1109 131.926 45.111H135.016C135.065 45.1109 135.113 45.1203 135.158 45.1389C135.203 45.1574 135.244 45.1846 135.278 45.219C135.313 45.2534 135.34 45.2942 135.359 45.3392C135.377 45.3841 135.387 45.4323 135.387 45.481V48.561C135.387 48.6097 135.377 48.6579 135.359 48.7028C135.34 48.7478 135.313 48.7886 135.278 48.823C135.244 48.8573 135.203 48.8846 135.158 48.9031C135.113 48.9217 135.065 48.9311 135.016 48.931ZM132.297 48.192H134.645V45.851H132.297V48.192Z" fill="#FF5A00"/>
<path d="M135.016 55.167H131.926C131.877 55.1671 131.829 55.1577 131.784 55.1391C131.739 55.1206 131.698 55.0934 131.664 55.059C131.629 55.0246 131.602 54.9838 131.583 54.9388C131.565 54.8939 131.555 54.8457 131.555 54.797V51.717C131.555 51.6683 131.565 51.6201 131.583 51.5752C131.602 51.5302 131.629 51.4894 131.664 51.455C131.698 51.4206 131.739 51.3934 131.784 51.3749C131.829 51.3563 131.877 51.3469 131.926 51.347H135.016C135.065 51.3469 135.113 51.3563 135.158 51.3749C135.203 51.3934 135.244 51.4206 135.278 51.455C135.313 51.4894 135.34 51.5302 135.359 51.5752C135.377 51.6201 135.387 51.6683 135.387 51.717V54.797C135.387 54.8457 135.377 54.8939 135.359 54.9388C135.34 54.9838 135.313 55.0246 135.278 55.059C135.244 55.0934 135.203 55.1206 135.158 55.1391C135.113 55.1577 135.065 55.1671 135.016 55.167ZM132.297 54.428H134.645V52.087H132.297V54.428Z" fill="#FF5A00"/>
<path d="M146.782 45.851H139.506C139.456 45.8536 139.406 45.846 139.359 45.8286C139.312 45.8112 139.268 45.7844 139.232 45.7498C139.196 45.7153 139.167 45.6736 139.147 45.6275C139.127 45.5814 139.117 45.5317 139.117 45.4815C139.117 45.4313 139.127 45.3816 139.147 45.3355C139.167 45.2893 139.196 45.2477 139.232 45.2131C139.268 45.1786 139.312 45.1518 139.359 45.1344C139.406 45.117 139.456 45.1094 139.506 45.112H146.782C146.832 45.1094 146.882 45.117 146.929 45.1344C146.976 45.1518 147.02 45.1786 147.056 45.2131C147.092 45.2477 147.121 45.2893 147.141 45.3355C147.161 45.3816 147.171 45.4313 147.171 45.4815C147.171 45.5317 147.161 45.5814 147.141 45.6275C147.121 45.6736 147.092 45.7153 147.056 45.7498C147.02 45.7844 146.976 45.8112 146.929 45.8286C146.882 45.846 146.832 45.8536 146.782 45.851Z" fill="#FF5A00"/>
<path d="M153.829 48.438H139.506C139.456 48.4406 139.406 48.433 139.359 48.4156C139.312 48.3982 139.268 48.3714 139.232 48.3368C139.196 48.3023 139.167 48.2606 139.147 48.2145C139.127 48.1684 139.117 48.1187 139.117 48.0685C139.117 48.0183 139.127 47.9686 139.147 47.9225C139.167 47.8763 139.196 47.8347 139.232 47.8001C139.268 47.7656 139.312 47.7388 139.359 47.7214C139.406 47.704 139.456 47.6964 139.506 47.699H153.829C153.879 47.6964 153.929 47.704 153.976 47.7214C154.023 47.7388 154.067 47.7656 154.103 47.8001C154.139 47.8347 154.168 47.8763 154.188 47.9225C154.208 47.9686 154.218 48.0183 154.218 48.0685C154.218 48.1187 154.208 48.1684 154.188 48.2145C154.168 48.2606 154.139 48.3023 154.103 48.3368C154.067 48.3714 154.023 48.3982 153.976 48.4156C153.929 48.433 153.879 48.4406 153.829 48.438Z" fill="#FF5A00"/>
<path d="M167.81 45.851H149.83C149.78 45.8536 149.73 45.846 149.683 45.8286C149.636 45.8112 149.592 45.7844 149.556 45.7498C149.52 45.7153 149.491 45.6736 149.471 45.6275C149.451 45.5814 149.441 45.5317 149.441 45.4815C149.441 45.4313 149.451 45.3816 149.471 45.3355C149.491 45.2893 149.52 45.2477 149.556 45.2131C149.592 45.1786 149.636 45.1518 149.683 45.1344C149.73 45.117 149.78 45.1094 149.83 45.112H167.81C167.86 45.1094 167.91 45.117 167.957 45.1344C168.004 45.1518 168.048 45.1786 168.084 45.2131C168.12 45.2477 168.149 45.2893 168.169 45.3355C168.189 45.3816 168.199 45.4313 168.199 45.4815C168.199 45.5317 168.189 45.5814 168.169 45.6275C168.149 45.6736 168.12 45.7153 168.084 45.7498C168.048 45.7844 168.004 45.8112 167.957 45.8286C167.91 45.846 167.86 45.8536 167.81 45.851Z" fill="#FF5A00"/>
<path d="M151.377 52.087H139.506C139.456 52.0896 139.406 52.082 139.359 52.0646C139.312 52.0472 139.268 52.0204 139.232 51.9858C139.196 51.9513 139.167 51.9096 139.147 51.8635C139.127 51.8174 139.117 51.7677 139.117 51.7175C139.117 51.6673 139.127 51.6176 139.147 51.5715C139.167 51.5253 139.196 51.4837 139.232 51.4491C139.268 51.4146 139.312 51.3878 139.359 51.3704C139.406 51.353 139.456 51.3454 139.506 51.348H151.377C151.427 51.3454 151.477 51.353 151.524 51.3704C151.572 51.3878 151.615 51.4146 151.651 51.4491C151.687 51.4837 151.716 51.5253 151.736 51.5715C151.756 51.6176 151.766 51.6673 151.766 51.7175C151.766 51.7677 151.756 51.8174 151.736 51.8635C151.716 51.9096 151.687 51.9513 151.651 51.9858C151.615 52.0204 151.572 52.0472 151.524 52.0646C151.477 52.082 151.427 52.0896 151.377 52.087Z" fill="#FF5A00"/>
<path d="M145.952 54.675H139.506C139.456 54.6776 139.406 54.67 139.359 54.6526C139.312 54.6352 139.268 54.6084 139.232 54.5738C139.196 54.5393 139.167 54.4976 139.147 54.4515C139.127 54.4054 139.117 54.3557 139.117 54.3055C139.117 54.2553 139.127 54.2056 139.147 54.1595C139.167 54.1133 139.196 54.0717 139.232 54.0371C139.268 54.0026 139.312 53.9758 139.359 53.9584C139.406 53.941 139.456 53.9334 139.506 53.936H145.952C146.002 53.9334 146.052 53.941 146.099 53.9584C146.146 53.9758 146.19 54.0026 146.226 54.0371C146.262 54.0717 146.291 54.1133 146.311 54.1595C146.331 54.2056 146.341 54.2553 146.341 54.3055C146.341 54.3557 146.331 54.4054 146.311 54.4515C146.291 54.4976 146.262 54.5393 146.226 54.5738C146.19 54.6084 146.146 54.6352 146.099 54.6526C146.052 54.67 146.002 54.6776 145.952 54.675Z" fill="#FF5A00"/>
<path d="M161.675 52.087H154.425C154.375 52.0896 154.325 52.082 154.278 52.0646C154.231 52.0472 154.187 52.0204 154.151 51.9858C154.115 51.9513 154.086 51.9096 154.066 51.8635C154.046 51.8174 154.036 51.7677 154.036 51.7175C154.036 51.6673 154.046 51.6176 154.066 51.5715C154.086 51.5253 154.115 51.4837 154.151 51.4491C154.187 51.4146 154.231 51.3878 154.278 51.3704C154.325 51.353 154.375 51.3454 154.425 51.348H161.675C161.725 51.3454 161.775 51.353 161.822 51.3704C161.869 51.3878 161.913 51.4146 161.949 51.4491C161.985 51.4837 162.014 51.5253 162.034 51.5715C162.054 51.6176 162.064 51.6673 162.064 51.7175C162.064 51.7677 162.054 51.8174 162.034 51.8635C162.014 51.9096 161.985 51.9513 161.949 51.9858C161.913 52.0204 161.869 52.0472 161.822 52.0646C161.775 52.082 161.725 52.0896 161.675 52.087Z" fill="#FF5A00"/>
</g>
<path d="M122.438 110.146H111.906C111.191 110.146 110.505 109.863 109.999 109.358C109.493 108.853 109.208 108.168 109.206 107.453V102.319C109.208 101.604 109.493 100.919 109.999 100.414C110.505 99.9095 111.191 99.626 111.906 99.626H122.437C123.152 99.626 123.838 99.9095 124.344 100.414C124.85 100.919 125.135 101.604 125.137 102.319V107.453C125.135 108.168 124.85 108.853 124.344 109.358C123.838 109.863 123.152 110.146 122.437 110.146M111.906 100.262C111.36 100.262 110.835 100.478 110.448 100.864C110.061 101.25 109.843 101.774 109.842 102.32V107.454C109.843 108 110.061 108.524 110.448 108.91C110.835 109.296 111.36 109.512 111.906 109.512H122.437C122.983 109.512 123.508 109.296 123.895 108.91C124.282 108.524 124.5 108 124.501 107.454V102.32C124.5 101.774 124.282 101.25 123.895 100.864C123.508 100.478 122.983 100.262 122.437 100.262H111.906Z" fill="black"/>
<path d="M119.55 105.124L115.664 107.362C115.623 107.385 115.577 107.397 115.53 107.396C115.484 107.396 115.438 107.383 115.398 107.36C115.357 107.336 115.324 107.302 115.3 107.262C115.277 107.222 115.264 107.176 115.264 107.129V102.652C115.264 102.605 115.277 102.559 115.3 102.519C115.324 102.479 115.357 102.445 115.398 102.422C115.438 102.398 115.484 102.385 115.53 102.385C115.577 102.385 115.623 102.396 115.664 102.419L119.55 104.657C119.591 104.68 119.625 104.714 119.649 104.755C119.672 104.796 119.685 104.842 119.685 104.89C119.685 104.937 119.672 104.983 119.649 105.024C119.625 105.065 119.591 105.099 119.55 105.122" fill="black"/>
<g opacity="0.8">
<path d="M122.438 110.146H111.906C111.191 110.146 110.505 109.863 109.999 109.358C109.493 108.853 109.208 108.168 109.206 107.453V102.319C109.208 101.604 109.493 100.919 109.999 100.414C110.505 99.9095 111.191 99.626 111.906 99.626H122.437C123.152 99.626 123.838 99.9095 124.344 100.414C124.85 100.919 125.135 101.604 125.137 102.319V107.453C125.135 108.168 124.85 108.853 124.344 109.358C123.838 109.863 123.152 110.146 122.437 110.146M111.906 100.262C111.36 100.262 110.835 100.478 110.448 100.864C110.061 101.25 109.843 101.774 109.842 102.32V107.454C109.843 108 110.061 108.524 110.448 108.91C110.835 109.296 111.36 109.512 111.906 109.512H122.437C122.983 109.512 123.508 109.296 123.895 108.91C124.282 108.524 124.5 108 124.501 107.454V102.32C124.5 101.774 124.282 101.25 123.895 100.864C123.508 100.478 122.983 100.262 122.437 100.262H111.906Z" fill="#FF5A00"/>
<path d="M119.55 105.124L115.664 107.362C115.623 107.385 115.577 107.397 115.53 107.396C115.484 107.396 115.438 107.383 115.398 107.36C115.357 107.336 115.324 107.302 115.3 107.262C115.277 107.222 115.264 107.176 115.264 107.129V102.652C115.264 102.605 115.277 102.559 115.3 102.519C115.324 102.479 115.357 102.445 115.398 102.422C115.438 102.398 115.484 102.385 115.53 102.385C115.577 102.385 115.623 102.396 115.664 102.419L119.55 104.657C119.591 104.68 119.625 104.714 119.649 104.755C119.672 104.796 119.685 104.842 119.685 104.89C119.685 104.937 119.672 104.983 119.649 105.024C119.625 105.065 119.591 105.099 119.55 105.122" fill="#FF5A00"/>
</g>
<path d="M51.83 187.625C51.8758 187.625 51.9211 187.616 51.9635 187.599C52.0058 187.581 52.0443 187.556 52.0767 187.523C52.1091 187.491 52.1349 187.453 52.1524 187.41C52.17 187.368 52.179 187.323 52.179 187.277V182.368C52.179 182.275 52.1421 182.186 52.0765 182.121C52.0109 182.055 51.9218 182.018 51.829 182.018C51.7362 182.018 51.6472 182.055 51.5815 182.121C51.5159 182.186 51.479 182.275 51.479 182.368V187.277C51.479 187.323 51.488 187.368 51.5056 187.41C51.5231 187.453 51.5489 187.491 51.5813 187.523C51.6137 187.556 51.6522 187.581 51.6945 187.599C51.7369 187.616 51.7822 187.625 51.828 187.625" fill="#FF5A00"/>
<path d="M54.49 190.275H56.864C56.9568 190.275 57.0459 190.238 57.1115 190.172C57.1771 190.107 57.214 190.018 57.214 189.925C57.214 189.832 57.1771 189.743 57.1115 189.678C57.0459 189.612 56.9568 189.575 56.864 189.575H54.49C54.3972 189.575 54.3082 189.612 54.2425 189.678C54.1769 189.743 54.14 189.832 54.14 189.925C54.14 190.018 54.1769 190.107 54.2425 190.172C54.3082 190.238 54.3972 190.275 54.49 190.275Z" fill="#FF5A00"/>
<path d="M51.83 197.837C51.8758 197.837 51.9211 197.828 51.9635 197.811C52.0058 197.793 52.0443 197.768 52.0767 197.735C52.1091 197.703 52.1349 197.665 52.1524 197.622C52.17 197.58 52.179 197.535 52.179 197.489V192.58C52.179 192.487 52.1421 192.398 52.0765 192.333C52.0109 192.267 51.9218 192.23 51.829 192.23C51.7362 192.23 51.6472 192.267 51.5815 192.333C51.5159 192.398 51.479 192.487 51.479 192.58V197.493C51.479 197.539 51.488 197.584 51.5056 197.626C51.5231 197.669 51.5489 197.707 51.5813 197.739C51.6137 197.772 51.6522 197.797 51.6945 197.815C51.7369 197.832 51.7822 197.841 51.828 197.841" fill="#FF5A00"/>
<path d="M46.799 190.275H49.174C49.2668 190.275 49.3559 190.238 49.4215 190.172C49.4871 190.107 49.524 190.018 49.524 189.925C49.524 189.832 49.4871 189.743 49.4215 189.678C49.3559 189.612 49.2668 189.575 49.174 189.575H46.799C46.7062 189.575 46.6172 189.612 46.5515 189.678C46.4859 189.743 46.449 189.832 46.449 189.925C46.449 190.018 46.4859 190.107 46.5515 190.172C46.6172 190.238 46.7062 190.275 46.799 190.275Z" fill="#FF5A00"/>
<path d="M287.568 109.566C287.63 109.566 287.689 109.542 287.732 109.498C287.776 109.455 287.801 109.396 287.801 109.334V106.057C287.801 105.995 287.776 105.936 287.733 105.892C287.689 105.849 287.63 105.824 287.568 105.824C287.506 105.824 287.447 105.849 287.403 105.892C287.36 105.936 287.335 105.995 287.335 106.057V109.334C287.335 109.396 287.36 109.455 287.404 109.498C287.447 109.542 287.506 109.566 287.568 109.566Z" fill="#FF5A00"/>
<path d="M289.338 111.336H290.923C290.985 111.336 291.044 111.312 291.087 111.268C291.131 111.225 291.155 111.166 291.155 111.104C291.155 111.042 291.131 110.983 291.087 110.94C291.044 110.896 290.985 110.872 290.923 110.872H289.338C289.276 110.872 289.217 110.896 289.174 110.94C289.13 110.983 289.106 111.042 289.106 111.104C289.106 111.166 289.13 111.225 289.174 111.268C289.217 111.312 289.276 111.336 289.338 111.336Z" fill="#FF5A00"/>
<path d="M287.568 116.384C287.63 116.384 287.689 116.36 287.732 116.316C287.776 116.273 287.801 116.214 287.801 116.152V112.875C287.801 112.813 287.776 112.754 287.733 112.71C287.689 112.667 287.63 112.642 287.568 112.642C287.506 112.642 287.447 112.667 287.403 112.71C287.36 112.754 287.335 112.813 287.335 112.875V116.152C287.335 116.214 287.36 116.273 287.404 116.316C287.447 116.36 287.506 116.384 287.568 116.384Z" fill="#FF5A00"/>
<path d="M284.201 111.336H285.786C285.848 111.336 285.907 111.312 285.95 111.268C285.994 111.225 286.018 111.166 286.018 111.104C286.018 111.042 285.994 110.983 285.95 110.94C285.907 110.896 285.848 110.872 285.786 110.872H284.201C284.14 110.872 284.08 110.896 284.037 110.94C283.993 110.983 283.969 111.042 283.969 111.104C283.969 111.166 283.993 111.225 284.037 111.268C284.08 111.312 284.14 111.336 284.201 111.336Z" fill="#FF5A00"/>
<path d="M216.571 37.021C216.633 37.021 216.692 36.9966 216.735 36.9531C216.779 36.9096 216.804 36.8506 216.804 36.789V33.511C216.804 33.4492 216.779 33.3899 216.736 33.3462C216.692 33.3025 216.633 33.278 216.571 33.278C216.509 33.278 216.45 33.3025 216.406 33.3462C216.363 33.3899 216.338 33.4492 216.338 33.511V36.788C216.338 36.8496 216.363 36.9086 216.407 36.9521C216.45 36.9956 216.509 37.021 216.571 37.021Z" fill="#FF5A00"/>
<path d="M218.347 38.791H219.932C219.994 38.791 220.053 38.7666 220.096 38.723C220.14 38.6795 220.164 38.6205 220.164 38.559C220.164 38.4975 220.14 38.4385 220.096 38.3949C220.053 38.3514 219.994 38.327 219.932 38.327H218.347C218.285 38.327 218.226 38.3514 218.183 38.3949C218.139 38.4385 218.115 38.4975 218.115 38.559C218.115 38.6205 218.139 38.6795 218.183 38.723C218.226 38.7666 218.285 38.791 218.347 38.791Z" fill="#FF5A00"/>
<path d="M216.571 43.839C216.633 43.839 216.692 43.8146 216.735 43.7711C216.779 43.7276 216.804 43.6686 216.804 43.607V40.329C216.804 40.2672 216.779 40.2079 216.736 40.1642C216.692 40.1205 216.633 40.096 216.571 40.096C216.509 40.096 216.45 40.1205 216.406 40.1642C216.363 40.2079 216.338 40.2672 216.338 40.329V43.606C216.338 43.6676 216.363 43.7266 216.407 43.7701C216.45 43.8136 216.509 43.839 216.571 43.839Z" fill="#FF5A00"/>
<path d="M213.209 38.791H214.795C214.857 38.791 214.916 38.7666 214.959 38.723C215.003 38.6795 215.027 38.6205 215.027 38.559C215.027 38.4975 215.003 38.4385 214.959 38.3949C214.916 38.3514 214.857 38.327 214.795 38.327H213.209C213.147 38.327 213.088 38.3514 213.045 38.3949C213.001 38.4385 212.977 38.4975 212.977 38.559C212.977 38.6205 213.001 38.6795 213.045 38.723C213.088 38.7666 213.147 38.791 213.209 38.791Z" fill="#FF5A00"/>
<path d="M125.647 129.253C125.709 129.253 125.768 129.229 125.811 129.185C125.855 129.142 125.88 129.083 125.88 129.021V125.744C125.88 125.682 125.855 125.623 125.812 125.579C125.768 125.536 125.709 125.511 125.647 125.511C125.585 125.511 125.526 125.536 125.482 125.579C125.439 125.623 125.414 125.682 125.414 125.744V129.021C125.414 129.083 125.439 129.142 125.483 129.185C125.526 129.229 125.585 129.253 125.647 129.253Z" fill="#FF5A00"/>
<path d="M127.428 131.022H129.013C129.075 131.022 129.134 130.998 129.177 130.954C129.221 130.911 129.245 130.852 129.245 130.79C129.245 130.728 129.221 130.669 129.177 130.626C129.134 130.582 129.075 130.558 129.013 130.558H127.428C127.366 130.558 127.307 130.582 127.264 130.626C127.22 130.669 127.196 130.728 127.196 130.79C127.196 130.852 127.22 130.911 127.264 130.954C127.307 130.998 127.366 131.022 127.428 131.022Z" fill="#FF5A00"/>
<path d="M125.647 136.07C125.709 136.07 125.768 136.046 125.811 136.002C125.855 135.959 125.88 135.9 125.88 135.838V132.561C125.88 132.499 125.855 132.44 125.812 132.396C125.768 132.353 125.709 132.328 125.647 132.328C125.585 132.328 125.526 132.353 125.482 132.396C125.439 132.44 125.414 132.499 125.414 132.561V135.838C125.414 135.9 125.439 135.959 125.483 136.002C125.526 136.046 125.585 136.07 125.647 136.07Z" fill="#FF5A00"/>
<path d="M122.286 131.022H123.871C123.933 131.022 123.992 130.998 124.035 130.954C124.079 130.911 124.103 130.852 124.103 130.79C124.103 130.728 124.079 130.669 124.035 130.626C123.992 130.582 123.933 130.558 123.871 130.558H122.286C122.224 130.558 122.165 130.582 122.122 130.626C122.078 130.669 122.054 130.728 122.054 130.79C122.054 130.852 122.078 130.911 122.122 130.954C122.165 130.998 122.224 131.022 122.286 131.022Z" fill="#FF5A00"/>
<path d="M106.563 217.136H234.631V197.792H106.563C105.969 197.791 105.381 197.907 104.832 198.134C104.283 198.36 103.784 198.692 103.363 199.112C102.943 199.531 102.609 200.029 102.381 200.577C102.153 201.125 102.035 201.713 102.034 202.307V212.626C102.035 213.22 102.153 213.808 102.381 214.356C102.609 214.904 102.943 215.402 103.363 215.822C103.784 216.241 104.283 216.573 104.832 216.8C105.381 217.026 105.969 217.142 106.563 217.141" fill="#010101"/>
<path opacity="0.8" d="M106.563 217.136H234.631V197.792H106.563C105.969 197.791 105.381 197.907 104.832 198.134C104.283 198.36 103.784 198.692 103.363 199.112C102.943 199.531 102.609 200.029 102.381 200.577C102.153 201.125 102.035 201.713 102.034 202.307V212.626C102.035 213.22 102.153 213.808 102.381 214.356C102.609 214.904 102.943 215.402 103.363 215.822C103.784 216.241 104.283 216.573 104.832 216.8C105.381 217.026 105.969 217.142 106.563 217.141" fill="#FF5A00"/>
<path d="M202.062 197.792H209.71C209.116 197.791 208.528 197.907 207.979 198.134C207.43 198.36 206.931 198.692 206.51 199.112C206.09 199.531 205.756 200.029 205.528 200.577C205.3 201.125 205.182 201.713 205.181 202.307V212.626C205.182 213.22 205.3 213.808 205.528 214.356C205.756 214.904 206.09 215.402 206.51 215.822C206.931 216.241 207.43 216.573 207.979 216.8C208.528 217.026 209.116 217.142 209.71 217.141H202.062C201.468 217.142 200.88 217.026 200.331 216.8C199.782 216.573 199.283 216.241 198.862 215.822C198.442 215.402 198.108 214.904 197.88 214.356C197.652 213.808 197.534 213.22 197.533 212.626V202.303C197.534 201.709 197.652 201.121 197.88 200.573C198.108 200.025 198.442 199.527 198.862 199.108C199.283 198.688 199.782 198.356 200.331 198.13C200.88 197.903 201.468 197.787 202.062 197.788" fill="white"/>
<path d="M264.97 214.862V200.062H221.288C220.693 200.062 220.123 200.298 219.702 200.718C219.281 201.138 219.044 201.707 219.042 202.302V212.616C219.044 213.211 219.281 213.78 219.702 214.2C220.123 214.62 220.693 214.856 221.288 214.856L264.97 214.862Z" fill="white"/>
<path d="M216.759 202.303C216.76 201.709 216.878 201.121 217.106 200.573C217.334 200.025 217.668 199.527 218.088 199.108C218.509 198.688 219.008 198.356 219.557 198.13C220.106 197.903 220.694 197.787 221.288 197.788H266.111C266.263 197.784 266.415 197.81 266.557 197.865C266.699 197.92 266.828 198.003 266.937 198.109C267.047 198.215 267.134 198.342 267.193 198.482C267.252 198.623 267.283 198.773 267.283 198.926C267.283 199.078 267.252 199.229 267.193 199.369C267.134 199.509 267.047 199.636 266.937 199.742C266.828 199.848 266.699 199.931 266.557 199.986C266.415 200.041 266.263 200.068 266.111 200.063H221.288C220.693 200.062 220.123 200.298 219.701 200.718C219.28 201.137 219.043 201.707 219.042 202.302V212.621C219.043 213.216 219.28 213.786 219.701 214.206C220.123 214.625 220.693 214.861 221.288 214.86H266.05C266.328 214.854 266.599 214.945 266.816 215.118C267.033 215.291 267.182 215.535 267.237 215.807C267.265 215.971 267.256 216.138 267.212 216.298C267.168 216.458 267.09 216.606 266.983 216.733C266.875 216.86 266.742 216.961 266.591 217.031C266.441 217.1 266.277 217.136 266.111 217.136H221.288C220.694 217.137 220.106 217.021 219.557 216.795C219.008 216.568 218.509 216.236 218.088 215.817C217.668 215.397 217.334 214.899 217.106 214.351C216.878 213.803 216.76 213.215 216.759 212.621V202.303Z" fill="#707070"/>
<path opacity="0.8" d="M216.759 202.303C216.76 201.709 216.878 201.121 217.106 200.573C217.334 200.025 217.668 199.527 218.088 199.108C218.509 198.688 219.008 198.356 219.557 198.13C220.106 197.903 220.694 197.787 221.288 197.788H266.111C266.263 197.784 266.415 197.81 266.557 197.865C266.699 197.92 266.828 198.003 266.937 198.109C267.047 198.215 267.134 198.342 267.193 198.482C267.252 198.623 267.283 198.773 267.283 198.926C267.283 199.078 267.252 199.229 267.193 199.369C267.134 199.509 267.047 199.636 266.937 199.742C266.828 199.848 266.699 199.931 266.557 199.986C266.415 200.041 266.263 200.068 266.111 200.063H221.288C220.693 200.062 220.123 200.298 219.701 200.718C219.28 201.137 219.043 201.707 219.042 202.302V212.621C219.043 213.216 219.28 213.786 219.701 214.206C220.123 214.625 220.693 214.861 221.288 214.86H266.05C266.328 214.854 266.599 214.945 266.816 215.118C267.033 215.291 267.182 215.535 267.237 215.807C267.265 215.971 267.256 216.138 267.212 216.298C267.168 216.458 267.09 216.606 266.983 216.733C266.875 216.86 266.742 216.961 266.591 217.031C266.441 217.1 266.277 217.136 266.111 217.136H221.288C220.694 217.137 220.106 217.021 219.557 216.795C219.008 216.568 218.509 216.236 218.088 215.817C217.668 215.397 217.334 214.899 217.106 214.351C216.878 213.803 216.76 213.215 216.759 212.621V202.303Z" fill="#FF5A00"/>
<path d="M187.031 203.488H161.647V206.03H187.031V203.488Z" fill="white"/>
<path d="M155.823 203.488H115.716V206.03H155.823V203.488Z" fill="white"/>
<path d="M187.031 208.895H128.887V211.437H187.031V208.895Z" fill="white"/>
<path d="M106.563 197.792H114.211C113.617 197.791 113.029 197.907 112.48 198.134C111.931 198.36 111.432 198.692 111.011 199.112C110.591 199.531 110.257 200.029 110.029 200.577C109.801 201.125 109.683 201.713 109.682 202.307V212.626C109.683 213.22 109.801 213.808 110.029 214.356C110.257 214.904 110.591 215.402 111.011 215.822C111.432 216.241 111.931 216.573 112.48 216.8C113.029 217.026 113.617 217.142 114.211 217.141H106.563C105.969 217.142 105.381 217.026 104.832 216.8C104.283 216.573 103.784 216.241 103.363 215.822C102.943 215.402 102.609 214.904 102.381 214.356C102.153 213.808 102.035 213.22 102.034 212.626V202.303C102.035 201.709 102.153 201.121 102.381 200.573C102.609 200.025 102.943 199.527 103.363 199.108C103.784 198.688 104.283 198.356 104.832 198.13C105.381 197.903 105.969 197.787 106.563 197.788" fill="white"/>
<path d="M253.112 197.788H160.638V176.546H253.112C253.706 176.545 254.294 176.661 254.843 176.888C255.392 177.114 255.891 177.446 256.312 177.866C256.732 178.285 257.066 178.783 257.294 179.331C257.522 179.879 257.64 180.467 257.641 181.061V193.273C257.64 193.867 257.522 194.455 257.294 195.003C257.066 195.551 256.732 196.049 256.312 196.468C255.891 196.888 255.392 197.22 254.843 197.446C254.294 197.673 253.706 197.789 253.112 197.788Z" fill="#F78C19"/>
<path d="M120.299 195.513V178.822H163.981C164.576 178.822 165.146 179.058 165.567 179.478C165.988 179.898 166.225 180.467 166.227 181.062V193.274C166.225 193.869 165.988 194.438 165.567 194.858C165.146 195.278 164.576 195.514 163.981 195.514L120.299 195.513Z" fill="white"/>
<path d="M166.228 182.199V193.273C166.227 193.868 165.99 194.438 165.569 194.857C165.147 195.277 164.577 195.513 163.982 195.512H119.219C118.941 195.505 118.67 195.597 118.453 195.77C118.236 195.943 118.087 196.187 118.032 196.459C118.004 196.623 118.013 196.79 118.057 196.95C118.1 197.11 118.179 197.259 118.286 197.385C118.393 197.512 118.527 197.613 118.677 197.683C118.828 197.753 118.992 197.788 119.158 197.788H163.981C164.575 197.789 165.163 197.673 165.712 197.446C166.261 197.22 166.76 196.888 167.181 196.469C167.601 196.049 167.935 195.551 168.163 195.003C168.391 194.455 168.509 193.867 168.51 193.273V182.199C168.51 181.896 168.39 181.606 168.176 181.392C167.962 181.178 167.672 181.058 167.369 181.058C167.066 181.058 166.776 181.178 166.562 181.392C166.348 181.606 166.228 181.896 166.228 182.199Z" fill="#D3761A"/>
<path d="M252.148 181.915H249.598V192.419H252.148V181.915Z" fill="white"/>
<path d="M180.911 181.915H175.102V192.42H180.911V181.915Z" fill="white"/>
<path d="M239.462 181.916H191.429V192.42H239.462V181.916Z" fill="white"/>
<path d="M163.98 176.546H119.218C118.94 176.54 118.669 176.631 118.452 176.804C118.235 176.977 118.086 177.221 118.031 177.493C118.003 177.657 118.012 177.824 118.056 177.984C118.1 178.144 118.178 178.292 118.285 178.419C118.393 178.546 118.526 178.647 118.677 178.717C118.827 178.786 118.991 178.822 119.157 178.822H163.98C164.275 178.822 164.566 178.879 164.839 178.991C165.111 179.104 165.359 179.269 165.568 179.477C165.776 179.685 165.942 179.932 166.055 180.204C166.168 180.476 166.227 180.767 166.227 181.062V185.493C166.227 185.796 166.347 186.086 166.561 186.3C166.775 186.514 167.065 186.634 167.368 186.634C167.671 186.634 167.961 186.514 168.175 186.3C168.389 186.086 168.509 185.796 168.509 185.493V181.062C168.508 180.468 168.39 179.88 168.162 179.332C167.934 178.784 167.6 178.286 167.18 177.867C166.759 177.447 166.26 177.115 165.711 176.889C165.162 176.662 164.574 176.545 163.98 176.546Z" fill="#D3761A"/>
<path d="M116.782 176.546H205.456V155.304H116.782C116.188 155.303 115.6 155.419 115.051 155.646C114.502 155.872 114.003 156.204 113.582 156.624C113.162 157.043 112.828 157.541 112.6 158.089C112.372 158.637 112.254 159.225 112.253 159.819V172.031C112.254 172.625 112.372 173.213 112.6 173.761C112.828 174.309 113.162 174.807 113.582 175.226C114.003 175.646 114.502 175.978 115.051 176.204C115.6 176.431 116.188 176.547 116.782 176.546Z" fill="#269DD8"/>
<path d="M247.316 174.27V157.579H202.116C201.521 157.579 200.951 157.815 200.53 158.235C200.109 158.655 199.872 159.224 199.87 159.819V172.031C199.872 172.626 200.109 173.195 200.53 173.615C200.951 174.035 201.521 174.271 202.116 174.271L247.316 174.27Z" fill="white"/>
<path d="M199.868 160.957V172.031C199.869 172.626 200.106 173.196 200.527 173.615C200.949 174.035 201.519 174.271 202.114 174.27H248.396C248.674 174.264 248.944 174.355 249.161 174.528C249.378 174.701 249.528 174.945 249.583 175.217C249.611 175.381 249.602 175.548 249.558 175.708C249.514 175.868 249.436 176.016 249.329 176.143C249.221 176.269 249.088 176.371 248.937 176.441C248.787 176.51 248.623 176.546 248.457 176.546H202.114C201.52 176.547 200.932 176.431 200.383 176.204C199.834 175.978 199.335 175.646 198.914 175.227C198.494 174.807 198.16 174.309 197.932 173.761C197.704 173.213 197.586 172.625 197.585 172.031V160.957C197.585 160.654 197.705 160.364 197.919 160.15C198.133 159.936 198.423 159.816 198.726 159.816C199.029 159.816 199.319 159.936 199.533 160.15C199.747 160.364 199.868 160.654 199.868 160.957Z" fill="#177BA3"/>
<path d="M202.114 155.304H248.395C248.672 155.298 248.943 155.389 249.16 155.562C249.377 155.735 249.527 155.979 249.582 156.251C249.609 156.415 249.601 156.582 249.557 156.742C249.513 156.902 249.435 157.05 249.328 157.177C249.22 157.304 249.087 157.405 248.936 157.475C248.786 157.544 248.622 157.58 248.456 157.58H202.114C201.819 157.58 201.527 157.637 201.255 157.749C200.983 157.862 200.735 158.027 200.526 158.235C200.318 158.443 200.152 158.69 200.039 158.962C199.926 159.234 199.867 159.525 199.867 159.82V164.251C199.867 164.554 199.747 164.844 199.533 165.058C199.319 165.272 199.029 165.392 198.726 165.392C198.423 165.392 198.133 165.272 197.919 165.058C197.705 164.844 197.585 164.554 197.585 164.251V159.82C197.586 159.226 197.704 158.638 197.932 158.09C198.16 157.542 198.494 157.044 198.914 156.625C199.335 156.205 199.834 155.873 200.383 155.647C200.932 155.42 201.52 155.303 202.114 155.304Z" fill="#177BA3"/>
<path d="M189.388 161.951H178.851V164.493H189.388V161.951Z" fill="white"/>
<path d="M173.015 161.951H162.478V164.493H173.015V161.951Z" fill="white"/>
<path d="M158.18 161.951H118.073V164.493H158.18V161.951Z" fill="white"/>
<path d="M189.388 167.357H166.538V169.899H189.388V167.357Z" fill="white"/>
<path d="M160.738 167.357H131.499V169.899H160.738V167.357Z" fill="white"/>
<path d="M244.834 148.049H232.391C231.817 148.05 231.265 147.824 230.858 147.418C230.451 147.013 230.222 146.463 230.22 145.889V133.489C230.22 133.204 230.277 132.923 230.386 132.66C230.495 132.397 230.655 132.159 230.857 131.958C231.058 131.757 231.298 131.598 231.561 131.489C231.824 131.381 232.105 131.325 232.39 131.326H244.833C245.118 131.325 245.399 131.381 245.662 131.489C245.926 131.598 246.165 131.757 246.366 131.958C246.568 132.159 246.728 132.397 246.837 132.66C246.946 132.923 247.003 133.204 247.003 133.489V145.889C247.003 146.174 246.946 146.455 246.837 146.718C246.728 146.981 246.568 147.219 246.366 147.42C246.165 147.621 245.926 147.78 245.662 147.889C245.399 147.997 245.118 148.053 244.833 148.052" fill="#FF5A00"/>
<path d="M241.967 137.144C241.968 136.595 241.835 136.055 241.579 135.57C241.322 135.084 240.951 134.67 240.497 134.361C240.043 134.053 239.521 133.861 238.975 133.801C238.43 133.742 237.878 133.817 237.368 134.021C236.859 134.224 236.407 134.549 236.052 134.968C235.698 135.387 235.451 135.886 235.334 136.422C235.217 136.958 235.233 137.514 235.382 138.043C235.53 138.571 235.805 139.055 236.184 139.452C236.547 139.837 236.747 140.347 236.744 140.876V141.576H240.48V140.876C240.475 140.35 240.674 139.843 241.035 139.46C241.636 138.838 241.971 138.007 241.97 137.143" fill="white"/>
<path d="M240.457 142.229H236.721V143.089H240.457V142.229Z" fill="white"/>
<path d="M240.457 143.543H236.721V144.403H240.457V143.543Z" fill="white"/>
<path d="M239.092 144.713H238.086V145.573H239.092V144.713Z" fill="white"/>
<path fill-rule="evenodd" clip-rule="evenodd" d="M235.256 101.545C236.459 101.548 237.623 101.967 238.551 102.732C239.48 103.498 240.114 104.561 240.346 105.741C240.578 106.921 240.394 108.145 239.825 109.205C239.256 110.264 238.338 111.094 237.226 111.553C236.114 112.011 234.877 112.07 233.727 111.719C232.576 111.368 231.583 110.629 230.916 109.628C230.249 108.627 229.95 107.426 230.07 106.229C230.189 105.032 230.72 103.914 231.571 103.064C232.055 102.581 232.63 102.198 233.262 101.937C233.895 101.677 234.572 101.543 235.256 101.545Z" fill="#4B4B4B"/>
<path opacity="0.8" fill-rule="evenodd" clip-rule="evenodd" d="M235.256 101.545C236.459 101.548 237.623 101.967 238.551 102.732C239.48 103.498 240.114 104.561 240.346 105.741C240.578 106.921 240.394 108.145 239.825 109.205C239.256 110.264 238.338 111.094 237.226 111.553C236.114 112.011 234.877 112.07 233.727 111.719C232.576 111.368 231.583 110.629 230.916 109.628C230.249 108.627 229.95 107.426 230.07 106.229C230.189 105.032 230.72 103.914 231.571 103.064C232.055 102.581 232.63 102.198 233.262 101.937C233.895 101.677 234.572 101.543 235.256 101.545Z" fill="#FF5A00"/>
<path d="M234.102 110.153V107.144C234.102 106.954 234.179 106.876 234.369 106.876H235.993C236.028 106.871 236.063 106.874 236.096 106.885C236.13 106.896 236.16 106.914 236.185 106.939C236.209 106.964 236.228 106.994 236.239 107.028C236.25 107.061 236.252 107.096 236.247 107.131V110.153H234.102Z" fill="white"/>
<path d="M232.094 110.153C232.051 110.138 232.014 110.108 231.99 110.069C231.967 110.03 231.957 109.983 231.963 109.938C231.963 109.286 231.963 108.638 231.963 107.981C231.958 107.947 231.961 107.912 231.972 107.879C231.982 107.847 232.001 107.817 232.025 107.793C232.05 107.769 232.08 107.75 232.112 107.74C232.145 107.729 232.18 107.727 232.214 107.732H233.679V110.155L232.094 110.153Z" fill="white"/>
<path d="M236.675 110.154V108.587H238.138C238.172 108.581 238.207 108.584 238.24 108.594C238.273 108.605 238.303 108.623 238.327 108.647C238.352 108.672 238.37 108.701 238.381 108.734C238.392 108.767 238.394 108.802 238.389 108.836C238.389 109.204 238.389 109.571 238.389 109.936C238.395 109.981 238.385 110.028 238.362 110.067C238.338 110.106 238.301 110.136 238.258 110.151L236.675 110.154Z" fill="white"/>
<path d="M234.175 106.223C234.201 106.073 234.229 105.908 234.257 105.743C234.271 105.661 234.29 105.58 234.298 105.498C234.299 105.483 234.297 105.468 234.292 105.454C234.287 105.44 234.279 105.427 234.269 105.416C234.105 105.252 233.938 105.09 233.769 104.93C233.734 104.902 233.708 104.865 233.695 104.822C233.682 104.778 233.683 104.733 233.697 104.69C233.712 104.648 233.738 104.611 233.774 104.584C233.81 104.558 233.853 104.542 233.897 104.54C234.123 104.509 234.352 104.473 234.58 104.44C234.596 104.439 234.612 104.433 234.625 104.423C234.639 104.414 234.649 104.4 234.655 104.385L234.955 103.768C234.97 103.725 234.998 103.688 235.035 103.661C235.072 103.635 235.116 103.62 235.162 103.62C235.208 103.62 235.252 103.635 235.289 103.661C235.326 103.688 235.354 103.725 235.369 103.768C235.469 103.968 235.569 104.175 235.669 104.379C235.675 104.396 235.685 104.41 235.7 104.421C235.714 104.432 235.73 104.438 235.748 104.439C235.978 104.469 236.208 104.505 236.437 104.539C236.481 104.541 236.523 104.556 236.558 104.583C236.593 104.609 236.62 104.645 236.634 104.687C236.648 104.729 236.649 104.774 236.637 104.816C236.625 104.858 236.601 104.896 236.567 104.924C236.4 105.085 236.235 105.248 236.067 105.408C236.053 105.42 236.043 105.436 236.037 105.454C236.032 105.471 236.031 105.49 236.036 105.508C236.078 105.735 236.116 105.963 236.155 106.192C236.165 106.234 236.162 106.277 236.147 106.317C236.132 106.357 236.106 106.392 236.071 106.417C236.037 106.442 235.995 106.457 235.953 106.458C235.91 106.46 235.868 106.449 235.831 106.427C235.631 106.319 235.42 106.213 235.215 106.103C235.199 106.092 235.179 106.086 235.159 106.086C235.14 106.086 235.12 106.092 235.104 106.103C234.896 106.216 234.687 106.325 234.476 106.432C234.442 106.451 234.403 106.46 234.363 106.459C234.324 106.457 234.286 106.444 234.253 106.422C234.22 106.4 234.194 106.37 234.178 106.334C234.162 106.298 234.156 106.258 234.161 106.219" fill="white"/>
<path d="M122.468 153.862H113.775C113.19 153.863 112.629 153.632 112.214 153.219C111.8 152.807 111.566 152.247 111.564 151.662V142.996C111.566 142.411 111.8 141.851 112.214 141.439C112.629 141.026 113.19 140.795 113.775 140.796H122.468C123.053 140.795 123.614 141.026 124.029 141.439C124.443 141.851 124.677 142.411 124.679 142.996V151.662C124.677 152.247 124.443 152.807 124.029 153.219C123.614 153.632 123.053 153.863 122.468 153.862Z" fill="#FF5A00"/>
<path d="M114.914 150.394H116.495L118.128 148.149L119.735 150.394H121.329L118.906 147.043L120.922 144.259H119.315L118.129 145.959L116.943 144.268H115.336L117.352 147.052L114.914 150.394Z" fill="white"/>
<path d="M186.89 104.46L184.69 97.075H177.39L175.19 104.46C175.19 104.46 172.551 112.79 181.047 112.79C189.543 112.79 186.904 104.46 186.904 104.46" fill="#F4B1B0"/>
<path d="M176.318 100.626C179.944 105.76 186.44 102.952 186.44 102.952L185.594 100.12L181.031 98.082L176.468 100.12L176.318 100.626Z" fill="#E78284"/>
<path d="M174.006 79.501C171.566 82.08 171.698 88.553 172.506 93.101C173.564 99.05 178.474 102.215 181.031 102.215C183.588 102.215 188.498 99.05 189.557 93.101C190.366 88.555 190.498 82.082 188.057 79.501H174.006Z" fill="#F4B1B0"/>
<path d="M170.655 75.663C173.536 82.521 180.155 86.389 189.238 79.825C184.738 73.817 176.27 73.114 170.655 75.663Z" fill="black"/>
<path d="M175.539 73.025C177.009 77.392 182.639 80.806 185.683 81.939C189.242 82.374 190.083 87.215 190.083 87.215C192.733 83.205 191.528 74.256 188.235 75.077C185.56 71.113 178.108 71.597 175.535 73.025" fill="black"/>
<path d="M175.67 81.889C172.826 82.961 171.987 87.216 171.987 87.216C171.096 83.862 172.198 80.192 173.234 79.137C174.27 78.082 175.669 81.89 175.669 81.89" fill="black"/>
<path d="M172.32 87.356C170.997 86.631 169.505 87.708 170.402 90.856C171.183 93.599 172.584 93.439 172.783 92.956C173.004 92.423 172.32 87.356 172.32 87.356Z" fill="#F4B1B0"/>
<path d="M189.745 87.356C191.068 86.631 192.56 87.708 191.663 90.856C190.882 93.599 189.481 93.439 189.282 92.956C189.061 92.423 189.745 87.356 189.745 87.356Z" fill="#F4B1B0"/>
<path d="M167.627 137.236C163.658 136.432 159.84 135.012 156.31 133.027C155.739 132.706 155.292 132.202 155.041 131.596C154.789 130.991 154.749 130.318 154.925 129.687C156.732 122.995 159.16 116.487 162.176 110.246C162.86 108.871 164.031 107.799 165.46 107.238C168.605 106.013 171.857 105.083 175.174 104.457C174.285 108.391 179.209 111.593 181.031 111.593C182.853 111.593 187.765 108.414 186.889 104.457C190.206 105.082 193.458 106.013 196.603 107.238C198.033 107.799 199.203 108.871 199.888 110.246C202.904 116.487 205.332 122.995 207.139 129.687C207.315 130.318 207.275 130.991 207.023 131.596C206.772 132.202 206.325 132.706 205.754 133.027C202.224 135.012 198.406 136.432 194.437 137.236H167.627Z" fill="#F9A719"/>
<path d="M156.31 133.027C159.516 134.829 162.962 136.165 166.545 136.994C166.861 135.71 167.523 131.936 165.187 129.411C164.658 126.511 156.162 126.099 154.925 129.687C154.749 130.318 154.789 130.991 155.041 131.596C155.292 132.202 155.739 132.706 156.31 133.027Z" fill="#F4B1B0"/>
<path d="M205.773 133.027C202.567 134.829 199.121 136.165 195.538 136.994C195.222 135.71 194.56 131.936 196.896 129.411C197.425 126.511 205.921 126.099 207.158 129.687C207.334 130.318 207.294 130.991 207.042 131.596C206.791 132.202 206.344 132.706 205.773 133.027Z" fill="#F4B1B0"/>
<path d="M169.634 118.457L169.854 121.666H168.51L169.634 118.457Z" fill="#EF9360"/>
<path d="M192.431 118.457L192.21 121.666H193.555L192.431 118.457Z" fill="#EF9360"/>
<path d="M181.034 110.801C179.211 110.801 175.534 108.486 175.177 104.456C174.633 104.561 174.104 104.67 173.591 104.783C173.499 105.608 173.575 106.443 173.815 107.238C175.04 110.97 178.615 113.263 181.034 113.263C183.453 113.263 187.028 110.97 188.253 107.238C188.493 106.443 188.569 105.608 188.477 104.783C187.964 104.67 187.436 104.561 186.891 104.456C186.531 108.486 182.856 110.801 181.034 110.801Z" fill="white"/>
<path d="M193.888 139.404H168.176V149.075H193.888V139.404Z" fill="#071659"/>
<path d="M197.37 121.469H164.694C164.51 121.469 164.328 121.517 164.168 121.609C164.008 121.7 163.875 121.832 163.781 121.991L163.211 122.961H198.856L198.286 121.991C198.192 121.832 198.059 121.7 197.898 121.608C197.738 121.517 197.557 121.469 197.372 121.469" fill="white"/>
<path d="M193.965 142.148H168.099C167.827 142.148 167.562 142.054 167.35 141.884C167.138 141.713 166.989 141.476 166.93 141.21L163.111 123.759C163.073 123.582 163.074 123.399 163.116 123.223C163.158 123.047 163.238 122.883 163.352 122.742C163.465 122.602 163.609 122.488 163.772 122.411C163.936 122.333 164.114 122.293 164.295 122.293H197.769C197.95 122.293 198.128 122.333 198.292 122.411C198.455 122.488 198.599 122.602 198.712 122.742C198.826 122.883 198.906 123.047 198.948 123.223C198.99 123.399 198.991 123.582 198.953 123.759L195.13 141.209C195.071 141.475 194.922 141.713 194.71 141.883C194.498 142.053 194.233 142.147 193.961 142.147" fill="#1B77C4"/>
<path d="M194.427 141.061L197.356 127.676C192.626 135.181 178.925 142.044 166.889 137.637L167.638 141.061C167.662 141.166 167.72 141.26 167.804 141.327C167.887 141.394 167.992 141.431 168.099 141.432H193.965C194.072 141.431 194.177 141.394 194.26 141.327C194.344 141.26 194.402 141.166 194.426 141.061" fill="#1E8EDA"/>
<path d="M183.341 133.615H178.721C178.35 133.615 177.994 133.468 177.731 133.205C177.468 132.942 177.321 132.586 177.321 132.215C177.321 131.844 177.468 131.488 177.731 131.225C177.994 130.962 178.35 130.815 178.721 130.815H183.338C183.709 130.815 184.065 130.962 184.328 131.225C184.591 131.488 184.738 131.844 184.738 132.215C184.738 132.586 184.591 132.942 184.328 133.205C184.065 133.468 183.709 133.615 183.338 133.615" fill="white"/>
<path d="M192.473 156.328C201.828 157.836 207.913 155.813 207.913 152.728C207.913 151.483 206.004 146.735 192.768 152.241L192.473 156.328Z" fill="#1E8EDA"/>
<path d="M192.853 155.549C198.998 156.288 202.044 155.297 202.088 153.232C202.104 152.491 200.999 150.38 193.08 153.125L192.853 155.549Z" fill="#1B77C4"/>
<path d="M206.711 152.923C206.711 152.062 205.83 149.578 201.176 149.764C206.888 149.048 207.913 151.823 207.913 152.733C207.913 154.475 205.968 155.878 202.587 156.496C205.222 155.767 206.711 154.477 206.711 152.923Z" fill="white"/>
<path d="M198.774 151.285C199.246 151.401 199.677 151.642 200.023 151.984C200.368 152.326 200.614 152.754 200.735 153.225C200.845 153.694 200.845 154.182 200.734 154.65C200.623 155.119 200.405 155.555 200.097 155.925C200.232 155.497 200.325 155.056 200.375 154.61C200.421 154.185 200.392 153.754 200.29 153.339C200.186 152.928 199.999 152.543 199.74 152.207C199.46 151.858 199.135 151.549 198.773 151.287" fill="white"/>
<path d="M196.729 151.826C197.134 151.959 197.493 152.205 197.762 152.536C198.039 152.874 198.222 153.279 198.293 153.711C198.362 154.14 198.324 154.58 198.181 154.991C198.047 155.395 197.802 155.753 197.473 156.023C197.656 155.671 197.787 155.295 197.863 154.906C197.932 154.534 197.937 154.153 197.876 153.779C197.817 153.407 197.687 153.05 197.494 152.726C197.286 152.389 197.028 152.086 196.729 151.826Z" fill="white"/>
<path d="M194.843 152.373C195.186 152.489 195.477 152.724 195.662 153.036C195.852 153.349 195.958 153.706 195.97 154.072C195.984 154.435 195.913 154.796 195.763 155.127C195.621 155.456 195.381 155.734 195.075 155.921C195.269 155.651 195.414 155.35 195.505 155.031C195.593 154.724 195.631 154.404 195.618 154.085C195.615 153.761 195.545 153.442 195.412 153.147C195.278 152.852 195.084 152.588 194.843 152.372" fill="white"/>
<path d="M194.1 151.443C186.164 146.575 177.538 142.934 168.514 140.643C158.34 138.182 151.597 138.933 150.762 140.643C149.927 142.353 151.293 147.975 156.022 150.32C165.145 154.844 192.91 156.577 192.91 156.577C193.607 154.949 194.01 153.211 194.1 151.443Z" fill="#273373"/>
<path d="M171.055 154.182C181.608 155.868 192.915 156.574 192.915 156.574C193.611 154.947 194.014 153.21 194.104 151.443C191.881 150.023 189.577 148.734 187.204 147.583L171.055 154.182Z" fill="#071659"/>
<path d="M156.133 147.435C150.57 145.209 150.533 141.535 150.704 140.79C150.004 142.655 151.426 148.037 156.027 150.318C159.283 151.933 164.915 153.192 170.812 154.143L182.562 149.383L180.818 144.883C175.436 146.762 164.041 150.602 156.133 147.436" fill="#071659"/>
<path d="M169.592 156.328C160.237 157.836 154.152 155.813 154.152 152.728C154.152 151.483 156.061 146.735 169.297 152.241L169.592 156.328Z" fill="#1E8EDA"/>
<path d="M169.212 155.549C163.067 156.288 160.021 155.297 159.977 153.232C159.961 152.491 161.066 150.38 168.985 153.125L169.212 155.549Z" fill="#1B77C4"/>
<path d="M155.353 152.923C155.353 152.062 156.234 149.578 160.888 149.764C155.176 149.048 154.151 151.823 154.151 152.733C154.151 154.475 156.096 155.878 159.477 156.496C156.842 155.767 155.353 154.477 155.353 152.923Z" fill="white"/>
<path d="M163.291 151.285C162.929 151.547 162.604 151.856 162.324 152.205C162.065 152.541 161.878 152.926 161.774 153.337C161.672 153.753 161.644 154.183 161.69 154.608C161.74 155.054 161.833 155.495 161.968 155.923C161.66 155.553 161.442 155.117 161.331 154.648C161.22 154.18 161.22 153.692 161.33 153.223C161.451 152.752 161.697 152.324 162.042 151.982C162.388 151.64 162.819 151.399 163.291 151.283" fill="white"/>
<path d="M165.336 151.826C165.037 152.086 164.779 152.389 164.571 152.726C164.378 153.05 164.248 153.407 164.189 153.779C164.128 154.153 164.133 154.534 164.202 154.906C164.278 155.295 164.409 155.671 164.592 156.023C164.264 155.753 164.018 155.395 163.884 154.991C163.742 154.58 163.703 154.14 163.772 153.711C163.843 153.28 164.026 152.874 164.303 152.536C164.572 152.205 164.931 151.959 165.336 151.826Z" fill="white"/>
<path d="M167.221 152.373C166.98 152.589 166.786 152.853 166.652 153.148C166.519 153.443 166.449 153.762 166.446 154.086C166.433 154.405 166.471 154.725 166.559 155.032C166.65 155.351 166.795 155.652 166.989 155.922C166.683 155.735 166.443 155.457 166.301 155.128C166.151 154.797 166.08 154.436 166.094 154.073C166.106 153.707 166.212 153.35 166.402 153.037C166.587 152.725 166.878 152.489 167.221 152.373Z" fill="white"/>
<path d="M167.961 151.443C175.897 146.575 184.523 142.934 193.547 140.643C203.721 138.182 210.464 138.933 211.299 140.643C212.134 142.353 210.768 147.975 206.039 150.32C196.916 154.844 169.151 156.577 169.151 156.577C168.455 154.95 168.052 153.213 167.962 151.446" fill="#273373"/>
<path d="M211.411 140.944C208.311 146.65 201.597 151.734 187.618 153.644C175.668 155.28 169.906 155.644 168.007 152.006C168.135 153.58 168.521 155.122 169.15 156.571C169.15 156.571 196.916 154.838 206.039 150.314C210.52 148.092 211.98 142.931 211.411 140.94" fill="#071659"/>
</g>
<defs>
<clipPath id="clip0_1_1162">
<rect width="335" height="220" fill="white" transform="translate(0.5)"/>
</clipPath>
</defs>
</svg>
