<svg width="49" height="33" viewBox="0 0 49 33" fill="none" xmlns="http://www.w3.org/2000/svg">
<g clip-path="url(#clip0_1_1505)">
<path d="M48.313 9.51999L39.534 0.170993C39.4883 0.1174 39.4315 0.0743648 39.3675 0.0448542C39.3036 0.0153436 39.2339 6.10352e-05 39.1635 6.10352e-05C39.0931 6.10352e-05 39.0235 0.0153436 38.9595 0.0448542C38.8955 0.0743648 38.8387 0.1174 38.793 0.170993L35.084 3.64899C35.0304 3.69471 34.9874 3.75151 34.9579 3.81548C34.9284 3.87944 34.9131 3.94905 34.9131 4.01949C34.9131 4.08994 34.9284 4.15954 34.9579 4.22351C34.9874 4.28747 35.0304 4.34427 35.084 4.38999L43.92 13.739C43.9657 13.7926 44.0225 13.8356 44.0865 13.8651C44.1505 13.8946 44.2201 13.9099 44.2905 13.9099C44.3609 13.9099 44.4305 13.8946 44.4945 13.8651C44.5585 13.8356 44.6153 13.7926 44.661 13.739L48.367 10.262C48.4551 10.1551 48.4986 10.0183 48.4885 9.88018C48.4785 9.74202 48.4156 9.61304 48.313 9.51999ZM45.121 10.6C44.9519 10.758 44.7397 10.8622 44.5113 10.8996C44.2829 10.937 44.0485 10.9058 43.8378 10.8099C43.6272 10.7141 43.4497 10.5579 43.3278 10.3612C43.2059 10.1644 43.1451 9.93596 43.153 9.70465C43.161 9.47334 43.2374 9.2496 43.3726 9.06172C43.5077 8.87384 43.6956 8.73027 43.9123 8.64916C44.1291 8.56806 44.3651 8.55306 44.5904 8.60608C44.8156 8.65909 45.0201 8.77773 45.178 8.94699C45.3763 9.18001 45.4804 9.47873 45.4699 9.78454C45.4593 10.0904 45.3349 10.3812 45.121 10.6ZM9.548 1.42499C9.43376 1.34436 9.2927 1.31118 9.15449 1.33244C9.01629 1.35371 8.89172 1.42775 8.807 1.53899L0.598001 12.139C0.517613 12.2533 0.484584 12.3943 0.505835 12.5324C0.527086 12.6706 0.600967 12.7951 0.712001 12.88L4.76 16.015C4.87432 16.0954 5.01532 16.1284 5.15345 16.1072C5.29158 16.0859 5.41613 16.012 5.501 15.901L13.71 5.30099C13.7904 5.18667 13.8234 5.04568 13.8022 4.90755C13.7809 4.76941 13.707 4.64487 13.596 4.55999L9.548 1.42499ZM5.672 12.485C5.53636 12.6648 5.35049 12.8004 5.13786 12.8747C4.92522 12.9489 4.69535 12.9586 4.47726 12.9023C4.25916 12.8461 4.06261 12.7265 3.91241 12.5587C3.76222 12.3908 3.6651 12.1822 3.63333 11.9593C3.60155 11.7363 3.63654 11.5089 3.73388 11.3058C3.83121 11.1027 3.98654 10.9329 4.18024 10.818C4.37395 10.7031 4.59735 10.6481 4.82227 10.66C5.04719 10.672 5.26353 10.7502 5.444 10.885C5.57341 10.9675 5.68344 11.0771 5.76656 11.2061C5.84968 11.3352 5.90393 11.4807 5.92558 11.6326C5.94724 11.7846 5.93579 11.9394 5.89202 12.0865C5.84825 12.2337 5.7732 12.3696 5.672 12.485Z" fill="#FF5A00"/>
<path d="M36.341 22.746L27.277 15.677L25.624 17.159C24.0373 18.7741 21.8995 19.7308 19.638 19.838C19.2555 19.8312 18.8742 19.793 18.498 19.724C17.6063 19.5672 16.7584 19.2216 16.0111 18.7104C15.2638 18.1992 14.6344 17.5342 14.165 16.76C13.7771 16.1336 13.6217 15.3909 13.7259 14.6616C13.8301 13.9322 14.1873 13.2627 14.735 12.77L21.235 6.84099C20.4973 6.28166 19.5958 5.98115 18.67 5.986C18.0208 5.98908 17.3807 6.13944 16.798 6.42577C16.2153 6.7121 15.7051 7.12692 15.306 7.63899L8.978 15.848C8.72338 16.1763 8.53679 16.5521 8.42913 16.9533C8.32147 17.3546 8.29491 17.7733 8.35099 18.185L8.751 21.491C8.79745 21.9056 8.92779 22.3063 9.1341 22.6689C9.3404 23.0315 9.61834 23.3483 9.95099 23.6L21.064 32.266C21.3599 32.4881 21.72 32.6081 22.09 32.608C22.3281 32.6112 22.564 32.5617 22.7807 32.4632C22.9975 32.3647 23.1898 32.2195 23.344 32.038L23.857 31.468C24.0147 31.2997 24.136 31.1007 24.2133 30.8834C24.2906 30.6662 24.3222 30.4353 24.3061 30.2052C24.2901 29.9751 24.2267 29.7509 24.12 29.5464C24.0133 29.342 23.8655 29.1617 23.686 29.017L25.567 30.556C25.8656 30.8195 26.2518 30.9621 26.65 30.956C27.0918 30.953 27.5177 30.7911 27.85 30.5L28.42 29.93C28.594 29.761 28.7303 29.5571 28.8198 29.3316C28.9093 29.1061 28.95 28.8642 28.9392 28.6219C28.9285 28.3795 28.8665 28.1422 28.7573 27.9256C28.6482 27.7089 28.4943 27.5179 28.306 27.365L29.674 28.505C29.9726 28.7685 30.3588 28.9111 30.757 28.905C30.9815 28.9062 31.2038 28.8612 31.4102 28.773C31.6166 28.6848 31.8027 28.5551 31.957 28.392L32.47 27.879C32.6353 27.7129 32.7653 27.5151 32.8522 27.2976C32.9391 27.08 32.9812 26.8471 32.9759 26.6128C32.9705 26.3786 32.9179 26.1479 32.8212 25.9345C32.7245 25.7211 32.5856 25.5294 32.413 25.371L33.325 26.171C33.6452 26.436 34.0495 26.5778 34.465 26.571C34.7163 26.5699 34.9642 26.5131 35.1909 26.4046C35.4176 26.2962 35.6174 26.1389 35.776 25.944L36.576 24.975C36.7215 24.8199 36.8318 24.6352 36.8995 24.4336C36.9672 24.232 36.9907 24.0182 36.9685 23.8067C36.9462 23.5952 36.8786 23.391 36.7703 23.208C36.662 23.025 36.5156 22.8674 36.341 22.746ZM40.731 14.309L33.092 6.5C32.7612 6.14941 32.3169 5.92728 31.838 5.873L27.904 5.35999C27.5991 5.3259 27.2905 5.35376 26.9966 5.44192C26.7028 5.53007 26.4298 5.6767 26.194 5.873L25.282 6.72799L16.503 14.709C16.446 14.823 16.218 15.109 16.446 15.393L16.503 15.507C16.7695 15.9418 17.1262 16.3144 17.5491 16.5995C17.9719 16.8847 18.451 17.0758 18.954 17.16C20.493 17.445 22.146 16.76 23.854 15.222L27.163 12.2L37.538 20.3L40.784 17.273C41.1607 16.8682 41.3657 16.3331 41.3558 15.7803C41.3459 15.2275 41.1219 14.7 40.731 14.309Z" fill="#FF5A00"/>
</g>
<defs>
<clipPath id="clip0_1_1505">
<rect width="47.99" height="32.608" fill="white" transform="translate(0.5)"/>
</clipPath>
</defs>
</svg>
