<svg width="63" height="62" viewBox="0 0 63 62" fill="none" xmlns="http://www.w3.org/2000/svg">
<g clip-path="url(#clip0_1_1539)">
<path d="M57.5 0H5.5C2.73858 0 0.5 2.23858 0.5 5V57C0.5 59.7614 2.73858 62 5.5 62H57.5C60.2614 62 62.5 59.7614 62.5 57V5C62.5 2.23858 60.2614 0 57.5 0Z" fill="#F3F7FA"/>
<mask id="mask0_1_1539" style="mask-type:luminance" maskUnits="userSpaceOnUse" x="8" y="8" width="47" height="47">
<path d="M49.5 8.00101H13.5C10.7386 8.00101 8.5 10.2396 8.5 13.001V49.001C8.5 51.7624 10.7386 54.001 13.5 54.001H49.5C52.2614 54.001 54.5 51.7624 54.5 49.001V13.001C54.5 10.2396 52.2614 8.00101 49.5 8.00101Z" fill="white"/>
</mask>
<g mask="url(#mask0_1_1539)">
<path d="M45.327 11.177C43.297 8.85701 39.527 7.69701 34.307 7.69701H19.806C19.3371 7.76374 18.897 7.96293 18.5374 8.27115C18.1778 8.57938 17.9137 8.98384 17.776 9.437L11.976 47.429C11.9413 47.7744 12.0433 48.1196 12.2602 48.3907C12.477 48.6618 12.7914 48.8371 13.136 48.879H22.126L24.446 34.668V35.248C24.5837 34.7948 24.8478 34.3904 25.2074 34.0821C25.567 33.7739 26.0071 33.5747 26.476 33.508H30.826C39.236 33.508 45.617 30.028 47.647 20.458V19.588C47.937 15.818 47.357 13.497 45.327 11.177Z" fill="#263B80"/>
<path d="M47.355 19.587V20.457C45.325 30.317 38.945 33.507 30.534 33.507H26.184C25.7151 33.5737 25.275 33.7729 24.9154 34.0812C24.5558 34.3894 24.2917 34.7938 24.154 35.247L21.255 52.938C21.2398 53.0941 21.2593 53.2517 21.3123 53.3993C21.3652 53.547 21.4501 53.6811 21.5611 53.792C21.672 53.9029 21.8061 53.9878 21.9537 54.0407C22.1014 54.0937 22.2589 54.1132 22.415 54.098H29.955C30.3768 54.1305 30.7945 53.9972 31.1195 53.7264C31.4445 53.4556 31.6509 53.0687 31.695 52.648V52.358L33.145 43.368V42.788C33.1891 42.3673 33.3956 41.9804 33.7205 41.7096C34.0455 41.4388 34.4633 41.3055 34.885 41.338H36.045C43.295 41.338 49.095 38.438 50.545 29.738C51.125 26.258 50.835 23.068 49.095 21.038C48.7293 20.3438 48.1038 19.8215 47.355 19.587Z" fill="#139AD6"/>
<path d="M45.327 18.718C45.037 18.718 44.747 18.428 44.457 18.428C44.2996 18.4475 44.1397 18.4316 43.9892 18.3814C43.8387 18.3313 43.7013 18.2481 43.587 18.138C42.3472 17.886 41.0808 17.7886 39.817 17.848H28.507C28.3496 17.8285 28.1897 17.8444 28.0392 17.8946C27.8887 17.9447 27.7513 18.0279 27.637 18.138C27.3711 18.2743 27.1486 18.4824 26.9948 18.7387C26.8411 18.995 26.7621 19.2892 26.767 19.588L24.447 34.668V35.248C24.5847 34.7948 24.8488 34.3904 25.2084 34.0822C25.568 33.7739 26.0081 33.5747 26.477 33.508H30.827C39.237 33.508 45.618 30.028 47.648 20.458C47.6285 20.3005 47.6444 20.1407 47.6946 19.9902C47.7448 19.8397 47.8279 19.7023 47.938 19.588C47.358 19.298 47.068 19.008 46.488 19.008C45.618 18.718 45.617 18.718 45.327 18.718Z" fill="#232C65"/>
</g>
</g>
<defs>
<clipPath id="clip0_1_1539">
<rect width="62" height="62" fill="white" transform="translate(0.5)"/>
</clipPath>
</defs>
</svg>
