<svg width="63" height="62" viewBox="0 0 63 62" fill="none" xmlns="http://www.w3.org/2000/svg">
<g clip-path="url(#clip0_1_1550)">
<path d="M57.5 0H5.5C2.73858 0 0.5 2.23858 0.5 5V57C0.5 59.7614 2.73858 62 5.5 62H57.5C60.2614 62 62.5 59.7614 62.5 57V5C62.5 2.23858 60.2614 0 57.5 0Z" fill="#F3F7FA"/>
<mask id="mask0_1_1550" style="mask-type:luminance" maskUnits="userSpaceOnUse" x="8" y="8" width="47" height="47">
<path d="M49.501 8.00101H13.501C10.7396 8.00101 8.50098 10.2396 8.50098 13.001V49.001C8.50098 51.7624 10.7396 54.001 13.501 54.001H49.501C52.2624 54.001 54.501 51.7624 54.501 49.001V13.001C54.501 10.2396 52.2624 8.00101 49.501 8.00101Z" fill="white"/>
</mask>
<g mask="url(#mask0_1_1550)">
<path d="M44.225 26.812L44.597 26.512C44.8764 26.2491 45.2077 26.0476 45.5698 25.9206C45.9318 25.7935 46.3164 25.7438 46.6988 25.7745C47.0812 25.8052 47.453 25.9157 47.7901 26.0989C48.1272 26.2821 48.4222 26.5339 48.656 26.838C48.768 26.968 48.824 26.978 48.935 26.866C49.009 26.782 49.093 26.717 49.168 26.633C49.5619 26.2345 50.0657 25.9625 50.615 25.8517C51.1643 25.741 51.7341 25.7965 52.2517 26.0112C52.7693 26.2258 53.2111 26.5899 53.5207 27.0569C53.8304 27.524 53.9937 28.0727 53.99 28.633C54.009 31.305 53.999 33.967 53.999 36.639C54.0165 36.8448 53.9891 37.0519 53.9188 37.246C53.8485 37.4402 53.7369 37.6168 53.5918 37.7636C53.4466 37.9105 53.2713 38.0241 53.078 38.0967C52.8847 38.1693 52.6779 38.1991 52.472 38.184C52.1 38.184 51.727 38.156 51.355 38.193C50.983 38.23 50.862 38.109 50.862 37.709C50.881 35.102 50.871 32.496 50.871 29.889V29.568C50.862 28.968 50.62 28.712 50.042 28.684C49.9256 28.6714 49.8078 28.683 49.6961 28.7181C49.5844 28.7532 49.4812 28.811 49.3929 28.888C49.3046 28.9649 49.2332 29.0592 49.1831 29.1651C49.1331 29.2709 49.1054 29.386 49.102 29.503C49.093 29.624 49.102 29.754 49.102 29.875V36.625C49.1246 36.8347 49.0999 37.0469 49.0297 37.2458C48.9595 37.4447 48.8457 37.6254 48.6965 37.7746C48.5474 37.9237 48.3667 38.0376 48.1678 38.1077C47.9688 38.1779 47.7567 38.2026 47.547 38.18C47.047 38.171 46.365 38.403 46.076 38.08C45.825 37.801 45.992 37.14 45.992 36.646V29.707C45.992 28.888 45.461 28.469 44.772 28.748C44.5843 28.8248 44.427 28.9611 44.3244 29.136C44.2218 29.3109 44.1795 29.5147 44.204 29.716C44.213 31.876 44.204 34.026 44.204 36.186V36.698C44.2124 36.8963 44.1792 37.0942 44.1065 37.2789C44.0338 37.4636 43.9233 37.631 43.782 37.7705C43.6407 37.9099 43.4718 38.0181 43.2861 38.0883C43.1005 38.1585 42.9022 38.1891 42.704 38.178C42.332 38.187 41.959 38.15 41.587 38.187C41.187 38.224 41.066 38.113 41.075 37.687C41.094 34.028 41.084 30.37 41.084 26.702C41.084 26.544 41.093 26.395 41.084 26.237C41.065 26.037 41.149 25.967 41.354 25.967C42.21 25.976 43.054 25.976 43.914 25.967C44.128 25.967 44.231 26.023 44.214 26.256C44.2043 26.4414 44.208 26.6272 44.225 26.812Z" fill="#02B9EF"/>
<path d="M24.496 31.858V35.675C24.538 36.0172 24.5013 36.3644 24.3888 36.6903C24.2762 37.0161 24.0908 37.312 23.8466 37.5553C23.6024 37.7986 23.3059 37.983 22.9796 38.0944C22.6534 38.2058 22.306 38.2412 21.964 38.198C21.238 38.198 20.502 38.207 19.776 38.198C19.4409 38.2114 19.1065 38.1579 18.7924 38.0406C18.4782 37.9233 18.1905 37.7446 17.9462 37.515C17.7018 37.2853 17.5056 37.0093 17.3691 36.703C17.2326 36.3967 17.1584 36.0663 17.151 35.731C17.0922 34.6769 17.0891 33.6204 17.142 32.566C17.166 31.8583 17.4692 31.1889 17.9852 30.7039C18.5012 30.219 19.1882 29.958 19.896 29.978C20.296 29.969 20.706 29.978 21.106 29.978C21.506 29.978 21.646 29.745 21.637 29.373C21.628 29.001 21.469 28.833 21.097 28.852C20.6783 28.8613 20.2593 28.8613 19.84 28.852C19.6265 28.8751 19.4105 28.85 19.208 28.7786C19.0054 28.7072 18.8214 28.5913 18.6696 28.4394C18.5177 28.2876 18.4018 28.1036 18.3304 27.9011C18.259 27.6985 18.2339 27.4825 18.257 27.269C18.257 26.859 18.071 26.31 18.341 26.069C18.574 25.869 19.104 25.995 19.505 25.995C20.548 25.986 21.581 25.995 22.624 25.995C22.8729 25.9824 23.1217 26.0221 23.3543 26.1115C23.5869 26.201 23.7982 26.3382 23.9746 26.5142C24.151 26.6903 24.2885 26.9014 24.3783 27.1339C24.4681 27.3664 24.5082 27.6151 24.496 27.864C24.504 29.186 24.496 30.527 24.496 31.858ZM21.646 33.972V33.506C21.646 32.556 21.646 32.556 20.696 32.594C20.5951 32.5851 20.4936 32.5986 20.3985 32.6335C20.3035 32.6683 20.2173 32.7238 20.1462 32.7958C20.075 32.8678 20.0206 32.9546 19.9869 33.0501C19.9531 33.1455 19.9409 33.2473 19.951 33.348C19.942 33.739 19.942 34.121 19.951 34.512C19.96 35.182 20.258 35.359 21.226 35.387C21.943 35.406 21.58 34.903 21.645 34.624C21.6593 34.4069 21.6596 34.1891 21.646 33.972Z" fill="#06306F"/>
<path d="M32.78 30.843C32.78 32.267 32.799 33.701 32.771 35.125C32.8245 35.653 32.7269 36.1854 32.4895 36.6601C32.2521 37.1347 31.8846 37.5322 31.43 37.806C31.0074 38.0394 30.5346 38.167 30.052 38.178C28.981 38.197 27.911 38.178 26.84 38.197C26.579 38.197 26.523 38.104 26.533 37.871C26.552 37.48 26.524 37.098 26.542 36.707C26.545 36.3536 26.6858 36.0154 26.9344 35.7642C27.1829 35.5131 27.5197 35.3688 27.873 35.362C28.357 35.343 28.832 35.353 29.316 35.362C29.707 35.362 29.916 35.204 29.916 34.785C29.916 34.366 29.716 34.208 29.316 34.198C28.6652 34.2446 28.0111 34.207 27.37 34.086C26.8322 33.9479 26.353 33.6409 26.0027 33.2101C25.6524 32.7794 25.4496 32.2476 25.424 31.693C25.368 29.878 25.405 28.062 25.396 26.247C25.396 26.047 25.461 25.977 25.666 25.986C26.429 25.995 27.183 26.005 27.947 25.986C28.282 25.977 28.236 26.163 28.236 26.368V30.468C28.236 31.068 28.515 31.38 29.036 31.399C29.65 31.418 29.92 31.166 29.92 30.543C29.92 29.165 29.929 27.778 29.911 26.4C29.911 26.074 29.995 25.981 30.321 25.99C31.001 26.018 31.69 26.027 32.369 25.99C32.741 25.971 32.797 26.111 32.788 26.437C32.77 27.901 32.78 29.372 32.78 30.843Z" fill="#06306F"/>
<path d="M9.05798 32.956V28.395C9.02949 28.0717 9.07239 27.7461 9.18364 27.4413C9.29488 27.1364 9.47177 26.8597 9.70177 26.6307C9.93178 26.4018 10.2093 26.2262 10.5147 26.1163C10.82 26.0064 11.1458 25.965 11.469 25.995C12.4435 25.9311 13.4219 25.9559 14.392 26.069C14.9739 26.1655 15.5008 26.4706 15.8744 26.9271C16.2479 27.3836 16.4426 27.9605 16.422 28.55C16.431 29.9 16.422 31.25 16.422 32.6C16.4548 32.9653 16.4085 33.3334 16.2861 33.6792C16.1637 34.025 15.9682 34.3403 15.7129 34.6036C15.4575 34.867 15.1484 35.0721 14.8065 35.205C14.4647 35.338 14.0981 35.3956 13.732 35.374C13.22 35.393 12.708 35.383 12.196 35.374C11.963 35.365 11.861 35.439 11.87 35.691C11.889 36.063 11.879 36.436 11.87 36.808C11.8729 36.99 11.8394 37.1707 11.7712 37.3394C11.703 37.5082 11.6017 37.6615 11.4732 37.7904C11.3447 37.9193 11.1917 38.021 11.0231 38.0897C10.8546 38.1583 10.674 38.1924 10.492 38.19C10.027 38.199 9.43998 38.39 9.14198 38.116C8.86298 37.862 9.07098 37.267 9.05798 36.816C9.04898 35.535 9.05798 34.241 9.05798 32.956ZM11.871 30.675V31.559C11.871 32.611 11.871 32.611 12.923 32.518C13.0169 32.5236 13.111 32.5085 13.1985 32.4739C13.2861 32.4393 13.365 32.386 13.4297 32.3177C13.4945 32.2494 13.5436 32.1677 13.5735 32.0785C13.6034 31.9893 13.6135 31.8945 13.603 31.801C13.612 31.28 13.584 30.749 13.612 30.228C13.668 28.72 13.389 28.869 12.16 28.859C11.937 28.859 11.86 28.924 11.86 29.148C11.879 29.65 11.871 30.163 11.871 30.675Z" fill="#06306F"/>
<path d="M35.415 32.975C35.415 31.737 35.406 30.489 35.424 29.251C35.424 28.962 35.359 28.841 35.042 28.851C34.623 28.87 34.064 28.991 33.832 28.786C33.543 28.516 33.767 27.939 33.732 27.492V27.399C33.732 26.961 33.592 26.449 33.779 26.124C33.966 25.799 34.533 26.003 34.933 25.901C35.6863 25.6965 36.3455 25.2371 36.798 24.601C37.1111 24.1687 37.575 23.8697 38.098 23.763C38.387 23.707 38.563 23.744 38.545 24.117C38.517 24.638 38.545 25.169 38.536 25.7C38.527 25.923 38.61 26 38.836 25.989C39.208 25.98 39.581 25.998 39.953 25.98C40.176 25.971 40.253 26.054 40.242 26.28C40.233 27.043 40.233 27.797 40.242 28.561C40.242 28.775 40.186 28.887 39.953 28.861C39.9064 28.8563 39.8595 28.8563 39.813 28.861C39.403 28.898 38.835 28.675 38.621 28.954C38.421 29.215 38.547 29.754 38.547 30.174C38.547 32.706 38.538 35.229 38.556 37.761C38.556 38.115 38.463 38.226 38.109 38.199C37.774 38.171 37.429 38.199 37.085 38.19C36.8601 38.1949 36.6366 38.1533 36.4285 38.0677C36.2205 37.9822 36.0323 37.8545 35.8759 37.6929C35.7195 37.5312 35.5981 37.3389 35.5195 37.1281C35.4409 36.9174 35.4067 36.6926 35.419 36.468C35.4163 35.3027 35.415 34.1383 35.415 32.975Z" fill="#02B9EF"/>
</g>
</g>
<defs>
<clipPath id="clip0_1_1550">
<rect width="62" height="62" fill="white" transform="translate(0.5)"/>
</clipPath>
</defs>
</svg>
