<svg width="13" height="19" viewBox="0 0 13 19" fill="none" xmlns="http://www.w3.org/2000/svg">
<g clip-path="url(#clip0_1_1563)">
<path d="M9.963 3.1095e-06H3.081C2.74191 -0.000523633 2.40605 0.0658764 2.09267 0.195397C1.7793 0.324918 1.49456 0.515013 1.25479 0.754786C1.01501 0.994559 0.824918 1.2793 0.695397 1.59267C0.565876 1.90605 0.499476 2.24191 0.500003 2.581V16.344C0.499476 16.6831 0.565876 17.019 0.695397 17.3323C0.824918 17.6457 1.01501 17.9304 1.25479 18.1702C1.49456 18.41 1.7793 18.6001 2.09267 18.7296C2.40605 18.8591 2.74191 18.9255 3.081 18.925H9.963C10.3021 18.9255 10.638 18.8591 10.9513 18.7296C11.2647 18.6001 11.5494 18.41 11.7892 18.1702C12.029 17.9304 12.2191 17.6457 12.3486 17.3323C12.4781 17.019 12.5445 16.6831 12.544 16.344V2.581C12.5445 2.24191 12.4781 1.90605 12.3486 1.59267C12.2191 1.2793 12.029 0.994559 11.7892 0.754786C11.5494 0.515013 11.2647 0.324918 10.9513 0.195397C10.638 0.0658764 10.3021 -0.000523633 9.963 3.1095e-06ZM8.242 17.2H4.8V16.34H8.241L8.242 17.2ZM11.042 14.619H2V2.581H11.032L11.042 14.619Z" fill="#FF5A00"/>
</g>
<defs>
<clipPath id="clip0_1_1563">
<rect width="12.044" height="18.925" fill="white" transform="translate(0.5)"/>
</clipPath>
</defs>
</svg>
