<svg width="426" height="426" viewBox="0 0 426 426" fill="none" xmlns="http://www.w3.org/2000/svg">
<g clip-path="url(#clip0_1_1566)">
<path d="M422.756 259.505C431.105 283.838 422.656 310.005 401.273 324.055C397.811 326.295 392.313 328.84 384.673 331.691C375.51 335.051 366.448 338.614 357.285 342.076C350.667 344.621 345.885 348.083 343.54 354.294C339.977 363.763 336.311 373.333 332.748 382.802C329.49 391.456 326.639 397.667 324.196 401.23C312.182 419.353 289.987 428.414 268.606 424.545C264.533 423.832 259.239 422 252.723 419.145C242.644 414.665 232.666 410.185 222.688 405.502C214.441 401.633 208.638 403.364 199.882 407.335C190.922 411.408 181.861 415.48 172.901 419.553C146.735 431.363 117.209 425.053 101.53 400.208C99.392 396.746 96.541 390.536 93.181 381.678C90.127 373.329 86.97 365.078 83.814 356.836C80.861 348.996 77.603 345.536 69.56 342.277C60.397 338.612 51.03 335.354 41.76 331.79C36.8231 330.009 32.0246 327.865 27.404 325.376C2.562 310.613 -5.991 280.576 5.921 254.514C9.79 245.962 13.659 237.414 17.421 228.857C22.41 217.657 24.955 213.28 20.068 202.589C16.199 194.24 12.432 185.789 8.668 177.441C4.904 169.093 2.559 162.678 1.643 158.402C-2.837 137.327 5.91901 114.419 24.243 102.102C27.705 99.76 33.203 97.215 40.737 94.262C49.391 90.902 58.045 87.644 66.699 84.488C76.778 80.721 81.36 77.259 84.516 67.18C85.84 62.904 89.098 54.25 94.29 40.912C97.548 32.767 100.399 26.862 102.944 23.196C108.976 14.7243 117.283 8.13389 126.905 4.18741C136.526 0.240932 147.069 -0.90023 157.312 0.895997C169.02 3.034 183.376 10.67 195.492 16.168C207.099 21.36 211.986 24.72 222.676 19.935C231.33 16.066 239.984 12.095 248.638 8.226C257.19 4.357 263.503 2.015 267.677 1.099C278.633 -1.12632 290.008 0.039588 300.285 4.44141C310.562 8.84323 319.253 16.272 325.202 25.738C327.238 29.098 329.885 35.207 333.347 44.37L342.816 69.416C346.074 77.968 350.35 80.616 359.31 84.077L386.494 94.462C393.417 97.109 398.508 99.553 401.97 101.894C410.903 107.96 417.844 116.532 421.92 126.531C425.996 136.53 427.025 147.511 424.878 158.094C422.536 169.494 415.002 183.446 409.606 195.256C404.106 207.372 401.461 212.156 406.755 223.866C412.065 235.375 419.803 250.851 422.756 259.505Z" fill="#594A0A"/>
<path d="M419.024 258.672C427.224 282.572 418.924 308.272 397.924 322.072C394.524 324.272 389.124 326.772 381.624 329.572C372.624 332.872 363.724 336.372 354.724 339.772C348.224 342.272 343.524 345.672 341.224 351.772C337.724 361.072 334.124 370.472 330.624 379.772C327.424 388.272 324.624 394.372 322.224 397.872C310.424 415.672 288.624 424.572 267.624 420.772C263.624 420.072 258.424 418.272 252.024 415.472C242.124 411.072 232.324 406.672 222.524 402.072C214.424 398.272 208.724 399.972 200.124 403.872C191.324 407.872 182.424 411.872 173.624 415.872C147.924 427.472 118.924 421.272 103.524 396.872C101.424 393.472 98.624 387.372 95.324 378.672C92.324 370.472 89.224 362.372 86.124 354.272C83.224 346.572 80.024 343.172 72.124 339.972C63.124 336.372 53.924 333.172 44.824 329.672C39.9751 327.923 35.2622 325.817 30.724 323.372C6.32402 308.872 -2.07599 279.372 9.62401 253.772C13.424 245.372 17.224 236.972 20.924 228.572C25.824 217.572 28.324 213.272 23.524 202.772C19.724 194.572 16.024 186.272 12.324 178.072C8.62401 169.872 6.32402 163.572 5.42402 159.372C1.02402 138.672 9.62401 116.172 27.624 104.072C31.024 101.772 36.424 99.272 43.824 96.372C52.324 93.072 60.824 89.872 69.324 86.772C79.224 83.072 83.724 79.672 86.824 69.772C88.124 65.572 91.324 57.072 96.424 43.972C99.624 35.972 102.424 30.172 104.924 26.572C110.849 18.2516 119.008 11.7791 128.459 7.9034C137.909 4.02772 148.263 2.90736 158.324 4.67199C169.824 6.77199 183.924 14.272 195.824 19.672C207.224 24.772 212.024 28.072 222.524 23.372C231.024 19.572 239.524 15.672 248.024 11.872C256.424 8.072 262.624 5.772 266.724 4.872C277.485 2.68635 288.657 3.83149 298.751 8.15488C308.844 12.4783 317.381 19.7746 323.224 29.072C325.224 32.372 327.824 38.372 331.224 47.372L340.524 71.972C343.724 80.372 347.924 82.972 356.724 86.372L383.424 96.572C390.224 99.172 395.224 101.572 398.624 103.872C407.398 109.83 414.216 118.249 418.219 128.071C422.222 137.892 423.233 148.678 421.124 159.072C418.824 170.272 411.424 183.972 406.124 195.572C400.724 207.472 398.124 212.172 403.324 223.672C408.524 234.972 416.124 250.172 419.024 258.672Z" fill="url(#paint0_linear_1_1566)"/>
<path d="M317.624 188.072C312.524 217.772 307.324 247.472 302.324 277.172C300.824 286.172 293.824 287.172 285.424 287.172H135.924C133.043 287.118 130.249 286.175 127.924 284.472C123.424 280.072 123.724 275.572 122.624 269.672C119.424 251.672 116.324 233.605 113.324 215.472C110.624 200.872 108.824 189.572 107.624 181.672C107.389 179.854 107.593 178.007 108.22 176.284C108.846 174.562 109.876 173.014 111.224 171.772C114.924 168.372 119.624 168.072 125.124 170.672C139.224 177.372 153.257 184.139 167.224 190.972C167.424 191.072 167.524 190.972 167.624 190.872C179.024 170.272 190.524 149.672 201.924 129.172C203.005 127.056 204.423 125.131 206.124 123.472C210.624 120.172 218.524 120.672 221.824 125.072C222.324 125.872 223.524 127.672 225.224 130.572L258.624 190.572C258.824 190.872 259.024 190.972 259.224 190.772C274.024 183.672 288.724 176.472 303.524 169.172C304.224 168.772 305.724 168.572 308.124 168.372C313.724 169.472 317.024 172.272 318.324 176.372C318.824 178.772 318.624 182.572 317.624 188.072Z" fill="#594A0A"/>
</g>
<defs>
<linearGradient id="paint0_linear_1_1566" x1="65.3038" y1="59.7824" x2="361.139" y2="355.662" gradientUnits="userSpaceOnUse">
<stop stop-color="#FFAE4E"/>
<stop offset="0.2" stop-color="#FFCE00"/>
<stop offset="0.375" stop-color="#FFAE4E"/>
<stop offset="0.621" stop-color="#FFCE00"/>
<stop offset="0.811" stop-color="#FFAE4E"/>
<stop offset="1" stop-color="#FFCE00"/>
</linearGradient>
<clipPath id="clip0_1_1566">
<rect width="425.49" height="425.427" fill="white" transform="translate(0.5)"/>
</clipPath>
</defs>
</svg>
