<svg xmlns="http://www.w3.org/2000/svg" xmlns:xlink="http://www.w3.org/1999/xlink" width="425.49" height="425.427" viewBox="0 0 425.49 425.427">
  <defs>
    <linearGradient id="linear-gradient" x1="0.146" y1="0.134" x2="0.854" y2="0.842" gradientUnits="objectBoundingBox">
      <stop offset="0" stop-color="#ffae4e"/>
      <stop offset="0.2" stop-color="#ffce00"/>
      <stop offset="0.375" stop-color="#ffae4e"/>
      <stop offset="0.621" stop-color="#ffce00"/>
      <stop offset="0.811" stop-color="#ffae4e"/>
      <stop offset="1" stop-color="#ffce00"/>
    </linearGradient>
  </defs>
  <g id="premium_icon" transform="translate(-197.376 -199.728)">
    <path id="Path_19135" d="M623.421,463.022c8.349,24.333-.1,50.5-21.483,64.55-3.462,2.24-8.96,4.785-16.6,7.636-9.163,3.36-18.225,6.923-27.388,10.385-6.618,2.545-11.4,6.007-13.745,12.218-3.563,9.469-7.229,19.039-10.792,28.508-3.258,8.654-6.109,14.865-8.552,18.428-12.014,18.123-34.209,27.184-55.59,23.315-4.073-.713-9.367-2.545-15.883-5.4-10.079-4.48-20.057-8.96-30.035-13.643-8.247-3.869-14.05-2.138-22.806,1.833-8.96,4.073-18.021,8.145-26.981,12.218-26.166,11.81-55.692,5.5-71.371-19.345-2.138-3.462-4.989-9.672-8.349-18.53-3.054-8.349-6.211-16.6-9.367-24.842-2.953-7.84-6.211-11.3-14.254-14.559-9.163-3.665-18.53-6.923-27.8-10.487a106.417,106.417,0,0,1-14.356-6.414c-24.842-14.763-33.395-44.8-21.483-70.862,3.869-8.552,7.738-17.1,11.5-25.657,4.989-11.2,7.534-15.577,2.647-26.268-3.869-8.349-7.636-16.8-11.4-25.148s-6.109-14.763-7.025-19.039c-4.48-21.075,4.276-43.983,22.6-56.3,3.462-2.342,8.96-4.887,16.494-7.84q12.981-5.04,25.962-9.774c10.079-3.767,14.661-7.229,17.817-17.308,1.324-4.276,4.582-12.93,9.774-26.268,3.258-8.145,6.109-14.05,8.654-17.716a55.065,55.065,0,0,1,54.368-22.3c11.708,2.138,26.064,9.774,38.18,15.272,11.607,5.192,16.494,8.552,27.184,3.767,8.654-3.869,17.308-7.84,25.962-11.709,8.552-3.869,14.865-6.211,19.039-7.127a55.009,55.009,0,0,1,57.525,24.639c2.036,3.36,4.683,9.469,8.145,18.632l9.469,25.046c3.258,8.552,7.534,11.2,16.494,14.661l27.184,10.385c6.923,2.647,12.014,5.091,15.476,7.432a54.77,54.77,0,0,1,22.908,56.2c-2.342,11.4-9.876,25.352-15.272,37.162-5.5,12.116-8.145,16.9-2.851,28.61C612.73,438.892,620.468,454.368,623.421,463.022Z" transform="translate(-3.789 -3.789)" fill="#594a0a"/>
    <path id="Path_19135-2" data-name="Path_19135" d="M615.9,458.4c8.2,23.9-.1,49.6-21.1,63.4-3.4,2.2-8.8,4.7-16.3,7.5-9,3.3-17.9,6.8-26.9,10.2-6.5,2.5-11.2,5.9-13.5,12-3.5,9.3-7.1,18.7-10.6,28-3.2,8.5-6,14.6-8.4,18.1-11.8,17.8-33.6,26.7-54.6,22.9-4-.7-9.2-2.5-15.6-5.3-9.9-4.4-19.7-8.8-29.5-13.4-8.1-3.8-13.8-2.1-22.4,1.8-8.8,4-17.7,8-26.5,12-25.7,11.6-54.7,5.4-70.1-19-2.1-3.4-4.9-9.5-8.2-18.2-3-8.2-6.1-16.3-9.2-24.4-2.9-7.7-6.1-11.1-14-14.3-9-3.6-18.2-6.8-27.3-10.3a104.525,104.525,0,0,1-14.1-6.3c-24.4-14.5-32.8-44-21.1-69.6,3.8-8.4,7.6-16.8,11.3-25.2,4.9-11,7.4-15.3,2.6-25.8-3.8-8.2-7.5-16.5-11.2-24.7s-6-14.5-6.9-18.7c-4.4-20.7,4.2-43.2,22.2-55.3,3.4-2.3,8.8-4.8,16.2-7.7q12.75-4.95,25.5-9.6c9.9-3.7,14.4-7.1,17.5-17,1.3-4.2,4.5-12.7,9.6-25.8,3.2-8,6-13.8,8.5-17.4a54.084,54.084,0,0,1,53.4-21.9c11.5,2.1,25.6,9.6,37.5,15,11.4,5.1,16.2,8.4,26.7,3.7,8.5-3.8,17-7.7,25.5-11.5,8.4-3.8,14.6-6.1,18.7-7a54.029,54.029,0,0,1,56.5,24.2c2,3.3,4.6,9.3,8,18.3l9.3,24.6c3.2,8.4,7.4,11,16.2,14.4l26.7,10.2c6.8,2.6,11.8,5,15.2,7.3A53.794,53.794,0,0,1,618,358.8c-2.3,11.2-9.7,24.9-15,36.5-5.4,11.9-8,16.6-2.8,28.1C605.4,434.7,613,449.9,615.9,458.4Z" fill="url(#linear-gradient)"/>
    <path id="Path_19136" d="M514.5,387.8c-5.1,29.7-10.3,59.4-15.3,89.1-1.5,9-8.5,10-16.9,10H332.8a13.979,13.979,0,0,1-8-2.7c-4.5-4.4-4.2-8.9-5.3-14.8q-4.8-27-9.3-54.2c-2.7-14.6-4.5-25.9-5.7-33.8a11.465,11.465,0,0,1,3.6-9.9c3.7-3.4,8.4-3.7,13.9-1.1q21.15,10.05,42.1,20.3c.2.1.3,0,.4-.1,11.4-20.6,22.9-41.2,34.3-61.7a21.841,21.841,0,0,1,4.2-5.7c4.5-3.3,12.4-2.8,15.7,1.6.5.8,1.7,2.6,3.4,5.5l33.4,60c.2.3.4.4.6.2,14.8-7.1,29.5-14.3,44.3-21.6.7-.4,2.2-.6,4.6-.8,5.6,1.1,8.9,3.9,10.2,8C515.7,378.5,515.5,382.3,514.5,387.8Z" fill="#594a0a"/>
  </g>
</svg>
