<svg width="63" height="71" viewBox="0 0 63 71" fill="none" xmlns="http://www.w3.org/2000/svg">
<g clip-path="url(#clip0_1_1571)">
<path d="M59 0H57.1C54.8 1.3 52.6 3 50.1 3.6C47.7321 4.31389 45.2439 4.54017 42.7861 4.26517C40.3282 3.99016 37.9516 3.21957 35.8 2C34.7 1.4 33.6 0.7 32.5 0H30.6C28.3 1.2 26.2 2.8 23.9 3.5C20.878 4.45974 17.6628 4.64217 14.5516 4.03042C11.4404 3.41867 8.53366 2.03249 6.1 0L4.1 0C3.24827 0.221796 2.46873 0.660948 1.83768 1.27447C1.20663 1.88799 0.745695 2.65486 0.5 3.5V41.8C2.4 58.2 16.4 66.5 30.6 71H32.2C39.4156 69.0866 46.1345 65.6419 51.9 60.9C54.8339 58.612 57.2825 55.7621 59.1025 52.517C60.9225 49.2719 62.0775 45.6966 62.5 42V3.6C62.2782 2.74827 61.8391 1.96873 61.2255 1.33768C60.612 0.706628 59.8451 0.245695 59 0ZM44.6 44.5C44.6025 45.0917 44.4878 45.6779 44.2626 46.225C44.0373 46.7721 43.706 47.2692 43.2876 47.6876C42.8692 48.106 42.3721 48.4373 41.825 48.6626C41.2779 48.8878 40.6917 49.0025 40.1 49H22.7C22.1341 49.0043 21.5731 48.8959 21.0494 48.6814C20.5258 48.4668 20.0501 48.1502 19.6499 47.7501C19.2498 47.3499 18.9332 46.8742 18.7186 46.3506C18.5041 45.8269 18.3957 45.2659 18.4 44.7V36.7C18 33.7 19.2 31.8 22 31.1C22.1527 31.0613 22.2866 30.9697 22.3782 30.8416C22.4697 30.7134 22.5129 30.557 22.5 30.4C22.5 28.2 22.3 25.9 23.1 23.8C24.5 20.1 27.1 18.1 30.9 17.9C32.0624 17.7757 33.238 17.8889 34.3553 18.2327C35.4727 18.5765 36.5085 19.1438 37.4 19.9C40.3 22.4 40.9 26.4 40.5 30.2C40.4858 30.4098 40.5492 30.6175 40.6783 30.7835C40.8075 30.9495 40.9931 31.0622 41.2 31.1C45.1 32 44.9 35.1 44.7 38.3V44.5H44.6Z" fill="#FF5A00"/>
<path d="M45.4 38.1V38.5C45.3508 38.445 45.3236 38.3738 45.3236 38.3C45.3236 38.2262 45.3508 38.155 45.4 38.1Z" fill="#FF5A00"/>
<path d="M27.5 31C27.3962 30.993 27.2985 30.9486 27.225 30.875C27.1514 30.8015 27.107 30.7038 27.1 30.6V26.9C27.1 24.2 29 22.1 31.3 22.1H31.7C34 22.1 35.9 24.3 35.9 26.9V30.5C35.893 30.6038 35.8486 30.7015 35.775 30.775C35.7015 30.8486 35.6038 30.893 35.5 30.9L27.5 31Z" fill="#FF5A00"/>
<path d="M45.4 38.1V38.5C45.3508 38.445 45.3236 38.3738 45.3236 38.3C45.3236 38.2262 45.3508 38.155 45.4 38.1Z" fill="#FF5A00"/>
<path d="M30.9 37.9H32.1C32.2851 37.8955 32.4692 37.9286 32.6411 37.9974C32.813 38.0661 32.9691 38.1691 33.1 38.3C33.2309 38.4309 33.3339 38.587 33.4027 38.7589C33.4714 38.9308 33.5045 39.1149 33.5 39.3V40.5C33.5045 40.6851 33.4714 40.8692 33.4027 41.0411C33.3339 41.213 33.2309 41.3691 33.1 41.5C32.9691 41.6309 32.813 41.7339 32.6411 41.8027C32.4692 41.8714 32.2851 41.9045 32.1 41.9H30.9C30.7149 41.9045 30.5308 41.8714 30.3589 41.8027C30.187 41.7339 30.0309 41.6309 29.9 41.5C29.7691 41.3691 29.6661 41.213 29.5974 41.0411C29.5286 40.8692 29.4955 40.6851 29.5 40.5V39.3C29.5248 38.9369 29.6802 38.595 29.9376 38.3376C30.195 38.0802 30.5369 37.9248 30.9 37.9Z" fill="#FF5A00"/>
</g>
<defs>
<clipPath id="clip0_1_1571">
<rect width="62" height="71" fill="white" transform="translate(0.5)"/>
</clipPath>
</defs>
</svg>
