<svg id="privacypolicy_icon" xmlns="http://www.w3.org/2000/svg" width="62" height="71" viewBox="0 0 62 71">
  <path id="Path_139" data-name="Path 139" d="M58.5,0H56.6c-2.3,1.3-4.5,3-7,3.6A18.292,18.292,0,0,1,35.3,2C34.2,1.4,33.1.7,32,0H30.1c-2.3,1.2-4.4,2.8-6.7,3.5A18.862,18.862,0,0,1,5.6,0h-2A5.083,5.083,0,0,0,0,3.5V41.8C1.9,58.2,15.9,66.5,30.1,71h1.6A51.993,51.993,0,0,0,51.4,60.9,28,28,0,0,0,62,42V3.6A5.083,5.083,0,0,0,58.5,0ZM.7,39.8Zm43.4,4.7A4.481,4.481,0,0,1,39.6,49H22.2a4.268,4.268,0,0,1-4.3-4.3v-8c-.4-3,.8-4.9,3.6-5.6a.666.666,0,0,0,.5-.7c0-2.2-.2-4.5.6-6.6,1.4-3.7,4-5.7,7.8-5.9a8.63,8.63,0,0,1,6.5,2c2.9,2.5,3.5,6.5,3.1,10.3a.856.856,0,0,0,.7.9c3.9.9,3.7,4,3.5,7.2v6.2Zm.8-6v0Z" fill="#3a8bc3"/>
  <path id="Path_140" data-name="Path 140" d="M44.9,38.1v.4A.3.3,0,0,1,44.9,38.1Z" fill="#3a8bc3"/>
  <path id="Path_141" data-name="Path 141" d="M27,31a.43.43,0,0,1-.4-.4V26.9c0-2.7,1.9-4.8,4.2-4.8h.4c2.3,0,4.2,2.2,4.2,4.8h0v3.6a.43.43,0,0,1-.4.4Z" fill="#3a8bc3"/>
  <path id="Path_142" data-name="Path 142" d="M44.9,38.1v.4A.3.3,0,0,1,44.9,38.1Z" fill="#3a8bc3"/>
  <path id="Path_143" data-name="Path 143" d="M30.4,37.9h1.2A1.367,1.367,0,0,1,33,39.3v1.2a1.367,1.367,0,0,1-1.4,1.4H30.4A1.367,1.367,0,0,1,29,40.5V39.3A1.506,1.506,0,0,1,30.4,37.9Z" fill="#3a8bc3"/>
</svg>
