<svg width="26" height="25" viewBox="0 0 26 25" fill="none" xmlns="http://www.w3.org/2000/svg">
<g clip-path="url(#clip0_1_1577)">
<path d="M24.355 7.65801C24.0194 7.52633 23.6765 7.41414 23.328 7.32201C21.7307 6.9124 20.1063 6.61732 18.467 6.43901C18.3634 6.43742 18.2625 6.40538 18.177 6.34688C18.0915 6.28837 18.025 6.206 17.986 6.11001C17.459 5.04301 16.886 4.00501 16.28 2.98201C15.8493 2.22765 15.3675 1.50363 14.838 0.815007C14.6499 0.569568 14.4094 0.369162 14.1341 0.228375C13.8588 0.0875875 13.5555 0.00996261 13.2464 0.00115005C12.9373 -0.00766251 12.6301 0.052559 12.3472 0.177431C12.0643 0.302303 11.8128 0.488684 11.611 0.723007C11.4078 0.959617 11.2188 1.20805 11.045 1.46701C10.0327 2.98029 9.11587 4.55536 8.3 6.18301C8.26975 6.25174 8.22121 6.31084 8.15966 6.35387C8.09812 6.3969 8.02594 6.4222 7.951 6.42701C7.213 6.52701 6.469 6.61801 5.731 6.73701C4.43 6.91526 3.14777 7.2108 1.9 7.62001C1.58663 7.72859 1.30409 7.9112 1.07638 8.15231C0.848663 8.39343 0.682501 8.68594 0.592 9.00501C0.566 9.08401 0.579 9.18901 0.5 9.24901V9.98701C0.58191 10.2138 0.67639 10.4358 0.783 10.652C1.02479 11.0152 1.29213 11.3608 1.583 11.686C2.71876 12.9512 3.93317 14.1436 5.219 15.256C5.27463 15.2947 5.31666 15.3499 5.3391 15.4138C5.36155 15.4777 5.36326 15.5471 5.344 15.612C5.133 16.612 4.955 17.627 4.817 18.642C4.63698 19.7276 4.56197 20.828 4.593 21.928C4.63029 22.4191 4.83971 22.8812 5.18437 23.233C5.52903 23.5848 5.98679 23.8037 6.477 23.851C7.02711 23.8632 7.5726 23.7482 8.071 23.515C9.75447 22.8528 11.3935 22.0829 12.978 21.21C13.0307 21.174 13.0933 21.1554 13.1571 21.1566C13.2209 21.1579 13.2827 21.179 13.334 21.217C14.151 21.698 14.987 22.152 15.834 22.58C16.8935 23.153 18.0108 23.6123 19.167 23.95C19.4624 24.0253 19.7706 24.0351 20.0702 23.9786C20.3697 23.9222 20.6533 23.8009 20.901 23.6233C21.1487 23.4457 21.3546 23.2161 21.5042 22.9505C21.6538 22.685 21.7435 22.3899 21.767 22.086C21.7867 21.8077 21.7867 21.5283 21.767 21.25C21.6431 19.359 21.3966 17.4781 21.029 15.619C21.0121 15.5571 21.0137 15.4917 21.0336 15.4307C21.0535 15.3698 21.0908 15.316 21.141 15.276C21.8257 14.6633 22.4923 14.03 23.141 13.376C23.9409 12.6057 24.6745 11.7694 25.334 10.876C25.5244 10.6119 25.6512 10.3074 25.7045 9.98627C25.7579 9.66511 25.7364 9.33597 25.6416 9.02451C25.5469 8.71304 25.3814 8.42767 25.1583 8.19064C24.9351 7.95361 24.6602 7.77133 24.355 7.65801ZM23.677 9.79201C23.1926 10.434 22.6622 11.0399 22.09 11.605C21.2233 12.501 20.3187 13.3617 19.376 14.187C19.202 14.3236 19.0709 14.5074 18.9986 14.7165C18.9262 14.9256 18.9156 15.1511 18.968 15.366C19.268 16.914 19.521 18.466 19.693 20.029C19.7558 20.5912 19.7892 21.1563 19.793 21.722C19.793 22.031 19.76 22.058 19.464 21.972C18.6838 21.7269 17.9257 21.4161 17.198 21.043C16.045 20.477 14.913 19.871 13.813 19.199C13.6262 19.072 13.4063 19.0024 13.1805 18.9988C12.9546 18.9953 12.7327 19.0579 12.542 19.179C10.9024 20.1043 9.20378 20.9208 7.457 21.623C7.233 21.709 7.009 21.774 6.785 21.853C6.634 21.899 6.548 21.86 6.548 21.682V21.07C6.65645 19.4338 6.88473 17.8078 7.231 16.205C7.29 15.905 7.35 15.593 7.415 15.29C7.46508 15.1024 7.45868 14.9043 7.3966 14.7203C7.33451 14.5364 7.21951 14.3749 7.066 14.256C6.058 13.38 5.066 12.478 4.122 11.529C3.56128 10.9861 3.04372 10.4003 2.574 9.77701C2.423 9.56601 2.429 9.52701 2.686 9.43501C3.73309 9.10258 4.80617 8.85839 5.894 8.70501C6.889 8.54001 7.894 8.40501 8.894 8.29701C9.08272 8.27781 9.26284 8.20842 9.41567 8.09605C9.56849 7.98367 9.68842 7.83242 9.763 7.65801C10.5803 6.00505 11.4908 4.3998 12.49 2.85001C12.655 2.60601 12.826 2.36901 13.004 2.13201C13.155 1.93201 13.215 1.93201 13.366 2.13201C13.9462 2.91616 14.4721 3.73908 14.94 4.59501C15.506 5.59001 16.053 6.59501 16.554 7.63101C16.6441 7.82848 16.7873 7.99706 16.9676 8.118C17.1478 8.23893 17.3581 8.30748 17.575 8.31601C19.4769 8.49057 21.3593 8.8346 23.2 9.34401C23.325 9.38401 23.444 9.43601 23.569 9.47601C23.769 9.53501 23.8 9.62701 23.677 9.79201Z" fill="#FF5A00"/>
<path d="M13.9 13.724C13.8993 13.8863 13.8661 14.0468 13.8025 14.196C13.7389 14.3453 13.6461 14.4803 13.5295 14.5932C13.413 14.7062 13.2751 14.7946 13.1239 14.8535C12.9727 14.9124 12.8112 14.9404 12.649 14.936C12.3261 14.9284 12.019 14.7945 11.7937 14.5631C11.5684 14.3316 11.4429 14.021 11.444 13.698C11.4443 13.375 11.5727 13.0652 11.801 12.8367C12.0293 12.6082 12.339 12.4795 12.662 12.479C12.8264 12.4746 12.9899 12.5038 13.1426 12.5649C13.2953 12.6259 13.4339 12.7176 13.5498 12.8342C13.6658 12.9508 13.7567 13.0899 13.8169 13.2429C13.8771 13.3959 13.9054 13.5597 13.9 13.724Z" fill="#FF5A00"/>
<path d="M17.347 16.55C17.3524 16.7144 17.3241 16.8781 17.2639 17.0311C17.2037 17.1841 17.1128 17.3232 16.9968 17.4398C16.8809 17.5564 16.7423 17.6481 16.5896 17.7092C16.437 17.7702 16.2734 17.7995 16.109 17.795C15.7891 17.7877 15.4847 17.656 15.2604 17.4277C15.0361 17.1995 14.9097 16.8928 14.908 16.5728C14.9063 16.2528 15.0295 15.9448 15.2513 15.7142C15.4732 15.4836 15.7762 15.3487 16.096 15.338C16.2586 15.3319 16.4208 15.3588 16.5728 15.4171C16.7247 15.4753 16.8633 15.5638 16.9802 15.677C17.0971 15.7902 17.1898 15.926 17.2529 16.076C17.3159 16.226 17.3479 16.3873 17.347 16.55Z" fill="#FF5A00"/>
<path d="M18.19 12.137C18.194 12.382 18.1248 12.6227 17.9913 12.8282C17.8577 13.0337 17.666 13.1947 17.4405 13.2906C17.215 13.3865 16.966 13.413 16.7253 13.3667C16.4847 13.3204 16.2633 13.2034 16.0895 13.0306C15.9157 12.8578 15.7974 12.6371 15.7497 12.3967C15.702 12.1564 15.7271 11.9072 15.8217 11.6812C15.9164 11.4551 16.0763 11.2624 16.281 11.1277C16.4857 10.993 16.726 10.9224 16.971 10.925C17.2921 10.9283 17.5991 11.0569 17.8268 11.2833C18.0545 11.5096 18.1848 11.816 18.19 12.137Z" fill="#FF5A00"/>
</g>
<defs>
<clipPath id="clip0_1_1577">
<rect width="25.233" height="24.014" fill="white" transform="translate(0.5)"/>
</clipPath>
</defs>
</svg>
