<svg width="334" height="157" viewBox="0 0 334 157" fill="none" xmlns="http://www.w3.org/2000/svg">
<g clip-path="url(#clip0_1_2431)">
<path d="M122.66 52.707C121.907 52.6778 121.157 52.8064 120.457 53.0846C119.757 53.3627 119.123 53.7842 118.596 54.3219C118.068 54.8597 117.659 55.5018 117.395 56.207C117.13 56.9123 117.016 57.6651 117.06 58.417V58.47L117.588 63.837L123.438 123.47C123.617 124.816 124.289 126.047 125.323 126.926C126.358 127.805 127.681 128.27 129.038 128.23H207.638C209.007 128.272 210.341 127.8 211.379 126.907C212.418 126.015 213.085 124.766 213.249 123.407L218.304 63.837L218.759 58.47L218.77 58.353C218.805 57.6054 218.684 56.8588 218.414 56.1605C218.145 55.4622 217.734 54.8274 217.206 54.2966C216.679 53.7657 216.047 53.3502 215.35 53.0766C214.654 52.803 213.908 52.6771 213.16 52.707H122.66Z" fill="url(#paint0_linear_1_2431)"/>
<path d="M179.127 52.509H156.692V128.23H179.127V52.509Z" fill="url(#paint1_linear_1_2431)"/>
<path d="M111.751 35.615C111.337 35.6228 110.936 35.7616 110.607 36.0116C110.277 36.2615 110.034 36.6097 109.915 37.006C109.83 37.2668 109.796 37.5414 109.815 37.815L110.952 56.733C110.968 57.242 111.178 57.7258 111.538 58.0855C111.899 58.4453 112.383 58.654 112.892 58.669H222.945C223.451 58.6542 223.932 58.4484 224.292 58.0928C224.652 57.7373 224.864 57.2585 224.885 56.753L226.185 37.835C226.185 37.79 226.185 37.745 226.185 37.7V37.669C226.184 37.4438 226.148 37.2202 226.079 37.006C225.959 36.6097 225.717 36.2616 225.387 36.0117C225.057 35.7617 224.656 35.6229 224.242 35.615H111.751Z" fill="url(#paint2_linear_1_2431)"/>
<path d="M145.508 20.926C143.001 18.195 142.086 15.567 143.108 14.069C143.365 13.5699 143.751 13.1486 144.226 12.8485C144.701 12.5485 145.247 12.3805 145.808 12.362H145.939C147.639 12.422 151.52 13.829 158.439 22.585C160.755 25.514 162.756 28.46 164.084 30.51C155.121 28.517 148.725 24.442 145.497 20.924M176.537 22.624C181.613 16.206 186.181 12.465 189.079 12.364H189.213C189.774 12.3821 190.32 12.5497 190.795 12.8494C191.269 13.1491 191.655 13.5702 191.913 14.069C192.943 15.569 192.026 18.196 189.52 20.926C186.293 24.444 179.897 28.518 170.934 30.512C172.253 28.474 174.243 25.544 176.551 22.623M189.156 7.98899C189.078 7.98899 189.002 7.98899 188.926 7.98899C184.497 8.14299 179.326 12.043 173.116 19.909C170.836 22.798 168.879 25.647 167.516 27.74C166.151 25.647 164.193 22.798 161.916 19.909C155.7 12.048 150.528 8.14799 146.1 7.98899C144.782 7.95273 143.477 8.26686 142.32 8.8993C141.163 9.53175 140.194 10.4599 139.513 11.589C137.234 14.906 138.269 19.502 142.288 23.879C145.315 27.0335 148.927 29.569 152.922 31.344C143.35 30.1422 134.123 27.0059 125.802 22.126C125.552 21.9842 125.277 21.8931 124.992 21.8577C124.708 21.8224 124.419 21.8435 124.142 21.92C123.865 21.9964 123.606 22.1266 123.38 22.3032C123.154 22.4798 122.964 22.6992 122.823 22.949C122.76 23.059 122.707 23.1749 122.666 23.295C122.494 23.7788 122.497 24.308 122.676 24.7895C122.855 25.271 123.198 25.6741 123.644 25.928C137.731 33.928 150.192 36.1 159.565 36.1C161.853 36.1006 164.139 35.967 166.411 35.7C166.781 35.656 167.148 35.6083 167.511 35.557C167.877 35.6083 168.244 35.656 168.611 35.7C170.884 35.967 173.17 36.1006 175.458 36.1C184.831 36.1 197.292 33.93 211.379 25.928C211.852 25.6586 212.208 25.2221 212.376 24.7041C212.544 24.186 212.512 23.6239 212.287 23.128C212.261 23.0685 212.231 23.0104 212.199 22.954C212.058 22.7042 211.868 22.4848 211.642 22.3082C211.416 22.1316 211.157 22.0014 210.88 21.925C210.603 21.8485 210.314 21.8274 210.03 21.8627C209.745 21.8981 209.47 21.9892 209.22 22.131C200.898 27.0105 191.671 30.1468 182.099 31.349C186.094 29.5749 189.705 27.0413 192.733 23.889C196.758 19.51 197.794 14.915 195.513 11.589C194.855 10.505 193.933 9.60594 192.832 8.97623C191.731 8.34652 190.489 8.00681 189.221 7.98899H189.156Z" fill="url(#paint3_linear_1_2431)"/>
<path d="M168.613 35.508C150.413 36.178 133.288 29.015 122.661 23.299C122.489 23.7828 122.492 24.3119 122.671 24.7935C122.85 25.275 123.193 25.6781 123.639 25.932C137.726 33.932 150.187 36.104 159.56 36.104C161.848 36.1046 164.134 35.971 166.406 35.704C166.776 35.66 167.143 35.6123 167.506 35.561C167.872 35.6123 168.239 35.66 168.606 35.704C170.879 35.971 173.165 36.1046 175.453 36.104C184.826 36.104 197.287 33.934 211.374 25.932C211.847 25.6626 212.203 25.2261 212.371 24.708C212.539 24.19 212.507 23.6279 212.282 23.132C207.488 26.313 192.745 34.624 168.606 35.512" fill="url(#paint4_linear_1_2431)"/>
<path d="M180.631 35.615H155.39V58.669H180.631V35.615Z" fill="url(#paint5_linear_1_2431)"/>
<path d="M226.086 37.006H109.914C110.034 36.6095 110.276 36.2613 110.606 36.0113C110.936 35.7613 111.337 35.6226 111.751 35.615H224.251C224.665 35.6229 225.066 35.7617 225.396 36.0117C225.726 36.2616 225.968 36.6097 226.088 37.006" fill="url(#paint6_linear_1_2431)"/>
<path d="M180.63 35.604H155.389V37.006H180.63V35.604Z" fill="url(#paint7_linear_1_2431)"/>
<path d="M274.087 130.862C273.744 130.861 273.402 130.888 273.063 130.942C272.716 131.022 272.413 131.23 272.215 131.525C272.016 131.82 271.937 132.18 271.994 132.531C272.051 132.882 272.24 133.198 272.522 133.415C272.803 133.632 273.157 133.734 273.511 133.7C273.719 133.669 278.648 133.015 280.686 139.711C283.401 148.629 289.786 148.732 290.053 148.732C290.408 148.709 290.74 148.551 290.983 148.292C291.226 148.033 291.361 147.69 291.361 147.335C291.361 146.98 291.226 146.637 290.983 146.378C290.74 146.119 290.408 145.961 290.053 145.938C290.007 145.938 285.476 145.858 283.358 138.898C281.412 132.503 276.942 130.873 274.126 130.862H274.087Z" fill="url(#paint8_linear_1_2431)"/>
<path d="M98.3855 129.645L97.2011 126L93.5585 127.183C93.3864 127.24 93.205 127.263 93.0243 127.249C92.8437 127.236 92.6675 127.187 92.5058 127.105C92.1806 126.938 91.9351 126.648 91.8234 126.299C91.7663 126.127 91.744 125.945 91.7573 125.764C91.7707 125.583 91.8196 125.407 91.9013 125.245C91.9842 125.084 92.0981 124.94 92.2365 124.823C92.3749 124.706 92.535 124.617 92.7078 124.562L96.3504 123.379L95.1659 119.733C95.0533 119.385 95.0839 119.006 95.2504 118.68C95.4168 118.354 95.7055 118.107 96.0537 117.994C96.4019 117.88 96.7811 117.91 97.1076 118.075C97.4341 118.241 97.6815 118.53 97.7954 118.878L98.9802 122.524L102.623 121.341C102.795 121.284 102.977 121.262 103.158 121.276C103.34 121.29 103.516 121.34 103.678 121.422C103.839 121.504 103.983 121.617 104.101 121.756C104.219 121.894 104.309 122.054 104.365 122.226C104.421 122.399 104.443 122.581 104.428 122.762C104.414 122.943 104.365 123.12 104.282 123.282C104.2 123.444 104.086 123.587 103.948 123.705C103.809 123.823 103.649 123.912 103.477 123.968L99.8339 125.152L101.018 128.797C101.132 129.146 101.102 129.526 100.935 129.853C100.769 130.18 100.479 130.427 100.13 130.54C99.9571 130.597 99.7743 130.618 99.5927 130.603C99.4111 130.589 99.2344 130.538 99.0722 130.455C98.9101 130.372 98.766 130.257 98.6482 130.118C98.5303 129.979 98.441 129.819 98.3855 129.645Z" fill="url(#paint9_linear_1_2431)"/>
<path d="M226.361 136.457L232.482 137.786L228.271 142.424L226.361 136.457ZM224.037 134.264L223.992 134.306C223.866 134.444 223.779 134.614 223.74 134.796C223.7 134.979 223.709 135.169 223.767 135.347L226.804 144.833C226.859 145.004 226.956 145.158 227.086 145.282C227.217 145.405 227.376 145.494 227.55 145.539C227.724 145.584 227.906 145.585 228.08 145.541C228.254 145.497 228.414 145.41 228.546 145.287L228.611 145.227L235.303 137.857C235.429 137.718 235.516 137.549 235.555 137.366C235.595 137.183 235.586 136.994 235.529 136.816C235.472 136.637 235.369 136.478 235.23 136.352C235.092 136.226 234.922 136.139 234.74 136.1L225.009 133.985C224.846 133.949 224.677 133.952 224.515 133.994C224.354 134.036 224.204 134.115 224.079 134.225L224.037 134.264Z" fill="url(#paint10_linear_1_2431)"/>
<path d="M266.499 102.475C266.499 101.407 266.816 100.363 267.409 99.4749C268.002 98.5869 268.846 97.8947 269.833 97.486C270.819 97.0773 271.905 96.9704 272.952 97.1787C274 97.3871 274.962 97.9014 275.717 98.6566C276.473 99.4118 276.987 100.374 277.195 101.421C277.404 102.469 277.297 103.555 276.888 104.541C276.479 105.528 275.787 106.372 274.899 106.965C274.011 107.558 272.967 107.875 271.899 107.875C270.467 107.875 269.093 107.306 268.081 106.293C267.068 105.281 266.499 103.907 266.499 102.475ZM271.902 94.639C270.352 94.6392 268.838 95.0988 267.549 95.9598C266.261 96.8208 265.257 98.0445 264.664 99.4761C264.071 100.908 263.916 102.483 264.219 104.003C264.521 105.523 265.267 106.918 266.363 108.014C267.458 109.11 268.854 109.856 270.374 110.158C271.894 110.461 273.469 110.306 274.901 109.713C276.332 109.12 277.556 108.116 278.417 106.827C279.278 105.539 279.738 104.025 279.738 102.475C279.738 101.446 279.536 100.427 279.142 99.4761C278.748 98.5253 278.171 97.6615 277.443 96.9338C276.716 96.2061 275.852 95.6289 274.901 95.2352C273.95 94.8414 272.931 94.6388 271.902 94.639Z" fill="url(#paint11_linear_1_2431)"/>
<path d="M246.223 119.481L248.423 121.034L245.848 121.836C245.693 121.884 245.553 121.969 245.439 122.083C245.324 122.197 245.239 122.337 245.191 122.491L244.391 125.067L242.836 122.871C242.742 122.74 242.618 122.633 242.474 122.559C242.33 122.486 242.171 122.449 242.009 122.45L239.306 122.483L240.924 120.319C241.021 120.189 241.084 120.038 241.109 119.879C241.135 119.719 241.121 119.556 241.069 119.403L240.204 116.847L242.757 117.716C242.911 117.767 243.074 117.781 243.234 117.756C243.394 117.731 243.545 117.667 243.675 117.571L245.835 115.956L245.801 118.654C245.799 118.816 245.837 118.975 245.91 119.119C245.984 119.263 246.091 119.387 246.223 119.481ZM251.224 120.576L247.801 118.155L247.854 113.963C247.855 113.777 247.805 113.595 247.709 113.436C247.612 113.278 247.474 113.149 247.309 113.065C247.143 112.981 246.958 112.944 246.773 112.959C246.588 112.974 246.411 113.04 246.262 113.15L242.898 115.656L238.93 114.311C238.754 114.253 238.565 114.245 238.384 114.288C238.204 114.33 238.039 114.423 237.908 114.554C237.777 114.685 237.685 114.85 237.642 115.031C237.599 115.211 237.608 115.4 237.666 115.576L239.015 119.545L236.508 122.905C236.398 123.055 236.332 123.232 236.317 123.417C236.302 123.602 236.338 123.787 236.423 123.953C236.507 124.118 236.635 124.256 236.794 124.353C236.952 124.449 237.135 124.5 237.32 124.499L241.509 124.445L243.927 127.87C244.035 128.021 244.183 128.139 244.354 128.211C244.525 128.282 244.713 128.305 244.896 128.276C245.079 128.247 245.251 128.167 245.392 128.047C245.532 127.926 245.637 127.768 245.693 127.591L246.938 123.586L250.942 122.341C251.119 122.285 251.277 122.181 251.398 122.04C251.519 121.9 251.598 121.728 251.628 121.545C251.657 121.362 251.634 121.174 251.563 121.003C251.492 120.832 251.374 120.684 251.224 120.576Z" fill="url(#paint12_linear_1_2431)"/>
<path d="M75.5169 95.8845C75.5297 96.0513 75.5753 96.214 75.6511 96.3632C75.7269 96.5124 75.8314 96.6452 75.9587 96.7539C76.0859 96.8626 76.2334 96.9451 76.3926 96.9966C76.5518 97.0482 76.7196 97.0678 76.8864 97.0544C77.148 97.0408 79.4601 97.0188 80.1998 100.451C81.3961 106.014 85.3739 106.408 85.5421 106.423C85.7832 106.444 86.0255 106.397 86.2405 106.285C86.4556 106.174 86.6347 106.004 86.7569 105.795C86.8791 105.586 86.9394 105.347 86.9309 105.105C86.9223 104.863 86.8452 104.628 86.7085 104.429L86.6872 104.398C86.5796 104.249 86.4408 104.125 86.2804 104.034C86.12 103.944 85.9419 103.889 85.7584 103.875C85.7359 103.872 83.4914 103.583 82.7012 99.9115C82.4938 98.859 82.0786 97.8585 81.4799 96.9684L81.4507 96.9267C80.9291 96.1522 80.2187 95.5234 79.3866 95.0998C78.5544 94.6762 77.6281 94.4718 76.6949 94.5057C76.3564 94.5335 76.0425 94.6941 75.8219 94.9524C75.6012 95.2107 75.4916 95.5457 75.5169 95.8845Z" fill="url(#paint13_linear_1_2431)"/>
<path d="M75.1357 138.324L77.6079 143.224L72.1326 142.915L75.1357 138.324ZM75.353 135.535L75.2985 135.527C75.1351 135.518 74.9721 135.552 74.8259 135.626C74.6798 135.7 74.5556 135.811 74.4659 135.947L69.6876 143.239C69.6016 143.371 69.5502 143.522 69.5382 143.679C69.5261 143.835 69.5539 143.992 69.6187 144.135C69.6836 144.279 69.7836 144.403 69.9094 144.497C70.0352 144.591 70.1827 144.652 70.3383 144.674L70.4155 144.685L79.1208 145.176C79.2842 145.185 79.447 145.151 79.593 145.077C79.739 145.003 79.863 144.892 79.9526 144.756C80.0422 144.619 80.0943 144.461 80.1036 144.297C80.1128 144.134 80.079 143.971 80.0055 143.825L76.0786 136.041C76.0128 135.911 75.9173 135.798 75.7999 135.711C75.6825 135.624 75.5464 135.566 75.4025 135.542L75.353 135.535Z" fill="url(#paint14_linear_1_2431)"/>
</g>
<defs>
<linearGradient id="paint0_linear_1_2431" x1="167.913" y1="128.233" x2="167.913" y2="52.7027" gradientUnits="userSpaceOnUse">
<stop stop-color="#FD9A11"/>
<stop offset="1" stop-color="#FAC935"/>
</linearGradient>
<linearGradient id="paint1_linear_1_2431" x1="167.91" y1="52.509" x2="167.91" y2="128.23" gradientUnits="userSpaceOnUse">
<stop stop-color="#FAFAFA"/>
<stop offset="1" stop-color="#C1C1C1"/>
</linearGradient>
<linearGradient id="paint2_linear_1_2431" x1="167.997" y1="58.669" x2="167.997" y2="35.615" gradientUnits="userSpaceOnUse">
<stop stop-color="#FD9A11"/>
<stop offset="1" stop-color="#FAC935"/>
</linearGradient>
<linearGradient id="paint3_linear_1_2431" x1="167.511" y1="7.98618" x2="167.511" y2="36.1" gradientUnits="userSpaceOnUse">
<stop stop-color="#FAFAFA"/>
<stop offset="1" stop-color="#C1C1C1"/>
</linearGradient>
<linearGradient id="paint4_linear_1_2431" x1="167.506" y1="23.132" x2="167.506" y2="36.104" gradientUnits="userSpaceOnUse">
<stop stop-color="#FAFAFA"/>
<stop offset="1" stop-color="#C1C1C1"/>
</linearGradient>
<linearGradient id="paint5_linear_1_2431" x1="168.011" y1="35.615" x2="168.011" y2="58.669" gradientUnits="userSpaceOnUse">
<stop stop-color="#FAFAFA"/>
<stop offset="1" stop-color="#C1C1C1"/>
</linearGradient>
<linearGradient id="paint6_linear_1_2431" x1="168.001" y1="37.006" x2="168.001" y2="35.615" gradientUnits="userSpaceOnUse">
<stop stop-color="#FD9A11"/>
<stop offset="1" stop-color="#FAC935"/>
</linearGradient>
<linearGradient id="paint7_linear_1_2431" x1="168.01" y1="35.604" x2="168.01" y2="37.006" gradientUnits="userSpaceOnUse">
<stop stop-color="#FAFAFA"/>
<stop offset="1" stop-color="#C1C1C1"/>
</linearGradient>
<linearGradient id="paint8_linear_1_2431" x1="287.194" y1="137.599" x2="274.277" y2="149.774" gradientUnits="userSpaceOnUse">
<stop stop-color="#B31217"/>
<stop offset="1" stop-color="#E52D27"/>
</linearGradient>
<linearGradient id="paint9_linear_1_2431" x1="93.9875" y1="118.665" x2="104.903" y2="128.987" gradientUnits="userSpaceOnUse">
<stop stop-color="#D1913C"/>
<stop offset="1" stop-color="#FFD194"/>
</linearGradient>
<linearGradient id="paint10_linear_1_2431" x1="229.954" y1="134.488" x2="229.228" y2="145.512" gradientUnits="userSpaceOnUse">
<stop stop-color="#B31217"/>
<stop offset="1" stop-color="#E52D27"/>
</linearGradient>
<linearGradient id="paint11_linear_1_2431" x1="280.349" y1="98.3371" x2="264.068" y2="109.416" gradientUnits="userSpaceOnUse">
<stop stop-color="#15569E"/>
<stop offset="1" stop-color="#29ABE2"/>
</linearGradient>
<linearGradient id="paint12_linear_1_2431" x1="248.478" y1="114.94" x2="238.584" y2="128.835" gradientUnits="userSpaceOnUse">
<stop stop-color="#D1913C"/>
<stop offset="1" stop-color="#FFD194"/>
</linearGradient>
<linearGradient id="paint13_linear_1_2431" x1="75.614" y1="95.0482" x2="83.8148" y2="92.719" gradientUnits="userSpaceOnUse">
<stop stop-color="#15569E"/>
<stop offset="1" stop-color="#29ABE2"/>
</linearGradient>
<linearGradient id="paint14_linear_1_2431" x1="69.4669" y1="144.551" x2="77.2247" y2="137.305" gradientUnits="userSpaceOnUse">
<stop stop-color="#B31217"/>
<stop offset="1" stop-color="#E52D27"/>
</linearGradient>
<clipPath id="clip0_1_2431">
<rect width="333" height="157" fill="white" transform="translate(0.5)"/>
</clipPath>
</defs>
</svg>
