<svg xmlns="http://www.w3.org/2000/svg" width="496.92" height="496.92" viewBox="0 0 496.92 496.92">
  <g id="remove_ads" transform="translate(-7.54 -7.53)">
    <path id="Path_5461" data-name="Path 5461" d="M504.46,255.99c0,137.221-111.239,248.46-248.46,248.46S7.54,393.211,7.54,255.99,118.779,7.53,256,7.53,504.46,118.769,504.46,255.99ZM114.44,103.19A208.043,208.043,0,0,0,94.87,388.18a.385.385,0,0,0,.28.142.405.405,0,0,0,.3-.112l43.98-44.02a.384.384,0,0,1,.306-.119.406.406,0,0,1,.294.159,148.362,148.362,0,0,0,27.59,27.41.71.71,0,0,1,.07,1.06l-43.91,43.87a.41.41,0,0,0,.03.6c101.01,81.66,251.48,54.36,314.65-60.4,41.33-75.08,32.82-166.43-21.29-232.94a.41.41,0,0,0-.61-.03l-43.73,43.75a.579.579,0,0,1-.99-.06,155.773,155.773,0,0,0-27.48-27.27.606.606,0,0,1-.237-.44.584.584,0,0,1,.177-.46l43.77-43.75a.6.6,0,0,0,.177-.463.625.625,0,0,0-.227-.447C306.67,29.26,191.26,31.8,114.44,103.19Z"/>
    <path id="Path_5462" data-name="Path 5462" d="M373.67,255.98A117.66,117.66,0,1,1,256.01,138.32,117.66,117.66,0,0,1,373.67,255.98Zm-145.1,33.11c1.55,4.61,3.15,10.68,6.73,13.59,9.82,8.01,21.77-2.53,17.65-14.07q-12.3-34.48-24.8-68.89a28.151,28.151,0,0,0-3.81-7.73c-5.44-6.65-16.59-6.84-22.26-.85q-2.49,2.64-4.98,9.46-12.52,34.35-24.77,68.81c-4.24,11.93,10.07,21.28,18.79,12.36,3-3.06,4.27-8.34,5.9-12.62a.93.93,0,0,1,.94-.65h29.79A.8.8,0,0,1,228.57,289.09Zm38.2,3.12c.02,16.1,17.21,13.4,28.32,12.96a65.125,65.125,0,0,0,12.37-1.39c44.87-11.29,44.3-86.98-2.39-96.25-7.11-1.41-16.49-.74-24.44-.76-10.83-.02-13.87,5.16-13.88,15.68Q266.73,257.34,266.77,292.21Z"/>
    <path id="Path_5463" data-name="Path 5463" d="M298,230.08c22.82-.02,24.26,37.13,10.45,48-5.24,4.12-11.37,4.26-18.1,3.83a.571.571,0,0,1-.6-.64V230.32a.475.475,0,0,1,.154-.35.5.5,0,0,1,.366-.13Q294.14,230.08,298,230.08Z"/>
    <path id="Path_5464" data-name="Path 5464" d="M205.64,265.07l6.79-18.95a.33.33,0,0,1,.62,0l6.86,18.92a.33.33,0,0,1-.31.44l-13.65.03a.33.33,0,0,1-.31-.44Z"/>
  </g>
</svg>
