<svg width="498" height="497" viewBox="0 0 498 497" fill="none" xmlns="http://www.w3.org/2000/svg">
<g clip-path="url(#clip0_1_2451)">
<path d="M497.42 248.46C497.42 385.681 386.181 496.92 248.96 496.92C111.739 496.92 0.5 385.681 0.5 248.46C0.5 111.239 111.739 0 248.96 0C386.181 0 497.42 111.239 497.42 248.46ZM107.4 95.66C68.3762 131.689 44.6097 181.278 40.9711 234.265C37.3325 287.253 54.0974 339.625 87.83 380.65C87.8641 380.692 87.9066 380.726 87.9549 380.751C88.0031 380.775 88.056 380.789 88.11 380.792C88.165 380.795 88.22 380.786 88.2715 380.767C88.3231 380.748 88.3702 380.718 88.41 380.68L132.39 336.66C132.429 336.619 132.477 336.587 132.53 336.566C132.583 336.546 132.639 336.537 132.696 336.541C132.753 336.545 132.809 336.561 132.86 336.589C132.911 336.616 132.955 336.654 132.99 336.7C140.944 347.008 150.22 356.224 160.58 364.11C160.659 364.172 160.725 364.249 160.772 364.338C160.819 364.426 160.847 364.524 160.853 364.624C160.86 364.724 160.845 364.825 160.81 364.919C160.775 365.013 160.721 365.099 160.65 365.17L116.74 409.04C116.701 409.08 116.67 409.128 116.65 409.181C116.63 409.234 116.621 409.29 116.624 409.347C116.627 409.403 116.641 409.458 116.667 409.508C116.692 409.559 116.727 409.604 116.77 409.64C217.78 491.3 368.25 464 431.42 349.24C472.75 274.16 464.24 182.81 410.13 116.3C410.094 116.255 410.048 116.219 409.997 116.193C409.946 116.167 409.889 116.152 409.832 116.149C409.774 116.146 409.717 116.155 409.663 116.176C409.609 116.197 409.561 116.229 409.52 116.27L365.79 160.02C365.733 160.102 365.657 160.168 365.567 160.212C365.477 160.256 365.378 160.276 365.278 160.27C365.178 160.264 365.082 160.232 364.998 160.178C364.915 160.123 364.846 160.048 364.8 159.96C356.81 149.763 347.578 140.602 337.32 132.69C337.251 132.638 337.195 132.571 337.154 132.496C337.113 132.42 337.089 132.336 337.083 132.25C337.077 132.165 337.09 132.08 337.121 132C337.151 131.921 337.199 131.849 337.26 131.79L381.03 88.04C381.091 87.9799 381.138 87.9075 381.169 87.8276C381.199 87.7478 381.212 87.6623 381.207 87.577C381.202 87.4909 381.179 87.4067 381.14 87.3297C381.101 87.2528 381.047 87.1848 380.98 87.13C299.63 21.73 184.22 24.27 107.4 95.66Z" fill="black"/>
<path d="M366.63 248.45C366.63 271.721 359.729 294.469 346.801 313.818C333.872 333.168 315.496 348.248 293.997 357.154C272.497 366.059 248.839 368.389 226.016 363.849C203.192 359.309 182.227 348.103 165.772 331.648C149.317 315.193 138.111 294.228 133.571 271.404C129.031 248.581 131.361 224.923 140.266 203.423C149.172 181.924 164.252 163.548 183.602 150.619C202.951 137.691 225.699 130.79 248.97 130.79C280.175 130.79 310.103 143.186 332.168 165.252C354.234 187.317 366.63 217.245 366.63 248.45ZM221.53 281.56C223.08 286.17 224.68 292.24 228.26 295.15C238.08 303.16 250.03 292.62 245.91 281.08C237.71 258.093 229.443 235.13 221.11 212.19C220.244 209.433 218.959 206.826 217.3 204.46C211.86 197.81 200.71 197.62 195.04 203.61C193.38 205.37 191.72 208.523 190.06 213.07C181.713 235.97 173.457 258.907 165.29 281.88C161.05 293.81 175.36 303.16 184.08 294.24C187.08 291.18 188.35 285.9 189.98 281.62C190.042 281.423 190.168 281.251 190.338 281.134C190.509 281.016 190.713 280.958 190.92 280.97H220.71C220.894 280.959 221.076 281.012 221.225 281.119C221.374 281.227 221.482 281.382 221.53 281.56ZM259.73 284.68C259.75 300.78 276.94 298.08 288.05 297.64C292.208 297.573 296.35 297.107 300.42 296.25C345.29 284.96 344.72 209.27 298.03 200C290.92 198.59 281.54 199.26 273.59 199.24C262.76 199.22 259.72 204.4 259.71 214.92C259.697 238.18 259.703 261.433 259.73 284.68Z" fill="black"/>
<path d="M290.96 222.55C313.78 222.53 315.22 259.68 301.41 270.55C296.17 274.67 290.04 274.81 283.31 274.38C283.226 274.385 283.143 274.371 283.065 274.34C282.987 274.309 282.917 274.262 282.86 274.201C282.803 274.139 282.76 274.067 282.734 273.987C282.708 273.907 282.7 273.823 282.71 273.74V222.79C282.71 222.724 282.724 222.659 282.75 222.599C282.777 222.539 282.815 222.485 282.864 222.44C282.913 222.395 282.971 222.36 283.034 222.338C283.097 222.316 283.163 222.306 283.23 222.31C285.81 222.47 288.387 222.55 290.96 222.55Z" fill="black"/>
<path d="M198.6 257.54L205.39 238.59C205.413 238.526 205.455 238.472 205.511 238.433C205.566 238.394 205.632 238.373 205.7 238.373C205.768 238.373 205.834 238.394 205.889 238.433C205.945 238.472 205.987 238.526 206.01 238.59L212.87 257.51C212.888 257.56 212.893 257.613 212.886 257.665C212.879 257.717 212.859 257.767 212.829 257.81C212.798 257.853 212.758 257.888 212.711 257.913C212.665 257.937 212.613 257.95 212.56 257.95L198.91 257.98C198.857 257.98 198.805 257.967 198.759 257.943C198.712 257.918 198.672 257.883 198.641 257.84C198.611 257.797 198.591 257.747 198.584 257.695C198.577 257.643 198.582 257.59 198.6 257.54Z" fill="black"/>
</g>
<defs>
<clipPath id="clip0_1_2451">
<rect width="496.92" height="496.92" fill="white" transform="translate(0.5)"/>
</clipPath>
</defs>
</svg>
