<svg width="151" height="67" viewBox="0 0 151 67" fill="none" xmlns="http://www.w3.org/2000/svg">
<g clip-path="url(#clip0_1_2457)">
<path d="M150.5 1.26099V56.521C150.5 59.1732 149.446 61.7167 147.571 63.5921C145.696 65.4674 143.152 66.521 140.5 66.521H10.5C7.84784 66.521 5.3043 65.4674 3.42893 63.5921C1.55357 61.7167 0.5 59.1732 0.5 56.521L0.5 42.741C26.42 24.741 34.25 21.271 57.46 11.101C93.96 -4.86901 148.28 1.01099 150.5 1.26099Z" fill="white"/>
<path opacity="0.1" d="M150.5 1.26099V56.521C150.5 59.1732 149.446 61.7167 147.571 63.5921C145.696 65.4674 143.152 66.521 140.5 66.521H10.5C7.84784 66.521 5.3043 65.4674 3.42893 63.5921C1.55357 61.7167 0.5 59.1732 0.5 56.521L0.5 42.741C26.42 24.741 34.25 21.271 57.46 11.101C93.96 -4.86901 148.28 1.01099 150.5 1.26099Z" fill="#FF5A00"/>
<g opacity="0.6">
<path d="M92.031 61.923C92.592 62.197 93.879 61.558 95.496 60.203C96.366 59.474 96.923 58.865 96.842 58.734C96.761 58.603 96.61 58.664 94.687 59.567C92 60.827 91.724 61 91.726 61.4C91.7362 61.504 91.7688 61.6045 91.8214 61.6947C91.8741 61.785 91.9455 61.8628 92.031 61.923Z" fill="#FF5A00"/>
<path d="M141.884 24.815C142.144 23.7452 142.114 22.6254 141.797 21.571C141.481 20.5165 140.89 19.5652 140.084 18.815C139.651 18.3508 139.136 17.9699 138.566 17.691C137.77 17.1417 136.868 16.7668 135.917 16.591C135.085 16.4468 134.231 16.4865 133.416 16.7073C132.601 16.9281 131.844 17.3246 131.198 17.869C130.867 18.1577 130.584 18.4973 130.36 18.875C129.958 19.3927 129.713 20.0145 129.653 20.667C129.597 21.374 129.962 22.325 130.296 22.343C130.505 22.352 130.59 22.169 130.57 21.757C130.553 21.1186 130.75 20.4929 131.129 19.979C131.476 19.4166 131.989 18.9759 132.598 18.718C133.229 18.4621 133.906 18.3414 134.586 18.3637C135.266 18.3859 135.934 18.5505 136.547 18.847C137.269 19.1767 137.935 19.6151 138.524 20.147C138.957 20.59 139.293 21.119 139.509 21.6999C139.725 22.2807 139.817 22.9004 139.779 23.519C139.755 24.0222 139.61 24.5122 139.354 24.9464C139.099 25.3806 138.741 25.746 138.313 26.011C137.971 26.2581 137.569 26.4106 137.149 26.4531C136.729 26.4956 136.306 26.4266 135.921 26.253C135.416 26.075 134.974 25.7543 134.648 25.33C134.324 24.7576 134.166 24.1062 134.192 23.449C134.206 23.1838 134.278 22.9248 134.402 22.6902C134.527 22.4556 134.701 22.2511 134.913 22.091C135.162 21.9529 135.448 21.8937 135.731 21.9212C136.015 21.9487 136.284 22.0616 136.502 22.245C136.72 22.439 136.736 22.662 136.566 23.185C136.418 23.642 136.438 23.842 136.647 23.967C136.856 24.092 137.053 24.011 137.333 23.696C137.599 23.4151 137.751 23.0456 137.76 22.659C137.789 22.3306 137.709 22.0018 137.532 21.7235C137.356 21.4451 137.092 21.2327 136.783 21.119C136.376 20.8958 135.919 20.7812 135.455 20.7863C134.991 20.7914 134.536 20.9159 134.134 21.148C133.637 21.5199 133.271 22.0409 133.091 22.635C132.834 23.5717 132.867 24.5641 133.184 25.482C133.536 26.3865 134.173 27.1513 135 27.66C135.54 27.9959 136.154 28.1946 136.788 28.239C137.419 28.3272 138.061 28.2798 138.672 28.1C139.283 27.9201 139.849 27.6119 140.331 27.196C141.012 26.519 141.542 25.7046 141.884 24.807" fill="#FF5A00"/>
<path d="M103.9 3.25001C103.784 3.34509 103.698 3.47303 103.656 3.61716C103.613 3.76128 103.615 3.91491 103.661 4.05801C103.703 4.20774 103.796 4.33818 103.924 4.42701C104.051 4.51584 104.206 4.55755 104.361 4.54501C104.55 4.54501 104.731 4.47 104.864 4.33647C104.998 4.20295 105.073 4.02185 105.073 3.83301C105.073 3.64418 104.998 3.46308 104.864 3.32955C104.731 3.19603 104.55 3.12101 104.361 3.12101C104.199 3.1118 104.038 3.15722 103.905 3.25001" fill="#FF5A00"/>
<path d="M143.141 3.39299C141.756 4.50929 140.579 5.86097 139.663 7.38599C139.036 8.32272 138.562 9.35281 138.257 10.438C138.348 10.584 138.503 10.438 139.305 9.44399C140.394 8.1051 141.563 6.83312 142.805 5.63499L144.249 4.17399V3.88399C144.249 3.33599 143.719 3.09999 143.149 3.39199" fill="#FF5A00"/>
<path d="M16.3409 23.732C16.1946 23.8298 16.0815 23.9698 16.0167 24.1334C15.9518 24.2971 15.9383 24.4765 15.9779 24.648C16.0251 25.0495 16.1618 25.4354 16.3779 25.777C17.5289 28.051 19.9679 30.161 21.6469 30.336C22.2029 30.395 22.1699 30.264 21.4469 29.506C20.6681 28.6809 19.9786 27.7759 19.3899 26.806C18.6619 25.66 17.7269 24.28 17.5029 24.026C17.3817 23.8425 17.1968 23.7103 16.984 23.655C16.7711 23.5996 16.5453 23.6249 16.3499 23.726" fill="#FF5A00"/>
<path d="M122.141 10.365C121.574 10.517 121.341 10.986 121.685 11.302C121.823 11.431 121.944 11.459 122.573 11.502C124.415 11.5442 126.238 11.8818 127.973 12.502C128.608 12.729 128.824 12.728 128.635 12.495C128.083 12.0053 127.466 11.5935 126.802 11.271C125.379 10.4958 123.751 10.1813 122.142 10.371" fill="#FF5A00"/>
<path d="M14.84 31.365C14.273 31.517 14.04 31.986 14.384 32.302C14.522 32.431 14.643 32.459 15.272 32.502C17.1139 32.5442 18.9371 32.8818 20.672 33.502C21.307 33.729 21.523 33.728 21.334 33.495C20.7814 33.0052 20.1643 32.5934 19.5 32.271C18.0773 31.4958 16.449 31.1813 14.84 31.371" fill="#FF5A00"/>
<path d="M56.771 43.965C56.6045 44.0415 56.4561 44.1523 56.3355 44.2902C56.2148 44.428 56.1247 44.5898 56.071 44.765C56.0208 45.0413 56.0825 45.3263 56.2425 45.5571C56.4025 45.788 56.6476 45.9459 56.924 45.996C57.2003 46.0461 57.4853 45.9844 57.7161 45.8244C57.947 45.6645 58.1048 45.4193 58.155 45.143C58.1688 45.0651 58.1741 44.986 58.171 44.907C58.1194 44.5889 57.9516 44.3013 57.7 44.1C57.421 43.9374 57.09 43.8887 56.776 43.964" fill="#FF5A00"/>
<path d="M142.847 29.273C142.764 29.407 142.981 29.511 144.115 29.884C145.552 30.354 146.941 30.9601 148.263 31.694C148.77 32.0127 149.317 32.2623 149.89 32.436C149.998 32.435 150.104 32.4061 150.197 32.352C150.29 32.298 150.368 32.2207 150.423 32.1277C150.478 32.0347 150.507 31.9291 150.509 31.8212C150.511 31.7133 150.485 31.6068 150.433 31.512C150.093 30.699 147.504 29.597 145.242 29.3C144.447 29.1791 143.639 29.17 142.842 29.273" fill="#FF5A00"/>
<path d="M144.916 44.83C144.834 44.8988 144.78 44.9948 144.764 45.1003C144.748 45.2058 144.77 45.3137 144.827 45.404C144.877 45.4909 144.948 45.5638 145.033 45.6162C145.119 45.6686 145.216 45.6988 145.316 45.704C145.478 45.704 145.797 45.34 145.797 45.156C145.78 45.0276 145.719 44.9089 145.625 44.8202C145.53 44.7314 145.408 44.678 145.279 44.669C145.211 44.6704 145.144 44.6852 145.081 44.7127C145.019 44.7402 144.962 44.7797 144.915 44.829" fill="#FF5A00"/>
<path d="M143.977 48.97C142.602 49.4632 141.343 50.233 140.277 51.232C139.143 52.324 138.77 52.82 139.014 52.916C139.409 52.7958 139.793 52.6402 140.16 52.451C140.748 52.177 142.034 51.626 143.026 51.221C144.018 50.816 144.914 50.436 145.026 50.374C145.163 50.3089 145.278 50.2062 145.359 50.0781C145.44 49.9499 145.482 49.8015 145.482 49.65C145.455 48.988 144.89 48.733 143.982 48.971" fill="#FF5A00"/>
<path d="M136.727 57.134C136.602 57.259 136.746 57.421 137.306 57.788C138.227 58.4176 139.041 59.1915 139.716 60.08C140.716 61.239 140.916 61.396 141.337 61.329C141.546 61.2852 141.729 61.1603 141.846 60.9817C141.964 60.803 142.005 60.5852 141.962 60.376C141.534 59.4548 140.853 58.674 139.999 58.124C139.42 57.7339 138.777 57.4492 138.099 57.283C137.652 57.1596 137.187 57.1093 136.724 57.134" fill="#FF5A00"/>
<path d="M132.174 38.575C131.853 38.9261 131.608 39.3406 131.457 39.7919C131.306 40.2432 131.25 40.7211 131.295 41.195C131.365 41.7482 131.582 42.2725 131.923 42.7137C132.264 43.1549 132.717 43.4969 133.234 43.7043C133.752 43.9118 134.316 43.9771 134.867 43.8935C135.418 43.8099 135.937 43.5805 136.37 43.229C136.955 42.694 137.139 41.908 136.691 41.858C136.584 41.846 136.522 41.915 136.305 42.28C136.178 42.532 135.991 42.7485 135.759 42.91C135.528 43.0715 135.26 43.1729 134.98 43.205C134.403 43.252 133.824 43.1289 133.316 42.851C132.896 42.5844 132.572 42.1912 132.391 41.7282C132.21 41.2653 132.181 40.7566 132.308 40.276C132.417 39.8428 132.65 39.4507 132.979 39.1478C133.307 38.8448 133.716 38.644 134.157 38.57C134.404 38.5479 134.653 38.592 134.878 38.6978C135.103 38.8037 135.295 38.9674 135.436 39.1722C135.576 39.377 135.66 39.6155 135.678 39.8632C135.696 40.111 135.648 40.3591 135.538 40.582C135.505 40.7059 135.447 40.8217 135.367 40.9223C135.287 41.0229 135.188 41.1062 135.075 41.167C134.948 41.2786 134.783 41.3387 134.614 41.3356C134.444 41.3324 134.282 41.2663 134.159 41.15C133.816 40.934 133.746 40.734 133.921 40.47C134.085 40.226 134.209 40.2 134.596 40.337C135.115 40.518 135.182 40.215 134.705 39.844C134.568 39.6939 134.381 39.5981 134.179 39.5741C133.977 39.55 133.774 39.5993 133.605 39.713C133.466 39.7936 133.349 39.9058 133.262 40.0405C133.175 40.1752 133.121 40.3285 133.105 40.488C133.067 40.6239 133.061 40.7667 133.087 40.9054C133.113 41.044 133.171 41.1749 133.255 41.288C133.518 41.6265 133.9 41.8529 134.323 41.922C134.53 41.9183 134.735 41.8847 134.932 41.822C135.37 41.677 135.735 41.3686 135.952 40.961C136.092 40.6047 136.155 40.2224 136.135 39.84C136.055 39.3787 135.875 38.9405 135.608 38.556C135.271 38.1975 134.828 37.9578 134.343 37.8725C133.859 37.7872 133.36 37.8611 132.921 38.083C132.635 38.1812 132.378 38.3509 132.176 38.576" fill="#FF5A00"/>
<path d="M44.5229 31.966C44.0615 32.0818 43.6295 32.2928 43.2545 32.5856C42.8796 32.8784 42.5701 33.2464 42.3459 33.666C42.0994 34.1663 41.9911 34.7234 42.0324 35.2796C42.0736 35.8358 42.2629 36.3709 42.5806 36.8293C42.8982 37.2877 43.3327 37.6529 43.839 37.8868C44.3453 38.1208 44.9049 38.2151 45.4599 38.16C46.2429 38.036 46.8299 37.482 46.4829 37.193C46.3999 37.124 46.3099 37.147 45.9279 37.333C45.6833 37.4732 45.4075 37.5504 45.1256 37.5576C44.8437 37.5647 44.5644 37.5016 44.3129 37.374C43.8049 37.0959 43.3898 36.6749 43.1189 36.163C42.9165 35.7098 42.8633 35.204 42.9672 34.7186C43.0711 34.2333 43.3267 33.7936 43.6969 33.463C44.0042 33.1539 44.405 32.9549 44.8369 32.897C45.2898 32.789 45.7664 32.8461 46.1809 33.058C46.3995 33.1759 46.5828 33.3499 46.712 33.5621C46.8412 33.7743 46.9115 34.017 46.9159 34.2654C46.9203 34.5138 46.8585 34.7588 46.7369 34.9754C46.6153 35.1921 46.4383 35.3724 46.2239 35.498C46.1278 35.583 46.0154 35.6475 45.8935 35.6876C45.7716 35.7277 45.6427 35.7424 45.5149 35.731C45.0899 35.725 44.9479 35.631 44.7599 35.212C44.5929 34.842 44.6439 34.637 44.9359 34.512C45.2069 34.398 45.3249 34.446 45.5729 34.772C45.9059 35.21 46.1289 34.994 45.9349 34.421C45.7659 33.921 45.5109 33.706 45.0889 33.706C44.9287 33.6962 44.7684 33.7247 44.6213 33.789C44.4742 33.8533 44.3445 33.9517 44.2429 34.076C44.1379 34.1686 44.0552 34.2839 44.0012 34.4131C43.9472 34.5423 43.9231 34.6821 43.9309 34.822C43.9643 35.2493 44.1579 35.6483 44.4729 35.939C44.6461 36.0519 44.8352 36.1382 45.0339 36.195C45.4793 36.3146 45.9536 36.2588 46.3589 36.039C46.6722 35.8188 46.935 35.5345 47.1299 35.205C47.3172 34.7759 47.4086 34.3111 47.3979 33.843C47.3149 33.3582 47.077 32.9133 46.7199 32.5751C46.3627 32.2369 45.9056 32.0235 45.4169 31.967C45.1239 31.89 44.816 31.889 44.5229 31.966Z" fill="#FF5A00"/>
<path d="M14.235 57.073C13.7736 57.1888 13.3415 57.3999 12.9666 57.6927C12.5916 57.9854 12.2821 58.3534 12.058 58.773C11.8114 59.2733 11.7032 59.8304 11.7444 60.3866C11.7857 60.9428 11.9749 61.4779 12.2926 61.9363C12.6102 62.3948 13.0447 62.7599 13.551 62.9939C14.0573 63.2278 14.617 63.3222 15.172 63.267C15.955 63.143 16.542 62.589 16.195 62.3C16.112 62.231 16.022 62.254 15.64 62.44C15.3953 62.5803 15.1196 62.6575 14.8376 62.6646C14.5557 62.6718 14.2764 62.6087 14.025 62.481C13.517 62.203 13.1018 61.7819 12.831 61.27C12.6285 60.8168 12.5754 60.311 12.6793 59.8257C12.7832 59.3403 13.0387 58.9006 13.409 58.57C13.7166 58.2616 14.1172 58.063 14.549 58.005C15.0017 57.8966 15.4783 57.9534 15.893 58.165C16.1116 58.283 16.2949 58.457 16.424 58.6692C16.5532 58.8813 16.6236 59.1241 16.628 59.3724C16.6323 59.6208 16.5706 59.8659 16.4489 60.0825C16.3273 60.2991 16.1503 60.4794 15.936 60.605C15.8398 60.69 15.7273 60.7545 15.6055 60.7948C15.4836 60.835 15.3548 60.85 15.227 60.839C14.802 60.832 14.66 60.739 14.472 60.319C14.305 59.949 14.356 59.744 14.648 59.619C14.919 59.505 15.037 59.553 15.285 59.879C15.618 60.317 15.841 60.102 15.647 59.528C15.478 59.028 15.223 58.813 14.801 58.813C14.6407 58.8032 14.4804 58.8317 14.3334 58.896C14.1863 58.9604 14.0566 59.0587 13.955 59.183C13.85 59.2757 13.7674 59.391 13.7133 59.5202C13.6593 59.6494 13.6352 59.7892 13.643 59.929C13.6763 60.3564 13.8699 60.7553 14.185 61.046C14.3581 61.1589 14.5472 61.2452 14.746 61.302C15.1913 61.4217 15.6656 61.3658 16.071 61.146C16.3843 60.9263 16.6471 60.6423 16.842 60.313C17.029 59.8838 17.1205 59.4191 17.11 58.951C17.027 58.4662 16.789 58.0213 16.4319 57.6831C16.0747 57.3449 15.6176 57.1315 15.129 57.075C14.8359 56.998 14.528 56.998 14.235 57.075" fill="#FF5A00"/>
<path d="M65.9769 52.731C63.8779 53.101 61.9386 54.0937 60.4109 55.58C59.7329 56.25 59.5639 56.571 59.6219 57.08C59.634 57.2098 59.679 57.3343 59.7528 57.4417C59.8266 57.549 59.9267 57.6357 60.0435 57.6935C60.1603 57.7513 60.2899 57.7781 60.4201 57.7716C60.5502 57.765 60.6765 57.7252 60.7869 57.656C61.0656 57.4917 61.3296 57.3037 61.5759 57.094C62.6239 56.238 64.7959 54.583 65.5759 54.043C66.8889 53.137 67.1419 52.934 67.1419 52.795C67.1419 52.684 67.0959 52.663 66.8179 52.656C66.5361 52.6595 66.2549 52.6845 65.9769 52.731Z" fill="#FF5A00"/>
<path d="M116.24 63.363C116.132 63.3964 116.035 63.4585 115.96 63.5428C115.885 63.627 115.834 63.7301 115.813 63.841C115.796 63.9107 115.792 63.9832 115.803 64.0542C115.814 64.1253 115.838 64.1935 115.876 64.255C115.913 64.3165 115.962 64.3701 116.02 64.4126C116.077 64.4552 116.143 64.4859 116.213 64.503C116.259 64.5143 116.306 64.5197 116.353 64.519C116.491 64.5269 116.628 64.4868 116.74 64.4056C116.852 64.3243 116.932 64.2068 116.967 64.073C117.003 63.9393 116.991 63.7974 116.933 63.6714C116.876 63.5455 116.777 63.4432 116.653 63.382C116.577 63.348 116.499 63.3189 116.419 63.295C116.409 63.295 116.327 63.329 116.24 63.363Z" fill="#FF5A00"/>
<path d="M77.209 55.61C77.2421 55.9755 77.3049 56.3377 77.397 56.693C77.521 57.253 77.668 57.993 77.724 58.33C77.8681 59.3007 78.0721 60.2615 78.335 61.207C78.3872 61.3679 78.4851 61.5103 78.6166 61.6168C78.7481 61.7233 78.9077 61.7893 79.076 61.807C79.2476 61.8303 79.4221 61.7979 79.5739 61.7146C79.7256 61.6312 79.8466 61.5013 79.919 61.344C80.292 60.557 79.709 58.583 78.629 56.974C77.913 55.908 77.355 55.374 77.209 55.613" fill="#FF5A00"/>
<path d="M64.0219 32.292C63.1192 32.5134 62.3094 33.0143 61.7083 33.7233C61.1073 34.4324 60.7456 35.3132 60.6749 36.24C60.6331 36.797 60.7313 37.3556 60.9606 37.865C61.19 38.3743 61.5431 38.8181 61.9879 39.156C62.2469 39.316 62.5879 39.301 62.6879 39.125C62.7459 39.025 62.7269 38.985 62.5669 38.868C62.1741 38.6138 61.852 38.2645 61.6304 37.8524C61.4089 37.4403 61.2952 36.9788 61.2999 36.511C61.384 35.5786 61.8348 34.7177 62.5534 34.1176C63.272 33.5176 64.1995 33.2274 65.1319 33.311C65.2439 33.321 65.3559 33.336 65.4669 33.357C65.8822 33.4409 66.266 33.6382 66.5759 33.927C66.9031 34.2037 67.107 34.5988 67.143 35.0258C67.179 35.4527 67.0441 35.8765 66.7679 36.204L66.7279 36.249C66.43 36.5896 66.0315 36.8267 65.5899 36.926C65.3008 36.9637 65.0074 36.9019 64.7579 36.751C64.5084 36.6 64.3177 36.3687 64.2169 36.095C64.1829 35.9708 64.1767 35.8407 64.1986 35.7138C64.2206 35.587 64.2702 35.4665 64.3439 35.361C64.4649 35.215 64.7829 35.249 64.9979 35.43C65.3159 35.699 65.6979 35.63 65.6979 35.301C65.6979 34.972 65.0979 34.538 64.6189 34.545C63.9509 34.555 63.4969 35.11 63.4969 35.918C63.4999 36.1842 63.5554 36.4471 63.6603 36.6918C63.7651 36.9365 63.9172 37.1581 64.1078 37.3439C64.2984 37.5297 64.5239 37.6761 64.7712 37.7746C65.0185 37.8731 65.2828 37.9218 65.5489 37.918C65.5779 37.9195 65.607 37.9195 65.6359 37.918C66.1834 37.9559 66.729 37.8221 67.1968 37.5353C67.6646 37.2485 68.0313 36.823 68.2459 36.318C68.425 35.9809 68.4949 35.5965 68.4459 35.218C68.4931 34.8336 68.4208 34.4439 68.2389 34.102C67.9649 33.563 67.559 33.102 67.0589 32.762C66.14 32.2251 65.0499 32.0618 64.0139 32.306" fill="#FF5A00"/>
<path d="M49.818 51.9C47.8907 52.81 45.7342 53.119 43.629 52.787C42.689 52.631 42.365 52.466 42.119 52.017C42.0542 51.904 42.0194 51.7764 42.0178 51.6462C42.0161 51.516 42.0478 51.3876 42.1096 51.273C42.1715 51.1585 42.2616 51.0616 42.3714 50.9916C42.4812 50.9216 42.607 50.8808 42.737 50.873C43.0594 50.845 43.3836 50.845 43.706 50.873C45.055 50.966 47.785 51.065 48.733 51.055C50.333 51.038 50.652 51.055 50.733 51.171C50.797 51.262 50.771 51.304 50.549 51.471C50.3168 51.631 50.0728 51.7731 49.819 51.896" fill="#FF5A00"/>
<path d="M71.8 54.834C71.527 54.8267 71.2581 54.9014 71.028 55.0486C70.798 55.1957 70.6173 55.4084 70.5094 55.6593C70.4016 55.9102 70.3714 56.1876 70.4229 56.4558C70.4744 56.724 70.6051 56.9706 70.7982 57.1637C70.9913 57.3568 71.2379 57.4875 71.5061 57.539C71.7743 57.5905 72.0517 57.5604 72.3026 57.4525C72.5535 57.3446 72.7662 57.164 72.9134 56.9339C73.0605 56.7039 73.1353 56.435 73.1279 56.162C73.1186 55.8127 72.9757 55.4803 72.7286 55.2333C72.4816 54.9862 72.1492 54.8433 71.8 54.834Z" fill="#FF5A00"/>
<path d="M54.0149 28.438C53.7419 28.4307 53.473 28.5054 53.243 28.6526C53.0129 28.7997 52.8323 29.0124 52.7244 29.2633C52.6165 29.5142 52.5864 29.7917 52.6379 30.0598C52.6894 30.328 52.8201 30.5746 53.0132 30.7677C53.2063 30.9608 53.4529 31.0915 53.7211 31.143C53.9893 31.1945 54.2667 31.1644 54.5176 31.0565C54.7685 30.9486 54.9812 30.768 55.1283 30.5379C55.2755 30.3079 55.3502 30.039 55.3429 29.766C55.3336 29.4167 55.1907 29.0844 54.9436 28.8373C54.6966 28.5902 54.3642 28.4473 54.0149 28.438Z" fill="#FF5A00"/>
<path d="M63.1189 10.411C62.846 10.4037 62.5771 10.4784 62.3471 10.6255C62.1171 10.7726 61.9364 10.9853 61.8285 11.2361C61.7206 11.4869 61.6904 11.7643 61.7418 12.0325C61.7932 12.3006 61.9238 12.5472 62.1168 12.7404C62.3098 12.9335 62.5563 13.0643 62.8244 13.1159C63.0926 13.1675 63.37 13.1375 63.6209 13.0298C63.8718 12.9221 64.0846 12.7416 64.2319 12.5117C64.3791 12.2818 64.454 12.013 64.4469 11.74C64.4378 11.3906 64.295 11.0579 64.048 10.8107C63.8009 10.5634 63.4684 10.4204 63.1189 10.411Z" fill="#FF5A00"/>
<path d="M35.753 20.967C35.4802 20.9597 35.2115 21.0343 34.9815 21.1812C34.7515 21.3281 34.5709 21.5405 34.4629 21.7911C34.3548 22.0417 34.3244 22.3189 34.3754 22.5869C34.4265 22.855 34.5567 23.1016 34.7493 23.2949C34.9419 23.4882 35.188 23.6193 35.4559 23.6714C35.7237 23.7235 36.001 23.6941 36.252 23.587C36.503 23.4799 36.7161 23.3 36.8639 23.0706C37.0116 22.8412 37.0873 22.5728 37.081 22.3C37.0729 21.9499 36.9305 21.6162 36.6833 21.3681C36.4362 21.12 36.1031 20.9764 35.753 20.967Z" fill="#FF5A00"/>
<path d="M70.4839 63.974C70.3757 63.9734 70.2697 64.005 70.1795 64.0648C70.0892 64.1245 70.0188 64.2098 69.9771 64.3097C69.9354 64.4096 69.9243 64.5196 69.9453 64.6258C69.9663 64.732 70.0183 64.8295 70.0949 64.9061C70.1714 64.9826 70.269 65.0347 70.3752 65.0557C70.4813 65.0766 70.5914 65.0656 70.6913 65.0239C70.7912 64.9822 70.8764 64.9117 70.9362 64.8215C70.9959 64.7312 71.0275 64.6252 71.0269 64.517C71.0261 64.3732 70.9687 64.2356 70.867 64.1339C70.7654 64.0323 70.6277 63.9748 70.4839 63.974Z" fill="#FF5A00"/>
<path d="M83.4789 55.61C83.3707 55.6094 83.2647 55.641 83.1745 55.7008C83.0842 55.7605 83.0138 55.8458 82.9721 55.9457C82.9304 56.0456 82.9193 56.1556 82.9403 56.2618C82.9612 56.368 83.0133 56.4655 83.0899 56.5421C83.1664 56.6186 83.264 56.6707 83.3701 56.6916C83.4763 56.7126 83.5864 56.7015 83.6863 56.6598C83.7861 56.6182 83.8714 56.5477 83.9312 56.4575C83.9909 56.3672 84.0225 56.2612 84.0219 56.153C84.0211 56.0092 83.9637 55.8716 83.862 55.7699C83.7604 55.6682 83.6227 55.6108 83.4789 55.61Z" fill="#FF5A00"/>
<path d="M99.873 60.486C99.7647 60.4854 99.6588 60.517 99.5685 60.5768C99.4783 60.6365 99.4078 60.7218 99.3661 60.8217C99.3244 60.9216 99.3133 61.0316 99.3343 61.1378C99.3553 61.244 99.4074 61.3415 99.4839 61.4181C99.5604 61.4946 99.658 61.5467 99.7642 61.5676C99.8704 61.5886 99.9804 61.5776 100.08 61.5359C100.18 61.4942 100.265 61.4237 100.325 61.3335C100.385 61.2432 100.417 61.1372 100.416 61.029C100.415 60.8852 100.358 60.7476 100.256 60.6459C100.154 60.5443 100.017 60.4868 99.873 60.486Z" fill="#FF5A00"/>
<path d="M39.3049 46.483C39.1677 46.4777 39.0321 46.5138 38.9157 46.5868C38.7993 46.6597 38.7076 46.7661 38.6526 46.8919C38.5976 47.0178 38.5818 47.1573 38.6073 47.2922C38.6328 47.4272 38.6984 47.5513 38.7955 47.6484C38.8926 47.7456 39.0168 47.8111 39.1517 47.8366C39.2867 47.8621 39.4262 47.8463 39.552 47.7913C39.6779 47.7363 39.7842 47.6446 39.8572 47.5283C39.9301 47.4119 39.9663 47.2762 39.9609 47.139C39.9543 46.9671 39.883 46.8041 39.7614 46.6825C39.6398 46.5609 39.4768 46.4897 39.3049 46.483Z" fill="#FF5A00"/>
<path d="M54.0919 8.75698C53.9547 8.75166 53.819 8.78783 53.7027 8.86078C53.5863 8.93373 53.4946 9.04006 53.4396 9.16591C53.3846 9.29175 53.3688 9.43126 53.3943 9.56621C53.4198 9.70117 53.4854 9.82531 53.5825 9.92242C53.6796 10.0195 53.8037 10.0851 53.9387 10.1106C54.0737 10.1361 54.2132 10.1203 54.339 10.0653C54.4648 10.0103 54.5712 9.91861 54.6441 9.80225C54.7171 9.68588 54.7533 9.55022 54.7479 9.41298C54.7413 9.24113 54.67 9.07812 54.5484 8.95652C54.4268 8.83491 54.2638 8.76365 54.0919 8.75698Z" fill="#FF5A00"/>
<path d="M87.3179 3.077C87.1805 3.07147 87.0445 3.10753 86.9279 3.18046C86.8112 3.25339 86.7192 3.3598 86.664 3.48581C86.6088 3.61181 86.5928 3.75154 86.6182 3.88676C86.6436 4.02197 86.7092 4.14638 86.8064 4.24374C86.9036 4.3411 87.0279 4.40688 87.1631 4.43249C87.2983 4.4581 87.438 4.44235 87.5641 4.38731C87.6902 4.33226 87.7968 4.24046 87.8699 4.12391C87.943 4.00736 87.9793 3.87148 87.9739 3.734C87.9673 3.56205 87.8961 3.39892 87.7745 3.27715C87.6529 3.15538 87.4899 3.08391 87.3179 3.077Z" fill="#FF5A00"/>
<path d="M67.676 16.3C67.4288 16.2899 67.1844 16.3547 66.9747 16.4858C66.7649 16.6168 66.5996 16.8081 66.5003 17.0347C66.401 17.2612 66.3724 17.5124 66.4182 17.7555C66.464 17.9985 66.582 18.2221 66.7569 18.397C66.9318 18.5719 67.1554 18.69 67.3985 18.7357C67.6415 18.7815 67.8928 18.7529 68.1193 18.6536C68.3458 18.5544 68.5371 18.389 68.6682 18.1793C68.7993 17.9695 68.864 17.7251 68.854 17.478C68.8414 17.1696 68.7133 16.8772 68.495 16.6589C68.2767 16.4407 67.9844 16.3126 67.676 16.3Z" fill="#FF5A00"/>
<path d="M31.1269 40.185C30.8794 40.1737 30.6343 40.2374 30.4236 40.3679C30.2129 40.4983 30.0465 40.6893 29.9462 40.9158C29.8459 41.1424 29.8164 41.394 29.8615 41.6376C29.9066 41.8812 30.0242 42.1056 30.199 42.2812C30.3737 42.4569 30.5975 42.5757 30.8409 42.622C31.0843 42.6684 31.336 42.6401 31.5631 42.541C31.7902 42.4418 31.982 42.2764 32.1135 42.0664C32.245 41.8564 32.31 41.6116 32.2999 41.364C32.2874 41.0555 32.1593 40.763 31.9411 40.5446C31.7228 40.3261 31.4304 40.1978 31.1219 40.185" fill="#FF5A00"/>
<path d="M142.22 38.587C141.973 38.577 141.728 38.6417 141.519 38.7728C141.309 38.9038 141.144 39.0951 141.044 39.3217C140.945 39.5482 140.916 39.7994 140.962 40.0425C141.008 40.2855 141.126 40.5091 141.301 40.684C141.476 40.8589 141.699 40.977 141.942 41.0228C142.185 41.0685 142.437 41.0399 142.663 40.9406C142.89 40.8414 143.081 40.676 143.212 40.4663C143.343 40.2566 143.408 40.0121 143.398 39.765C143.385 39.4566 143.257 39.1642 143.039 38.946C142.821 38.7277 142.528 38.5996 142.22 38.587Z" fill="#FF5A00"/>
<path d="M36.168 60.115C35.9209 60.1049 35.6765 60.1697 35.4667 60.3008C35.257 60.4318 35.0917 60.6231 34.9924 60.8497C34.8931 61.0762 34.8645 61.3274 34.9103 61.5705C34.9561 61.8135 35.0741 62.0371 35.249 62.212C35.4239 62.3869 35.6475 62.505 35.8905 62.5507C36.1336 62.5965 36.3848 62.5679 36.6114 62.4686C36.8379 62.3694 37.0292 62.204 37.1603 61.9943C37.2913 61.7845 37.3561 61.5401 37.346 61.293C37.3335 60.9846 37.2053 60.6922 36.9871 60.4739C36.7688 60.2557 36.4764 60.1276 36.168 60.115Z" fill="#FF5A00"/>
<path d="M55.0219 5.36399C54.9135 5.3634 54.8074 5.39502 54.717 5.45486C54.6266 5.51469 54.556 5.60003 54.5142 5.70004C54.4724 5.80005 54.4613 5.91023 54.4822 6.01659C54.5031 6.12295 54.5552 6.2207 54.6318 6.29742C54.7084 6.37414 54.806 6.42637 54.9123 6.4475C55.0186 6.46862 55.1288 6.45768 55.2289 6.41606C55.329 6.37444 55.4145 6.30402 55.4745 6.21374C55.5345 6.12346 55.5663 6.01739 55.5659 5.90899C55.5654 5.76478 55.5079 5.62662 55.4061 5.52455C55.3042 5.42249 55.1661 5.36478 55.0219 5.36399Z" fill="#FF5A00"/>
<path d="M134.113 12.83C133.976 12.8247 133.84 12.8609 133.724 12.9338C133.607 13.0068 133.516 13.1131 133.461 13.2389C133.406 13.3648 133.39 13.5043 133.415 13.6392C133.441 13.7742 133.506 13.8983 133.603 13.9955C133.701 14.0926 133.825 14.1581 133.96 14.1836C134.095 14.2091 134.234 14.1933 134.36 14.1383C134.486 14.0833 134.592 13.9916 134.665 13.8753C134.738 13.7589 134.774 13.6233 134.769 13.486C134.762 13.3142 134.691 13.1512 134.569 13.0295C134.448 12.9079 134.285 12.8367 134.113 12.83Z" fill="#FF5A00"/>
<path d="M131.735 52.893C131.929 53.6573 132.06 54.4362 132.126 55.222C132.049 56.469 130.695 55.035 130.182 54.84C129.573 54.608 128.682 54.44 128.361 55.102C128.178 55.8444 128.205 56.6229 128.438 57.351C128.515 57.86 128.825 59.09 128.238 59.429C127.632 59.782 126.638 58.79 126.095 59.468C125.768 60.2419 125.757 61.113 126.064 61.895C126.233 62.395 126.802 63.632 127.53 63.31C127.682 63.2178 127.804 63.0842 127.883 62.925C127.932 62.8464 127.963 62.7579 127.974 62.666C128.054 62.048 126.995 61.032 127.685 60.546C128.375 60.06 129.215 61.121 129.961 61.061C130.788 60.995 130.885 59.885 130.661 59.222C130.515 58.781 129.594 57.812 129.828 57.269C130.139 56.548 131.428 57.412 131.847 57.518C132.5 57.684 133.492 57.778 133.688 56.948C133.884 56.118 133.381 55.307 133.317 54.486C133.293 54.181 133.279 53.837 133.562 53.647C133.895 53.423 134.239 53.765 134.562 53.903C134.908 54.051 135.288 54.229 135.553 53.858C135.645 53.728 135.692 53.5717 135.687 53.4126C135.683 53.2536 135.626 53.1003 135.527 52.976C134.841 52.049 131.512 50.829 131.727 52.89" fill="#FF5A00"/>
<path d="M54.8299 20.535C54.1927 20.6641 53.5458 20.74 52.8959 20.762C51.8729 20.646 53.1089 19.592 53.2959 19.177C53.5119 18.685 53.6869 17.955 53.1549 17.667C52.5512 17.486 51.9091 17.476 51.2999 17.638C50.8779 17.68 49.8519 17.885 49.5999 17.391C49.3339 16.878 50.1919 16.097 49.6559 15.625C49.0314 15.3229 48.3132 15.2781 47.6559 15.5C47.2339 15.618 46.1959 16.035 46.4309 16.649C46.5004 16.777 46.6044 16.883 46.7309 16.955C46.7936 16.9988 46.8654 17.0279 46.9409 17.04C47.4459 17.131 48.3269 16.301 48.6979 16.889C49.0689 17.477 48.1619 18.125 48.1799 18.742C48.2009 19.426 49.1099 19.551 49.6649 19.398C50.0339 19.298 50.8699 18.578 51.3069 18.792C51.8879 19.079 51.1229 20.106 51.0189 20.444C50.8559 20.976 50.7369 21.788 51.4129 21.984C52.0889 22.18 52.7769 21.799 53.4549 21.784C53.7069 21.777 53.9909 21.784 54.1359 22.021C54.3059 22.304 54.0109 22.573 53.8839 22.833C53.7479 23.111 53.5839 23.417 53.8839 23.651C53.9869 23.7326 54.1137 23.7781 54.2451 23.7807C54.3764 23.7832 54.5049 23.7426 54.6109 23.665C55.4019 23.138 56.5439 20.448 54.8379 20.539" fill="#FF5A00"/>
<path d="M116.727 43.138L116.589 43.038C116.62 43.0366 116.65 43.0458 116.675 43.0639C116.7 43.0821 116.719 43.1082 116.727 43.138Z" fill="#FF5A00"/>
<path d="M85.278 10.311C85.187 9.79155 85.285 9.2567 85.554 8.80314C85.8231 8.34959 86.2455 8.00725 86.745 7.83801C87.3233 7.69483 87.9325 7.74431 88.4801 7.97895C89.0277 8.21358 89.4837 8.62054 89.779 9.13801C90.0706 8.62647 90.5227 8.22523 91.0652 7.9963C91.6077 7.76737 92.2105 7.72349 92.7805 7.87144C93.3504 8.0194 93.8558 8.35094 94.2185 8.81485C94.5811 9.27875 94.7809 9.84919 94.787 10.438C95.4518 9.76171 96.3294 9.33511 97.272 9.23001C97.742 9.18739 98.2139 9.28896 98.6248 9.5212C99.0356 9.75344 99.366 10.1053 99.572 10.53C99.7058 10.9463 99.7288 11.3903 99.6387 11.8182C99.5485 12.2461 99.3484 12.6431 99.058 12.97C98.4708 13.6161 97.7741 14.1533 97 14.557L102.617 14.548C103.01 14.4209 103.431 14.4065 103.832 14.5064C104.233 14.6063 104.598 14.8164 104.885 15.1131C105.173 15.4098 105.372 15.781 105.459 16.1849C105.547 16.5887 105.519 17.009 105.38 17.398L104.746 24.191C104.695 24.4396 104.728 24.6982 104.84 24.926C104.985 25.1048 105.177 25.2393 105.395 25.314C107.385 26.2591 108.932 27.9387 109.71 30C109.999 28.4626 110.621 27.0071 111.533 25.736C112.004 25.1112 112.663 24.654 113.413 24.4315C114.163 24.2091 114.965 24.2331 115.7 24.5C117.284 25.256 117.721 27.439 117.1 29.082C116.343 30.6737 115.204 32.0538 113.786 33.1L124.412 33.15C124.823 33.028 125.261 33.0307 125.67 33.1575C126.079 33.2844 126.442 33.5299 126.711 33.8628C126.981 34.1957 127.146 34.6012 127.185 35.0279C127.225 35.4546 127.136 35.8834 126.932 36.26L123.473 53.686C123.502 54.021 123.453 54.358 123.33 54.6709C123.207 54.9838 123.013 55.2641 122.764 55.49C122.515 55.7159 122.218 55.8812 121.894 55.9731C121.571 56.0651 121.231 56.0811 120.9 56.02C116.161 56.031 111.421 56.062 106.683 56.052C105.383 56.1214 104.079 56.096 102.783 55.976C101.865 55.837 100.795 55.458 100.54 54.455C100.519 54.1777 100.425 53.9109 100.267 53.682C100.156 53.5988 100.03 53.5383 99.8954 53.504C99.761 53.4697 99.6212 53.4622 99.484 53.482C94.708 53.5653 89.9316 53.5603 85.155 53.467C84.367 53.452 83.055 53.725 82.544 52.967C82.0251 52.0445 81.7218 51.0165 81.657 49.96L81.417 48.179L81.177 46.398L80.937 44.617L80.697 42.836L80.457 41.055L80.217 39.274L79.977 37.493L79.737 35.712L79.5 33.931L79.26 32.15L79.02 30.369L78.78 28.588L78.54 26.807L78.3 25.026L78.06 23.245L77.82 21.464L77.58 19.683C77.5 19.092 77.422 18.502 77.341 17.911C77.2199 17.3529 77.1861 16.7794 77.241 16.211C77.2541 16.1334 77.2728 16.0569 77.297 15.982C77.667 14.8 79.143 14.382 80.381 14.439C81.619 14.496 82.897 14.839 84.069 14.439C83.6632 14.1992 83.3535 13.8258 83.1928 13.3828C83.0322 12.9397 83.0306 12.4545 83.1884 12.0104C83.3462 11.5663 83.6536 11.1909 84.0578 10.9486C84.462 10.7062 84.9379 10.612 85.404 10.682C85.347 10.5669 85.304 10.4454 85.276 10.32M89.517 10.333C89.522 10.207 89.5099 10.0808 89.481 9.95801C89.3811 9.64093 89.2049 9.35319 88.968 9.12001C88.6971 8.76222 88.324 8.49511 87.898 8.35401C87.4565 8.28172 87.0036 8.36627 86.618 8.59301C86.3742 8.70123 86.1627 8.87074 86.004 9.08501C85.9145 9.23267 85.8591 9.39843 85.8418 9.57021C85.8245 9.74199 85.8457 9.91547 85.904 10.078C86.0239 10.4026 86.2249 10.6911 86.488 10.916C86.7501 11.1392 87.0264 11.3453 87.315 11.533C87.7553 11.8404 88.1798 12.1698 88.587 12.52C88.7923 12.6967 88.9923 12.8787 89.187 13.066C89.243 13.12 89.377 13.306 89.458 13.303C89.558 13.303 89.616 13.121 89.627 13.045C89.634 12.928 89.6208 12.8106 89.588 12.698C89.4531 12.1974 89.3978 11.6788 89.424 11.161C89.449 10.884 89.512 10.604 89.519 10.329M96.298 14.069C96.455 14.02 96.611 13.969 96.764 13.905C97.6154 13.5969 98.3344 13.0046 98.8 12.228C99.043 11.8289 99.1229 11.3515 99.023 10.895C98.9263 10.6085 98.7489 10.3561 98.512 10.1682C98.2751 9.98027 97.9889 9.86491 97.688 9.83601C97.0805 9.79004 96.4776 9.97026 95.995 10.342C95.5186 10.7111 95.1 11.1493 94.753 11.642C94.1191 12.4786 93.5428 13.3573 93.028 14.272C93.0031 14.3086 92.988 14.3509 92.984 14.395C92.984 14.659 93.977 14.49 94.142 14.47C94.8708 14.4014 95.592 14.2675 96.297 14.07M90.088 10.81C90.0047 11.5454 90.0696 12.2901 90.279 13C90.388 13.3909 90.552 13.7642 90.766 14.109C90.843 14.231 90.966 14.479 91.115 14.517C91.3394 14.5543 91.5678 14.5607 91.794 14.536C91.8949 14.5388 91.9951 14.5172 92.086 14.473C92.251 14.3425 92.3813 14.1731 92.465 13.98C92.612 13.74 92.775 13.507 92.929 13.271L93.876 11.819C94.0361 11.6439 94.1459 11.4289 94.194 11.1965C94.242 10.9642 94.2265 10.7232 94.149 10.499C94.0721 9.86943 93.7956 9.28103 93.36 8.82001C93.0446 8.57562 92.6662 8.42612 92.269 8.38901C91.9345 8.32769 91.5895 8.36236 91.274 8.48901C90.8437 8.73432 90.5238 9.13511 90.38 9.60901C90.2325 9.99511 90.1344 10.3983 90.088 10.809M113.418 32.418L113.433 32.41C113.469 32.39 113.506 32.371 113.542 32.349L113.657 32.281L113.771 32.21L113.883 32.137L113.994 32.061L114.103 31.983L114.21 31.902L114.315 31.819L114.415 31.734L114.515 31.646L114.615 31.556L114.715 31.464L114.815 31.37L114.909 31.27L115.001 31.17L115.091 31.07L115.18 30.97L115.266 30.87L115.35 30.77L115.432 30.663L115.512 30.555L115.59 30.445L115.666 30.334L115.739 30.221L115.81 30.107L115.879 29.992L115.946 29.875C115.968 29.836 115.989 29.796 116.01 29.757C116.031 29.718 116.052 29.678 116.072 29.638L116.132 29.518C116.152 29.478 116.17 29.438 116.189 29.397L116.204 29.364C116.255 29.253 116.304 29.14 116.348 29.026C116.636 28.3708 116.765 27.6566 116.724 26.942C116.7 26.5854 116.598 26.2384 116.426 25.9256C116.253 25.6128 116.013 25.3418 115.724 25.132C115.331 24.9053 114.883 24.7904 114.429 24.7996C113.975 24.8087 113.533 24.9417 113.149 25.184C112.387 25.6813 111.775 26.3764 111.378 27.195C110.651 28.5354 110.226 30.0182 110.131 31.54C110.097 31.925 110.115 32.3128 110.184 32.693C110.198 32.8079 110.252 32.9142 110.337 32.993C110.427 33.0479 110.532 33.0741 110.637 33.068C111.138 33.0859 111.638 33.0351 112.125 32.917L112.276 32.878L112.426 32.834L112.574 32.786L112.72 32.734L112.865 32.678L113.008 32.618L113.149 32.554L113.288 32.486C113.332 32.464 113.375 32.441 113.419 32.417M102.063 27.851C101.971 28.3553 101.984 28.8732 102.101 29.3722C102.219 29.8712 102.438 30.3406 102.745 30.751C103.456 31.5421 104.365 32.129 105.379 32.451C105.668 32.5659 105.962 32.666 106.261 32.751C107.252 33.0367 108.283 33.1652 109.314 33.132H109.345C109.422 33.132 109.511 33.118 109.545 33.052C109.563 33.0157 109.57 32.9753 109.567 32.935C109.574 32.0114 109.404 31.0949 109.067 30.235C108.784 29.545 108.424 28.8892 107.994 28.28C107.454 27.3988 106.696 26.6712 105.794 26.167C105.341 25.9224 104.828 25.8097 104.314 25.8417C103.799 25.8737 103.305 26.0491 102.885 26.348C102.441 26.7349 102.148 27.2661 102.057 27.848M124.557 43.877C124.558 43.8556 124.551 43.8346 124.539 43.817C124.52 43.7987 124.498 43.7852 124.473 43.7773C124.448 43.7695 124.422 43.7677 124.396 43.772C120.173 43.8333 115.954 44 111.739 44.272C111.705 44.2659 111.671 44.2665 111.637 44.2739C111.604 44.2814 111.572 44.2954 111.544 44.3153C111.516 44.3351 111.492 44.3604 111.474 44.3895C111.456 44.4187 111.444 44.4511 111.439 44.485C111.432 44.5316 111.437 44.5793 111.455 44.623C111.616 46.5383 111.847 48.446 112.148 50.346C112.299 51.2947 112.466 52.2407 112.648 53.184C112.781 53.86 112.732 55.256 113.63 55.256L120.86 55.25C121.195 55.2768 121.531 55.2212 121.84 55.088C122.08 54.9045 122.278 54.6713 122.42 54.4043C122.562 54.1373 122.644 53.8428 122.662 53.541L123.125 51.2C123.604 48.781 124.083 46.362 124.541 43.938C124.546 43.9157 124.548 43.8929 124.548 43.87M95.566 15.3H95.294C95.2054 15.2893 95.116 15.3117 95.043 15.363C95.0105 15.4052 94.9868 15.4535 94.9732 15.505C94.9596 15.5566 94.9565 15.6103 94.964 15.663C94.9522 15.9926 94.8548 16.3134 94.6814 16.594C94.5079 16.8745 94.2645 17.1051 93.975 17.263C93.717 17.4066 93.4259 17.4803 93.1307 17.4768C92.8354 17.4733 92.5462 17.3926 92.2917 17.2428C92.0372 17.0931 91.8263 16.8794 91.6799 16.6229C91.5335 16.3665 91.4566 16.0763 91.457 15.781C91.467 15.652 91.478 15.492 91.368 15.425C91.3213 15.4022 91.2699 15.3909 91.218 15.392C88.131 15.234 85.028 15.256 81.939 15.316C81.8289 15.3068 81.7187 15.3323 81.624 15.389C81.5239 15.491 81.4679 15.6281 81.468 15.771C81.4168 16.3788 81.2232 16.9659 80.903 17.485C80.7392 17.7419 80.5099 17.9505 80.2387 18.0892C79.9674 18.2279 79.6641 18.2917 79.36 18.274C79.0887 18.192 78.8046 18.1608 78.522 18.182C77.45 18.455 79.675 29.2 79.858 30.545L80.823 37.654C80.928 38.429 81.146 43.3 81.971 43.248C82.226 43.232 82.458 43.084 82.713 43.063C82.908 43.0675 83.0989 43.1207 83.2683 43.2176C83.4377 43.3145 83.5802 43.4521 83.683 43.618C83.9672 44.0341 84.1228 44.5247 84.1305 45.0285C84.1381 45.5324 83.9974 46.0274 83.726 46.452C83.6236 46.6143 83.4896 46.7542 83.3318 46.8633C83.1741 46.9724 82.9959 47.0485 82.808 47.087C82.224 47.198 82.134 46.91 82.181 47.676C82.238 48.618 82.396 49.549 82.544 50.476C82.644 51.126 82.665 51.97 83.225 52.415C83.6499 52.677 84.1514 52.7867 84.647 52.726C85.64 52.715 86.635 52.685 87.626 52.682C88.5294 52.8176 89.4469 52.8314 90.354 52.723C91.03 52.523 90.729 52.515 90.615 51.916C90.5709 51.7171 90.5673 51.5112 90.6046 51.3109C90.6419 51.1105 90.7192 50.9198 90.832 50.75C90.8962 50.6449 90.9681 50.5446 91.047 50.45C91.168 50.31 91.3 50.18 91.428 50.05C92.247 49.191 93.869 49.363 94.878 49.784C95.807 50.171 97.112 51.34 96.54 52.462C96.513 52.514 96.483 52.579 96.515 52.628C96.5327 52.6471 96.5548 52.6616 96.5793 52.6703C96.6039 52.679 96.6302 52.6816 96.656 52.678C97.4153 52.6893 98.1743 52.6893 98.933 52.678C99.225 52.678 99.722 52.815 99.933 52.546C100.165 52.246 99.723 51.324 99.64 51.016L98.56 46.99C97.56 43.272 96.557 39.5553 95.551 35.84C95.3816 35.4773 95.3328 35.07 95.4116 34.6775C95.4904 34.2851 95.6927 33.9282 95.989 33.659C96.315 33.418 96.739 33.331 97.055 33.078C97.371 32.825 97.521 32.478 97.901 32.293C98.368 32.1268 98.874 32.1042 99.354 32.228C99.8274 32.2452 100.278 32.436 100.62 32.764C101.02 33.264 102.906 33.499 103.194 32.809C103.453 32.188 102.548 31.485 102.239 31.042C101.756 30.3652 101.463 29.5707 101.393 28.742C101.321 28.0152 101.492 27.2852 101.877 26.665C102.263 26.0449 102.843 25.5693 103.526 25.312C103.624 25.2901 103.714 25.2429 103.788 25.175C103.853 25.0853 103.888 24.9776 103.888 24.867C104.116 22.278 104.363 19.688 104.597 17.098C104.639 16.8107 104.633 16.5184 104.58 16.233C104.362 15.339 103.252 15.289 102.507 15.291L95.574 15.302M112.1 33.9H110.872C110.822 33.8952 110.772 33.9049 110.727 33.928C110.65 33.978 110.646 34.086 110.65 34.178C110.755 36.5567 110.91 38.9327 111.114 41.306C111.148 41.6973 111.181 42.0887 111.214 42.48C111.225 42.599 111.199 42.841 111.285 42.933C111.371 43.025 111.613 43.006 111.731 43.001L124.631 42.501C124.661 42.5068 124.691 42.5067 124.721 42.5007C124.75 42.4947 124.779 42.4829 124.804 42.466C124.829 42.4491 124.85 42.4274 124.867 42.4022C124.884 42.377 124.895 42.3487 124.901 42.319C124.902 42.3024 124.902 42.2856 124.901 42.269L126.174 35.818C126.288 35.24 126.363 34.541 125.915 34.158C125.585 33.9398 125.189 33.8443 124.796 33.888C120.56 33.8793 116.324 33.8793 112.089 33.888M103.322 33.881H98.072C97.6852 33.8576 97.2975 33.9054 96.928 34.022C96.7439 34.0827 96.5797 34.1921 96.4527 34.3386C96.3258 34.4851 96.2409 34.6632 96.207 34.854C96.1989 35.0421 96.225 35.2302 96.284 35.409C96.884 37.709 97.504 39.997 98.128 42.286C98.2753 42.8273 98.4233 43.368 98.572 43.908C98.614 44.062 98.632 44.293 98.813 44.343C99.0705 44.3539 99.328 44.3201 99.574 44.243C102.853 43.735 106.153 43.3887 109.474 43.204C109.668 43.193 109.904 43.153 109.974 42.971C109.992 42.9059 109.996 42.8379 109.987 42.771L109.362 34.197C109.362 34.139 109.349 34.0817 109.325 34.029C109.256 33.905 109.087 33.89 108.946 33.89L103.322 33.881ZM107.044 55.256H111.37C111.449 55.2626 111.529 55.2485 111.601 55.215C111.768 55.115 111.748 54.876 111.707 54.688C111.009 51.4985 110.514 48.2681 110.224 45.016C110.206 44.816 110.168 44.579 109.99 44.484C109.887 44.44 109.775 44.4251 109.664 44.441C106.243 44.6168 102.834 44.9793 99.452 45.527C99.332 45.547 99.194 45.579 99.142 45.689C99.113 45.7705 99.113 45.8595 99.142 45.941C99.5566 47.6177 99.994 49.289 100.454 50.955C100.687 51.799 100.925 52.6417 101.168 53.483C101.368 54.178 101.468 54.942 102.26 55.174C102.563 55.2469 102.875 55.2762 103.187 55.261H107.04M87.966 14.518C88.397 14.518 88.828 14.526 89.259 14.524C89.3402 14.5238 89.421 14.5141 89.5 14.495C89.5142 14.4829 89.5252 14.4674 89.5318 14.4499C89.5385 14.4324 89.5406 14.4135 89.538 14.395C89.5012 14.3217 89.4537 14.2543 89.397 14.195C89.02 13.817 88.638 13.444 88.261 13.067C87.8708 12.689 87.4463 12.3482 86.993 12.049C86.5709 11.7541 86.099 11.5379 85.6 11.411C85.532 11.394 85.464 11.38 85.4 11.366C84.9939 11.306 84.5791 11.3651 84.206 11.536C84.1118 11.5758 84.0305 11.6409 83.971 11.724C83.8556 11.8714 83.7704 12.0401 83.7203 12.2204C83.6702 12.4008 83.6561 12.5893 83.679 12.775C83.7018 12.9608 83.7611 13.1403 83.8534 13.3031C83.9457 13.466 84.0693 13.609 84.217 13.724L84.254 13.752C84.593 14.0201 84.986 14.2119 85.406 14.314C85.9209 14.4527 86.4517 14.5243 86.985 14.527C87.313 14.518 87.642 14.517 87.97 14.518M103.847 32.8C103.856 32.985 103.957 33.121 104.092 33.123C104.436 33.129 104.78 33.123 105.124 33.123C105.138 33.123 105.156 33.105 105.164 33.091C105.17 33.0836 105.174 33.0751 105.177 33.0659C105.18 33.0567 105.18 33.0471 105.179 33.0377C105.177 33.0282 105.174 33.0192 105.169 33.0112C105.164 33.0031 105.157 32.9963 105.149 32.991C105.145 32.9871 105.139 32.984 105.134 32.982C104.822 32.8393 104.509 32.698 104.195 32.558C104.156 32.5461 104.117 32.5378 104.077 32.533C104.037 32.5286 103.996 32.5365 103.96 32.5558C103.924 32.5751 103.895 32.6048 103.877 32.641C103.86 32.699 103.853 32.759 103.845 32.797" fill="#FF5A00"/>
<path d="M106.038 31.8C106.002 31.8615 105.944 31.9075 105.876 31.929C105.811 31.9453 105.743 31.9486 105.677 31.9387C105.61 31.9287 105.546 31.9057 105.489 31.871C105.039 31.6188 104.629 31.3013 104.272 30.929C103.931 30.5916 103.643 30.2046 103.418 29.781C103.191 29.3564 103.046 28.8931 102.99 28.415C102.974 28.3201 102.979 28.2229 103.004 28.13C103.017 28.0839 103.042 28.0424 103.078 28.0102C103.113 27.978 103.157 27.9564 103.204 27.948C103.255 27.9477 103.305 27.9621 103.348 27.9894C103.39 28.0167 103.425 28.0558 103.446 28.102C103.487 28.1944 103.513 28.2931 103.521 28.394C103.696 29.4034 104.247 30.3091 105.063 30.929C105.253 31.0762 105.454 31.2099 105.663 31.329C105.802 31.3965 105.926 31.4934 106.024 31.613C106.043 31.6391 106.055 31.6704 106.057 31.703C106.058 31.7356 106.051 31.7679 106.034 31.796" fill="#FF5A00"/>
<path d="M113.353 27.478C113.249 27.6271 113.156 27.7832 113.073 27.945C112.883 28.3336 112.731 28.7395 112.618 29.157C112.595 29.2751 112.541 29.385 112.461 29.475C112.417 29.5181 112.359 29.5428 112.298 29.5441C112.237 29.5454 112.177 29.5232 112.132 29.482C112.091 29.4249 112.065 29.3581 112.057 29.288C112.048 29.218 112.059 29.147 112.086 29.082C112.314 28.0697 112.829 27.1443 113.568 26.416C113.885 26.1214 114.244 25.8748 114.632 25.684C114.724 25.6317 114.826 25.6012 114.932 25.595C114.985 25.5932 115.038 25.608 115.083 25.6374C115.127 25.6668 115.162 25.7093 115.181 25.759C115.191 25.8047 115.188 25.8522 115.174 25.8967C115.159 25.9411 115.133 25.9809 115.098 26.012C115.028 26.0731 114.948 26.1227 114.862 26.159C114.255 26.4669 113.735 26.9217 113.349 27.482" fill="#FF5A00"/>
<path d="M86.212 14.029C86.2085 14.0796 86.1859 14.1269 86.1487 14.1615C86.1116 14.196 86.0627 14.2151 86.012 14.215C85.6854 14.1871 85.3676 14.0948 85.077 13.9432C84.7864 13.7916 84.5288 13.5839 84.319 13.332C84.2501 13.2557 84.2052 13.1607 84.19 13.059C84.1862 13.0187 84.1927 12.978 84.209 12.9409C84.2253 12.9038 84.2508 12.8715 84.283 12.847C84.3205 12.8312 84.3615 12.8256 84.4019 12.8307C84.4423 12.8358 84.4806 12.8514 84.513 12.876C84.558 12.9177 84.5986 12.9639 84.634 13.014C84.8565 13.3369 85.187 13.5695 85.566 13.67C85.739 13.73 85.917 13.778 86.092 13.834C86.1292 13.8524 86.1605 13.8809 86.1823 13.9163C86.204 13.9517 86.2154 13.9925 86.215 14.034" fill="#FF5A00"/>
<path d="M90.992 11.333C90.9647 11.304 90.9437 11.2696 90.9303 11.2321C90.9169 11.1946 90.9113 11.1547 90.914 11.115C90.878 10.4718 91.0875 9.83884 91.5 9.344C91.5565 9.26952 91.6327 9.21235 91.72 9.179C91.7637 9.16238 91.8118 9.16158 91.856 9.17674C91.9002 9.1919 91.9377 9.22207 91.962 9.262C91.9743 9.29083 91.98 9.32208 91.9786 9.35341C91.9772 9.38474 91.9688 9.41536 91.954 9.443C91.9247 9.49817 91.8888 9.54956 91.847 9.596C91.5514 9.97486 91.3837 10.4377 91.368 10.918C91.374 11.0282 91.3559 11.1385 91.315 11.241C91.2932 11.2881 91.2559 11.3263 91.2093 11.3492C91.1627 11.3722 91.1096 11.3784 91.059 11.367C91.0353 11.361 91.0133 11.3493 90.995 11.333" fill="#FF5A00"/>
<path d="M97.714 10.6C97.7505 10.6031 97.7867 10.6098 97.822 10.62C97.8858 10.6347 97.943 10.6698 97.985 10.72C97.999 10.7422 98.0085 10.767 98.0129 10.793C98.0173 10.8189 98.0166 10.8454 98.0107 10.8711C98.0049 10.8967 97.994 10.9209 97.9788 10.9424C97.9635 10.9638 97.9442 10.982 97.922 10.996C97.9051 11.007 97.8865 11.0151 97.867 11.02C97.8019 11.039 97.7347 11.0501 97.667 11.053C97.2471 11.0981 96.8526 11.276 96.541 11.561C96.424 11.668 96.304 11.825 96.141 11.861C96.029 11.882 95.87 11.861 95.88 11.71C95.892 11.523 96.137 11.31 96.267 11.188C96.5939 10.8906 96.9993 10.6932 97.435 10.619C97.5278 10.6012 97.6227 10.5958 97.717 10.603" fill="#FF5A00"/>
<path d="M87.339 10.858L87.349 10.882C87.3653 10.918 87.3738 10.957 87.3738 10.9965C87.3738 11.036 87.3653 11.075 87.349 11.111C87.224 11.354 86.96 11.077 86.881 10.95C86.7392 10.7194 86.6324 10.469 86.564 10.207C86.5187 10.052 86.5015 9.8901 86.513 9.729C86.5158 9.6724 86.5319 9.61725 86.56 9.568C86.5743 9.54364 86.5944 9.52316 86.6184 9.50834C86.6425 9.49352 86.6698 9.48482 86.698 9.483C86.7281 9.48516 86.7572 9.49491 86.7826 9.51135C86.8079 9.52778 86.8287 9.55037 86.843 9.577C86.8707 9.63091 86.8893 9.68903 86.898 9.749C86.9483 10.0767 87.0584 10.3923 87.223 10.68C87.264 10.7368 87.301 10.7962 87.334 10.858" fill="#FF5A00"/>
<path d="M90.6 34.047C90.6077 34.4214 90.5272 34.7924 90.365 35.13C90.1022 35.591 89.6728 35.9339 89.165 36.088C88.8454 36.2224 88.4976 36.2755 88.1525 36.2428C87.8074 36.21 87.4758 36.0923 87.1872 35.9002C86.8987 35.7081 86.6622 35.4476 86.4988 35.1418C86.3354 34.8361 86.2503 34.4946 86.251 34.148C86.2896 33.7958 86.4037 33.456 86.5856 33.1519C86.7675 32.8478 87.0129 32.5866 87.305 32.386C87.6143 32.1526 87.9766 31.9991 88.3595 31.9393C88.7424 31.8794 89.1341 31.9151 89.5 32.043C89.8503 32.1795 90.1458 32.4277 90.341 32.749C90.5267 33.1037 90.6192 33.4997 90.61 33.9V34.05" fill="#FF5A00"/>
<path d="M97.533 19.577C97.8254 19.6061 98.1085 19.6957 98.3645 19.8399C98.6205 19.9842 98.8437 20.18 99.02 20.415C99.238 20.648 99.4043 20.9243 99.508 21.226C99.791 22.198 98.754 22.701 98.036 23.026C97.6596 23.2199 97.2544 23.3519 96.836 23.417C96.3591 23.4324 95.8955 23.2577 95.5473 22.9314C95.1991 22.6052 94.9947 22.154 94.979 21.677V21.538C94.9534 21.1571 95.0467 20.7776 95.246 20.452C95.651 19.9717 96.2301 19.6717 96.856 19.618C97.0784 19.5761 97.3051 19.5619 97.531 19.576" fill="#FF5A00"/>
<path d="M83.31 23.511C83.745 23.5377 84.1669 23.6702 84.539 23.897C84.7633 24.0142 84.9623 24.1742 85.125 24.368C85.2053 24.4643 85.2645 24.5763 85.2989 24.6969C85.3334 24.8174 85.3423 24.9438 85.325 25.068C85.2511 25.3323 85.0931 25.5654 84.875 25.732C84.4941 26.0862 84.0478 26.3627 83.561 26.546C82.714 26.846 81.285 26.797 81.308 25.584C81.3699 25.1663 81.5299 24.7692 81.775 24.4254C82.0202 24.0815 82.3433 23.8007 82.718 23.606C82.9054 23.5326 83.1059 23.4986 83.307 23.506" fill="#FF5A00"/>
<path d="M104.167 15.9C103.92 15.8899 103.675 15.9547 103.466 16.0858C103.256 16.2168 103.091 16.4081 102.991 16.6347C102.892 16.8612 102.863 17.1124 102.909 17.3555C102.955 17.5985 103.073 17.8221 103.248 17.997C103.423 18.1719 103.646 18.29 103.889 18.3357C104.133 18.3815 104.384 18.3529 104.61 18.2536C104.837 18.1544 105.028 17.989 105.159 17.7793C105.29 17.5695 105.355 17.3251 105.345 17.078C105.332 16.7696 105.204 16.4772 104.986 16.259C104.768 16.0407 104.475 15.9126 104.167 15.9Z" fill="#FF5A00"/>
</g>
</g>
<defs>
<clipPath id="clip0_1_2457">
<rect width="150.009" height="66.521" fill="white" transform="translate(0.5)"/>
</clipPath>
</defs>
</svg>
