<svg width="25" height="24" viewBox="0 0 25 24" fill="none" xmlns="http://www.w3.org/2000/svg">
<g clip-path="url(#clip0_1_2515)">
<path d="M20.9299 2.759C20.9209 2.03208 20.6286 1.33737 20.1152 0.822663C19.6018 0.307959 18.9078 0.0138837 18.1809 0.003C14.3936 -0.001 10.6063 -0.001 6.81894 0.003C6.09172 0.0146007 5.39754 0.308719 4.88334 0.823104C4.36915 1.33749 4.07528 2.03177 4.06394 2.759C4.05794 5.321 4.04494 7.882 4.06994 10.444C4.07648 12.5133 4.87143 14.5023 6.29294 16.006C7.60983 17.4722 9.41072 18.415 11.3659 18.662C11.5159 18.681 11.5659 18.731 11.5659 18.894C11.5599 19.9087 11.5599 20.9233 11.5659 21.938C11.5659 22.094 11.5159 22.126 11.3719 22.126C10.4949 22.12 9.62494 22.12 8.74794 22.126C8.52713 22.1249 8.31316 22.2025 8.14438 22.3449C7.97561 22.4873 7.86307 22.6852 7.82694 22.903C7.79286 23.1125 7.83062 23.3274 7.9341 23.5128C8.03758 23.6981 8.20069 23.8431 8.39694 23.924C8.45294 23.949 8.50994 23.974 8.56594 23.993H16.4389C16.4519 23.987 16.4639 23.968 16.4769 23.968C16.7072 23.9121 16.9076 23.7709 17.0378 23.573C17.1681 23.3751 17.2184 23.1351 17.1787 22.9016C17.139 22.668 17.0122 22.4582 16.8238 22.3145C16.6355 22.1707 16.3997 22.1037 16.1639 22.127C15.3309 22.127 14.4919 22.121 13.6589 22.133C13.4899 22.133 13.4399 22.102 13.4399 21.92C13.4529 21.012 13.4459 20.11 13.4459 19.202C13.4459 19.039 13.4019 18.839 13.4769 18.726C13.5329 18.645 13.7529 18.663 13.8969 18.638L14.0099 18.619C15.9061 18.2733 17.6268 17.2888 18.8858 15.8294C20.1448 14.3699 20.8662 12.5234 20.9299 10.597C20.9549 7.976 20.9359 5.371 20.9299 2.759ZM6.02394 11.383C5.9615 10.9907 5.93007 10.5942 5.92994 10.197V2.953C5.91113 2.80648 5.92627 2.6576 5.9742 2.51787C6.02214 2.37814 6.10157 2.25131 6.20636 2.1472C6.31116 2.04308 6.4385 1.96447 6.57853 1.91744C6.71857 1.87042 6.86755 1.85624 7.01394 1.876H17.9999C18.1425 1.85915 18.2869 1.87471 18.4226 1.92152C18.5583 1.96832 18.6816 2.04517 18.7834 2.14631C18.8853 2.24745 18.9629 2.37028 19.0106 2.50564C19.0583 2.64099 19.0748 2.78537 19.0589 2.928V10.237C19.0752 11.8897 18.4675 13.4877 17.3571 14.712C16.2467 15.9363 14.7154 16.6967 13.069 16.8414C11.4226 16.9861 9.78211 16.5044 8.47522 15.4926C7.16834 14.4808 6.2912 13.0132 6.01894 11.383H6.02394Z" fill="#FF5A00"/>
<path d="M2.373 8.13899V10.218C2.39162 10.4542 2.32181 10.6888 2.17711 10.8764C2.03241 11.064 1.82316 11.1911 1.59 11.233C1.35718 11.27 1.11893 11.2187 0.921935 11.0892C0.724937 10.9598 0.583381 10.7614 0.525 10.533C0.517864 10.5202 0.50949 10.5081 0.5 10.497V4.49699C0.514358 4.46255 0.531064 4.42914 0.55 4.39699C0.619885 4.18455 0.763372 4.00407 0.954587 3.8881C1.1458 3.77212 1.37216 3.72828 1.59285 3.76448C1.81354 3.80067 2.01403 3.91453 2.15818 4.08551C2.30233 4.2565 2.38064 4.47336 2.379 4.69699C2.379 5.84699 2.373 6.99699 2.373 8.13899Z" fill="#FF5A00"/>
<path d="M24.494 4.776V10.231C24.5043 10.3608 24.4876 10.4914 24.4448 10.6145C24.4021 10.7375 24.3342 10.8503 24.2455 10.9457C24.1569 11.0411 24.0493 11.1171 23.9297 11.1687C23.8102 11.2204 23.6812 11.2466 23.5509 11.2458C23.4207 11.245 23.292 11.2171 23.1731 11.1639C23.0542 11.1107 22.9477 11.0334 22.8602 10.9368C22.7728 10.8403 22.7064 10.7266 22.6652 10.6031C22.624 10.4795 22.6089 10.3487 22.621 10.219V4.763C22.6096 4.63427 22.6251 4.50458 22.6665 4.38215C22.7079 4.25973 22.7743 4.14724 22.8614 4.05181C22.9486 3.95638 23.0546 3.88011 23.1728 3.82781C23.291 3.77551 23.4187 3.74833 23.548 3.748C23.6795 3.7472 23.8097 3.7739 23.9304 3.82638C24.051 3.87886 24.1593 3.95597 24.2483 4.05276C24.3374 4.14955 24.4053 4.26388 24.4476 4.38843C24.4899 4.51298 24.5057 4.64499 24.494 4.776Z" fill="#FF5A00"/>
<path d="M16.677 7.98902C16.8165 7.86515 16.9163 7.70283 16.964 7.52243C17.0116 7.34203 17.0048 7.15158 16.9446 6.975C16.8843 6.79842 16.7732 6.64357 16.6253 6.52989C16.4774 6.4162 16.2991 6.34876 16.113 6.33602C15.549 6.24802 14.9853 6.16668 14.422 6.09201C14.3571 6.08754 14.295 6.06451 14.2428 6.02568C14.1907 5.98686 14.1508 5.93386 14.128 5.87301C13.89 5.36601 13.628 4.87301 13.383 4.37301C13.3147 4.19237 13.193 4.03682 13.0341 3.92704C12.8752 3.81725 12.6866 3.75845 12.4935 3.75845C12.3004 3.75845 12.1118 3.81725 11.9529 3.92704C11.794 4.03682 11.6723 4.19237 11.604 4.37301C11.354 4.88701 11.097 5.38801 10.846 5.90101C10.824 5.95425 10.7879 6.00046 10.7415 6.03465C10.6952 6.06885 10.6403 6.08972 10.583 6.09502C10.032 6.17002 9.48298 6.26401 8.94198 6.33301C8.74514 6.3368 8.554 6.39978 8.39347 6.51376C8.23293 6.62774 8.11045 6.78742 8.04198 6.97201C7.97676 7.16078 7.97236 7.36525 8.02941 7.55665C8.08645 7.74805 8.20206 7.91675 8.35998 8.03901C8.76698 8.42701 9.15998 8.82801 9.55998 9.22301C9.60232 9.25535 9.63471 9.29894 9.65346 9.3488C9.6722 9.39867 9.67654 9.4528 9.66598 9.50502C9.56598 10.062 9.48398 10.632 9.37798 11.19C9.32366 11.3791 9.32877 11.5802 9.39263 11.7663C9.45649 11.9523 9.57601 12.1142 9.73498 12.23C9.89379 12.3473 10.0855 12.4117 10.2829 12.414C10.4803 12.4163 10.6734 12.3565 10.835 12.243C11.33 11.98 11.835 11.729 12.326 11.466C12.3738 11.436 12.4291 11.4201 12.4855 11.4201C12.5419 11.4201 12.5972 11.436 12.645 11.466C13.177 11.754 13.716 12.036 14.261 12.305C14.4157 12.3917 14.5929 12.4297 14.7696 12.414C14.9462 12.3983 15.114 12.3296 15.251 12.217C15.3947 12.113 15.505 11.9694 15.5684 11.8037C15.6318 11.638 15.6456 11.4574 15.608 11.284C15.514 10.701 15.414 10.113 15.308 9.53001C15.2936 9.47463 15.2954 9.41631 15.3132 9.36191C15.3309 9.30752 15.3638 9.25933 15.408 9.22301C15.844 8.81501 16.258 8.39702 16.677 7.98902ZM13.4 8.72101C13.281 9.06501 13.438 9.39701 13.45 9.80501C13.1961 9.55358 12.855 9.40997 12.4977 9.4042C12.1405 9.39842 11.7948 9.53092 11.533 9.77402C11.6773 9.44806 11.6958 9.08022 11.5851 8.7414C11.4743 8.40257 11.242 8.11675 10.933 7.93901C11.2898 7.97422 11.6467 7.87287 11.9317 7.65539C12.2167 7.4379 12.4087 7.12045 12.469 6.76701C12.694 7.11101 12.769 7.46701 13.069 7.67501C13.3755 7.82173 13.707 7.90894 14.046 7.93201C13.834 8.20801 13.515 8.38301 13.4 8.72101Z" fill="#FF5A00"/>
</g>
<defs>
<clipPath id="clip0_1_2515">
<rect width="23.998" height="23.993" fill="white" transform="translate(0.5)"/>
</clipPath>
</defs>
</svg>
