<svg width="20" height="19" viewBox="0 0 20 19" fill="none" xmlns="http://www.w3.org/2000/svg">
<g clip-path="url(#clip0_1_2512)">
<path d="M19.494 9.50007C19.494 8.26507 19.488 7.03607 19.494 5.80007C19.5066 4.95551 19.2468 4.12937 18.753 3.44407C18.0938 2.54804 17.2205 1.83154 16.213 1.36007C14.7924 0.661083 13.255 0.230204 11.678 0.089071C11.1 0.032071 10.526 7.10103e-05 9.956 7.10103e-05C8.47336 -0.00449532 6.99826 0.211192 5.579 0.640071C4.29665 0.996665 3.10876 1.63176 2.1 2.50007C1.64787 2.86306 1.27326 3.31318 0.99841 3.82371C0.723561 4.33424 0.554072 4.89478 0.5 5.47207L0.5 13.5601C0.545618 14.1778 0.741276 14.7751 1.07 15.3001C1.70569 16.2829 2.59969 17.0717 3.654 17.5801C5.00577 18.2685 6.47175 18.7046 7.98 18.8671C8.67654 18.9552 9.37791 18.9996 10.08 19.0001C11.6126 19.0036 13.1364 18.7674 14.596 18.3001C15.8913 17.9237 17.0816 17.2517 18.073 16.3371C18.5212 15.9353 18.8799 15.4438 19.1258 14.8944C19.3716 14.345 19.4991 13.75 19.5 13.1481V13.0151C19.468 11.8431 19.5 10.6721 19.5 9.50007H19.494ZM10.412 2.41307H11.685V7.85307C11.6927 7.89983 11.6836 7.94782 11.6592 7.98848C11.6349 8.02914 11.5969 8.05983 11.552 8.07507C11.3824 8.14719 11.2174 8.22968 11.058 8.32207C11.0313 8.34221 10.9978 8.35117 10.9646 8.34707C10.9313 8.34296 10.901 8.32611 10.88 8.30007C10.7702 8.21515 10.6511 8.14302 10.525 8.08507C10.484 8.07212 10.4492 8.04464 10.4271 8.0078C10.405 7.97096 10.3971 7.92731 10.405 7.88507V2.41307H10.412ZM9.987 8.80007C10.102 8.79407 10.2162 8.8229 10.3147 8.88278C10.4131 8.94266 10.4912 9.03082 10.5387 9.13575C10.5863 9.24068 10.6011 9.35751 10.5813 9.47099C10.5614 9.58448 10.5078 9.68934 10.4275 9.77191C10.3471 9.85447 10.2438 9.9109 10.1309 9.93383C10.018 9.95676 9.90077 9.94512 9.79458 9.90044C9.6884 9.85576 9.59814 9.7801 9.5356 9.68335C9.47306 9.5866 9.44114 9.47324 9.444 9.35807C9.44254 9.28565 9.45548 9.21367 9.48207 9.14629C9.50865 9.07891 9.54835 9.01748 9.59887 8.96557C9.64938 8.91366 9.70971 8.8723 9.77633 8.84389C9.84296 8.81548 9.91457 8.80059 9.987 8.80007ZM8.3 2.41307H9.576V7.89107C9.58299 7.93323 9.57476 7.97649 9.55278 8.01314C9.53079 8.04978 9.49649 8.0774 9.456 8.09107C9.33057 8.14851 9.21129 8.21853 9.1 8.30007C9.07903 8.32375 9.05036 8.33925 9.01907 8.34382C8.98777 8.3484 8.95587 8.34175 8.929 8.32507C8.745 8.22507 8.555 8.14107 8.378 8.04007C8.35677 8.02726 8.33873 8.00981 8.32522 7.98903C8.31171 7.96824 8.30309 7.94467 8.3 7.92007V2.42007V2.41307ZM5.9 2.86307C5.89698 2.76301 5.92697 2.66473 5.98534 2.58341C6.04372 2.50208 6.12723 2.44222 6.223 2.41307H7.473V7.56807C7.42973 7.55124 7.38734 7.53222 7.346 7.51107C7.105 7.39107 6.865 7.27007 6.63 7.15007C6.41341 7.05297 6.2301 6.89441 6.10281 6.69406C5.97553 6.49371 5.90988 6.2604 5.914 6.02307C5.908 4.96507 5.914 3.90807 5.914 2.85607L5.9 2.86307ZM13.836 12.2811C13.329 12.7751 12.829 13.2691 12.322 13.7571C12.2888 13.7838 12.264 13.8195 12.2505 13.8599C12.237 13.9003 12.2354 13.9438 12.246 13.9851C12.373 14.6851 12.487 15.3851 12.607 16.0851C12.6258 16.1641 12.6201 16.2471 12.5907 16.3228C12.5612 16.3986 12.5093 16.4635 12.442 16.5091C12.3745 16.559 12.2934 16.587 12.2095 16.5893C12.1257 16.5916 12.0431 16.5682 11.973 16.5221C11.373 16.2051 10.773 15.8951 10.181 15.5721C10.1257 15.5349 10.0606 15.515 9.994 15.515C9.92738 15.515 9.86227 15.5349 9.807 15.5721C9.207 15.8951 8.607 16.2121 8.007 16.5281C7.93577 16.5718 7.85313 16.5934 7.76961 16.59C7.68608 16.5866 7.60546 16.5584 7.538 16.5091C7.46778 16.4588 7.41525 16.3877 7.38795 16.3058C7.36064 16.2238 7.35996 16.1354 7.386 16.0531C7.39584 16.0073 7.40219 15.9608 7.405 15.9141C7.519 15.2551 7.633 14.5971 7.741 13.9381C7.74151 13.9089 7.7362 13.8799 7.72539 13.8527C7.71457 13.8256 7.69846 13.8009 7.678 13.7801C7.178 13.2861 6.665 12.7981 6.171 12.2981C6.09409 12.222 6.04123 12.125 6.019 12.0191C6.01025 11.9657 6.01241 11.9112 6.02533 11.8587C6.03826 11.8062 6.0617 11.7568 6.09422 11.7137C6.12675 11.6705 6.16769 11.6343 6.21457 11.6074C6.26146 11.5805 6.31331 11.5634 6.367 11.5571C7.067 11.4571 7.773 11.3481 8.476 11.2571C8.52348 11.2551 8.5693 11.239 8.6076 11.2109C8.6459 11.1827 8.67493 11.1438 8.691 11.0991C8.799 10.8581 8.925 10.6181 9.046 10.3771C9.30724 10.6184 9.64984 10.7524 10.0055 10.7524C10.3612 10.7524 10.7038 10.6184 10.965 10.3771C11.085 10.6241 11.212 10.8651 11.326 11.1181C11.3417 11.1585 11.3691 11.1933 11.4048 11.2181C11.4404 11.2429 11.4826 11.2564 11.526 11.2571L13.616 11.5571C13.697 11.5628 13.7744 11.5924 13.8386 11.642C13.9029 11.6917 13.951 11.7592 13.977 11.8361C14.0035 11.9155 14.0062 12.001 13.9849 12.0819C13.9636 12.1629 13.9191 12.2359 13.857 12.2921L13.836 12.2811ZM14.077 5.93507C14.0937 6.19991 14.0276 6.46339 13.8881 6.68909C13.7486 6.9148 13.5424 7.0916 13.298 7.19507C13.083 7.29507 12.867 7.41007 12.652 7.51807C12.614 7.53707 12.57 7.55607 12.513 7.58107V2.41907H13.761C13.8683 2.45628 13.9594 2.52978 14.0183 2.6269C14.0773 2.72401 14.1005 2.83866 14.084 2.95107C14.078 3.94507 14.078 4.95107 14.084 5.94007L14.077 5.93507Z" fill="#45536D"/>
</g>
<defs>
<clipPath id="clip0_1_2512">
<rect width="19" height="19" fill="white" transform="translate(0.5)"/>
</clipPath>
</defs>
</svg>
