<svg width="49" height="49" viewBox="0 0 49 49" fill="none" xmlns="http://www.w3.org/2000/svg">
<g clip-path="url(#clip0_1_2521)">
<path d="M12.5099 0H14.0099C14.0933 0.0357529 14.1788 0.0661515 14.266 0.0910034C15.342 0.296009 16.3356 0.808315 17.1267 1.56599C17.9178 2.32367 18.4725 3.29429 18.7237 4.36049C18.9749 5.42669 18.9119 6.54283 18.5423 7.57399C18.1727 8.60515 17.5123 9.50717 16.641 10.171C16.2727 10.4593 15.8695 10.6998 15.441 10.887C14.9699 11.0741 14.4896 11.237 14.002 11.375H27.308V17.014H17.508V25.437H20.198C20.5825 25.4227 20.9657 25.4876 21.3241 25.6275C21.6825 25.7675 22.0083 25.9796 22.2813 26.2506C22.5543 26.5217 22.7688 26.8459 22.9113 27.2033C23.0539 27.5606 23.1215 27.9434 23.11 28.328C23.1187 30.9553 23.1153 33.5827 23.1 36.21C23.0917 36.3177 23.0615 36.4225 23.0113 36.5181C22.9611 36.6137 22.8919 36.6981 22.808 36.766C21.155 37.948 19.4859 39.106 17.8199 40.266C17.7259 40.332 17.62 40.379 17.455 40.471V31.088H14.665V31.616C14.665 34.728 14.6189 37.842 14.6899 40.952C14.7139 42.011 14.581 42.84 13.52 43.285C13.4926 43.3003 13.4674 43.3192 13.4449 43.341C12.7498 43.8819 12.2468 44.6317 12.0101 45.48C11.7733 46.3284 11.8153 47.2303 12.1299 48.053H10.0649C9.71093 47.8915 9.41819 47.6206 9.22986 47.2801C9.04153 46.9397 8.96761 46.5477 9.01898 46.162C9.04098 37.982 9.04532 29.802 9.03198 21.622C9.03935 21.45 9.037 21.2777 9.02496 21.106C9.00869 20.8391 8.91487 20.5827 8.755 20.3683C8.59514 20.1539 8.37621 19.9908 8.125 19.899C7.90504 19.8142 7.6672 19.7863 7.43359 19.818C7.19998 19.8496 6.97813 19.9397 6.78864 20.0799C6.59914 20.2202 6.44815 20.406 6.34961 20.6201C6.25107 20.8343 6.20819 21.0699 6.22498 21.305C6.21898 24.3863 6.21898 27.4673 6.22498 30.548V31.042C5.37616 31.0408 4.53798 30.8529 3.76984 30.4917C3.0017 30.1305 2.32239 29.6049 1.77997 28.952C1.14934 28.137 0.711735 27.1895 0.5 26.181V16.232C0.532968 16.1818 0.559488 16.1278 0.578979 16.071C0.821389 14.7272 1.53502 13.5138 2.59167 12.6489C3.64833 11.7839 4.97877 11.3241 6.34399 11.352H12.408C12.3883 11.3235 12.3627 11.2998 12.3328 11.2825C12.3028 11.2652 12.2694 11.2548 12.235 11.252C11.1245 11.0488 10.1023 10.512 9.30475 9.71298C8.50719 8.91399 7.97217 7.89086 7.771 6.78C7.49967 5.70639 7.57375 4.57456 7.98273 3.54549C8.3917 2.51641 9.11469 1.64249 10.049 1.048C10.8297 0.612183 11.6547 0.260859 12.5099 0Z" fill="#FF5A00"/>
<path d="M48.553 46.274V47.025C48.3404 47.4795 47.9753 47.845 47.521 48.058H15.701C14.324 47.236 14.301 46.177 15.638 45.241C20.3247 41.961 25.0133 38.6843 29.704 35.411C29.8587 35.3169 29.9839 35.1813 30.0652 35.0195C30.1465 34.8577 30.1808 34.6763 30.164 34.496C30.1533 23.6293 30.1463 12.7607 30.143 1.89C30.0908 1.50448 30.1642 1.1124 30.3525 0.771942C30.5407 0.431482 30.8337 0.160784 31.188 0H46.018C46.3736 0.159497 46.6677 0.430064 46.8563 0.771057C47.0449 1.11205 47.1178 1.50506 47.064 1.89101C47.026 4.45601 47.051 7.021 47.051 9.591C47.051 10.856 46.551 11.361 45.302 11.361H32.972V11.718C32.972 19.3847 32.969 27.049 32.963 34.711C32.9594 34.8401 32.9926 34.9676 33.0586 35.0786C33.1246 35.1896 33.2208 35.2795 33.336 35.338C38.0627 38.6173 42.784 41.904 47.5 45.198C47.8843 45.5225 48.2368 45.8828 48.553 46.274Z" fill="#FF5A00"/>
</g>
<defs>
<clipPath id="clip0_1_2521">
<rect width="48.053" height="48.058" fill="white" transform="translate(0.5)"/>
</clipPath>
</defs>
</svg>
