<svg width="19" height="18" viewBox="0 0 19 18" fill="none" xmlns="http://www.w3.org/2000/svg">
<g clip-path="url(#clip0_1_2536)">
<path d="M18.073 7.38C17.8789 7.12121 17.6277 6.91075 17.3389 6.76504C17.05 6.61933 16.7315 6.54232 16.408 6.54H16.127C16.0669 6.5512 16.0047 6.54204 15.9504 6.51397C15.8961 6.4859 15.8526 6.44052 15.827 6.385C15.765 6.246 15.836 6.156 15.927 6.058C16.1159 5.86721 16.2876 5.66007 16.44 5.439L16.48 5.37C16.6251 5.11639 16.7125 4.83386 16.7358 4.54259C16.7592 4.25132 16.7179 3.95849 16.615 3.685C16.5403 3.50509 16.4524 3.33095 16.352 3.164C16.305 3.09875 16.2543 3.03631 16.2 2.977L16.04 2.8L15.7 2.465C15.5922 2.3634 15.479 2.26759 15.361 2.178C15.2971 2.13031 15.2303 2.08656 15.161 2.047C14.9323 1.91847 14.6817 1.83337 14.422 1.796C14.1018 1.74996 13.7752 1.77853 13.4678 1.87948C13.1605 1.98044 12.8806 2.15105 12.65 2.378C12.5771 2.46136 12.4979 2.53892 12.413 2.61C12.3781 2.65359 12.3294 2.68405 12.2749 2.6964C12.2204 2.70875 12.1633 2.70227 12.113 2.678C12.0612 2.65647 12.0179 2.61844 11.9898 2.56981C11.9618 2.52117 11.9506 2.46465 11.958 2.409V2.377C11.949 2.277 11.958 2.167 11.958 2.062C11.9527 1.92143 11.9353 1.78158 11.906 1.644C11.898 1.607 11.888 1.57 11.878 1.533C11.8561 1.45659 11.829 1.38175 11.797 1.309C11.6758 1.00907 11.4864 0.741452 11.244 0.527285C11.0015 0.313119 10.7126 0.158278 10.4 0.075C10.2567 0.0377595 10.1099 0.0153089 9.962 0.008L9.743 0H9.13599C8.88453 0.00739334 8.63594 0.0556922 8.4 0.143L8.3 0.181L8.257 0.2L8.206 0.227L8.156 0.252L8.109 0.278L8.066 0.3L8.03 0.324L8 0.342L7.92 0.4H7.915L7.88 0.427C7.70602 0.562215 7.55215 0.721475 7.423 0.9C7.18129 1.2592 7.04958 1.68109 7.044 2.114C7.05408 2.21891 7.05173 2.32464 7.037 2.429C7.03754 2.43381 7.03712 2.43868 7.03574 2.44331C7.03437 2.44795 7.03207 2.45227 7.029 2.456C7.00865 2.54197 6.95555 2.6166 6.881 2.664C6.83582 2.67504 6.78888 2.67683 6.743 2.66927C6.69712 2.66171 6.65324 2.64495 6.614 2.62C6.56883 2.59257 6.52776 2.5589 6.492 2.52C6.30301 2.33711 6.09671 2.17301 5.876 2.03C5.73757 1.95442 5.59182 1.8931 5.441 1.847L5.418 1.84C5.06531 1.74225 4.69268 1.74225 4.34 1.84L4.28 1.858L4.243 1.87C4.15507 1.89814 4.06892 1.93153 3.985 1.97L3.964 1.98C3.75719 2.08412 3.56737 2.21898 3.401 2.38L3.276 2.5L2.827 2.949C2.74186 3.04519 2.66429 3.14783 2.595 3.256C2.49334 3.43279 2.41151 3.62026 2.351 3.815V3.83C2.33322 3.89588 2.31887 3.96264 2.308 4.03C2.30665 4.04778 2.30431 4.06548 2.301 4.083C2.301 4.116 2.294 4.15 2.292 4.183V4.232C2.28762 4.31528 2.28762 4.39872 2.292 4.482C2.292 4.498 2.292 4.513 2.292 4.528C2.29278 4.5615 2.29579 4.5949 2.301 4.628C2.29979 4.64497 2.30217 4.66201 2.308 4.678C2.315 4.694 2.308 4.707 2.314 4.721C2.31872 4.73973 2.32207 4.75878 2.324 4.778C2.324 4.797 2.331 4.816 2.336 4.835C2.341 4.854 2.342 4.862 2.345 4.875C2.348 4.888 2.353 4.907 2.357 4.923C2.365 4.954 2.374 4.984 2.384 5.014L2.4 5.061C2.411 5.092 2.423 5.124 2.435 5.154C2.447 5.184 2.461 5.215 2.474 5.245C2.487 5.275 2.495 5.29 2.507 5.313L2.529 5.356L2.568 5.426L2.604 5.485L2.621 5.511L2.649 5.554C2.688 5.611 2.731 5.666 2.776 5.721C2.79866 5.74833 2.82233 5.77533 2.847 5.802L2.884 5.842L2.924 5.885C2.97843 5.93242 3.02987 5.98319 3.078 6.037C3.12861 6.07195 3.16599 6.1229 3.18413 6.18167C3.20227 6.24044 3.20011 6.30361 3.178 6.361C3.126 6.496 3.02 6.515 2.897 6.523C2.59658 6.53389 2.29741 6.56732 2.002 6.623C1.76618 6.69116 1.54344 6.79831 1.343 6.94L1.319 6.958C1.18018 7.06358 1.05519 7.18621 0.946995 7.323L0.939995 7.332C0.749108 7.58598 0.612912 7.87676 0.539995 8.186C0.518279 8.29145 0.504905 8.39845 0.499995 8.506C0.499995 8.6 0.494995 8.686 0.494995 8.769V9.243C0.499662 9.38833 0.511662 9.53333 0.530995 9.678C0.550459 9.81442 0.58397 9.94847 0.630995 10.078C0.65982 10.1582 0.693208 10.2366 0.730995 10.313L0.756995 10.364L0.777995 10.403C0.958372 10.7189 1.21877 10.9817 1.533 11.165L1.565 11.183C1.68392 11.2478 1.80801 11.3027 1.936 11.347C1.971 11.359 2.006 11.369 2.036 11.379C2.18292 11.4193 2.33382 11.4435 2.486 11.451C2.626 11.458 2.767 11.457 2.908 11.457C2.96383 11.4502 3.02031 11.4625 3.06825 11.492C3.11619 11.5214 3.15275 11.5662 3.172 11.619C3.19326 11.671 3.19686 11.7285 3.18222 11.7827C3.16758 11.8369 3.13553 11.8848 3.091 11.919C2.80355 12.1617 2.5757 12.4673 2.425 12.812C2.28847 13.1355 2.23524 13.4881 2.27017 13.8375C2.30511 14.1869 2.42711 14.5219 2.625 14.812C2.64488 14.8463 2.6629 14.8817 2.679 14.918L3.574 15.818C3.87613 16.019 4.21661 16.1552 4.574 16.218C4.89423 16.264 5.22078 16.2355 5.52815 16.1345C5.83553 16.0336 6.11542 15.863 6.346 15.636C6.42188 15.5424 6.50697 15.4566 6.6 15.38C6.63867 15.3542 6.68214 15.3363 6.72783 15.3276C6.77352 15.3188 6.8205 15.3193 6.866 15.329C6.90585 15.3531 6.9404 15.385 6.96756 15.4228C6.99472 15.4606 7.01392 15.5035 7.024 15.549C7.03902 15.659 7.0417 15.7704 7.032 15.881C7.02623 16.3752 7.19636 16.8553 7.51199 17.2356C7.82763 17.6159 8.2682 17.8716 8.755 17.957C8.87619 17.9788 8.99889 17.9912 9.12199 17.994L9.3 18H9.935C10.0721 17.9922 10.2082 17.9728 10.342 17.942C10.4783 17.9031 10.6119 17.8554 10.742 17.799H10.748C11.1017 17.6314 11.402 17.3688 11.6152 17.0406C11.8285 16.7123 11.9465 16.3313 11.956 15.94C11.9463 15.8174 11.949 15.6941 11.964 15.572C11.9689 15.5516 11.9753 15.5315 11.983 15.512L11.991 15.493C12.0145 15.4267 12.0605 15.3708 12.121 15.335C12.1661 15.323 12.2132 15.3208 12.2592 15.3284C12.3052 15.336 12.3491 15.3532 12.388 15.379C12.4349 15.4113 12.4784 15.4481 12.518 15.489C12.7041 15.6698 12.9078 15.8316 13.126 15.972C13.2413 16.035 13.3617 16.0882 13.486 16.131C13.9174 16.2714 14.3829 16.2661 14.811 16.116L14.832 16.109C14.9278 16.0732 15.0214 16.0315 15.112 15.984L15.131 15.974C15.277 15.8933 15.4133 15.796 15.537 15.684L15.686 15.546L16.039 15.193L16.122 15.106C16.3163 14.9007 16.4712 14.6613 16.579 14.4C16.585 14.385 16.592 14.369 16.597 14.353L16.611 14.316C16.624 14.281 16.635 14.246 16.645 14.216C16.7013 14.0271 16.73 13.8311 16.73 13.634V13.584C16.7103 13.0404 16.4872 12.524 16.105 12.137C16.0239 12.0699 15.951 11.9934 15.888 11.909C15.8336 11.8269 15.8139 11.7266 15.833 11.63C15.8598 11.5888 15.8951 11.5538 15.9364 11.5272C15.9778 11.5007 16.0244 11.4832 16.073 11.476C16.3811 11.4617 16.6878 11.4262 16.991 11.37C17.3637 11.2673 17.6997 11.0611 17.9601 10.7752C18.2204 10.4894 18.3944 10.1357 18.462 9.755C18.471 9.717 18.486 9.68 18.499 9.642V8.367C18.4265 8.012 18.2821 7.67592 18.073 7.38ZM17.093 9.352C17.093 9.44452 17.0747 9.53612 17.039 9.6215C17.0034 9.70689 16.9512 9.78437 16.8855 9.84947C16.8198 9.91456 16.7418 9.96597 16.656 10.0007C16.5703 10.0355 16.4785 10.0529 16.386 10.052H16C15.6846 10.063 15.3789 10.1637 15.1187 10.3422C14.8586 10.5208 14.6546 10.7698 14.5309 11.0601C14.4072 11.3504 14.3687 11.6699 14.4201 11.9813C14.4715 12.2926 14.6106 12.5829 14.821 12.818C14.921 12.929 15.029 13.025 15.128 13.132C15.1664 13.1748 15.1999 13.2218 15.228 13.272C15.305 13.4019 15.337 13.5536 15.3189 13.7035C15.3008 13.8534 15.2337 13.9932 15.128 14.101L15.101 14.13L15.071 14.161L15.06 14.172C14.934 14.3053 14.804 14.4357 14.67 14.563L14.606 14.623L14.598 14.63C14.4683 14.7515 14.2972 14.8191 14.1195 14.8191C13.9418 14.8191 13.7707 14.7515 13.641 14.63C13.541 14.543 13.461 14.445 13.366 14.358C13.2094 14.2095 13.0289 14.0884 12.832 14C12.5587 13.8906 12.2611 13.8561 11.97 13.9C11.838 13.9243 11.7089 13.9625 11.585 14.014C11.4573 14.0671 11.3359 14.1342 11.223 14.214C10.9334 14.427 10.7247 14.732 10.631 15.079C10.578 15.3304 10.5546 15.5871 10.561 15.844C10.5592 15.9194 10.5481 15.9943 10.528 16.067C10.5265 16.0788 10.5231 16.0903 10.518 16.101C10.518 16.113 10.518 16.115 10.511 16.122C10.5085 16.1305 10.5055 16.1389 10.502 16.147C10.4995 16.1588 10.4947 16.17 10.488 16.18C10.483 16.191 10.47 16.218 10.461 16.235C10.4319 16.2881 10.3956 16.3369 10.353 16.38L10.328 16.404C10.3113 16.4198 10.2936 16.4345 10.275 16.448L10.246 16.468C10.227 16.48 10.207 16.492 10.187 16.502L10.147 16.521L10.105 16.538L10.078 16.547C10.0133 16.5685 9.94605 16.5813 9.878 16.585H9.238C9.19504 16.5877 9.15195 16.5877 9.109 16.585C8.97126 16.5802 8.83816 16.5341 8.72704 16.4526C8.61591 16.371 8.53192 16.2579 8.486 16.128C8.45949 16.053 8.44465 15.9745 8.442 15.895C8.436 15.748 8.447 15.601 8.442 15.456C8.43487 15.1643 8.34697 14.8804 8.18808 14.6357C8.02919 14.391 7.80554 14.1952 7.542 14.07C7.28085 13.9258 6.9839 13.8594 6.68621 13.8785C6.38852 13.8976 6.10252 14.0016 5.862 14.178C5.69075 14.3101 5.52964 14.4548 5.38 14.611C5.31482 14.6775 5.23703 14.7304 5.15117 14.7664C5.06531 14.8025 4.97312 14.8211 4.88 14.8211C4.78687 14.8211 4.69468 14.8025 4.60882 14.7664C4.52296 14.7304 4.44517 14.6775 4.38 14.611C4.207 14.444 4.036 14.275 3.872 14.101C3.75051 13.9713 3.68291 13.8002 3.68291 13.6225C3.68291 13.4448 3.75051 13.2737 3.872 13.144C3.955 13.053 4.045 12.969 4.131 12.882C4.36086 12.6504 4.51742 12.3563 4.58114 12.0362C4.64486 11.7162 4.61292 11.3845 4.48929 11.0826C4.36567 10.7806 4.15584 10.5217 3.886 10.3383C3.61616 10.1548 3.29827 10.0549 2.972 10.051H2.62C2.52773 10.0497 2.43638 10.0324 2.35 10C2.2526 9.96355 2.16497 9.90501 2.094 9.829L2.085 9.82C2.01588 9.74722 1.96634 9.65811 1.941 9.561L1.935 9.54C1.91783 9.47705 1.90842 9.41223 1.907 9.347C1.90233 9.16433 1.9 8.982 1.9 8.8V8.62C1.90159 8.54501 1.91509 8.47075 1.94 8.4C1.98825 8.26195 2.07853 8.14248 2.19816 8.05836C2.31779 7.97424 2.46076 7.9297 2.607 7.931C2.753 7.931 2.901 7.938 3.046 7.931C3.12016 7.92512 3.19394 7.9151 3.267 7.901L3.312 7.9C3.348 7.893 3.383 7.885 3.417 7.875L3.457 7.864L3.535 7.839L3.575 7.824L3.622 7.8L3.658 7.785C3.69 7.771 3.722 7.755 3.758 7.739L3.788 7.723L3.797 7.718L3.828 7.7L3.863 7.679H3.87C3.894 7.663 3.919 7.646 3.942 7.629L3.977 7.6L4.01 7.573L4.017 7.567L4.047 7.54L4.081 7.509L4.114 7.477C4.136 7.455 4.157 7.432 4.177 7.408L4.208 7.372C4.24897 7.32224 4.28703 7.27015 4.322 7.216L4.349 7.173L4.37 7.137L4.39 7.1C4.42 7.044 4.448 6.985 4.474 6.924C4.49786 6.8681 4.51888 6.81102 4.537 6.753C4.546 6.725 4.554 6.696 4.562 6.668C4.59849 6.53334 4.61731 6.39451 4.618 6.255V6.222C4.61817 6.22 4.61817 6.218 4.618 6.216C4.61815 6.21367 4.61815 6.21133 4.618 6.209V6.118C4.61875 6.1025 4.61706 6.08698 4.613 6.072C4.60588 6.05201 4.60151 6.03116 4.6 6.01V5.957C4.55848 5.77032 4.4847 5.59232 4.382 5.431L4.347 5.4C4.30966 5.344 4.26933 5.28967 4.226 5.237L4.22 5.23C4.155 5.153 4.085 5.081 4.014 5.009C3.97 4.966 3.926 4.923 3.884 4.878C3.76392 4.76 3.69106 4.60221 3.67909 4.43429C3.66712 4.26636 3.71687 4.09984 3.819 3.966C3.84034 3.9364 3.86373 3.90833 3.889 3.882C4.05033 3.71267 4.217 3.546 4.389 3.382L4.41 3.362L4.421 3.353L4.444 3.334L4.461 3.321L4.469 3.315L4.5 3.289L4.508 3.283L4.529 3.27L4.55 3.258L4.56899 3.247L4.591 3.236C4.60557 3.22871 4.6206 3.22236 4.636 3.217L4.659 3.209L4.682 3.2L4.74 3.185H4.767L4.807 3.179H4.94399C4.96114 3.18014 4.97818 3.18248 4.995 3.186H5.014L5.042 3.192L5.075 3.201L5.1 3.21L5.132 3.222L5.164 3.236L5.195 3.251L5.226 3.268C5.24678 3.27975 5.26682 3.29278 5.286 3.307C5.30579 3.32132 5.32482 3.33667 5.343 3.353L5.371 3.378C5.464 3.467 5.55 3.564 5.646 3.65C5.71389 3.71097 5.78571 3.76742 5.861 3.819L5.888 3.838L5.95 3.878C5.987 3.9 6.023 3.921 6.061 3.94L6.123 3.97L6.155 3.984L6.19399 4L6.227 4.013L6.287 4.035L6.352 4.055L6.384 4.064L6.448 4.079L6.48 4.086L6.545 4.097L6.6 4.1H6.927H7.002L7.074 4.087H7.087L7.187 4.064L7.238 4.05L7.279 4.037L7.327 4.021L7.364 4L7.4 3.984H7.406L7.467 3.959L7.532 3.929L7.563 3.914L7.587 3.9L7.607 3.889L7.627 3.878L7.641 3.87H7.649L7.67 3.858L7.68 3.852H7.686L7.726 3.827L7.736 3.821L7.777 3.794L7.825 3.759L7.861 3.731L7.886 3.711C8.1661 3.46834 8.35106 3.1342 8.408 2.768C8.43538 2.55348 8.44675 2.33721 8.442 2.121V1.994C8.44122 1.98536 8.44295 1.97668 8.447 1.969C8.4514 1.9563 8.45475 1.94325 8.457 1.93C8.46824 1.8922 8.48263 1.85541 8.5 1.82C8.50809 1.80221 8.5171 1.78485 8.527 1.768L8.542 1.744L8.554 1.725L8.568 1.706C8.576 1.694 8.585 1.683 8.594 1.672C8.603 1.661 8.622 1.64 8.637 1.625C8.652 1.61 8.664 1.599 8.678 1.587L8.7 1.566C8.71691 1.5517 8.7346 1.53834 8.753 1.526L8.781 1.508L8.81 1.491L8.847 1.473L8.87 1.463C8.88926 1.45492 8.90896 1.44791 8.929 1.442L8.95899 1.433C9.02126 1.41595 9.08544 1.40687 9.14999 1.406H9.2C9.394 1.4 9.59 1.4 9.784 1.406H9.87C9.90589 1.40696 9.94166 1.41063 9.977 1.417L10.005 1.423L10.037 1.431C10.184 1.46907 10.3144 1.55458 10.4078 1.67427C10.5013 1.79396 10.5527 1.94114 10.554 2.093C10.56 2.239 10.554 2.386 10.554 2.532C10.5654 2.79837 10.6419 3.0579 10.7766 3.28798C10.9113 3.51805 11.1003 3.71168 11.327 3.852C11.4081 3.90063 11.493 3.94244 11.581 3.977C11.7631 4.0509 11.9559 4.09481 12.152 4.107C12.4467 4.11643 12.7382 4.04372 12.994 3.897C13.1899 3.7723 13.3702 3.62458 13.531 3.457C13.557 3.43 13.584 3.404 13.612 3.378C13.6772 3.31148 13.755 3.25863 13.8408 3.22256C13.9267 3.18648 14.0189 3.1679 14.112 3.1679C14.2051 3.1679 14.2973 3.18648 14.3832 3.22256C14.469 3.25863 14.5468 3.31148 14.612 3.378L14.638 3.403C14.776 3.53633 14.9113 3.66967 15.044 3.803C15.0741 3.83167 15.1024 3.86205 15.129 3.894L15.139 3.906C15.2143 3.9915 15.2671 4.09444 15.2926 4.2055C15.3181 4.31655 15.3155 4.43221 15.285 4.542C15.2498 4.66212 15.1859 4.77192 15.099 4.862C14.999 4.969 14.887 5.062 14.792 5.176C14.5928 5.39008 14.4571 5.65536 14.4 5.94216C14.343 6.22897 14.3669 6.52599 14.469 6.8C14.5531 7.08341 14.7159 7.33717 14.9384 7.53186C15.1608 7.72655 15.4339 7.85419 15.726 7.9C15.9405 7.92756 16.1568 7.93893 16.373 7.934C16.5586 7.934 16.7367 8.00775 16.868 8.13903C16.9992 8.2703 17.073 8.44835 17.073 8.634C17.0777 8.868 17.0777 9.10133 17.073 9.334L17.093 9.352Z" fill="white"/>
<path d="M9.50001 5.20001C8.74844 5.20001 8.01375 5.42288 7.38885 5.84043C6.76394 6.25798 6.27688 6.85146 5.98927 7.54582C5.70166 8.24017 5.62641 9.00423 5.77303 9.74136C5.91965 10.4785 6.28157 11.1556 6.81301 11.687C7.34445 12.2185 8.02154 12.5804 8.75867 12.727C9.4958 12.8736 10.2599 12.7984 10.9542 12.5108C11.6486 12.2231 12.242 11.7361 12.6596 11.1112C13.0771 10.4863 13.3 9.75158 13.3 9.00001C13.3 7.99219 12.8997 7.02564 12.187 6.31301C11.4744 5.60037 10.5078 5.20001 9.50001 5.20001ZM9.50001 11.5C9.00556 11.5 8.52221 11.3534 8.11109 11.0787C7.69997 10.804 7.37953 10.4135 7.19031 9.95672C7.0011 9.49991 6.95159 8.99724 7.04805 8.51229C7.14451 8.02733 7.38262 7.58188 7.73225 7.23225C8.08188 6.88261 8.52734 6.64451 9.01229 6.54805C9.49724 6.45159 9.99991 6.50109 10.4567 6.69031C10.9135 6.87953 11.304 7.19996 11.5787 7.61109C11.8534 8.02221 12 8.50556 12 9.00001C12 9.32832 11.9353 9.65341 11.8097 9.95672C11.6841 10.26 11.4999 10.5356 11.2678 10.7678C11.0356 10.9999 10.76 11.1841 10.4567 11.3097C10.1534 11.4353 9.82832 11.5 9.50001 11.5Z" fill="white"/>
</g>
<defs>
<clipPath id="clip0_1_2536">
<rect width="18" height="18" fill="white" transform="translate(0.5)"/>
</clipPath>
</defs>
</svg>
