<svg width="25" height="24" viewBox="0 0 25 24" fill="none" xmlns="http://www.w3.org/2000/svg">
<g clip-path="url(#clip0_1_2525)">
<path d="M13.558 11.131C13.3496 9.6145 12.6175 8.21865 11.4884 7.18504C10.3594 6.15143 8.90445 5.54512 7.37553 5.47107C5.84661 5.39701 4.33991 5.85987 3.11626 6.77953C1.89261 7.69919 1.02902 9.01775 0.675 10.507C0.638837 10.7796 0.580307 11.0489 0.5 11.312L0.5 11.544C0.50719 11.5495 0.513006 11.5566 0.516995 11.5648C0.520984 11.5729 0.523039 11.5819 0.523 11.591C0.523039 11.6 0.520984 11.609 0.516995 11.6171C0.513006 11.6253 0.50719 11.6324 0.5 11.638L0.5 12.389C0.50719 12.3945 0.513006 12.4016 0.516995 12.4098C0.520984 12.4179 0.523039 12.4269 0.523 12.436C0.523039 12.445 0.520984 12.454 0.516995 12.4621C0.513006 12.4703 0.50719 12.4774 0.5 12.483V12.715C0.565574 12.8765 0.603764 13.0479 0.613 13.222C0.93268 14.8993 1.89389 16.3859 3.29235 17.3657C4.6908 18.3455 6.41624 18.7414 8.10194 18.4691C9.78765 18.1968 11.3007 17.2778 12.3196 15.9076C13.3384 14.5373 13.7827 12.8237 13.558 11.131ZM11.743 12.02C11.7434 12.9465 11.4691 13.8523 10.9547 14.6229C10.4403 15.3936 9.70898 15.9944 8.85318 16.3494C7.99738 16.7044 7.05552 16.7977 6.1467 16.6175C5.23788 16.4373 4.40289 15.9916 3.74733 15.3369C3.09176 14.6821 2.64504 13.8477 2.46366 12.9391C2.28227 12.0306 2.37436 11.0886 2.72829 10.2323C3.08221 9.37606 3.68208 8.64397 4.45204 8.12861C5.222 7.61324 6.12748 7.33775 7.054 7.33696C7.66941 7.33643 8.2789 7.45716 8.84764 7.69224C9.41638 7.92733 9.93323 8.27216 10.3687 8.70704C10.8041 9.14193 11.1496 9.65834 11.3854 10.2268C11.6212 10.7952 11.7427 11.4045 11.743 12.02Z" fill="#FF5A00"/>
<path d="M24.437 18.73C24.2955 17.6347 23.7724 16.6243 22.9595 15.8766C22.1467 15.1289 21.0963 14.6917 19.993 14.642C19.3207 14.6116 18.6499 14.728 18.0272 14.983C17.4045 15.2381 16.8447 15.6257 16.387 16.119C16.3745 16.1398 16.3574 16.1575 16.3371 16.1707C16.3167 16.184 16.2936 16.1924 16.2695 16.1954C16.2454 16.1984 16.221 16.1958 16.198 16.188C16.1751 16.1801 16.1542 16.1671 16.137 16.15C15.855 15.981 15.574 15.818 15.286 15.662C15.179 15.6008 15.061 15.5612 14.9388 15.5458C14.8165 15.5303 14.6924 15.5391 14.5736 15.5718C14.4547 15.6044 14.3435 15.6602 14.2463 15.736C14.1492 15.8118 14.0679 15.9061 14.0073 16.0133C13.9466 16.1206 13.9078 16.2389 13.893 16.3612C13.8783 16.4836 13.8878 16.6076 13.9211 16.7263C13.9545 16.8449 14.0109 16.9558 14.0873 17.0525C14.1636 17.1493 14.2583 17.23 14.366 17.29C14.616 17.44 14.873 17.597 15.136 17.728C15.305 17.809 15.336 17.897 15.28 18.085C14.9683 19.2244 15.0989 20.4396 15.6457 21.4867C16.1924 22.5338 17.1149 23.3355 18.228 23.731C18.56 23.844 18.904 23.881 19.228 24H20.261C20.349 23.912 20.468 23.962 20.568 23.937C21.7628 23.7413 22.8346 23.0886 23.5566 22.1168C24.2787 21.145 24.5944 19.9304 24.437 18.73ZM19.8 22.135C19.2441 22.1372 18.7 21.9745 18.2365 21.6674C17.7731 21.3604 17.4111 20.9229 17.1963 20.4101C16.9815 19.8974 16.9236 19.3324 17.0298 18.7868C17.1361 18.2411 17.4017 17.7392 17.7932 17.3445C18.1847 16.9498 18.6844 16.68 19.2292 16.5693C19.774 16.4586 20.3394 16.5119 20.8539 16.7225C21.3683 16.9331 21.8088 17.2915 22.1196 17.7524C22.4304 18.2134 22.5976 18.7561 22.6 19.312C22.6016 19.6812 22.5304 20.0472 22.3905 20.3889C22.2506 20.7306 22.0448 21.0414 21.7848 21.3036C21.5248 21.5657 21.2157 21.7741 20.8751 21.9167C20.5345 22.0594 20.1692 22.1336 19.8 22.135Z" fill="#FF5A00"/>
<path d="M24.425 3.96899C24.3033 3.11766 23.942 2.31847 23.3834 1.66461C22.8248 1.01075 22.0919 0.529159 21.27 0.27599C20.4576 -0.02557 19.5745 -0.0813075 18.7307 0.115729C17.8869 0.312765 17.1198 0.753855 16.525 1.38399C15.9106 1.95806 15.4699 2.69329 15.2533 3.50577C15.0367 4.31825 15.0529 5.17525 15.3 5.97899C15.344 6.13499 15.319 6.21099 15.175 6.28599C14.9 6.42399 14.63 6.58599 14.361 6.74899C14.2533 6.809 14.1586 6.8897 14.0823 6.98645C14.0059 7.0832 13.9495 7.19408 13.9161 7.31273C13.8828 7.43137 13.8733 7.55544 13.888 7.67779C13.9028 7.80013 13.9416 7.91835 14.0023 8.02565C14.0629 8.13294 14.1441 8.22719 14.2413 8.30297C14.3385 8.37875 14.4497 8.43457 14.5686 8.46723C14.6874 8.49988 14.8115 8.50871 14.9338 8.49323C15.056 8.47774 15.174 8.43824 15.281 8.37699C15.557 8.23299 15.826 8.07699 16.095 7.91399C16.233 7.82599 16.314 7.83299 16.439 7.96399C17.086 8.64222 17.9223 9.1099 18.8389 9.3061C19.7555 9.5023 20.71 9.41793 21.578 9.06399C22.4427 8.70515 23.1814 8.09777 23.7007 7.31877C24.22 6.53977 24.4964 5.6242 24.495 4.68799C24.4925 4.44675 24.4691 4.20618 24.425 3.96899ZM19.805 7.51799C19.2481 7.52017 18.7031 7.35688 18.2391 7.04884C17.7752 6.7408 17.4132 6.30189 17.1991 5.7878C16.985 5.27371 16.9284 4.70761 17.0365 4.1613C17.1446 3.615 17.4125 3.11312 17.8063 2.71933C18.2001 2.32555 18.702 2.0576 19.2483 1.94949C19.7946 1.84138 20.3607 1.89797 20.8748 2.11209C21.3889 2.32621 21.8278 2.68821 22.1358 3.15216C22.4439 3.6161 22.6071 4.1611 22.605 4.71799C22.6021 5.4597 22.3061 6.17021 21.7817 6.69469C21.2572 7.21916 20.5467 7.51509 19.805 7.51799Z" fill="#FF5A00"/>
<path d="M7.05399 9.20698C6.49867 9.20877 5.95635 9.37517 5.49559 9.68515C5.03483 9.99513 4.67633 10.4348 4.46541 10.9485C4.2545 11.4622 4.20065 12.0269 4.31066 12.5712C4.42067 13.1156 4.68961 13.615 5.08347 14.0065C5.47733 14.398 5.97843 14.6639 6.5234 14.7706C7.06838 14.8774 7.63276 14.8201 8.14519 14.6061C8.65762 14.392 9.09508 14.0309 9.40227 13.5683C9.70946 13.1056 9.87257 12.5623 9.871 12.007C9.86995 11.6381 9.79624 11.2731 9.65409 10.9328C9.51195 10.5924 9.30414 10.2834 9.04254 10.0234C8.78095 9.7634 8.47069 9.55746 8.12949 9.41738C7.78829 9.27729 7.42283 9.2058 7.05399 9.20698ZM7.06699 12.95C6.88176 12.952 6.7001 12.8989 6.54502 12.7976C6.38995 12.6963 6.26843 12.5512 6.19585 12.3808C6.12327 12.2103 6.1029 12.0222 6.13732 11.8401C6.17173 11.6581 6.25938 11.4904 6.38918 11.3582C6.51897 11.2261 6.68507 11.1354 6.86643 11.0976C7.0478 11.0599 7.23628 11.0769 7.40801 11.1463C7.57974 11.2158 7.727 11.3347 7.83113 11.4879C7.93527 11.6411 7.9916 11.8217 7.99299 12.007C7.99486 12.2547 7.89844 12.4931 7.72487 12.6698C7.55129 12.8466 7.31472 12.9473 7.06699 12.95Z" fill="#FF5A00"/>
<path d="M20.732 19.318C20.7327 19.5326 20.6589 19.7408 20.5234 19.9073C20.3879 20.0737 20.199 20.1881 19.9887 20.231C19.7784 20.2739 19.5597 20.2426 19.3698 20.1425C19.18 20.0425 19.0306 19.8797 18.9471 19.682C18.8637 19.4842 18.8513 19.2637 18.912 19.0579C18.9727 18.852 19.1029 18.6735 19.2803 18.5527C19.4577 18.432 19.6715 18.3764 19.8853 18.3954C20.0991 18.4144 20.2997 18.5068 20.453 18.657C20.5407 18.7434 20.6105 18.8463 20.6584 18.9597C20.7062 19.0731 20.7313 19.1949 20.732 19.318Z" fill="#FF5A00"/>
<path d="M20.732 4.70699C20.7326 4.89211 20.6783 5.07325 20.5759 5.22751C20.4735 5.38176 20.3277 5.5022 20.1569 5.57359C19.9861 5.64498 19.798 5.66412 19.6163 5.62858C19.4346 5.59305 19.2676 5.50444 19.1363 5.37396C19.0049 5.24348 18.9153 5.07698 18.8786 4.89553C18.8419 4.71408 18.8598 4.52583 18.9301 4.35457C19.0004 4.18331 19.1199 4.03675 19.2735 3.9334C19.4271 3.83006 19.6079 3.77459 19.793 3.77399C19.9159 3.7736 20.0377 3.79742 20.1514 3.84409C20.2651 3.89077 20.3685 3.95938 20.4557 4.04602C20.5429 4.13265 20.6122 4.23562 20.6596 4.34903C20.707 4.46244 20.7316 4.58407 20.732 4.70699Z" fill="#FF5A00"/>
</g>
<defs>
<clipPath id="clip0_1_2525">
<rect width="23.995" height="24" fill="white" transform="translate(0.5)"/>
</clipPath>
</defs>
</svg>
