<svg xmlns="http://www.w3.org/2000/svg" width="23.995" height="24" viewBox="0 0 23.995 24">
  <g id="share_icon" transform="translate(0 0.007)">
    <path id="Path_2426" data-name="Path 2426" d="M13.058,11.124A6.561,6.561,0,0,0,.175,10.5,5.016,5.016,0,0,1,0,11.305v.232a.059.059,0,0,1,.023.047A.059.059,0,0,1,0,11.631v.751a.059.059,0,0,1,.023.047A.059.059,0,0,1,0,12.476v.232a1.569,1.569,0,0,1,.113.507,6.559,6.559,0,0,0,12.945-2.091Zm-1.815.889A4.685,4.685,0,1,1,6.554,7.33a4.685,4.685,0,0,1,4.689,4.683Z" fill="#3a8bc3"/>
    <path id="Path_2427" data-name="Path 2427" d="M23.937,18.723a4.694,4.694,0,0,0-4.444-4.088,4.634,4.634,0,0,0-3.606,1.477.16.16,0,0,1-.25.031c-.282-.169-.563-.332-.851-.488a.935.935,0,1,0-.92,1.628c.25.15.507.307.77.438.169.081.2.169.144.357a4.681,4.681,0,0,0,2.948,5.646c.332.113.676.15,1,.269h1.033c.088-.088.207-.038.307-.063a4.662,4.662,0,0,0,3.869-5.207ZM19.3,22.128a2.811,2.811,0,1,1,2.8-2.823,2.811,2.811,0,0,1-2.8,2.823Z" fill="#3a8bc3"/>
    <path id="Path_2428" data-name="Path 2428" d="M23.925,3.962A4.536,4.536,0,0,0,20.77.269a4.413,4.413,0,0,0-4.745,1.108A4.485,4.485,0,0,0,14.8,5.972c.044.156.019.232-.125.307-.275.138-.545.3-.814.463a.935.935,0,1,0,.92,1.628c.276-.144.545-.3.814-.463.138-.088.219-.081.344.05a4.667,4.667,0,0,0,5.139,1.1,4.73,4.73,0,0,0,2.917-4.376,4.163,4.163,0,0,0-.07-.719Zm-4.62,3.549a2.811,2.811,0,1,1,2.8-2.8,2.811,2.811,0,0,1-2.8,2.8Z" fill="#3a8bc3"/>
    <path id="Path_2429" data-name="Path 2429" d="M6.554,9.2A2.808,2.808,0,1,0,9.371,12,2.808,2.808,0,0,0,6.554,9.2Zm.013,3.743A.936.936,0,1,1,7.493,12a.936.936,0,0,1-.926.943Z" fill="#3a8bc3"/>
    <path id="Path_2430" data-name="Path 2430" d="M20.232,19.311a.929.929,0,1,1-.279-.661.936.936,0,0,1,.279.661Z" fill="#3a8bc3"/>
    <path id="Path_2431" data-name="Path 2431" d="M20.232,4.7a.936.936,0,1,1-.939-.933.936.936,0,0,1,.939.933Z" fill="#3a8bc3"/>
  </g>
</svg>
