<svg xmlns="http://www.w3.org/2000/svg" width="323.796" height="448.944" viewBox="0 0 323.796 448.944">
  <g id="splash_logo" transform="translate(0.022 0.004)">
    <g id="LeaWIN" transform="translate(-0.022 -0.004)">
      <path id="Path_5592" data-name="Path 5592" d="M210.876,99.719v97.027c0,.607.013,1.221-.039,1.828a3.006,3.006,0,0,1-1.137,2.164c-5.142,4.3-10.291,8.6-15.478,12.855-4.754,3.9-9.431,7.887-14.141,11.828-6.5,5.439-12.952,10.93-19.509,16.292s-13.023,10.82-19.547,16.221c-6.234,5.161-12.526,10.252-18.675,15.51-4.419,3.779-9.076,7.287-13.243,11.356a17.739,17.739,0,0,0-4.981,8.714,14.924,14.924,0,0,0,2.209,12.028,11.976,11.976,0,0,0,7.209,4.942c4.981,1.357,10.019.917,15.051.614,3.676-.22,7.358-.6,10.988-1.066a89.151,89.151,0,0,1,14.134-.3,60.381,60.381,0,0,1,8.191.84c2.552.433,5.116.943,7.623,1.615A66.011,66.011,0,0,1,182.2,316.77c2.326,1.163,4.664,2.293,6.912,3.6a66.1,66.1,0,0,1,8.747,6.234,16.288,16.288,0,0,1,2.261,2.067c2.106,2.519,1.964,4.9-.317,7.319a3.839,3.839,0,0,1-4.057,1.176,6.215,6.215,0,0,1-2.254-1.357,75.3,75.3,0,0,0-9.9-7.241c-1.912-1.13-3.889-2.158-5.9-3.127-2.435-1.169-4.993-2-7.493-2.978a18.322,18.322,0,0,0-3.34-.956c-2.422-.433-4.851-.9-7.28-1.3-6.712-1.092-13.443-.633-20.161-.691a31.412,31.412,0,0,0-5.465.323c-3.146.53-6.363.342-9.457.9a34.181,34.181,0,0,1-8.223.355,26.5,26.5,0,0,1-5.988-1.15,26.958,26.958,0,0,1-5.045-1.99,20.568,20.568,0,0,1-6.841-6.033c-2.565-3.469-3.811-7.468-4.722-11.57a33.428,33.428,0,0,1-.943-7.222V243.069q0-71.433-.032-142.872a4.374,4.374,0,0,1,1.712-3.844c4.328-3.462,8.566-7.035,12.823-10.588,4.5-3.76,8.979-7.558,13.482-11.318,4.225-3.521,8.482-7,12.713-10.5Q142.2,56.687,150.948,49.4c4.431-3.7,8.837-7.429,13.275-11.117,4.36-3.63,8.76-7.209,13.12-10.84,4.044-3.359,8.049-6.763,12.086-10.129,4.393-3.663,8.824-7.28,13.21-10.949,2.319-1.938,4.593-3.928,6.873-5.9.291-.252.562-.575.963-.433.433.155.368.607.381.969.019.465.006.937.006,1.408V99.719Z" transform="translate(-32.803 0.004)" fill="#fff"/>
      <path id="Path_5593" data-name="Path 5593" d="M133.01,315.774a16.673,16.673,0,0,1,2.655-2.429c3.811-3.2,7.661-6.35,11.486-9.528q6.482-5.388,12.952-10.8,6.211-5.174,12.429-10.342L185.5,271.879q3.479-2.9,6.957-5.794,4.554-3.779,9.115-7.552,8.362-6.948,16.718-13.9,7.558-6.289,15.122-12.571a3.939,3.939,0,0,0,1.55-3.01c.026-.7.032-1.408.032-2.106q0-70.735-.013-141.464c0-.472-.006-.937,0-1.408.032-1.266.3-1.57,1.576-1.925,2.455-.691,4.845-1.576,7.274-2.332,2.08-.652,4.167-1.292,6.247-1.957,2.293-.736,4.645-1.324,6.867-2.261a1.85,1.85,0,0,1,.265-.1c2.177-.756,2.539-.5,2.539,1.77V272.732c0,2.6.22,2.377-2.72,3.391-2.364.814-4.742,1.6-7.125,2.326-2.132.652-4.225,1.408-6.369,2.028-2.177.633-4.315,1.415-6.466,2.151-1.008.349-2.054.556-3.062.937-2.17.814-4.464,1.285-6.641,2.08-2.041.749-4.134,1.357-6.189,2.067-2.009.691-4.063,1.3-6.1,1.931-2.345.73-4.664,1.563-7,2.306-1.059.336-2.125.665-3.191,1-3.314,1.04-6.608,2.145-9.909,3.223-2.112.691-4.244,1.35-6.382,2-2.261.685-4.477,1.518-6.731,2.235-1.014.323-2.041.633-3.062.95-3.359,1.046-6.692,2.177-10.039,3.269-2.158.7-4.354,1.331-6.512,2.048-2.2.724-4.425,1.376-6.608,2.151-1.26.446-2.552.859-3.85,1.227-2.132.614-4.225,1.363-6.324,2.087-.963.329-1.951.633-2.913.924-2.177.659-4.309,1.486-6.518,2.022-.93.226-1.718.975-3.01.685Z" transform="translate(-47.074 -26.59)" fill="#fff"/>
      <path id="Path_5594" data-name="Path 5594" d="M145.21,350.731c.749-.736,1.712-.717,2.481-1.034,1.925-.788,3.986-1.253,5.962-1.938,2.28-.788,4.632-1.369,6.886-2.242.988-.381,2.028-.691,3.049-.988,2.629-.775,5.226-1.654,7.823-2.513,2.074-.685,4.2-1.227,6.253-1.964,3.017-1.079,6.111-1.906,9.121-3,2-.73,4.083-1.273,6.111-1.944,2.377-.782,4.774-1.512,7.151-2.306,2.022-.678,4.076-1.292,6.1-1.964,2.248-.743,4.548-1.324,6.751-2.209,1.027-.413,2.138-.614,3.2-.982,3.378-1.169,6.822-2.145,10.2-3.32,3.03-1.053,6.156-1.815,9.173-2.888s6.1-1.977,9.134-2.991c2.151-.717,4.341-1.376,6.505-2.074,2.074-.672,4.18-1.24,6.2-2.074.982-.407,2.048-.588,3.068-.937,3.075-1.059,6.221-1.906,9.309-2.946.885-.3,1.783-.536,2.655-.846a2.038,2.038,0,0,0,1.57-2.067c-.013-.607.006-1.221.006-1.828v-152.3c0-2.636-.187-2.448,2.422-2.448h19.263a2.005,2.005,0,0,1,2.235,2.293v195.61c-.013,2.067-.084,2.145-2.132,2.145H146.935a3.144,3.144,0,0,1-1.725-.239Z" transform="translate(-51.393 -53.428)" fill="#fff"/>
      <path id="Path_5595" data-name="Path 5595" d="M102.859,635.768a39.86,39.86,0,0,1,4.89-2.739A14.155,14.155,0,0,1,110.772,632c1.912-.394,3.818-.872,5.717-1.3,2.171-.484,4.367-.891,6.531-1.389q3.808-.872,7.552-1.951c.7-.207,1.357-.594,2.061-.853a1.558,1.558,0,0,0,.885-1.763c-.31-1.931-1.828-4.063-3.96-4.083a3.068,3.068,0,0,1-1.634-.329,1.592,1.592,0,0,0-1.1-.168c-3.217.536-6.5.891-8.294,4.283-.717,1.357-2.145,1.667-3.824,1.066a4.644,4.644,0,0,0-1.35-.329c-2.009-.1-4.044-.065-6.027-.355-1.609-.233-3.217-.446-4.819-.711-1.26-.213-1.6-.833-1.447-2.125a7.546,7.546,0,0,1,.911-2.5,14.988,14.988,0,0,1,8.256-7.552,42.339,42.339,0,0,1,8.43-1.751,57.824,57.824,0,0,1,11.176-.433,50.351,50.351,0,0,1,8.185.885,16.439,16.439,0,0,1,8.824,4.483,13.781,13.781,0,0,1,3.088,5.588c1.085,3.45,1.085,7,1.13,10.562.013,1.266.045,2.532.013,3.8-.123,4.683.31,9.36.3,14.044a20.983,20.983,0,0,0,1.408,7.409c.388,1.034.252,1.253-.866,1.26q-7.238.029-14.483,0c-1.3,0-1.68-.342-1.828-1.628a24.765,24.765,0,0,0-.678-2.577c-.149-.64-.433-1.014-1.182-.5-.575.394-1.169.762-1.757,1.143a26.931,26.931,0,0,1-7.959,3.592,29.992,29.992,0,0,1-12.648.446,14.416,14.416,0,0,1-10.995-7.732c-.084-.168-.168-.336-.265-.5-.646-1.053-1.008-1.1-1.744-.161a23.356,23.356,0,0,1-8.546,6.6,15.41,15.41,0,0,1-2.9.956,34.748,34.748,0,0,1-8.282,1.2,74.347,74.347,0,0,1-10.11-.31c-5.84-.807-11.02-3-14.845-7.739-.465-.581-.988-1.111-1.479-1.673-.181-.207-.317-.523-.652-.4-.31.116-.317.446-.323.724-.013,1.6-.019,3.185-.019,4.78,0,.794.019,1.6-.006,2.39-.039,1.182-.213,1.337-1.428,1.389-.278.013-.562,0-.846,0H2.1A1.873,1.873,0,0,1-.021,655.69v-60.9c0-.329.019-.659,0-.982a.994.994,0,0,1,.988-1.124,7.1,7.1,0,0,1,.982-.078H17.983a6.419,6.419,0,0,1,.7.026c1.059.129,1.24.336,1.292,1.447.019.42,0,.846,0,1.266v43.6a2.068,2.068,0,0,0,2.345,2.326H46.652c.375,0,.749-.013,1.124-.013.652,0,.93-.355.9-.982a13.783,13.783,0,0,0-.168-2.377,21.268,21.268,0,0,1-.052-7.8,23.6,23.6,0,0,1,1.931-7,19.6,19.6,0,0,1,6.854-8.288,31.445,31.445,0,0,1,7.61-3.7c1.576-.51,3.223-.517,4.774-.924a25.952,25.952,0,0,1,8.637-.394c5.316.394,10.555,1.421,15.051,4.522a20.052,20.052,0,0,1,5.368,5.846,25.961,25.961,0,0,1,2.875,6.964,33.673,33.673,0,0,1,.833,5.536,22.679,22.679,0,0,0,.446,3.114ZM83.5,638.417q-7.732,0-15.458,0c-1.57,0-1.841.349-1.415,1.86a11.778,11.778,0,0,0,2.216,4.5,9.175,9.175,0,0,0,11.834,1.583c1.983-1.408,3.953-2.648,6.512-2.254a37.228,37.228,0,0,0,4.483.233,3.306,3.306,0,0,1,1.111.11c1.809.749,3.7.355,5.549.452.446.026.924-.11.93-.64.019-1.524.84-2.868.943-4.373.1-1.453.136-1.466-1.389-1.473q-7.665-.01-15.323,0ZM133.64,638c.052-2.138-.22-2.384-2.093-2.08a3.866,3.866,0,0,0-1.357.317,14.542,14.542,0,0,1-3.837,1.176,47.57,47.57,0,0,0-5.762,2.035,4.992,4.992,0,0,0-2.261,1.809c-1.873,2.668-.562,6.6,2.442,7.19a8.545,8.545,0,0,0,3.637.22,16.079,16.079,0,0,0,3.986-1.137,9.114,9.114,0,0,0,3.76-3.437c1.176-1.938,1.253-4.16,1.486-6.085Zm-58.352-8.6v-.013c2.481,0,4.968.013,7.448,0,1.324-.006,1.576-.3,1.311-1.608a8.486,8.486,0,0,0-.691-2.132,9.285,9.285,0,0,0-3.753-4.154c-1.822-1.047-3.7-.775-5.594-.827a4.682,4.682,0,0,0-2.2.413,9.289,9.289,0,0,0-5.11,6.789c-.245,1.189.032,1.531,1.266,1.537,2.435.019,4.871,0,7.313,0Z" transform="translate(0.022 -209.791)" fill="#fff"/>
      <path id="Path_5596" data-name="Path 5596" d="M316.319,603.946a23.712,23.712,0,0,0-.853,3.495c-.523,1.938-.73,3.966-1.3,5.885-.53,1.8-.807,3.643-1.221,5.459a53.283,53.283,0,0,0-1.273,5.885,29.394,29.394,0,0,1-.917,3.947c-.5,1.951-.7,3.953-1.273,5.885a39.109,39.109,0,0,0-1.072,4.787c-.3,1.9-.775,3.76-1.169,5.627-.775,3.656-1.634,7.3-2.4,10.969-.342,1.654-.659,1.919-2.351,1.919H286.183c-1.518,0-1.744-.026-2.067-1.518-.549-2.519-1.389-4.955-2.041-7.442-.433-1.66-.95-3.32-1.369-4.974-.594-2.358-1.311-4.683-1.925-7.035-.7-2.707-1.525-5.381-2.235-8.081-.652-2.487-1.473-4.929-2.041-7.442a14.21,14.21,0,0,0-1.35-3.559,24.613,24.613,0,0,0-.885,2.713c-.556,2.61-1.376,5.148-2.054,7.713-.607,2.293-1.189,4.606-1.944,6.867-.5,1.505-.846,3.062-1.26,4.6-.7,2.558-1.4,5.123-2.093,7.681-.452,1.667-.872,3.346-1.331,5.013-.407,1.479-.853,2.952-1.279,4.425a1.285,1.285,0,0,1-1.421,1.046c-5.769-.026-11.531-.006-17.3-.019-1.13,0-1.434-.265-1.744-1.6-.3-1.273-.556-2.558-.846-3.831-.329-1.453-.64-2.913-.969-4.373-.523-2.319-1.047-4.645-1.512-6.977-.349-1.738-.807-3.456-1.13-5.2-.368-1.97-.885-3.915-1.318-5.872-.413-1.867-.879-3.727-1.169-5.62-.207-1.35-.665-2.629-.956-3.947a52.888,52.888,0,0,0-1.279-5.736,32.108,32.108,0,0,1-.879-3.96,45.159,45.159,0,0,1-1.176-5.478,24.385,24.385,0,0,0-.9-3.811,51.2,51.2,0,0,0-1.273-5.594c-.032-.09-.052-.181-.078-.271-.691-2.565-.394-2.952,2.235-2.952h14.483c1.822,0,2.009.149,2.326,1.886.672,3.727,1.311,7.461,2.015,11.182s1.57,7.4,2.171,11.137c.342,2.125.859,4.212,1.1,6.363.181,1.6.672,3.165,1.085,5.052a15.627,15.627,0,0,0,1.137-3.714c.614-2.539,1.505-5,2.048-7.571.478-2.274,1.357-4.464,1.931-6.718.413-1.628.988-3.211,1.344-4.864.329-1.544.853-3.049,1.285-4.574.355-1.26.782-2.5,1.021-3.779.213-1.163.769-2.209.956-3.372a1.1,1.1,0,0,1,1.072-.943,11.258,11.258,0,0,1,1.4-.084H280.88c1.608,0,1.919.1,2.326,1.692,1.143,4.47,2.584,8.869,3.734,13.34.859,3.34,1.9,6.628,2.778,9.968.866,3.288,1.822,6.563,2.745,9.838.019.065.136.11.213.161a.363.363,0,0,0,.368-.342c.491-3.417,1.247-6.789,1.893-10.181.665-3.488,1.311-6.983,2.015-10.458.459-2.28,1-4.554,1.279-6.88.213-1.809.678-3.579.988-5.381.284-1.667.53-1.744,2.3-1.751h32.906c.42,0,.846,0,1.266.032a1.023,1.023,0,0,1,1.085,1.176c-.013.375,0,.749,0,1.124v60.613a2,2,0,0,1-2.222,2.287H318.521c-1.854,0-1.99-.116-2-2-.013-6.092,0-12.19-.006-18.281v-31.64a4.621,4.621,0,0,0-.2-1.925Z" transform="translate(-80.714 -209.777)" fill="#fff"/>
      <path id="Path_5597" data-name="Path 5597" d="M447.652,627.319a3.605,3.605,0,0,0,.233-1.847q.01-15.048,0-30.09v-1.124c.026-1.428.194-1.628,1.634-1.634,4.5-.019,9-.006,13.5-.006.891,0,1.783-.026,2.668.032,1.111.071,1.279.278,1.331,1.37.019.329,0,.659,0,.982v60.742a1.848,1.848,0,0,1-2.074,2.1c-5.11,0-10.219-.039-15.329.026a3.014,3.014,0,0,1-2.765-1.537c-1.46-2.2-2.9-4.425-4.354-6.634-1.964-2.978-3.882-5.988-5.911-8.927-2.726-3.947-5.4-7.933-8.165-11.854-1.176-1.673-2.306-3.379-3.527-5.019-.168-.226-.265-.5-.685-.517-.478.459-.271,1.1-.271,1.673q-.019,15.184-.006,30.374c0,2.674.013,2.416-2.481,2.422q-7.451.01-14.9,0c-1.841,0-1.919-.078-1.919-1.886V594.516c0-1.731.11-1.88,1.815-1.886,5.155-.019,10.31,0,15.465-.013a3.138,3.138,0,0,1,2.868,1.6c2.875,4.367,5.885,8.643,8.766,13.01,3.488,5.291,7.19,10.426,10.769,15.652a27.327,27.327,0,0,0,3.314,4.451Z" transform="translate(-143.231 -209.792)" fill="#fff"/>
    </g>
  </g>
</svg>
