<svg width="325" height="449" viewBox="0 0 325 449" fill="none" xmlns="http://www.w3.org/2000/svg">
<g clip-path="url(#clip0_1_2540)">
<path d="M178.573 99.723V196.75C178.573 197.357 178.586 197.971 178.534 198.578C178.507 198.998 178.391 199.408 178.195 199.781C178 200.154 177.728 200.481 177.397 200.742C172.255 205.042 167.106 209.342 161.919 213.597C157.165 217.497 152.488 221.484 147.778 225.425C141.278 230.864 134.826 236.355 128.269 241.717C121.712 247.079 115.246 252.537 108.722 257.938C102.488 263.099 96.196 268.19 90.047 273.448C85.628 277.227 80.971 280.735 76.804 284.804C74.3394 287.169 72.6098 290.194 71.823 293.518C71.3209 295.565 71.2582 297.696 71.639 299.769C72.0197 301.842 72.8353 303.811 74.032 305.546C75.7266 308.043 78.3012 309.808 81.241 310.488C86.222 311.845 91.26 311.405 96.292 311.102C99.968 310.882 103.65 310.502 107.28 310.036C111.976 309.562 116.702 309.462 121.414 309.736C124.16 309.829 126.897 310.11 129.605 310.576C132.157 311.009 134.721 311.519 137.228 312.191C141.596 313.283 145.841 314.818 149.897 316.774C152.223 317.937 154.561 319.067 156.809 320.374C159.889 322.211 162.814 324.296 165.556 326.608C166.373 327.224 167.13 327.917 167.817 328.675C169.923 331.194 169.781 333.575 167.5 335.994C167.013 336.565 166.369 336.981 165.648 337.19C164.927 337.399 164.16 337.392 163.443 337.17C162.603 336.884 161.835 336.421 161.189 335.813C158.091 333.134 154.78 330.712 151.289 328.572C149.377 327.442 147.4 326.414 145.389 325.445C142.954 324.276 140.396 323.445 137.896 322.467C136.815 322.043 135.697 321.723 134.556 321.511C132.134 321.078 129.705 320.611 127.276 320.211C120.564 319.119 113.833 319.578 107.115 319.52C105.287 319.468 103.459 319.577 101.65 319.843C98.504 320.373 95.287 320.185 92.193 320.743C89.4763 321.192 86.7153 321.311 83.97 321.098C81.9364 320.946 79.9271 320.56 77.982 319.948C76.2377 319.456 74.5475 318.789 72.937 317.958C70.2339 316.484 67.8961 314.423 66.096 311.925C63.531 308.456 62.285 304.457 61.374 300.355C60.7976 297.989 60.4814 295.568 60.431 293.133V243.073C60.431 195.451 60.4204 147.827 60.399 100.201C60.3382 99.468 60.4632 98.7315 60.7624 98.0596C61.0616 97.3877 61.5255 96.8021 62.111 96.357C66.439 92.895 70.677 89.322 74.934 85.769C79.434 82.009 83.913 78.211 88.416 74.451C92.641 70.93 96.898 67.451 101.129 63.951C106.974 59.111 112.813 54.262 118.645 49.404C123.076 45.704 127.482 41.975 131.92 38.287C136.28 34.657 140.68 31.078 145.04 27.447C149.084 24.088 153.089 20.684 157.126 17.318C161.519 13.655 165.95 10.038 170.336 6.36902C172.655 4.43102 174.929 2.44102 177.209 0.46902C177.5 0.21702 177.771 -0.10598 178.172 0.0360204C178.605 0.19102 178.54 0.64302 178.553 1.00502C178.572 1.47002 178.559 1.94202 178.559 2.41302V99.723H178.573Z" fill="white"/>
<path d="M86.436 289.184C87.2308 288.281 88.121 287.467 89.091 286.755C92.902 283.555 96.752 280.405 100.577 277.227C104.898 273.635 109.216 270.035 113.529 266.427C117.67 262.978 121.813 259.53 125.958 256.085L138.926 245.289C141.245 243.356 143.564 241.424 145.883 239.495C148.919 236.976 151.957 234.458 154.998 231.943C160.573 227.311 166.145 222.678 171.716 218.043C176.755 213.85 181.795 209.66 186.838 205.472C187.304 205.117 187.685 204.663 187.953 204.142C188.221 203.621 188.37 203.047 188.388 202.462C188.414 201.762 188.42 201.054 188.42 200.356C188.42 153.199 188.416 106.045 188.407 58.892C188.407 58.42 188.401 57.955 188.407 57.484C188.439 56.218 188.707 55.914 189.983 55.559C192.438 54.868 194.828 53.983 197.257 53.227C199.337 52.575 201.424 51.935 203.504 51.27C205.797 50.534 208.149 49.946 210.371 49.009C210.457 48.969 210.545 48.9355 210.636 48.909C212.813 48.153 213.175 48.409 213.175 50.679V246.142C213.175 248.742 213.395 248.519 210.455 249.533C208.091 250.347 205.713 251.133 203.33 251.859C201.198 252.511 199.105 253.267 196.961 253.887C194.784 254.52 192.646 255.302 190.495 256.038C189.487 256.387 188.441 256.594 187.433 256.975C185.263 257.789 182.969 258.26 180.792 259.055C178.751 259.804 176.658 260.412 174.603 261.122C172.594 261.813 170.54 262.422 168.503 263.053C166.158 263.783 163.839 264.616 161.503 265.359C160.444 265.695 159.378 266.024 158.312 266.359C154.998 267.399 151.704 268.504 148.403 269.582C146.291 270.273 144.159 270.932 142.021 271.582C139.76 272.267 137.544 273.1 135.29 273.817C134.276 274.14 133.249 274.45 132.228 274.767C128.869 275.813 125.536 276.944 122.189 278.036C120.031 278.736 117.835 279.367 115.677 280.084C113.477 280.808 111.252 281.46 109.069 282.235C107.809 282.681 106.517 283.094 105.219 283.462C103.087 284.076 100.994 284.825 98.895 285.549C97.932 285.878 96.944 286.182 95.982 286.473C93.805 287.132 91.673 287.959 89.464 288.495C88.534 288.721 87.746 289.47 86.454 289.18L86.436 289.184Z" fill="white"/>
<path d="M94.317 297.303C95.066 296.567 96.029 296.586 96.798 296.269C98.723 295.481 100.784 295.016 102.76 294.331C105.04 293.543 107.392 292.962 109.646 292.089C110.634 291.708 111.674 291.398 112.695 291.101C115.324 290.326 117.921 289.447 120.518 288.588C122.592 287.903 124.718 287.361 126.771 286.624C129.788 285.545 132.882 284.718 135.892 283.624C137.892 282.894 139.975 282.351 142.003 281.68C144.38 280.898 146.777 280.168 149.154 279.374C151.176 278.696 153.23 278.082 155.254 277.41C157.502 276.667 159.802 276.086 162.005 275.201C163.032 274.788 164.143 274.587 165.205 274.219C168.583 273.05 172.027 272.074 175.405 270.899C178.435 269.846 181.561 269.084 184.578 268.011C187.595 266.938 190.678 266.034 193.712 265.02C195.863 264.303 198.053 263.644 200.217 262.946C202.291 262.274 204.397 261.706 206.417 260.872C207.399 260.465 208.465 260.284 209.485 259.935C212.56 258.876 215.706 258.029 218.794 256.989C219.679 256.689 220.577 256.453 221.449 256.143C221.91 256.035 222.319 255.769 222.606 255.392C222.892 255.015 223.038 254.549 223.019 254.076C223.006 253.469 223.025 252.855 223.025 252.248V99.9481C223.025 97.3121 222.838 97.5001 225.447 97.5001H244.71C245.018 97.4609 245.331 97.4937 245.624 97.596C245.917 97.6983 246.182 97.8672 246.399 98.0895C246.616 98.3118 246.778 98.5814 246.873 98.877C246.967 99.1726 246.992 99.4862 246.945 99.7931V295.403C246.932 297.47 246.861 297.548 244.813 297.548H96.042C95.456 297.632 94.8581 297.55 94.317 297.309V297.303Z" fill="white"/>
<path d="M103.381 425.977C104.945 424.95 106.579 424.035 108.271 423.238C109.237 422.782 110.251 422.437 111.294 422.209C113.206 421.815 115.112 421.337 117.011 420.909C119.182 420.425 121.378 420.018 123.542 419.52C126.081 418.939 128.598 418.288 131.094 417.569C131.794 417.362 132.451 416.975 133.155 416.716C133.483 416.569 133.751 416.314 133.912 415.992C134.073 415.671 134.119 415.304 134.04 414.953C133.73 413.022 132.212 410.89 130.08 410.87C129.515 410.913 128.95 410.799 128.446 410.541C128.112 410.355 127.721 410.295 127.346 410.373C124.129 410.909 120.846 411.264 119.052 414.656C118.335 416.013 116.907 416.323 115.228 415.722C114.797 415.545 114.342 415.434 113.878 415.393C111.869 415.293 109.834 415.328 107.851 415.038C106.242 414.805 104.634 414.592 103.032 414.327C101.772 414.114 101.432 413.494 101.585 412.202C101.738 411.321 102.047 410.475 102.496 409.702C104.17 406.213 107.128 403.507 110.752 402.15C113.495 401.281 116.32 400.695 119.182 400.399C122.885 399.894 126.627 399.749 130.358 399.966C133.106 400.037 135.843 400.333 138.543 400.851C141.875 401.403 144.956 402.969 147.367 405.334C148.82 406.929 149.877 408.843 150.455 410.922C151.54 414.372 151.54 417.922 151.585 421.484C151.598 422.75 151.63 424.016 151.598 425.284C151.475 429.967 151.908 434.644 151.898 439.328C151.916 441.863 152.393 444.373 153.306 446.737C153.694 447.771 153.558 447.99 152.44 447.997C147.615 448.016 142.787 448.016 137.957 447.997C136.657 447.997 136.277 447.655 136.129 446.369C135.949 445.498 135.723 444.638 135.451 443.792C135.302 443.152 135.018 442.778 134.269 443.292C133.694 443.686 133.1 444.054 132.512 444.435C130.072 446.057 127.384 447.271 124.553 448.027C120.417 449.074 116.105 449.226 111.905 448.473C109.582 448.174 107.367 447.314 105.451 445.967C103.535 444.62 101.977 442.826 100.91 440.741C100.826 440.573 100.742 440.405 100.645 440.241C99.999 439.188 99.637 439.141 98.901 440.08C96.607 442.917 93.6801 445.178 90.355 446.68C89.4224 447.094 88.451 447.414 87.455 447.636C84.7528 448.368 81.972 448.771 79.173 448.836C75.7999 448.962 72.4221 448.859 69.063 448.526C63.223 447.719 58.043 445.526 54.218 440.787C53.753 440.206 53.23 439.676 52.739 439.114C52.558 438.907 52.422 438.591 52.087 438.714C51.777 438.83 51.77 439.16 51.764 439.438C51.751 441.038 51.745 442.623 51.745 444.218C51.745 445.012 51.764 445.818 51.739 446.608C51.7 447.79 51.526 447.945 50.311 447.997C50.033 448.01 49.749 447.997 49.465 447.997H2.62203C2.33602 448.038 2.04448 448.012 1.7702 447.921C1.49591 447.83 1.24632 447.678 1.04094 447.474C0.835553 447.271 0.679946 447.023 0.586284 446.75C0.492622 446.477 0.463442 446.185 0.501028 445.899V384.999C0.501028 384.67 0.520028 384.34 0.501028 384.017C0.482492 383.877 0.494217 383.734 0.535418 383.598C0.576619 383.462 0.646343 383.337 0.739912 383.231C0.833481 383.124 0.948732 383.039 1.07793 382.981C1.20714 382.923 1.3473 382.893 1.48903 382.893C1.81416 382.844 2.14228 382.818 2.47103 382.815H18.505C18.7387 382.811 18.9723 382.82 19.205 382.841C20.264 382.97 20.445 383.177 20.497 384.288C20.516 384.708 20.497 385.134 20.497 385.554V429.154C20.4538 429.471 20.4848 429.794 20.5877 430.098C20.6905 430.401 20.8624 430.676 21.0897 430.902C21.3171 431.127 21.5937 431.297 21.8978 431.397C22.2019 431.497 22.5251 431.526 22.842 431.48H47.174C47.549 431.48 47.923 431.467 48.298 431.467C48.95 431.467 49.228 431.112 49.198 430.485C49.2108 429.689 49.1545 428.894 49.03 428.108C48.532 425.533 48.5144 422.889 48.978 420.308C49.2567 417.889 49.9081 415.528 50.909 413.308C52.3762 409.96 54.7503 407.09 57.763 405.02C60.1214 403.449 62.6812 402.205 65.373 401.32C66.949 400.81 68.596 400.803 70.147 400.396C72.9837 399.783 75.9032 399.65 78.784 400.002C84.1 400.396 89.339 401.423 93.835 404.524C95.996 406.096 97.8211 408.083 99.203 410.37C100.495 412.539 101.463 414.885 102.078 417.334C102.509 419.153 102.788 421.005 102.911 422.87C102.987 423.917 103.136 424.958 103.357 425.984L103.381 425.977ZM84.022 428.626C78.8674 428.626 73.7147 428.626 68.564 428.626C66.994 428.626 66.723 428.975 67.149 430.486C67.556 432.128 68.3118 433.663 69.365 434.986C70.8242 436.619 72.8191 437.675 74.9893 437.966C77.1596 438.256 79.3621 437.761 81.199 436.569C83.182 435.161 85.152 433.921 87.711 434.315C89.1993 434.483 90.6964 434.561 92.194 434.548C92.5679 434.521 92.9436 434.559 93.305 434.658C95.114 435.407 97.005 435.013 98.854 435.11C99.3 435.136 99.778 435 99.784 434.47C99.803 432.946 100.624 431.602 100.727 430.097C100.827 428.644 100.863 428.631 99.338 428.624C94.228 428.617 89.1204 428.617 84.015 428.624L84.022 428.626ZM134.162 428.209C134.214 426.071 133.942 425.825 132.069 426.129C131.601 426.152 131.141 426.259 130.712 426.446C129.494 427.013 128.202 427.409 126.875 427.622C124.913 428.176 122.988 428.856 121.113 429.657C120.197 430.023 119.41 430.653 118.852 431.466C116.979 434.134 118.29 438.066 121.294 438.656C122.476 438.99 123.717 439.065 124.931 438.876C126.303 438.671 127.643 438.288 128.917 437.739C130.472 436.974 131.776 435.782 132.677 434.302C133.853 432.364 133.93 430.142 134.163 428.217L134.162 428.209ZM75.81 419.609V419.596C78.291 419.596 80.778 419.609 83.258 419.596C84.582 419.59 84.834 419.296 84.569 417.988C84.434 417.25 84.2016 416.533 83.878 415.856C83.0842 414.118 81.7736 412.668 80.125 411.702C78.303 410.655 76.425 410.927 74.531 410.875C73.7751 410.833 73.0202 410.975 72.331 411.288C71.0006 411.932 69.843 412.883 68.9542 414.064C68.0655 415.245 67.4713 416.621 67.221 418.077C66.976 419.266 67.253 419.608 68.487 419.614C70.922 419.633 73.358 419.614 75.8 419.614L75.81 419.609Z" fill="white"/>
<path d="M236.105 394.169C235.733 395.311 235.447 396.479 235.252 397.664C234.729 399.602 234.522 401.63 233.952 403.549C233.422 405.349 233.145 407.192 232.731 409.008C232.196 410.944 231.771 412.909 231.458 414.893C231.243 416.228 230.937 417.547 230.541 418.84C230.041 420.791 229.841 422.793 229.268 424.725C228.811 426.297 228.453 427.895 228.196 429.512C227.896 431.412 227.421 433.272 227.027 435.139C226.252 438.795 225.393 442.439 224.627 446.108C224.285 447.762 223.968 448.027 222.276 448.027H205.969C204.451 448.027 204.225 448.001 203.902 446.509C203.353 443.99 202.513 441.554 201.861 439.067C201.428 437.407 200.911 435.747 200.492 434.093C199.898 431.735 199.181 429.41 198.567 427.058C197.867 424.351 197.042 421.677 196.332 418.977C195.68 416.49 194.859 414.048 194.291 411.535C194.003 410.293 193.549 409.096 192.941 407.976C192.594 408.862 192.298 409.768 192.056 410.689C191.5 413.299 190.68 415.837 190.002 418.402C189.395 420.695 188.813 423.008 188.058 425.269C187.558 426.774 187.212 428.331 186.798 429.869C186.098 432.427 185.398 434.992 184.705 437.55C184.253 439.217 183.833 440.896 183.374 442.563C182.967 444.042 182.521 445.515 182.095 446.988C182.036 447.311 181.857 447.599 181.592 447.793C181.328 447.988 181 448.074 180.674 448.034C174.905 448.008 169.143 448.028 163.374 448.015C162.244 448.015 161.94 447.75 161.63 446.415C161.33 445.142 161.074 443.857 160.784 442.584C160.455 441.131 160.144 439.671 159.815 438.211C159.292 435.892 158.768 433.566 158.303 431.234C157.954 429.496 157.496 427.778 157.173 426.034C156.805 424.064 156.288 422.119 155.855 420.162C155.442 418.295 154.976 416.435 154.686 414.542C154.479 413.192 154.021 411.913 153.73 410.595C153.41 408.661 152.983 406.746 152.451 404.859C152.075 403.559 151.781 402.236 151.572 400.899C151.067 399.099 150.674 397.27 150.396 395.421C150.199 394.129 149.898 392.854 149.496 391.61C149.177 389.723 148.752 387.855 148.223 386.016C148.191 385.926 148.171 385.835 148.145 385.745C147.454 383.18 147.751 382.793 150.38 382.793H164.863C166.685 382.793 166.872 382.942 167.189 384.679C167.861 388.406 168.5 392.14 169.204 395.861C169.908 399.582 170.774 403.261 171.375 406.998C171.717 409.123 172.234 411.21 172.475 413.361C172.656 414.961 173.147 416.526 173.56 418.413C174.092 417.227 174.474 415.979 174.697 414.699C175.311 412.16 176.202 409.699 176.745 407.128C177.223 404.854 178.102 402.664 178.676 400.41C179.089 398.782 179.664 397.199 180.02 395.546C180.349 394.002 180.873 392.497 181.305 390.972C181.66 389.712 182.087 388.472 182.326 387.193C182.539 386.03 183.095 384.984 183.282 383.821C183.319 383.562 183.448 383.325 183.644 383.152C183.841 382.979 184.092 382.882 184.354 382.878C184.818 382.821 185.286 382.793 185.754 382.794H200.666C202.274 382.794 202.585 382.894 202.992 384.486C204.135 388.956 205.576 393.355 206.726 397.826C207.585 401.166 208.626 404.454 209.504 407.794C210.37 411.082 211.326 414.357 212.249 417.632C212.268 417.697 212.385 417.742 212.462 417.793C212.556 417.794 212.646 417.76 212.715 417.696C212.783 417.632 212.825 417.544 212.83 417.451C213.321 414.034 214.077 410.662 214.723 407.27C215.388 403.782 216.034 400.287 216.738 396.812C217.197 394.532 217.738 392.258 218.017 389.932C218.23 388.123 218.695 386.353 219.005 384.551C219.289 382.884 219.535 382.807 221.305 382.8H254.211C254.631 382.8 255.057 382.8 255.477 382.832C255.63 382.821 255.784 382.844 255.927 382.901C256.07 382.958 256.199 383.046 256.303 383.159C256.407 383.272 256.485 383.407 256.529 383.554C256.574 383.701 256.585 383.856 256.562 384.008C256.549 384.383 256.562 384.757 256.562 385.132V445.745C256.609 446.05 256.584 446.362 256.49 446.657C256.396 446.951 256.235 447.219 256.019 447.441C255.804 447.662 255.54 447.831 255.249 447.934C254.958 448.036 254.647 448.07 254.34 448.032H238.307C236.453 448.032 236.317 447.916 236.307 446.032C236.294 439.94 236.307 433.842 236.301 427.751V396.111C236.371 395.462 236.303 394.806 236.101 394.186L236.105 394.169Z" fill="white"/>
<path d="M304.921 417.527C305.159 416.942 305.239 416.305 305.154 415.68C305.161 405.648 305.161 395.618 305.154 385.59V384.466C305.18 383.038 305.348 382.838 306.788 382.832C311.288 382.813 315.788 382.826 320.288 382.826C321.179 382.826 322.071 382.8 322.956 382.858C324.067 382.929 324.235 383.136 324.287 384.228C324.306 384.557 324.287 384.887 324.287 385.21V445.952C324.329 446.235 324.304 446.524 324.215 446.796C324.126 447.068 323.975 447.315 323.773 447.519C323.572 447.723 323.327 447.877 323.056 447.969C322.785 448.062 322.497 448.09 322.213 448.052C317.103 448.052 311.994 448.013 306.884 448.078C306.326 448.103 305.772 447.973 305.284 447.701C304.795 447.43 304.392 447.028 304.119 446.541C302.659 444.341 301.219 442.116 299.765 439.907C297.801 436.929 295.883 433.919 293.854 430.98C291.128 427.033 288.454 423.047 285.689 419.126C284.513 417.453 283.383 415.747 282.162 414.107C281.994 413.881 281.897 413.607 281.477 413.59C280.999 414.049 281.206 414.69 281.206 415.263C281.193 425.386 281.191 435.51 281.2 445.637C281.2 448.311 281.213 448.053 278.719 448.059C273.752 448.066 268.785 448.066 263.819 448.059C261.978 448.059 261.9 447.981 261.9 446.173V384.724C261.9 382.993 262.01 382.844 263.715 382.838C268.87 382.819 274.025 382.838 279.18 382.825C279.759 382.801 280.334 382.937 280.84 383.22C281.346 383.502 281.764 383.919 282.048 384.425C284.923 388.792 287.933 393.068 290.814 397.435C294.302 402.726 298.004 407.861 301.583 413.087C302.534 414.679 303.644 416.171 304.897 417.538L304.921 417.527Z" fill="white"/>
</g>
<defs>
<clipPath id="clip0_1_2540">
<rect width="323.796" height="448.944" fill="white" transform="translate(0.5)"/>
</clipPath>
</defs>
</svg>
