<svg xmlns="http://www.w3.org/2000/svg" width="557.505" height="217.329"
    viewBox="0 0 557.505 217.329">
    <g fill="#fff">
        <path
            d="M147.913 217.329c-1.062-.011-2.437-.052-3.156-.125-9.2-.761-16.683-7.508-18.879-16.775a21.916 21.916 0 0 1 15.932-26.479 21.924 21.924 0 0 1 26.9 16.351 22 22 0 0 1-17.095 26.538 22.7 22.7 0 0 1-3.702.49" />
        <path
            d="M417.237.122a13.1 13.1 0 0 1 6.149 2.467 12.83 12.83 0 0 1 5.2 8.669 12.74 12.74 0 0 1-2.627 9.974 12.6 12.6 0 0 1-7.784 4.8 13.086 13.086 0 0 1-14.68-7.8 11.4 11.4 0 0 1-.946-4.139 13.2 13.2 0 0 1 .7-5.34A12.92 12.92 0 0 1 413.014.31a12 12 0 0 1 2.184-.3 9.6 9.6 0 0 1 2.039.112m-1.646 4.185a8.753 8.753 0 0 0-8.9 8.849 8.9 8.9 0 0 0 8.989 8.922 9 9 0 0 0 8.848-8.957 8.874 8.874 0 0 0-8.938-8.814Z" />
        <path
            d="M135.016 161.769c-.783-.551-9.754-9.508-10.389-10.386.117-.245.231-.526.378-.788a58.8 58.8 0 0 0 6.381-16.889 60 60 0 0 0 1.114-7.994 54 54 0 0 0 .157-5.538 58.7 58.7 0 0 0-6.788-26.133 58.9 58.9 0 0 0-22.74-23.675 58.2 58.2 0 0 0-19.313-7.051 45.4 45.4 0 0 0-7.338-.784c-.884-.013-1.767-.141-2.65-.134a59.45 59.45 0 0 0-27.136 6.5 58.7 58.7 0 0 0-13.041 9.076 58.6 58.6 0 0 0-17.674 30.238 59 59 0 0 0-1.3 8.315 55.5 55.5 0 0 0-.121 8.423 58.6 58.6 0 0 0 9.939 29.51 57.4 57.4 0 0 0 6.446 7.991 2 2 0 0 0 .931.726c.4-.1.655-.461.948-.751q2.911-2.889 5.809-5.79 6.578-6.573 13.152-13.149c.322-.322.625-.664.9-.956a2.17 2.17 0 0 0-.762-1.1 29.2 29.2 0 0 1-6.427-11.234 28.8 28.8 0 0 1-1.261-10.144 29.33 29.33 0 0 1 14.65-23.893 27.8 27.8 0 0 1 10.292-3.591 28.84 28.84 0 0 1 23.8 7.021 28.55 28.55 0 0 1 9.474 16.764 29.3 29.3 0 0 1 .4 6.781 28.74 28.74 0 0 1-4.5 14.136 24.7 24.7 0 0 1-3.514 4.42q-5.046 5-10.047 10.047a2.6 2.6 0 0 0-.869 1.1 4 4 0 0 0 .319.444c.261.283.538.551.81.823q13.927 13.926 27.853 27.854a4 4 0 0 1 .893 1.017c-1.906 2.054-12.33 7.05-18.654 8.954a73.3 73.3 0 0 1-39 1.133 72.1 72.1 0 0 1-33.437-18.313 73.57 73.57 0 0 1-1.26-105.076 73.66 73.66 0 0 1 105.5 1.313 73.1 73.1 0 0 1 15.281 24.143 72.8 72.8 0 0 1 4.861 29.291 72.5 72.5 0 0 1-6.419 27.36c-1.862 4.146-4.638 9.048-5.648 9.989" />
        <path
            d="M218.925 165.572a2.63 2.63 0 0 0-1.241.576 67.6 67.6 0 0 1-11.034 5.522 47 47 0 0 1-10.935 2.781 56.5 56.5 0 0 1-10.259.361 34.9 34.9 0 0 1-10.272-2.011 23.15 23.15 0 0 1-13.353-12.228 34.3 34.3 0 0 1-2.818-9.72 53 53 0 0 1-.494-8.059q.022-26.569.032-53.137c0-.539.017-1.079.007-1.617a4.4 4.4 0 0 1 3.88-4.073c.344-.034.692-.026 1.039-.026h25.648a6.6 6.6 0 0 1 1.381.068 4.65 4.65 0 0 1 3.153 2.329 3 3 0 0 1 .4 1.431c.015.616.032 1.232.033 1.848l.045 45.744a29.7 29.7 0 0 0 .357 5.177 11.4 11.4 0 0 0 .943 3.081 5.14 5.14 0 0 0 5.459 3.032 24.6 24.6 0 0 0 6.063-1.377c.469-.168.913-.4 1.373-.6 1.594-.676 3.192-1.346 4.785-2.024.425-.181.838-.389 1.258-.58a.91.91 0 0 0 .557-.922c-.006-.462.006-.924.006-1.386l.021-49.9c0-.578-.013-1.156.009-1.733a4.42 4.42 0 0 1 4.044-4.168c.384-.025.77-.018 1.155-.018h25.186c.27 0 .54.014.809 0a4.314 4.314 0 0 1 4.24 4.174c0 .462.006.924.006 1.386l.025 77.972c0 .5.013 1-.017 1.5a4.314 4.314 0 0 1-4.145 4.038h-.578c-6.585 0-13.171-.011-19.756.011a5.6 5.6 0 0 1-2.967-.789 3.76 3.76 0 0 1-1.522-1.684c-.652-1.394-1.351-2.766-2.038-4.143-.134-.27-.301-.521-.485-.836" />
        <path
            d="M346.647 142.623a3.6 3.6 0 0 0 .616.18c.384.021.77.018 1.155.018h24.606c.462 0 .924.013 1.386.008a4.545 4.545 0 0 1 4.278 4.335c-.006.308.005.616.005.924v19.751c0 .308-.011.616-.007.924a4.436 4.436 0 0 1-4.215 4.246q-.577.009-1.155.007h-70.467c-.308 0-.616-.011-.924 0a4.33 4.33 0 0 1-4.261-4.165 36 36 0 0 1-.012-.924v-17.441c0-.231.011-.462 0-.693a1.4 1.4 0 0 1 .406-1.042c.518-.57 1.015-1.158 1.522-1.738l15.978-18.25q5.783-6.6 11.565-13.209c.268-.307.627-.568.673-.975-.13-.282-.339-.269-.521-.277-.384-.017-.77-.015-1.155-.015q-10.513 0-21.025-.007a8 8 0 0 1-1.831-.161 4.22 4.22 0 0 1-3.277-3.355 8.2 8.2 0 0 1-.181-1.947c.013-3.426.063-6.852.082-10.277.017-3.042.008-6.083.014-9.125 0-.5.022-1 .038-1.5a4.14 4.14 0 0 1 3.846-3.781c.423-.006.847-.021 1.27-.021h66.773c.423 0 .847.021 1.27.025a4.18 4.18 0 0 1 3.668 3.041 8.5 8.5 0 0 1 .23 1.826c.019 6.276.009 12.551.027 18.827a2.15 2.15 0 0 1-.594 1.553q-4.958 5.483-9.884 11-7.757 8.635-15.518 17.269c-1.184 1.317-2.374 2.629-3.555 3.949-.249.276-.473.581-.826 1.02" />
        <path
            d="M257.904 127.322V87.239c0-.539 0-1.078.019-1.617a4.6 4.6 0 0 1 1.133-2.842 2.98 2.98 0 0 1 2.3-1.153q.404-.013.808-.016c6.932 0 13.864.016 20.8-.01a9.6 9.6 0 0 1 5.568 1.946 7 7 0 0 1 .853.776 2.52 2.52 0 0 1 .805 1.964c-.026 1 0 2 0 3l.035 77.97c0 .616 0 1.233-.033 1.847a4.57 4.57 0 0 1-1.2 2.813 2.97 2.97 0 0 1-2.326 1.093h-24.614a3.924 3.924 0 0 1-4.135-3.767c-.059-.611-.05-1.23-.05-1.846v-40.083Z" />
        <path
            d="M290.414 60.732a16.236 16.236 0 0 1-16.361 16.351 16.38 16.38 0 0 1-16.412-16.452 16.37 16.37 0 0 1 16.4-16.355 16.236 16.236 0 0 1 16.373 16.456" />
        <path
            d="M472.458 130.012h-16.626a11.3 11.3 0 0 1-3.415-.466 9.44 9.44 0 0 1-6.627-8.929q-.036-4.156 0-8.312a9.385 9.385 0 0 1 7.964-9.232 14 14 0 0 1 1.835-.16q16.915-.015 33.83-.008a9.55 9.55 0 0 1 7.081 2.848 9.15 9.15 0 0 1 2.732 6.427c.06 2.846.083 5.7 0 8.542a9.36 9.36 0 0 1-7.857 9.1 16 16 0 0 1-2.41.183c-5.499.015-11.003.007-16.507.007m.074-4.331h16.169a13 13 0 0 0 1.84-.115 4.94 4.94 0 0 0 3.678-2.513 5.7 5.7 0 0 0 .734-2.989v-7.159q.002-.231-.006-.462a5.28 5.28 0 0 0-5.138-5.221c-.269-.017-.539-.012-.808-.012H455.97c-.308 0-.617 0-.923.023a5.24 5.24 0 0 0-4.9 4.449 7 7 0 0 0-.074 1.15q-.008 3.637 0 7.274v.347a5.22 5.22 0 0 0 4.786 5.175c.5.044 1 .054 1.5.054q8.089.002 16.174-.001Z" />
        <path
            d="M414.051 130.012h-16.742a11.4 11.4 0 0 1-3.192-.416 9.46 9.46 0 0 1-6.8-9.028q.023-4.1 0-8.2a9.41 9.41 0 0 1 7.9-9.285 13 13 0 0 1 1.834-.171q17.031-.015 34.062 0a9.4 9.4 0 0 1 5.057 1.378 9.21 9.21 0 0 1 4.582 7.828c.117 2.881.114 5.775.009 8.657a9.325 9.325 0 0 1-8.021 9.069 20 20 0 0 1-2.3.159q-8.191.022-16.389.009m.022-22.807h-16.169c-.385 0-.771-.012-1.155.014a5.4 5.4 0 0 0-3.281 1.259 5.18 5.18 0 0 0-1.854 4.067c-.007 2.117 0 4.234 0 6.351 0 .578-.017 1.156.01 1.732a5.16 5.16 0 0 0 4.491 4.952 10 10 0 0 0 1.38.1q16.573.008 33.147 0a8 8 0 0 0 1.606-.144 4.99 4.99 0 0 0 4.059-3.936 8 8 0 0 0 .179-1.831c.021-2.194.011-4.388.011-6.582 0-.308.005-.617-.02-.923a5.28 5.28 0 0 0-5.2-5.044c-.384-.02-.77-.01-1.155-.01Z" />
        <path
            d="M530.886 130.012h-16.635a11 11 0 0 1-3.525-.516 9.465 9.465 0 0 1-6.47-8.822c-.03-2.81-.052-5.622.008-8.432a9.35 9.35 0 0 1 7.92-9.162 15 15 0 0 1 1.95-.168q16.867-.015 33.733-.008a9.64 9.64 0 0 1 7.095 2.831 9.3 9.3 0 0 1 2.2 3.49 5 5 0 0 1 .336 1.688q-.005 5.484.008 10.969a5 5 0 0 1-.385 1.911 9.24 9.24 0 0 1-7.3 6.027 13 13 0 0 1-2.3.18q-8.317.027-16.635.012m.107-22.807h-16.631a6.9 6.9 0 0 0-2.274.323 5.2 5.2 0 0 0-3.538 4.922c-.036 1.539-.009 3.079-.008 4.619 0 1.155-.028 2.311.014 3.464a5.185 5.185 0 0 0 4.632 5.073 10 10 0 0 0 1.267.073q16.515.006 33.031 0a10 10 0 0 0 1.608-.124 5.05 5.05 0 0 0 4.131-3.86 8.2 8.2 0 0 0 .189-1.714c.023-2.155.012-4.311.013-6.467 0-.346.008-.693-.006-1.039a5.277 5.277 0 0 0-5.1-5.252c-.383-.026-.77-.014-1.155-.015Z" />
        <path
            d="M519.737 168.465a2.3 2.3 0 0 0 .5.179 7 7 0 0 0 .922.036h19.633a2.05 2.05 0 0 0 1.446-.249 3.6 3.6 0 0 0 .125-1.48q.01-15.3.009-30.6a9 9 0 0 1 .034-1.268 2.15 2.15 0 0 1 3.131-1.649 1.94 1.94 0 0 1 1.118 1.639c.027.344.027.692.027 1.038q.005 16.975.007 33.949c0 .308-.014.616-.014.923a2.1 2.1 0 0 1-2 2.011c-.269.019-.539.014-.808.014h-25.87a6 6 0 0 1-.921-.033 2.07 2.07 0 0 1-1.776-1.854c-.012-.346-.026-.692-.026-1.038q0-16.974.006-33.948c0-.346-.006-.695.027-1.038a2.08 2.08 0 0 1 1.748-1.884 2.14 2.14 0 0 1 2.279 1.208 3.4 3.4 0 0 1 .243 1 10 10 0 0 1 .017 1.154q0 15.185.006 30.369a3.7 3.7 0 0 0 .137 1.521" />
        <path
            d="M461.287 168.488a4 4 0 0 0 .623.172 8 8 0 0 0 .923.022h19.4a3.1 3.1 0 0 0 1.531-.194 4 4 0 0 0 .13-.629c.024-.383.013-.769.013-1.154q0-15.185.005-30.37a9 9 0 0 1 .033-1.268 2.14 2.14 0 0 1 3.336-1.5 1.91 1.91 0 0 1 .913 1.527c.026.422.03.846.03 1.269q.005 16.744.007 33.487c0 .385.008.771-.025 1.154a2.085 2.085 0 0 1-2.02 1.99c-.268.023-.539.013-.808.013h-25.755c-.308 0-.617.01-.923-.019a2.09 2.09 0 0 1-1.871-1.888 21 21 0 0 1-.03-1.038q0-16.975.008-33.949a10 10 0 0 1 .031-1.038 2.08 2.08 0 0 1 1.764-1.868 2.15 2.15 0 0 1 2.218 1.129 3.6 3.6 0 0 1 .286 1.1 9 9 0 0 1 .016 1.153q0 15.185.007 30.369a3.3 3.3 0 0 0 .158 1.53" />
        <path
            d="M402.804 168.468a2.4 2.4 0 0 0 .5.175 8 8 0 0 0 .922.036h19.633a2.06 2.06 0 0 0 1.448-.248 3.4 3.4 0 0 0 .129-1.478q.01-15.3.009-30.6a10 10 0 0 1 .028-1.269 2.144 2.144 0 0 1 3.416-1.464 1.9 1.9 0 0 1 .833 1.453c.025.383.027.769.027 1.154q0 16.859.006 33.718c0 .346.009.694-.018 1.039a2.09 2.09 0 0 1-2 2.009c-.267.024-.538.014-.808.014h-25.87a8 8 0 0 1-.808-.017 2.07 2.07 0 0 1-1.884-1.872 9 9 0 0 1-.042-1.037q0-16.974.007-33.949c0-.346.021-.692.034-1.038a2.06 2.06 0 0 1 1.865-1.9 2.12 2.12 0 0 1 2.209 1.332 3.7 3.7 0 0 1 .2 1.009c.034.382.012.769.012 1.154q0 15.127.008 30.254a3.6 3.6 0 0 0 .144 1.525" />
        <path
            d="M109.55 32.286a5 5 0 0 1-.146-.665c-.021-.346-.012-.692-.012-1.039 0-4.233-.012-8.468.011-12.7.03-5.5.088-11.006.139-16.509.011-1.228.106-1.336 1.307-1.337q7.911-.012 15.822 0h.231c.922.04 1.043.151 1.057 1.105q.024 1.56-.01 3.118c-.014.583-.182.725-.78.756-.307.016-.616.008-.924.008h-9.124c-1.4 0-1.44.042-1.444 1.41q.001 2.83.01 5.658-.002.231.007.462c.042.791.153.926.981.93 2.733.017 5.467.009 8.2.011.346 0 .694-.008 1.039.014.469.029.65.174.659.625q.037 1.846.011 3.694c0 .386-.19.539-.589.57-.306.024-.615.019-.923.019h-7.738c-.457 0-.914.027-1.4.042a2.8 2.8 0 0 0-.206.7c-.008 2.5 0 5 .01 7.5a1.2 1.2 0 0 0 .082.313 1.15 1.15 0 0 0 .974.294c.847.01 1.694.006 2.541.006h7.045c.458 0 .915.034 1.4.053a3.5 3.5 0 0 1 .223.686 16.3 16.3 0 0 1-.169 4.156 2.3 2.3 0 0 1-1.212.145c-2.194.008-4.389 0-6.583 0h-9.124c-.42.009-.839-.011-1.365-.025" />
        <path
            d="M29.898 18.459a1.9 1.9 0 0 0-.3 1.249c0 2.079 0 4.157.01 6.235.009 1.244.085 1.324 1.306 1.328 3.2.011 6.39 0 9.585.008a2.6 2.6 0 0 1 1.323.159 16.4 16.4 0 0 1 0 4.751 2.56 2.56 0 0 1-1.215.127q-4.388.01-8.777 0h-7.045a2.74 2.74 0 0 1-1.3-.155 5 5 0 0 1-.107-.644c-.02-.384-.011-.769-.01-1.154l.046-28.751c0-1.578 0-1.582 1.614-1.583h15.359c1.568 0 1.569.007 1.57 1.624 0 .885.01 1.771-.012 2.656-.013.53-.168.667-.707.7-.307.019-.616.01-.924.011h-9.585c-1.031.026-1.174.129-1.181 1.111-.014 2.117 0 4.234.026 6.351a4 4 0 0 0 .166.818 2.9 2.9 0 0 0 1.455.186c2.656.008 5.312 0 7.969 0 1.41 0 1.412.005 1.419 1.391 0 .924.014 1.848 0 2.771-.011.6-.156.724-.766.753-.269.013-.539.006-.808.006h-7.853c-.423.01-.841.037-1.258.052" />
        <path
            d="m427.738 94.72.417-8.321q.02-.462.043-.923c.095-1.806.15-3.615.3-5.416.115-1.377.349-2.745.531-4.117q.417-3.145.836-6.289c.261-1.943.53-3.886.79-5.829l.6-4.574c.26-1.943.529-3.886.789-5.829l.6-4.575c.181-1.372.368-2.743.55-4.115l.6-4.573c.187-1.41.385-2.818.564-4.229a3.155 3.155 0 0 0-2.066-3.364 3.086 3.086 0 0 0-3.909 1.927 7 7 0 0 0-.234 1.012c-.337 2.049-.664 4.1-1 6.148-.062.379-.128.759-.213 1.134a2.085 2.085 0 0 1-2.546 1.742 2.05 2.05 0 0 1-1.562-2.451c.277-1.863.583-3.723.881-5.583.11-.684.236-1.364.35-2.047a6.89 6.89 0 0 1 5.237-5.965 7.13 7.13 0 0 1 9.028 5.056 7.5 7.5 0 0 1 .2 2.171c-.052 1.188-.2 2.375-.346 3.557-.273 2.174-.575 4.344-.869 6.516-.278 2.057-.566 4.113-.838 6.171-.267 2.02-.512 4.043-.78 6.063-.344 2.591-.705 5.18-1.052 7.771-.265 1.981-.515 3.965-.777 5.947-.277 2.1-.58 4.189-.832 6.288-.2 1.641-.386 3.286-.486 4.935-.145 2.381-.21 4.767-.3 7.15-.085 2.153-.158 4.307-.252 6.459a3.5 3.5 0 0 1-.188 1.013 2.08 2.08 0 0 1-2.274 1.382 2 2 0 0 1-1.786-1.953c-.036-.731-.006-1.463-.006-2.289" />
        <path
            d="M530.978 70.794c1 0 2-.04 3 .007a22 22 0 0 1 8.285 1.853 12.65 12.65 0 0 1 5.116 4.025 10.97 10.97 0 0 1 2.027 5.449c.187 1.836.41 3.669.613 5.5.181 1.644.354 3.289.532 4.933.128 1.186.252 2.371.394 3.556a2.9 2.9 0 0 1-.1 1.476 2.155 2.155 0 0 1-2.066 1.391 2.1 2.1 0 0 1-1.976-1.655 12 12 0 0 1-.208-1.37c-.185-1.759-.35-3.521-.538-5.28-.192-1.8-.4-3.593-.6-5.389-.1-.917-.211-1.835-.29-2.754a6.56 6.56 0 0 0-2.762-4.863 11.8 11.8 0 0 0-4.048-1.916 20 20 0 0 0-5.474-.734c-1.579.016-3.159-.028-4.736.021a18 18 0 0 0-6.617 1.439 8.9 8.9 0 0 0-3.172 2.261 6 6 0 0 0-1.534 3.178c-.171 1.218-.3 2.442-.429 3.666-.224 2.1-.437 4.208-.652 6.312-.172 1.684-.348 3.367-.51 5.052a2.12 2.12 0 0 1-1.009 1.723 2.152 2.152 0 0 1-3.236-1.579 3 3 0 0 1 0-.691c.175-1.683.362-3.365.54-5.048.2-1.874.39-3.749.589-5.623.162-1.53.256-3.072.512-4.586a10.66 10.66 0 0 1 4.015-6.674 15.4 15.4 0 0 1 5.43-2.738 23.4 23.4 0 0 1 6.488-.955h2.426Z" />
        <path
            d="M492.776 96.601a2.162 2.162 0 0 1-2.982 2.2 2 2 0 0 1-1.249-1.676c-.17-1.3-.313-2.6-.457-3.9q-.33-2.981-.647-5.964c-.169-1.567-.364-3.133-.5-4.7a6.6 6.6 0 0 0-2.742-4.873 11.7 11.7 0 0 0-4.043-1.925 20 20 0 0 0-5.473-.74c-1.579.014-3.158-.028-4.736.019a18.1 18.1 0 0 0-6.619 1.429 8.9 8.9 0 0 0-3.1 2.167 6.05 6.05 0 0 0-1.654 3.483c-.154 1.375-.3 2.752-.448 4.128l-.6 5.621c-.181 1.721-.357 3.443-.541 5.164a2.05 2.05 0 0 1-1.181 1.729 2.14 2.14 0 0 1-3.056-1.77 3 3 0 0 1 .007-.576c.188-1.721.39-3.439.57-5.16.2-1.875.365-3.751.56-5.625.159-1.53.251-3.074.527-4.584a10.74 10.74 0 0 1 4.076-6.639 16.1 16.1 0 0 1 6.229-2.909 23.3 23.3 0 0 1 5.48-.716c1.81-.009 3.621-.047 5.429.015a22.2 22.2 0 0 1 8.3 1.794 13.6 13.6 0 0 1 3.679 2.358 10.76 10.76 0 0 1 3.578 7.157c.178 1.837.409 3.669.612 5.5.177 1.605.348 3.212.523 4.817q.206 1.893.418 3.784c.018.161.032.315.04.392" />
        <path
            d="M95.592 32.212a34.6 34.6 0 0 1-5.986-.036 4 4 0 0 1-.126-.624c-.023-.384-.012-.77-.011-1.154l.037-23.55c0-.422-.01-.846-.044-1.267a.54.54 0 0 0-.525-.519A11 11 0 0 0 87.9 5.02h-5.311c-.27 0-.539.007-.808 0-.719-.033-.851-.155-.872-.913-.022-.808-.012-1.617-.008-2.424a10 10 0 0 1 .042-1.036.524.524 0 0 1 .527-.512 8 8 0 0 1 .807-.03h20.782c1.274 0 1.289.022 1.3 1.287q.009 1.212 0 2.424c-.01 1.168-.042 1.2-1.259 1.205-1.886.006-3.772 0-5.657 0-.308 0-.617-.008-.924.011-.627.037-.792.2-.856.844a7 7 0 0 0-.02.692q.03 5.714.063 11.429.039 6.52.082 13.042a1.96 1.96 0 0 1-.196 1.173" />
        <path
            d="M54.511 27.147a2.94 2.94 0 0 0 1.523.219c2.578.008 5.156 0 7.733.008a1.96 1.96 0 0 1 1.213.171 17 17 0 0 1-.011 4.626 2.25 2.25 0 0 1-1.209.146q-4.675.01-9.35 0h-4.964c-.376 0-.753-.036-1.168-.058-.057-.29-.119-.507-.137-.726-.022-.268-.01-.538-.009-.808l.034-29.2c0-1.42.006-1.423 1.389-1.428q1.674-.007 3.347 0c.269 0 .539 0 .807.028a.553.553 0 0 1 .545.5 6 6 0 0 1 .052.8c.046 4.5.1 9 .13 13.5.023 3.617.012 7.233.021 10.849-.001.462.037.912.054 1.373" />
        <path
            d="M475.873 13.194c.411.44.713.785 1.035 1.107q3.344 3.352 6.694 6.7a7 7 0 0 1 .782.847 2.02 2.02 0 0 1 .426 1.625 2.13 2.13 0 0 1-3.42 1.3 7.5 7.5 0 0 1-.757-.711l-6.782-6.774a3.1 3.1 0 0 0-1.088-.88 2.8 2.8 0 0 0-1.059.846q-3.4 3.382-6.782 6.774a8 8 0 0 1-.753.714 2.126 2.126 0 0 1-3.446-1.22 2.03 2.03 0 0 1 .456-1.725 8 8 0 0 1 .79-.841l6.693-6.7a3 3 0 0 0 .868-1.079 2.8 2.8 0 0 0-.856-1.068q-3.382-3.4-6.774-6.782a7 7 0 0 1-.78-.848 2.106 2.106 0 0 1 1.126-3.329 1.78 1.78 0 0 1 1.237.058 3.9 3.9 0 0 1 1.285.959q3.43 3.43 6.862 6.857c.324.323.668.625.956.893.583-.02.82-.411 1.112-.7 1.451-1.434 2.889-2.881 4.332-4.323.926-.925 1.848-1.854 2.78-2.773a5.3 5.3 0 0 1 .785-.676 1.97 1.97 0 0 1 2.545.182 1.965 1.965 0 0 1 .461 2.512 4.3 4.3 0 0 1-.783.988c-1.788 1.806-3.589 3.6-5.385 5.395-.6.6-1.2 1.193-1.794 1.8-.239.239-.45.507-.766.872" />
        <path
            d="M531.098 16.363a3 3 0 0 0-1.215.922q-3.4 3.38-6.78 6.771a6.6 6.6 0 0 1-.85.778 2.142 2.142 0 0 1-3.316-1.236 2.12 2.12 0 0 1 .484-1.829 7 7 0 0 1 .712-.755q3.386-3.39 6.773-6.778a2.8 2.8 0 0 0 .852-1.068 3.05 3.05 0 0 0-.873-1.078q-3.463-3.477-6.938-6.941a3.4 3.4 0 0 1-.965-1.409 1.945 1.945 0 0 1 .6-2.092 1.85 1.85 0 0 1 2.229-.373 5.3 5.3 0 0 1 1.176.91c2.3 2.274 4.577 4.567 6.866 6.849.323.322.668.622.956.889.583-.027.821-.417 1.111-.707q3.437-3.419 6.86-6.854a8 8 0 0 1 .937-.854 1.91 1.91 0 0 1 1.735-.375 2.152 2.152 0 0 1 1.167 3.343 7 7 0 0 1-.782.846q-3.385 3.391-6.772 6.779a2.8 2.8 0 0 0-.859 1.075 2.96 2.96 0 0 0 .863 1.072q3.341 3.352 6.692 6.7.328.326.647.659a2.23 2.23 0 0 1 .48 2.26 1.66 1.66 0 0 1-1.258 1.234 2.25 2.25 0 0 1-2.254-.517q-.33-.323-.657-.649-3.3-3.308-6.61-6.616c-.318-.326-.663-.629-1.011-.956" />
        <path
            d="M415.644 67.235a11.13 11.13 0 0 1-11.223-11.189 11.224 11.224 0 0 1 11.2-11.132A11.265 11.265 0 0 1 426.78 56.09a11.14 11.14 0 0 1-11.136 11.145m-6.975-11.1a6.84 6.84 0 0 0 6.9 6.9 6.823 6.823 0 0 0 6.99-6.929 6.9 6.9 0 0 0-6.958-6.97 7 7 0 0 0-6.932 6.998Z" />
        <path
            d="M472.716 45.56a10.98 10.98 0 0 1 11.222 11.178 11.1 11.1 0 0 1-11.187 11.146 11.136 11.136 0 0 1-11.169-11.288 10.98 10.98 0 0 1 11.134-11.036m.086 18.073a6.91 6.91 0 0 0 6.913-7.048 6.857 6.857 0 0 0-7-6.849 6.86 6.86 0 0 0-6.914 6.932 6.91 6.91 0 0 0 7.001 6.966Z" />
        <path
            d="M530.932 67.875a11.07 11.07 0 0 1-11.128-11.2 11.133 11.133 0 0 1 11.286-11.157 11.117 11.117 0 0 1 11.069 11.137 11.067 11.067 0 0 1-11.227 11.22m.033-4.24a7 7 0 0 0 6.994-6.958 6.923 6.923 0 0 0-7.013-6.937 6.847 6.847 0 0 0-6.919 6.9 6.95 6.95 0 0 0 6.934 6.994Z" />
        <path
            d="M75.615 32.215a32.5 32.5 0 0 1-5.9-.047 5 5 0 0 1-.125-.623c-.024-.306-.013-.615-.012-.922l.047-29.065C69.625.105 69.631.102 71.1.1c1.269 0 2.538-.011 3.807.01.665.011.784.155.825.834.011.191.007.384.007.577q.033 14.59.062 29.181a3.1 3.1 0 0 1-.186 1.513" />
        <path
            d="M412.954 70.789c.385 0 .771-.02 1.154 0a2.033 2.033 0 0 1 2 1.981 2.05 2.05 0 0 1-1.767 2.207 7 7 0 0 1-1.151.048 19.2 19.2 0 0 0-6.321 1.166 11 11 0 0 0-2.641 1.4 6.86 6.86 0 0 0-2.92 5.145c-.283 2.829-.587 5.656-.875 8.484-.183 1.8-.344 3.6-.533 5.393a3.9 3.9 0 0 1-.252 1.113 2.07 2.07 0 0 1-2.263 1.215 2.03 2.03 0 0 1-1.745-1.994 8 8 0 0 1 .036-1.152c.193-1.835.408-3.667.6-5.5s.354-3.672.546-5.506c.124-1.184.241-2.371.426-3.546a10.7 10.7 0 0 1 4.583-7.193 16.7 16.7 0 0 1 6.663-2.766 21.5 21.5 0 0 1 4.46-.495" />
        <path
            d="M520.828 95.637c.153-1.834.307-3.594.444-5.356.116-1.494.2-2.99.323-4.484a6.3 6.3 0 0 1 .241-1.469 1.945 1.945 0 0 1 2.285-1.311 1.955 1.955 0 0 1 1.729 1.861 23 23 0 0 1-.08 2.418c-.109 1.533-.259 3.063-.373 4.6-.106 1.417-.179 2.838-.285 4.256a8 8 0 0 1-.194 1.252 2.046 2.046 0 0 1-2.132 1.575 2 2 0 0 1-1.955-1.911c-.018-.502-.003-1.001-.003-1.431" />
        <path
            d="M410.507 85.559c-.086 1.3-.163 2.61-.259 3.914q-.194 2.646-.413 5.291a56 56 0 0 1-.219 2.3 2.087 2.087 0 0 1-2.084 1.927 2.173 2.173 0 0 1-2.145-2.019 4.4 4.4 0 0 1 .014-.691q.095-1.323.2-2.646c.123-1.456.259-2.911.377-4.367.1-1.265.191-2.531.284-3.8.014-.191.01-.386.036-.576a2.07 2.07 0 0 1 2.214-1.894 2.08 2.08 0 0 1 2.015 2.1c-.012.153 0 .308 0 .462Z" />
        <path
            d="M462.606 95.736c.148-1.784.3-3.506.432-5.229.118-1.532.208-3.067.329-4.6a7.7 7.7 0 0 1 .22-1.476 1.95 1.95 0 0 1 2.323-1.412 1.95 1.95 0 0 1 1.718 1.869 24 24 0 0 1-.08 2.534c-.1 1.456-.256 2.908-.367 4.364s-.184 2.914-.292 4.37a7.6 7.6 0 0 1-.2 1.251 2.05 2.05 0 0 1-2.137 1.568 2 2 0 0 1-1.949-1.917c-.008-.459.003-.92.003-1.322" />
        <path
            d="M541.134 95.689c0 .557.028.943-.006 1.323a2.02 2.02 0 0 1-1.775 1.823 2.06 2.06 0 0 1-2.271-1.364 5 5 0 0 1-.218-1.127c-.185-2.217-.343-4.435-.528-6.652-.108-1.3-.249-2.6-.375-3.893a2.9 2.9 0 0 1 .171-1.58 2.074 2.074 0 0 1 2.263-1.205 2.04 2.04 0 0 1 1.753 1.731q.137.91.212 1.829c.183 2.217.349 4.435.532 6.652.072.884.171 1.756.242 2.463" />
        <path
            d="M482.915 95.913c0 .3.025.686-.005 1.068a2.02 2.02 0 0 1-1.753 1.853 2.05 2.05 0 0 1-2.317-1.463 5.5 5.5 0 0 1-.191-1.02c-.1-1.187-.182-2.377-.282-3.565-.119-1.418-.252-2.834-.376-4.252-.1-1.111-.226-2.221-.275-3.333a2.1 2.1 0 0 1 1.575-2.15 2.1 2.1 0 0 1 2.435 1.091 2 2 0 0 1 .2.654c.1.84.169 1.684.246 2.526.126 1.379.254 2.757.373 4.136.127 1.455.243 2.912.37 4.455" />
    </g>
</svg>
