<svg xmlns="http://www.w3.org/2000/svg" width="24" height="23.955" viewBox="0 0 24 23.955">
  <g id="statistics_icon" transform="translate(0 -1.002)">
    <path id="Path_2432" data-name="Path 2432" d="M21.874,15.3a2.8,2.8,0,0,0-2.82-2.32c-2-.006-4,0-6,0A.949.949,0,0,1,12,11.923V5.984a3.087,3.087,0,0,0-.075-.719A2.8,2.8,0,0,0,8.448,3.189a11.054,11.054,0,0,0-8.323,9.08A2.015,2.015,0,0,1,0,12.938v.188a.059.059,0,0,1,.023.047A.059.059,0,0,1,0,13.22v.137a.366.366,0,0,1,0,.281v.7c.044.044.019.094.025.138v.013c0,.044.013.087-.025.125v.238c.056.238.025.475.063.713A11.175,11.175,0,0,0,.7,17.978,11,11,0,0,0,4.033,22.53a10.89,10.89,0,0,0,4.252,2.139,10.219,10.219,0,0,0,1.838.288h.188a.12.12,0,0,1,.094-.025h.113a.086.086,0,0,1,.075.025h.844c.038-.038.088-.019.138-.025h.113a.086.086,0,0,1,.075.025H11.9c.013-.05.056-.044.094-.044a8,8,0,0,0,1.388-.206,10.96,10.96,0,0,0,8.342-7.867,3.061,3.061,0,0,0,.15-1.54Zm-19.735.82A9.152,9.152,0,0,1,8.917,5a.943.943,0,0,1,1.213.95v6.059a2.814,2.814,0,0,0,2.852,2.845H18.96a.949.949,0,0,1,1.019,1.3,9.2,9.2,0,0,1-17.84-.034Z" fill="#3a8bc3"/>
    <path id="Path_2433" data-name="Path 2433" d="M24,7.885c-.038-.156-.075-.313-.125-.463a9.308,9.308,0,0,0-6.3-6.291,2.853,2.853,0,0,0-3.7,2.726c-.006,1.463-.006,2.933,0,4.4a2.87,2.87,0,0,0,2.87,2.852c1.463.006,2.92.006,4.384,0A2.874,2.874,0,0,0,23.893,9.02.957.957,0,0,1,24,8.673V8.535a.365.365,0,0,1,0-.281ZM21.055,9.242h-4.24a1,1,0,0,1-1.063-1.051V3.958a1,1,0,0,1,1.382-1,7.509,7.509,0,0,1,4.927,4.928,1,1,0,0,1-1.006,1.356Z" fill="#3a8bc3"/>
  </g>
</svg>
