<svg width="25" height="24" viewBox="0 0 25 24" fill="none" xmlns="http://www.w3.org/2000/svg">
<g clip-path="url(#clip0_1_2553)">
<path d="M22.374 14.298C22.2593 13.6379 21.9117 13.0407 21.3942 12.6151C20.8768 12.1894 20.2239 11.9633 19.554 11.978C17.554 11.972 15.554 11.978 13.554 11.978C13.4112 11.995 13.2665 11.9793 13.1307 11.9321C12.9949 11.8849 12.8716 11.8075 12.7701 11.7057C12.6685 11.6039 12.5915 11.4804 12.5447 11.3445C12.4979 11.2085 12.4826 11.0637 12.5 10.921V4.98201C12.5032 4.74024 12.4781 4.49892 12.425 4.26301C12.3408 3.89397 12.1827 3.54582 11.9602 3.23961C11.7377 2.93339 11.4555 2.67547 11.1305 2.48142C10.8055 2.28738 10.4445 2.16125 10.0694 2.11064C9.69428 2.06004 9.31279 2.08602 8.948 2.18701C6.81637 2.70397 4.88672 3.8434 3.4046 5.46032C1.92248 7.07724 0.954908 9.09854 0.625 11.267C0.621567 11.4955 0.579297 11.7217 0.5 11.936L0.5 12.124C0.50719 12.1296 0.513006 12.1367 0.516995 12.1448C0.520984 12.153 0.523039 12.1619 0.523 12.171C0.523039 12.1801 0.520984 12.1891 0.516995 12.1972C0.513006 12.2054 0.50719 12.2125 0.5 12.218L0.5 12.355C0.518512 12.3995 0.528042 12.4473 0.528042 12.4955C0.528042 12.5437 0.518512 12.5915 0.5 12.636L0.5 13.336C0.544 13.38 0.519 13.43 0.525 13.474V13.487C0.525 13.531 0.538 13.574 0.5 13.612V13.85C0.556 14.088 0.525 14.325 0.563 14.563C0.684571 15.3886 0.898237 16.198 1.2 16.976C1.89638 18.7573 3.04516 20.3262 4.533 21.528C5.77527 22.5458 7.22728 23.2763 8.785 23.667C9.38764 23.8187 10.0029 23.9151 10.623 23.955H10.811C10.8241 23.9445 10.8392 23.9369 10.8554 23.9326C10.8715 23.9283 10.8885 23.9274 10.905 23.93H11.018C11.0316 23.9279 11.0455 23.929 11.0585 23.9334C11.0716 23.9377 11.0834 23.9452 11.093 23.955H11.937C11.975 23.917 12.025 23.936 12.075 23.93H12.188C12.2016 23.9279 12.2155 23.929 12.2285 23.9334C12.2416 23.9377 12.2534 23.9452 12.263 23.955H12.4C12.413 23.905 12.456 23.911 12.494 23.911C12.9618 23.8831 13.4263 23.8142 13.882 23.705C15.8633 23.2918 17.6914 22.338 19.1639 20.9495C20.6363 19.5609 21.6955 17.7917 22.224 15.838C22.4051 15.346 22.4567 14.8157 22.374 14.298ZM2.639 15.118C2.34611 13.9425 2.28949 12.7206 2.47244 11.5231C2.65538 10.3256 3.07425 9.17632 3.70475 8.14192C4.33525 7.10752 5.16483 6.20859 6.1454 5.49724C7.12596 4.7859 8.23799 4.27631 9.417 3.99801C9.56161 3.9546 9.71452 3.94654 9.86289 3.97451C10.0113 4.00249 10.1507 4.06568 10.2696 4.15878C10.3885 4.25187 10.4832 4.37214 10.546 4.50949C10.6087 4.64683 10.6375 4.79722 10.63 4.94801V11.007C10.6258 11.3824 10.6968 11.7548 10.8387 12.1023C10.9807 12.4498 11.1907 12.7654 11.4565 13.0305C11.7222 13.2956 12.0384 13.5049 12.3862 13.646C12.7341 13.787 13.1067 13.8571 13.482 13.852H19.46C19.6261 13.827 19.7958 13.8464 19.9519 13.9084C20.108 13.9704 20.2449 14.0728 20.3485 14.2049C20.4521 14.3371 20.5188 14.4945 20.5417 14.6608C20.5646 14.8272 20.543 14.9967 20.479 15.152C19.9738 17.1367 18.8208 18.8962 17.2027 20.1515C15.5845 21.4069 13.5938 22.0865 11.5458 22.0826C9.49775 22.0787 7.50959 21.3915 5.89625 20.13C4.2829 18.8685 3.13662 17.1047 2.639 15.118Z" fill="#FF5A00"/>
<path d="M24.5 6.883C24.462 6.727 24.425 6.56999 24.375 6.41999C23.9341 4.92855 23.1265 3.57135 22.0259 2.47241C20.9254 1.37346 19.5671 0.567786 18.075 0.128995C17.6479 -0.00379983 17.1955 -0.0343022 16.7544 0.0399504C16.3133 0.114203 15.8958 0.29113 15.5357 0.556449C15.1756 0.821767 14.8829 1.16804 14.6813 1.56732C14.4797 1.9666 14.3747 2.40769 14.375 2.855C14.369 4.318 14.369 5.78799 14.375 7.25499C14.3798 8.01304 14.6842 8.73842 15.2219 9.27277C15.7597 9.80711 16.4869 10.107 17.245 10.107C18.708 10.113 20.165 10.113 21.629 10.107C22.2542 10.1068 22.8624 9.9028 23.3612 9.52581C23.86 9.14882 24.2222 8.61946 24.393 8.018C24.4062 7.89656 24.4425 7.77877 24.5 7.671V7.53299C24.4814 7.48848 24.4719 7.44073 24.4719 7.39249C24.4719 7.34426 24.4814 7.29651 24.5 7.25199V6.883ZM21.555 8.24H17.315C17.1741 8.24909 17.0328 8.22824 16.9005 8.1788C16.7682 8.12936 16.6479 8.05247 16.5475 7.95318C16.4471 7.85389 16.3688 7.73446 16.3179 7.60274C16.267 7.47103 16.2445 7.33002 16.252 7.18899V2.956C16.2388 2.78531 16.2696 2.6141 16.3416 2.45875C16.4135 2.30341 16.5241 2.16912 16.6628 2.06877C16.8015 1.96841 16.9636 1.90534 17.1337 1.8856C17.3037 1.86585 17.476 1.89009 17.634 1.95599C18.7924 2.3181 19.8457 2.95559 20.7038 3.81385C21.5619 4.6721 22.1991 5.72556 22.561 6.884C22.6214 7.0412 22.6411 7.2111 22.6183 7.37795C22.5955 7.54481 22.531 7.7032 22.4306 7.83845C22.3303 7.9737 22.1974 8.08141 22.0444 8.15161C21.8913 8.22181 21.723 8.25221 21.555 8.24Z" fill="#FF5A00"/>
</g>
<defs>
<clipPath id="clip0_1_2553">
<rect width="24" height="23.955" fill="white" transform="translate(0.5)"/>
</clipPath>
</defs>
</svg>
