<svg id="termscond_icon" xmlns="http://www.w3.org/2000/svg" width="71" height="71.1" viewBox="0 0 71 71.1">
  <path id="Path_144" data-name="Path 144" d="M10,0h1.5L45.6,6.3c2,.4,2,.7,0,1.1L7.4,14.1c-.5.1-.7-.1-.7-.6A24.329,24.329,0,0,1,7.2,10,42.591,42.591,0,0,0,8.3,3.3,4.855,4.855,0,0,1,10,0Z" fill="#3a8bc3"/>
  <path id="Path_145" data-name="Path 145" d="M66,31.9c-.7-3.8-1.3-7.8-2.1-12-.2-1.2-.4-2.3-.7-3.5-.5-2.1-.2-4.5-1.4-6.5A1.5,1.5,0,0,0,60,9.1c-4.9.8-9.6,1.6-14,2.5-2,.4-3.9.4-5.9,1-1.7.5-3.5.5-5.3.9-8.2,1.5-15.5,2.8-22,3.9a12.547,12.547,0,0,0-2.6.7A1.754,1.754,0,0,0,9.1,20l2.2,12.6,7,38.5h2.1L71,61.7V59.6ZM20.2,35.1l-.1-.6a1.437,1.437,0,0,1,1.2-1.6l6.9-1.5,26.4-4.6a1.853,1.853,0,0,1,2.3,1.3,2.894,2.894,0,0,1-.3,2.5L22.5,36.8C21.1,37,20.3,36.5,20.2,35.1ZM47.3,49.3,25.4,53.2A2.051,2.051,0,0,1,23,51.6v-.1a2.051,2.051,0,0,1,1.6-2.4l21.9-3.9a2.051,2.051,0,0,1,2.4,1.6v.1A1.914,1.914,0,0,1,47.3,49.3Zm9.6-10.1L23.8,45a1.666,1.666,0,0,1-2-1.4l-.1-.7a1.666,1.666,0,0,1,1.4-2L56.2,35a1.666,1.666,0,0,1,2,1.4l.1.7A1.817,1.817,0,0,1,56.9,39.2Z" fill="#3a8bc3"/>
  <path id="Path_146" data-name="Path 146" d="M0,52V50.5L4.9,23c0-.1.1-.2.3-.2a.215.215,0,0,1,.2.2l5.5,31.2c0,.2-.1.5-.4.5h-.2c-2-.4-4.1-.7-6.3-1A6.718,6.718,0,0,1,0,52Z" fill="#3a8bc3"/>
</svg>
