<svg width="72" height="72" viewBox="0 0 72 72" fill="none" xmlns="http://www.w3.org/2000/svg">
<g clip-path="url(#clip0_1_2549)">
<path d="M10.5 0H12L46.1 6.3C48.1 6.7 48.1 7 46.1 7.4L7.9 14.1C7.4 14.2 7.2 14 7.2 13.5C7.28156 12.3228 7.44867 11.153 7.7 10C8.24438 7.7995 8.61221 5.55905 8.8 3.3C8.90716 2.01824 9.51857 0.831381 10.5 0Z" fill="#FF5A00"/>
<path d="M66.5 31.9C65.8 28.1 65.2 24.1 64.4 19.9C64.2 18.7 64 17.6 63.7 16.4C63.2 14.3 63.5 11.9 62.3 9.90001C62.147 9.5719 61.8805 9.31019 61.5497 9.16316C61.2189 9.01613 60.8461 8.9937 60.5 9.10002C55.6 9.90002 50.9 10.7 46.5 11.6C44.5 12 42.6 12 40.6 12.6C38.9 13.1 37.1 13.1 35.3 13.5C27.1 15 19.8 16.3 13.3 17.4C12.4107 17.5394 11.539 17.7741 10.7 18.1C10.3278 18.2443 10.016 18.5112 9.81597 18.8566C9.61597 19.2021 9.53979 19.6054 9.6 20L11.8 32.6L18.8 71.1H20.9L71.5 61.7V59.6L66.5 31.9ZM20.7 35.1L20.6 34.5C20.553 34.1297 20.652 33.7556 20.876 33.457C21.0999 33.1584 21.4313 32.9586 21.8 32.9L28.7 31.4L55.1 26.8C55.3364 26.7323 55.5839 26.7122 55.8281 26.7411C56.0723 26.77 56.3083 26.8471 56.5224 26.9681C56.7364 27.0891 56.9243 27.2515 57.075 27.4458C57.2256 27.6402 57.3361 27.8626 57.4 28.1C57.5415 28.5124 57.5881 28.9515 57.5361 29.3844C57.4842 29.8173 57.3351 30.2328 57.1 30.6L23 36.8C21.6 37 20.8 36.5 20.7 35.1ZM47.8 49.3L25.9 53.2C25.3699 53.303 24.8205 53.1927 24.3712 52.8932C23.9219 52.5936 23.6088 52.129 23.5 51.6V51.5C23.397 50.9699 23.5073 50.4206 23.8068 49.9712C24.1064 49.5219 24.5711 49.2089 25.1 49.1L47 45.2C47.5301 45.097 48.0794 45.2073 48.5288 45.5068C48.9781 45.8064 49.2912 46.2711 49.4 46.8V46.9C49.4717 47.1637 49.486 47.4397 49.4422 47.7094C49.3983 47.9791 49.2971 48.2363 49.1455 48.4637C48.994 48.6911 48.7955 48.8834 48.5634 49.0276C48.3313 49.1719 48.071 49.2648 47.8 49.3ZM57.4 39.2L24.3 45C24.076 45.0481 23.8445 45.0495 23.6199 45.0041C23.3953 44.9586 23.1825 44.8674 22.9948 44.736C22.8071 44.6046 22.6485 44.4359 22.529 44.2404C22.4094 44.045 22.3315 43.827 22.3 43.6L22.2 42.9C22.1519 42.676 22.1505 42.4445 22.1959 42.2199C22.2414 41.9953 22.3326 41.7825 22.464 41.5948C22.5954 41.4071 22.7641 41.2485 22.9596 41.129C23.155 41.0094 23.373 40.9315 23.6 40.9L56.7 35C56.924 34.9519 57.1555 34.9505 57.3801 34.996C57.6047 35.0414 57.8175 35.1326 58.0052 35.264C58.1929 35.3954 58.3515 35.5641 58.471 35.7596C58.5906 35.955 58.6685 36.1731 58.7 36.4L58.8 37.1C58.8842 37.5632 58.7853 38.041 58.5241 38.4328C58.263 38.8245 57.86 39.0996 57.4 39.2Z" fill="#FF5A00"/>
<path d="M0.5 52V50.5L5.4 23C5.4 22.9 5.5 22.8 5.7 22.8C5.75189 22.8035 5.80074 22.8257 5.83752 22.8625C5.87429 22.8992 5.89649 22.9481 5.9 23L11.4 54.2C11.4 54.4 11.3 54.7 11 54.7H10.8C8.8 54.3 6.7 54 4.5 53.7C3.01513 53.5922 1.60813 52.9942 0.5 52Z" fill="#FF5A00"/>
</g>
<defs>
<clipPath id="clip0_1_2549">
<rect width="71" height="71.1" fill="white" transform="translate(0.5)"/>
</clipPath>
</defs>
</svg>
