<svg xmlns="http://www.w3.org/2000/svg" width="23.98" height="24.033" viewBox="0 0 23.98 24.033">
  <g id="theme_icon" transform="translate(0 -0.967)">
    <path id="Path_2434" data-name="Path 2434" d="M23.85,11.156a11.312,11.312,0,0,0-3.018-6.362A11.789,11.789,0,0,0,9.06,1.376a11.683,11.683,0,0,0-8.935,9.83A2.867,2.867,0,0,1,0,11.97v.188c.031.025.025.063.025.094v.2c0,.031,0,.056-.025.075v.8c.031.025.025.063.025.094V13.6c-.006.05.019.1-.025.138v.188c.044.225.025.463.056.695A11.752,11.752,0,0,0,9.029,24.712,14.066,14.066,0,0,0,10.87,25h.23a.127.127,0,0,1,.094-.025h.019a.086.086,0,0,1,.075.025h.376a.252.252,0,0,1,.232,0h.138c.019-.013.031-.031.05-.038a4.142,4.142,0,0,0,3.362-5.354,4.731,4.731,0,0,0-1.12-1.808,1.6,1.6,0,0,1-.232-1.947,1.787,1.787,0,0,1,1.9-.927,2.1,2.1,0,0,1,.989.6,4.161,4.161,0,0,0,6.917-2.13,6.1,6.1,0,0,0-.05-2.235ZM11.533,23.115a9.985,9.985,0,0,1-5.09-1.584A9.672,9.672,0,0,1,2.016,14.6,9.9,9.9,0,0,1,3.757,7.055a9.808,9.808,0,0,1,6.7-4.076,9.464,9.464,0,0,1,1.521-.106,10.034,10.034,0,0,1,8,3.788,9.7,9.7,0,0,1,2.048,4.946A4.648,4.648,0,0,1,22.1,12.89a2.074,2.074,0,0,1-1.471,1.741,2.135,2.135,0,0,1-2.3-.451,4.07,4.07,0,0,0-1.887-1.08A3.7,3.7,0,0,0,12.1,15.9a3.513,3.513,0,0,0,1.014,3.337A2.3,2.3,0,0,1,13.3,22.27a2.011,2.011,0,0,1-1.767.845Z" fill="#3a8bc3"/>
    <path id="Path_2435" data-name="Path 2435" d="M14.814,5.508a2.811,2.811,0,1,0,2.8,2.824A2.811,2.811,0,0,0,14.814,5.508ZM14.8,9.259a.936.936,0,1,1,.946-.927.936.936,0,0,1-.946.927Z" fill="#3a8bc3"/>
    <path id="Path_2436" data-name="Path 2436" d="M7.307,13.942a2.808,2.808,0,1,0,2.818,2.805,2.808,2.808,0,0,0-2.818-2.805Zm.006,3.744a.936.936,0,1,1,.936-.936.936.936,0,0,1-.936.936Z" fill="#3a8bc3"/>
    <path id="Path_2437" data-name="Path 2437" d="M7.32,6.447a2.808,2.808,0,1,0,2.8,2.824,2.808,2.808,0,0,0-2.8-2.824Zm-.013,3.744a.934.934,0,1,1,.939-.926.924.924,0,0,1-.939.927Z" fill="#3a8bc3"/>
  </g>
</svg>
