<svg width="25" height="25" viewBox="0 0 25 25" fill="none" xmlns="http://www.w3.org/2000/svg">
<g clip-path="url(#clip0_1_2557)">
<path d="M24.35 10.189C24.0465 7.80123 22.9892 5.57255 21.332 3.82697C19.8719 2.2326 18.0014 1.07045 15.9252 0.467622C13.849 -0.135205 11.647 -0.155495 9.56 0.408971C7.24859 0.946167 5.15557 2.17449 3.55945 3.9305C1.96332 5.68651 0.939771 7.88693 0.625 10.239C0.618066 10.4981 0.576016 10.7551 0.5 11.003L0.5 11.191C0.531 11.216 0.525 11.254 0.525 11.285V11.485C0.525 11.516 0.525 11.541 0.5 11.56V12.36C0.531 12.385 0.525 12.423 0.525 12.454V12.633C0.519 12.683 0.544 12.733 0.5 12.771V12.959C0.544 13.184 0.525 13.422 0.556 13.654C0.832804 16.0544 1.84282 18.3112 3.44847 20.1169C5.05413 21.9226 7.17737 23.1895 9.529 23.745C10.1356 23.8816 10.7506 23.9778 11.37 24.033H11.6C11.6133 24.0228 11.6284 24.0154 11.6445 24.0111C11.6606 24.0068 11.6775 24.0058 11.694 24.008H11.713C11.7266 24.0058 11.7405 24.007 11.7535 24.0113C11.7666 24.0157 11.7784 24.0231 11.788 24.033H12.164C12.1998 24.0144 12.2396 24.0047 12.28 24.0047C12.3204 24.0047 12.3602 24.0144 12.396 24.033H12.534C12.553 24.02 12.565 24.002 12.584 23.995C13.1797 23.9099 13.7496 23.696 14.2543 23.3683C14.7589 23.0406 15.186 22.6068 15.506 22.0973C15.826 21.5877 16.0311 21.0145 16.1071 20.4176C16.1831 19.8207 16.1281 19.2145 15.946 18.641C15.7147 17.9611 15.3317 17.3428 14.826 16.833C14.5768 16.5801 14.4188 16.2516 14.3768 15.8992C14.3348 15.5467 14.4112 15.1903 14.594 14.886C14.7709 14.5494 15.0505 14.2781 15.3922 14.1114C15.7339 13.9447 16.1199 13.8913 16.494 13.959C16.8733 14.0624 17.216 14.2703 17.483 14.559C18.0183 15.0635 18.6778 15.4172 19.3943 15.5838C20.1107 15.7505 20.8586 15.7243 21.5616 15.5078C22.2647 15.2913 22.8977 14.8923 23.3963 14.3514C23.8949 13.8106 24.2413 13.1472 24.4 12.429C24.5212 11.6873 24.5042 10.9295 24.35 10.194V10.189ZM12.033 22.148C10.2241 22.091 8.46477 21.5435 6.943 20.564C5.74111 19.805 4.72129 18.7904 3.95613 17.5924C3.19096 16.3945 2.69925 15.0426 2.516 13.633C2.28434 12.3229 2.31911 10.9795 2.61824 9.6832C2.91738 8.38685 3.47473 7.16409 4.257 6.08797C5.03331 4.98421 6.02903 4.05252 7.18188 3.35117C8.33473 2.64983 9.6199 2.19392 10.957 2.01197C11.4603 1.93579 11.969 1.90034 12.478 1.90597C14.0123 1.88361 15.5314 2.21346 16.9183 2.87015C18.3052 3.52685 19.523 4.49289 20.478 5.69397C21.6111 7.11789 22.3208 8.83184 22.526 10.64C22.61 11.0621 22.6349 11.4939 22.6 11.923C22.5516 12.3251 22.3865 12.7043 22.1251 13.0137C21.8637 13.323 21.5174 13.5491 21.129 13.664C20.7434 13.8213 20.3202 13.8624 19.9116 13.7823C19.5029 13.7022 19.1266 13.5043 18.829 13.213C18.3096 12.6885 17.6573 12.3152 16.942 12.133C15.996 11.9411 15.0125 12.1265 14.2014 12.6496C13.3902 13.1727 12.8155 13.9921 12.6 14.933C12.4639 15.5293 12.4858 16.1509 12.6636 16.7362C12.8415 17.3215 13.1691 17.8502 13.614 18.27C14.0085 18.6665 14.245 19.1931 14.2792 19.7514C14.3134 20.3096 14.1431 20.8612 13.8 21.303C13.6019 21.5827 13.3356 21.8072 13.0263 21.9551C12.7171 22.103 12.3751 22.1694 12.033 22.148Z" fill="#FF5A00"/>
<path d="M15.314 4.54098C14.7581 4.53881 14.2141 4.7015 13.7507 5.00848C13.2872 5.31546 12.9252 5.75294 12.7104 6.26563C12.4956 6.77832 12.4376 7.34319 12.5438 7.88883C12.6499 8.43448 12.9155 8.93639 13.3069 9.33113C13.6983 9.72587 14.1979 9.9957 14.7426 10.1065C15.2873 10.2173 15.8527 10.1642 16.3672 9.95374C16.8817 9.7433 17.3222 9.38505 17.6332 8.92426C17.9441 8.46347 18.1114 7.92085 18.114 7.36498C18.1157 6.99566 18.0446 6.62963 17.9048 6.2878C17.765 5.94597 17.5592 5.63504 17.2992 5.37278C17.0391 5.11052 16.73 4.90207 16.3894 4.75935C16.0487 4.61662 15.6833 4.54242 15.314 4.54098ZM15.3 8.29198C15.1149 8.28999 14.9346 8.23318 14.7818 8.12874C14.629 8.02429 14.5106 7.8769 14.4416 7.70518C14.3726 7.53346 14.356 7.34513 14.394 7.16399C14.4319 6.98285 14.5227 6.81703 14.6549 6.6875C14.7871 6.55796 14.9548 6.47053 15.1366 6.43624C15.3185 6.40195 15.5065 6.42234 15.6767 6.49485C15.847 6.56736 15.992 6.68872 16.0933 6.84359C16.1946 6.99847 16.2478 7.17991 16.246 7.36498C16.2448 7.48798 16.2194 7.60955 16.1712 7.72272C16.123 7.8359 16.053 7.93847 15.9651 8.02456C15.8773 8.11066 15.7733 8.17859 15.6592 8.22447C15.5451 8.27036 15.423 8.2933 15.3 8.29198Z" fill="#FF5A00"/>
<path d="M7.807 12.975C7.25193 12.977 6.7099 13.1434 6.24938 13.4533C5.78886 13.7632 5.43051 14.2026 5.2196 14.716C5.00869 15.2295 4.95469 15.7939 5.0644 16.338C5.17412 16.8821 5.44264 17.3815 5.83604 17.7731C6.22944 18.1647 6.73008 18.4309 7.2747 18.5381C7.81932 18.6453 8.38349 18.5887 8.89595 18.3754C9.40841 18.1621 9.84616 17.8018 10.1539 17.3398C10.4617 16.8779 10.6256 16.3351 10.625 15.78C10.6246 15.4107 10.5514 15.045 10.4094 14.704C10.2675 14.363 10.0597 14.0534 9.79796 13.7928C9.53619 13.5323 9.2256 13.3259 8.88395 13.1856C8.54231 13.0452 8.17634 12.9737 7.807 12.975ZM7.813 16.719C7.62788 16.719 7.44691 16.6641 7.29299 16.5612C7.13906 16.4584 7.01909 16.3122 6.94825 16.1412C6.87741 15.9702 6.85887 15.782 6.89499 15.6004C6.9311 15.4188 7.02025 15.252 7.15115 15.1211C7.28205 14.9902 7.44883 14.9011 7.6304 14.865C7.81196 14.8289 8.00016 14.8474 8.17119 14.9182C8.34222 14.9891 8.48841 15.1091 8.59126 15.263C8.6941 15.4169 8.749 15.5979 8.749 15.783C8.749 15.9059 8.72479 16.0276 8.67775 16.1412C8.63071 16.2547 8.56177 16.3579 8.47485 16.4448C8.38794 16.5318 8.28475 16.6007 8.17119 16.6477C8.05763 16.6948 7.93592 16.719 7.813 16.719Z" fill="#FF5A00"/>
<path d="M7.82 5.47999C7.26497 5.47842 6.72193 5.64136 6.25946 5.94825C5.79699 6.25513 5.43584 6.69218 5.22162 7.2042C5.0074 7.71622 4.94973 8.28024 5.05588 8.82502C5.16203 9.36981 5.42725 9.87091 5.81803 10.265C6.20882 10.6592 6.70764 10.9287 7.2515 11.0395C7.79535 11.1503 8.35984 11.0974 8.87367 10.8876C9.3875 10.6777 9.82762 10.3203 10.1384 9.86048C10.4493 9.40064 10.6168 8.85901 10.62 8.30399C10.6221 7.93457 10.5513 7.56836 10.4116 7.22635C10.272 6.88434 10.0662 6.57325 9.80606 6.31092C9.54595 6.04858 9.23663 5.84014 8.89582 5.69756C8.55502 5.55497 8.18943 5.48104 7.82 5.47999ZM7.807 9.22399C7.62215 9.223 7.44175 9.16717 7.28865 9.06358C7.13554 8.96 7.01662 8.81331 6.94694 8.64209C6.87725 8.47088 6.85994 8.28283 6.8972 8.10177C6.93445 7.92071 7.0246 7.75478 7.15622 7.62498C7.28783 7.49518 7.45501 7.40736 7.63657 7.37263C7.81813 7.33791 8.00592 7.35784 8.17615 7.4299C8.34637 7.50197 8.49139 7.62292 8.59283 7.77745C8.69427 7.93199 8.74758 8.11315 8.746 8.29799C8.74641 8.42086 8.72232 8.54257 8.67513 8.65602C8.62794 8.76946 8.55859 8.87235 8.47116 8.95867C8.38372 9.04499 8.27994 9.113 8.1659 9.15873C8.05186 9.20446 7.92985 9.22699 7.807 9.22499V9.22399Z" fill="#FF5A00"/>
</g>
<defs>
<clipPath id="clip0_1_2557">
<rect width="23.98" height="24.033" fill="white" transform="translate(0.5)"/>
</clipPath>
</defs>
</svg>
