<svg width="91" height="90" viewBox="0 0 91 90" fill="none" xmlns="http://www.w3.org/2000/svg">
<g clip-path="url(#clip0_1_2563)">
<path d="M90.468 31.287C90.304 32.32 90.155 33.362 89.968 34.395C89.0512 39.3505 86.8626 43.9828 83.6166 47.8378C80.3706 51.6928 76.1787 54.6383 71.4516 56.3856C66.7246 58.1328 61.6247 58.6219 56.6518 57.8049C51.6789 56.9878 47.0036 54.8927 43.0841 51.7249C39.1646 48.557 36.1355 44.4251 34.2936 39.7342C32.4517 35.0432 31.8602 29.9542 32.5772 24.9658C33.2941 19.9775 35.2949 15.261 38.3834 11.2787C41.4718 7.29633 45.542 4.18478 50.195 2.249C52.8709 1.13019 55.7005 0.422193 58.588 0.149C58.7924 0.119114 58.9934 0.0692078 59.188 0H63.408C63.87 0.07 64.324 0.149 64.786 0.2C70.9739 0.984832 76.7518 3.71777 81.2838 8.00349C85.8158 12.2892 88.867 17.9055 89.996 24.04C90.176 25.04 90.317 26.052 90.481 27.062V31.282L90.468 31.287ZM70.219 34.341C68.677 32.799 67.15 31.264 65.6 29.753C65.169 29.338 65.107 29.033 65.584 28.61C66.046 28.21 66.461 27.749 66.891 27.31C68.011 26.21 69.13 25.094 70.171 24.061L66.419 20.193C64.884 21.759 63.358 23.293 61.862 24.851C61.447 25.282 61.142 25.351 60.719 24.874C60.319 24.412 59.858 23.997 59.419 23.567C58.319 22.447 57.211 21.328 56.178 20.287L52.348 24.002C53.898 25.544 55.425 27.087 56.975 28.59C57.406 29.005 57.468 29.31 56.991 29.733C56.491 30.179 56.036 30.68 55.558 31.158C54.478 32.223 53.405 33.288 52.403 34.274L56.161 38.149C57.688 36.583 59.214 35.049 60.71 33.483C61.125 33.052 61.43 32.998 61.853 33.467C62.362 34.031 62.926 34.547 63.453 35.088C64.453 36.106 65.453 37.124 66.397 38.088L70.218 34.338L70.219 34.341Z" fill="#FF5A00"/>
<path d="M36.525 52.794C36.235 53.099 36 53.35 35.758 53.6C33.065 56.293 30.364 58.971 27.694 61.688C27.185 62.205 26.872 62.228 26.363 61.688C24.891 60.146 23.363 58.658 21.9 57.194L18.377 60.741L27.219 69.572C27.274 69.517 27.54 69.314 27.775 69.072C31.815 65.04 35.8523 61 39.887 56.952C40.357 56.482 40.687 56.352 41.281 56.795C46.0559 60.3413 51.6888 62.5527 57.601 63.202C58.423 63.296 58.533 63.625 58.439 64.329C57.7045 70.5067 55.0063 76.2855 50.7415 80.8148C46.4766 85.3441 40.8704 88.3847 34.748 89.489C25.76 91.133 17.712 88.789 10.767 82.913C5.21436 78.3559 1.64021 71.8271 0.792998 64.694C-0.481002 54.579 2.813 46.053 10.329 39.21C14.6889 35.2722 20.1563 32.7735 25.987 32.054C26.793 31.944 27.169 32.031 27.287 32.986C28.0865 40.2076 31.1944 46.9786 36.149 52.293C36.266 52.418 36.36 52.567 36.533 52.793L36.525 52.794Z" fill="#FF5A00"/>
</g>
<defs>
<clipPath id="clip0_1_2563">
<rect width="90" height="90.002" fill="white" transform="translate(0.5)"/>
</clipPath>
</defs>
</svg>
