<svg width="25" height="24" viewBox="0 0 25 24" fill="none" xmlns="http://www.w3.org/2000/svg">
<g clip-path="url(#clip0_1_4420)">
<path d="M24.488 13.857C24.4877 13.6122 24.3908 13.3775 24.2183 13.2039C24.0458 13.0303 23.8117 12.9318 23.567 12.93C23.316 12.924 23.067 12.917 22.815 12.93C22.646 12.942 22.608 12.892 22.615 12.73C22.621 11.941 22.621 11.151 22.621 10.362C22.6288 9.98255 22.5597 9.60549 22.4179 9.25349C22.2761 8.90149 22.0645 8.58184 21.7959 8.31378C21.5273 8.04572 21.2072 7.83481 20.8549 7.69374C20.5026 7.55268 20.1254 7.48438 19.746 7.49296H5.243C4.68082 7.48252 4.12172 7.57819 3.595 7.77496C2.77669 8.06193 2.05584 8.57376 1.51513 9.25171C0.974426 9.92967 0.635767 10.7463 0.538 11.608C0.538 11.614 0.532 11.614 0.532 11.621C0.518174 11.6911 0.513802 11.7627 0.519 11.834V11.865C0.519 11.94 0.544 12.015 0.5 12.084V19.865H0.507C0.545 19.884 0.538 19.921 0.545 19.959C0.70421 21.0903 1.27171 22.1244 2.14057 22.8664C3.00942 23.6083 4.11964 24.0069 5.262 23.987H19.739C20.1185 23.9961 20.496 23.9282 20.8486 23.7873C21.2011 23.6465 21.5214 23.4356 21.7902 23.1674C22.0589 22.8992 22.2705 22.5793 22.4121 22.2271C22.5537 21.8748 22.6224 21.4975 22.614 21.118C22.614 20.318 22.62 19.527 22.614 18.725C22.614 18.587 22.639 18.537 22.789 18.543C23.046 18.556 23.303 18.549 23.56 18.543C23.8059 18.5427 24.0416 18.445 24.2156 18.2712C24.3895 18.0975 24.4875 17.8618 24.488 17.616C24.494 16.375 24.494 15.116 24.488 13.857ZM2.361 19.282C2.355 16.92 2.355 14.565 2.361 12.203C2.35698 11.8292 2.42765 11.4583 2.56885 11.1122C2.71005 10.766 2.91895 10.4516 3.18328 10.1872C3.44762 9.9229 3.76208 9.71401 4.10821 9.57281C4.45435 9.43161 4.82519 9.36094 5.199 9.36496C7.605 9.35896 10.01 9.36496 12.416 9.36496H19.658C19.8047 9.3451 19.9541 9.35951 20.0943 9.40708C20.2345 9.45464 20.3618 9.53406 20.4661 9.63909C20.5705 9.74412 20.6491 9.87191 20.6957 10.0124C20.7424 10.1529 20.7558 10.3024 20.735 10.449C20.735 11.207 20.729 11.965 20.741 12.723C20.741 12.905 20.691 12.936 20.522 12.936C19.67 12.93 18.822 12.93 17.966 12.93C17.5926 12.9243 17.2219 12.9931 16.8754 13.1323C16.529 13.2716 16.2137 13.4785 15.9481 13.741C15.6825 14.0035 15.4719 14.3162 15.3286 14.661C15.1853 15.0058 15.1121 15.3757 15.1134 15.7491C15.1146 16.1225 15.1903 16.4919 15.336 16.8358C15.4816 17.1796 15.6943 17.4909 15.9617 17.7516C16.2291 18.0123 16.5457 18.217 16.8931 18.354C17.2405 18.4909 17.6117 18.5571 17.985 18.549C18.837 18.549 19.685 18.555 20.541 18.543C20.71 18.543 20.741 18.593 20.741 18.75C20.735 19.539 20.741 20.329 20.735 21.118C20.7433 21.251 20.7231 21.3843 20.6757 21.5088C20.6282 21.6334 20.5547 21.7464 20.4599 21.8402C20.3652 21.934 20.2515 22.0064 20.1265 22.0526C20.0014 22.0987 19.8679 22.1176 19.735 22.108H5.18C4.8085 22.1105 4.44022 22.0391 4.0966 21.8979C3.75298 21.7567 3.44089 21.5485 3.17853 21.2855C2.91616 21.0224 2.70876 20.7098 2.5684 20.3659C2.42804 20.0219 2.35754 19.6534 2.361 19.282ZM20.161 16.682H18.004C17.8753 16.6918 17.746 16.675 17.624 16.6325C17.5021 16.5901 17.3903 16.523 17.2955 16.4355C17.2007 16.3479 17.1249 16.2417 17.073 16.1235C17.021 16.0054 16.994 15.8778 16.9936 15.7487C16.9932 15.6196 17.0194 15.4918 17.0706 15.3733C17.1217 15.2548 17.1968 15.1482 17.2911 15.06C17.3853 14.9718 17.4967 14.904 17.6184 14.8608C17.74 14.8176 17.8692 14.8 17.998 14.809C19.477 14.809 20.949 14.809 22.427 14.803C22.571 14.803 22.627 14.828 22.621 14.991C22.608 15.486 22.608 15.975 22.621 16.469C22.627 16.638 22.59 16.694 22.408 16.688C21.656 16.676 20.908 16.682 20.159 16.682H20.161Z" fill="#FF5A00"/>
<path d="M15.116 5.424C15.0134 5.50294 14.8956 5.55982 14.77 5.59106C14.6444 5.6223 14.5136 5.62723 14.386 5.60554C14.2584 5.58385 14.1366 5.536 14.0284 5.46501C13.9201 5.39402 13.8277 5.30141 13.757 5.193C13.057 4.266 12.357 3.332 11.665 2.405C11.5944 2.26353 11.4906 2.14131 11.3624 2.04886C11.2341 1.95641 11.0854 1.89649 10.9288 1.87426C10.7723 1.85202 10.6128 1.86814 10.4638 1.92123C10.3149 1.97431 10.1812 2.06277 10.074 2.179C8.65133 3.25033 7.22267 4.32167 5.788 5.393C5.64566 5.51794 5.4682 5.59585 5.27989 5.61608C5.09158 5.63631 4.90162 5.59786 4.736 5.506C4.57352 5.42618 4.43889 5.29921 4.34969 5.14169C4.26049 4.98416 4.22087 4.80339 4.236 4.623C4.24064 4.48906 4.27574 4.35793 4.33864 4.23959C4.40154 4.12124 4.49058 4.01878 4.599 3.94C6.125 2.79333 7.65466 1.649 9.188 0.507C9.53298 0.249654 9.93958 0.0875661 10.367 0.037C10.373 0.037 10.38 0.031 10.386 0.031C10.461 0.006 10.543 0.05 10.612 0H11.176C11.3102 0.0566082 11.4515 0.0946261 11.596 0.113C12.1766 0.283481 12.6864 0.637488 13.049 1.122C13.788 2.106 14.534 3.095 15.267 4.079C15.3496 4.17538 15.4116 4.28774 15.4489 4.40909C15.4863 4.53044 15.4982 4.65817 15.4841 4.78434C15.4699 4.91052 15.4299 5.03242 15.3666 5.14247C15.3033 5.25251 15.218 5.34835 15.116 5.424Z" fill="#FF5A00"/>
<path d="M20.742 5.42398C20.6373 5.50285 20.5174 5.55915 20.3899 5.58934C20.2623 5.61952 20.1299 5.62292 20.001 5.59934C19.872 5.57575 19.7494 5.52568 19.6408 5.4523C19.5322 5.37891 19.44 5.28381 19.37 5.17298C18.668 4.24631 17.974 3.31731 17.288 2.38598C17.1886 2.22796 17.0511 2.0975 16.888 2.00662C16.725 1.91575 16.5417 1.86738 16.355 1.86598C16.1453 1.85443 15.9459 1.77143 15.79 1.63079C15.6341 1.49015 15.531 1.30035 15.498 1.09298C15.4651 0.887917 15.5013 0.677724 15.6011 0.495565C15.7009 0.313407 15.8585 0.169652 16.049 0.0869814C16.112 0.0559814 16.174 0.0309814 16.237 0.00598145H16.801C16.9268 0.0602431 17.0599 0.0959487 17.196 0.111981C17.7857 0.281583 18.3046 0.637699 18.675 1.12698C19.417 2.10431 20.152 3.08365 20.88 4.06498C20.9659 4.16066 21.0309 4.27325 21.0708 4.39552C21.1107 4.51779 21.1246 4.64705 21.1116 4.77501C21.0986 4.90296 21.059 5.02679 20.9954 5.13855C20.9317 5.25031 20.8454 5.34753 20.742 5.42398Z" fill="#FF5A00"/>
</g>
<defs>
<clipPath id="clip0_1_4420">
<rect width="23.992" height="23.988" fill="white" transform="translate(0.5)"/>
</clipPath>
</defs>
</svg>
