<svg width="20" height="20" viewBox="0 0 20 20" fill="none" xmlns="http://www.w3.org/2000/svg">
<g clip-path="url(#clip0_1_4425)">
<path d="M19.492 9.49406C19.492 10.6721 19.467 11.8551 19.498 13.0331C19.5146 13.6463 19.3989 14.2559 19.1587 14.8203C18.9185 15.3848 18.5594 15.8909 18.106 16.3041C17.1103 17.2364 15.9093 17.9215 14.6 18.3041C12.4636 18.9793 10.2044 19.174 7.984 18.8741C6.47867 18.7072 5.01585 18.2699 3.666 17.5831C2.61002 17.0753 1.71402 16.2869 1.076 15.3041C0.69699 14.6924 0.497409 13.9866 0.5 13.2671V5.72106C0.512471 5.09823 0.662355 4.48584 0.938942 3.92765C1.21553 3.36946 1.61199 2.87925 2.1 2.49206C3.11024 1.62423 4.30002 0.990752 5.584 0.637057C7.55757 0.052241 9.62803 -0.132706 11.674 0.093057C13.2506 0.229526 14.7879 0.658868 16.207 1.35906C17.2363 1.84031 18.124 2.57915 18.784 3.50406C19.2525 4.16878 19.5005 4.96384 19.493 5.77706C19.487 7.01806 19.493 8.25206 19.493 9.49306L19.492 9.49406ZM11.351 9.50406C11.414 9.43406 11.465 9.37706 11.522 9.32006L14.339 6.50406C14.4136 6.43274 14.4834 6.35658 14.548 6.27606C14.64 6.15597 14.7018 6.01552 14.7281 5.86654C14.7544 5.71756 14.7445 5.56444 14.6992 5.42009C14.6539 5.27575 14.5746 5.14443 14.4678 5.03721C14.3611 4.92999 14.2301 4.85002 14.086 4.80406C13.9091 4.74534 13.7188 4.73981 13.5387 4.78816C13.3587 4.8365 13.1967 4.9366 13.073 5.07606C12.111 6.04406 11.142 7.00406 10.18 7.96806C10.123 8.02506 10.066 8.07606 9.996 8.13906C9.933 8.08206 9.876 8.03106 9.825 7.98106L8.394 6.55006C7.888 6.04406 7.394 5.53706 6.881 5.04306C6.7929 4.94922 6.68662 4.87431 6.56864 4.82288C6.45065 4.77145 6.32342 4.74459 6.19471 4.74393C6.06601 4.74327 5.93851 4.76882 5.82 4.81904C5.70149 4.86925 5.59445 4.94307 5.5054 5.036C5.41634 5.12893 5.34715 5.23902 5.30202 5.35956C5.2569 5.4801 5.23679 5.60856 5.24293 5.73713C5.24907 5.86569 5.28132 5.99166 5.33772 6.10735C5.39413 6.22304 5.4735 6.32604 5.571 6.41006C6.533 7.37872 7.49733 8.34339 8.464 9.30406C8.521 9.36106 8.572 9.41806 8.641 9.48806C8.584 9.55106 8.533 9.60806 8.483 9.65906L7.052 11.0891C6.546 11.5951 6.039 12.0891 5.545 12.6021C5.44259 12.6973 5.36275 12.8143 5.31133 12.9444C5.25991 13.0744 5.2382 13.2144 5.24778 13.3539C5.25736 13.4935 5.298 13.6291 5.36673 13.7509C5.43545 13.8727 5.53052 13.9777 5.645 14.0581C5.83698 14.1969 6.07395 14.2589 6.30933 14.2319C6.54471 14.2049 6.76147 14.0908 6.917 13.9121C7.89367 12.9441 8.86533 11.9747 9.832 11.0041C9.889 10.9471 9.946 10.8961 10.032 10.8201C10.108 10.9091 10.159 10.9851 10.222 11.0481C11.153 11.9851 12.09 12.9161 13.022 13.8481C13.0933 13.9227 13.1695 13.9925 13.25 14.0571C13.3791 14.1517 13.5303 14.2118 13.6892 14.2316C13.8481 14.2514 14.0094 14.2302 14.1578 14.1701C14.3062 14.11 14.4368 14.0129 14.5371 13.8881C14.6375 13.7633 14.7042 13.6149 14.731 13.4571C14.7594 13.2925 14.7452 13.1233 14.6897 12.9658C14.6342 12.8082 14.5393 12.6675 14.414 12.5571C13.452 11.6011 12.496 10.6391 11.534 9.67706C11.477 9.62006 11.426 9.56306 11.357 9.49306L11.351 9.50406Z" fill="#45536D"/>
</g>
<defs>
<clipPath id="clip0_1_4425">
<rect width="19" height="19.011" fill="white" transform="translate(0.5)"/>
</clipPath>
</defs>
</svg>
